%TF.GenerationSoftware,KiCad,Pcbnew,(6.0.8)*%
%TF.CreationDate,2022-10-11T18:30:02+08:00*%
%TF.ProjectId,UINIO-USB-UART,55494e49-4f2d-4555-9342-2d554152542e,Hank*%
%TF.SameCoordinates,Original*%
%TF.FileFunction,Legend,Top*%
%TF.FilePolarity,Positive*%
%FSLAX46Y46*%
G04 Gerber Fmt 4.6, Leading zero omitted, Abs format (unit mm)*
G04 Created by KiCad (PCBNEW (6.0.8)) date 2022-10-11 18:30:02*
%MOMM*%
%LPD*%
G01*
G04 APERTURE LIST*
G04 Aperture macros list*
%AMRoundRect*
0 Rectangle with rounded corners*
0 $1 Rounding radius*
0 $2 $3 $4 $5 $6 $7 $8 $9 X,Y pos of 4 corners*
0 Add a 4 corners polygon primitive as box body*
4,1,4,$2,$3,$4,$5,$6,$7,$8,$9,$2,$3,0*
0 Add four circle primitives for the rounded corners*
1,1,$1+$1,$2,$3*
1,1,$1+$1,$4,$5*
1,1,$1+$1,$6,$7*
1,1,$1+$1,$8,$9*
0 Add four rect primitives between the rounded corners*
20,1,$1+$1,$2,$3,$4,$5,0*
20,1,$1+$1,$4,$5,$6,$7,0*
20,1,$1+$1,$6,$7,$8,$9,0*
20,1,$1+$1,$8,$9,$2,$3,0*%
G04 Aperture macros list end*
%ADD10C,0.200000*%
%ADD11C,0.100000*%
%ADD12C,0.120000*%
%ADD13C,0.254000*%
%ADD14C,0.152000*%
%ADD15C,0.150000*%
%ADD16RoundRect,0.250000X-0.375000X-0.625000X0.375000X-0.625000X0.375000X0.625000X-0.375000X0.625000X0*%
%ADD17RoundRect,0.225000X-0.225000X-0.250000X0.225000X-0.250000X0.225000X0.250000X-0.225000X0.250000X0*%
%ADD18RoundRect,0.218750X0.218750X0.256250X-0.218750X0.256250X-0.218750X-0.256250X0.218750X-0.256250X0*%
%ADD19RoundRect,0.200000X-0.200000X-0.275000X0.200000X-0.275000X0.200000X0.275000X-0.200000X0.275000X0*%
%ADD20RoundRect,0.250000X0.625000X-0.375000X0.625000X0.375000X-0.625000X0.375000X-0.625000X-0.375000X0*%
%ADD21C,0.650000*%
%ADD22O,2.100000X1.000000*%
%ADD23O,1.900000X1.000000*%
%ADD24R,1.150000X0.600000*%
%ADD25R,1.150000X0.300000*%
%ADD26R,0.905000X0.280000*%
%ADD27R,0.280000X0.905000*%
%ADD28R,3.350000X3.350000*%
%ADD29RoundRect,0.225000X0.225000X0.250000X-0.225000X0.250000X-0.225000X-0.250000X0.225000X-0.250000X0*%
%ADD30O,1.200000X1.000000*%
%ADD31R,1.700000X1.700000*%
%ADD32O,1.700000X1.700000*%
%ADD33RoundRect,0.200000X0.200000X0.275000X-0.200000X0.275000X-0.200000X-0.275000X0.200000X-0.275000X0*%
%ADD34RoundRect,0.218750X-0.218750X-0.256250X0.218750X-0.256250X0.218750X0.256250X-0.218750X0.256250X0*%
%ADD35R,0.250000X0.750000*%
%ADD36R,0.750000X0.250000*%
G04 APERTURE END LIST*
D10*
X181735795Y-93097904D02*
X182116747Y-92831238D01*
X181735795Y-92640761D02*
X182535795Y-92640761D01*
X182535795Y-92945523D01*
X182497700Y-93021714D01*
X182459604Y-93059809D01*
X182383414Y-93097904D01*
X182269128Y-93097904D01*
X182192938Y-93059809D01*
X182154842Y-93021714D01*
X182116747Y-92945523D01*
X182116747Y-92640761D01*
X181773890Y-93402666D02*
X181735795Y-93516952D01*
X181735795Y-93707428D01*
X181773890Y-93783619D01*
X181811985Y-93821714D01*
X181888176Y-93859809D01*
X181964366Y-93859809D01*
X182040557Y-93821714D01*
X182078652Y-93783619D01*
X182116747Y-93707428D01*
X182154842Y-93555047D01*
X182192938Y-93478857D01*
X182231033Y-93440761D01*
X182307223Y-93402666D01*
X182383414Y-93402666D01*
X182459604Y-93440761D01*
X182497700Y-93478857D01*
X182535795Y-93555047D01*
X182535795Y-93745523D01*
X182497700Y-93859809D01*
X182535795Y-94088380D02*
X182535795Y-94545523D01*
X181735795Y-94316952D02*
X182535795Y-94316952D01*
X153335356Y-104331904D02*
X153068690Y-103950952D01*
X152878213Y-104331904D02*
X152878213Y-103531904D01*
X153182975Y-103531904D01*
X153259166Y-103570000D01*
X153297261Y-103608095D01*
X153335356Y-103684285D01*
X153335356Y-103798571D01*
X153297261Y-103874761D01*
X153259166Y-103912857D01*
X153182975Y-103950952D01*
X152878213Y-103950952D01*
X153563928Y-103531904D02*
X154021071Y-103531904D01*
X153792499Y-104331904D02*
X153792499Y-103531904D01*
X154249642Y-104293809D02*
X154363928Y-104331904D01*
X154554404Y-104331904D01*
X154630594Y-104293809D01*
X154668690Y-104255714D01*
X154706785Y-104179523D01*
X154706785Y-104103333D01*
X154668690Y-104027142D01*
X154630594Y-103989047D01*
X154554404Y-103950952D01*
X154402023Y-103912857D01*
X154325832Y-103874761D01*
X154287737Y-103836666D01*
X154249642Y-103760476D01*
X154249642Y-103684285D01*
X154287737Y-103608095D01*
X154325832Y-103570000D01*
X154402023Y-103531904D01*
X154592499Y-103531904D01*
X154706785Y-103570000D01*
X150570000Y-94400523D02*
X150531904Y-94476714D01*
X150531904Y-94591000D01*
X150570000Y-94705285D01*
X150646190Y-94781476D01*
X150722380Y-94819571D01*
X150874761Y-94857666D01*
X150989047Y-94857666D01*
X151141428Y-94819571D01*
X151217619Y-94781476D01*
X151293809Y-94705285D01*
X151331904Y-94591000D01*
X151331904Y-94514809D01*
X151293809Y-94400523D01*
X151255714Y-94362428D01*
X150989047Y-94362428D01*
X150989047Y-94514809D01*
X151331904Y-94019571D02*
X150531904Y-94019571D01*
X151331904Y-93562428D01*
X150531904Y-93562428D01*
X151331904Y-93181476D02*
X150531904Y-93181476D01*
X150531904Y-92991000D01*
X150570000Y-92876714D01*
X150646190Y-92800523D01*
X150722380Y-92762428D01*
X150874761Y-92724333D01*
X150989047Y-92724333D01*
X151141428Y-92762428D01*
X151217619Y-92800523D01*
X151293809Y-92876714D01*
X151331904Y-92991000D01*
X151331904Y-93181476D01*
X179183095Y-92650476D02*
X179983095Y-92650476D01*
X179983095Y-92840952D01*
X179945000Y-92955238D01*
X179868809Y-93031428D01*
X179792619Y-93069523D01*
X179640238Y-93107619D01*
X179525952Y-93107619D01*
X179373571Y-93069523D01*
X179297380Y-93031428D01*
X179221190Y-92955238D01*
X179183095Y-92840952D01*
X179183095Y-92650476D01*
X179259285Y-93907619D02*
X179221190Y-93869523D01*
X179183095Y-93755238D01*
X179183095Y-93679047D01*
X179221190Y-93564761D01*
X179297380Y-93488571D01*
X179373571Y-93450476D01*
X179525952Y-93412380D01*
X179640238Y-93412380D01*
X179792619Y-93450476D01*
X179868809Y-93488571D01*
X179945000Y-93564761D01*
X179983095Y-93679047D01*
X179983095Y-93755238D01*
X179945000Y-93869523D01*
X179906904Y-93907619D01*
X179183095Y-94250476D02*
X179983095Y-94250476D01*
X179983095Y-94440952D01*
X179945000Y-94555238D01*
X179868809Y-94631428D01*
X179792619Y-94669523D01*
X179640238Y-94707619D01*
X179525952Y-94707619D01*
X179373571Y-94669523D01*
X179297380Y-94631428D01*
X179221190Y-94555238D01*
X179183095Y-94440952D01*
X179183095Y-94250476D01*
X152878214Y-96591904D02*
X152878214Y-95791904D01*
X153068690Y-95791904D01*
X153182976Y-95830000D01*
X153259166Y-95906190D01*
X153297261Y-95982380D01*
X153335357Y-96134761D01*
X153335357Y-96249047D01*
X153297261Y-96401428D01*
X153259166Y-96477619D01*
X153182976Y-96553809D01*
X153068690Y-96591904D01*
X152878214Y-96591904D01*
X153563928Y-95791904D02*
X154021071Y-95791904D01*
X153792500Y-96591904D02*
X153792500Y-95791904D01*
X154744880Y-96591904D02*
X154478214Y-96210952D01*
X154287738Y-96591904D02*
X154287738Y-95791904D01*
X154592500Y-95791904D01*
X154668690Y-95830000D01*
X154706785Y-95868095D01*
X154744880Y-95944285D01*
X154744880Y-96058571D01*
X154706785Y-96134761D01*
X154668690Y-96172857D01*
X154592500Y-96210952D01*
X154287738Y-96210952D01*
X153335356Y-101681904D02*
X153068690Y-101300952D01*
X152878213Y-101681904D02*
X152878213Y-100881904D01*
X153182975Y-100881904D01*
X153259166Y-100920000D01*
X153297261Y-100958095D01*
X153335356Y-101034285D01*
X153335356Y-101148571D01*
X153297261Y-101224761D01*
X153259166Y-101262857D01*
X153182975Y-101300952D01*
X152878213Y-101300952D01*
X153602023Y-100881904D02*
X154135356Y-101681904D01*
X154135356Y-100881904D02*
X153602023Y-101681904D01*
X154440118Y-101681904D02*
X154440118Y-100881904D01*
X154630594Y-100881904D01*
X154744880Y-100920000D01*
X154821070Y-100996190D01*
X154859166Y-101072380D01*
X154897261Y-101224761D01*
X154897261Y-101339047D01*
X154859166Y-101491428D01*
X154821070Y-101567619D01*
X154744880Y-101643809D01*
X154630594Y-101681904D01*
X154440118Y-101681904D01*
X152763928Y-98310504D02*
X153221071Y-98310504D01*
X152992499Y-99110504D02*
X152992499Y-98310504D01*
X153411547Y-98310504D02*
X153944880Y-99110504D01*
X153944880Y-98310504D02*
X153411547Y-99110504D01*
X154249642Y-99110504D02*
X154249642Y-98310504D01*
X154440118Y-98310504D01*
X154554404Y-98348600D01*
X154630594Y-98424790D01*
X154668690Y-98500980D01*
X154706785Y-98653361D01*
X154706785Y-98767647D01*
X154668690Y-98920028D01*
X154630594Y-98996219D01*
X154554404Y-99072409D01*
X154440118Y-99110504D01*
X154249642Y-99110504D01*
D11*
X184421819Y-92604047D02*
X184398009Y-92675476D01*
X184398009Y-92794523D01*
X184421819Y-92842142D01*
X184445628Y-92865952D01*
X184493247Y-92889761D01*
X184540866Y-92889761D01*
X184588485Y-92865952D01*
X184612295Y-92842142D01*
X184636104Y-92794523D01*
X184659914Y-92699285D01*
X184683723Y-92651666D01*
X184707533Y-92627857D01*
X184755152Y-92604047D01*
X184802771Y-92604047D01*
X184850390Y-92627857D01*
X184874200Y-92651666D01*
X184898009Y-92699285D01*
X184898009Y-92818333D01*
X184874200Y-92889761D01*
X184898009Y-93104047D02*
X184493247Y-93104047D01*
X184445628Y-93127857D01*
X184421819Y-93151666D01*
X184398009Y-93199285D01*
X184398009Y-93294523D01*
X184421819Y-93342142D01*
X184445628Y-93365952D01*
X184493247Y-93389761D01*
X184898009Y-93389761D01*
X184421819Y-93604047D02*
X184398009Y-93675476D01*
X184398009Y-93794523D01*
X184421819Y-93842142D01*
X184445628Y-93865952D01*
X184493247Y-93889761D01*
X184540866Y-93889761D01*
X184588485Y-93865952D01*
X184612295Y-93842142D01*
X184636104Y-93794523D01*
X184659914Y-93699285D01*
X184683723Y-93651666D01*
X184707533Y-93627857D01*
X184755152Y-93604047D01*
X184802771Y-93604047D01*
X184850390Y-93627857D01*
X184874200Y-93651666D01*
X184898009Y-93699285D01*
X184898009Y-93818333D01*
X184874200Y-93889761D01*
X184398009Y-94104047D02*
X184898009Y-94104047D01*
X184898009Y-94294523D01*
X184874200Y-94342142D01*
X184850390Y-94365952D01*
X184802771Y-94389761D01*
X184731342Y-94389761D01*
X184683723Y-94365952D01*
X184659914Y-94342142D01*
X184636104Y-94294523D01*
X184636104Y-94104047D01*
X184659914Y-94604047D02*
X184659914Y-94770714D01*
X184398009Y-94842142D02*
X184398009Y-94604047D01*
X184898009Y-94604047D01*
X184898009Y-94842142D01*
X184398009Y-95056428D02*
X184898009Y-95056428D01*
X184398009Y-95342142D01*
X184898009Y-95342142D01*
X184398009Y-95580238D02*
X184898009Y-95580238D01*
X184898009Y-95699285D01*
X184874200Y-95770714D01*
X184826580Y-95818333D01*
X184778961Y-95842142D01*
X184683723Y-95865952D01*
X184612295Y-95865952D01*
X184517057Y-95842142D01*
X184469438Y-95818333D01*
X184421819Y-95770714D01*
X184398009Y-95699285D01*
X184398009Y-95580238D01*
D10*
X172213000Y-105422666D02*
X172251095Y-105346475D01*
X172251095Y-105232190D01*
X172213000Y-105117904D01*
X172136809Y-105041713D01*
X172060619Y-105003618D01*
X171908238Y-104965523D01*
X171793952Y-104965523D01*
X171641571Y-105003618D01*
X171565380Y-105041713D01*
X171489190Y-105117904D01*
X171451095Y-105232190D01*
X171451095Y-105308380D01*
X171489190Y-105422666D01*
X171527285Y-105460761D01*
X171793952Y-105460761D01*
X171793952Y-105308380D01*
X171451095Y-105803618D02*
X172251095Y-105803618D01*
X171451095Y-106260761D01*
X172251095Y-106260761D01*
X171451095Y-106641713D02*
X172251095Y-106641713D01*
X172251095Y-106832190D01*
X172213000Y-106946475D01*
X172136809Y-107022666D01*
X172060619Y-107060761D01*
X171908238Y-107098856D01*
X171793952Y-107098856D01*
X171641571Y-107060761D01*
X171565380Y-107022666D01*
X171489190Y-106946475D01*
X171451095Y-106832190D01*
X171451095Y-106641713D01*
X169711095Y-104775047D02*
X169711095Y-105270285D01*
X169406333Y-105003619D01*
X169406333Y-105117904D01*
X169368238Y-105194095D01*
X169330142Y-105232190D01*
X169253952Y-105270285D01*
X169063476Y-105270285D01*
X168987285Y-105232190D01*
X168949190Y-105194095D01*
X168911095Y-105117904D01*
X168911095Y-104889333D01*
X168949190Y-104813142D01*
X168987285Y-104775047D01*
X168987285Y-105613142D02*
X168949190Y-105651238D01*
X168911095Y-105613142D01*
X168949190Y-105575047D01*
X168987285Y-105613142D01*
X168911095Y-105613142D01*
X169711095Y-105917904D02*
X169711095Y-106413142D01*
X169406333Y-106146476D01*
X169406333Y-106260761D01*
X169368238Y-106336952D01*
X169330142Y-106375047D01*
X169253952Y-106413142D01*
X169063476Y-106413142D01*
X168987285Y-106375047D01*
X168949190Y-106336952D01*
X168911095Y-106260761D01*
X168911095Y-106032190D01*
X168949190Y-105956000D01*
X168987285Y-105917904D01*
X169711095Y-106641714D02*
X168911095Y-106908380D01*
X169711095Y-107175047D01*
X168285571Y-101742095D02*
X167828428Y-101742095D01*
X168057000Y-100942095D02*
X168057000Y-101742095D01*
X167637952Y-101742095D02*
X167104619Y-100942095D01*
X167104619Y-101742095D02*
X167637952Y-100942095D01*
X166799857Y-100942095D02*
X166799857Y-101742095D01*
X166609381Y-101742095D01*
X166495095Y-101704000D01*
X166418905Y-101627809D01*
X166380809Y-101551619D01*
X166342714Y-101399238D01*
X166342714Y-101284952D01*
X166380809Y-101132571D01*
X166418905Y-101056380D01*
X166495095Y-100980190D01*
X166609381Y-100942095D01*
X166799857Y-100942095D01*
X143731904Y-107009189D02*
X142931904Y-107009189D01*
X142931904Y-106818713D01*
X142970000Y-106704427D01*
X143046190Y-106628237D01*
X143122380Y-106590142D01*
X143274761Y-106552046D01*
X143389047Y-106552046D01*
X143541428Y-106590142D01*
X143617619Y-106628237D01*
X143693809Y-106704427D01*
X143731904Y-106818713D01*
X143731904Y-107009189D01*
X143655714Y-105752046D02*
X143693809Y-105790142D01*
X143731904Y-105904427D01*
X143731904Y-105980618D01*
X143693809Y-106094904D01*
X143617619Y-106171094D01*
X143541428Y-106209189D01*
X143389047Y-106247285D01*
X143274761Y-106247285D01*
X143122380Y-106209189D01*
X143046190Y-106171094D01*
X142970000Y-106094904D01*
X142931904Y-105980618D01*
X142931904Y-105904427D01*
X142970000Y-105790142D01*
X143008095Y-105752046D01*
X143731904Y-105409189D02*
X142931904Y-105409189D01*
X142931904Y-105218713D01*
X142970000Y-105104427D01*
X143046190Y-105028237D01*
X143122380Y-104990142D01*
X143274761Y-104952046D01*
X143389047Y-104952046D01*
X143541428Y-104990142D01*
X143617619Y-105028237D01*
X143693809Y-105104427D01*
X143731904Y-105218713D01*
X143731904Y-105409189D01*
X150570000Y-106590142D02*
X150531904Y-106666333D01*
X150531904Y-106780619D01*
X150570000Y-106894904D01*
X150646190Y-106971095D01*
X150722380Y-107009190D01*
X150874761Y-107047285D01*
X150989047Y-107047285D01*
X151141428Y-107009190D01*
X151217619Y-106971095D01*
X151293809Y-106894904D01*
X151331904Y-106780619D01*
X151331904Y-106704428D01*
X151293809Y-106590142D01*
X151255714Y-106552047D01*
X150989047Y-106552047D01*
X150989047Y-106704428D01*
X151331904Y-106209190D02*
X150531904Y-106209190D01*
X151331904Y-105752047D01*
X150531904Y-105752047D01*
X151331904Y-105371095D02*
X150531904Y-105371095D01*
X150531904Y-105180619D01*
X150570000Y-105066333D01*
X150646190Y-104990142D01*
X150722380Y-104952047D01*
X150874761Y-104913952D01*
X150989047Y-104913952D01*
X151141428Y-104952047D01*
X151217619Y-104990142D01*
X151293809Y-105066333D01*
X151331904Y-105180619D01*
X151331904Y-105371095D01*
X176531095Y-105727427D02*
X176912047Y-105460761D01*
X176531095Y-105270284D02*
X177331095Y-105270284D01*
X177331095Y-105575046D01*
X177293000Y-105651237D01*
X177254904Y-105689332D01*
X177178714Y-105727427D01*
X177064428Y-105727427D01*
X176988238Y-105689332D01*
X176950142Y-105651237D01*
X176912047Y-105575046D01*
X176912047Y-105270284D01*
X177331095Y-105955999D02*
X177331095Y-106413142D01*
X176531095Y-106184570D02*
X177331095Y-106184570D01*
X176569190Y-106641713D02*
X176531095Y-106755999D01*
X176531095Y-106946475D01*
X176569190Y-107022665D01*
X176607285Y-107060761D01*
X176683476Y-107098856D01*
X176759666Y-107098856D01*
X176835857Y-107060761D01*
X176873952Y-107022665D01*
X176912047Y-106946475D01*
X176950142Y-106794094D01*
X176988238Y-106717903D01*
X177026333Y-106679808D01*
X177102523Y-106641713D01*
X177178714Y-106641713D01*
X177254904Y-106679808D01*
X177293000Y-106717903D01*
X177331095Y-106794094D01*
X177331095Y-106984570D01*
X177293000Y-107098856D01*
X137843504Y-94667190D02*
X137843504Y-94210047D01*
X138643504Y-94438619D02*
X137843504Y-94438619D01*
X137843504Y-94019571D02*
X138643504Y-93486238D01*
X137843504Y-93486238D02*
X138643504Y-94019571D01*
X138643504Y-93181476D02*
X137843504Y-93181476D01*
X137843504Y-92991000D01*
X137881600Y-92876714D01*
X137957790Y-92800524D01*
X138033980Y-92762428D01*
X138186361Y-92724333D01*
X138300647Y-92724333D01*
X138453028Y-92762428D01*
X138529219Y-92800524D01*
X138605409Y-92876714D01*
X138643504Y-92991000D01*
X138643504Y-93181476D01*
X169823095Y-93108619D02*
X169823095Y-92727666D01*
X169442142Y-92689571D01*
X169480238Y-92727666D01*
X169518333Y-92803857D01*
X169518333Y-92994333D01*
X169480238Y-93070523D01*
X169442142Y-93108619D01*
X169365952Y-93146714D01*
X169175476Y-93146714D01*
X169099285Y-93108619D01*
X169061190Y-93070523D01*
X169023095Y-92994333D01*
X169023095Y-92803857D01*
X169061190Y-92727666D01*
X169099285Y-92689571D01*
X169823095Y-93375285D02*
X169023095Y-93641952D01*
X169823095Y-93908619D01*
X148788904Y-107009190D02*
X147988904Y-107009190D01*
X147988904Y-106818714D01*
X148027000Y-106704428D01*
X148103190Y-106628237D01*
X148179380Y-106590142D01*
X148331761Y-106552047D01*
X148446047Y-106552047D01*
X148598428Y-106590142D01*
X148674619Y-106628237D01*
X148750809Y-106704428D01*
X148788904Y-106818714D01*
X148788904Y-107009190D01*
X148750809Y-106247285D02*
X148788904Y-106132999D01*
X148788904Y-105942523D01*
X148750809Y-105866333D01*
X148712714Y-105828237D01*
X148636523Y-105790142D01*
X148560333Y-105790142D01*
X148484142Y-105828237D01*
X148446047Y-105866333D01*
X148407952Y-105942523D01*
X148369857Y-106094904D01*
X148331761Y-106171094D01*
X148293666Y-106209190D01*
X148217476Y-106247285D01*
X148141285Y-106247285D01*
X148065095Y-106209190D01*
X148027000Y-106171094D01*
X147988904Y-106094904D01*
X147988904Y-105904428D01*
X148027000Y-105790142D01*
X148788904Y-104990142D02*
X148407952Y-105256809D01*
X148788904Y-105447285D02*
X147988904Y-105447285D01*
X147988904Y-105142523D01*
X148027000Y-105066333D01*
X148065095Y-105028237D01*
X148141285Y-104990142D01*
X148255571Y-104990142D01*
X148331761Y-105028237D01*
X148369857Y-105066333D01*
X148407952Y-105142523D01*
X148407952Y-105447285D01*
X131242380Y-106368095D02*
X131623333Y-106368095D01*
X131661428Y-105987142D01*
X131623333Y-106025238D01*
X131547142Y-106063333D01*
X131356666Y-106063333D01*
X131280476Y-106025238D01*
X131242380Y-105987142D01*
X131204285Y-105910952D01*
X131204285Y-105720476D01*
X131242380Y-105644285D01*
X131280476Y-105606190D01*
X131356666Y-105568095D01*
X131547142Y-105568095D01*
X131623333Y-105606190D01*
X131661428Y-105644285D01*
X130975714Y-106368095D02*
X130709047Y-105568095D01*
X130442380Y-106368095D01*
X153071904Y-106628237D02*
X153071904Y-107009190D01*
X153452857Y-107047285D01*
X153414761Y-107009190D01*
X153376666Y-106932999D01*
X153376666Y-106742523D01*
X153414761Y-106666333D01*
X153452857Y-106628237D01*
X153529047Y-106590142D01*
X153719523Y-106590142D01*
X153795714Y-106628237D01*
X153833809Y-106666333D01*
X153871904Y-106742523D01*
X153871904Y-106932999D01*
X153833809Y-107009190D01*
X153795714Y-107047285D01*
X153071904Y-106361571D02*
X153871904Y-106094904D01*
X153071904Y-105828237D01*
X141171904Y-94286238D02*
X140790952Y-94552905D01*
X141171904Y-94743381D02*
X140371904Y-94743381D01*
X140371904Y-94438619D01*
X140410000Y-94362428D01*
X140448095Y-94324333D01*
X140524285Y-94286238D01*
X140638571Y-94286238D01*
X140714761Y-94324333D01*
X140752857Y-94362428D01*
X140790952Y-94438619D01*
X140790952Y-94743381D01*
X140371904Y-94019571D02*
X141171904Y-93486238D01*
X140371904Y-93486238D02*
X141171904Y-94019571D01*
X141171904Y-93181476D02*
X140371904Y-93181476D01*
X140371904Y-92991000D01*
X140410000Y-92876714D01*
X140486190Y-92800524D01*
X140562380Y-92762428D01*
X140714761Y-92724333D01*
X140829047Y-92724333D01*
X140981428Y-92762428D01*
X141057619Y-92800524D01*
X141133809Y-92876714D01*
X141171904Y-92991000D01*
X141171904Y-93181476D01*
D11*
X140926666Y-107116333D02*
X140926666Y-106783000D01*
X141126666Y-107183000D02*
X140426666Y-106949666D01*
X141126666Y-106716333D01*
X141060000Y-106083000D02*
X141093333Y-106116333D01*
X141126666Y-106216333D01*
X141126666Y-106283000D01*
X141093333Y-106383000D01*
X141026666Y-106449666D01*
X140960000Y-106483000D01*
X140826666Y-106516333D01*
X140726666Y-106516333D01*
X140593333Y-106483000D01*
X140526666Y-106449666D01*
X140460000Y-106383000D01*
X140426666Y-106283000D01*
X140426666Y-106216333D01*
X140460000Y-106116333D01*
X140493333Y-106083000D01*
X140426666Y-105883000D02*
X140426666Y-105483000D01*
X141126666Y-105683000D02*
X140426666Y-105683000D01*
X140660000Y-105283000D02*
X140660000Y-104783000D01*
X140360000Y-105083000D02*
X141260000Y-105283000D01*
X140960000Y-104849666D02*
X140960000Y-105349666D01*
X141260000Y-105049666D02*
X140360000Y-104849666D01*
D10*
X176643095Y-92655714D02*
X177443095Y-92655714D01*
X177443095Y-92846190D01*
X177405000Y-92960476D01*
X177328809Y-93036666D01*
X177252619Y-93074761D01*
X177100238Y-93112857D01*
X176985952Y-93112857D01*
X176833571Y-93074761D01*
X176757380Y-93036666D01*
X176681190Y-92960476D01*
X176643095Y-92846190D01*
X176643095Y-92655714D01*
X177443095Y-93341428D02*
X177443095Y-93798571D01*
X176643095Y-93570000D02*
X177443095Y-93570000D01*
X176643095Y-94522380D02*
X177024047Y-94255714D01*
X176643095Y-94065238D02*
X177443095Y-94065238D01*
X177443095Y-94370000D01*
X177405000Y-94446190D01*
X177366904Y-94484285D01*
X177290714Y-94522380D01*
X177176428Y-94522380D01*
X177100238Y-94484285D01*
X177062142Y-94446190D01*
X177024047Y-94370000D01*
X177024047Y-94065238D01*
D11*
X187438809Y-92673809D02*
X187319761Y-92673809D01*
X187367380Y-92554761D02*
X187319761Y-92673809D01*
X187367380Y-92792857D01*
X187224523Y-92602380D02*
X187319761Y-92673809D01*
X187224523Y-92745238D01*
X186962619Y-92959523D02*
X186938809Y-93030952D01*
X186938809Y-93150000D01*
X186962619Y-93197619D01*
X186986428Y-93221428D01*
X187034047Y-93245238D01*
X187081666Y-93245238D01*
X187129285Y-93221428D01*
X187153095Y-93197619D01*
X187176904Y-93150000D01*
X187200714Y-93054761D01*
X187224523Y-93007142D01*
X187248333Y-92983333D01*
X187295952Y-92959523D01*
X187343571Y-92959523D01*
X187391190Y-92983333D01*
X187415000Y-93007142D01*
X187438809Y-93054761D01*
X187438809Y-93173809D01*
X187415000Y-93245238D01*
X187438809Y-93459523D02*
X187034047Y-93459523D01*
X186986428Y-93483333D01*
X186962619Y-93507142D01*
X186938809Y-93554761D01*
X186938809Y-93650000D01*
X186962619Y-93697619D01*
X186986428Y-93721428D01*
X187034047Y-93745238D01*
X187438809Y-93745238D01*
X186962619Y-93959523D02*
X186938809Y-94030952D01*
X186938809Y-94150000D01*
X186962619Y-94197619D01*
X186986428Y-94221428D01*
X187034047Y-94245238D01*
X187081666Y-94245238D01*
X187129285Y-94221428D01*
X187153095Y-94197619D01*
X187176904Y-94150000D01*
X187200714Y-94054761D01*
X187224523Y-94007142D01*
X187248333Y-93983333D01*
X187295952Y-93959523D01*
X187343571Y-93959523D01*
X187391190Y-93983333D01*
X187415000Y-94007142D01*
X187438809Y-94054761D01*
X187438809Y-94173809D01*
X187415000Y-94245238D01*
X186938809Y-94459523D02*
X187438809Y-94459523D01*
X187438809Y-94650000D01*
X187415000Y-94697619D01*
X187391190Y-94721428D01*
X187343571Y-94745238D01*
X187272142Y-94745238D01*
X187224523Y-94721428D01*
X187200714Y-94697619D01*
X187176904Y-94650000D01*
X187176904Y-94459523D01*
X187200714Y-94959523D02*
X187200714Y-95126190D01*
X186938809Y-95197619D02*
X186938809Y-94959523D01*
X187438809Y-94959523D01*
X187438809Y-95197619D01*
X186938809Y-95411904D02*
X187438809Y-95411904D01*
X186938809Y-95697619D01*
X187438809Y-95697619D01*
X186938809Y-95935714D02*
X187438809Y-95935714D01*
X187438809Y-96054761D01*
X187415000Y-96126190D01*
X187367380Y-96173809D01*
X187319761Y-96197619D01*
X187224523Y-96221428D01*
X187153095Y-96221428D01*
X187057857Y-96197619D01*
X187010238Y-96173809D01*
X186962619Y-96126190D01*
X186938809Y-96054761D01*
X186938809Y-95935714D01*
D10*
X172325000Y-93080476D02*
X172363095Y-93004285D01*
X172363095Y-92890000D01*
X172325000Y-92775714D01*
X172248809Y-92699523D01*
X172172619Y-92661428D01*
X172020238Y-92623333D01*
X171905952Y-92623333D01*
X171753571Y-92661428D01*
X171677380Y-92699523D01*
X171601190Y-92775714D01*
X171563095Y-92890000D01*
X171563095Y-92966190D01*
X171601190Y-93080476D01*
X171639285Y-93118571D01*
X171905952Y-93118571D01*
X171905952Y-92966190D01*
X171563095Y-93461428D02*
X172363095Y-93461428D01*
X171563095Y-93918571D01*
X172363095Y-93918571D01*
X171563095Y-94299523D02*
X172363095Y-94299523D01*
X172363095Y-94490000D01*
X172325000Y-94604285D01*
X172248809Y-94680476D01*
X172172619Y-94718571D01*
X172020238Y-94756666D01*
X171905952Y-94756666D01*
X171753571Y-94718571D01*
X171677380Y-94680476D01*
X171601190Y-94604285D01*
X171563095Y-94490000D01*
X171563095Y-94299523D01*
X153071904Y-95048142D02*
X153071904Y-94552904D01*
X153376666Y-94819570D01*
X153376666Y-94705285D01*
X153414761Y-94629094D01*
X153452857Y-94590999D01*
X153529047Y-94552904D01*
X153719523Y-94552904D01*
X153795714Y-94590999D01*
X153833809Y-94629094D01*
X153871904Y-94705285D01*
X153871904Y-94933856D01*
X153833809Y-95010047D01*
X153795714Y-95048142D01*
X153795714Y-94210047D02*
X153833809Y-94171951D01*
X153871904Y-94210047D01*
X153833809Y-94248142D01*
X153795714Y-94210047D01*
X153871904Y-94210047D01*
X153071904Y-93905285D02*
X153071904Y-93410047D01*
X153376666Y-93676713D01*
X153376666Y-93562428D01*
X153414761Y-93486237D01*
X153452857Y-93448142D01*
X153529047Y-93410047D01*
X153719523Y-93410047D01*
X153795714Y-93448142D01*
X153833809Y-93486237D01*
X153871904Y-93562428D01*
X153871904Y-93790999D01*
X153833809Y-93867190D01*
X153795714Y-93905285D01*
X153071904Y-93181475D02*
X153871904Y-92914809D01*
X153071904Y-92648142D01*
X146248904Y-107009189D02*
X145448904Y-107009189D01*
X145448904Y-106818713D01*
X145487000Y-106704427D01*
X145563190Y-106628237D01*
X145639380Y-106590142D01*
X145791761Y-106552046D01*
X145906047Y-106552046D01*
X146058428Y-106590142D01*
X146134619Y-106628237D01*
X146210809Y-106704427D01*
X146248904Y-106818713D01*
X146248904Y-107009189D01*
X145448904Y-106323475D02*
X145448904Y-105866332D01*
X146248904Y-106094904D02*
X145448904Y-106094904D01*
X146248904Y-105142523D02*
X145867952Y-105409189D01*
X146248904Y-105599665D02*
X145448904Y-105599665D01*
X145448904Y-105294904D01*
X145487000Y-105218713D01*
X145525095Y-105180618D01*
X145601285Y-105142523D01*
X145715571Y-105142523D01*
X145791761Y-105180618D01*
X145829857Y-105218713D01*
X145867952Y-105294904D01*
X145867952Y-105599665D01*
X146251904Y-94095762D02*
X145870952Y-94362428D01*
X146251904Y-94552905D02*
X145451904Y-94552905D01*
X145451904Y-94248143D01*
X145490000Y-94171952D01*
X145528095Y-94133857D01*
X145604285Y-94095762D01*
X145718571Y-94095762D01*
X145794761Y-94133857D01*
X145832857Y-94171952D01*
X145870952Y-94248143D01*
X145870952Y-94552905D01*
X145451904Y-93867190D02*
X145451904Y-93410047D01*
X146251904Y-93638619D02*
X145451904Y-93638619D01*
X146213809Y-93181476D02*
X146251904Y-93067190D01*
X146251904Y-92876714D01*
X146213809Y-92800524D01*
X146175714Y-92762428D01*
X146099523Y-92724333D01*
X146023333Y-92724333D01*
X145947142Y-92762428D01*
X145909047Y-92800524D01*
X145870952Y-92876714D01*
X145832857Y-93029095D01*
X145794761Y-93105286D01*
X145756666Y-93143381D01*
X145680476Y-93181476D01*
X145604285Y-93181476D01*
X145528095Y-93143381D01*
X145490000Y-93105286D01*
X145451904Y-93029095D01*
X145451904Y-92838619D01*
X145490000Y-92724333D01*
X174067285Y-105727427D02*
X174029190Y-105689332D01*
X173991095Y-105575046D01*
X173991095Y-105498856D01*
X174029190Y-105384570D01*
X174105380Y-105308380D01*
X174181571Y-105270284D01*
X174333952Y-105232189D01*
X174448238Y-105232189D01*
X174600619Y-105270284D01*
X174676809Y-105308380D01*
X174753000Y-105384570D01*
X174791095Y-105498856D01*
X174791095Y-105575046D01*
X174753000Y-105689332D01*
X174714904Y-105727427D01*
X174791095Y-105955999D02*
X174791095Y-106413142D01*
X173991095Y-106184570D02*
X174791095Y-106184570D01*
X174029190Y-106641713D02*
X173991095Y-106755999D01*
X173991095Y-106946475D01*
X174029190Y-107022665D01*
X174067285Y-107060761D01*
X174143476Y-107098856D01*
X174219666Y-107098856D01*
X174295857Y-107060761D01*
X174333952Y-107022665D01*
X174372047Y-106946475D01*
X174410142Y-106794094D01*
X174448238Y-106717903D01*
X174486333Y-106679808D01*
X174562523Y-106641713D01*
X174638714Y-106641713D01*
X174714904Y-106679808D01*
X174753000Y-106717903D01*
X174791095Y-106794094D01*
X174791095Y-106984570D01*
X174753000Y-107098856D01*
X137210952Y-106368095D02*
X136715714Y-106368095D01*
X136982380Y-106063333D01*
X136868095Y-106063333D01*
X136791904Y-106025238D01*
X136753809Y-105987142D01*
X136715714Y-105910952D01*
X136715714Y-105720476D01*
X136753809Y-105644285D01*
X136791904Y-105606190D01*
X136868095Y-105568095D01*
X137096666Y-105568095D01*
X137172857Y-105606190D01*
X137210952Y-105644285D01*
X136372857Y-105644285D02*
X136334761Y-105606190D01*
X136372857Y-105568095D01*
X136410952Y-105606190D01*
X136372857Y-105644285D01*
X136372857Y-105568095D01*
X136068095Y-106368095D02*
X135572857Y-106368095D01*
X135839523Y-106063333D01*
X135725238Y-106063333D01*
X135649047Y-106025238D01*
X135610952Y-105987142D01*
X135572857Y-105910952D01*
X135572857Y-105720476D01*
X135610952Y-105644285D01*
X135649047Y-105606190D01*
X135725238Y-105568095D01*
X135953809Y-105568095D01*
X136030000Y-105606190D01*
X136068095Y-105644285D01*
X135344285Y-106368095D02*
X135077619Y-105568095D01*
X134810952Y-106368095D01*
X181610895Y-105536951D02*
X181991847Y-105270285D01*
X181610895Y-105079808D02*
X182410895Y-105079808D01*
X182410895Y-105384570D01*
X182372800Y-105460761D01*
X182334704Y-105498856D01*
X182258514Y-105536951D01*
X182144228Y-105536951D01*
X182068038Y-105498856D01*
X182029942Y-105460761D01*
X181991847Y-105384570D01*
X181991847Y-105079808D01*
X182410895Y-105803618D02*
X181610895Y-106336951D01*
X182410895Y-106336951D02*
X181610895Y-105803618D01*
X181610895Y-106641713D02*
X182410895Y-106641713D01*
X182410895Y-106832189D01*
X182372800Y-106946475D01*
X182296609Y-107022665D01*
X182220419Y-107060761D01*
X182068038Y-107098856D01*
X181953752Y-107098856D01*
X181801371Y-107060761D01*
X181725180Y-107022665D01*
X181648990Y-106946475D01*
X181610895Y-106832189D01*
X181610895Y-106641713D01*
X143711904Y-93105285D02*
X143330952Y-93371951D01*
X143711904Y-93562428D02*
X142911904Y-93562428D01*
X142911904Y-93257666D01*
X142950000Y-93181475D01*
X142988095Y-93143380D01*
X143064285Y-93105285D01*
X143178571Y-93105285D01*
X143254761Y-93143380D01*
X143292857Y-93181475D01*
X143330952Y-93257666D01*
X143330952Y-93562428D01*
X143711904Y-92762428D02*
X142911904Y-92762428D01*
X184951095Y-105155999D02*
X184951095Y-105613142D01*
X184151095Y-105384570D02*
X184951095Y-105384570D01*
X184951095Y-105803618D02*
X184151095Y-106336951D01*
X184951095Y-106336951D02*
X184151095Y-105803618D01*
X184151095Y-106641713D02*
X184951095Y-106641713D01*
X184951095Y-106832189D01*
X184913000Y-106946475D01*
X184836809Y-107022665D01*
X184760619Y-107060761D01*
X184608238Y-107098856D01*
X184493952Y-107098856D01*
X184341571Y-107060761D01*
X184265380Y-107022665D01*
X184189190Y-106946475D01*
X184151095Y-106832189D01*
X184151095Y-106641713D01*
X174103095Y-92639523D02*
X174903095Y-92639523D01*
X174903095Y-92830000D01*
X174865000Y-92944285D01*
X174788809Y-93020476D01*
X174712619Y-93058571D01*
X174560238Y-93096666D01*
X174445952Y-93096666D01*
X174293571Y-93058571D01*
X174217380Y-93020476D01*
X174141190Y-92944285D01*
X174103095Y-92830000D01*
X174103095Y-92639523D01*
X174141190Y-93401428D02*
X174103095Y-93515714D01*
X174103095Y-93706190D01*
X174141190Y-93782380D01*
X174179285Y-93820476D01*
X174255476Y-93858571D01*
X174331666Y-93858571D01*
X174407857Y-93820476D01*
X174445952Y-93782380D01*
X174484047Y-93706190D01*
X174522142Y-93553809D01*
X174560238Y-93477619D01*
X174598333Y-93439523D01*
X174674523Y-93401428D01*
X174750714Y-93401428D01*
X174826904Y-93439523D01*
X174865000Y-93477619D01*
X174903095Y-93553809D01*
X174903095Y-93744285D01*
X174865000Y-93858571D01*
X174103095Y-94658571D02*
X174484047Y-94391904D01*
X174103095Y-94201428D02*
X174903095Y-94201428D01*
X174903095Y-94506190D01*
X174865000Y-94582380D01*
X174826904Y-94620476D01*
X174750714Y-94658571D01*
X174636428Y-94658571D01*
X174560238Y-94620476D01*
X174522142Y-94582380D01*
X174484047Y-94506190D01*
X174484047Y-94201428D01*
X148737314Y-94095762D02*
X148775409Y-94133857D01*
X148813504Y-94248143D01*
X148813504Y-94324333D01*
X148775409Y-94438619D01*
X148699219Y-94514809D01*
X148623028Y-94552905D01*
X148470647Y-94591000D01*
X148356361Y-94591000D01*
X148203980Y-94552905D01*
X148127790Y-94514809D01*
X148051600Y-94438619D01*
X148013504Y-94324333D01*
X148013504Y-94248143D01*
X148051600Y-94133857D01*
X148089695Y-94095762D01*
X148013504Y-93867190D02*
X148013504Y-93410047D01*
X148813504Y-93638619D02*
X148013504Y-93638619D01*
X148775409Y-93181476D02*
X148813504Y-93067190D01*
X148813504Y-92876714D01*
X148775409Y-92800524D01*
X148737314Y-92762428D01*
X148661123Y-92724333D01*
X148584933Y-92724333D01*
X148508742Y-92762428D01*
X148470647Y-92800524D01*
X148432552Y-92876714D01*
X148394457Y-93029095D01*
X148356361Y-93105286D01*
X148318266Y-93143381D01*
X148242076Y-93181476D01*
X148165885Y-93181476D01*
X148089695Y-93143381D01*
X148051600Y-93105286D01*
X148013504Y-93029095D01*
X148013504Y-92838619D01*
X148051600Y-92724333D01*
X168204285Y-103458095D02*
X168204285Y-104258095D01*
X168013809Y-104258095D01*
X167899523Y-104220000D01*
X167823333Y-104143809D01*
X167785238Y-104067619D01*
X167747142Y-103915238D01*
X167747142Y-103800952D01*
X167785238Y-103648571D01*
X167823333Y-103572380D01*
X167899523Y-103496190D01*
X168013809Y-103458095D01*
X168204285Y-103458095D01*
X167518571Y-104258095D02*
X167061428Y-104258095D01*
X167290000Y-103458095D02*
X167290000Y-104258095D01*
X166337619Y-103458095D02*
X166604285Y-103839047D01*
X166794761Y-103458095D02*
X166794761Y-104258095D01*
X166490000Y-104258095D01*
X166413809Y-104220000D01*
X166375714Y-104181904D01*
X166337619Y-104105714D01*
X166337619Y-103991428D01*
X166375714Y-103915238D01*
X166413809Y-103877142D01*
X166490000Y-103839047D01*
X166794761Y-103839047D01*
X179118095Y-106737142D02*
X179499047Y-106470476D01*
X179118095Y-106280000D02*
X179918095Y-106280000D01*
X179918095Y-106584761D01*
X179880000Y-106660952D01*
X179841904Y-106699047D01*
X179765714Y-106737142D01*
X179651428Y-106737142D01*
X179575238Y-106699047D01*
X179537142Y-106660952D01*
X179499047Y-106584761D01*
X179499047Y-106280000D01*
X179118095Y-107080000D02*
X179918095Y-107080000D01*
X167714143Y-98360095D02*
X167980810Y-98741047D01*
X168171286Y-98360095D02*
X168171286Y-99160095D01*
X167866524Y-99160095D01*
X167790333Y-99122000D01*
X167752238Y-99083904D01*
X167714143Y-99007714D01*
X167714143Y-98893428D01*
X167752238Y-98817238D01*
X167790333Y-98779142D01*
X167866524Y-98741047D01*
X168171286Y-98741047D01*
X167447476Y-99160095D02*
X166914143Y-98360095D01*
X166914143Y-99160095D02*
X167447476Y-98360095D01*
X166609381Y-98360095D02*
X166609381Y-99160095D01*
X166418905Y-99160095D01*
X166304619Y-99122000D01*
X166228429Y-99045809D01*
X166190333Y-98969619D01*
X166152238Y-98817238D01*
X166152238Y-98702952D01*
X166190333Y-98550571D01*
X166228429Y-98474380D01*
X166304619Y-98398190D01*
X166418905Y-98360095D01*
X166609381Y-98360095D01*
X167714143Y-95842095D02*
X167980809Y-96223047D01*
X168171286Y-95842095D02*
X168171286Y-96642095D01*
X167866524Y-96642095D01*
X167790333Y-96604000D01*
X167752238Y-96565904D01*
X167714143Y-96489714D01*
X167714143Y-96375428D01*
X167752238Y-96299238D01*
X167790333Y-96261142D01*
X167866524Y-96223047D01*
X168171286Y-96223047D01*
X167485571Y-96642095D02*
X167028428Y-96642095D01*
X167257000Y-95842095D02*
X167257000Y-96642095D01*
X166799857Y-95880190D02*
X166685571Y-95842095D01*
X166495095Y-95842095D01*
X166418905Y-95880190D01*
X166380809Y-95918285D01*
X166342714Y-95994476D01*
X166342714Y-96070666D01*
X166380809Y-96146857D01*
X166418905Y-96184952D01*
X166495095Y-96223047D01*
X166647476Y-96261142D01*
X166723667Y-96299238D01*
X166761762Y-96337333D01*
X166799857Y-96413523D01*
X166799857Y-96489714D01*
X166761762Y-96565904D01*
X166723667Y-96604000D01*
X166647476Y-96642095D01*
X166457000Y-96642095D01*
X166342714Y-96604000D01*
D11*
%TO.C,F2*%
X192874666Y-107630000D02*
X192641333Y-107630000D01*
X192641333Y-107996666D02*
X192641333Y-107296666D01*
X192974666Y-107296666D01*
X193208000Y-107363333D02*
X193241333Y-107330000D01*
X193308000Y-107296666D01*
X193474666Y-107296666D01*
X193541333Y-107330000D01*
X193574666Y-107363333D01*
X193608000Y-107430000D01*
X193608000Y-107496666D01*
X193574666Y-107596666D01*
X193174666Y-107996666D01*
X193608000Y-107996666D01*
%TO.C,C2*%
X186644333Y-98976000D02*
X186611000Y-99009333D01*
X186511000Y-99042666D01*
X186444333Y-99042666D01*
X186344333Y-99009333D01*
X186277666Y-98942666D01*
X186244333Y-98876000D01*
X186211000Y-98742666D01*
X186211000Y-98642666D01*
X186244333Y-98509333D01*
X186277666Y-98442666D01*
X186344333Y-98376000D01*
X186444333Y-98342666D01*
X186511000Y-98342666D01*
X186611000Y-98376000D01*
X186644333Y-98409333D01*
X186911000Y-98409333D02*
X186944333Y-98376000D01*
X187011000Y-98342666D01*
X187177666Y-98342666D01*
X187244333Y-98376000D01*
X187277666Y-98409333D01*
X187311000Y-98476000D01*
X187311000Y-98542666D01*
X187277666Y-98642666D01*
X186877666Y-99042666D01*
X187311000Y-99042666D01*
%TO.C,D2*%
X173123333Y-97556666D02*
X173123333Y-96856666D01*
X173290000Y-96856666D01*
X173390000Y-96890000D01*
X173456666Y-96956666D01*
X173490000Y-97023333D01*
X173523333Y-97156666D01*
X173523333Y-97256666D01*
X173490000Y-97390000D01*
X173456666Y-97456666D01*
X173390000Y-97523333D01*
X173290000Y-97556666D01*
X173123333Y-97556666D01*
X173790000Y-96923333D02*
X173823333Y-96890000D01*
X173890000Y-96856666D01*
X174056666Y-96856666D01*
X174123333Y-96890000D01*
X174156666Y-96923333D01*
X174190000Y-96990000D01*
X174190000Y-97056666D01*
X174156666Y-97156666D01*
X173756666Y-97556666D01*
X174190000Y-97556666D01*
%TO.C,R6*%
X145641833Y-101626668D02*
X145408500Y-101293335D01*
X145241833Y-101626668D02*
X145241833Y-100926668D01*
X145508500Y-100926668D01*
X145575166Y-100960002D01*
X145608500Y-100993335D01*
X145641833Y-101060002D01*
X145641833Y-101160002D01*
X145608500Y-101226668D01*
X145575166Y-101260002D01*
X145508500Y-101293335D01*
X145241833Y-101293335D01*
X146241833Y-100926668D02*
X146108500Y-100926668D01*
X146041833Y-100960002D01*
X146008500Y-100993335D01*
X145941833Y-101093335D01*
X145908500Y-101226668D01*
X145908500Y-101493335D01*
X145941833Y-101560002D01*
X145975166Y-101593335D01*
X146041833Y-101626668D01*
X146175166Y-101626668D01*
X146241833Y-101593335D01*
X146275166Y-101560002D01*
X146308500Y-101493335D01*
X146308500Y-101326668D01*
X146275166Y-101260002D01*
X146241833Y-101226668D01*
X146175166Y-101193335D01*
X146041833Y-101193335D01*
X145975166Y-101226668D01*
X145941833Y-101260002D01*
X145908500Y-101326668D01*
%TO.C,F1*%
X129000000Y-92673333D02*
X129000000Y-92906666D01*
X129366666Y-92906666D02*
X128666666Y-92906666D01*
X128666666Y-92573333D01*
X129366666Y-91940000D02*
X129366666Y-92340000D01*
X129366666Y-92140000D02*
X128666666Y-92140000D01*
X128766666Y-92206666D01*
X128833333Y-92273333D01*
X128866666Y-92340000D01*
%TO.C,R5*%
X145641833Y-99036668D02*
X145408500Y-98703335D01*
X145241833Y-99036668D02*
X145241833Y-98336668D01*
X145508500Y-98336668D01*
X145575166Y-98370002D01*
X145608500Y-98403335D01*
X145641833Y-98470002D01*
X145641833Y-98570002D01*
X145608500Y-98636668D01*
X145575166Y-98670002D01*
X145508500Y-98703335D01*
X145241833Y-98703335D01*
X146275166Y-98336668D02*
X145941833Y-98336668D01*
X145908500Y-98670002D01*
X145941833Y-98636668D01*
X146008500Y-98603335D01*
X146175166Y-98603335D01*
X146241833Y-98636668D01*
X146275166Y-98670002D01*
X146308500Y-98736668D01*
X146308500Y-98903335D01*
X146275166Y-98970002D01*
X146241833Y-99003335D01*
X146175166Y-99036668D01*
X146008500Y-99036668D01*
X145941833Y-99003335D01*
X145908500Y-98970002D01*
%TO.C,USB2*%
X193106366Y-101182333D02*
X193673033Y-101182333D01*
X193739700Y-101149000D01*
X193773033Y-101115666D01*
X193806366Y-101049000D01*
X193806366Y-100915666D01*
X193773033Y-100849000D01*
X193739700Y-100815666D01*
X193673033Y-100782333D01*
X193106366Y-100782333D01*
X193773033Y-100482333D02*
X193806366Y-100382333D01*
X193806366Y-100215666D01*
X193773033Y-100149000D01*
X193739700Y-100115666D01*
X193673033Y-100082333D01*
X193606366Y-100082333D01*
X193539700Y-100115666D01*
X193506366Y-100149000D01*
X193473033Y-100215666D01*
X193439700Y-100349000D01*
X193406366Y-100415666D01*
X193373033Y-100449000D01*
X193306366Y-100482333D01*
X193239700Y-100482333D01*
X193173033Y-100449000D01*
X193139700Y-100415666D01*
X193106366Y-100349000D01*
X193106366Y-100182333D01*
X193139700Y-100082333D01*
X193439700Y-99549000D02*
X193473033Y-99449000D01*
X193506366Y-99415666D01*
X193573033Y-99382333D01*
X193673033Y-99382333D01*
X193739700Y-99415666D01*
X193773033Y-99449000D01*
X193806366Y-99515666D01*
X193806366Y-99782333D01*
X193106366Y-99782333D01*
X193106366Y-99549000D01*
X193139700Y-99482333D01*
X193173033Y-99449000D01*
X193239700Y-99415666D01*
X193306366Y-99415666D01*
X193373033Y-99449000D01*
X193406366Y-99482333D01*
X193439700Y-99549000D01*
X193439700Y-99782333D01*
X193173033Y-99115666D02*
X193139700Y-99082333D01*
X193106366Y-99015666D01*
X193106366Y-98849000D01*
X193139700Y-98782333D01*
X193173033Y-98749000D01*
X193239700Y-98715666D01*
X193306366Y-98715666D01*
X193406366Y-98749000D01*
X193806366Y-99149000D01*
X193806366Y-98715666D01*
%TO.C,U1*%
X177848666Y-96267666D02*
X177848666Y-96834333D01*
X177882000Y-96901000D01*
X177915333Y-96934333D01*
X177982000Y-96967666D01*
X178115333Y-96967666D01*
X178182000Y-96934333D01*
X178215333Y-96901000D01*
X178248666Y-96834333D01*
X178248666Y-96267666D01*
X178948666Y-96967666D02*
X178548666Y-96967666D01*
X178748666Y-96967666D02*
X178748666Y-96267666D01*
X178682000Y-96367666D01*
X178615333Y-96434333D01*
X178548666Y-96467666D01*
%TO.C,R1*%
X136029166Y-91496666D02*
X135695833Y-91730000D01*
X136029166Y-91896666D02*
X135329166Y-91896666D01*
X135329166Y-91630000D01*
X135362500Y-91563333D01*
X135395833Y-91530000D01*
X135462500Y-91496666D01*
X135562500Y-91496666D01*
X135629166Y-91530000D01*
X135662500Y-91563333D01*
X135695833Y-91630000D01*
X135695833Y-91896666D01*
X136029166Y-90830000D02*
X136029166Y-91230000D01*
X136029166Y-91030000D02*
X135329166Y-91030000D01*
X135429166Y-91096666D01*
X135495833Y-91163333D01*
X135529166Y-91230000D01*
%TO.C,D5*%
X145261833Y-97256668D02*
X145261833Y-96556668D01*
X145428500Y-96556668D01*
X145528500Y-96590002D01*
X145595166Y-96656668D01*
X145628500Y-96723335D01*
X145661833Y-96856668D01*
X145661833Y-96956668D01*
X145628500Y-97090002D01*
X145595166Y-97156668D01*
X145528500Y-97223335D01*
X145428500Y-97256668D01*
X145261833Y-97256668D01*
X146295166Y-96556668D02*
X145961833Y-96556668D01*
X145928500Y-96890002D01*
X145961833Y-96856668D01*
X146028500Y-96823335D01*
X146195166Y-96823335D01*
X146261833Y-96856668D01*
X146295166Y-96890002D01*
X146328500Y-96956668D01*
X146328500Y-97123335D01*
X146295166Y-97190002D01*
X146261833Y-97223335D01*
X146195166Y-97256668D01*
X146028500Y-97256668D01*
X145961833Y-97223335D01*
X145928500Y-97190002D01*
%TO.C,C5*%
X138913333Y-104320000D02*
X138880000Y-104353333D01*
X138780000Y-104386666D01*
X138713333Y-104386666D01*
X138613333Y-104353333D01*
X138546666Y-104286666D01*
X138513333Y-104220000D01*
X138480000Y-104086666D01*
X138480000Y-103986666D01*
X138513333Y-103853333D01*
X138546666Y-103786666D01*
X138613333Y-103720000D01*
X138713333Y-103686666D01*
X138780000Y-103686666D01*
X138880000Y-103720000D01*
X138913333Y-103753333D01*
X139546666Y-103686666D02*
X139213333Y-103686666D01*
X139180000Y-104020000D01*
X139213333Y-103986666D01*
X139280000Y-103953333D01*
X139446666Y-103953333D01*
X139513333Y-103986666D01*
X139546666Y-104020000D01*
X139580000Y-104086666D01*
X139580000Y-104253333D01*
X139546666Y-104320000D01*
X139513333Y-104353333D01*
X139446666Y-104386666D01*
X139280000Y-104386666D01*
X139213333Y-104353333D01*
X139180000Y-104320000D01*
%TO.C,SW1*%
X132628333Y-109033333D02*
X132728333Y-109066666D01*
X132895000Y-109066666D01*
X132961666Y-109033333D01*
X132995000Y-109000000D01*
X133028333Y-108933333D01*
X133028333Y-108866666D01*
X132995000Y-108800000D01*
X132961666Y-108766666D01*
X132895000Y-108733333D01*
X132761666Y-108700000D01*
X132695000Y-108666666D01*
X132661666Y-108633333D01*
X132628333Y-108566666D01*
X132628333Y-108500000D01*
X132661666Y-108433333D01*
X132695000Y-108400000D01*
X132761666Y-108366666D01*
X132928333Y-108366666D01*
X133028333Y-108400000D01*
X133261666Y-108366666D02*
X133428333Y-109066666D01*
X133561666Y-108566666D01*
X133695000Y-109066666D01*
X133861666Y-108366666D01*
X134495000Y-109066666D02*
X134095000Y-109066666D01*
X134295000Y-109066666D02*
X134295000Y-108366666D01*
X134228333Y-108466666D01*
X134161666Y-108533333D01*
X134095000Y-108566666D01*
%TO.C,C7*%
X138966133Y-96860400D02*
X138932800Y-96893733D01*
X138832800Y-96927066D01*
X138766133Y-96927066D01*
X138666133Y-96893733D01*
X138599466Y-96827066D01*
X138566133Y-96760400D01*
X138532800Y-96627066D01*
X138532800Y-96527066D01*
X138566133Y-96393733D01*
X138599466Y-96327066D01*
X138666133Y-96260400D01*
X138766133Y-96227066D01*
X138832800Y-96227066D01*
X138932800Y-96260400D01*
X138966133Y-96293733D01*
X139199466Y-96227066D02*
X139666133Y-96227066D01*
X139366133Y-96927066D01*
%TO.C,R4*%
X193043333Y-93676666D02*
X192810000Y-93343333D01*
X192643333Y-93676666D02*
X192643333Y-92976666D01*
X192910000Y-92976666D01*
X192976666Y-93010000D01*
X193010000Y-93043333D01*
X193043333Y-93110000D01*
X193043333Y-93210000D01*
X193010000Y-93276666D01*
X192976666Y-93310000D01*
X192910000Y-93343333D01*
X192643333Y-93343333D01*
X193643333Y-93210000D02*
X193643333Y-93676666D01*
X193476666Y-92943333D02*
X193310000Y-93443333D01*
X193743333Y-93443333D01*
%TO.C,C4*%
X186673333Y-101890000D02*
X186640000Y-101923333D01*
X186540000Y-101956666D01*
X186473333Y-101956666D01*
X186373333Y-101923333D01*
X186306666Y-101856666D01*
X186273333Y-101790000D01*
X186240000Y-101656666D01*
X186240000Y-101556666D01*
X186273333Y-101423333D01*
X186306666Y-101356666D01*
X186373333Y-101290000D01*
X186473333Y-101256666D01*
X186540000Y-101256666D01*
X186640000Y-101290000D01*
X186673333Y-101323333D01*
X187273333Y-101490000D02*
X187273333Y-101956666D01*
X187106666Y-101223333D02*
X186940000Y-101723333D01*
X187373333Y-101723333D01*
%TO.C,R3*%
X173523333Y-101686666D02*
X173290000Y-101353333D01*
X173123333Y-101686666D02*
X173123333Y-100986666D01*
X173390000Y-100986666D01*
X173456666Y-101020000D01*
X173490000Y-101053333D01*
X173523333Y-101120000D01*
X173523333Y-101220000D01*
X173490000Y-101286666D01*
X173456666Y-101320000D01*
X173390000Y-101353333D01*
X173123333Y-101353333D01*
X173756666Y-100986666D02*
X174190000Y-100986666D01*
X173956666Y-101253333D01*
X174056666Y-101253333D01*
X174123333Y-101286666D01*
X174156666Y-101320000D01*
X174190000Y-101386666D01*
X174190000Y-101553333D01*
X174156666Y-101620000D01*
X174123333Y-101653333D01*
X174056666Y-101686666D01*
X173856666Y-101686666D01*
X173790000Y-101653333D01*
X173756666Y-101620000D01*
%TO.C,USB1*%
X127526666Y-101005000D02*
X128093333Y-101005000D01*
X128160000Y-100971666D01*
X128193333Y-100938333D01*
X128226666Y-100871666D01*
X128226666Y-100738333D01*
X128193333Y-100671666D01*
X128160000Y-100638333D01*
X128093333Y-100605000D01*
X127526666Y-100605000D01*
X128193333Y-100305000D02*
X128226666Y-100205000D01*
X128226666Y-100038333D01*
X128193333Y-99971666D01*
X128160000Y-99938333D01*
X128093333Y-99905000D01*
X128026666Y-99905000D01*
X127960000Y-99938333D01*
X127926666Y-99971666D01*
X127893333Y-100038333D01*
X127860000Y-100171666D01*
X127826666Y-100238333D01*
X127793333Y-100271666D01*
X127726666Y-100305000D01*
X127660000Y-100305000D01*
X127593333Y-100271666D01*
X127560000Y-100238333D01*
X127526666Y-100171666D01*
X127526666Y-100005000D01*
X127560000Y-99905000D01*
X127860000Y-99371666D02*
X127893333Y-99271666D01*
X127926666Y-99238333D01*
X127993333Y-99205000D01*
X128093333Y-99205000D01*
X128160000Y-99238333D01*
X128193333Y-99271666D01*
X128226666Y-99338333D01*
X128226666Y-99605000D01*
X127526666Y-99605000D01*
X127526666Y-99371666D01*
X127560000Y-99305000D01*
X127593333Y-99271666D01*
X127660000Y-99238333D01*
X127726666Y-99238333D01*
X127793333Y-99271666D01*
X127826666Y-99305000D01*
X127860000Y-99371666D01*
X127860000Y-99605000D01*
X128226666Y-98538333D02*
X128226666Y-98938333D01*
X128226666Y-98738333D02*
X127526666Y-98738333D01*
X127626666Y-98805000D01*
X127693333Y-98871666D01*
X127726666Y-98938333D01*
%TO.C,D3*%
X173123333Y-103206666D02*
X173123333Y-102506666D01*
X173290000Y-102506666D01*
X173390000Y-102540000D01*
X173456666Y-102606666D01*
X173490000Y-102673333D01*
X173523333Y-102806666D01*
X173523333Y-102906666D01*
X173490000Y-103040000D01*
X173456666Y-103106666D01*
X173390000Y-103173333D01*
X173290000Y-103206666D01*
X173123333Y-103206666D01*
X173756666Y-102506666D02*
X174190000Y-102506666D01*
X173956666Y-102773333D01*
X174056666Y-102773333D01*
X174123333Y-102806666D01*
X174156666Y-102840000D01*
X174190000Y-102906666D01*
X174190000Y-103073333D01*
X174156666Y-103140000D01*
X174123333Y-103173333D01*
X174056666Y-103206666D01*
X173856666Y-103206666D01*
X173790000Y-103173333D01*
X173756666Y-103140000D01*
%TO.C,D1*%
X136006666Y-93906666D02*
X135306666Y-93906666D01*
X135306666Y-93740000D01*
X135340000Y-93640000D01*
X135406666Y-93573333D01*
X135473333Y-93540000D01*
X135606666Y-93506666D01*
X135706666Y-93506666D01*
X135840000Y-93540000D01*
X135906666Y-93573333D01*
X135973333Y-93640000D01*
X136006666Y-93740000D01*
X136006666Y-93906666D01*
X136006666Y-92840000D02*
X136006666Y-93240000D01*
X136006666Y-93040000D02*
X135306666Y-93040000D01*
X135406666Y-93106666D01*
X135473333Y-93173333D01*
X135506666Y-93240000D01*
%TO.C,D6*%
X145221833Y-103424668D02*
X145221833Y-102724668D01*
X145388500Y-102724668D01*
X145488500Y-102758002D01*
X145555166Y-102824668D01*
X145588500Y-102891335D01*
X145621833Y-103024668D01*
X145621833Y-103124668D01*
X145588500Y-103258002D01*
X145555166Y-103324668D01*
X145488500Y-103391335D01*
X145388500Y-103424668D01*
X145221833Y-103424668D01*
X146221833Y-102724668D02*
X146088500Y-102724668D01*
X146021833Y-102758002D01*
X145988500Y-102791335D01*
X145921833Y-102891335D01*
X145888500Y-103024668D01*
X145888500Y-103291335D01*
X145921833Y-103358002D01*
X145955166Y-103391335D01*
X146021833Y-103424668D01*
X146155166Y-103424668D01*
X146221833Y-103391335D01*
X146255166Y-103358002D01*
X146288500Y-103291335D01*
X146288500Y-103124668D01*
X146255166Y-103058002D01*
X146221833Y-103024668D01*
X146155166Y-102991335D01*
X146021833Y-102991335D01*
X145955166Y-103024668D01*
X145921833Y-103058002D01*
X145888500Y-103124668D01*
%TO.C,C6*%
X135466133Y-100140000D02*
X135432800Y-100173333D01*
X135332800Y-100206666D01*
X135266133Y-100206666D01*
X135166133Y-100173333D01*
X135099466Y-100106666D01*
X135066133Y-100040000D01*
X135032800Y-99906666D01*
X135032800Y-99806666D01*
X135066133Y-99673333D01*
X135099466Y-99606666D01*
X135166133Y-99540000D01*
X135266133Y-99506666D01*
X135332800Y-99506666D01*
X135432800Y-99540000D01*
X135466133Y-99573333D01*
X136066133Y-99506666D02*
X135932800Y-99506666D01*
X135866133Y-99540000D01*
X135832800Y-99573333D01*
X135766133Y-99673333D01*
X135732800Y-99806666D01*
X135732800Y-100073333D01*
X135766133Y-100140000D01*
X135799466Y-100173333D01*
X135866133Y-100206666D01*
X135999466Y-100206666D01*
X136066133Y-100173333D01*
X136099466Y-100140000D01*
X136132800Y-100073333D01*
X136132800Y-99906666D01*
X136099466Y-99840000D01*
X136066133Y-99806666D01*
X135999466Y-99773333D01*
X135866133Y-99773333D01*
X135799466Y-99806666D01*
X135766133Y-99840000D01*
X135732800Y-99906666D01*
%TO.C,D4*%
X192662133Y-92126666D02*
X192662133Y-91426666D01*
X192828800Y-91426666D01*
X192928800Y-91460000D01*
X192995466Y-91526666D01*
X193028800Y-91593333D01*
X193062133Y-91726666D01*
X193062133Y-91826666D01*
X193028800Y-91960000D01*
X192995466Y-92026666D01*
X192928800Y-92093333D01*
X192828800Y-92126666D01*
X192662133Y-92126666D01*
X193662133Y-91660000D02*
X193662133Y-92126666D01*
X193495466Y-91393333D02*
X193328800Y-91893333D01*
X193762133Y-91893333D01*
%TO.C,C3*%
X186693333Y-103390000D02*
X186660000Y-103423333D01*
X186560000Y-103456666D01*
X186493333Y-103456666D01*
X186393333Y-103423333D01*
X186326666Y-103356666D01*
X186293333Y-103290000D01*
X186260000Y-103156666D01*
X186260000Y-103056666D01*
X186293333Y-102923333D01*
X186326666Y-102856666D01*
X186393333Y-102790000D01*
X186493333Y-102756666D01*
X186560000Y-102756666D01*
X186660000Y-102790000D01*
X186693333Y-102823333D01*
X186926666Y-102756666D02*
X187360000Y-102756666D01*
X187126666Y-103023333D01*
X187226666Y-103023333D01*
X187293333Y-103056666D01*
X187326666Y-103090000D01*
X187360000Y-103156666D01*
X187360000Y-103323333D01*
X187326666Y-103390000D01*
X187293333Y-103423333D01*
X187226666Y-103456666D01*
X187026666Y-103456666D01*
X186960000Y-103423333D01*
X186926666Y-103390000D01*
%TO.C,C1*%
X186639333Y-97490000D02*
X186606000Y-97523333D01*
X186506000Y-97556666D01*
X186439333Y-97556666D01*
X186339333Y-97523333D01*
X186272666Y-97456666D01*
X186239333Y-97390000D01*
X186206000Y-97256666D01*
X186206000Y-97156666D01*
X186239333Y-97023333D01*
X186272666Y-96956666D01*
X186339333Y-96890000D01*
X186439333Y-96856666D01*
X186506000Y-96856666D01*
X186606000Y-96890000D01*
X186639333Y-96923333D01*
X187306000Y-97556666D02*
X186906000Y-97556666D01*
X187106000Y-97556666D02*
X187106000Y-96856666D01*
X187039333Y-96956666D01*
X186972666Y-97023333D01*
X186906000Y-97056666D01*
%TO.C,R2*%
X173543333Y-99046666D02*
X173310000Y-98713333D01*
X173143333Y-99046666D02*
X173143333Y-98346666D01*
X173410000Y-98346666D01*
X173476666Y-98380000D01*
X173510000Y-98413333D01*
X173543333Y-98480000D01*
X173543333Y-98580000D01*
X173510000Y-98646666D01*
X173476666Y-98680000D01*
X173410000Y-98713333D01*
X173143333Y-98713333D01*
X173810000Y-98413333D02*
X173843333Y-98380000D01*
X173910000Y-98346666D01*
X174076666Y-98346666D01*
X174143333Y-98380000D01*
X174176666Y-98413333D01*
X174210000Y-98480000D01*
X174210000Y-98546666D01*
X174176666Y-98646666D01*
X173776666Y-99046666D01*
X174210000Y-99046666D01*
%TO.C,U2*%
X142059466Y-100673333D02*
X142626133Y-100673333D01*
X142692800Y-100640000D01*
X142726133Y-100606666D01*
X142759466Y-100540000D01*
X142759466Y-100406666D01*
X142726133Y-100340000D01*
X142692800Y-100306666D01*
X142626133Y-100273333D01*
X142059466Y-100273333D01*
X142126133Y-99973333D02*
X142092800Y-99940000D01*
X142059466Y-99873333D01*
X142059466Y-99706666D01*
X142092800Y-99640000D01*
X142126133Y-99606666D01*
X142192800Y-99573333D01*
X142259466Y-99573333D01*
X142359466Y-99606666D01*
X142759466Y-100006666D01*
X142759466Y-99573333D01*
D12*
%TO.C,F2*%
X189457936Y-108480000D02*
X190662064Y-108480000D01*
X189457936Y-106660000D02*
X190662064Y-106660000D01*
%TO.C,C2*%
X184469420Y-98160000D02*
X184750580Y-98160000D01*
X184469420Y-99180000D02*
X184750580Y-99180000D01*
%TO.C,D2*%
X170592500Y-97895000D02*
X172877500Y-97895000D01*
X172877500Y-97895000D02*
X172877500Y-96425000D01*
X172877500Y-96425000D02*
X170592500Y-96425000D01*
%TO.C,R6*%
X147755242Y-101852502D02*
X148229758Y-101852502D01*
X147755242Y-100807502D02*
X148229758Y-100807502D01*
%TO.C,F1*%
X131722500Y-93022064D02*
X131722500Y-91817936D01*
X129902500Y-93022064D02*
X129902500Y-91817936D01*
%TO.C,R5*%
X147755242Y-99249168D02*
X148229758Y-99249168D01*
X147755242Y-98204168D02*
X148229758Y-98204168D01*
D13*
%TO.C,USB2*%
X193501700Y-104420000D02*
X191756700Y-104420000D01*
X197278700Y-95620000D02*
X195856700Y-95620000D01*
X193501700Y-95620000D02*
X191756700Y-95620000D01*
X197278700Y-104420000D02*
X197278700Y-95620000D01*
X197278700Y-104420000D02*
X195856700Y-104420000D01*
D14*
%TO.C,U1*%
X180966000Y-97684000D02*
X180966000Y-98429000D01*
X180966000Y-102836000D02*
X180966000Y-102091000D01*
X175814000Y-97684000D02*
X175814000Y-98429000D01*
X176559000Y-102836000D02*
X175814000Y-102836000D01*
X175814000Y-102836000D02*
X175814000Y-102091000D01*
X180221000Y-102836000D02*
X180966000Y-102836000D01*
X180221000Y-97684000D02*
X180966000Y-97684000D01*
X176559000Y-97684000D02*
X175814000Y-97684000D01*
D15*
X181595000Y-101760000D02*
G75*
G03*
X181595000Y-101760000I-75000J0D01*
G01*
D12*
%TO.C,R1*%
X133365242Y-90907500D02*
X133839758Y-90907500D01*
X133365242Y-91952500D02*
X133839758Y-91952500D01*
%TO.C,D5*%
X147212500Y-97695000D02*
X149497500Y-97695000D01*
X149497500Y-97695000D02*
X149497500Y-96225000D01*
X149497500Y-96225000D02*
X147212500Y-96225000D01*
%TO.C,C5*%
X141430580Y-103470000D02*
X141149420Y-103470000D01*
X141430580Y-104490000D02*
X141149420Y-104490000D01*
D13*
%TO.C,SW1*%
X136350000Y-106780000D02*
X138060000Y-106780000D01*
X131350000Y-106780000D02*
X133270000Y-106780000D01*
X129060000Y-109980000D02*
X138060000Y-109980000D01*
X129060000Y-106780000D02*
X130770000Y-106780000D01*
X134310000Y-111980000D02*
X134310000Y-109980000D01*
X138060000Y-106780000D02*
X138060000Y-109980000D01*
X129060000Y-106780000D02*
X129060000Y-109980000D01*
X132810000Y-111980000D02*
X132810000Y-109980000D01*
X134310000Y-111980000D02*
X132810000Y-111980000D01*
X133850000Y-106780000D02*
X135770000Y-106780000D01*
D12*
%TO.C,C7*%
X141228220Y-96010000D02*
X141509380Y-96010000D01*
X141228220Y-97030000D02*
X141509380Y-97030000D01*
%TO.C,J2*%
X165970000Y-102550000D02*
X163310000Y-102550000D01*
X165970000Y-94870000D02*
X163310000Y-94870000D01*
X165970000Y-105150000D02*
X164640000Y-105150000D01*
X163310000Y-102550000D02*
X163310000Y-94870000D01*
X165970000Y-103820000D02*
X165970000Y-105150000D01*
X165970000Y-102550000D02*
X165970000Y-94870000D01*
%TO.C,R4*%
X191147258Y-93792500D02*
X190672742Y-93792500D01*
X191147258Y-92747500D02*
X190672742Y-92747500D01*
%TO.C,C4*%
X184469420Y-101978000D02*
X184750580Y-101978000D01*
X184469420Y-100958000D02*
X184750580Y-100958000D01*
%TO.C,R3*%
X171152742Y-100767500D02*
X171627258Y-100767500D01*
X171152742Y-101812500D02*
X171627258Y-101812500D01*
D13*
%TO.C,USB1*%
X127648500Y-95370000D02*
X129393500Y-95370000D01*
X123871500Y-95370000D02*
X125293500Y-95370000D01*
X127648500Y-104170000D02*
X129393500Y-104170000D01*
X123871500Y-104170000D02*
X125293500Y-104170000D01*
X123871500Y-95370000D02*
X123871500Y-104170000D01*
D12*
%TO.C,J5*%
X157762500Y-102580000D02*
X157762500Y-94900000D01*
X157762500Y-105180000D02*
X156432500Y-105180000D01*
X157762500Y-94900000D02*
X155102500Y-94900000D01*
X157762500Y-103850000D02*
X157762500Y-105180000D01*
X155102500Y-102580000D02*
X155102500Y-94900000D01*
X157762500Y-102580000D02*
X155102500Y-102580000D01*
%TO.C,D3*%
X172871000Y-102117000D02*
X170586000Y-102117000D01*
X170586000Y-103587000D02*
X172871000Y-103587000D01*
X172871000Y-103587000D02*
X172871000Y-102117000D01*
%TO.C,D1*%
X135089500Y-94109000D02*
X135089500Y-92639000D01*
X135089500Y-92639000D02*
X132804500Y-92639000D01*
X132804500Y-94109000D02*
X135089500Y-94109000D01*
%TO.C,D6*%
X149497500Y-102361668D02*
X147212500Y-102361668D01*
X147212500Y-103831668D02*
X149497500Y-103831668D01*
X149497500Y-103831668D02*
X149497500Y-102361668D01*
%TO.C,C6*%
X135432220Y-98080000D02*
X135713380Y-98080000D01*
X135432220Y-99100000D02*
X135713380Y-99100000D01*
%TO.C,D4*%
X189435000Y-92405000D02*
X191720000Y-92405000D01*
X191720000Y-90935000D02*
X189435000Y-90935000D01*
X189435000Y-90935000D02*
X189435000Y-92405000D01*
%TO.C,C3*%
X184479420Y-103540000D02*
X184760580Y-103540000D01*
X184479420Y-102520000D02*
X184760580Y-102520000D01*
%TO.C,C1*%
X184469420Y-97660000D02*
X184750580Y-97660000D01*
X184469420Y-96640000D02*
X184750580Y-96640000D01*
%TO.C,R2*%
X171157742Y-99242500D02*
X171632258Y-99242500D01*
X171157742Y-98197500D02*
X171632258Y-98197500D01*
D13*
%TO.C,U2*%
X138704800Y-98510000D02*
X138312800Y-98510000D01*
X138312800Y-101118000D02*
X138312800Y-101510000D01*
X141312800Y-98510000D02*
X140917800Y-98510000D01*
X141312800Y-101510000D02*
X141312800Y-101118000D01*
X141312800Y-98906000D02*
X141312800Y-98510000D01*
X141312800Y-101510000D02*
X140917800Y-101510000D01*
X138706800Y-101510000D02*
X138312800Y-101510000D01*
X138312800Y-98510000D02*
X138312800Y-98906000D01*
X141037800Y-97960000D02*
G75*
G03*
X141037800Y-97960000I-125000J0D01*
G01*
%TD*%
%LPC*%
D16*
%TO.C,F2*%
X188660000Y-107570000D03*
X191460000Y-107570000D03*
%TD*%
D17*
%TO.C,C2*%
X183835000Y-98670000D03*
X185385000Y-98670000D03*
%TD*%
D18*
%TO.C,D2*%
X172180000Y-97160000D03*
X170605000Y-97160000D03*
%TD*%
D19*
%TO.C,R6*%
X147167500Y-101330002D03*
X148817500Y-101330002D03*
%TD*%
D20*
%TO.C,F1*%
X130812500Y-93820000D03*
X130812500Y-91020000D03*
%TD*%
D19*
%TO.C,R5*%
X147167500Y-98726668D03*
X148817500Y-98726668D03*
%TD*%
D21*
%TO.C,USB2*%
X190978700Y-102910000D03*
X190978700Y-97130000D03*
D22*
X190478700Y-104345000D03*
X190478700Y-95695000D03*
D23*
X194678700Y-104345000D03*
X194678700Y-95695000D03*
D24*
X189716700Y-103220000D03*
X189716700Y-102420000D03*
D25*
X189716700Y-101270000D03*
X189716700Y-100270000D03*
X189716700Y-99770000D03*
X189716700Y-98770000D03*
D24*
X189716700Y-96820000D03*
X189716700Y-97620000D03*
D25*
X189716700Y-98270000D03*
X189716700Y-99270000D03*
X189716700Y-100770000D03*
X189716700Y-101770000D03*
%TD*%
D26*
%TO.C,U1*%
X180767000Y-101760000D03*
X180767000Y-101260000D03*
X180767000Y-100760000D03*
X180767000Y-100260000D03*
X180767000Y-99760000D03*
X180767000Y-99260000D03*
X180767000Y-98760000D03*
D27*
X179890000Y-97883000D03*
X179390000Y-97883000D03*
X178890000Y-97883000D03*
X178390000Y-97883000D03*
X177890000Y-97883000D03*
X177390000Y-97883000D03*
X176890000Y-97883000D03*
D26*
X176013000Y-98760000D03*
X176013000Y-99260000D03*
X176013000Y-99760000D03*
X176013000Y-100260000D03*
X176013000Y-100760000D03*
X176013000Y-101260000D03*
X176013000Y-101760000D03*
D27*
X176890000Y-102637000D03*
X177390000Y-102637000D03*
X177890000Y-102637000D03*
X178390000Y-102637000D03*
X178890000Y-102637000D03*
X179390000Y-102637000D03*
X179890000Y-102637000D03*
D28*
X178390000Y-100260000D03*
%TD*%
D19*
%TO.C,R1*%
X132777500Y-91430000D03*
X134427500Y-91430000D03*
%TD*%
D18*
%TO.C,D5*%
X148800000Y-96960000D03*
X147225000Y-96960000D03*
%TD*%
D29*
%TO.C,C5*%
X142065000Y-103980000D03*
X140515000Y-103980000D03*
%TD*%
D30*
%TO.C,SW1*%
X131060000Y-107380000D03*
X133560000Y-107380000D03*
X136060000Y-107380000D03*
%TD*%
D17*
%TO.C,C7*%
X140593800Y-96520000D03*
X142143800Y-96520000D03*
%TD*%
D31*
%TO.C,J2*%
X164640000Y-103820000D03*
D32*
X164640000Y-101280000D03*
X164640000Y-98740000D03*
X164640000Y-96200000D03*
%TD*%
D33*
%TO.C,R4*%
X191735000Y-93270000D03*
X190085000Y-93270000D03*
%TD*%
D17*
%TO.C,C4*%
X183835000Y-101468000D03*
X185385000Y-101468000D03*
%TD*%
D19*
%TO.C,R3*%
X170565000Y-101290000D03*
X172215000Y-101290000D03*
%TD*%
D21*
%TO.C,USB1*%
X130171500Y-96880000D03*
X130171500Y-102660000D03*
D22*
X130671500Y-95445000D03*
X130671500Y-104095000D03*
D23*
X126471500Y-95445000D03*
X126471500Y-104095000D03*
D24*
X131433500Y-96570000D03*
X131433500Y-97370000D03*
D25*
X131433500Y-98520000D03*
X131433500Y-99520000D03*
X131433500Y-100020000D03*
X131433500Y-101020000D03*
D24*
X131433500Y-102970000D03*
X131433500Y-102170000D03*
D25*
X131433500Y-101520000D03*
X131433500Y-100520000D03*
X131433500Y-99020000D03*
X131433500Y-98020000D03*
%TD*%
D31*
%TO.C,J5*%
X156432500Y-103850000D03*
D32*
X156432500Y-101310000D03*
X156432500Y-98770000D03*
X156432500Y-96230000D03*
%TD*%
D18*
%TO.C,D3*%
X172173500Y-102852000D03*
X170598500Y-102852000D03*
%TD*%
%TO.C,D1*%
X134392000Y-93374000D03*
X132817000Y-93374000D03*
%TD*%
%TO.C,D6*%
X148800000Y-103096668D03*
X147225000Y-103096668D03*
%TD*%
D17*
%TO.C,C6*%
X134797800Y-98590000D03*
X136347800Y-98590000D03*
%TD*%
D34*
%TO.C,D4*%
X190132500Y-91670000D03*
X191707500Y-91670000D03*
%TD*%
D17*
%TO.C,C3*%
X183845000Y-103030000D03*
X185395000Y-103030000D03*
%TD*%
%TO.C,C1*%
X183835000Y-97150000D03*
X185385000Y-97150000D03*
%TD*%
D19*
%TO.C,R2*%
X170570000Y-98720000D03*
X172220000Y-98720000D03*
%TD*%
D35*
%TO.C,U2*%
X140560800Y-98560000D03*
X140061800Y-98560000D03*
X139560800Y-98560000D03*
X139061800Y-98560000D03*
D36*
X138362800Y-99260000D03*
X138362800Y-99760000D03*
X138362800Y-100260000D03*
X138362800Y-100760000D03*
D35*
X139062800Y-101460000D03*
X139562800Y-101460000D03*
X140062800Y-101460000D03*
X140561800Y-101460000D03*
D36*
X141262800Y-100760000D03*
X141262800Y-100260000D03*
X141262800Y-99760000D03*
X141262800Y-99260000D03*
D31*
X139812800Y-100010000D03*
%TD*%
%TO.C,J4*%
X153500000Y-108700000D03*
D32*
X150960000Y-108700000D03*
X148420000Y-108700000D03*
X145880000Y-108700000D03*
X143340000Y-108700000D03*
X140800000Y-108700000D03*
%TD*%
D31*
%TO.C,J3*%
X169341000Y-108646000D03*
D32*
X171881000Y-108646000D03*
X174421000Y-108646000D03*
X176961000Y-108646000D03*
X179501000Y-108646000D03*
X182041000Y-108646000D03*
X184581000Y-108646000D03*
%TD*%
D31*
%TO.C,J1*%
X169400000Y-91100000D03*
D32*
X171940000Y-91100000D03*
X174480000Y-91100000D03*
X177020000Y-91100000D03*
X179560000Y-91100000D03*
X182100000Y-91100000D03*
X184640000Y-91100000D03*
X187180000Y-91100000D03*
%TD*%
D31*
%TO.C,J6*%
X153500000Y-91194000D03*
D32*
X150960000Y-91194000D03*
X148420000Y-91194000D03*
X145880000Y-91194000D03*
X143340000Y-91194000D03*
X140800000Y-91194000D03*
X138260000Y-91194000D03*
%TD*%
M02*
