%TF.GenerationSoftware,KiCad,Pcbnew,7.0.5*%
%TF.CreationDate,2023-06-27T15:59:02+08:00*%
%TF.ProjectId,UINIO-USB-UART,55494e49-4f2d-4555-9342-2d554152542e,Version 3.2.0*%
%TF.SameCoordinates,Original*%
%TF.FileFunction,Copper,L2,Bot*%
%TF.FilePolarity,Positive*%
%FSLAX46Y46*%
G04 Gerber Fmt 4.6, Leading zero omitted, Abs format (unit mm)*
G04 Created by KiCad (PCBNEW 7.0.5) date 2023-06-27 15:59:02*
%MOMM*%
%LPD*%
G01*
G04 APERTURE LIST*
%TA.AperFunction,ComponentPad*%
%ADD10R,1.700000X1.700000*%
%TD*%
%TA.AperFunction,ComponentPad*%
%ADD11O,1.700000X1.700000*%
%TD*%
%TA.AperFunction,ComponentPad*%
%ADD12C,1.200000*%
%TD*%
%TA.AperFunction,ComponentPad*%
%ADD13O,1.000000X2.100000*%
%TD*%
%TA.AperFunction,ComponentPad*%
%ADD14O,1.000000X1.900000*%
%TD*%
%TA.AperFunction,ComponentPad*%
%ADD15C,2.200000*%
%TD*%
%TA.AperFunction,ViaPad*%
%ADD16C,0.700000*%
%TD*%
%TA.AperFunction,ViaPad*%
%ADD17C,0.500000*%
%TD*%
%TA.AperFunction,Conductor*%
%ADD18C,0.400000*%
%TD*%
%TA.AperFunction,Conductor*%
%ADD19C,0.200000*%
%TD*%
%TA.AperFunction,Conductor*%
%ADD20C,0.300000*%
%TD*%
%TA.AperFunction,Conductor*%
%ADD21C,0.500000*%
%TD*%
G04 APERTURE END LIST*
D10*
%TO.P,J7,1,Pin_1*%
%TO.N,/CH343_VDD_3.3V*%
X127310000Y-85486320D03*
D11*
%TO.P,J7,2,Pin_2*%
%TO.N,/CH343_VIO*%
X127310000Y-88026320D03*
%TO.P,J7,3,Pin_3*%
%TO.N,/CH343_VDD_5V*%
X127310000Y-90566320D03*
%TD*%
D12*
%TO.P,HOLE\u002A\u002A,*%
%TO.N,*%
X172460000Y-81046320D03*
%TD*%
%TO.P,HOLE\u002A\u002A,*%
%TO.N,*%
X128140000Y-110335000D03*
%TD*%
%TO.P,HOLE\u002A\u002A,*%
%TO.N,*%
X156530000Y-110336320D03*
%TD*%
D13*
%TO.P,USB2,13,GND*%
%TO.N,GND*%
X168815000Y-84756320D03*
%TO.P,USB2,14,GND*%
X160165000Y-84756320D03*
D14*
%TO.P,USB2,15,GND*%
X168815000Y-80556320D03*
%TO.P,USB2,16,GND*%
X160165000Y-80556320D03*
%TD*%
D15*
%TO.P,HOLE\u002A\u002A,*%
%TO.N,*%
X150300000Y-87120000D03*
%TD*%
D12*
%TO.P,HOLE\u002A\u002A,*%
%TO.N,*%
X172460000Y-110326320D03*
%TD*%
D10*
%TO.P,J2,1,Pin_1*%
%TO.N,/CP2102_VDD_5V*%
X159425000Y-111185000D03*
D11*
%TO.P,J2,2,Pin_2*%
%TO.N,/CP2102_VDD_3.3V*%
X161965000Y-111185000D03*
%TO.P,J2,3,Pin_3*%
%TO.N,GND*%
X164505000Y-111185000D03*
%TO.P,J2,4,Pin_4*%
%TO.N,/CP2102_RXD*%
X167045000Y-111185000D03*
%TO.P,J2,5,Pin_5*%
%TO.N,/CP2102_TXD*%
X169585000Y-111185000D03*
%TD*%
D12*
%TO.P,HOLE\u002A\u002A,*%
%TO.N,*%
X144060000Y-81055000D03*
%TD*%
D13*
%TO.P,USB1,13,GND*%
%TO.N,GND*%
X140425000Y-84756320D03*
%TO.P,USB1,14,GND*%
X131775000Y-84756320D03*
D14*
%TO.P,USB1,15,GND*%
X140425000Y-80556320D03*
%TO.P,USB1,16,GND*%
X131775000Y-80556320D03*
%TD*%
D12*
%TO.P,HOLE\u002A\u002A,*%
%TO.N,*%
X156540000Y-81056320D03*
%TD*%
D10*
%TO.P,J5,1,Pin_1*%
%TO.N,/CH343_VDD_5V*%
X131025000Y-111185000D03*
D11*
%TO.P,J5,2,Pin_2*%
%TO.N,/CH343_VDD_3.3V*%
X133565000Y-111185000D03*
%TO.P,J5,3,Pin_3*%
%TO.N,GND*%
X136105000Y-111185000D03*
%TO.P,J5,4,Pin_4*%
%TO.N,/CH343_TXD*%
X138645000Y-111185000D03*
%TO.P,J5,5,Pin_5*%
%TO.N,/CH343_RXD*%
X141185000Y-111185000D03*
%TD*%
D12*
%TO.P,HOLE\u002A\u002A,*%
%TO.N,*%
X128140000Y-81055000D03*
%TD*%
%TO.P,HOLE\u002A\u002A,*%
%TO.N,*%
X144060000Y-110345000D03*
%TD*%
D10*
%TO.P,J4,1,Pin_1*%
%TO.N,/CH343_ACT#*%
X127310000Y-99245000D03*
D11*
%TO.P,J4,2,Pin_2*%
%TO.N,/CH343_DCD*%
X127310000Y-101785000D03*
%TO.P,J4,3,Pin_3*%
%TO.N,/CH343_DTR*%
X127310000Y-104325000D03*
%TD*%
D10*
%TO.P,J3,1,Pin_1*%
%TO.N,/CP2102_RI*%
X173180000Y-91255000D03*
D11*
%TO.P,J3,2,Pin_2*%
%TO.N,/CP2102_DCD*%
X173180000Y-93795000D03*
%TO.P,J3,3,Pin_3*%
%TO.N,/CP2102_DTR*%
X173180000Y-96335000D03*
%TO.P,J3,4,Pin_4*%
%TO.N,/CP2102_DSR*%
X173180000Y-98875000D03*
%TO.P,J3,5,Pin_5*%
%TO.N,/CP2102_RTS*%
X173180000Y-101415000D03*
%TO.P,J3,6,Pin_6*%
%TO.N,/CP2102_CTS*%
X173180000Y-103955000D03*
%TD*%
D10*
%TO.P,J1,1,Pin_1*%
%TO.N,/CP2102_RST*%
X155620000Y-96336320D03*
D11*
%TO.P,J1,2,Pin_2*%
%TO.N,/CP2102_\u002ASUSPEND*%
X155620000Y-98876320D03*
%TO.P,J1,3,Pin_3*%
%TO.N,/CP2102_SUSPEND*%
X155620000Y-101416320D03*
%TD*%
D10*
%TO.P,J6,1,Pin_1*%
%TO.N,/CH343_RI*%
X144920000Y-96695000D03*
D11*
%TO.P,J6,2,Pin_2*%
%TO.N,/CH343_CTS*%
X144920000Y-99235000D03*
%TO.P,J6,3,Pin_3*%
%TO.N,/CH343_DSR*%
X144920000Y-101775000D03*
%TO.P,J6,4,Pin_4*%
%TO.N,/CH343_RTS*%
X144920000Y-104315000D03*
%TD*%
D16*
%TO.N,/CP2102_VDD_5V*%
X157040000Y-90466320D03*
D17*
%TO.N,GND*%
X130000000Y-108670000D03*
X137750000Y-108670000D03*
X142770000Y-97666320D03*
X129450000Y-95096320D03*
X164395000Y-97210000D03*
X165740000Y-108476320D03*
X134670000Y-91666320D03*
X129450000Y-98036320D03*
X139690000Y-99496320D03*
X165980000Y-88660000D03*
X129450000Y-88866320D03*
X170960000Y-100480000D03*
X163430000Y-97210000D03*
X165370000Y-98220000D03*
X142630000Y-108626320D03*
X164420000Y-100830000D03*
X164405000Y-98220000D03*
X135700000Y-89506320D03*
X142770000Y-102472986D03*
X129450000Y-91396320D03*
D16*
X159770000Y-88556320D03*
D17*
X129450000Y-100396320D03*
X136790000Y-97593500D03*
X129450000Y-102426320D03*
X164415000Y-96190000D03*
D16*
X165700000Y-90956320D03*
D17*
X136950000Y-101766320D03*
X163300000Y-108476320D03*
X165360000Y-97210000D03*
X163440000Y-98220000D03*
X168330000Y-108476320D03*
X139690000Y-101046320D03*
X163450000Y-96190000D03*
X135410000Y-97593500D03*
X142770000Y-100069653D03*
X165380000Y-96190000D03*
X165090000Y-102966320D03*
X142770000Y-104876320D03*
X158080000Y-97836320D03*
X135180000Y-108670000D03*
X135700000Y-94665896D03*
D16*
%TO.N,/CH343_VDD_5V*%
X137750500Y-99399891D03*
D17*
X143420000Y-88946320D03*
X131980000Y-88946320D03*
D16*
%TO.N,/CP2102_VDD_3.3V*%
X161940000Y-101726320D03*
D17*
X170970000Y-88086320D03*
D16*
X161940000Y-93506320D03*
D17*
X167830000Y-101716320D03*
D16*
%TO.N,/CH343_VDD_3.3V*%
X136120000Y-103546320D03*
X140710000Y-92430000D03*
%TO.N,/CH343_VIO*%
X134518895Y-101225215D03*
D17*
X137740000Y-100256320D03*
X140250000Y-100266320D03*
D16*
%TO.N,Net-(F1-Pad1)*%
X138490000Y-87286320D03*
X133740000Y-87286320D03*
%TO.N,Net-(F2-Pad1)*%
X166880000Y-86736320D03*
X162090000Y-86736320D03*
D17*
%TO.N,/CP2102_RTS*%
X167570000Y-97712000D03*
%TO.N,/CP2102_CTS*%
X167910000Y-98685000D03*
%TO.N,/CH343_DSR*%
X132937845Y-101224165D03*
%TO.N,/CH343_RTS*%
X131666840Y-103503160D03*
%TO.N,/CH343_CTS*%
X133690000Y-101217320D03*
%TO.N,/CP2102_USB_Data_P*%
X163740000Y-84586320D03*
X164740000Y-84586320D03*
%TO.N,Net-(USB2-CC2)*%
X165980000Y-89866320D03*
X162740000Y-87626320D03*
%TO.N,Net-(USB1-CC1)*%
X137350000Y-86626320D03*
X135090000Y-86626320D03*
%TO.N,/CH343_USB_Data_N*%
X136850000Y-84636320D03*
X135850000Y-84636320D03*
%TO.N,/CH343_RI*%
X135253485Y-99680407D03*
%TD*%
D18*
%TO.N,/CP2102_VDD_5V*%
X159425000Y-111185000D02*
X159425000Y-92851320D01*
X159425000Y-92851320D02*
X157040000Y-90466320D01*
D19*
%TO.N,GND*%
X165740000Y-108476320D02*
X168330000Y-108476320D01*
X135700000Y-89506320D02*
X134670000Y-90536320D01*
X129450000Y-95096320D02*
X129450000Y-98036320D01*
X129450000Y-100396320D02*
X129450000Y-102426320D01*
X134670000Y-90536320D02*
X134670000Y-91666320D01*
D20*
X162170000Y-90956320D02*
X159770000Y-88556320D01*
X165700000Y-90956320D02*
X162170000Y-90956320D01*
D19*
X129450000Y-98036320D02*
X129450000Y-100396320D01*
X163300000Y-108476320D02*
X165740000Y-108476320D01*
D18*
%TO.N,/CH343_VDD_5V*%
X131025000Y-111185000D02*
X131025000Y-94281320D01*
X143420000Y-93720000D02*
X143420000Y-88946320D01*
X137750500Y-99389500D02*
X143420000Y-93720000D01*
X143420000Y-88946320D02*
X131980000Y-88946320D01*
X131025000Y-94281320D02*
X127310000Y-90566320D01*
X137750500Y-99399891D02*
X137750500Y-99389500D01*
D20*
%TO.N,/CP2102_VDD_3.3V*%
X167820000Y-101726320D02*
X167830000Y-101716320D01*
X161940000Y-101726320D02*
X167820000Y-101726320D01*
X170970000Y-88086320D02*
X170970000Y-91816320D01*
X161965000Y-101751320D02*
X161965000Y-111185000D01*
X170970000Y-91816320D02*
X169280000Y-93506320D01*
X161940000Y-101726320D02*
X161965000Y-101751320D01*
X161940000Y-101726320D02*
X161940000Y-93506320D01*
X169280000Y-93506320D02*
X161940000Y-93506320D01*
%TO.N,/CH343_VDD_3.3V*%
X140710000Y-92430000D02*
X134253680Y-92430000D01*
X134253680Y-92430000D02*
X127310000Y-85486320D01*
X136120000Y-97020000D02*
X140710000Y-92430000D01*
X136120000Y-103546320D02*
X136120000Y-97020000D01*
%TO.N,/CH343_VIO*%
X134510000Y-95226320D02*
X127310000Y-88026320D01*
X134518895Y-101225215D02*
X134510000Y-101216320D01*
X140250000Y-100266320D02*
X140240000Y-100256320D01*
X134510000Y-101216320D02*
X134510000Y-95226320D01*
X140240000Y-100256320D02*
X137740000Y-100256320D01*
D21*
%TO.N,Net-(F1-Pad1)*%
X133740000Y-87286320D02*
X138490000Y-87286320D01*
D18*
%TO.N,Net-(F2-Pad1)*%
X166880000Y-86736320D02*
X162090000Y-86736320D01*
D19*
%TO.N,/CP2102_RTS*%
X167570000Y-97712000D02*
X169477000Y-97712000D01*
X169477000Y-97712000D02*
X173180000Y-101415000D01*
%TO.N,/CP2102_CTS*%
X167910000Y-98685000D02*
X173180000Y-103955000D01*
%TO.N,/CH343_DSR*%
X132937845Y-103934165D02*
X134120000Y-105116320D01*
X141578680Y-105116320D02*
X144920000Y-101775000D01*
X134120000Y-105116320D02*
X141578680Y-105116320D01*
X132937845Y-101224165D02*
X132937845Y-103934165D01*
%TO.N,/CH343_RTS*%
X143618680Y-105616320D02*
X144920000Y-104315000D01*
X133780000Y-105616320D02*
X143618680Y-105616320D01*
X131666840Y-103503160D02*
X133780000Y-105616320D01*
%TO.N,/CH343_CTS*%
X133690000Y-103726320D02*
X134580000Y-104616320D01*
X134580000Y-104616320D02*
X139538680Y-104616320D01*
X139538680Y-104616320D02*
X144920000Y-99235000D01*
X133690000Y-101217320D02*
X133690000Y-103726320D01*
%TO.N,/CP2102_USB_Data_P*%
X164740000Y-84586320D02*
X163740000Y-84586320D01*
%TO.N,Net-(USB2-CC2)*%
X162740000Y-87626320D02*
X163740000Y-87626320D01*
X163740000Y-87626320D02*
X165980000Y-89866320D01*
%TO.N,Net-(USB1-CC1)*%
X135120000Y-86626320D02*
X137350000Y-86626320D01*
%TO.N,/CH343_USB_Data_N*%
X136850000Y-84636320D02*
X135850000Y-84636320D01*
%TO.N,/CH343_RI*%
X137478680Y-104136320D02*
X144920000Y-96695000D01*
X135600000Y-104136320D02*
X137478680Y-104136320D01*
X135260000Y-99686922D02*
X135260000Y-103796320D01*
X135253485Y-99680407D02*
X135260000Y-99686922D01*
X135260000Y-103796320D02*
X135600000Y-104136320D01*
%TD*%
%TA.AperFunction,Conductor*%
%TO.N,GND*%
G36*
X126400662Y-91580046D02*
G01*
X126564424Y-91707509D01*
X126762426Y-91814662D01*
X126762429Y-91814663D01*
X126762431Y-91814664D01*
X126762430Y-91814664D01*
X126777690Y-91819902D01*
X126799660Y-91829929D01*
X126803824Y-91832345D01*
X128070013Y-92342318D01*
X128111367Y-92369658D01*
X130280180Y-94538471D01*
X130313665Y-94599794D01*
X130316499Y-94626152D01*
X130316499Y-109262644D01*
X130296814Y-109329683D01*
X130291008Y-109337955D01*
X129775721Y-110011796D01*
X129773286Y-110014980D01*
X129760989Y-110031757D01*
X129753625Y-110046275D01*
X129742308Y-110064486D01*
X129724113Y-110088791D01*
X129724110Y-110088796D01*
X129703263Y-110144687D01*
X129700466Y-110151067D01*
X129694871Y-110162097D01*
X129694869Y-110162102D01*
X129692466Y-110169196D01*
X129692458Y-110169222D01*
X129689532Y-110180541D01*
X129687596Y-110186690D01*
X129673011Y-110225797D01*
X129673010Y-110225799D01*
X129666500Y-110286345D01*
X129666499Y-110286362D01*
X129666499Y-112083637D01*
X129666500Y-112083654D01*
X129672263Y-112137244D01*
X129659859Y-112206003D01*
X129612249Y-112257141D01*
X129548974Y-112274500D01*
X128951742Y-112274500D01*
X128948265Y-112274402D01*
X128645632Y-112257407D01*
X128638718Y-112256628D01*
X128341616Y-112206147D01*
X128334832Y-112204599D01*
X128045243Y-112121170D01*
X128038676Y-112118872D01*
X127805454Y-112022269D01*
X127760253Y-112003546D01*
X127753988Y-112000529D01*
X127490228Y-111854753D01*
X127484336Y-111851051D01*
X127238558Y-111676662D01*
X127233117Y-111672324D01*
X127008408Y-111471511D01*
X127003488Y-111466591D01*
X126802675Y-111241882D01*
X126798337Y-111236441D01*
X126623948Y-110990663D01*
X126620246Y-110984771D01*
X126557577Y-110871380D01*
X126474466Y-110721002D01*
X126471456Y-110714754D01*
X126356126Y-110436320D01*
X126353829Y-110429756D01*
X126339293Y-110379302D01*
X126326531Y-110335002D01*
X127026751Y-110335002D01*
X127033807Y-110411158D01*
X127034001Y-110413927D01*
X127037791Y-110493470D01*
X127037792Y-110493475D01*
X127041555Y-110508986D01*
X127044521Y-110526774D01*
X127045448Y-110536774D01*
X127045706Y-110539559D01*
X127067541Y-110616305D01*
X127068152Y-110618621D01*
X127087701Y-110699201D01*
X127087702Y-110699206D01*
X127092891Y-110710568D01*
X127099359Y-110728134D01*
X127101922Y-110737141D01*
X127101928Y-110737158D01*
X127138940Y-110811487D01*
X127139838Y-110813367D01*
X127175641Y-110891765D01*
X127175647Y-110891776D01*
X127180879Y-110899123D01*
X127190868Y-110915771D01*
X127193497Y-110921050D01*
X127232157Y-110972244D01*
X127245512Y-110989929D01*
X127246526Y-110991310D01*
X127298441Y-111064215D01*
X127298443Y-111064217D01*
X127298444Y-111064218D01*
X127298445Y-111064219D01*
X127302459Y-111068047D01*
X127315837Y-111083057D01*
X127317292Y-111084983D01*
X127317295Y-111084987D01*
X127317298Y-111084989D01*
X127317299Y-111084991D01*
X127383536Y-111145374D01*
X127384530Y-111146301D01*
X127422708Y-111182703D01*
X127451654Y-111210303D01*
X127453398Y-111211424D01*
X127464519Y-111219970D01*
X127464544Y-111219938D01*
X127469119Y-111223393D01*
X127548571Y-111272588D01*
X127629747Y-111324757D01*
X127635000Y-111327465D01*
X127634966Y-111327529D01*
X127638488Y-111329308D01*
X127638650Y-111328984D01*
X127643773Y-111331534D01*
X127643782Y-111331540D01*
X127733782Y-111366405D01*
X127826278Y-111403435D01*
X127826279Y-111403436D01*
X127826517Y-111403482D01*
X127831752Y-111404729D01*
X127835337Y-111405748D01*
X127835345Y-111405751D01*
X127933229Y-111424048D01*
X128034151Y-111443500D01*
X128034156Y-111443500D01*
X128242716Y-111443500D01*
X128242718Y-111443500D01*
X128292132Y-111434262D01*
X128297575Y-111433494D01*
X128350739Y-111428419D01*
X128395668Y-111415225D01*
X128401720Y-111413776D01*
X128444655Y-111405751D01*
X128494560Y-111386417D01*
X128499487Y-111384743D01*
X128549366Y-111370097D01*
X128553862Y-111368777D01*
X128555903Y-111367725D01*
X128592542Y-111348835D01*
X128598550Y-111346131D01*
X128636218Y-111331540D01*
X128684526Y-111301627D01*
X128688748Y-111299236D01*
X128742026Y-111271771D01*
X128773656Y-111246896D01*
X128779336Y-111242923D01*
X128810882Y-111223392D01*
X128855310Y-111182889D01*
X128858721Y-111180000D01*
X128908432Y-111140908D01*
X128932627Y-111112984D01*
X128937708Y-111107774D01*
X128941499Y-111104318D01*
X128962701Y-111084991D01*
X129000893Y-111034414D01*
X129003514Y-111031177D01*
X129009668Y-111024075D01*
X129047065Y-110980918D01*
X129063897Y-110951761D01*
X129068111Y-110945403D01*
X129086503Y-110921050D01*
X129116221Y-110861366D01*
X129118022Y-110858014D01*
X129122077Y-110850990D01*
X129152913Y-110797582D01*
X129162846Y-110768881D01*
X129165925Y-110761547D01*
X129178074Y-110737152D01*
X129197224Y-110669842D01*
X129198248Y-110666593D01*
X129222153Y-110597527D01*
X129226006Y-110570722D01*
X129227738Y-110562597D01*
X129234294Y-110539559D01*
X129241051Y-110466636D01*
X129241416Y-110463550D01*
X129248559Y-110413872D01*
X129252281Y-110387984D01*
X129251149Y-110364236D01*
X129251342Y-110355564D01*
X129253249Y-110335000D01*
X129246191Y-110258839D01*
X129245996Y-110256067D01*
X129245743Y-110250760D01*
X129242208Y-110176526D01*
X129238441Y-110161002D01*
X129235478Y-110143229D01*
X129234294Y-110130441D01*
X129212449Y-110053666D01*
X129211843Y-110051364D01*
X129210806Y-110047089D01*
X129192298Y-109970796D01*
X129187107Y-109959430D01*
X129180636Y-109941853D01*
X129180460Y-109941235D01*
X129178074Y-109932848D01*
X129141043Y-109858482D01*
X129140149Y-109856607D01*
X129115807Y-109803305D01*
X129104356Y-109778229D01*
X129100591Y-109772942D01*
X129099121Y-109770877D01*
X129089129Y-109754224D01*
X129086503Y-109748950D01*
X129068115Y-109724601D01*
X129034487Y-109680070D01*
X129033460Y-109678670D01*
X128988676Y-109615780D01*
X128981559Y-109605785D01*
X128981554Y-109605780D01*
X128977546Y-109601958D01*
X128964153Y-109586931D01*
X128962708Y-109585018D01*
X128962704Y-109585013D01*
X128962701Y-109585009D01*
X128896418Y-109524585D01*
X128895468Y-109523698D01*
X128828343Y-109459694D01*
X128826601Y-109458575D01*
X128815480Y-109450029D01*
X128815456Y-109450062D01*
X128810877Y-109446604D01*
X128731442Y-109397420D01*
X128650258Y-109345246D01*
X128644999Y-109342535D01*
X128645032Y-109342470D01*
X128641512Y-109340692D01*
X128641351Y-109341016D01*
X128636222Y-109338462D01*
X128636218Y-109338460D01*
X128624364Y-109333868D01*
X128546235Y-109303601D01*
X128453722Y-109266564D01*
X128453714Y-109266562D01*
X128453470Y-109266515D01*
X128448257Y-109265273D01*
X128444658Y-109264249D01*
X128346677Y-109245933D01*
X128245850Y-109226500D01*
X128245849Y-109226500D01*
X128242718Y-109226500D01*
X128037282Y-109226500D01*
X128037276Y-109226500D01*
X127987885Y-109235732D01*
X127982386Y-109236507D01*
X127929265Y-109241580D01*
X127929261Y-109241580D01*
X127929261Y-109241581D01*
X127909943Y-109247253D01*
X127884348Y-109254768D01*
X127878271Y-109256224D01*
X127835351Y-109264247D01*
X127835338Y-109264250D01*
X127785438Y-109283582D01*
X127780509Y-109285257D01*
X127726140Y-109301222D01*
X127687459Y-109321162D01*
X127681445Y-109323868D01*
X127643781Y-109338460D01*
X127643780Y-109338460D01*
X127595474Y-109368370D01*
X127591245Y-109370764D01*
X127537977Y-109398226D01*
X127506354Y-109423094D01*
X127500665Y-109427073D01*
X127469116Y-109446609D01*
X127424708Y-109487091D01*
X127421266Y-109490006D01*
X127371565Y-109529093D01*
X127347377Y-109557006D01*
X127342290Y-109562224D01*
X127317301Y-109585006D01*
X127279111Y-109635576D01*
X127276491Y-109638813D01*
X127232936Y-109689079D01*
X127216104Y-109718233D01*
X127211884Y-109724601D01*
X127193496Y-109748951D01*
X127193491Y-109748960D01*
X127163781Y-109808622D01*
X127161976Y-109811985D01*
X127127088Y-109872415D01*
X127117158Y-109901103D01*
X127114067Y-109908463D01*
X127101928Y-109932842D01*
X127101923Y-109932856D01*
X127082782Y-110000128D01*
X127081739Y-110003437D01*
X127057846Y-110072475D01*
X127053994Y-110099258D01*
X127052258Y-110107404D01*
X127045706Y-110130437D01*
X127038949Y-110203351D01*
X127038582Y-110206453D01*
X127027719Y-110282010D01*
X127027719Y-110282015D01*
X127028850Y-110305765D01*
X127028656Y-110314435D01*
X127027555Y-110326323D01*
X127026751Y-110335002D01*
X126326531Y-110335002D01*
X126282931Y-110183663D01*
X126270400Y-110140167D01*
X126268852Y-110133383D01*
X126253632Y-110043808D01*
X126218369Y-109836269D01*
X126217593Y-109829376D01*
X126208721Y-109671390D01*
X126200598Y-109526735D01*
X126200500Y-109523258D01*
X126200500Y-105436580D01*
X126220185Y-105369541D01*
X126272989Y-105323786D01*
X126342147Y-105313842D01*
X126400662Y-105338726D01*
X126564424Y-105466189D01*
X126564425Y-105466189D01*
X126564427Y-105466191D01*
X126691135Y-105534761D01*
X126762426Y-105573342D01*
X126975365Y-105646444D01*
X127197431Y-105683500D01*
X127422569Y-105683500D01*
X127644635Y-105646444D01*
X127857574Y-105573342D01*
X128055576Y-105466189D01*
X128233240Y-105327906D01*
X128332614Y-105219957D01*
X128385715Y-105162276D01*
X128385716Y-105162274D01*
X128385722Y-105162268D01*
X128508860Y-104973791D01*
X128599296Y-104767616D01*
X128654564Y-104549368D01*
X128656930Y-104520817D01*
X128673156Y-104325005D01*
X128673156Y-104324994D01*
X128654565Y-104100640D01*
X128654563Y-104100628D01*
X128626076Y-103988135D01*
X128599296Y-103882384D01*
X128508860Y-103676209D01*
X128385722Y-103487732D01*
X128385719Y-103487729D01*
X128385715Y-103487723D01*
X128233243Y-103322097D01*
X128233238Y-103322092D01*
X128055577Y-103183812D01*
X128055572Y-103183808D01*
X128019068Y-103164053D01*
X127969478Y-103114833D01*
X127954371Y-103046616D01*
X127978542Y-102981061D01*
X128019069Y-102945945D01*
X128055576Y-102926189D01*
X128233240Y-102787906D01*
X128347910Y-102663342D01*
X128385715Y-102622276D01*
X128385716Y-102622274D01*
X128385722Y-102622268D01*
X128508860Y-102433791D01*
X128599296Y-102227616D01*
X128654564Y-102009368D01*
X128662962Y-101908027D01*
X128673156Y-101785005D01*
X128673156Y-101784994D01*
X128654565Y-101560640D01*
X128654563Y-101560628D01*
X128636251Y-101488316D01*
X128599296Y-101342384D01*
X128508860Y-101136209D01*
X128502517Y-101126501D01*
X128401680Y-100972158D01*
X128385722Y-100947732D01*
X128385719Y-100947729D01*
X128385715Y-100947723D01*
X128240510Y-100789991D01*
X128209587Y-100727337D01*
X128217447Y-100657911D01*
X128261594Y-100603755D01*
X128288405Y-100589827D01*
X128368584Y-100559920D01*
X128406204Y-100545889D01*
X128523261Y-100458261D01*
X128610889Y-100341204D01*
X128661989Y-100204201D01*
X128667311Y-100154698D01*
X128668499Y-100143654D01*
X128668499Y-100143647D01*
X128668500Y-100143638D01*
X128668500Y-98346362D01*
X128668499Y-98346352D01*
X128668499Y-98346345D01*
X128664459Y-98308772D01*
X128661989Y-98285799D01*
X128657313Y-98273263D01*
X128639522Y-98225564D01*
X128610889Y-98148796D01*
X128523261Y-98031739D01*
X128406204Y-97944111D01*
X128403684Y-97943171D01*
X128269203Y-97893011D01*
X128208654Y-97886500D01*
X128208638Y-97886500D01*
X126411362Y-97886500D01*
X126411345Y-97886500D01*
X126343088Y-97893840D01*
X126342884Y-97891947D01*
X126283227Y-97888740D01*
X126226562Y-97847863D01*
X126200992Y-97782841D01*
X126200500Y-97771810D01*
X126200500Y-91677900D01*
X126220185Y-91610861D01*
X126272989Y-91565106D01*
X126342147Y-91555162D01*
X126400662Y-91580046D01*
G37*
%TD.AperFunction*%
%TA.AperFunction,Conductor*%
G36*
X131938703Y-104636017D02*
G01*
X131945179Y-104642047D01*
X133318655Y-106015524D01*
X133323996Y-106021614D01*
X133333927Y-106034556D01*
X133346010Y-106050304D01*
X133346011Y-106050305D01*
X133346013Y-106050307D01*
X133369829Y-106068582D01*
X133376284Y-106073535D01*
X133376308Y-106073555D01*
X133473123Y-106147843D01*
X133473125Y-106147845D01*
X133566466Y-106186507D01*
X133621150Y-106209158D01*
X133761519Y-106227637D01*
X133779999Y-106230071D01*
X133780000Y-106230071D01*
X133780001Y-106230071D01*
X133815853Y-106225351D01*
X133823954Y-106224820D01*
X143574734Y-106224820D01*
X143582831Y-106225350D01*
X143608207Y-106228691D01*
X143618679Y-106230070D01*
X143618680Y-106230070D01*
X143618681Y-106230070D01*
X143654526Y-106225351D01*
X143656641Y-106225072D01*
X143656654Y-106225071D01*
X143658561Y-106224820D01*
X143658565Y-106224820D01*
X143758136Y-106211711D01*
X143758136Y-106211712D01*
X143758140Y-106211710D01*
X143777531Y-106209158D01*
X143925556Y-106147844D01*
X144020752Y-106074797D01*
X144020753Y-106074795D01*
X144028844Y-106068587D01*
X144028846Y-106068584D01*
X144052667Y-106050307D01*
X144052668Y-106050304D01*
X144057905Y-106046287D01*
X144094033Y-106027075D01*
X145400529Y-105589834D01*
X145408812Y-105586904D01*
X145413680Y-105585087D01*
X145439691Y-105573222D01*
X145445254Y-105571003D01*
X145467574Y-105563342D01*
X145665576Y-105456189D01*
X145799338Y-105352076D01*
X145864331Y-105326434D01*
X145932871Y-105340000D01*
X145983196Y-105388468D01*
X145999500Y-105449930D01*
X145999500Y-109523258D01*
X145999402Y-109526735D01*
X145982407Y-109829367D01*
X145981628Y-109836281D01*
X145931147Y-110133383D01*
X145929599Y-110140167D01*
X145846170Y-110429756D01*
X145843872Y-110436323D01*
X145728548Y-110714742D01*
X145725529Y-110721011D01*
X145579753Y-110984771D01*
X145576051Y-110990663D01*
X145401662Y-111236441D01*
X145397324Y-111241882D01*
X145196511Y-111466591D01*
X145191591Y-111471511D01*
X144966882Y-111672324D01*
X144961441Y-111676662D01*
X144715663Y-111851051D01*
X144709771Y-111854753D01*
X144446011Y-112000529D01*
X144439742Y-112003548D01*
X144161323Y-112118872D01*
X144154756Y-112121170D01*
X143865167Y-112204599D01*
X143858383Y-112206147D01*
X143561281Y-112256628D01*
X143554367Y-112257407D01*
X143251735Y-112274402D01*
X143248258Y-112274500D01*
X142311217Y-112274500D01*
X142244178Y-112254815D01*
X142198423Y-112202011D01*
X142188479Y-112132853D01*
X142217504Y-112069297D01*
X142219988Y-112066516D01*
X142260722Y-112022268D01*
X142383860Y-111833791D01*
X142474296Y-111627616D01*
X142529564Y-111409368D01*
X142529565Y-111409359D01*
X142548156Y-111185005D01*
X142548156Y-111184994D01*
X142529565Y-110960640D01*
X142529563Y-110960628D01*
X142513799Y-110898377D01*
X142474296Y-110742384D01*
X142383860Y-110536209D01*
X142383032Y-110534942D01*
X142309604Y-110422552D01*
X142260722Y-110347732D01*
X142260719Y-110347729D01*
X142260715Y-110347723D01*
X142258210Y-110345002D01*
X142946751Y-110345002D01*
X142953807Y-110421158D01*
X142954001Y-110423927D01*
X142957791Y-110503470D01*
X142957792Y-110503475D01*
X142961555Y-110518986D01*
X142964521Y-110536774D01*
X142964911Y-110540986D01*
X142965706Y-110549559D01*
X142987541Y-110626305D01*
X142988152Y-110628621D01*
X143007701Y-110709201D01*
X143007702Y-110709206D01*
X143012891Y-110720568D01*
X143019359Y-110738134D01*
X143021922Y-110747141D01*
X143021928Y-110747158D01*
X143058940Y-110821487D01*
X143059838Y-110823367D01*
X143095641Y-110901765D01*
X143095647Y-110901776D01*
X143100879Y-110909123D01*
X143110868Y-110925771D01*
X143113497Y-110931050D01*
X143152157Y-110982244D01*
X143165512Y-110999929D01*
X143166526Y-111001310D01*
X143218441Y-111074215D01*
X143218443Y-111074217D01*
X143218444Y-111074218D01*
X143218445Y-111074219D01*
X143222459Y-111078047D01*
X143235837Y-111093057D01*
X143237292Y-111094983D01*
X143237295Y-111094987D01*
X143237298Y-111094989D01*
X143237299Y-111094991D01*
X143303536Y-111155374D01*
X143304530Y-111156301D01*
X143342921Y-111192906D01*
X143371654Y-111220303D01*
X143373398Y-111221424D01*
X143384519Y-111229970D01*
X143384544Y-111229938D01*
X143389119Y-111233393D01*
X143468571Y-111282588D01*
X143549747Y-111334757D01*
X143555000Y-111337465D01*
X143554966Y-111337529D01*
X143558488Y-111339308D01*
X143558650Y-111338984D01*
X143563773Y-111341534D01*
X143563782Y-111341540D01*
X143653782Y-111376405D01*
X143746278Y-111413436D01*
X143746279Y-111413436D01*
X143746517Y-111413482D01*
X143751752Y-111414729D01*
X143755337Y-111415748D01*
X143755345Y-111415751D01*
X143853229Y-111434048D01*
X143954151Y-111453500D01*
X143954156Y-111453500D01*
X144162716Y-111453500D01*
X144162718Y-111453500D01*
X144212132Y-111444262D01*
X144217575Y-111443494D01*
X144270739Y-111438419D01*
X144315668Y-111425225D01*
X144321720Y-111423776D01*
X144364655Y-111415751D01*
X144414560Y-111396417D01*
X144419487Y-111394743D01*
X144457603Y-111383550D01*
X144473862Y-111378777D01*
X144475294Y-111378039D01*
X144512542Y-111358835D01*
X144518550Y-111356131D01*
X144556218Y-111341540D01*
X144604526Y-111311627D01*
X144608748Y-111309236D01*
X144662026Y-111281771D01*
X144693656Y-111256896D01*
X144699336Y-111252923D01*
X144730882Y-111233392D01*
X144775310Y-111192889D01*
X144778721Y-111190000D01*
X144828432Y-111150908D01*
X144852627Y-111122984D01*
X144857708Y-111117774D01*
X144861499Y-111114318D01*
X144882701Y-111094991D01*
X144920893Y-111044414D01*
X144923514Y-111041177D01*
X144930812Y-111032755D01*
X144967065Y-110990918D01*
X144983897Y-110961761D01*
X144988111Y-110955403D01*
X145006503Y-110931050D01*
X145036221Y-110871366D01*
X145038022Y-110868014D01*
X145042077Y-110860990D01*
X145072913Y-110807582D01*
X145082846Y-110778881D01*
X145085925Y-110771547D01*
X145098074Y-110747152D01*
X145117224Y-110679842D01*
X145118248Y-110676593D01*
X145142153Y-110607527D01*
X145146006Y-110580722D01*
X145147738Y-110572597D01*
X145154294Y-110549559D01*
X145161051Y-110476636D01*
X145161416Y-110473550D01*
X145162218Y-110467974D01*
X145172281Y-110397984D01*
X145171149Y-110374236D01*
X145171342Y-110365564D01*
X145173249Y-110345000D01*
X145166191Y-110268839D01*
X145165996Y-110266067D01*
X145165648Y-110258767D01*
X145162208Y-110186526D01*
X145158441Y-110171002D01*
X145155478Y-110153229D01*
X145154294Y-110140441D01*
X145132449Y-110063666D01*
X145131843Y-110061364D01*
X145112298Y-109980796D01*
X145107107Y-109969430D01*
X145100636Y-109951853D01*
X145098076Y-109942856D01*
X145098074Y-109942848D01*
X145061043Y-109868482D01*
X145060149Y-109866607D01*
X145058837Y-109863735D01*
X145024356Y-109788229D01*
X145019121Y-109780877D01*
X145009129Y-109764224D01*
X145006503Y-109758950D01*
X145002930Y-109754219D01*
X144954487Y-109690070D01*
X144953460Y-109688670D01*
X144901558Y-109615784D01*
X144901554Y-109615780D01*
X144897546Y-109611958D01*
X144884153Y-109596931D01*
X144882708Y-109595018D01*
X144882704Y-109595013D01*
X144882701Y-109595009D01*
X144816418Y-109534585D01*
X144815468Y-109533698D01*
X144810638Y-109529093D01*
X144748346Y-109469697D01*
X144748343Y-109469694D01*
X144746601Y-109468575D01*
X144735480Y-109460029D01*
X144735456Y-109460062D01*
X144730877Y-109456604D01*
X144651442Y-109407420D01*
X144570258Y-109355246D01*
X144564999Y-109352535D01*
X144565032Y-109352470D01*
X144561512Y-109350692D01*
X144561351Y-109351016D01*
X144556222Y-109348462D01*
X144556218Y-109348460D01*
X144547916Y-109345244D01*
X144466235Y-109313601D01*
X144373722Y-109276564D01*
X144373714Y-109276562D01*
X144373470Y-109276515D01*
X144368257Y-109275273D01*
X144364658Y-109274249D01*
X144266677Y-109255933D01*
X144165850Y-109236500D01*
X144165849Y-109236500D01*
X144162718Y-109236500D01*
X143957282Y-109236500D01*
X143957276Y-109236500D01*
X143907885Y-109245732D01*
X143902386Y-109246507D01*
X143849265Y-109251580D01*
X143849261Y-109251580D01*
X143849261Y-109251581D01*
X143828952Y-109257544D01*
X143804348Y-109264768D01*
X143798271Y-109266224D01*
X143755351Y-109274247D01*
X143755338Y-109274250D01*
X143705438Y-109293582D01*
X143700509Y-109295257D01*
X143646140Y-109311222D01*
X143607459Y-109331162D01*
X143601445Y-109333868D01*
X143563781Y-109348460D01*
X143563780Y-109348460D01*
X143515474Y-109378370D01*
X143511245Y-109380764D01*
X143457977Y-109408226D01*
X143426354Y-109433094D01*
X143420665Y-109437073D01*
X143389116Y-109456609D01*
X143344708Y-109497091D01*
X143341266Y-109500006D01*
X143291565Y-109539093D01*
X143267377Y-109567006D01*
X143262290Y-109572224D01*
X143237301Y-109595006D01*
X143199111Y-109645576D01*
X143196491Y-109648813D01*
X143152936Y-109699079D01*
X143136104Y-109728233D01*
X143131884Y-109734601D01*
X143113496Y-109758951D01*
X143113491Y-109758960D01*
X143083781Y-109818622D01*
X143081976Y-109821985D01*
X143047088Y-109882415D01*
X143037158Y-109911103D01*
X143034067Y-109918463D01*
X143021928Y-109942842D01*
X143021923Y-109942856D01*
X143002782Y-110010128D01*
X143001739Y-110013437D01*
X142977846Y-110082475D01*
X142973994Y-110109258D01*
X142972258Y-110117404D01*
X142965706Y-110140437D01*
X142958949Y-110213351D01*
X142958582Y-110216453D01*
X142947719Y-110292010D01*
X142947719Y-110292015D01*
X142948850Y-110315765D01*
X142948656Y-110324435D01*
X142947555Y-110336323D01*
X142946751Y-110345002D01*
X142258210Y-110345002D01*
X142108243Y-110182097D01*
X142108238Y-110182092D01*
X141967403Y-110072475D01*
X141930576Y-110043811D01*
X141930575Y-110043810D01*
X141930572Y-110043808D01*
X141732580Y-109936661D01*
X141732577Y-109936659D01*
X141732574Y-109936658D01*
X141732571Y-109936657D01*
X141732569Y-109936656D01*
X141519637Y-109863556D01*
X141297569Y-109826500D01*
X141072431Y-109826500D01*
X140850362Y-109863556D01*
X140637430Y-109936656D01*
X140637419Y-109936661D01*
X140439427Y-110043808D01*
X140439422Y-110043812D01*
X140261761Y-110182092D01*
X140261756Y-110182097D01*
X140109284Y-110347723D01*
X140109276Y-110347734D01*
X140018808Y-110486206D01*
X139965662Y-110531562D01*
X139896431Y-110540986D01*
X139833095Y-110511484D01*
X139811192Y-110486206D01*
X139729527Y-110361209D01*
X139720722Y-110347732D01*
X139720719Y-110347729D01*
X139720715Y-110347723D01*
X139568243Y-110182097D01*
X139568238Y-110182092D01*
X139427403Y-110072475D01*
X139390576Y-110043811D01*
X139390575Y-110043810D01*
X139390572Y-110043808D01*
X139192580Y-109936661D01*
X139192577Y-109936659D01*
X139192574Y-109936658D01*
X139192571Y-109936657D01*
X139192569Y-109936656D01*
X138979637Y-109863556D01*
X138757569Y-109826500D01*
X138532431Y-109826500D01*
X138310362Y-109863556D01*
X138097430Y-109936656D01*
X138097419Y-109936661D01*
X137899427Y-110043808D01*
X137899422Y-110043812D01*
X137721761Y-110182092D01*
X137721756Y-110182097D01*
X137569284Y-110347723D01*
X137569276Y-110347734D01*
X137475251Y-110491650D01*
X137422105Y-110537007D01*
X137352873Y-110546430D01*
X137289538Y-110516928D01*
X137269868Y-110494951D01*
X137143113Y-110313926D01*
X137143108Y-110313920D01*
X136976082Y-110146894D01*
X136782578Y-110011399D01*
X136568492Y-109911570D01*
X136568486Y-109911567D01*
X136355000Y-109854364D01*
X136355000Y-110749498D01*
X136247315Y-110700320D01*
X136140763Y-110685000D01*
X136069237Y-110685000D01*
X135962685Y-110700320D01*
X135855000Y-110749498D01*
X135855000Y-109854364D01*
X135854999Y-109854364D01*
X135641513Y-109911567D01*
X135641507Y-109911570D01*
X135427422Y-110011399D01*
X135427420Y-110011400D01*
X135233926Y-110146886D01*
X135233920Y-110146891D01*
X135066891Y-110313920D01*
X135066890Y-110313922D01*
X134940131Y-110494952D01*
X134885554Y-110538577D01*
X134816055Y-110545769D01*
X134753701Y-110514247D01*
X134734752Y-110491656D01*
X134640722Y-110347732D01*
X134640715Y-110347725D01*
X134640715Y-110347723D01*
X134488243Y-110182097D01*
X134488238Y-110182092D01*
X134347403Y-110072475D01*
X134310576Y-110043811D01*
X134310575Y-110043810D01*
X134310572Y-110043808D01*
X134112580Y-109936661D01*
X134112577Y-109936659D01*
X134112574Y-109936658D01*
X134112571Y-109936657D01*
X134112569Y-109936656D01*
X133899637Y-109863556D01*
X133677569Y-109826500D01*
X133452431Y-109826500D01*
X133230362Y-109863556D01*
X133017430Y-109936656D01*
X133017419Y-109936661D01*
X132819427Y-110043808D01*
X132819422Y-110043812D01*
X132641761Y-110182092D01*
X132641755Y-110182098D01*
X132578546Y-110250760D01*
X132518659Y-110286750D01*
X132448821Y-110284649D01*
X132391205Y-110245124D01*
X132371140Y-110210118D01*
X132362665Y-110187397D01*
X132361801Y-110184919D01*
X132348040Y-110142497D01*
X132346313Y-110139411D01*
X132338351Y-110122207D01*
X132325891Y-110088800D01*
X132325888Y-110088795D01*
X132297126Y-110050373D01*
X132292660Y-110043502D01*
X132276684Y-110014942D01*
X132227703Y-109950890D01*
X131759000Y-109337971D01*
X131733913Y-109272760D01*
X131733500Y-109262647D01*
X131733500Y-104729730D01*
X131753185Y-104662691D01*
X131805989Y-104616936D01*
X131875147Y-104606992D01*
X131938703Y-104636017D01*
G37*
%TD.AperFunction*%
%TA.AperFunction,Conductor*%
G36*
X159512504Y-79135185D02*
G01*
X159558259Y-79187989D01*
X159568203Y-79257147D01*
X159539178Y-79320703D01*
X159530897Y-79329374D01*
X159402331Y-79451584D01*
X159402330Y-79451586D01*
X159286143Y-79618515D01*
X159205940Y-79805412D01*
X159165000Y-80004629D01*
X159165000Y-80306320D01*
X159865000Y-80306320D01*
X159865000Y-80806320D01*
X159165000Y-80806320D01*
X159165000Y-81057033D01*
X159180418Y-81208658D01*
X159241299Y-81402701D01*
X159241304Y-81402711D01*
X159340005Y-81580535D01*
X159340005Y-81580536D01*
X159472478Y-81734850D01*
X159472479Y-81734851D01*
X159633304Y-81859338D01*
X159815907Y-81948909D01*
X159915000Y-81974564D01*
X159915000Y-81172430D01*
X159939457Y-81211930D01*
X160028962Y-81279521D01*
X160136840Y-81310215D01*
X160248521Y-81299866D01*
X160348922Y-81249872D01*
X160415000Y-81177389D01*
X160415000Y-81979686D01*
X160416944Y-81979389D01*
X160416945Y-81979389D01*
X160607660Y-81908756D01*
X160607664Y-81908754D01*
X160780267Y-81801170D01*
X160927668Y-81661055D01*
X160927669Y-81661053D01*
X161043856Y-81494124D01*
X161124059Y-81307227D01*
X161165000Y-81108010D01*
X161165000Y-80806320D01*
X160465000Y-80806320D01*
X160465000Y-80306320D01*
X161165000Y-80306320D01*
X161165000Y-80055606D01*
X161149581Y-79903981D01*
X161088700Y-79709938D01*
X161088695Y-79709928D01*
X160989994Y-79532104D01*
X160989994Y-79532103D01*
X160857521Y-79377789D01*
X160857519Y-79377788D01*
X160805544Y-79337556D01*
X160764580Y-79280955D01*
X160760720Y-79211192D01*
X160795189Y-79150416D01*
X160857044Y-79117925D01*
X160881445Y-79115500D01*
X168095465Y-79115500D01*
X168162504Y-79135185D01*
X168208259Y-79187989D01*
X168218203Y-79257147D01*
X168189178Y-79320703D01*
X168180897Y-79329374D01*
X168052331Y-79451584D01*
X168052330Y-79451586D01*
X167936143Y-79618515D01*
X167855940Y-79805412D01*
X167815000Y-80004629D01*
X167815000Y-80306320D01*
X168515000Y-80306320D01*
X168515000Y-80806320D01*
X167815000Y-80806320D01*
X167815000Y-81057033D01*
X167830418Y-81208658D01*
X167891299Y-81402701D01*
X167891304Y-81402711D01*
X167990005Y-81580535D01*
X167990005Y-81580536D01*
X168122478Y-81734850D01*
X168122479Y-81734851D01*
X168283304Y-81859338D01*
X168465907Y-81948909D01*
X168565000Y-81974564D01*
X168565000Y-81172430D01*
X168589457Y-81211930D01*
X168678962Y-81279521D01*
X168786840Y-81310215D01*
X168898521Y-81299866D01*
X168998922Y-81249872D01*
X169065000Y-81177389D01*
X169065000Y-81979686D01*
X169066944Y-81979389D01*
X169066945Y-81979389D01*
X169257660Y-81908756D01*
X169257664Y-81908754D01*
X169430267Y-81801170D01*
X169577668Y-81661055D01*
X169577669Y-81661053D01*
X169693856Y-81494124D01*
X169774059Y-81307227D01*
X169815000Y-81108010D01*
X169815000Y-81046323D01*
X171346751Y-81046323D01*
X171353807Y-81122478D01*
X171354001Y-81125247D01*
X171357791Y-81204790D01*
X171357792Y-81204795D01*
X171361555Y-81220306D01*
X171364521Y-81238094D01*
X171365706Y-81250879D01*
X171387541Y-81327625D01*
X171388152Y-81329941D01*
X171407701Y-81410521D01*
X171407702Y-81410526D01*
X171412891Y-81421888D01*
X171419359Y-81439454D01*
X171421922Y-81448461D01*
X171421928Y-81448478D01*
X171458940Y-81522807D01*
X171459838Y-81524687D01*
X171495641Y-81603085D01*
X171495647Y-81603096D01*
X171500879Y-81610443D01*
X171510868Y-81627091D01*
X171513497Y-81632370D01*
X171538437Y-81665396D01*
X171565512Y-81701249D01*
X171566526Y-81702630D01*
X171618441Y-81775535D01*
X171618443Y-81775537D01*
X171618444Y-81775538D01*
X171618445Y-81775539D01*
X171622459Y-81779367D01*
X171635837Y-81794377D01*
X171637292Y-81796303D01*
X171637295Y-81796307D01*
X171637298Y-81796309D01*
X171637299Y-81796311D01*
X171703536Y-81856694D01*
X171704530Y-81857621D01*
X171742921Y-81894226D01*
X171771654Y-81921623D01*
X171773398Y-81922744D01*
X171784519Y-81931290D01*
X171784544Y-81931258D01*
X171789119Y-81934713D01*
X171868571Y-81983908D01*
X171949747Y-82036077D01*
X171955000Y-82038785D01*
X171954966Y-82038849D01*
X171958488Y-82040628D01*
X171958650Y-82040304D01*
X171963773Y-82042854D01*
X171963782Y-82042860D01*
X172053782Y-82077725D01*
X172128752Y-82107739D01*
X172146279Y-82114756D01*
X172146517Y-82114802D01*
X172151752Y-82116049D01*
X172155337Y-82117068D01*
X172155345Y-82117071D01*
X172253229Y-82135368D01*
X172354151Y-82154820D01*
X172354156Y-82154820D01*
X172562716Y-82154820D01*
X172562718Y-82154820D01*
X172612132Y-82145582D01*
X172617575Y-82144814D01*
X172670739Y-82139739D01*
X172715668Y-82126545D01*
X172721720Y-82125096D01*
X172764655Y-82117071D01*
X172814560Y-82097737D01*
X172819487Y-82096063D01*
X172857603Y-82084870D01*
X172873862Y-82080097D01*
X172878444Y-82077735D01*
X172912542Y-82060155D01*
X172918550Y-82057451D01*
X172956218Y-82042860D01*
X173004526Y-82012947D01*
X173008748Y-82010556D01*
X173062026Y-81983091D01*
X173093656Y-81958216D01*
X173099336Y-81954243D01*
X173130882Y-81934712D01*
X173175310Y-81894209D01*
X173178721Y-81891320D01*
X173228432Y-81852228D01*
X173252627Y-81824304D01*
X173257708Y-81819094D01*
X173282701Y-81796311D01*
X173320893Y-81745734D01*
X173323514Y-81742497D01*
X173367065Y-81692238D01*
X173383897Y-81663081D01*
X173388111Y-81656723D01*
X173406503Y-81632370D01*
X173436221Y-81572686D01*
X173438022Y-81569334D01*
X173472913Y-81508902D01*
X173482846Y-81480201D01*
X173485925Y-81472867D01*
X173498074Y-81448472D01*
X173517224Y-81381162D01*
X173518248Y-81377913D01*
X173542153Y-81308847D01*
X173546006Y-81282042D01*
X173547738Y-81273917D01*
X173554294Y-81250879D01*
X173561051Y-81177956D01*
X173561416Y-81174870D01*
X173567311Y-81133872D01*
X173572281Y-81099304D01*
X173571149Y-81075556D01*
X173571342Y-81066884D01*
X173573249Y-81046320D01*
X173566191Y-80970159D01*
X173565996Y-80967387D01*
X173565496Y-80956898D01*
X173562208Y-80887846D01*
X173558441Y-80872322D01*
X173555478Y-80854549D01*
X173554294Y-80841761D01*
X173532449Y-80764986D01*
X173531843Y-80762684D01*
X173522244Y-80723116D01*
X173512298Y-80682116D01*
X173507107Y-80670750D01*
X173500636Y-80653173D01*
X173498076Y-80644176D01*
X173498074Y-80644168D01*
X173461043Y-80569802D01*
X173460149Y-80567927D01*
X173442199Y-80528622D01*
X173424356Y-80489549D01*
X173420591Y-80484262D01*
X173419121Y-80482197D01*
X173409129Y-80465544D01*
X173406503Y-80460270D01*
X173389861Y-80438233D01*
X173354487Y-80391390D01*
X173353460Y-80389990D01*
X173307736Y-80325780D01*
X173301559Y-80317105D01*
X173301554Y-80317100D01*
X173297546Y-80313278D01*
X173284153Y-80298251D01*
X173282708Y-80296338D01*
X173282704Y-80296333D01*
X173282701Y-80296329D01*
X173216418Y-80235905D01*
X173215468Y-80235018D01*
X173148343Y-80171014D01*
X173146601Y-80169895D01*
X173135480Y-80161349D01*
X173135456Y-80161382D01*
X173130877Y-80157924D01*
X173051442Y-80108740D01*
X172970258Y-80056566D01*
X172964999Y-80053855D01*
X172965032Y-80053790D01*
X172961512Y-80052012D01*
X172961351Y-80052336D01*
X172956222Y-80049782D01*
X172956218Y-80049780D01*
X172944364Y-80045188D01*
X172866235Y-80014921D01*
X172773722Y-79977884D01*
X172773714Y-79977882D01*
X172773470Y-79977835D01*
X172768257Y-79976593D01*
X172764658Y-79975569D01*
X172666677Y-79957253D01*
X172565850Y-79937820D01*
X172565849Y-79937820D01*
X172562718Y-79937820D01*
X172357282Y-79937820D01*
X172357276Y-79937820D01*
X172307885Y-79947052D01*
X172302386Y-79947827D01*
X172249265Y-79952900D01*
X172249261Y-79952900D01*
X172249261Y-79952901D01*
X172234439Y-79957253D01*
X172204348Y-79966088D01*
X172198271Y-79967544D01*
X172155351Y-79975567D01*
X172155338Y-79975570D01*
X172105438Y-79994902D01*
X172100509Y-79996577D01*
X172046140Y-80012542D01*
X172007459Y-80032482D01*
X172001445Y-80035188D01*
X171963781Y-80049780D01*
X171963780Y-80049780D01*
X171915474Y-80079690D01*
X171911245Y-80082084D01*
X171857977Y-80109546D01*
X171826354Y-80134414D01*
X171820665Y-80138393D01*
X171789116Y-80157929D01*
X171744708Y-80198411D01*
X171741266Y-80201326D01*
X171691565Y-80240413D01*
X171667377Y-80268326D01*
X171662290Y-80273544D01*
X171637301Y-80296326D01*
X171599111Y-80346896D01*
X171596491Y-80350133D01*
X171552936Y-80400399D01*
X171536104Y-80429553D01*
X171531884Y-80435921D01*
X171513496Y-80460271D01*
X171513491Y-80460280D01*
X171483781Y-80519942D01*
X171481976Y-80523305D01*
X171447088Y-80583735D01*
X171437158Y-80612423D01*
X171434067Y-80619783D01*
X171421928Y-80644162D01*
X171421923Y-80644176D01*
X171402782Y-80711448D01*
X171401739Y-80714757D01*
X171377846Y-80783795D01*
X171373994Y-80810578D01*
X171372258Y-80818724D01*
X171365706Y-80841757D01*
X171358949Y-80914671D01*
X171358582Y-80917773D01*
X171347719Y-80993330D01*
X171347719Y-80993335D01*
X171348849Y-81017089D01*
X171348655Y-81025765D01*
X171346751Y-81046323D01*
X169815000Y-81046323D01*
X169815000Y-80806320D01*
X169115000Y-80806320D01*
X169115000Y-80306320D01*
X169815000Y-80306320D01*
X169815000Y-80055606D01*
X169799581Y-79903981D01*
X169738700Y-79709938D01*
X169738695Y-79709928D01*
X169639994Y-79532104D01*
X169639994Y-79532103D01*
X169507521Y-79377789D01*
X169507519Y-79377788D01*
X169455544Y-79337556D01*
X169414580Y-79280955D01*
X169410720Y-79211192D01*
X169445189Y-79150416D01*
X169507044Y-79117925D01*
X169531445Y-79115500D01*
X171605830Y-79115500D01*
X171648258Y-79115500D01*
X171651735Y-79115598D01*
X171802467Y-79124062D01*
X171954376Y-79132593D01*
X171961269Y-79133369D01*
X172202899Y-79174424D01*
X172258383Y-79183852D01*
X172265167Y-79185400D01*
X172554756Y-79268829D01*
X172561320Y-79271126D01*
X172839754Y-79386456D01*
X172846002Y-79389466D01*
X173034070Y-79493407D01*
X173109771Y-79535246D01*
X173115663Y-79538948D01*
X173361441Y-79713337D01*
X173366882Y-79717675D01*
X173591591Y-79918488D01*
X173596511Y-79923408D01*
X173797324Y-80148117D01*
X173801662Y-80153558D01*
X173976051Y-80399336D01*
X173979753Y-80405228D01*
X174075003Y-80577568D01*
X174121585Y-80661853D01*
X174125529Y-80668988D01*
X174128546Y-80675253D01*
X174168841Y-80772534D01*
X174243872Y-80953676D01*
X174246170Y-80960243D01*
X174329599Y-81249832D01*
X174331147Y-81256616D01*
X174381628Y-81553718D01*
X174382407Y-81560632D01*
X174399402Y-81863263D01*
X174399500Y-81866740D01*
X174399500Y-89821504D01*
X174379815Y-89888543D01*
X174327011Y-89934298D01*
X174257853Y-89944242D01*
X174232165Y-89937685D01*
X174139203Y-89903011D01*
X174078654Y-89896500D01*
X174078638Y-89896500D01*
X172281362Y-89896500D01*
X172281345Y-89896500D01*
X172220797Y-89903011D01*
X172220795Y-89903011D01*
X172083795Y-89954111D01*
X171966739Y-90041739D01*
X171879111Y-90158795D01*
X171868681Y-90186759D01*
X171826809Y-90242692D01*
X171761344Y-90267108D01*
X171693072Y-90252255D01*
X171643667Y-90202849D01*
X171628500Y-90143424D01*
X171628500Y-88674489D01*
X171630914Y-88650141D01*
X171666906Y-88470411D01*
X171702592Y-88292212D01*
X171702617Y-88292084D01*
X171703139Y-88289478D01*
X171705408Y-88281183D01*
X171714162Y-88256170D01*
X171714162Y-88256169D01*
X171714163Y-88256167D01*
X171733299Y-88086323D01*
X171733299Y-88086316D01*
X171714163Y-87916475D01*
X171714162Y-87916470D01*
X171672067Y-87796170D01*
X171657709Y-87755137D01*
X171566771Y-87610411D01*
X171445909Y-87489549D01*
X171445908Y-87489548D01*
X171301183Y-87398611D01*
X171139849Y-87342157D01*
X171139844Y-87342156D01*
X170970004Y-87323021D01*
X170969996Y-87323021D01*
X170800155Y-87342156D01*
X170800150Y-87342157D01*
X170638816Y-87398611D01*
X170494091Y-87489548D01*
X170373228Y-87610411D01*
X170282291Y-87755136D01*
X170225837Y-87916470D01*
X170225836Y-87916475D01*
X170206701Y-88086316D01*
X170206701Y-88086323D01*
X170225836Y-88256162D01*
X170225838Y-88256170D01*
X170234584Y-88281165D01*
X170236859Y-88289477D01*
X170273093Y-88470411D01*
X170309085Y-88650141D01*
X170309086Y-88650143D01*
X170311500Y-88674492D01*
X170311499Y-91492197D01*
X170291814Y-91559236D01*
X170275180Y-91579878D01*
X169043559Y-92811501D01*
X168982236Y-92844986D01*
X168955878Y-92847820D01*
X162751756Y-92847820D01*
X162715445Y-92842384D01*
X162234490Y-92695089D01*
X162234467Y-92695082D01*
X162232154Y-92694446D01*
X162228249Y-92693373D01*
X162210684Y-92687090D01*
X162206758Y-92685342D01*
X162206750Y-92685339D01*
X162077878Y-92657947D01*
X162030232Y-92647820D01*
X161849768Y-92647820D01*
X161843323Y-92649190D01*
X161673248Y-92685339D01*
X161673242Y-92685341D01*
X161508386Y-92758741D01*
X161508381Y-92758744D01*
X161362388Y-92864814D01*
X161362381Y-92864820D01*
X161241632Y-92998928D01*
X161151400Y-93155214D01*
X161095635Y-93326843D01*
X161083510Y-93442205D01*
X161076771Y-93506320D01*
X161095635Y-93685795D01*
X161121004Y-93763876D01*
X161121794Y-93766305D01*
X161126386Y-93785547D01*
X161128755Y-93800765D01*
X161276064Y-94281766D01*
X161281500Y-94318077D01*
X161281500Y-100914562D01*
X161276064Y-100950873D01*
X161128762Y-101431852D01*
X161128759Y-101431862D01*
X161120862Y-101460605D01*
X161119895Y-101465852D01*
X161119639Y-101465804D01*
X161115489Y-101485739D01*
X161095635Y-101546843D01*
X161095635Y-101546844D01*
X161095635Y-101546845D01*
X161076771Y-101726320D01*
X161095635Y-101905795D01*
X161095636Y-101905798D01*
X161129261Y-102009286D01*
X161131097Y-102016313D01*
X161136194Y-102041848D01*
X161136195Y-102041853D01*
X161136197Y-102041858D01*
X161299409Y-102503527D01*
X161306500Y-102544857D01*
X161306500Y-109333998D01*
X161295062Y-109386016D01*
X160959831Y-110111419D01*
X160913839Y-110164017D01*
X160846711Y-110183400D01*
X160779761Y-110163414D01*
X160734244Y-110110405D01*
X160731095Y-110102756D01*
X160725889Y-110088796D01*
X160725885Y-110088791D01*
X160713671Y-110072475D01*
X160697126Y-110050373D01*
X160692660Y-110043502D01*
X160676684Y-110014942D01*
X160627703Y-109950890D01*
X160159000Y-109337971D01*
X160133913Y-109272760D01*
X160133500Y-109262647D01*
X160133500Y-92874598D01*
X160133613Y-92870854D01*
X160137401Y-92808227D01*
X160126091Y-92746510D01*
X160125527Y-92742804D01*
X160118763Y-92687090D01*
X160117965Y-92680519D01*
X160114283Y-92670812D01*
X160108258Y-92649200D01*
X160106388Y-92638990D01*
X160088762Y-92599827D01*
X160080635Y-92581768D01*
X160079201Y-92578307D01*
X160056953Y-92519643D01*
X160051058Y-92511103D01*
X160040035Y-92491559D01*
X160035775Y-92482094D01*
X159997064Y-92432684D01*
X159994854Y-92429679D01*
X159959216Y-92378049D01*
X159959215Y-92378047D01*
X159912253Y-92336442D01*
X159909542Y-92333891D01*
X158100729Y-90525079D01*
X158084071Y-90504400D01*
X158059618Y-90466320D01*
X157800716Y-90063130D01*
X157796030Y-90055965D01*
X157796027Y-90055961D01*
X157796024Y-90055957D01*
X157791910Y-90050599D01*
X157787387Y-90043833D01*
X157782962Y-90036169D01*
X157738367Y-89958927D01*
X157716191Y-89934298D01*
X157617618Y-89824820D01*
X157617615Y-89824818D01*
X157617614Y-89824817D01*
X157617613Y-89824816D01*
X157494661Y-89735486D01*
X157471614Y-89718741D01*
X157306757Y-89645341D01*
X157306751Y-89645339D01*
X157167751Y-89615794D01*
X157130232Y-89607820D01*
X156949768Y-89607820D01*
X156918825Y-89614396D01*
X156773248Y-89645339D01*
X156773242Y-89645341D01*
X156608386Y-89718741D01*
X156608381Y-89718744D01*
X156462388Y-89824814D01*
X156462381Y-89824820D01*
X156341632Y-89958928D01*
X156251400Y-90115214D01*
X156195635Y-90286843D01*
X156195634Y-90286845D01*
X156195635Y-90286845D01*
X156176771Y-90466320D01*
X156181955Y-90515637D01*
X156195635Y-90645796D01*
X156234661Y-90765908D01*
X156251401Y-90817427D01*
X156341633Y-90973713D01*
X156383696Y-91020428D01*
X156462381Y-91107819D01*
X156462384Y-91107821D01*
X156462387Y-91107824D01*
X156608385Y-91213898D01*
X156623888Y-91220800D01*
X156625742Y-91221626D01*
X156642303Y-91230564D01*
X157078080Y-91510391D01*
X157098760Y-91527050D01*
X158680182Y-93108472D01*
X158713666Y-93169793D01*
X158716500Y-93196151D01*
X158716500Y-109262644D01*
X158696815Y-109329683D01*
X158691000Y-109337968D01*
X158173309Y-110014949D01*
X158160989Y-110031757D01*
X158153625Y-110046275D01*
X158142308Y-110064486D01*
X158124113Y-110088791D01*
X158124110Y-110088796D01*
X158103263Y-110144687D01*
X158100466Y-110151067D01*
X158094871Y-110162097D01*
X158094867Y-110162108D01*
X158092465Y-110169195D01*
X158092465Y-110169196D01*
X158089535Y-110180535D01*
X158087598Y-110186688D01*
X158073010Y-110225800D01*
X158066500Y-110286345D01*
X158066500Y-112083654D01*
X158072263Y-112137244D01*
X158059859Y-112206003D01*
X158012249Y-112257141D01*
X157948974Y-112274500D01*
X157351742Y-112274500D01*
X157348265Y-112274402D01*
X157045632Y-112257407D01*
X157038718Y-112256628D01*
X156741616Y-112206147D01*
X156734832Y-112204599D01*
X156445243Y-112121170D01*
X156438676Y-112118872D01*
X156205454Y-112022269D01*
X156160253Y-112003546D01*
X156153988Y-112000529D01*
X155890228Y-111854753D01*
X155884336Y-111851051D01*
X155638558Y-111676662D01*
X155633117Y-111672324D01*
X155408408Y-111471511D01*
X155403488Y-111466591D01*
X155202675Y-111241882D01*
X155198337Y-111236441D01*
X155023948Y-110990663D01*
X155020246Y-110984771D01*
X154957577Y-110871380D01*
X154874466Y-110721002D01*
X154871456Y-110714754D01*
X154756126Y-110436320D01*
X154753829Y-110429756D01*
X154739293Y-110379302D01*
X154726911Y-110336323D01*
X155416751Y-110336323D01*
X155423807Y-110412478D01*
X155424001Y-110415247D01*
X155427791Y-110494790D01*
X155427792Y-110494795D01*
X155431555Y-110510306D01*
X155434521Y-110528094D01*
X155435706Y-110540879D01*
X155457541Y-110617625D01*
X155458152Y-110619941D01*
X155477701Y-110700521D01*
X155477702Y-110700526D01*
X155482891Y-110711888D01*
X155489359Y-110729454D01*
X155491922Y-110738461D01*
X155491928Y-110738478D01*
X155528940Y-110812807D01*
X155529838Y-110814687D01*
X155565641Y-110893085D01*
X155565647Y-110893096D01*
X155570879Y-110900443D01*
X155580868Y-110917091D01*
X155583497Y-110922370D01*
X155608437Y-110955396D01*
X155635512Y-110991249D01*
X155636526Y-110992630D01*
X155688441Y-111065535D01*
X155688443Y-111065537D01*
X155688444Y-111065538D01*
X155688445Y-111065539D01*
X155692459Y-111069367D01*
X155705837Y-111084377D01*
X155707292Y-111086303D01*
X155707295Y-111086307D01*
X155707298Y-111086309D01*
X155707299Y-111086311D01*
X155773536Y-111146694D01*
X155774530Y-111147621D01*
X155813738Y-111185005D01*
X155841654Y-111211623D01*
X155843398Y-111212744D01*
X155854519Y-111221290D01*
X155854544Y-111221258D01*
X155859119Y-111224713D01*
X155938571Y-111273908D01*
X156019747Y-111326077D01*
X156025000Y-111328785D01*
X156024966Y-111328849D01*
X156028488Y-111330628D01*
X156028650Y-111330304D01*
X156033773Y-111332854D01*
X156033782Y-111332860D01*
X156123782Y-111367725D01*
X156212982Y-111403436D01*
X156216279Y-111404756D01*
X156216517Y-111404802D01*
X156221752Y-111406049D01*
X156225337Y-111407068D01*
X156225345Y-111407071D01*
X156323229Y-111425368D01*
X156424151Y-111444820D01*
X156424156Y-111444820D01*
X156632716Y-111444820D01*
X156632718Y-111444820D01*
X156682132Y-111435582D01*
X156687575Y-111434814D01*
X156740739Y-111429739D01*
X156785668Y-111416545D01*
X156791720Y-111415096D01*
X156834655Y-111407071D01*
X156884560Y-111387737D01*
X156889487Y-111386063D01*
X156927603Y-111374870D01*
X156943862Y-111370097D01*
X156948444Y-111367735D01*
X156982542Y-111350155D01*
X156988550Y-111347451D01*
X157026218Y-111332860D01*
X157074526Y-111302947D01*
X157078748Y-111300556D01*
X157132026Y-111273091D01*
X157163656Y-111248216D01*
X157169336Y-111244243D01*
X157200882Y-111224712D01*
X157245310Y-111184209D01*
X157248721Y-111181320D01*
X157298432Y-111142228D01*
X157322627Y-111114304D01*
X157327708Y-111109094D01*
X157329156Y-111107774D01*
X157352701Y-111086311D01*
X157390893Y-111035734D01*
X157393514Y-111032497D01*
X157400812Y-111024075D01*
X157437065Y-110982238D01*
X157453897Y-110953081D01*
X157458111Y-110946723D01*
X157476503Y-110922370D01*
X157506221Y-110862686D01*
X157508022Y-110859334D01*
X157511852Y-110852700D01*
X157542913Y-110798902D01*
X157552846Y-110770201D01*
X157555925Y-110762867D01*
X157568074Y-110738472D01*
X157587224Y-110671162D01*
X157588248Y-110667913D01*
X157612153Y-110598847D01*
X157616006Y-110572042D01*
X157617738Y-110563917D01*
X157624294Y-110540879D01*
X157631051Y-110467956D01*
X157631416Y-110464870D01*
X157631606Y-110463550D01*
X157642281Y-110389304D01*
X157641149Y-110365556D01*
X157641342Y-110356884D01*
X157643249Y-110336320D01*
X157636191Y-110260159D01*
X157635996Y-110257387D01*
X157635680Y-110250760D01*
X157632208Y-110177846D01*
X157628441Y-110162322D01*
X157625478Y-110144549D01*
X157624294Y-110131761D01*
X157602449Y-110054986D01*
X157601843Y-110052684D01*
X157600288Y-110046275D01*
X157582298Y-109972116D01*
X157577107Y-109960750D01*
X157570636Y-109943173D01*
X157568782Y-109936658D01*
X157568074Y-109934168D01*
X157531043Y-109859802D01*
X157530149Y-109857927D01*
X157517106Y-109829367D01*
X157494356Y-109779549D01*
X157489651Y-109772942D01*
X157489121Y-109772197D01*
X157479129Y-109755544D01*
X157476503Y-109750270D01*
X157472930Y-109745539D01*
X157424487Y-109681390D01*
X157423460Y-109679990D01*
X157371558Y-109607104D01*
X157371554Y-109607100D01*
X157367546Y-109603278D01*
X157354153Y-109588251D01*
X157352708Y-109586338D01*
X157352704Y-109586333D01*
X157352701Y-109586329D01*
X157286418Y-109525905D01*
X157285468Y-109525018D01*
X157284574Y-109524166D01*
X157218346Y-109461017D01*
X157218343Y-109461014D01*
X157216601Y-109459895D01*
X157205480Y-109451349D01*
X157205456Y-109451382D01*
X157200877Y-109447924D01*
X157121442Y-109398740D01*
X157040258Y-109346566D01*
X157034999Y-109343855D01*
X157035032Y-109343790D01*
X157031512Y-109342012D01*
X157031351Y-109342336D01*
X157026222Y-109339782D01*
X157026218Y-109339780D01*
X157022805Y-109338458D01*
X156936235Y-109304921D01*
X156843722Y-109267884D01*
X156843714Y-109267882D01*
X156843470Y-109267835D01*
X156838257Y-109266593D01*
X156834658Y-109265569D01*
X156736677Y-109247253D01*
X156635850Y-109227820D01*
X156635849Y-109227820D01*
X156632718Y-109227820D01*
X156427282Y-109227820D01*
X156427276Y-109227820D01*
X156377885Y-109237052D01*
X156372386Y-109237827D01*
X156319265Y-109242900D01*
X156319261Y-109242900D01*
X156319261Y-109242901D01*
X156308407Y-109246088D01*
X156274348Y-109256088D01*
X156268271Y-109257544D01*
X156225351Y-109265567D01*
X156225338Y-109265570D01*
X156175438Y-109284902D01*
X156170509Y-109286577D01*
X156116140Y-109302542D01*
X156077459Y-109322482D01*
X156071445Y-109325188D01*
X156033781Y-109339780D01*
X156033780Y-109339780D01*
X155985474Y-109369690D01*
X155981245Y-109372084D01*
X155927977Y-109399546D01*
X155896354Y-109424414D01*
X155890665Y-109428393D01*
X155859116Y-109447929D01*
X155814708Y-109488411D01*
X155811266Y-109491326D01*
X155761565Y-109530413D01*
X155737377Y-109558326D01*
X155732290Y-109563544D01*
X155707301Y-109586326D01*
X155669111Y-109636896D01*
X155666491Y-109640133D01*
X155622936Y-109690399D01*
X155606104Y-109719553D01*
X155601884Y-109725921D01*
X155583496Y-109750271D01*
X155583491Y-109750280D01*
X155553781Y-109809942D01*
X155551976Y-109813305D01*
X155517088Y-109873735D01*
X155507158Y-109902423D01*
X155504067Y-109909783D01*
X155491928Y-109934162D01*
X155491923Y-109934176D01*
X155472782Y-110001448D01*
X155471739Y-110004757D01*
X155447846Y-110073795D01*
X155443994Y-110100578D01*
X155442258Y-110108724D01*
X155435706Y-110131757D01*
X155428949Y-110204671D01*
X155428582Y-110207773D01*
X155417719Y-110283330D01*
X155417719Y-110283335D01*
X155418849Y-110307089D01*
X155418655Y-110315765D01*
X155416874Y-110335000D01*
X155416751Y-110336323D01*
X154726911Y-110336323D01*
X154682931Y-110183663D01*
X154670400Y-110140167D01*
X154668852Y-110133383D01*
X154653632Y-110043808D01*
X154618369Y-109836269D01*
X154617593Y-109829376D01*
X154608721Y-109671390D01*
X154600598Y-109526735D01*
X154600500Y-109523258D01*
X154600500Y-102597950D01*
X154620185Y-102530911D01*
X154672989Y-102485156D01*
X154742147Y-102475212D01*
X154800662Y-102500097D01*
X154858169Y-102544857D01*
X154874420Y-102557506D01*
X154874427Y-102557511D01*
X154994103Y-102622276D01*
X155072426Y-102664662D01*
X155285365Y-102737764D01*
X155507431Y-102774820D01*
X155732569Y-102774820D01*
X155954635Y-102737764D01*
X156167574Y-102664662D01*
X156365576Y-102557509D01*
X156543240Y-102419226D01*
X156695722Y-102253588D01*
X156818860Y-102065111D01*
X156909296Y-101858936D01*
X156964564Y-101640688D01*
X156971198Y-101560628D01*
X156983156Y-101416325D01*
X156983156Y-101416314D01*
X156964565Y-101191960D01*
X156964563Y-101191948D01*
X156950447Y-101136207D01*
X156909296Y-100973704D01*
X156818860Y-100767529D01*
X156806268Y-100748256D01*
X156711861Y-100603755D01*
X156695722Y-100579052D01*
X156695719Y-100579049D01*
X156695715Y-100579043D01*
X156543243Y-100413417D01*
X156543238Y-100413412D01*
X156365577Y-100275132D01*
X156365572Y-100275128D01*
X156329068Y-100255373D01*
X156279478Y-100206153D01*
X156264371Y-100137936D01*
X156288542Y-100072381D01*
X156329069Y-100037265D01*
X156365576Y-100017509D01*
X156543240Y-99879226D01*
X156695722Y-99713588D01*
X156818860Y-99525111D01*
X156909296Y-99318936D01*
X156964564Y-99100688D01*
X156964565Y-99100679D01*
X156983156Y-98876325D01*
X156983156Y-98876314D01*
X156964565Y-98651960D01*
X156964563Y-98651948D01*
X156926311Y-98500895D01*
X156909296Y-98433704D01*
X156818860Y-98227529D01*
X156817996Y-98226207D01*
X156695723Y-98039054D01*
X156695715Y-98039043D01*
X156550510Y-97881311D01*
X156519587Y-97818657D01*
X156527447Y-97749231D01*
X156571594Y-97695075D01*
X156598405Y-97681147D01*
X156678584Y-97651240D01*
X156716204Y-97637209D01*
X156833261Y-97549581D01*
X156920889Y-97432524D01*
X156971989Y-97295521D01*
X156976504Y-97253523D01*
X156978499Y-97234974D01*
X156978500Y-97234957D01*
X156978500Y-95437682D01*
X156978499Y-95437665D01*
X156974790Y-95403171D01*
X156971989Y-95377119D01*
X156956701Y-95336132D01*
X156939041Y-95288783D01*
X156920889Y-95240116D01*
X156833261Y-95123059D01*
X156716204Y-95035431D01*
X156716204Y-95035430D01*
X156579203Y-94984331D01*
X156518654Y-94977820D01*
X156518638Y-94977820D01*
X154724500Y-94977820D01*
X154657461Y-94958135D01*
X154611706Y-94905331D01*
X154600500Y-94853820D01*
X154600500Y-90206885D01*
X154602883Y-90182691D01*
X154605408Y-90170000D01*
X154602383Y-90154792D01*
X154600000Y-90130600D01*
X154600000Y-86736319D01*
X161226771Y-86736319D01*
X161245635Y-86915796D01*
X161251944Y-86935214D01*
X161301401Y-87087427D01*
X161391633Y-87243713D01*
X161433696Y-87290428D01*
X161512381Y-87377819D01*
X161512384Y-87377821D01*
X161512387Y-87377824D01*
X161633470Y-87465796D01*
X161658385Y-87483898D01*
X161823242Y-87557298D01*
X161823244Y-87557298D01*
X161823248Y-87557300D01*
X161885069Y-87570440D01*
X161946548Y-87603630D01*
X161980325Y-87664793D01*
X161982506Y-87677846D01*
X161995836Y-87796164D01*
X161995837Y-87796169D01*
X162052291Y-87957503D01*
X162139423Y-88096173D01*
X162143229Y-88102229D01*
X162264091Y-88223091D01*
X162408817Y-88314029D01*
X162570149Y-88370482D01*
X162570150Y-88370482D01*
X162570155Y-88370483D01*
X162739996Y-88389619D01*
X162740000Y-88389619D01*
X162740004Y-88389619D01*
X162909843Y-88370483D01*
X162909843Y-88370482D01*
X162909850Y-88370482D01*
X162966302Y-88350727D01*
X162986209Y-88345570D01*
X163004149Y-88342483D01*
X163317898Y-88240854D01*
X163356110Y-88234820D01*
X163436589Y-88234820D01*
X163503628Y-88254505D01*
X163524270Y-88271139D01*
X165114066Y-89860935D01*
X165136819Y-89892221D01*
X165272950Y-90158796D01*
X165287275Y-90186846D01*
X165287186Y-90186891D01*
X165289120Y-90191309D01*
X165289273Y-90191236D01*
X165292292Y-90197505D01*
X165298936Y-90208079D01*
X165300696Y-90211062D01*
X165303086Y-90215385D01*
X165303790Y-90216429D01*
X165307037Y-90220972D01*
X165383227Y-90342227D01*
X165383228Y-90342228D01*
X165383229Y-90342229D01*
X165504091Y-90463091D01*
X165648817Y-90554029D01*
X165810149Y-90610482D01*
X165810150Y-90610482D01*
X165810155Y-90610483D01*
X165979996Y-90629619D01*
X165980000Y-90629619D01*
X165980004Y-90629619D01*
X166149844Y-90610483D01*
X166149847Y-90610482D01*
X166149850Y-90610482D01*
X166311183Y-90554029D01*
X166455909Y-90463091D01*
X166576771Y-90342229D01*
X166667709Y-90197503D01*
X166724162Y-90036170D01*
X166734520Y-89944242D01*
X166743299Y-89866323D01*
X166743299Y-89866316D01*
X166724163Y-89696475D01*
X166724162Y-89696470D01*
X166716476Y-89674505D01*
X166667709Y-89535137D01*
X166576771Y-89390411D01*
X166455909Y-89269549D01*
X166455908Y-89269549D01*
X166455908Y-89269548D01*
X166311183Y-89178610D01*
X166309243Y-89177676D01*
X166304779Y-89175766D01*
X166005901Y-89023139D01*
X165974615Y-89000386D01*
X164630730Y-87656501D01*
X164597245Y-87595178D01*
X164602229Y-87525486D01*
X164644101Y-87469553D01*
X164709565Y-87445136D01*
X164718411Y-87444820D01*
X166088403Y-87444820D01*
X166114795Y-87447661D01*
X166600764Y-87553565D01*
X166606708Y-87555174D01*
X166613239Y-87557296D01*
X166613248Y-87557300D01*
X166789768Y-87594820D01*
X166789769Y-87594820D01*
X166970231Y-87594820D01*
X166970232Y-87594820D01*
X167146752Y-87557300D01*
X167146754Y-87557298D01*
X167146757Y-87557298D01*
X167218207Y-87525486D01*
X167311615Y-87483898D01*
X167457613Y-87377824D01*
X167578367Y-87243713D01*
X167668599Y-87087427D01*
X167724365Y-86915795D01*
X167743229Y-86736320D01*
X167724365Y-86556845D01*
X167668599Y-86385213D01*
X167578367Y-86228927D01*
X167507671Y-86150411D01*
X167457618Y-86094820D01*
X167457615Y-86094818D01*
X167457614Y-86094817D01*
X167457613Y-86094816D01*
X167311615Y-85988742D01*
X167311614Y-85988741D01*
X167146757Y-85915341D01*
X167146751Y-85915339D01*
X167007751Y-85885794D01*
X166970232Y-85877820D01*
X166789768Y-85877820D01*
X166709962Y-85894783D01*
X166613247Y-85915340D01*
X166606715Y-85917462D01*
X166600763Y-85919072D01*
X166511107Y-85938611D01*
X166114800Y-86024976D01*
X166088397Y-86027820D01*
X162881602Y-86027820D01*
X162855199Y-86024976D01*
X162688924Y-85988741D01*
X162369246Y-85919075D01*
X162363295Y-85917465D01*
X162356752Y-85915339D01*
X162180232Y-85877820D01*
X161999768Y-85877820D01*
X161979364Y-85882157D01*
X161823248Y-85915339D01*
X161823242Y-85915341D01*
X161658386Y-85988741D01*
X161658381Y-85988744D01*
X161512388Y-86094814D01*
X161512381Y-86094820D01*
X161391632Y-86228928D01*
X161301400Y-86385214D01*
X161245635Y-86556843D01*
X161226771Y-86736319D01*
X154600000Y-86736319D01*
X154600000Y-85357033D01*
X159165000Y-85357033D01*
X159180418Y-85508658D01*
X159241299Y-85702701D01*
X159241304Y-85702711D01*
X159340005Y-85880535D01*
X159340005Y-85880536D01*
X159472478Y-86034850D01*
X159472479Y-86034851D01*
X159633304Y-86159338D01*
X159815907Y-86248909D01*
X159915000Y-86274564D01*
X159915000Y-85522430D01*
X159939457Y-85561930D01*
X160028962Y-85629521D01*
X160136840Y-85660215D01*
X160248521Y-85649866D01*
X160348922Y-85599872D01*
X160415000Y-85527389D01*
X160415000Y-86279686D01*
X160416944Y-86279389D01*
X160416945Y-86279389D01*
X160607660Y-86208756D01*
X160607664Y-86208754D01*
X160780267Y-86101170D01*
X160927668Y-85961055D01*
X160927669Y-85961053D01*
X161043856Y-85794124D01*
X161124059Y-85607227D01*
X161165000Y-85408010D01*
X161165000Y-85006320D01*
X160465000Y-85006320D01*
X160465000Y-84506320D01*
X161062939Y-84506320D01*
X161129978Y-84526005D01*
X161164242Y-84558811D01*
X161166642Y-84562212D01*
X161235851Y-84636316D01*
X161265245Y-84667789D01*
X161388672Y-84742846D01*
X161527772Y-84781820D01*
X161527773Y-84781820D01*
X161635950Y-84781820D01*
X161647502Y-84780231D01*
X161743111Y-84767091D01*
X161875609Y-84709539D01*
X161987665Y-84618374D01*
X162010289Y-84586323D01*
X162976701Y-84586323D01*
X162995836Y-84756164D01*
X162995837Y-84756169D01*
X163052291Y-84917503D01*
X163116403Y-85019537D01*
X163143229Y-85062229D01*
X163264091Y-85183091D01*
X163408817Y-85274029D01*
X163570149Y-85330482D01*
X163570150Y-85330482D01*
X163570155Y-85330483D01*
X163739996Y-85349619D01*
X163740000Y-85349619D01*
X163740004Y-85349619D01*
X163909843Y-85330483D01*
X163909843Y-85330482D01*
X163909850Y-85330482D01*
X163966302Y-85310727D01*
X163986209Y-85305570D01*
X164004149Y-85302483D01*
X164004154Y-85302481D01*
X164004156Y-85302481D01*
X164201787Y-85238464D01*
X164271630Y-85236531D01*
X164278187Y-85238456D01*
X164475849Y-85302483D01*
X164508194Y-85311800D01*
X164508211Y-85311801D01*
X164513540Y-85312842D01*
X164513463Y-85313233D01*
X164534064Y-85317854D01*
X164570150Y-85330482D01*
X164570154Y-85330482D01*
X164570156Y-85330483D01*
X164739996Y-85349619D01*
X164740000Y-85349619D01*
X164740004Y-85349619D01*
X164909844Y-85330483D01*
X164909847Y-85330482D01*
X164909850Y-85330482D01*
X165071183Y-85274029D01*
X165215909Y-85183091D01*
X165336771Y-85062229D01*
X165427709Y-84917503D01*
X165484162Y-84756170D01*
X165484163Y-84756164D01*
X165503299Y-84586323D01*
X165503299Y-84586316D01*
X165484163Y-84416475D01*
X165484162Y-84416470D01*
X165474940Y-84390115D01*
X165440790Y-84292519D01*
X166850796Y-84292519D01*
X166871077Y-84390116D01*
X166880186Y-84433954D01*
X166880187Y-84433956D01*
X166946645Y-84562213D01*
X166946649Y-84562219D01*
X167015851Y-84636316D01*
X167045245Y-84667789D01*
X167168672Y-84742846D01*
X167307772Y-84781820D01*
X167307773Y-84781820D01*
X167415950Y-84781820D01*
X167427502Y-84780231D01*
X167523111Y-84767091D01*
X167655609Y-84709539D01*
X167767665Y-84618374D01*
X167807309Y-84562212D01*
X167809710Y-84558811D01*
X167864453Y-84515394D01*
X167911014Y-84506320D01*
X168515000Y-84506320D01*
X168515000Y-85006320D01*
X167815000Y-85006320D01*
X167815000Y-85357033D01*
X167830418Y-85508658D01*
X167891299Y-85702701D01*
X167891304Y-85702711D01*
X167990005Y-85880535D01*
X167990005Y-85880536D01*
X168122478Y-86034850D01*
X168122479Y-86034851D01*
X168283304Y-86159338D01*
X168465907Y-86248909D01*
X168565000Y-86274564D01*
X168565000Y-85522430D01*
X168589457Y-85561930D01*
X168678962Y-85629521D01*
X168786840Y-85660215D01*
X168898521Y-85649866D01*
X168998922Y-85599872D01*
X169065000Y-85527389D01*
X169065000Y-86279685D01*
X169066944Y-86279389D01*
X169066945Y-86279389D01*
X169257660Y-86208756D01*
X169257664Y-86208754D01*
X169430267Y-86101170D01*
X169577668Y-85961055D01*
X169577669Y-85961053D01*
X169693856Y-85794124D01*
X169774059Y-85607227D01*
X169815000Y-85408010D01*
X169815000Y-85006320D01*
X169115000Y-85006320D01*
X169115000Y-84506320D01*
X169815000Y-84506320D01*
X169815000Y-84155606D01*
X169799581Y-84003981D01*
X169738700Y-83809938D01*
X169738695Y-83809928D01*
X169639994Y-83632104D01*
X169639994Y-83632103D01*
X169507521Y-83477789D01*
X169507520Y-83477788D01*
X169346695Y-83353301D01*
X169164093Y-83263731D01*
X169065000Y-83238073D01*
X169065000Y-83990209D01*
X169040543Y-83950710D01*
X168951038Y-83883119D01*
X168843160Y-83852425D01*
X168731479Y-83862774D01*
X168631078Y-83912768D01*
X168565000Y-83985250D01*
X168565000Y-83232953D01*
X168563053Y-83233251D01*
X168563047Y-83233253D01*
X168372342Y-83303882D01*
X168372335Y-83303885D01*
X168199732Y-83411469D01*
X168052331Y-83551584D01*
X168052330Y-83551586D01*
X167936144Y-83718513D01*
X167903448Y-83794706D01*
X167858921Y-83848549D01*
X167792352Y-83869772D01*
X167724877Y-83851636D01*
X167718523Y-83847142D01*
X167591330Y-83769795D01*
X167591329Y-83769794D01*
X167591328Y-83769794D01*
X167452228Y-83730820D01*
X167344051Y-83730820D01*
X167344050Y-83730820D01*
X167236889Y-83745549D01*
X167104389Y-83803101D01*
X167104389Y-83803102D01*
X166992338Y-83894263D01*
X166992333Y-83894268D01*
X166909028Y-84012283D01*
X166860654Y-84148394D01*
X166860654Y-84148397D01*
X166860653Y-84148399D01*
X166860654Y-84148399D01*
X166850796Y-84292519D01*
X165440790Y-84292519D01*
X165427709Y-84255137D01*
X165336771Y-84110411D01*
X165215909Y-83989549D01*
X165215908Y-83989548D01*
X165071183Y-83898611D01*
X164909849Y-83842157D01*
X164909844Y-83842156D01*
X164740004Y-83823021D01*
X164739996Y-83823021D01*
X164570151Y-83842157D01*
X164570150Y-83842157D01*
X164513709Y-83861906D01*
X164493800Y-83867065D01*
X164475859Y-83870154D01*
X164475852Y-83870155D01*
X164475851Y-83870156D01*
X164475847Y-83870157D01*
X164475848Y-83870157D01*
X164278209Y-83934174D01*
X164208366Y-83936105D01*
X164201788Y-83934174D01*
X164004146Y-83870155D01*
X163971808Y-83860839D01*
X163966465Y-83859797D01*
X163966540Y-83859410D01*
X163945933Y-83854783D01*
X163917546Y-83844851D01*
X163909850Y-83842158D01*
X163909848Y-83842157D01*
X163909843Y-83842156D01*
X163740004Y-83823021D01*
X163739996Y-83823021D01*
X163570155Y-83842156D01*
X163570150Y-83842157D01*
X163408816Y-83898611D01*
X163264091Y-83989548D01*
X163143228Y-84110411D01*
X163052291Y-84255136D01*
X162995837Y-84416470D01*
X162995836Y-84416475D01*
X162976701Y-84586316D01*
X162976701Y-84586323D01*
X162010289Y-84586323D01*
X162070971Y-84500357D01*
X162110150Y-84390116D01*
X162119345Y-84364245D01*
X162119345Y-84364243D01*
X162119346Y-84364241D01*
X162129204Y-84220121D01*
X162099814Y-84078686D01*
X162033354Y-83950425D01*
X162033351Y-83950422D01*
X162033350Y-83950420D01*
X161934754Y-83844850D01*
X161811330Y-83769795D01*
X161811329Y-83769794D01*
X161811328Y-83769794D01*
X161672228Y-83730820D01*
X161564051Y-83730820D01*
X161564050Y-83730820D01*
X161456889Y-83745549D01*
X161324389Y-83803101D01*
X161324388Y-83803102D01*
X161274239Y-83843902D01*
X161209813Y-83870940D01*
X161140996Y-83858855D01*
X161089638Y-83811483D01*
X161087565Y-83807892D01*
X160989994Y-83632104D01*
X160989994Y-83632103D01*
X160857521Y-83477789D01*
X160857520Y-83477788D01*
X160696695Y-83353301D01*
X160514093Y-83263731D01*
X160415000Y-83238073D01*
X160415000Y-83990209D01*
X160390543Y-83950710D01*
X160301038Y-83883119D01*
X160193160Y-83852425D01*
X160081479Y-83862774D01*
X159981078Y-83912768D01*
X159915000Y-83985250D01*
X159915000Y-83232953D01*
X159913053Y-83233251D01*
X159913047Y-83233253D01*
X159722342Y-83303882D01*
X159722335Y-83303885D01*
X159549732Y-83411469D01*
X159402331Y-83551584D01*
X159402330Y-83551586D01*
X159286143Y-83718515D01*
X159205940Y-83905412D01*
X159165000Y-84104629D01*
X159165000Y-84506320D01*
X159865000Y-84506320D01*
X159865000Y-85006320D01*
X159165000Y-85006320D01*
X159165000Y-85357033D01*
X154600000Y-85357033D01*
X154600000Y-84109399D01*
X154602383Y-84085205D01*
X154605408Y-84070000D01*
X154602883Y-84057306D01*
X154600500Y-84033114D01*
X154600500Y-81866741D01*
X154600598Y-81863264D01*
X154609714Y-81700924D01*
X154617593Y-81560621D01*
X154618369Y-81553732D01*
X154668852Y-81256615D01*
X154670400Y-81249832D01*
X154671281Y-81246774D01*
X154726148Y-81056323D01*
X155426751Y-81056323D01*
X155433807Y-81132478D01*
X155434001Y-81135247D01*
X155437791Y-81214790D01*
X155437792Y-81214795D01*
X155441555Y-81230306D01*
X155444521Y-81248094D01*
X155445706Y-81260879D01*
X155467541Y-81337625D01*
X155468152Y-81339941D01*
X155487701Y-81420521D01*
X155487702Y-81420526D01*
X155492891Y-81431888D01*
X155499359Y-81449454D01*
X155501922Y-81458461D01*
X155501928Y-81458478D01*
X155538940Y-81532807D01*
X155539838Y-81534687D01*
X155575641Y-81613085D01*
X155575647Y-81613096D01*
X155580879Y-81620443D01*
X155590868Y-81637091D01*
X155593497Y-81642370D01*
X155631156Y-81692238D01*
X155645512Y-81711249D01*
X155646526Y-81712630D01*
X155698441Y-81785535D01*
X155698443Y-81785537D01*
X155698444Y-81785538D01*
X155698445Y-81785539D01*
X155702459Y-81789367D01*
X155715837Y-81804377D01*
X155717292Y-81806303D01*
X155717295Y-81806307D01*
X155717298Y-81806309D01*
X155717299Y-81806311D01*
X155783536Y-81866694D01*
X155784530Y-81867621D01*
X155822921Y-81904226D01*
X155851654Y-81931623D01*
X155853398Y-81932744D01*
X155864519Y-81941290D01*
X155864544Y-81941258D01*
X155869119Y-81944713D01*
X155948571Y-81993908D01*
X156029747Y-82046077D01*
X156035000Y-82048785D01*
X156034966Y-82048849D01*
X156038488Y-82050628D01*
X156038650Y-82050304D01*
X156043773Y-82052854D01*
X156043782Y-82052860D01*
X156133782Y-82087725D01*
X156222982Y-82123436D01*
X156226279Y-82124756D01*
X156226517Y-82124802D01*
X156231752Y-82126049D01*
X156235337Y-82127068D01*
X156235345Y-82127071D01*
X156333229Y-82145368D01*
X156434151Y-82164820D01*
X156434156Y-82164820D01*
X156642716Y-82164820D01*
X156642718Y-82164820D01*
X156692132Y-82155582D01*
X156697575Y-82154814D01*
X156750739Y-82149739D01*
X156795668Y-82136545D01*
X156801720Y-82135096D01*
X156844655Y-82127071D01*
X156894560Y-82107737D01*
X156899487Y-82106063D01*
X156937603Y-82094870D01*
X156953862Y-82090097D01*
X156958444Y-82087735D01*
X156992542Y-82070155D01*
X156998550Y-82067451D01*
X157036218Y-82052860D01*
X157084526Y-82022947D01*
X157088748Y-82020556D01*
X157142026Y-81993091D01*
X157173656Y-81968216D01*
X157179336Y-81964243D01*
X157210882Y-81944712D01*
X157255310Y-81904209D01*
X157258721Y-81901320D01*
X157308432Y-81862228D01*
X157332627Y-81834304D01*
X157337708Y-81829094D01*
X157339156Y-81827774D01*
X157362701Y-81806311D01*
X157400893Y-81755734D01*
X157403514Y-81752497D01*
X157410812Y-81744075D01*
X157447065Y-81702238D01*
X157463897Y-81673081D01*
X157468111Y-81666723D01*
X157486503Y-81642370D01*
X157516221Y-81582686D01*
X157518022Y-81579334D01*
X157521852Y-81572700D01*
X157552913Y-81518902D01*
X157562846Y-81490201D01*
X157565925Y-81482867D01*
X157578074Y-81458472D01*
X157597224Y-81391162D01*
X157598248Y-81387913D01*
X157622153Y-81318847D01*
X157626006Y-81292042D01*
X157627738Y-81283917D01*
X157634294Y-81260879D01*
X157641051Y-81187956D01*
X157641416Y-81184870D01*
X157641606Y-81183550D01*
X157652281Y-81109304D01*
X157651149Y-81085556D01*
X157651342Y-81076884D01*
X157653249Y-81056320D01*
X157646191Y-80980159D01*
X157645996Y-80977387D01*
X157645585Y-80968767D01*
X157642208Y-80897846D01*
X157638441Y-80882322D01*
X157635478Y-80864549D01*
X157634294Y-80851761D01*
X157612449Y-80774986D01*
X157611843Y-80772684D01*
X157611523Y-80771364D01*
X157592298Y-80692116D01*
X157587107Y-80680750D01*
X157580636Y-80663173D01*
X157578076Y-80654176D01*
X157578074Y-80654168D01*
X157541043Y-80579802D01*
X157540149Y-80577927D01*
X157504355Y-80499547D01*
X157499121Y-80492197D01*
X157489129Y-80475544D01*
X157486503Y-80470270D01*
X157482930Y-80465539D01*
X157434487Y-80401390D01*
X157433460Y-80399990D01*
X157381558Y-80327104D01*
X157381554Y-80327100D01*
X157377546Y-80323278D01*
X157364153Y-80308251D01*
X157362708Y-80306338D01*
X157362704Y-80306333D01*
X157362701Y-80306329D01*
X157296418Y-80245905D01*
X157295468Y-80245018D01*
X157294574Y-80244166D01*
X157228346Y-80181017D01*
X157228343Y-80181014D01*
X157226601Y-80179895D01*
X157215480Y-80171349D01*
X157215456Y-80171382D01*
X157210877Y-80167924D01*
X157131442Y-80118740D01*
X157050258Y-80066566D01*
X157044999Y-80063855D01*
X157045032Y-80063790D01*
X157041512Y-80062012D01*
X157041351Y-80062336D01*
X157036222Y-80059782D01*
X157036218Y-80059780D01*
X157032805Y-80058458D01*
X156946235Y-80024921D01*
X156853722Y-79987884D01*
X156853714Y-79987882D01*
X156853470Y-79987835D01*
X156848257Y-79986593D01*
X156844658Y-79985569D01*
X156746677Y-79967253D01*
X156645850Y-79947820D01*
X156645849Y-79947820D01*
X156642718Y-79947820D01*
X156437282Y-79947820D01*
X156437276Y-79947820D01*
X156387885Y-79957052D01*
X156382386Y-79957827D01*
X156329265Y-79962900D01*
X156329261Y-79962900D01*
X156329261Y-79962901D01*
X156318407Y-79966088D01*
X156284348Y-79976088D01*
X156278271Y-79977544D01*
X156235351Y-79985567D01*
X156235338Y-79985570D01*
X156185438Y-80004902D01*
X156180509Y-80006577D01*
X156126140Y-80022542D01*
X156087459Y-80042482D01*
X156081445Y-80045188D01*
X156043781Y-80059780D01*
X156043780Y-80059780D01*
X155995474Y-80089690D01*
X155991245Y-80092084D01*
X155937977Y-80119546D01*
X155906354Y-80144414D01*
X155900665Y-80148393D01*
X155869116Y-80167929D01*
X155824708Y-80208411D01*
X155821266Y-80211326D01*
X155771565Y-80250413D01*
X155747377Y-80278326D01*
X155742290Y-80283544D01*
X155717301Y-80306326D01*
X155679111Y-80356896D01*
X155676491Y-80360133D01*
X155632936Y-80410399D01*
X155616104Y-80439553D01*
X155611884Y-80445921D01*
X155593496Y-80470271D01*
X155593491Y-80470280D01*
X155563781Y-80529942D01*
X155561976Y-80533305D01*
X155527088Y-80593735D01*
X155517158Y-80622423D01*
X155514067Y-80629783D01*
X155501928Y-80654162D01*
X155501923Y-80654176D01*
X155482782Y-80721448D01*
X155481739Y-80724757D01*
X155457846Y-80793795D01*
X155453994Y-80820578D01*
X155452258Y-80828724D01*
X155445706Y-80851757D01*
X155438949Y-80924671D01*
X155438582Y-80927773D01*
X155427719Y-81003330D01*
X155427719Y-81003335D01*
X155428849Y-81027089D01*
X155428655Y-81035765D01*
X155426874Y-81055000D01*
X155426751Y-81056323D01*
X154726148Y-81056323D01*
X154753830Y-80960237D01*
X154756123Y-80953685D01*
X154871459Y-80675238D01*
X154874462Y-80669003D01*
X155020248Y-80405223D01*
X155023944Y-80399342D01*
X155180586Y-80178575D01*
X155198337Y-80153558D01*
X155202669Y-80148124D01*
X155403490Y-79923405D01*
X155408408Y-79918488D01*
X155633124Y-79717669D01*
X155638558Y-79713337D01*
X155772197Y-79618515D01*
X155884342Y-79538944D01*
X155890223Y-79535248D01*
X156154003Y-79389462D01*
X156160238Y-79386459D01*
X156438685Y-79271123D01*
X156445237Y-79268830D01*
X156734836Y-79185399D01*
X156741616Y-79183852D01*
X157038732Y-79133369D01*
X157045621Y-79132593D01*
X157204630Y-79123663D01*
X157348265Y-79115598D01*
X157351742Y-79115500D01*
X157394170Y-79115500D01*
X159445465Y-79115500D01*
X159512504Y-79135185D01*
G37*
%TD.AperFunction*%
%TA.AperFunction,Conductor*%
G36*
X171772094Y-92018221D02*
G01*
X171813805Y-92074274D01*
X171821500Y-92117275D01*
X171821500Y-92153654D01*
X171828011Y-92214202D01*
X171828011Y-92214204D01*
X171870357Y-92327735D01*
X171879111Y-92351204D01*
X171966739Y-92468261D01*
X172083796Y-92555889D01*
X172135737Y-92575262D01*
X172201595Y-92599827D01*
X172257528Y-92641699D01*
X172281944Y-92707163D01*
X172267092Y-92775436D01*
X172249490Y-92799991D01*
X172104279Y-92957730D01*
X172104276Y-92957734D01*
X171981140Y-93146207D01*
X171890703Y-93352385D01*
X171835436Y-93570628D01*
X171835434Y-93570640D01*
X171816844Y-93794994D01*
X171816844Y-93795005D01*
X171835434Y-94019359D01*
X171835436Y-94019371D01*
X171890703Y-94237614D01*
X171981140Y-94443792D01*
X172104276Y-94632265D01*
X172104284Y-94632276D01*
X172256756Y-94797902D01*
X172256761Y-94797907D01*
X172315981Y-94844000D01*
X172434424Y-94936189D01*
X172434429Y-94936191D01*
X172434431Y-94936193D01*
X172470930Y-94955946D01*
X172520520Y-95005165D01*
X172535628Y-95073382D01*
X172511457Y-95138937D01*
X172470930Y-95174054D01*
X172434431Y-95193806D01*
X172434422Y-95193812D01*
X172256761Y-95332092D01*
X172256756Y-95332097D01*
X172104284Y-95497723D01*
X172104276Y-95497734D01*
X171981140Y-95686207D01*
X171890703Y-95892385D01*
X171835436Y-96110628D01*
X171835434Y-96110640D01*
X171816844Y-96334994D01*
X171816844Y-96335005D01*
X171835434Y-96559359D01*
X171835436Y-96559371D01*
X171890703Y-96777614D01*
X171981140Y-96983792D01*
X172104276Y-97172265D01*
X172104284Y-97172276D01*
X172256756Y-97337902D01*
X172256761Y-97337907D01*
X172311890Y-97380816D01*
X172434424Y-97476189D01*
X172434429Y-97476191D01*
X172434431Y-97476193D01*
X172470930Y-97495946D01*
X172520520Y-97545165D01*
X172535628Y-97613382D01*
X172511457Y-97678937D01*
X172470930Y-97714054D01*
X172434431Y-97733806D01*
X172434422Y-97733812D01*
X172256761Y-97872092D01*
X172256756Y-97872097D01*
X172104284Y-98037723D01*
X172104276Y-98037734D01*
X171981140Y-98226207D01*
X171890703Y-98432385D01*
X171835436Y-98650628D01*
X171835434Y-98650640D01*
X171816844Y-98874994D01*
X171816844Y-98874999D01*
X171817487Y-98882763D01*
X171803403Y-98951199D01*
X171754556Y-99001156D01*
X171686455Y-99016775D01*
X171620720Y-98993095D01*
X171606229Y-98980680D01*
X169938354Y-97312805D01*
X169933001Y-97306702D01*
X169930216Y-97303073D01*
X169910987Y-97278013D01*
X169910985Y-97278011D01*
X169910984Y-97278010D01*
X169887052Y-97259647D01*
X169879074Y-97253525D01*
X169879072Y-97253523D01*
X169827426Y-97213893D01*
X169783877Y-97180476D01*
X169783873Y-97180474D01*
X169635851Y-97119161D01*
X169618711Y-97116905D01*
X169616456Y-97116608D01*
X169616455Y-97116607D01*
X169514704Y-97103212D01*
X169514678Y-97103210D01*
X169477001Y-97098250D01*
X169476999Y-97098250D01*
X169466527Y-97099628D01*
X169441151Y-97102969D01*
X169433054Y-97103500D01*
X168186112Y-97103500D01*
X168147901Y-97097466D01*
X168013654Y-97053981D01*
X167834149Y-96995836D01*
X167828554Y-96994224D01*
X167801808Y-96986519D01*
X167796465Y-96985477D01*
X167796540Y-96985090D01*
X167775933Y-96980463D01*
X167755515Y-96973319D01*
X167739850Y-96967838D01*
X167739848Y-96967837D01*
X167739843Y-96967836D01*
X167570004Y-96948701D01*
X167569996Y-96948701D01*
X167400155Y-96967836D01*
X167400150Y-96967837D01*
X167238816Y-97024291D01*
X167094091Y-97115228D01*
X166973228Y-97236091D01*
X166882291Y-97380816D01*
X166825837Y-97542150D01*
X166825836Y-97542155D01*
X166806701Y-97711996D01*
X166806701Y-97712003D01*
X166825836Y-97881844D01*
X166825837Y-97881849D01*
X166882291Y-98043183D01*
X166973228Y-98187908D01*
X167094092Y-98308772D01*
X167094095Y-98308774D01*
X167128374Y-98330313D01*
X167174666Y-98382647D01*
X167185315Y-98451700D01*
X167179445Y-98476260D01*
X167165837Y-98515150D01*
X167165837Y-98515151D01*
X167146701Y-98684996D01*
X167146701Y-98685003D01*
X167165836Y-98854844D01*
X167165837Y-98854849D01*
X167198992Y-98949599D01*
X167222291Y-99016183D01*
X167313229Y-99160909D01*
X167434091Y-99281771D01*
X167578817Y-99372709D01*
X167578821Y-99372710D01*
X167580747Y-99373638D01*
X167585221Y-99375553D01*
X167590376Y-99378185D01*
X167590377Y-99378186D01*
X167884097Y-99528178D01*
X167915381Y-99550930D01*
X171434420Y-103069969D01*
X171464329Y-103118297D01*
X171884458Y-104373660D01*
X171885766Y-104378118D01*
X171890702Y-104397611D01*
X171890703Y-104397614D01*
X171897051Y-104412089D01*
X171899066Y-104417312D01*
X171904824Y-104434515D01*
X171905164Y-104435529D01*
X171908095Y-104443812D01*
X171909668Y-104448027D01*
X171909911Y-104448677D01*
X171909916Y-104448689D01*
X171940045Y-104514746D01*
X171943422Y-104520448D01*
X171942797Y-104520817D01*
X171950684Y-104534359D01*
X171981140Y-104603792D01*
X172104276Y-104792265D01*
X172104284Y-104792276D01*
X172256756Y-104957902D01*
X172256760Y-104957906D01*
X172434424Y-105096189D01*
X172434425Y-105096189D01*
X172434427Y-105096191D01*
X172460990Y-105110566D01*
X172632426Y-105203342D01*
X172845365Y-105276444D01*
X173067431Y-105313500D01*
X173292569Y-105313500D01*
X173514635Y-105276444D01*
X173727574Y-105203342D01*
X173925576Y-105096189D01*
X174103240Y-104957906D01*
X174184270Y-104869884D01*
X174244158Y-104833893D01*
X174313996Y-104835994D01*
X174371612Y-104875518D01*
X174398713Y-104939918D01*
X174399500Y-104953867D01*
X174399500Y-109523258D01*
X174399402Y-109526735D01*
X174382407Y-109829367D01*
X174381628Y-109836281D01*
X174331147Y-110133383D01*
X174329599Y-110140167D01*
X174246170Y-110429756D01*
X174243872Y-110436323D01*
X174128548Y-110714742D01*
X174125529Y-110721011D01*
X173979753Y-110984771D01*
X173976051Y-110990663D01*
X173801662Y-111236441D01*
X173797324Y-111241882D01*
X173596511Y-111466591D01*
X173591591Y-111471511D01*
X173366882Y-111672324D01*
X173361441Y-111676662D01*
X173115663Y-111851051D01*
X173109771Y-111854753D01*
X172846011Y-112000529D01*
X172839742Y-112003548D01*
X172561323Y-112118872D01*
X172554756Y-112121170D01*
X172265167Y-112204599D01*
X172258383Y-112206147D01*
X171961281Y-112256628D01*
X171954367Y-112257407D01*
X171651735Y-112274402D01*
X171648258Y-112274500D01*
X170711217Y-112274500D01*
X170644178Y-112254815D01*
X170598423Y-112202011D01*
X170588479Y-112132853D01*
X170617504Y-112069297D01*
X170619988Y-112066516D01*
X170660722Y-112022268D01*
X170783860Y-111833791D01*
X170874296Y-111627616D01*
X170929564Y-111409368D01*
X170929565Y-111409359D01*
X170948156Y-111185005D01*
X170948156Y-111184994D01*
X170929565Y-110960640D01*
X170929563Y-110960628D01*
X170913799Y-110898377D01*
X170874296Y-110742384D01*
X170783860Y-110536209D01*
X170783032Y-110534942D01*
X170709604Y-110422552D01*
X170660722Y-110347732D01*
X170660719Y-110347729D01*
X170660715Y-110347723D01*
X170641015Y-110326323D01*
X171346751Y-110326323D01*
X171353807Y-110402478D01*
X171354001Y-110405247D01*
X171357791Y-110484790D01*
X171357792Y-110484795D01*
X171361555Y-110500306D01*
X171364521Y-110518094D01*
X171365706Y-110530879D01*
X171387541Y-110607625D01*
X171388152Y-110609941D01*
X171407701Y-110690521D01*
X171407702Y-110690526D01*
X171412891Y-110701888D01*
X171419359Y-110719454D01*
X171421922Y-110728461D01*
X171421928Y-110728478D01*
X171458940Y-110802807D01*
X171459838Y-110804687D01*
X171495641Y-110883085D01*
X171495647Y-110883096D01*
X171500879Y-110890443D01*
X171510868Y-110907091D01*
X171513497Y-110912370D01*
X171538437Y-110945396D01*
X171565512Y-110981249D01*
X171566526Y-110982630D01*
X171618441Y-111055535D01*
X171618443Y-111055537D01*
X171618444Y-111055538D01*
X171618445Y-111055539D01*
X171622459Y-111059367D01*
X171635837Y-111074377D01*
X171637292Y-111076303D01*
X171637295Y-111076307D01*
X171637298Y-111076309D01*
X171637299Y-111076311D01*
X171703536Y-111136694D01*
X171704530Y-111137621D01*
X171742921Y-111174226D01*
X171771654Y-111201623D01*
X171773398Y-111202744D01*
X171784519Y-111211290D01*
X171784544Y-111211258D01*
X171789119Y-111214713D01*
X171868571Y-111263908D01*
X171949747Y-111316077D01*
X171955000Y-111318785D01*
X171954966Y-111318849D01*
X171958488Y-111320628D01*
X171958650Y-111320304D01*
X171963773Y-111322854D01*
X171963782Y-111322860D01*
X172053782Y-111357725D01*
X172128752Y-111387739D01*
X172146279Y-111394756D01*
X172146517Y-111394802D01*
X172151752Y-111396049D01*
X172155337Y-111397068D01*
X172155345Y-111397071D01*
X172253229Y-111415368D01*
X172354151Y-111434820D01*
X172354156Y-111434820D01*
X172562716Y-111434820D01*
X172562718Y-111434820D01*
X172612132Y-111425582D01*
X172617575Y-111424814D01*
X172670739Y-111419739D01*
X172715668Y-111406545D01*
X172721720Y-111405096D01*
X172764655Y-111397071D01*
X172814560Y-111377737D01*
X172819487Y-111376063D01*
X172865640Y-111362511D01*
X172873862Y-111360097D01*
X172878444Y-111357735D01*
X172912542Y-111340155D01*
X172918550Y-111337451D01*
X172956218Y-111322860D01*
X173004526Y-111292947D01*
X173008748Y-111290556D01*
X173062026Y-111263091D01*
X173093656Y-111238216D01*
X173099336Y-111234243D01*
X173130882Y-111214712D01*
X173175310Y-111174209D01*
X173178721Y-111171320D01*
X173228432Y-111132228D01*
X173252627Y-111104304D01*
X173257708Y-111099094D01*
X173262209Y-111094991D01*
X173282701Y-111076311D01*
X173320893Y-111025734D01*
X173323514Y-111022497D01*
X173367065Y-110972238D01*
X173383897Y-110943081D01*
X173388111Y-110936723D01*
X173406503Y-110912370D01*
X173436221Y-110852686D01*
X173438022Y-110849334D01*
X173453014Y-110823367D01*
X173472913Y-110788902D01*
X173482846Y-110760201D01*
X173485925Y-110752867D01*
X173498074Y-110728472D01*
X173517224Y-110661162D01*
X173518248Y-110657913D01*
X173542153Y-110588847D01*
X173546006Y-110562042D01*
X173547738Y-110553917D01*
X173554294Y-110530879D01*
X173561051Y-110457956D01*
X173561416Y-110454870D01*
X173567311Y-110413872D01*
X173572281Y-110379304D01*
X173571149Y-110355556D01*
X173571342Y-110346884D01*
X173573249Y-110326320D01*
X173566190Y-110250145D01*
X173565996Y-110247382D01*
X173565888Y-110245124D01*
X173562208Y-110167846D01*
X173558441Y-110152322D01*
X173555478Y-110134549D01*
X173554294Y-110121761D01*
X173532449Y-110044986D01*
X173531843Y-110042684D01*
X173529782Y-110034188D01*
X173512298Y-109962116D01*
X173507107Y-109950750D01*
X173500636Y-109933173D01*
X173498076Y-109924176D01*
X173498074Y-109924168D01*
X173461043Y-109849802D01*
X173460149Y-109847927D01*
X173442199Y-109808622D01*
X173424356Y-109769549D01*
X173420591Y-109764262D01*
X173419121Y-109762197D01*
X173409129Y-109745544D01*
X173406503Y-109740270D01*
X173389861Y-109718233D01*
X173354487Y-109671390D01*
X173353460Y-109669990D01*
X173307175Y-109604992D01*
X173301559Y-109597105D01*
X173301377Y-109596931D01*
X173297546Y-109593278D01*
X173284153Y-109578251D01*
X173282708Y-109576338D01*
X173282704Y-109576333D01*
X173282701Y-109576329D01*
X173216418Y-109515905D01*
X173215468Y-109515018D01*
X173148343Y-109451014D01*
X173146601Y-109449895D01*
X173135480Y-109441349D01*
X173135456Y-109441382D01*
X173130877Y-109437924D01*
X173051442Y-109388740D01*
X172970258Y-109336566D01*
X172964999Y-109333855D01*
X172965032Y-109333790D01*
X172961512Y-109332012D01*
X172961351Y-109332336D01*
X172956222Y-109329782D01*
X172956218Y-109329780D01*
X172944364Y-109325188D01*
X172866235Y-109294921D01*
X172773722Y-109257884D01*
X172773714Y-109257882D01*
X172773470Y-109257835D01*
X172768257Y-109256593D01*
X172764658Y-109255569D01*
X172666677Y-109237253D01*
X172565850Y-109217820D01*
X172565849Y-109217820D01*
X172562718Y-109217820D01*
X172357282Y-109217820D01*
X172357276Y-109217820D01*
X172307885Y-109227052D01*
X172302386Y-109227827D01*
X172249265Y-109232900D01*
X172249261Y-109232900D01*
X172249261Y-109232901D01*
X172234439Y-109237253D01*
X172204348Y-109246088D01*
X172198271Y-109247544D01*
X172155351Y-109255567D01*
X172155338Y-109255570D01*
X172105438Y-109274902D01*
X172100509Y-109276577D01*
X172046140Y-109292542D01*
X172007459Y-109312482D01*
X172001445Y-109315188D01*
X171963781Y-109329780D01*
X171963780Y-109329780D01*
X171915474Y-109359690D01*
X171911245Y-109362084D01*
X171857977Y-109389546D01*
X171826354Y-109414414D01*
X171820665Y-109418393D01*
X171789116Y-109437929D01*
X171744708Y-109478411D01*
X171741266Y-109481326D01*
X171691565Y-109520413D01*
X171667377Y-109548326D01*
X171662290Y-109553544D01*
X171637301Y-109576326D01*
X171599111Y-109626896D01*
X171596491Y-109630133D01*
X171552936Y-109680399D01*
X171536104Y-109709553D01*
X171531884Y-109715921D01*
X171513496Y-109740271D01*
X171513491Y-109740280D01*
X171483781Y-109799942D01*
X171481976Y-109803305D01*
X171447088Y-109863735D01*
X171437158Y-109892423D01*
X171434067Y-109899783D01*
X171421928Y-109924162D01*
X171421923Y-109924176D01*
X171402782Y-109991448D01*
X171401739Y-109994757D01*
X171377846Y-110063795D01*
X171373994Y-110090578D01*
X171372258Y-110098724D01*
X171365706Y-110121757D01*
X171358949Y-110194671D01*
X171358582Y-110197773D01*
X171347719Y-110273330D01*
X171347719Y-110273335D01*
X171348849Y-110297089D01*
X171348655Y-110305765D01*
X171346751Y-110326323D01*
X170641015Y-110326323D01*
X170508243Y-110182097D01*
X170508238Y-110182092D01*
X170367403Y-110072475D01*
X170330576Y-110043811D01*
X170330575Y-110043810D01*
X170330572Y-110043808D01*
X170132580Y-109936661D01*
X170132577Y-109936659D01*
X170132574Y-109936658D01*
X170132571Y-109936657D01*
X170132569Y-109936656D01*
X169919637Y-109863556D01*
X169697569Y-109826500D01*
X169472431Y-109826500D01*
X169250362Y-109863556D01*
X169037430Y-109936656D01*
X169037419Y-109936661D01*
X168839427Y-110043808D01*
X168839422Y-110043812D01*
X168661761Y-110182092D01*
X168661756Y-110182097D01*
X168509284Y-110347723D01*
X168509276Y-110347734D01*
X168418808Y-110486206D01*
X168365662Y-110531562D01*
X168296431Y-110540986D01*
X168233095Y-110511484D01*
X168211192Y-110486206D01*
X168129527Y-110361209D01*
X168120722Y-110347732D01*
X168120719Y-110347729D01*
X168120715Y-110347723D01*
X167968243Y-110182097D01*
X167968238Y-110182092D01*
X167827403Y-110072475D01*
X167790576Y-110043811D01*
X167790575Y-110043810D01*
X167790572Y-110043808D01*
X167592580Y-109936661D01*
X167592577Y-109936659D01*
X167592574Y-109936658D01*
X167592571Y-109936657D01*
X167592569Y-109936656D01*
X167379637Y-109863556D01*
X167157569Y-109826500D01*
X166932431Y-109826500D01*
X166710362Y-109863556D01*
X166497430Y-109936656D01*
X166497419Y-109936661D01*
X166299427Y-110043808D01*
X166299422Y-110043812D01*
X166121761Y-110182092D01*
X166121756Y-110182097D01*
X165969284Y-110347723D01*
X165969276Y-110347734D01*
X165875251Y-110491650D01*
X165822105Y-110537007D01*
X165752873Y-110546430D01*
X165689538Y-110516928D01*
X165669868Y-110494951D01*
X165543113Y-110313926D01*
X165543108Y-110313920D01*
X165376082Y-110146894D01*
X165182578Y-110011399D01*
X164968492Y-109911570D01*
X164968486Y-109911567D01*
X164755000Y-109854364D01*
X164755000Y-110749498D01*
X164647315Y-110700320D01*
X164540763Y-110685000D01*
X164469237Y-110685000D01*
X164362685Y-110700320D01*
X164255000Y-110749498D01*
X164255000Y-109854364D01*
X164254999Y-109854364D01*
X164041513Y-109911567D01*
X164041507Y-109911570D01*
X163827422Y-110011399D01*
X163827420Y-110011400D01*
X163633926Y-110146886D01*
X163633920Y-110146891D01*
X163466891Y-110313920D01*
X163466890Y-110313922D01*
X163347712Y-110484125D01*
X163293135Y-110527750D01*
X163223636Y-110534942D01*
X163161282Y-110503420D01*
X163133576Y-110465021D01*
X162787396Y-109715921D01*
X162634938Y-109386016D01*
X162623500Y-109333998D01*
X162623500Y-102523113D01*
X162627619Y-102491419D01*
X162631356Y-102477284D01*
X162667522Y-102417503D01*
X162715060Y-102390373D01*
X162715578Y-102390215D01*
X162751755Y-102384820D01*
X167247183Y-102384820D01*
X167269234Y-102386796D01*
X167632537Y-102452452D01*
X167651439Y-102457434D01*
X167656069Y-102459054D01*
X167660150Y-102460482D01*
X167702805Y-102465287D01*
X167706825Y-102465877D01*
X167735960Y-102471143D01*
X167758125Y-102474159D01*
X167771297Y-102475370D01*
X167787610Y-102475276D01*
X167794907Y-102475664D01*
X167822176Y-102478737D01*
X167829999Y-102479619D01*
X167830000Y-102479619D01*
X167830003Y-102479619D01*
X167999844Y-102460483D01*
X167999847Y-102460482D01*
X167999850Y-102460482D01*
X168161183Y-102404029D01*
X168305909Y-102313091D01*
X168426771Y-102192229D01*
X168517709Y-102047503D01*
X168574162Y-101886170D01*
X168577130Y-101859828D01*
X168593299Y-101716323D01*
X168593299Y-101716316D01*
X168574163Y-101546475D01*
X168574162Y-101546470D01*
X168553812Y-101488314D01*
X168517709Y-101385137D01*
X168426771Y-101240411D01*
X168305909Y-101119549D01*
X168305908Y-101119548D01*
X168161183Y-101028611D01*
X167999849Y-100972157D01*
X167999844Y-100972156D01*
X167830004Y-100953021D01*
X167829996Y-100953021D01*
X167660152Y-100972157D01*
X167635143Y-100980908D01*
X167612839Y-100986455D01*
X167611509Y-100986657D01*
X167266047Y-101064767D01*
X167238701Y-101067820D01*
X162751756Y-101067820D01*
X162715442Y-101062383D01*
X162706987Y-101059793D01*
X162693044Y-101055523D01*
X162634709Y-101017068D01*
X162610794Y-100973269D01*
X162603933Y-100950867D01*
X162598500Y-100914561D01*
X162598500Y-94318077D01*
X162603934Y-94281770D01*
X162610794Y-94259368D01*
X162649244Y-94201033D01*
X162693052Y-94177112D01*
X162701016Y-94174674D01*
X162715451Y-94170254D01*
X162751756Y-94164820D01*
X169193609Y-94164820D01*
X169209746Y-94166601D01*
X169209768Y-94166374D01*
X169217535Y-94167108D01*
X169217536Y-94167107D01*
X169217537Y-94167108D01*
X169224239Y-94166897D01*
X169289375Y-94164851D01*
X169291322Y-94164820D01*
X169321427Y-94164820D01*
X169321432Y-94164820D01*
X169328822Y-94163886D01*
X169334651Y-94163427D01*
X169383831Y-94161882D01*
X169404583Y-94155852D01*
X169423621Y-94151910D01*
X169445064Y-94149202D01*
X169490834Y-94131080D01*
X169496348Y-94129193D01*
X169522875Y-94121485D01*
X169543600Y-94115465D01*
X169562196Y-94104466D01*
X169579664Y-94095909D01*
X169599756Y-94087955D01*
X169639582Y-94059018D01*
X169644441Y-94055826D01*
X169686807Y-94030773D01*
X169702090Y-94015488D01*
X169716873Y-94002862D01*
X169734357Y-93990161D01*
X169765731Y-93952234D01*
X169769645Y-93947933D01*
X171374543Y-92343035D01*
X171387214Y-92332886D01*
X171387068Y-92332709D01*
X171393074Y-92327739D01*
X171393080Y-92327736D01*
X171442339Y-92275279D01*
X171443611Y-92273967D01*
X171464927Y-92252653D01*
X171469495Y-92246762D01*
X171473282Y-92242328D01*
X171506972Y-92206453D01*
X171517380Y-92187520D01*
X171528059Y-92171262D01*
X171541304Y-92154188D01*
X171560852Y-92109011D01*
X171563409Y-92103792D01*
X171587124Y-92060657D01*
X171587125Y-92060652D01*
X171588838Y-92057537D01*
X171638385Y-92008273D01*
X171706700Y-91993617D01*
X171772094Y-92018221D01*
G37*
%TD.AperFunction*%
%TA.AperFunction,Conductor*%
G36*
X143365569Y-104292492D02*
G01*
X143421503Y-104334363D01*
X143445920Y-104399828D01*
X143439826Y-104448027D01*
X143415589Y-104520448D01*
X143309987Y-104835994D01*
X143280811Y-104923173D01*
X143240868Y-104980500D01*
X143176273Y-105007131D01*
X143163221Y-105007820D01*
X142847091Y-105007820D01*
X142780052Y-104988135D01*
X142734297Y-104935331D01*
X142724353Y-104866173D01*
X142753378Y-104802617D01*
X142759410Y-104796139D01*
X142951758Y-104603791D01*
X143234555Y-104320992D01*
X143295878Y-104287508D01*
X143365569Y-104292492D01*
G37*
%TD.AperFunction*%
%TA.AperFunction,Conductor*%
G36*
X143365569Y-101752492D02*
G01*
X143421502Y-101794364D01*
X143445919Y-101859828D01*
X143439825Y-101908027D01*
X143204327Y-102611703D01*
X143174418Y-102660031D01*
X141362950Y-104471501D01*
X141301627Y-104504986D01*
X141275269Y-104507820D01*
X140807091Y-104507820D01*
X140740052Y-104488135D01*
X140694297Y-104435331D01*
X140684353Y-104366173D01*
X140713378Y-104302617D01*
X140719410Y-104296139D01*
X141339342Y-103676207D01*
X143234556Y-101780991D01*
X143295877Y-101747508D01*
X143365569Y-101752492D01*
G37*
%TD.AperFunction*%
%TA.AperFunction,Conductor*%
G36*
X143365569Y-99212492D02*
G01*
X143421502Y-99254364D01*
X143445919Y-99319828D01*
X143439825Y-99368027D01*
X143204327Y-100071703D01*
X143174418Y-100120031D01*
X139322950Y-103971501D01*
X139261627Y-104004986D01*
X139235269Y-104007820D01*
X138767091Y-104007820D01*
X138700052Y-103988135D01*
X138654297Y-103935331D01*
X138644353Y-103866173D01*
X138673378Y-103802617D01*
X138679410Y-103796139D01*
X139815518Y-102660031D01*
X143234556Y-99240991D01*
X143295877Y-99207508D01*
X143365569Y-99212492D01*
G37*
%TD.AperFunction*%
%TA.AperFunction,Conductor*%
G36*
X136983703Y-100441153D02*
G01*
X137019542Y-100493912D01*
X137052290Y-100587502D01*
X137096532Y-100657911D01*
X137143229Y-100732229D01*
X137264091Y-100853091D01*
X137408817Y-100944029D01*
X137545147Y-100991733D01*
X137570150Y-101000482D01*
X137570155Y-101000483D01*
X137739996Y-101019619D01*
X137740000Y-101019619D01*
X137740004Y-101019619D01*
X137909846Y-101000483D01*
X137909848Y-101000482D01*
X137909850Y-101000482D01*
X137934859Y-100991730D01*
X137943165Y-100989457D01*
X137945884Y-100988912D01*
X137945892Y-100988912D01*
X138303822Y-100917233D01*
X138328170Y-100914820D01*
X139540268Y-100914820D01*
X139607307Y-100934505D01*
X139653062Y-100987309D01*
X139663006Y-101056467D01*
X139633981Y-101120023D01*
X139627949Y-101126501D01*
X137262950Y-103491501D01*
X137201627Y-103524986D01*
X137175269Y-103527820D01*
X137092934Y-103527820D01*
X137025895Y-103508135D01*
X136980140Y-103455331D01*
X136969614Y-103416787D01*
X136964365Y-103366845D01*
X136938202Y-103286323D01*
X136933608Y-103267071D01*
X136931244Y-103251882D01*
X136931243Y-103251873D01*
X136783936Y-102770874D01*
X136778500Y-102734563D01*
X136778500Y-100534866D01*
X136798185Y-100467827D01*
X136850989Y-100422072D01*
X136920147Y-100412128D01*
X136983703Y-100441153D01*
G37*
%TD.AperFunction*%
%TA.AperFunction,Conductor*%
G36*
X129068660Y-90734026D02*
G01*
X129116029Y-90763609D01*
X133815182Y-95462762D01*
X133848666Y-95524083D01*
X133851500Y-95550441D01*
X133851500Y-100333461D01*
X133831815Y-100400500D01*
X133779011Y-100446255D01*
X133713619Y-100456682D01*
X133707857Y-100456032D01*
X133690000Y-100454021D01*
X133689998Y-100454021D01*
X133689997Y-100454021D01*
X133689996Y-100454021D01*
X133520155Y-100473156D01*
X133520142Y-100473159D01*
X133352245Y-100531910D01*
X133351815Y-100530683D01*
X133290123Y-100540837D01*
X133264318Y-100534807D01*
X133107702Y-100480004D01*
X133107689Y-100480001D01*
X132937849Y-100460866D01*
X132937841Y-100460866D01*
X132768000Y-100480001D01*
X132767995Y-100480002D01*
X132606661Y-100536456D01*
X132461936Y-100627393D01*
X132341073Y-100748256D01*
X132250136Y-100892981D01*
X132193682Y-101054315D01*
X132193681Y-101054320D01*
X132174546Y-101224161D01*
X132174546Y-101224168D01*
X132193682Y-101394012D01*
X132213431Y-101450453D01*
X132218591Y-101470368D01*
X132221680Y-101488312D01*
X132221680Y-101488314D01*
X132323311Y-101802065D01*
X132329345Y-101840276D01*
X132329345Y-102799273D01*
X132309660Y-102866312D01*
X132256856Y-102912067D01*
X132187698Y-102922011D01*
X132139373Y-102904267D01*
X131998022Y-102815450D01*
X131915097Y-102786434D01*
X131836690Y-102758998D01*
X131836686Y-102758997D01*
X131836685Y-102758997D01*
X131829897Y-102757447D01*
X131768921Y-102723332D01*
X131736069Y-102661668D01*
X131733500Y-102636558D01*
X131733500Y-94304598D01*
X131733613Y-94300854D01*
X131737401Y-94238227D01*
X131726091Y-94176510D01*
X131725527Y-94172804D01*
X131721745Y-94141651D01*
X131717965Y-94110519D01*
X131714283Y-94100812D01*
X131708258Y-94079200D01*
X131706388Y-94068990D01*
X131689131Y-94030648D01*
X131680635Y-94011768D01*
X131679201Y-94008307D01*
X131672319Y-93990161D01*
X131656954Y-93949645D01*
X131651058Y-93941103D01*
X131640035Y-93921559D01*
X131635775Y-93912094D01*
X131597064Y-93862684D01*
X131594854Y-93859679D01*
X131559216Y-93808049D01*
X131559215Y-93808047D01*
X131512253Y-93766442D01*
X131509542Y-93763891D01*
X129113338Y-91367687D01*
X129085998Y-91326332D01*
X129045605Y-91226043D01*
X128913326Y-90897615D01*
X128906540Y-90828077D01*
X128938427Y-90765908D01*
X128998862Y-90730847D01*
X129068660Y-90734026D01*
G37*
%TD.AperFunction*%
%TA.AperFunction,Conductor*%
G36*
X169240628Y-98340185D02*
G01*
X169261270Y-98356819D01*
X171434420Y-100529969D01*
X171464329Y-100578297D01*
X171699826Y-101281972D01*
X171702435Y-101351793D01*
X171666882Y-101411940D01*
X171604454Y-101443318D01*
X171534973Y-101435964D01*
X171494555Y-101409006D01*
X168775930Y-98690381D01*
X168753177Y-98659095D01*
X168672390Y-98500895D01*
X168659432Y-98432237D01*
X168685650Y-98367473D01*
X168742720Y-98327164D01*
X168782824Y-98320500D01*
X169173589Y-98320500D01*
X169240628Y-98340185D01*
G37*
%TD.AperFunction*%
%TA.AperFunction,Conductor*%
G36*
X131122504Y-79135185D02*
G01*
X131168259Y-79187989D01*
X131178203Y-79257147D01*
X131149178Y-79320703D01*
X131140897Y-79329374D01*
X131012331Y-79451584D01*
X131012330Y-79451586D01*
X130896143Y-79618515D01*
X130815940Y-79805412D01*
X130775000Y-80004629D01*
X130775000Y-80306320D01*
X131475000Y-80306320D01*
X131475000Y-80806320D01*
X130775000Y-80806320D01*
X130775000Y-81057033D01*
X130790418Y-81208658D01*
X130851299Y-81402701D01*
X130851304Y-81402711D01*
X130950005Y-81580535D01*
X130950005Y-81580536D01*
X131082478Y-81734850D01*
X131082479Y-81734851D01*
X131243304Y-81859338D01*
X131425907Y-81948909D01*
X131525000Y-81974564D01*
X131525000Y-81172430D01*
X131549457Y-81211930D01*
X131638962Y-81279521D01*
X131746840Y-81310215D01*
X131858521Y-81299866D01*
X131958922Y-81249872D01*
X132025000Y-81177389D01*
X132025000Y-81979686D01*
X132026944Y-81979389D01*
X132026945Y-81979389D01*
X132217660Y-81908756D01*
X132217664Y-81908754D01*
X132390267Y-81801170D01*
X132537668Y-81661055D01*
X132537669Y-81661053D01*
X132653856Y-81494124D01*
X132734059Y-81307227D01*
X132775000Y-81108010D01*
X132775000Y-80806320D01*
X132075000Y-80806320D01*
X132075000Y-80306320D01*
X132775000Y-80306320D01*
X132775000Y-80055606D01*
X132759581Y-79903981D01*
X132698700Y-79709938D01*
X132698695Y-79709928D01*
X132599994Y-79532104D01*
X132599994Y-79532103D01*
X132467521Y-79377789D01*
X132467519Y-79377788D01*
X132415544Y-79337556D01*
X132374580Y-79280955D01*
X132370720Y-79211192D01*
X132405189Y-79150416D01*
X132467044Y-79117925D01*
X132491445Y-79115500D01*
X139705465Y-79115500D01*
X139772504Y-79135185D01*
X139818259Y-79187989D01*
X139828203Y-79257147D01*
X139799178Y-79320703D01*
X139790897Y-79329374D01*
X139662331Y-79451584D01*
X139662330Y-79451586D01*
X139546143Y-79618515D01*
X139465940Y-79805412D01*
X139425000Y-80004629D01*
X139425000Y-80306320D01*
X140125000Y-80306320D01*
X140125000Y-80806320D01*
X139425000Y-80806320D01*
X139425000Y-81057033D01*
X139440418Y-81208658D01*
X139501299Y-81402701D01*
X139501304Y-81402711D01*
X139600005Y-81580535D01*
X139600005Y-81580536D01*
X139732478Y-81734850D01*
X139732479Y-81734851D01*
X139893304Y-81859338D01*
X140075907Y-81948909D01*
X140175000Y-81974564D01*
X140175000Y-81172430D01*
X140199457Y-81211930D01*
X140288962Y-81279521D01*
X140396840Y-81310215D01*
X140508521Y-81299866D01*
X140608922Y-81249872D01*
X140675000Y-81177389D01*
X140675000Y-81979686D01*
X140676944Y-81979389D01*
X140676945Y-81979389D01*
X140867660Y-81908756D01*
X140867664Y-81908754D01*
X141040267Y-81801170D01*
X141187668Y-81661055D01*
X141187669Y-81661053D01*
X141303856Y-81494124D01*
X141384059Y-81307227D01*
X141425000Y-81108010D01*
X141425000Y-81055002D01*
X142946751Y-81055002D01*
X142953807Y-81131158D01*
X142954001Y-81133927D01*
X142957791Y-81213470D01*
X142957792Y-81213475D01*
X142961555Y-81228986D01*
X142964521Y-81246774D01*
X142965115Y-81253179D01*
X142965706Y-81259559D01*
X142987541Y-81336305D01*
X142988152Y-81338621D01*
X143007701Y-81419201D01*
X143007702Y-81419206D01*
X143012891Y-81430568D01*
X143019359Y-81448134D01*
X143021922Y-81457141D01*
X143021928Y-81457158D01*
X143058940Y-81531487D01*
X143059838Y-81533367D01*
X143095641Y-81611765D01*
X143095647Y-81611776D01*
X143100879Y-81619123D01*
X143110868Y-81635771D01*
X143113497Y-81641050D01*
X143152157Y-81692244D01*
X143165512Y-81709929D01*
X143166526Y-81711310D01*
X143218441Y-81784215D01*
X143218443Y-81784217D01*
X143218444Y-81784218D01*
X143218445Y-81784219D01*
X143222459Y-81788047D01*
X143235837Y-81803057D01*
X143237292Y-81804983D01*
X143237295Y-81804987D01*
X143237298Y-81804989D01*
X143237299Y-81804991D01*
X143303536Y-81865374D01*
X143304530Y-81866301D01*
X143342708Y-81902703D01*
X143371654Y-81930303D01*
X143373398Y-81931424D01*
X143384519Y-81939970D01*
X143384544Y-81939938D01*
X143389119Y-81943393D01*
X143468571Y-81992588D01*
X143549747Y-82044757D01*
X143555000Y-82047465D01*
X143554966Y-82047529D01*
X143558488Y-82049308D01*
X143558650Y-82048984D01*
X143563773Y-82051534D01*
X143563782Y-82051540D01*
X143653782Y-82086405D01*
X143746279Y-82123435D01*
X143746279Y-82123436D01*
X143746517Y-82123482D01*
X143751752Y-82124729D01*
X143755337Y-82125748D01*
X143755345Y-82125751D01*
X143853229Y-82144048D01*
X143954151Y-82163500D01*
X143954156Y-82163500D01*
X144162716Y-82163500D01*
X144162718Y-82163500D01*
X144212132Y-82154262D01*
X144217575Y-82153494D01*
X144270739Y-82148419D01*
X144315668Y-82135225D01*
X144321720Y-82133776D01*
X144364655Y-82125751D01*
X144414560Y-82106417D01*
X144419487Y-82104743D01*
X144469366Y-82090097D01*
X144473862Y-82088777D01*
X144475903Y-82087725D01*
X144512542Y-82068835D01*
X144518550Y-82066131D01*
X144556218Y-82051540D01*
X144604526Y-82021627D01*
X144608748Y-82019236D01*
X144662026Y-81991771D01*
X144693656Y-81966896D01*
X144699336Y-81962923D01*
X144730882Y-81943392D01*
X144775310Y-81902889D01*
X144778721Y-81900000D01*
X144828432Y-81860908D01*
X144852627Y-81832984D01*
X144857708Y-81827774D01*
X144861499Y-81824318D01*
X144882701Y-81804991D01*
X144920893Y-81754414D01*
X144923514Y-81751177D01*
X144929668Y-81744075D01*
X144967065Y-81700918D01*
X144983897Y-81671761D01*
X144988111Y-81665403D01*
X145006503Y-81641050D01*
X145036221Y-81581366D01*
X145038022Y-81578014D01*
X145042077Y-81570990D01*
X145072913Y-81517582D01*
X145082846Y-81488881D01*
X145085925Y-81481547D01*
X145098074Y-81457152D01*
X145117224Y-81389842D01*
X145118248Y-81386593D01*
X145142153Y-81317527D01*
X145146006Y-81290722D01*
X145147738Y-81282597D01*
X145154294Y-81259559D01*
X145161051Y-81186636D01*
X145161416Y-81183550D01*
X145168559Y-81133872D01*
X145172281Y-81107984D01*
X145171149Y-81084236D01*
X145171342Y-81075564D01*
X145173249Y-81055000D01*
X145166191Y-80978839D01*
X145165996Y-80976067D01*
X145165648Y-80968767D01*
X145162208Y-80896526D01*
X145158441Y-80881002D01*
X145155478Y-80863229D01*
X145154294Y-80850441D01*
X145132449Y-80773666D01*
X145131843Y-80771364D01*
X145129737Y-80762684D01*
X145112298Y-80690796D01*
X145107107Y-80679430D01*
X145100636Y-80661853D01*
X145100460Y-80661235D01*
X145098074Y-80652848D01*
X145061043Y-80578482D01*
X145060149Y-80576607D01*
X145035807Y-80523305D01*
X145024356Y-80498229D01*
X145019121Y-80490877D01*
X145009129Y-80474224D01*
X145006503Y-80468950D01*
X144988115Y-80444601D01*
X144954487Y-80400070D01*
X144953460Y-80398670D01*
X144901558Y-80325784D01*
X144901554Y-80325780D01*
X144897546Y-80321958D01*
X144884153Y-80306931D01*
X144882708Y-80305018D01*
X144882704Y-80305013D01*
X144882701Y-80305009D01*
X144816418Y-80244585D01*
X144815468Y-80243698D01*
X144748343Y-80179694D01*
X144746601Y-80178575D01*
X144735480Y-80170029D01*
X144735456Y-80170062D01*
X144730877Y-80166604D01*
X144651442Y-80117420D01*
X144570258Y-80065246D01*
X144564999Y-80062535D01*
X144565032Y-80062470D01*
X144561512Y-80060692D01*
X144561351Y-80061016D01*
X144556222Y-80058462D01*
X144556218Y-80058460D01*
X144542317Y-80053075D01*
X144466235Y-80023601D01*
X144373722Y-79986564D01*
X144373714Y-79986562D01*
X144373470Y-79986515D01*
X144368257Y-79985273D01*
X144364658Y-79984249D01*
X144266677Y-79965933D01*
X144165850Y-79946500D01*
X144165849Y-79946500D01*
X144162718Y-79946500D01*
X143957282Y-79946500D01*
X143957276Y-79946500D01*
X143907885Y-79955732D01*
X143902386Y-79956507D01*
X143849265Y-79961580D01*
X143849261Y-79961580D01*
X143849261Y-79961581D01*
X143829943Y-79967253D01*
X143804348Y-79974768D01*
X143798271Y-79976224D01*
X143755351Y-79984247D01*
X143755338Y-79984250D01*
X143705438Y-80003582D01*
X143700509Y-80005257D01*
X143646140Y-80021222D01*
X143607459Y-80041162D01*
X143601445Y-80043868D01*
X143563781Y-80058460D01*
X143563780Y-80058460D01*
X143515474Y-80088370D01*
X143511245Y-80090764D01*
X143457977Y-80118226D01*
X143426354Y-80143094D01*
X143420665Y-80147073D01*
X143389116Y-80166609D01*
X143344708Y-80207091D01*
X143341266Y-80210006D01*
X143291565Y-80249093D01*
X143267377Y-80277006D01*
X143262290Y-80282224D01*
X143237301Y-80305006D01*
X143199111Y-80355576D01*
X143196491Y-80358813D01*
X143152936Y-80409079D01*
X143136104Y-80438233D01*
X143131884Y-80444601D01*
X143113496Y-80468951D01*
X143113491Y-80468960D01*
X143083781Y-80528622D01*
X143081976Y-80531985D01*
X143047088Y-80592415D01*
X143037158Y-80621103D01*
X143034067Y-80628463D01*
X143021928Y-80652842D01*
X143021923Y-80652856D01*
X143002782Y-80720128D01*
X143001739Y-80723437D01*
X142977846Y-80792475D01*
X142973994Y-80819258D01*
X142972258Y-80827404D01*
X142965706Y-80850437D01*
X142958949Y-80923351D01*
X142958582Y-80926453D01*
X142947719Y-81002010D01*
X142947719Y-81002015D01*
X142948850Y-81025765D01*
X142948656Y-81034435D01*
X142947555Y-81046323D01*
X142946751Y-81055002D01*
X141425000Y-81055002D01*
X141425000Y-80806320D01*
X140725000Y-80806320D01*
X140725000Y-80306320D01*
X141425000Y-80306320D01*
X141425000Y-80055606D01*
X141409581Y-79903981D01*
X141348700Y-79709938D01*
X141348695Y-79709928D01*
X141249994Y-79532104D01*
X141249994Y-79532103D01*
X141117521Y-79377789D01*
X141117519Y-79377788D01*
X141065544Y-79337556D01*
X141024580Y-79280955D01*
X141020720Y-79211192D01*
X141055189Y-79150416D01*
X141117044Y-79117925D01*
X141141445Y-79115500D01*
X143205830Y-79115500D01*
X143248258Y-79115500D01*
X143251735Y-79115598D01*
X143402467Y-79124062D01*
X143554376Y-79132593D01*
X143561269Y-79133369D01*
X143802899Y-79174424D01*
X143858383Y-79183852D01*
X143865167Y-79185400D01*
X144154756Y-79268829D01*
X144161320Y-79271126D01*
X144439754Y-79386456D01*
X144446002Y-79389466D01*
X144634070Y-79493407D01*
X144709771Y-79535246D01*
X144715663Y-79538948D01*
X144961441Y-79713337D01*
X144966882Y-79717675D01*
X145191591Y-79918488D01*
X145196511Y-79923408D01*
X145397324Y-80148117D01*
X145401662Y-80153558D01*
X145576051Y-80399336D01*
X145579753Y-80405228D01*
X145675003Y-80577568D01*
X145721585Y-80661853D01*
X145725529Y-80668988D01*
X145728546Y-80675253D01*
X145768841Y-80772534D01*
X145843872Y-80953676D01*
X145846170Y-80960243D01*
X145929599Y-81249832D01*
X145931147Y-81256616D01*
X145981628Y-81553718D01*
X145982407Y-81560632D01*
X145999402Y-81863264D01*
X145999500Y-81866741D01*
X145999500Y-84033114D01*
X145997116Y-84057306D01*
X145994592Y-84070000D01*
X145996319Y-84078683D01*
X145997617Y-84085205D01*
X146000000Y-84109399D01*
X146000000Y-90130600D01*
X145997617Y-90154792D01*
X145994592Y-90169998D01*
X145997117Y-90182691D01*
X145999500Y-90206885D01*
X145999500Y-95217898D01*
X145979815Y-95284937D01*
X145927011Y-95330692D01*
X145862246Y-95341188D01*
X145818640Y-95336500D01*
X145818638Y-95336500D01*
X144021362Y-95336500D01*
X144021345Y-95336500D01*
X143960797Y-95343011D01*
X143960795Y-95343011D01*
X143823795Y-95394111D01*
X143706739Y-95481739D01*
X143619111Y-95598795D01*
X143568011Y-95735795D01*
X143568011Y-95735797D01*
X143561500Y-95796345D01*
X143561500Y-96210749D01*
X143553113Y-96255578D01*
X143328507Y-96834825D01*
X142963581Y-97775949D01*
X142935649Y-97818800D01*
X140993086Y-99761364D01*
X140931763Y-99794849D01*
X140862071Y-99789865D01*
X140817724Y-99761364D01*
X140725908Y-99669548D01*
X140581183Y-99578611D01*
X140419849Y-99522157D01*
X140419844Y-99522156D01*
X140250004Y-99503021D01*
X140250002Y-99503021D01*
X140250000Y-99503021D01*
X140233626Y-99504865D01*
X140165178Y-99512576D01*
X140160471Y-99512925D01*
X140144965Y-99513484D01*
X140144943Y-99513486D01*
X140126821Y-99516761D01*
X140122738Y-99517359D01*
X140080151Y-99522157D01*
X140080146Y-99522158D01*
X140071439Y-99525205D01*
X140052539Y-99530186D01*
X139689233Y-99595843D01*
X139667181Y-99597820D01*
X138862749Y-99597820D01*
X138795710Y-99578135D01*
X138749955Y-99525331D01*
X138740011Y-99456173D01*
X138757550Y-99408175D01*
X138789484Y-99356999D01*
X138806994Y-99334974D01*
X143904533Y-94237435D01*
X143907208Y-94234916D01*
X143954215Y-94193273D01*
X143989870Y-94141615D01*
X143992067Y-94138631D01*
X143997979Y-94131086D01*
X144030775Y-94089226D01*
X144035033Y-94079764D01*
X144046060Y-94060213D01*
X144051954Y-94051675D01*
X144074213Y-93992978D01*
X144075622Y-93989577D01*
X144101389Y-93932329D01*
X144103260Y-93922116D01*
X144109288Y-93900495D01*
X144112965Y-93890801D01*
X144120527Y-93828521D01*
X144121090Y-93824817D01*
X144124163Y-93808049D01*
X144132402Y-93763092D01*
X144128613Y-93700447D01*
X144128500Y-93696703D01*
X144128500Y-89516160D01*
X144131529Y-89491286D01*
X144131252Y-89491239D01*
X144132000Y-89486898D01*
X144132006Y-89486878D01*
X144180280Y-89004121D01*
X144181209Y-88991886D01*
X144181585Y-88984643D01*
X144181211Y-88970089D01*
X144181580Y-88961571D01*
X144183299Y-88946320D01*
X144180107Y-88917994D01*
X144179740Y-88912680D01*
X144179548Y-88905157D01*
X144178949Y-88902775D01*
X144177474Y-88894626D01*
X144164162Y-88776470D01*
X144107709Y-88615137D01*
X144016771Y-88470411D01*
X143895909Y-88349549D01*
X143895908Y-88349549D01*
X143895908Y-88349548D01*
X143751183Y-88258611D01*
X143589849Y-88202157D01*
X143589844Y-88202156D01*
X143420004Y-88183021D01*
X143420001Y-88183021D01*
X143420000Y-88183021D01*
X143410854Y-88184051D01*
X143388602Y-88186558D01*
X143369378Y-88187222D01*
X143356097Y-88186649D01*
X143356095Y-88186649D01*
X143356092Y-88186649D01*
X143117784Y-88210479D01*
X142879464Y-88234311D01*
X142879414Y-88234317D01*
X142856232Y-88237309D01*
X142848288Y-88237820D01*
X139022573Y-88237820D01*
X138955534Y-88218135D01*
X138909779Y-88165331D01*
X138899835Y-88096173D01*
X138928860Y-88032617D01*
X138949684Y-88013504D01*
X139067613Y-87927824D01*
X139188367Y-87793713D01*
X139278599Y-87637427D01*
X139334365Y-87465795D01*
X139353229Y-87286320D01*
X139334365Y-87106845D01*
X139278599Y-86935213D01*
X139188367Y-86778927D01*
X139141071Y-86726399D01*
X139067618Y-86644820D01*
X139067615Y-86644818D01*
X139067614Y-86644817D01*
X139067613Y-86644816D01*
X138921615Y-86538742D01*
X138921614Y-86538741D01*
X138756757Y-86465341D01*
X138756751Y-86465339D01*
X138616576Y-86435545D01*
X138580232Y-86427820D01*
X138399768Y-86427820D01*
X138399765Y-86427820D01*
X138363406Y-86435547D01*
X138359284Y-86436279D01*
X138200965Y-86458896D01*
X138131816Y-86448890D01*
X138079053Y-86403087D01*
X138066387Y-86377095D01*
X138037710Y-86295138D01*
X137946771Y-86150411D01*
X137825908Y-86029548D01*
X137681183Y-85938611D01*
X137519849Y-85882157D01*
X137519844Y-85882156D01*
X137350004Y-85863021D01*
X137349996Y-85863021D01*
X137180151Y-85882157D01*
X137180150Y-85882157D01*
X137123709Y-85901906D01*
X137103800Y-85907065D01*
X137085857Y-85910154D01*
X137085850Y-85910156D01*
X136772098Y-86011786D01*
X136733887Y-86017820D01*
X135706112Y-86017820D01*
X135667901Y-86011786D01*
X135441995Y-85938611D01*
X135354149Y-85910156D01*
X135343419Y-85907065D01*
X135321808Y-85900839D01*
X135316465Y-85899797D01*
X135316540Y-85899410D01*
X135295933Y-85894783D01*
X135275515Y-85887639D01*
X135259850Y-85882158D01*
X135259848Y-85882157D01*
X135259843Y-85882156D01*
X135090004Y-85863021D01*
X135089996Y-85863021D01*
X134920155Y-85882156D01*
X134920150Y-85882157D01*
X134758816Y-85938611D01*
X134614091Y-86029548D01*
X134493228Y-86150411D01*
X134402289Y-86295139D01*
X134363613Y-86405669D01*
X134322892Y-86462445D01*
X134257939Y-86488192D01*
X134229036Y-86487468D01*
X133870697Y-86436277D01*
X133866580Y-86435546D01*
X133847647Y-86431521D01*
X133830233Y-86427820D01*
X133830232Y-86427820D01*
X133812988Y-86427820D01*
X133806361Y-86427465D01*
X133799333Y-86426709D01*
X133799299Y-86426706D01*
X133799290Y-86426705D01*
X133799279Y-86426704D01*
X133799243Y-86426701D01*
X133788757Y-86425943D01*
X133788741Y-86425942D01*
X133697164Y-86427409D01*
X133690932Y-86427820D01*
X133649768Y-86427820D01*
X133618825Y-86434396D01*
X133473248Y-86465339D01*
X133473242Y-86465341D01*
X133308386Y-86538741D01*
X133308381Y-86538744D01*
X133162388Y-86644814D01*
X133162381Y-86644820D01*
X133041632Y-86778928D01*
X132951400Y-86935214D01*
X132895635Y-87106843D01*
X132876771Y-87286319D01*
X132895635Y-87465796D01*
X132940419Y-87603630D01*
X132951401Y-87637427D01*
X133041633Y-87793713D01*
X133083696Y-87840428D01*
X133162381Y-87927819D01*
X133162384Y-87927821D01*
X133162387Y-87927824D01*
X133280313Y-88013503D01*
X133322978Y-88068832D01*
X133328957Y-88138445D01*
X133296351Y-88200240D01*
X133235512Y-88234598D01*
X133207427Y-88237820D01*
X132549841Y-88237820D01*
X132524967Y-88234790D01*
X132524920Y-88235068D01*
X132520563Y-88234315D01*
X132520559Y-88234314D01*
X132179822Y-88200240D01*
X132037724Y-88186030D01*
X132037719Y-88186029D01*
X132037713Y-88186029D01*
X132025307Y-88185092D01*
X132025308Y-88185092D01*
X132025281Y-88185090D01*
X132017983Y-88184715D01*
X132003630Y-88185088D01*
X131995072Y-88184719D01*
X131980003Y-88183021D01*
X131980001Y-88183021D01*
X131980000Y-88183021D01*
X131953301Y-88186029D01*
X131951739Y-88186205D01*
X131946409Y-88186574D01*
X131938842Y-88186770D01*
X131938823Y-88186773D01*
X131936432Y-88187373D01*
X131928282Y-88188848D01*
X131810157Y-88202156D01*
X131810152Y-88202157D01*
X131648817Y-88258610D01*
X131504094Y-88349546D01*
X131391970Y-88461670D01*
X131330647Y-88495154D01*
X131260955Y-88490170D01*
X131216608Y-88461669D01*
X129324431Y-86569492D01*
X129297650Y-86529503D01*
X129286773Y-86503399D01*
X128809123Y-85357033D01*
X130775000Y-85357033D01*
X130790418Y-85508658D01*
X130851299Y-85702701D01*
X130851304Y-85702711D01*
X130950005Y-85880535D01*
X130950005Y-85880536D01*
X131082478Y-86034850D01*
X131082479Y-86034851D01*
X131243304Y-86159338D01*
X131425907Y-86248909D01*
X131525000Y-86274564D01*
X131525000Y-85522430D01*
X131549457Y-85561930D01*
X131638962Y-85629521D01*
X131746840Y-85660215D01*
X131858521Y-85649866D01*
X131958922Y-85599872D01*
X132025000Y-85527389D01*
X132025000Y-86279686D01*
X132026944Y-86279389D01*
X132026945Y-86279389D01*
X132217660Y-86208756D01*
X132217664Y-86208754D01*
X132390267Y-86101170D01*
X132537668Y-85961055D01*
X132537669Y-85961053D01*
X132653856Y-85794124D01*
X132734059Y-85607227D01*
X132775000Y-85408010D01*
X132775000Y-85006320D01*
X132075000Y-85006320D01*
X132075000Y-84506320D01*
X132672939Y-84506320D01*
X132739978Y-84526005D01*
X132774242Y-84558811D01*
X132776642Y-84562212D01*
X132845851Y-84636316D01*
X132875245Y-84667789D01*
X132998672Y-84742846D01*
X133137772Y-84781820D01*
X133137773Y-84781820D01*
X133245950Y-84781820D01*
X133257502Y-84780231D01*
X133353111Y-84767091D01*
X133485609Y-84709539D01*
X133575603Y-84636323D01*
X135086701Y-84636323D01*
X135105836Y-84806164D01*
X135105837Y-84806169D01*
X135162291Y-84967503D01*
X135221811Y-85062229D01*
X135253229Y-85112229D01*
X135374091Y-85233091D01*
X135518817Y-85324029D01*
X135644067Y-85367856D01*
X135680150Y-85380482D01*
X135680155Y-85380483D01*
X135849996Y-85399619D01*
X135850000Y-85399619D01*
X135850004Y-85399619D01*
X136019843Y-85380483D01*
X136019843Y-85380482D01*
X136019850Y-85380482D01*
X136076302Y-85360727D01*
X136096209Y-85355570D01*
X136114149Y-85352483D01*
X136114154Y-85352481D01*
X136114156Y-85352481D01*
X136311787Y-85288464D01*
X136381630Y-85286531D01*
X136388187Y-85288456D01*
X136585849Y-85352483D01*
X136618194Y-85361800D01*
X136618211Y-85361801D01*
X136623540Y-85362842D01*
X136623463Y-85363233D01*
X136644064Y-85367854D01*
X136680150Y-85380482D01*
X136680154Y-85380482D01*
X136680156Y-85380483D01*
X136849996Y-85399619D01*
X136850000Y-85399619D01*
X136850004Y-85399619D01*
X137019844Y-85380483D01*
X137019847Y-85380482D01*
X137019850Y-85380482D01*
X137181183Y-85324029D01*
X137325909Y-85233091D01*
X137446771Y-85112229D01*
X137537709Y-84967503D01*
X137594162Y-84806170D01*
X137599796Y-84756169D01*
X137613299Y-84636323D01*
X137613299Y-84636316D01*
X137594163Y-84466475D01*
X137594162Y-84466470D01*
X137576666Y-84416470D01*
X137537709Y-84305137D01*
X137529781Y-84292519D01*
X138460796Y-84292519D01*
X138481077Y-84390116D01*
X138490186Y-84433954D01*
X138490187Y-84433956D01*
X138556645Y-84562213D01*
X138556649Y-84562219D01*
X138625851Y-84636316D01*
X138655245Y-84667789D01*
X138778672Y-84742846D01*
X138917772Y-84781820D01*
X138917773Y-84781820D01*
X139025950Y-84781820D01*
X139037502Y-84780231D01*
X139133111Y-84767091D01*
X139265609Y-84709539D01*
X139377665Y-84618374D01*
X139417309Y-84562212D01*
X139419710Y-84558811D01*
X139474453Y-84515394D01*
X139521014Y-84506320D01*
X140125000Y-84506320D01*
X140125000Y-85006320D01*
X139425000Y-85006320D01*
X139425000Y-85357033D01*
X139440418Y-85508658D01*
X139501299Y-85702701D01*
X139501304Y-85702711D01*
X139600005Y-85880535D01*
X139600005Y-85880536D01*
X139732478Y-86034850D01*
X139732479Y-86034851D01*
X139893304Y-86159338D01*
X140075907Y-86248909D01*
X140175000Y-86274564D01*
X140175000Y-85522430D01*
X140199457Y-85561930D01*
X140288962Y-85629521D01*
X140396840Y-85660215D01*
X140508521Y-85649866D01*
X140608922Y-85599872D01*
X140675000Y-85527389D01*
X140675000Y-86279686D01*
X140676944Y-86279389D01*
X140676945Y-86279389D01*
X140867660Y-86208756D01*
X140867664Y-86208754D01*
X141040267Y-86101170D01*
X141187668Y-85961055D01*
X141187669Y-85961053D01*
X141303856Y-85794124D01*
X141384059Y-85607227D01*
X141425000Y-85408010D01*
X141425000Y-85006320D01*
X140725000Y-85006320D01*
X140725000Y-84506320D01*
X141425000Y-84506320D01*
X141425000Y-84155606D01*
X141409581Y-84003981D01*
X141348700Y-83809938D01*
X141348695Y-83809928D01*
X141249994Y-83632104D01*
X141249994Y-83632103D01*
X141117521Y-83477789D01*
X141117520Y-83477788D01*
X140956695Y-83353301D01*
X140774093Y-83263731D01*
X140675000Y-83238073D01*
X140675000Y-83990209D01*
X140650543Y-83950710D01*
X140561038Y-83883119D01*
X140453160Y-83852425D01*
X140341479Y-83862774D01*
X140241078Y-83912768D01*
X140175000Y-83985250D01*
X140175000Y-83232953D01*
X140173053Y-83233251D01*
X140173047Y-83233253D01*
X139982342Y-83303882D01*
X139982335Y-83303885D01*
X139809732Y-83411469D01*
X139662331Y-83551584D01*
X139662330Y-83551586D01*
X139546144Y-83718513D01*
X139513448Y-83794706D01*
X139468921Y-83848549D01*
X139402352Y-83869772D01*
X139334877Y-83851636D01*
X139328523Y-83847142D01*
X139201330Y-83769795D01*
X139201329Y-83769794D01*
X139201328Y-83769794D01*
X139062228Y-83730820D01*
X138954051Y-83730820D01*
X138954050Y-83730820D01*
X138846889Y-83745549D01*
X138714389Y-83803101D01*
X138714389Y-83803102D01*
X138602338Y-83894263D01*
X138602333Y-83894268D01*
X138519028Y-84012283D01*
X138470654Y-84148394D01*
X138470654Y-84148397D01*
X138470653Y-84148399D01*
X138470654Y-84148399D01*
X138460796Y-84292519D01*
X137529781Y-84292519D01*
X137446771Y-84160411D01*
X137325909Y-84039549D01*
X137325908Y-84039548D01*
X137181183Y-83948611D01*
X137019849Y-83892157D01*
X137019844Y-83892156D01*
X136850004Y-83873021D01*
X136849996Y-83873021D01*
X136680151Y-83892157D01*
X136680150Y-83892157D01*
X136623709Y-83911906D01*
X136603800Y-83917065D01*
X136585859Y-83920154D01*
X136585852Y-83920155D01*
X136585851Y-83920156D01*
X136585847Y-83920157D01*
X136585848Y-83920157D01*
X136388209Y-83984174D01*
X136318366Y-83986105D01*
X136311788Y-83984174D01*
X136114146Y-83920155D01*
X136081808Y-83910839D01*
X136076465Y-83909797D01*
X136076540Y-83909410D01*
X136055933Y-83904783D01*
X136025880Y-83894268D01*
X136019850Y-83892158D01*
X136019848Y-83892157D01*
X136019843Y-83892156D01*
X135850004Y-83873021D01*
X135849996Y-83873021D01*
X135680155Y-83892156D01*
X135680150Y-83892157D01*
X135518816Y-83948611D01*
X135374091Y-84039548D01*
X135253228Y-84160411D01*
X135162291Y-84305136D01*
X135105837Y-84466470D01*
X135105836Y-84466475D01*
X135086701Y-84636316D01*
X135086701Y-84636323D01*
X133575603Y-84636323D01*
X133597665Y-84618374D01*
X133680971Y-84500357D01*
X133720150Y-84390116D01*
X133729345Y-84364245D01*
X133729345Y-84364243D01*
X133729346Y-84364241D01*
X133739204Y-84220121D01*
X133709814Y-84078686D01*
X133643354Y-83950425D01*
X133643351Y-83950422D01*
X133643350Y-83950420D01*
X133544754Y-83844850D01*
X133421330Y-83769795D01*
X133421329Y-83769794D01*
X133421328Y-83769794D01*
X133282228Y-83730820D01*
X133174051Y-83730820D01*
X133174050Y-83730820D01*
X133066889Y-83745549D01*
X132934389Y-83803101D01*
X132934388Y-83803102D01*
X132884239Y-83843902D01*
X132819813Y-83870940D01*
X132750996Y-83858855D01*
X132699638Y-83811483D01*
X132697565Y-83807892D01*
X132599994Y-83632104D01*
X132599994Y-83632103D01*
X132467521Y-83477789D01*
X132467520Y-83477788D01*
X132306695Y-83353301D01*
X132124093Y-83263731D01*
X132025000Y-83238073D01*
X132025000Y-83990209D01*
X132000543Y-83950710D01*
X131911038Y-83883119D01*
X131803160Y-83852425D01*
X131691479Y-83862774D01*
X131591078Y-83912768D01*
X131524999Y-83985251D01*
X131525000Y-83232953D01*
X131523053Y-83233251D01*
X131523047Y-83233253D01*
X131332342Y-83303882D01*
X131332335Y-83303885D01*
X131159732Y-83411469D01*
X131012331Y-83551584D01*
X131012330Y-83551586D01*
X130896143Y-83718515D01*
X130815940Y-83905412D01*
X130775000Y-84104629D01*
X130775000Y-84506320D01*
X131475000Y-84506320D01*
X131475000Y-85006320D01*
X130775000Y-85006320D01*
X130775000Y-85357033D01*
X128809123Y-85357033D01*
X128678038Y-85042428D01*
X128668500Y-84994736D01*
X128668500Y-84587682D01*
X128668499Y-84587665D01*
X128665157Y-84556590D01*
X128661989Y-84527119D01*
X128661573Y-84526005D01*
X128639368Y-84466470D01*
X128610889Y-84390116D01*
X128523261Y-84273059D01*
X128406204Y-84185431D01*
X128406203Y-84185430D01*
X128269203Y-84134331D01*
X128208654Y-84127820D01*
X128208638Y-84127820D01*
X126411362Y-84127820D01*
X126411345Y-84127820D01*
X126343088Y-84135160D01*
X126342884Y-84133267D01*
X126283227Y-84130060D01*
X126226562Y-84089183D01*
X126200992Y-84024161D01*
X126200500Y-84013130D01*
X126200500Y-83232953D01*
X126200500Y-81866705D01*
X126200597Y-81863264D01*
X126217593Y-81560619D01*
X126218369Y-81553732D01*
X126268852Y-81256615D01*
X126270400Y-81249832D01*
X126271281Y-81246774D01*
X126326529Y-81055002D01*
X127026751Y-81055002D01*
X127033807Y-81131158D01*
X127034001Y-81133927D01*
X127037791Y-81213470D01*
X127037792Y-81213475D01*
X127041555Y-81228986D01*
X127044521Y-81246774D01*
X127045115Y-81253179D01*
X127045706Y-81259559D01*
X127067541Y-81336305D01*
X127068152Y-81338621D01*
X127087701Y-81419201D01*
X127087702Y-81419206D01*
X127092891Y-81430568D01*
X127099359Y-81448134D01*
X127101922Y-81457141D01*
X127101928Y-81457158D01*
X127138940Y-81531487D01*
X127139838Y-81533367D01*
X127175641Y-81611765D01*
X127175647Y-81611776D01*
X127180879Y-81619123D01*
X127190868Y-81635771D01*
X127193497Y-81641050D01*
X127232157Y-81692244D01*
X127245512Y-81709929D01*
X127246526Y-81711310D01*
X127298441Y-81784215D01*
X127298443Y-81784217D01*
X127298444Y-81784218D01*
X127298445Y-81784219D01*
X127302459Y-81788047D01*
X127315837Y-81803057D01*
X127317292Y-81804983D01*
X127317295Y-81804987D01*
X127317298Y-81804989D01*
X127317299Y-81804991D01*
X127383536Y-81865374D01*
X127384530Y-81866301D01*
X127422708Y-81902703D01*
X127451654Y-81930303D01*
X127453398Y-81931424D01*
X127464519Y-81939970D01*
X127464544Y-81939938D01*
X127469119Y-81943393D01*
X127548571Y-81992588D01*
X127629747Y-82044757D01*
X127635000Y-82047465D01*
X127634966Y-82047529D01*
X127638488Y-82049308D01*
X127638650Y-82048984D01*
X127643773Y-82051534D01*
X127643782Y-82051540D01*
X127733782Y-82086405D01*
X127826279Y-82123435D01*
X127826279Y-82123436D01*
X127826517Y-82123482D01*
X127831752Y-82124729D01*
X127835337Y-82125748D01*
X127835345Y-82125751D01*
X127933229Y-82144048D01*
X128034151Y-82163500D01*
X128034156Y-82163500D01*
X128242716Y-82163500D01*
X128242718Y-82163500D01*
X128292132Y-82154262D01*
X128297575Y-82153494D01*
X128350739Y-82148419D01*
X128395668Y-82135225D01*
X128401720Y-82133776D01*
X128444655Y-82125751D01*
X128494560Y-82106417D01*
X128499487Y-82104743D01*
X128549366Y-82090097D01*
X128553862Y-82088777D01*
X128555903Y-82087725D01*
X128592542Y-82068835D01*
X128598550Y-82066131D01*
X128636218Y-82051540D01*
X128684526Y-82021627D01*
X128688748Y-82019236D01*
X128742026Y-81991771D01*
X128773656Y-81966896D01*
X128779336Y-81962923D01*
X128810882Y-81943392D01*
X128855310Y-81902889D01*
X128858721Y-81900000D01*
X128908432Y-81860908D01*
X128932627Y-81832984D01*
X128937708Y-81827774D01*
X128941499Y-81824318D01*
X128962701Y-81804991D01*
X129000893Y-81754414D01*
X129003514Y-81751177D01*
X129009668Y-81744075D01*
X129047065Y-81700918D01*
X129063897Y-81671761D01*
X129068111Y-81665403D01*
X129086503Y-81641050D01*
X129116221Y-81581366D01*
X129118022Y-81578014D01*
X129122077Y-81570990D01*
X129152913Y-81517582D01*
X129162846Y-81488881D01*
X129165925Y-81481547D01*
X129178074Y-81457152D01*
X129197224Y-81389842D01*
X129198248Y-81386593D01*
X129222153Y-81317527D01*
X129226006Y-81290722D01*
X129227738Y-81282597D01*
X129234294Y-81259559D01*
X129241051Y-81186636D01*
X129241416Y-81183550D01*
X129248559Y-81133872D01*
X129252281Y-81107984D01*
X129251149Y-81084236D01*
X129251342Y-81075564D01*
X129253249Y-81055000D01*
X129246191Y-80978839D01*
X129245996Y-80976067D01*
X129245648Y-80968767D01*
X129242208Y-80896526D01*
X129238441Y-80881002D01*
X129235478Y-80863229D01*
X129234294Y-80850441D01*
X129212449Y-80773666D01*
X129211843Y-80771364D01*
X129209737Y-80762684D01*
X129192298Y-80690796D01*
X129187107Y-80679430D01*
X129180636Y-80661853D01*
X129180460Y-80661235D01*
X129178074Y-80652848D01*
X129141043Y-80578482D01*
X129140149Y-80576607D01*
X129115807Y-80523305D01*
X129104356Y-80498229D01*
X129099121Y-80490877D01*
X129089129Y-80474224D01*
X129086503Y-80468950D01*
X129068115Y-80444601D01*
X129034487Y-80400070D01*
X129033460Y-80398670D01*
X128981558Y-80325784D01*
X128981554Y-80325780D01*
X128977546Y-80321958D01*
X128964153Y-80306931D01*
X128962708Y-80305018D01*
X128962704Y-80305013D01*
X128962701Y-80305009D01*
X128896418Y-80244585D01*
X128895468Y-80243698D01*
X128828343Y-80179694D01*
X128826601Y-80178575D01*
X128815480Y-80170029D01*
X128815456Y-80170062D01*
X128810877Y-80166604D01*
X128731442Y-80117420D01*
X128650258Y-80065246D01*
X128644999Y-80062535D01*
X128645032Y-80062470D01*
X128641512Y-80060692D01*
X128641351Y-80061016D01*
X128636222Y-80058462D01*
X128636218Y-80058460D01*
X128622317Y-80053075D01*
X128546235Y-80023601D01*
X128453722Y-79986564D01*
X128453714Y-79986562D01*
X128453470Y-79986515D01*
X128448257Y-79985273D01*
X128444658Y-79984249D01*
X128346677Y-79965933D01*
X128245850Y-79946500D01*
X128245849Y-79946500D01*
X128242718Y-79946500D01*
X128037282Y-79946500D01*
X128037276Y-79946500D01*
X127987885Y-79955732D01*
X127982386Y-79956507D01*
X127929265Y-79961580D01*
X127929261Y-79961580D01*
X127929261Y-79961581D01*
X127909943Y-79967253D01*
X127884348Y-79974768D01*
X127878271Y-79976224D01*
X127835351Y-79984247D01*
X127835338Y-79984250D01*
X127785438Y-80003582D01*
X127780509Y-80005257D01*
X127726140Y-80021222D01*
X127687459Y-80041162D01*
X127681445Y-80043868D01*
X127643781Y-80058460D01*
X127643780Y-80058460D01*
X127595474Y-80088370D01*
X127591245Y-80090764D01*
X127537977Y-80118226D01*
X127506354Y-80143094D01*
X127500665Y-80147073D01*
X127469116Y-80166609D01*
X127424708Y-80207091D01*
X127421266Y-80210006D01*
X127371565Y-80249093D01*
X127347377Y-80277006D01*
X127342290Y-80282224D01*
X127317301Y-80305006D01*
X127279111Y-80355576D01*
X127276491Y-80358813D01*
X127232936Y-80409079D01*
X127216104Y-80438233D01*
X127211884Y-80444601D01*
X127193496Y-80468951D01*
X127193491Y-80468960D01*
X127163781Y-80528622D01*
X127161976Y-80531985D01*
X127127088Y-80592415D01*
X127117158Y-80621103D01*
X127114067Y-80628463D01*
X127101928Y-80652842D01*
X127101923Y-80652856D01*
X127082782Y-80720128D01*
X127081739Y-80723437D01*
X127057846Y-80792475D01*
X127053994Y-80819258D01*
X127052258Y-80827404D01*
X127045706Y-80850437D01*
X127038949Y-80923351D01*
X127038582Y-80926453D01*
X127027719Y-81002010D01*
X127027719Y-81002015D01*
X127028850Y-81025765D01*
X127028656Y-81034435D01*
X127027555Y-81046323D01*
X127026751Y-81055002D01*
X126326529Y-81055002D01*
X126353830Y-80960237D01*
X126356123Y-80953685D01*
X126471459Y-80675238D01*
X126474462Y-80669003D01*
X126620248Y-80405223D01*
X126623944Y-80399342D01*
X126780586Y-80178575D01*
X126798337Y-80153558D01*
X126802669Y-80148124D01*
X127003490Y-79923405D01*
X127008408Y-79918488D01*
X127233124Y-79717669D01*
X127238558Y-79713337D01*
X127372197Y-79618515D01*
X127484342Y-79538944D01*
X127490223Y-79535248D01*
X127754003Y-79389462D01*
X127760238Y-79386459D01*
X128038685Y-79271123D01*
X128045237Y-79268830D01*
X128334836Y-79185399D01*
X128341616Y-79183852D01*
X128638732Y-79133369D01*
X128645621Y-79132593D01*
X128804630Y-79123663D01*
X128948265Y-79115598D01*
X128951742Y-79115500D01*
X128994170Y-79115500D01*
X131055465Y-79115500D01*
X131122504Y-79135185D01*
G37*
%TD.AperFunction*%
%TA.AperFunction,Conductor*%
G36*
X142654539Y-89674505D02*
G01*
X142700294Y-89727309D01*
X142711500Y-89778820D01*
X142711500Y-93375166D01*
X142691815Y-93442205D01*
X142675181Y-93462847D01*
X137801305Y-98336723D01*
X137781863Y-98352577D01*
X137352693Y-98635441D01*
X137334899Y-98645181D01*
X137318893Y-98652308D01*
X137318882Y-98652314D01*
X137172888Y-98758386D01*
X137172881Y-98758391D01*
X137052131Y-98892499D01*
X137009887Y-98965669D01*
X136959320Y-99013885D01*
X136890713Y-99027107D01*
X136825848Y-99001139D01*
X136785320Y-98944225D01*
X136778500Y-98903669D01*
X136778500Y-97344120D01*
X136798185Y-97277081D01*
X136814814Y-97256444D01*
X140601633Y-93469624D01*
X140631145Y-93447797D01*
X141075430Y-93211840D01*
X141101302Y-93197122D01*
X141101302Y-93197121D01*
X141105936Y-93194486D01*
X141106113Y-93194797D01*
X141118316Y-93187950D01*
X141141615Y-93177578D01*
X141287613Y-93071504D01*
X141291328Y-93067379D01*
X141330906Y-93023422D01*
X141408367Y-92937393D01*
X141498599Y-92781107D01*
X141554365Y-92609475D01*
X141573229Y-92430000D01*
X141554365Y-92250525D01*
X141498599Y-92078893D01*
X141408367Y-91922607D01*
X141359328Y-91868144D01*
X141287618Y-91788500D01*
X141287615Y-91788498D01*
X141287614Y-91788497D01*
X141287613Y-91788496D01*
X141176144Y-91707509D01*
X141141614Y-91682421D01*
X140976757Y-91609021D01*
X140976751Y-91609019D01*
X140837750Y-91579474D01*
X140800232Y-91571500D01*
X140619768Y-91571500D01*
X140582249Y-91579474D01*
X140443249Y-91609019D01*
X140443241Y-91609022D01*
X140438554Y-91611109D01*
X140419762Y-91617386D01*
X140419785Y-91617459D01*
X140416891Y-91618345D01*
X140415907Y-91618674D01*
X140415549Y-91618756D01*
X139934553Y-91766064D01*
X139898242Y-91771500D01*
X134577801Y-91771500D01*
X134510762Y-91751815D01*
X134490120Y-91735181D01*
X132621440Y-89866501D01*
X132587955Y-89805178D01*
X132592939Y-89735486D01*
X132634811Y-89679553D01*
X132700275Y-89655136D01*
X132709121Y-89654820D01*
X142587500Y-89654820D01*
X142654539Y-89674505D01*
G37*
%TD.AperFunction*%
%TA.AperFunction,Conductor*%
G36*
X129025864Y-88148965D02*
G01*
X129069690Y-88177270D01*
X133726961Y-92834540D01*
X133737115Y-92847213D01*
X133737291Y-92847069D01*
X133742261Y-92853077D01*
X133742263Y-92853079D01*
X133742264Y-92853080D01*
X133763180Y-92872721D01*
X133794678Y-92902300D01*
X133796078Y-92903657D01*
X133817347Y-92924926D01*
X133822602Y-92929002D01*
X133823227Y-92929487D01*
X133827670Y-92933282D01*
X133863545Y-92966971D01*
X133863547Y-92966972D01*
X133882474Y-92977377D01*
X133898734Y-92988057D01*
X133912747Y-92998927D01*
X133915811Y-93001304D01*
X133960981Y-93020851D01*
X133966217Y-93023415D01*
X134009343Y-93047124D01*
X134029347Y-93052260D01*
X134030266Y-93052496D01*
X134048671Y-93058797D01*
X134068503Y-93067379D01*
X134117133Y-93075081D01*
X134122802Y-93076255D01*
X134170492Y-93088500D01*
X134192098Y-93088500D01*
X134211496Y-93090026D01*
X134232831Y-93093406D01*
X134277944Y-93089141D01*
X134281821Y-93088775D01*
X134287659Y-93088500D01*
X138820879Y-93088500D01*
X138887918Y-93108185D01*
X138933673Y-93160989D01*
X138943617Y-93230147D01*
X138914592Y-93293703D01*
X138908560Y-93300181D01*
X135715453Y-96493285D01*
X135702785Y-96503435D01*
X135702931Y-96503611D01*
X135696920Y-96508583D01*
X135647713Y-96560983D01*
X135646359Y-96562380D01*
X135625072Y-96583667D01*
X135620492Y-96589569D01*
X135616708Y-96593998D01*
X135583029Y-96629865D01*
X135583024Y-96629872D01*
X135572618Y-96648800D01*
X135561942Y-96665054D01*
X135548695Y-96682133D01*
X135529150Y-96727297D01*
X135526580Y-96732543D01*
X135502876Y-96775661D01*
X135497502Y-96796589D01*
X135491203Y-96814987D01*
X135482619Y-96834825D01*
X135474923Y-96883420D01*
X135473738Y-96889143D01*
X135461500Y-96936809D01*
X135461500Y-96958413D01*
X135459974Y-96977808D01*
X135456594Y-96999151D01*
X135461225Y-97048143D01*
X135461500Y-97053981D01*
X135461500Y-98801789D01*
X135441815Y-98868828D01*
X135389011Y-98914583D01*
X135323617Y-98925009D01*
X135278617Y-98919939D01*
X135214203Y-98892873D01*
X135174648Y-98835278D01*
X135168500Y-98796719D01*
X135168500Y-95312711D01*
X135170282Y-95296568D01*
X135170055Y-95296547D01*
X135170789Y-95288784D01*
X135168531Y-95216925D01*
X135168500Y-95214977D01*
X135168500Y-95184893D01*
X135168500Y-95184888D01*
X135167564Y-95177486D01*
X135167107Y-95171673D01*
X135165562Y-95122489D01*
X135159535Y-95101746D01*
X135155590Y-95082697D01*
X135152882Y-95061256D01*
X135134763Y-95015492D01*
X135132872Y-95009968D01*
X135127380Y-94991064D01*
X135119145Y-94962720D01*
X135108149Y-94944128D01*
X135099589Y-94926655D01*
X135091635Y-94906564D01*
X135091631Y-94906558D01*
X135062711Y-94866754D01*
X135059502Y-94861869D01*
X135047979Y-94842385D01*
X135034453Y-94819513D01*
X135034449Y-94819509D01*
X135034446Y-94819505D01*
X135019175Y-94804234D01*
X135006537Y-94789438D01*
X134993839Y-94771960D01*
X134955921Y-94740592D01*
X134951598Y-94736658D01*
X129084484Y-88869544D01*
X129055790Y-88824674D01*
X128996020Y-88662198D01*
X128865633Y-88307761D01*
X128860962Y-88238049D01*
X128894723Y-88176877D01*
X128956196Y-88143668D01*
X129025864Y-88148965D01*
G37*
%TD.AperFunction*%
%TD*%
%TA.AperFunction,Conductor*%
%TO.N,/CP2102_VDD_3.3V*%
G36*
X162115791Y-109488427D02*
G01*
X162118139Y-109491792D01*
X162745193Y-110848674D01*
X162745553Y-110857621D01*
X162739480Y-110864203D01*
X162739061Y-110864387D01*
X161969489Y-111184134D01*
X161960534Y-111184143D01*
X161960511Y-111184134D01*
X161190938Y-110864387D01*
X161184613Y-110858048D01*
X161184622Y-110849093D01*
X161184806Y-110848674D01*
X161811861Y-109491792D01*
X161818443Y-109485719D01*
X161822482Y-109485000D01*
X162107518Y-109485000D01*
X162115791Y-109488427D01*
G37*
%TD.AperFunction*%
%TD*%
%TA.AperFunction,Conductor*%
%TO.N,Net-(USB1-CC1)*%
G36*
X137253013Y-86399378D02*
G01*
X137258485Y-86405281D01*
X137349109Y-86621803D01*
X137349142Y-86630757D01*
X137349109Y-86630837D01*
X137258485Y-86847358D01*
X137252129Y-86853667D01*
X137244087Y-86853972D01*
X136858095Y-86728942D01*
X136851280Y-86723132D01*
X136850000Y-86717811D01*
X136850000Y-86534828D01*
X136853427Y-86526555D01*
X136858091Y-86523698D01*
X137244088Y-86398667D01*
X137253013Y-86399378D01*
G37*
%TD.AperFunction*%
%TD*%
%TA.AperFunction,Conductor*%
%TO.N,/CP2102_RTS*%
G36*
X168061906Y-97609378D02*
G01*
X168068720Y-97615187D01*
X168070000Y-97620508D01*
X168070000Y-97803491D01*
X168066573Y-97811764D01*
X168061905Y-97814622D01*
X167675912Y-97939652D01*
X167666986Y-97938941D01*
X167661514Y-97933038D01*
X167610854Y-97812000D01*
X167570889Y-97716515D01*
X167570857Y-97707562D01*
X167661514Y-97490960D01*
X167667870Y-97484652D01*
X167675911Y-97484347D01*
X168061906Y-97609378D01*
G37*
%TD.AperFunction*%
%TD*%
%TA.AperFunction,Conductor*%
%TO.N,/CP2102_VDD_3.3V*%
G36*
X161944478Y-101727188D02*
G01*
X162191960Y-101830464D01*
X162253945Y-101856331D01*
X162260260Y-101862680D01*
X162260750Y-101870120D01*
X162117303Y-102412638D01*
X162111875Y-102419760D01*
X162105992Y-102421347D01*
X161823274Y-102421347D01*
X161815001Y-102417920D01*
X161812243Y-102413547D01*
X161620331Y-101870694D01*
X161620804Y-101861751D01*
X161626854Y-101855997D01*
X161935494Y-101727199D01*
X161944449Y-101727177D01*
X161944478Y-101727188D01*
G37*
%TD.AperFunction*%
%TD*%
%TA.AperFunction,Conductor*%
%TO.N,/CP2102_VDD_3.3V*%
G36*
X162631726Y-101573786D02*
G01*
X162638633Y-101579485D01*
X162640000Y-101584973D01*
X162640000Y-101867666D01*
X162636573Y-101875939D01*
X162631726Y-101878853D01*
X162084079Y-102046572D01*
X162075165Y-102045718D01*
X162069855Y-102039891D01*
X161940880Y-101730826D01*
X161940857Y-101721871D01*
X161940880Y-101721814D01*
X162001596Y-101576320D01*
X162069855Y-101412747D01*
X162076204Y-101406433D01*
X162084077Y-101406067D01*
X162631726Y-101573786D01*
G37*
%TD.AperFunction*%
%TD*%
%TA.AperFunction,Conductor*%
%TO.N,Net-(USB2-CC2)*%
G36*
X165704732Y-89445924D02*
G01*
X166066084Y-89630454D01*
X166071893Y-89637268D01*
X166071588Y-89645311D01*
X165982564Y-89862496D01*
X165976255Y-89868851D01*
X165976176Y-89868884D01*
X165758991Y-89957908D01*
X165750036Y-89957875D01*
X165744134Y-89952404D01*
X165559604Y-89591053D01*
X165558894Y-89582128D01*
X165561750Y-89577462D01*
X165691141Y-89448071D01*
X165699413Y-89444645D01*
X165704732Y-89445924D01*
G37*
%TD.AperFunction*%
%TD*%
%TA.AperFunction,Conductor*%
%TO.N,/CH343_VDD_3.3V*%
G36*
X136269620Y-102849747D02*
G01*
X136272534Y-102854594D01*
X136440252Y-103402240D01*
X136439398Y-103411154D01*
X136433571Y-103416464D01*
X136124506Y-103545439D01*
X136115551Y-103545462D01*
X136115494Y-103545439D01*
X135806428Y-103416464D01*
X135800113Y-103410115D01*
X135799747Y-103402242D01*
X135967466Y-102854593D01*
X135973165Y-102847687D01*
X135978653Y-102846320D01*
X136261347Y-102846320D01*
X136269620Y-102849747D01*
G37*
%TD.AperFunction*%
%TD*%
%TA.AperFunction,Conductor*%
%TO.N,/CH343_USB_Data_N*%
G36*
X136753013Y-84409378D02*
G01*
X136758485Y-84415281D01*
X136849109Y-84631803D01*
X136849142Y-84640757D01*
X136849109Y-84640837D01*
X136758485Y-84857358D01*
X136752129Y-84863667D01*
X136744087Y-84863972D01*
X136358095Y-84738942D01*
X136351280Y-84733132D01*
X136350000Y-84727811D01*
X136350000Y-84544828D01*
X136353427Y-84536555D01*
X136358091Y-84533698D01*
X136744088Y-84408667D01*
X136753013Y-84409378D01*
G37*
%TD.AperFunction*%
%TD*%
%TA.AperFunction,Conductor*%
%TO.N,/CH343_VDD_5V*%
G36*
X143657124Y-88946268D02*
G01*
X143665382Y-88949728D01*
X143668776Y-88958015D01*
X143668718Y-88959132D01*
X143621054Y-89435784D01*
X143616821Y-89443675D01*
X143609412Y-89446320D01*
X143230588Y-89446320D01*
X143222315Y-89442893D01*
X143218946Y-89435784D01*
X143171281Y-88959132D01*
X143173868Y-88950559D01*
X143181759Y-88946326D01*
X143182865Y-88946268D01*
X143420000Y-88945320D01*
X143657124Y-88946268D01*
G37*
%TD.AperFunction*%
%TD*%
%TA.AperFunction,Conductor*%
%TO.N,/CH343_DSR*%
G36*
X133158883Y-101315679D02*
G01*
X133165192Y-101322035D01*
X133165497Y-101330077D01*
X133040467Y-101716070D01*
X133034657Y-101722885D01*
X133029336Y-101724165D01*
X132846354Y-101724165D01*
X132838081Y-101720738D01*
X132835223Y-101716070D01*
X132710192Y-101330077D01*
X132710903Y-101321151D01*
X132716805Y-101315679D01*
X132933329Y-101225054D01*
X132942282Y-101225022D01*
X133158883Y-101315679D01*
G37*
%TD.AperFunction*%
%TD*%
%TA.AperFunction,Conductor*%
%TO.N,/CH343_USB_Data_N*%
G36*
X136341906Y-84533698D02*
G01*
X136348720Y-84539507D01*
X136350000Y-84544828D01*
X136350000Y-84727811D01*
X136346573Y-84736084D01*
X136341905Y-84738942D01*
X135955912Y-84863972D01*
X135946986Y-84863261D01*
X135941514Y-84857358D01*
X135850889Y-84640835D01*
X135850857Y-84631883D01*
X135941514Y-84415280D01*
X135947870Y-84408972D01*
X135955911Y-84408667D01*
X136341906Y-84533698D01*
G37*
%TD.AperFunction*%
%TD*%
%TA.AperFunction,Conductor*%
%TO.N,Net-(F1-Pad1)*%
G36*
X138485358Y-86940444D02*
G01*
X138489920Y-86948149D01*
X138490038Y-86949771D01*
X138491000Y-87286353D01*
X138490038Y-87622868D01*
X138486587Y-87631132D01*
X138478305Y-87634535D01*
X138476683Y-87634417D01*
X137800045Y-87537755D01*
X137792340Y-87533193D01*
X137790000Y-87526173D01*
X137790000Y-87046467D01*
X137793427Y-87038194D01*
X137800045Y-87034885D01*
X138476684Y-86938222D01*
X138485358Y-86940444D01*
G37*
%TD.AperFunction*%
%TD*%
%TA.AperFunction,Conductor*%
%TO.N,/CP2102_VDD_3.3V*%
G36*
X167733573Y-101489034D02*
G01*
X167738121Y-101494411D01*
X167830083Y-101714130D01*
X167830990Y-101718694D01*
X167830055Y-101952373D01*
X167826595Y-101960632D01*
X167818308Y-101964026D01*
X167816274Y-101963839D01*
X167341608Y-101878058D01*
X167334076Y-101873215D01*
X167331989Y-101866545D01*
X167331989Y-101585666D01*
X167335415Y-101577396D01*
X167341104Y-101574258D01*
X167724748Y-101487516D01*
X167733573Y-101489034D01*
G37*
%TD.AperFunction*%
%TD*%
%TA.AperFunction,Conductor*%
%TO.N,/CH343_VDD_3.3V*%
G36*
X140574834Y-92110601D02*
G01*
X140580144Y-92116428D01*
X140709119Y-92425494D01*
X140709142Y-92434449D01*
X140709119Y-92434506D01*
X140580144Y-92743571D01*
X140573795Y-92749886D01*
X140565920Y-92750252D01*
X140018274Y-92582533D01*
X140011367Y-92576834D01*
X140010000Y-92571346D01*
X140010000Y-92288653D01*
X140013427Y-92280380D01*
X140018274Y-92277466D01*
X140565921Y-92109747D01*
X140574834Y-92110601D01*
G37*
%TD.AperFunction*%
%TD*%
%TA.AperFunction,Conductor*%
%TO.N,Net-(USB2-CC2)*%
G36*
X163231906Y-87523698D02*
G01*
X163238720Y-87529507D01*
X163240000Y-87534828D01*
X163240000Y-87717811D01*
X163236573Y-87726084D01*
X163231905Y-87728942D01*
X162845912Y-87853972D01*
X162836986Y-87853261D01*
X162831514Y-87847358D01*
X162740889Y-87630835D01*
X162740857Y-87621883D01*
X162831514Y-87405280D01*
X162837870Y-87398972D01*
X162845911Y-87398667D01*
X163231906Y-87523698D01*
G37*
%TD.AperFunction*%
%TD*%
%TA.AperFunction,Conductor*%
%TO.N,/CH343_RI*%
G36*
X144081052Y-96347483D02*
G01*
X144190694Y-96392769D01*
X144916216Y-96692438D01*
X144922553Y-96698763D01*
X144922562Y-96698784D01*
X145267516Y-97533947D01*
X145267507Y-97542902D01*
X145261169Y-97549228D01*
X145260932Y-97549323D01*
X143546780Y-98213994D01*
X143537827Y-98213790D01*
X143534277Y-98211358D01*
X143403641Y-98080722D01*
X143400214Y-98072449D01*
X143401003Y-98068225D01*
X144065677Y-96354065D01*
X144071862Y-96347592D01*
X144080815Y-96347388D01*
X144081052Y-96347483D01*
G37*
%TD.AperFunction*%
%TD*%
%TA.AperFunction,Conductor*%
%TO.N,/CH343_VDD_5V*%
G36*
X128093343Y-90245553D02*
G01*
X128099668Y-90251892D01*
X128099707Y-90251987D01*
X128650613Y-91619805D01*
X128650525Y-91628759D01*
X128648033Y-91632449D01*
X128376129Y-91904353D01*
X128367856Y-91907780D01*
X128363485Y-91906933D01*
X126995667Y-91356027D01*
X126989273Y-91349757D01*
X126989185Y-91340803D01*
X126989224Y-91340708D01*
X127307438Y-90570103D01*
X127313759Y-90563768D01*
X128084388Y-90245544D01*
X128093343Y-90245553D01*
G37*
%TD.AperFunction*%
%TD*%
%TA.AperFunction,Conductor*%
%TO.N,/CP2102_USB_Data_P*%
G36*
X164643013Y-84359378D02*
G01*
X164648485Y-84365281D01*
X164739109Y-84581803D01*
X164739142Y-84590757D01*
X164739109Y-84590837D01*
X164648485Y-84807358D01*
X164642129Y-84813667D01*
X164634087Y-84813972D01*
X164248095Y-84688942D01*
X164241280Y-84683132D01*
X164240000Y-84677811D01*
X164240000Y-84494828D01*
X164243427Y-84486555D01*
X164248091Y-84483698D01*
X164634088Y-84358667D01*
X164643013Y-84359378D01*
G37*
%TD.AperFunction*%
%TD*%
%TA.AperFunction,Conductor*%
%TO.N,/CP2102_CTS*%
G36*
X172055490Y-102684504D02*
G01*
X173493396Y-103165724D01*
X173500154Y-103171599D01*
X173500778Y-103180532D01*
X173500497Y-103181285D01*
X173182562Y-103951214D01*
X173176237Y-103957553D01*
X173176214Y-103957562D01*
X172406285Y-104275497D01*
X172397330Y-104275488D01*
X172391005Y-104269149D01*
X172390724Y-104268396D01*
X172286695Y-103957553D01*
X171909505Y-102830492D01*
X171910129Y-102821562D01*
X171912324Y-102818512D01*
X172043510Y-102687326D01*
X172051782Y-102683900D01*
X172055490Y-102684504D01*
G37*
%TD.AperFunction*%
%TD*%
%TA.AperFunction,Conductor*%
%TO.N,/CH343_CTS*%
G36*
X144146282Y-98914501D02*
G01*
X144916215Y-99232438D01*
X144922552Y-99238761D01*
X144922562Y-99238785D01*
X145240497Y-100008714D01*
X145240488Y-100017669D01*
X145234149Y-100023994D01*
X145233396Y-100024275D01*
X143795495Y-100505494D01*
X143786562Y-100504870D01*
X143783509Y-100502672D01*
X143652327Y-100371490D01*
X143648900Y-100363217D01*
X143649503Y-100359510D01*
X144130725Y-98921601D01*
X144136599Y-98914845D01*
X144145532Y-98914221D01*
X144146282Y-98914501D01*
G37*
%TD.AperFunction*%
%TD*%
%TA.AperFunction,Conductor*%
%TO.N,/CH343_VDD_3.3V*%
G36*
X140396449Y-92300092D02*
G01*
X140706191Y-92427436D01*
X140712540Y-92433751D01*
X140712563Y-92433808D01*
X140839906Y-92743549D01*
X140839883Y-92752504D01*
X140834573Y-92758331D01*
X140328734Y-93026981D01*
X140319820Y-93027835D01*
X140314973Y-93024921D01*
X140115078Y-92825026D01*
X140111651Y-92816753D01*
X140113016Y-92811269D01*
X140381668Y-92305425D01*
X140388575Y-92299727D01*
X140396449Y-92300092D01*
G37*
%TD.AperFunction*%
%TD*%
%TA.AperFunction,Conductor*%
%TO.N,/CH343_VIO*%
G36*
X140245025Y-100020700D02*
G01*
X140249868Y-100028232D01*
X140250055Y-100030266D01*
X140250990Y-100263945D01*
X140250083Y-100268509D01*
X140158121Y-100488228D01*
X140151765Y-100494537D01*
X140144748Y-100495123D01*
X139761109Y-100408382D01*
X139753795Y-100403215D01*
X139751989Y-100396970D01*
X139751989Y-100116094D01*
X139755416Y-100107821D01*
X139761606Y-100104582D01*
X140236275Y-100018800D01*
X140245025Y-100020700D01*
G37*
%TD.AperFunction*%
%TD*%
%TA.AperFunction,Conductor*%
%TO.N,/CP2102_CTS*%
G36*
X168139963Y-98593444D02*
G01*
X168145866Y-98598916D01*
X168330394Y-98960265D01*
X168331105Y-98969191D01*
X168328247Y-98973859D01*
X168198859Y-99103247D01*
X168190586Y-99106674D01*
X168185265Y-99105394D01*
X167915908Y-98967843D01*
X167823915Y-98920865D01*
X167818106Y-98914051D01*
X167818410Y-98906011D01*
X167907436Y-98688821D01*
X167913743Y-98682468D01*
X168131011Y-98593411D01*
X168139963Y-98593444D01*
G37*
%TD.AperFunction*%
%TD*%
%TA.AperFunction,Conductor*%
%TO.N,/CP2102_VDD_3.3V*%
G36*
X162631726Y-93353786D02*
G01*
X162638633Y-93359485D01*
X162640000Y-93364973D01*
X162640000Y-93647666D01*
X162636573Y-93655939D01*
X162631726Y-93658853D01*
X162084079Y-93826572D01*
X162075165Y-93825718D01*
X162069855Y-93819891D01*
X161940880Y-93510825D01*
X161940857Y-93501870D01*
X161940856Y-93501870D01*
X162069855Y-93192747D01*
X162076204Y-93186433D01*
X162084077Y-93186067D01*
X162631726Y-93353786D01*
G37*
%TD.AperFunction*%
%TD*%
%TA.AperFunction,Conductor*%
%TO.N,/CP2102_RTS*%
G36*
X172055490Y-100144504D02*
G01*
X173493396Y-100625724D01*
X173500154Y-100631599D01*
X173500778Y-100640532D01*
X173500497Y-100641285D01*
X173182562Y-101411214D01*
X173176237Y-101417553D01*
X173176214Y-101417562D01*
X172406285Y-101735497D01*
X172397330Y-101735488D01*
X172391005Y-101729149D01*
X172390724Y-101728396D01*
X172286695Y-101417553D01*
X171909505Y-100290492D01*
X171910129Y-100281562D01*
X171912324Y-100278512D01*
X172043510Y-100147326D01*
X172051782Y-100143900D01*
X172055490Y-100144504D01*
G37*
%TD.AperFunction*%
%TD*%
%TA.AperFunction,Conductor*%
%TO.N,/CP2102_USB_Data_P*%
G36*
X164231906Y-84483698D02*
G01*
X164238720Y-84489507D01*
X164240000Y-84494828D01*
X164240000Y-84677811D01*
X164236573Y-84686084D01*
X164231905Y-84688942D01*
X163845912Y-84813972D01*
X163836986Y-84813261D01*
X163831514Y-84807358D01*
X163740889Y-84590835D01*
X163740857Y-84581883D01*
X163831514Y-84365280D01*
X163837870Y-84358972D01*
X163845911Y-84358667D01*
X164231906Y-84483698D01*
G37*
%TD.AperFunction*%
%TD*%
%TA.AperFunction,Conductor*%
%TO.N,/CP2102_VDD_3.3V*%
G36*
X161944478Y-93507188D02*
G01*
X162158891Y-93596664D01*
X162253571Y-93636175D01*
X162259886Y-93642524D01*
X162260252Y-93650399D01*
X162092534Y-94198046D01*
X162086835Y-94204953D01*
X162081347Y-94206320D01*
X161798653Y-94206320D01*
X161790380Y-94202893D01*
X161787466Y-94198046D01*
X161619747Y-93650399D01*
X161620601Y-93641485D01*
X161626427Y-93636175D01*
X161935494Y-93507199D01*
X161944449Y-93507177D01*
X161944478Y-93507188D01*
G37*
%TD.AperFunction*%
%TD*%
%TA.AperFunction,Conductor*%
%TO.N,/CH343_RTS*%
G36*
X144146282Y-103994501D02*
G01*
X144916215Y-104312438D01*
X144922552Y-104318761D01*
X144922562Y-104318785D01*
X145240497Y-105088714D01*
X145240488Y-105097669D01*
X145234149Y-105103994D01*
X145233396Y-105104275D01*
X143795495Y-105585494D01*
X143786562Y-105584870D01*
X143783509Y-105582672D01*
X143652327Y-105451490D01*
X143648900Y-105443217D01*
X143649503Y-105439510D01*
X144130725Y-104001601D01*
X144136599Y-103994845D01*
X144145532Y-103994221D01*
X144146282Y-103994501D01*
G37*
%TD.AperFunction*%
%TD*%
%TA.AperFunction,Conductor*%
%TO.N,/CH343_VDD_3.3V*%
G36*
X128158174Y-85138699D02*
G01*
X128164486Y-85145004D01*
X128864092Y-86824061D01*
X128864111Y-86833016D01*
X128861565Y-86836834D01*
X128660514Y-87037885D01*
X128652241Y-87041312D01*
X128647741Y-87040412D01*
X126968684Y-86340806D01*
X126962365Y-86334461D01*
X126962369Y-86325541D01*
X127307438Y-85490102D01*
X127313761Y-85483767D01*
X128149221Y-85138690D01*
X128158174Y-85138699D01*
G37*
%TD.AperFunction*%
%TD*%
%TA.AperFunction,Conductor*%
%TO.N,/CH343_VDD_5V*%
G36*
X138104570Y-98766080D02*
G01*
X138374089Y-99035599D01*
X138377516Y-99043872D01*
X138375742Y-99050066D01*
X138079090Y-99525444D01*
X138071803Y-99530649D01*
X138064715Y-99530071D01*
X137754308Y-99402454D01*
X137747960Y-99396140D01*
X137620225Y-99085445D01*
X137620248Y-99076492D01*
X137624605Y-99071230D01*
X138089858Y-98764583D01*
X138098652Y-98762892D01*
X138104570Y-98766080D01*
G37*
%TD.AperFunction*%
%TD*%
%TA.AperFunction,Conductor*%
%TO.N,/CH343_VIO*%
G36*
X138230599Y-100104437D02*
G01*
X138238037Y-100109420D01*
X138240000Y-100115908D01*
X138240000Y-100396731D01*
X138236573Y-100405004D01*
X138230597Y-100408203D01*
X137845062Y-100485409D01*
X137836277Y-100483674D01*
X137831973Y-100478455D01*
X137740889Y-100260835D01*
X137740857Y-100251883D01*
X137831973Y-100034183D01*
X137838327Y-100027876D01*
X137845059Y-100027230D01*
X138230599Y-100104437D01*
G37*
%TD.AperFunction*%
%TD*%
%TA.AperFunction,Conductor*%
%TO.N,/CP2102_VDD_3.3V*%
G36*
X162089620Y-101029747D02*
G01*
X162092534Y-101034594D01*
X162260252Y-101582240D01*
X162259398Y-101591154D01*
X162253571Y-101596464D01*
X161944506Y-101725439D01*
X161935551Y-101725462D01*
X161935494Y-101725439D01*
X161626428Y-101596464D01*
X161620113Y-101590115D01*
X161619747Y-101582242D01*
X161787466Y-101034593D01*
X161793165Y-101027687D01*
X161798653Y-101026320D01*
X162081347Y-101026320D01*
X162089620Y-101029747D01*
G37*
%TD.AperFunction*%
%TD*%
%TA.AperFunction,Conductor*%
%TO.N,/CH343_VDD_5V*%
G36*
X131227491Y-109488427D02*
G01*
X131228512Y-109489593D01*
X131868781Y-110326868D01*
X131871084Y-110335521D01*
X131867765Y-110342243D01*
X131033277Y-111177712D01*
X131025006Y-111181144D01*
X131016732Y-111177722D01*
X130182233Y-110342242D01*
X130178812Y-110333968D01*
X130181217Y-110326869D01*
X130821487Y-109489593D01*
X130829236Y-109485103D01*
X130830782Y-109485000D01*
X131219218Y-109485000D01*
X131227491Y-109488427D01*
G37*
%TD.AperFunction*%
%TD*%
%TA.AperFunction,Conductor*%
%TO.N,/CH343_RTS*%
G36*
X131896803Y-103411604D02*
G01*
X131902706Y-103417076D01*
X132087234Y-103778425D01*
X132087945Y-103787351D01*
X132085087Y-103792019D01*
X131955699Y-103921407D01*
X131947426Y-103924834D01*
X131942105Y-103923554D01*
X131672748Y-103786003D01*
X131580755Y-103739025D01*
X131574946Y-103732211D01*
X131575250Y-103724171D01*
X131664276Y-103506981D01*
X131670583Y-103500628D01*
X131887851Y-103411571D01*
X131896803Y-103411604D01*
G37*
%TD.AperFunction*%
%TD*%
%TA.AperFunction,Conductor*%
%TO.N,/CH343_VIO*%
G36*
X128093006Y-87705692D02*
G01*
X128099331Y-87712031D01*
X128099498Y-87712458D01*
X128615564Y-89115313D01*
X128615204Y-89124260D01*
X128612856Y-89127625D01*
X128411305Y-89329176D01*
X128403032Y-89332603D01*
X128398993Y-89331884D01*
X126996138Y-88815818D01*
X126989556Y-88809745D01*
X126989196Y-88800798D01*
X126989363Y-88800371D01*
X127307438Y-88030103D01*
X127313759Y-88023768D01*
X128084051Y-87705683D01*
X128093006Y-87705692D01*
G37*
%TD.AperFunction*%
%TD*%
%TA.AperFunction,Conductor*%
%TO.N,/CP2102_VDD_5V*%
G36*
X159627491Y-109488427D02*
G01*
X159628512Y-109489593D01*
X160268781Y-110326868D01*
X160271084Y-110335521D01*
X160267765Y-110342243D01*
X159433278Y-111177712D01*
X159425007Y-111181144D01*
X159416732Y-111177722D01*
X159416722Y-111177712D01*
X158582234Y-110342243D01*
X158578812Y-110333968D01*
X158581217Y-110326869D01*
X159221487Y-109489593D01*
X159229236Y-109485103D01*
X159230782Y-109485000D01*
X159619218Y-109485000D01*
X159627491Y-109488427D01*
G37*
%TD.AperFunction*%
%TD*%
%TA.AperFunction,Conductor*%
%TO.N,/CH343_VDD_5V*%
G36*
X131992807Y-88697600D02*
G01*
X132469464Y-88745266D01*
X132477355Y-88749499D01*
X132480000Y-88756908D01*
X132480000Y-89135731D01*
X132476573Y-89144004D01*
X132469464Y-89147373D01*
X131992812Y-89195038D01*
X131984239Y-89192451D01*
X131980006Y-89184560D01*
X131979948Y-89183443D01*
X131979790Y-89144004D01*
X131979000Y-88946320D01*
X131979948Y-88709194D01*
X131983408Y-88700937D01*
X131991695Y-88697543D01*
X131992807Y-88697600D01*
G37*
%TD.AperFunction*%
%TD*%
%TA.AperFunction,Conductor*%
%TO.N,/CP2102_VDD_3.3V*%
G36*
X171192135Y-88178293D02*
G01*
X171198443Y-88184648D01*
X171199089Y-88191382D01*
X171121883Y-88576917D01*
X171116899Y-88584357D01*
X171110411Y-88586320D01*
X170829589Y-88586320D01*
X170821316Y-88582893D01*
X170818117Y-88576917D01*
X170815326Y-88562982D01*
X170740910Y-88191380D01*
X170742645Y-88182597D01*
X170747862Y-88178294D01*
X170965484Y-88087209D01*
X170974436Y-88087177D01*
X171192135Y-88178293D01*
G37*
%TD.AperFunction*%
%TD*%
%TA.AperFunction,Conductor*%
%TO.N,/CP2102_VDD_5V*%
G36*
X157363290Y-90336113D02*
G01*
X157368629Y-90340589D01*
X157671302Y-90811942D01*
X157672889Y-90820755D01*
X157669730Y-90826537D01*
X157400217Y-91096050D01*
X157391944Y-91099477D01*
X157385622Y-91097622D01*
X156954457Y-90820755D01*
X156914268Y-90794948D01*
X156909159Y-90787595D01*
X156909769Y-90780656D01*
X157037437Y-90470126D01*
X157043748Y-90463781D01*
X157354336Y-90336090D01*
X157363290Y-90336113D01*
G37*
%TD.AperFunction*%
%TD*%
%TA.AperFunction,Conductor*%
%TO.N,Net-(F1-Pad1)*%
G36*
X133753311Y-86938221D02*
G01*
X134429955Y-87034884D01*
X134429955Y-87034885D01*
X134437660Y-87039447D01*
X134440000Y-87046467D01*
X134440000Y-87526172D01*
X134436573Y-87534445D01*
X134429955Y-87537754D01*
X133753316Y-87634417D01*
X133744641Y-87632195D01*
X133740079Y-87624490D01*
X133739961Y-87622876D01*
X133739000Y-87286320D01*
X133739961Y-86949769D01*
X133743412Y-86941507D01*
X133751694Y-86938104D01*
X133753311Y-86938221D01*
G37*
%TD.AperFunction*%
%TD*%
%TA.AperFunction,Conductor*%
%TO.N,/CH343_DSR*%
G36*
X144146282Y-101454501D02*
G01*
X144916215Y-101772438D01*
X144922552Y-101778761D01*
X144922562Y-101778785D01*
X145240497Y-102548714D01*
X145240488Y-102557669D01*
X145234149Y-102563994D01*
X145233396Y-102564275D01*
X143795495Y-103045494D01*
X143786562Y-103044870D01*
X143783509Y-103042672D01*
X143652327Y-102911490D01*
X143648900Y-102903217D01*
X143649503Y-102899510D01*
X144130725Y-101461601D01*
X144136599Y-101454845D01*
X144145532Y-101454221D01*
X144146282Y-101454501D01*
G37*
%TD.AperFunction*%
%TD*%
%TA.AperFunction,Conductor*%
%TO.N,/CH343_CTS*%
G36*
X133911038Y-101308834D02*
G01*
X133917347Y-101315190D01*
X133917652Y-101323232D01*
X133792622Y-101709225D01*
X133786812Y-101716040D01*
X133781491Y-101717320D01*
X133598509Y-101717320D01*
X133590236Y-101713893D01*
X133587378Y-101709225D01*
X133462347Y-101323232D01*
X133463058Y-101314306D01*
X133468960Y-101308834D01*
X133685484Y-101218209D01*
X133694437Y-101218177D01*
X133911038Y-101308834D01*
G37*
%TD.AperFunction*%
%TD*%
%TA.AperFunction,Conductor*%
%TO.N,Net-(F2-Pad1)*%
G36*
X162780791Y-86534313D02*
G01*
X162788145Y-86539423D01*
X162790000Y-86545745D01*
X162790000Y-86926894D01*
X162786573Y-86935167D01*
X162780791Y-86938326D01*
X162233470Y-87057600D01*
X162224657Y-87056013D01*
X162220182Y-87050675D01*
X162090880Y-86740825D01*
X162090857Y-86731870D01*
X162090856Y-86731870D01*
X162220182Y-86421963D01*
X162226530Y-86415650D01*
X162233470Y-86415039D01*
X162780791Y-86534313D01*
G37*
%TD.AperFunction*%
%TD*%
%TA.AperFunction,Conductor*%
%TO.N,/CH343_RI*%
G36*
X135474660Y-99771978D02*
G01*
X135480969Y-99778334D01*
X135481322Y-99786223D01*
X135362547Y-100170863D01*
X135356832Y-100177757D01*
X135351368Y-100179111D01*
X135168370Y-100179111D01*
X135160097Y-100175684D01*
X135157297Y-100171188D01*
X135026045Y-99786426D01*
X135026617Y-99777490D01*
X135032599Y-99771857D01*
X135248969Y-99681296D01*
X135257922Y-99681264D01*
X135474660Y-99771978D01*
G37*
%TD.AperFunction*%
%TD*%
%TA.AperFunction,Conductor*%
%TO.N,Net-(F2-Pad1)*%
G36*
X166745342Y-86416626D02*
G01*
X166749818Y-86421965D01*
X166879119Y-86731813D01*
X166879142Y-86740768D01*
X166879119Y-86740825D01*
X166749818Y-87050674D01*
X166743469Y-87056989D01*
X166736529Y-87057600D01*
X166189209Y-86938326D01*
X166181855Y-86933216D01*
X166180000Y-86926894D01*
X166180000Y-86545745D01*
X166183427Y-86537472D01*
X166189208Y-86534313D01*
X166736529Y-86415039D01*
X166745342Y-86416626D01*
G37*
%TD.AperFunction*%
%TD*%
%TA.AperFunction,Conductor*%
%TO.N,/CH343_VIO*%
G36*
X134659756Y-100530411D02*
G01*
X134662617Y-100535088D01*
X134838943Y-101081028D01*
X134838224Y-101089954D01*
X134832315Y-101095422D01*
X134523401Y-101224334D01*
X134514446Y-101224357D01*
X134514389Y-101224334D01*
X134205191Y-101095304D01*
X134198876Y-101088955D01*
X134198464Y-101081232D01*
X134198524Y-101081028D01*
X134357544Y-100535409D01*
X134363149Y-100528426D01*
X134368777Y-100526984D01*
X134651483Y-100526984D01*
X134659756Y-100530411D01*
G37*
%TD.AperFunction*%
%TD*%
%TA.AperFunction,Conductor*%
%TO.N,Net-(USB1-CC1)*%
G36*
X135581906Y-86523698D02*
G01*
X135588720Y-86529507D01*
X135590000Y-86534828D01*
X135590000Y-86717811D01*
X135586573Y-86726084D01*
X135581905Y-86728942D01*
X135195912Y-86853972D01*
X135186986Y-86853261D01*
X135181514Y-86847358D01*
X135090889Y-86630835D01*
X135090857Y-86621883D01*
X135181514Y-86405280D01*
X135187870Y-86398972D01*
X135195911Y-86398667D01*
X135581906Y-86523698D01*
G37*
%TD.AperFunction*%
%TD*%
%TA.AperFunction,Conductor*%
%TO.N,/CH343_VDD_5V*%
G36*
X143415760Y-88700188D02*
G01*
X143419993Y-88708079D01*
X143420051Y-88709196D01*
X143421000Y-88946367D01*
X143420051Y-89183443D01*
X143416591Y-89191702D01*
X143408304Y-89195096D01*
X143407187Y-89195038D01*
X142930536Y-89147373D01*
X142922645Y-89143140D01*
X142920000Y-89135731D01*
X142920000Y-88756908D01*
X142923427Y-88748635D01*
X142930534Y-88745266D01*
X143407187Y-88697601D01*
X143415760Y-88700188D01*
G37*
%TD.AperFunction*%
%TD*%
M02*
