%TF.GenerationSoftware,KiCad,Pcbnew,(6.0.11)*%
%TF.CreationDate,2023-02-07T13:08:41+08:00*%
%TF.ProjectId,UINIO-USB-UART,55494e49-4f2d-4555-9342-2d554152542e,Version 3.0.0*%
%TF.SameCoordinates,Original*%
%TF.FileFunction,Paste,Top*%
%TF.FilePolarity,Positive*%
%FSLAX46Y46*%
G04 Gerber Fmt 4.6, Leading zero omitted, Abs format (unit mm)*
G04 Created by KiCad (PCBNEW (6.0.11)) date 2023-02-07 13:08:41*
%MOMM*%
%LPD*%
G01*
G04 APERTURE LIST*
G04 Aperture macros list*
%AMRoundRect*
0 Rectangle with rounded corners*
0 $1 Rounding radius*
0 $2 $3 $4 $5 $6 $7 $8 $9 X,Y pos of 4 corners*
0 Add a 4 corners polygon primitive as box body*
4,1,4,$2,$3,$4,$5,$6,$7,$8,$9,$2,$3,0*
0 Add four circle primitives for the rounded corners*
1,1,$1+$1,$2,$3*
1,1,$1+$1,$4,$5*
1,1,$1+$1,$6,$7*
1,1,$1+$1,$8,$9*
0 Add four rect primitives between the rounded corners*
20,1,$1+$1,$2,$3,$4,$5,0*
20,1,$1+$1,$4,$5,$6,$7,0*
20,1,$1+$1,$6,$7,$8,$9,0*
20,1,$1+$1,$8,$9,$2,$3,0*%
G04 Aperture macros list end*
%ADD10C,0.120000*%
%ADD11RoundRect,0.200000X-0.200000X-0.275000X0.200000X-0.275000X0.200000X0.275000X-0.200000X0.275000X0*%
%ADD12RoundRect,0.200000X0.200000X0.275000X-0.200000X0.275000X-0.200000X-0.275000X0.200000X-0.275000X0*%
%ADD13RoundRect,0.250000X-0.375000X-0.625000X0.375000X-0.625000X0.375000X0.625000X-0.375000X0.625000X0*%
%ADD14RoundRect,0.225000X-0.225000X-0.250000X0.225000X-0.250000X0.225000X0.250000X-0.225000X0.250000X0*%
%ADD15RoundRect,0.218750X-0.218750X-0.256250X0.218750X-0.256250X0.218750X0.256250X-0.218750X0.256250X0*%
%ADD16RoundRect,0.250000X0.625000X-0.375000X0.625000X0.375000X-0.625000X0.375000X-0.625000X-0.375000X0*%
%ADD17R,1.150000X0.600000*%
%ADD18R,1.150000X0.300000*%
%ADD19R,0.905000X0.280000*%
%ADD20R,0.280000X0.905000*%
%ADD21R,3.350000X3.350000*%
%ADD22RoundRect,0.218750X0.218750X0.256250X-0.218750X0.256250X-0.218750X-0.256250X0.218750X-0.256250X0*%
%ADD23RoundRect,0.225000X0.225000X0.250000X-0.225000X0.250000X-0.225000X-0.250000X0.225000X-0.250000X0*%
%ADD24R,0.250000X0.750000*%
%ADD25R,0.750000X0.250000*%
%ADD26R,1.700000X1.700000*%
G04 APERTURE END LIST*
%TO.C,USB2*%
G36*
X190291700Y-98290000D02*
G01*
X189141700Y-98290000D01*
X189141700Y-97990000D01*
X190291700Y-97990000D01*
X190291700Y-98290000D01*
G37*
D10*
X190291700Y-98290000D02*
X189141700Y-98290000D01*
X189141700Y-97990000D01*
X190291700Y-97990000D01*
X190291700Y-98290000D01*
G36*
X190291700Y-96990000D02*
G01*
X189141700Y-96990000D01*
X189141700Y-96390000D01*
X190291700Y-96390000D01*
X190291700Y-96990000D01*
G37*
X190291700Y-96990000D02*
X189141700Y-96990000D01*
X189141700Y-96390000D01*
X190291700Y-96390000D01*
X190291700Y-96990000D01*
G36*
X190291700Y-97790000D02*
G01*
X189141700Y-97790000D01*
X189141700Y-97190000D01*
X190291700Y-97190000D01*
X190291700Y-97790000D01*
G37*
X190291700Y-97790000D02*
X189141700Y-97790000D01*
X189141700Y-97190000D01*
X190291700Y-97190000D01*
X190291700Y-97790000D01*
G36*
X190291700Y-101790000D02*
G01*
X189141700Y-101790000D01*
X189141700Y-101490000D01*
X190291700Y-101490000D01*
X190291700Y-101790000D01*
G37*
X190291700Y-101790000D02*
X189141700Y-101790000D01*
X189141700Y-101490000D01*
X190291700Y-101490000D01*
X190291700Y-101790000D01*
G36*
X190291700Y-100790000D02*
G01*
X189141700Y-100790000D01*
X189141700Y-100490000D01*
X190291700Y-100490000D01*
X190291700Y-100790000D01*
G37*
X190291700Y-100790000D02*
X189141700Y-100790000D01*
X189141700Y-100490000D01*
X190291700Y-100490000D01*
X190291700Y-100790000D01*
G36*
X190291700Y-101290000D02*
G01*
X189141700Y-101290000D01*
X189141700Y-100990000D01*
X190291700Y-100990000D01*
X190291700Y-101290000D01*
G37*
X190291700Y-101290000D02*
X189141700Y-101290000D01*
X189141700Y-100990000D01*
X190291700Y-100990000D01*
X190291700Y-101290000D01*
G36*
X190291700Y-103390000D02*
G01*
X189141700Y-103390000D01*
X189141700Y-102790000D01*
X190291700Y-102790000D01*
X190291700Y-103390000D01*
G37*
X190291700Y-103390000D02*
X189141700Y-103390000D01*
X189141700Y-102790000D01*
X190291700Y-102790000D01*
X190291700Y-103390000D01*
G36*
X190291700Y-99790000D02*
G01*
X189141700Y-99790000D01*
X189141700Y-99490000D01*
X190291700Y-99490000D01*
X190291700Y-99790000D01*
G37*
X190291700Y-99790000D02*
X189141700Y-99790000D01*
X189141700Y-99490000D01*
X190291700Y-99490000D01*
X190291700Y-99790000D01*
G36*
X190291700Y-99290000D02*
G01*
X189141700Y-99290000D01*
X189141700Y-98990000D01*
X190291700Y-98990000D01*
X190291700Y-99290000D01*
G37*
X190291700Y-99290000D02*
X189141700Y-99290000D01*
X189141700Y-98990000D01*
X190291700Y-98990000D01*
X190291700Y-99290000D01*
G36*
X195226700Y-95075000D02*
G01*
X195320700Y-95103000D01*
X195406700Y-95149000D01*
X195482700Y-95211000D01*
X195544700Y-95287000D01*
X195590700Y-95374000D01*
X195619700Y-95467000D01*
X195628700Y-95565000D01*
X195619700Y-95663000D01*
X195590700Y-95756000D01*
X195544700Y-95843000D01*
X195482700Y-95919000D01*
X195406700Y-95981000D01*
X195320700Y-96027000D01*
X195226700Y-96055000D01*
X195128700Y-96065000D01*
X194228700Y-96065000D01*
X194131700Y-96055000D01*
X194037700Y-96027000D01*
X193951700Y-95981000D01*
X193875700Y-95919000D01*
X193813700Y-95843000D01*
X193766700Y-95756000D01*
X193738700Y-95663000D01*
X193728700Y-95565000D01*
X193738700Y-95467000D01*
X193766700Y-95374000D01*
X193813700Y-95287000D01*
X193875700Y-95211000D01*
X193951700Y-95149000D01*
X194037700Y-95103000D01*
X194131700Y-95075000D01*
X194228700Y-95065000D01*
X195128700Y-95065000D01*
X195226700Y-95075000D01*
G37*
X195226700Y-95075000D02*
X195320700Y-95103000D01*
X195406700Y-95149000D01*
X195482700Y-95211000D01*
X195544700Y-95287000D01*
X195590700Y-95374000D01*
X195619700Y-95467000D01*
X195628700Y-95565000D01*
X195619700Y-95663000D01*
X195590700Y-95756000D01*
X195544700Y-95843000D01*
X195482700Y-95919000D01*
X195406700Y-95981000D01*
X195320700Y-96027000D01*
X195226700Y-96055000D01*
X195128700Y-96065000D01*
X194228700Y-96065000D01*
X194131700Y-96055000D01*
X194037700Y-96027000D01*
X193951700Y-95981000D01*
X193875700Y-95919000D01*
X193813700Y-95843000D01*
X193766700Y-95756000D01*
X193738700Y-95663000D01*
X193728700Y-95565000D01*
X193738700Y-95467000D01*
X193766700Y-95374000D01*
X193813700Y-95287000D01*
X193875700Y-95211000D01*
X193951700Y-95149000D01*
X194037700Y-95103000D01*
X194131700Y-95075000D01*
X194228700Y-95065000D01*
X195128700Y-95065000D01*
X195226700Y-95075000D01*
G36*
X195226700Y-103725000D02*
G01*
X195320700Y-103753000D01*
X195406700Y-103799000D01*
X195482700Y-103861000D01*
X195544700Y-103937000D01*
X195590700Y-104024000D01*
X195619700Y-104117000D01*
X195628700Y-104215000D01*
X195619700Y-104313000D01*
X195590700Y-104406000D01*
X195544700Y-104493000D01*
X195482700Y-104569000D01*
X195406700Y-104631000D01*
X195320700Y-104677000D01*
X195226700Y-104705000D01*
X195128700Y-104715000D01*
X194228700Y-104715000D01*
X194131700Y-104705000D01*
X194037700Y-104677000D01*
X193951700Y-104631000D01*
X193875700Y-104569000D01*
X193813700Y-104493000D01*
X193766700Y-104406000D01*
X193738700Y-104313000D01*
X193728700Y-104215000D01*
X193738700Y-104117000D01*
X193766700Y-104024000D01*
X193813700Y-103937000D01*
X193875700Y-103861000D01*
X193951700Y-103799000D01*
X194037700Y-103753000D01*
X194131700Y-103725000D01*
X194228700Y-103715000D01*
X195128700Y-103715000D01*
X195226700Y-103725000D01*
G37*
X195226700Y-103725000D02*
X195320700Y-103753000D01*
X195406700Y-103799000D01*
X195482700Y-103861000D01*
X195544700Y-103937000D01*
X195590700Y-104024000D01*
X195619700Y-104117000D01*
X195628700Y-104215000D01*
X195619700Y-104313000D01*
X195590700Y-104406000D01*
X195544700Y-104493000D01*
X195482700Y-104569000D01*
X195406700Y-104631000D01*
X195320700Y-104677000D01*
X195226700Y-104705000D01*
X195128700Y-104715000D01*
X194228700Y-104715000D01*
X194131700Y-104705000D01*
X194037700Y-104677000D01*
X193951700Y-104631000D01*
X193875700Y-104569000D01*
X193813700Y-104493000D01*
X193766700Y-104406000D01*
X193738700Y-104313000D01*
X193728700Y-104215000D01*
X193738700Y-104117000D01*
X193766700Y-104024000D01*
X193813700Y-103937000D01*
X193875700Y-103861000D01*
X193951700Y-103799000D01*
X194037700Y-103753000D01*
X194131700Y-103725000D01*
X194228700Y-103715000D01*
X195128700Y-103715000D01*
X195226700Y-103725000D01*
G36*
X190291700Y-98790000D02*
G01*
X189141700Y-98790000D01*
X189141700Y-98490000D01*
X190291700Y-98490000D01*
X190291700Y-98790000D01*
G37*
X190291700Y-98790000D02*
X189141700Y-98790000D01*
X189141700Y-98490000D01*
X190291700Y-98490000D01*
X190291700Y-98790000D01*
G36*
X190291700Y-102590000D02*
G01*
X189141700Y-102590000D01*
X189141700Y-101990000D01*
X190291700Y-101990000D01*
X190291700Y-102590000D01*
G37*
X190291700Y-102590000D02*
X189141700Y-102590000D01*
X189141700Y-101990000D01*
X190291700Y-101990000D01*
X190291700Y-102590000D01*
G36*
X191126700Y-103725000D02*
G01*
X191220700Y-103753000D01*
X191306700Y-103799000D01*
X191382700Y-103861000D01*
X191444700Y-103937000D01*
X191490700Y-104024000D01*
X191519700Y-104117000D01*
X191528700Y-104215000D01*
X191519700Y-104313000D01*
X191490700Y-104406000D01*
X191444700Y-104493000D01*
X191382700Y-104569000D01*
X191306700Y-104631000D01*
X191220700Y-104677000D01*
X191126700Y-104705000D01*
X191028700Y-104715000D01*
X189928700Y-104715000D01*
X189831700Y-104705000D01*
X189737700Y-104677000D01*
X189651700Y-104631000D01*
X189575700Y-104569000D01*
X189513700Y-104493000D01*
X189466700Y-104406000D01*
X189438700Y-104313000D01*
X189428700Y-104215000D01*
X189438700Y-104117000D01*
X189466700Y-104024000D01*
X189513700Y-103937000D01*
X189575700Y-103861000D01*
X189651700Y-103799000D01*
X189737700Y-103753000D01*
X189831700Y-103725000D01*
X189928700Y-103715000D01*
X191028700Y-103715000D01*
X191126700Y-103725000D01*
G37*
X191126700Y-103725000D02*
X191220700Y-103753000D01*
X191306700Y-103799000D01*
X191382700Y-103861000D01*
X191444700Y-103937000D01*
X191490700Y-104024000D01*
X191519700Y-104117000D01*
X191528700Y-104215000D01*
X191519700Y-104313000D01*
X191490700Y-104406000D01*
X191444700Y-104493000D01*
X191382700Y-104569000D01*
X191306700Y-104631000D01*
X191220700Y-104677000D01*
X191126700Y-104705000D01*
X191028700Y-104715000D01*
X189928700Y-104715000D01*
X189831700Y-104705000D01*
X189737700Y-104677000D01*
X189651700Y-104631000D01*
X189575700Y-104569000D01*
X189513700Y-104493000D01*
X189466700Y-104406000D01*
X189438700Y-104313000D01*
X189428700Y-104215000D01*
X189438700Y-104117000D01*
X189466700Y-104024000D01*
X189513700Y-103937000D01*
X189575700Y-103861000D01*
X189651700Y-103799000D01*
X189737700Y-103753000D01*
X189831700Y-103725000D01*
X189928700Y-103715000D01*
X191028700Y-103715000D01*
X191126700Y-103725000D01*
G36*
X191126700Y-95075000D02*
G01*
X191220700Y-95103000D01*
X191306700Y-95149000D01*
X191382700Y-95211000D01*
X191444700Y-95287000D01*
X191490700Y-95374000D01*
X191519700Y-95467000D01*
X191528700Y-95565000D01*
X191519700Y-95663000D01*
X191490700Y-95756000D01*
X191444700Y-95843000D01*
X191382700Y-95919000D01*
X191306700Y-95981000D01*
X191220700Y-96027000D01*
X191126700Y-96055000D01*
X191028700Y-96065000D01*
X189928700Y-96065000D01*
X189831700Y-96055000D01*
X189737700Y-96027000D01*
X189651700Y-95981000D01*
X189575700Y-95919000D01*
X189513700Y-95843000D01*
X189466700Y-95756000D01*
X189438700Y-95663000D01*
X189428700Y-95565000D01*
X189438700Y-95467000D01*
X189466700Y-95374000D01*
X189513700Y-95287000D01*
X189575700Y-95211000D01*
X189651700Y-95149000D01*
X189737700Y-95103000D01*
X189831700Y-95075000D01*
X189928700Y-95065000D01*
X191028700Y-95065000D01*
X191126700Y-95075000D01*
G37*
X191126700Y-95075000D02*
X191220700Y-95103000D01*
X191306700Y-95149000D01*
X191382700Y-95211000D01*
X191444700Y-95287000D01*
X191490700Y-95374000D01*
X191519700Y-95467000D01*
X191528700Y-95565000D01*
X191519700Y-95663000D01*
X191490700Y-95756000D01*
X191444700Y-95843000D01*
X191382700Y-95919000D01*
X191306700Y-95981000D01*
X191220700Y-96027000D01*
X191126700Y-96055000D01*
X191028700Y-96065000D01*
X189928700Y-96065000D01*
X189831700Y-96055000D01*
X189737700Y-96027000D01*
X189651700Y-95981000D01*
X189575700Y-95919000D01*
X189513700Y-95843000D01*
X189466700Y-95756000D01*
X189438700Y-95663000D01*
X189428700Y-95565000D01*
X189438700Y-95467000D01*
X189466700Y-95374000D01*
X189513700Y-95287000D01*
X189575700Y-95211000D01*
X189651700Y-95149000D01*
X189737700Y-95103000D01*
X189831700Y-95075000D01*
X189928700Y-95065000D01*
X191028700Y-95065000D01*
X191126700Y-95075000D01*
G36*
X190291700Y-100290000D02*
G01*
X189141700Y-100290000D01*
X189141700Y-99990000D01*
X190291700Y-99990000D01*
X190291700Y-100290000D01*
G37*
X190291700Y-100290000D02*
X189141700Y-100290000D01*
X189141700Y-99990000D01*
X190291700Y-99990000D01*
X190291700Y-100290000D01*
%TO.C,U1*%
G36*
X180555000Y-101280000D02*
G01*
X179650000Y-101280000D01*
X179650000Y-101000000D01*
X180555000Y-101000000D01*
X180555000Y-101280000D01*
G37*
X180555000Y-101280000D02*
X179650000Y-101280000D01*
X179650000Y-101000000D01*
X180555000Y-101000000D01*
X180555000Y-101280000D01*
G36*
X176365000Y-102970000D02*
G01*
X176085000Y-102970000D01*
X176085000Y-102065000D01*
X176365000Y-102065000D01*
X176365000Y-102970000D01*
G37*
X176365000Y-102970000D02*
X176085000Y-102970000D01*
X176085000Y-102065000D01*
X176365000Y-102065000D01*
X176365000Y-102970000D01*
G36*
X179365000Y-102970000D02*
G01*
X179085000Y-102970000D01*
X179085000Y-102065000D01*
X179365000Y-102065000D01*
X179365000Y-102970000D01*
G37*
X179365000Y-102970000D02*
X179085000Y-102970000D01*
X179085000Y-102065000D01*
X179365000Y-102065000D01*
X179365000Y-102970000D01*
G36*
X176865000Y-102970000D02*
G01*
X176585000Y-102970000D01*
X176585000Y-102065000D01*
X176865000Y-102065000D01*
X176865000Y-102970000D01*
G37*
X176865000Y-102970000D02*
X176585000Y-102970000D01*
X176585000Y-102065000D01*
X176865000Y-102065000D01*
X176865000Y-102970000D01*
G36*
X175800000Y-100280000D02*
G01*
X174895000Y-100280000D01*
X174895000Y-100000000D01*
X175800000Y-100000000D01*
X175800000Y-100280000D01*
G37*
X175800000Y-100280000D02*
X174895000Y-100280000D01*
X174895000Y-100000000D01*
X175800000Y-100000000D01*
X175800000Y-100280000D01*
G36*
X175800000Y-100780000D02*
G01*
X174895000Y-100780000D01*
X174895000Y-100500000D01*
X175800000Y-100500000D01*
X175800000Y-100780000D01*
G37*
X175800000Y-100780000D02*
X174895000Y-100780000D01*
X174895000Y-100500000D01*
X175800000Y-100500000D01*
X175800000Y-100780000D01*
G36*
X178865000Y-98215000D02*
G01*
X178585000Y-98215000D01*
X178585000Y-97310000D01*
X178865000Y-97310000D01*
X178865000Y-98215000D01*
G37*
X178865000Y-98215000D02*
X178585000Y-98215000D01*
X178585000Y-97310000D01*
X178865000Y-97310000D01*
X178865000Y-98215000D01*
G36*
X179365000Y-98215000D02*
G01*
X179085000Y-98215000D01*
X179085000Y-97310000D01*
X179365000Y-97310000D01*
X179365000Y-98215000D01*
G37*
X179365000Y-98215000D02*
X179085000Y-98215000D01*
X179085000Y-97310000D01*
X179365000Y-97310000D01*
X179365000Y-98215000D01*
G36*
X175800000Y-99280000D02*
G01*
X174895000Y-99280000D01*
X174895000Y-99000000D01*
X175800000Y-99000000D01*
X175800000Y-99280000D01*
G37*
X175800000Y-99280000D02*
X174895000Y-99280000D01*
X174895000Y-99000000D01*
X175800000Y-99000000D01*
X175800000Y-99280000D01*
G36*
X175800000Y-98780000D02*
G01*
X174895000Y-98780000D01*
X174895000Y-98500000D01*
X175800000Y-98500000D01*
X175800000Y-98780000D01*
G37*
X175800000Y-98780000D02*
X174895000Y-98780000D01*
X174895000Y-98500000D01*
X175800000Y-98500000D01*
X175800000Y-98780000D01*
G36*
X176865000Y-98215000D02*
G01*
X176585000Y-98215000D01*
X176585000Y-97310000D01*
X176865000Y-97310000D01*
X176865000Y-98215000D01*
G37*
X176865000Y-98215000D02*
X176585000Y-98215000D01*
X176585000Y-97310000D01*
X176865000Y-97310000D01*
X176865000Y-98215000D01*
G36*
X180555000Y-100280000D02*
G01*
X179650000Y-100280000D01*
X179650000Y-100000000D01*
X180555000Y-100000000D01*
X180555000Y-100280000D01*
G37*
X180555000Y-100280000D02*
X179650000Y-100280000D01*
X179650000Y-100000000D01*
X180555000Y-100000000D01*
X180555000Y-100280000D01*
G36*
X178365000Y-102970000D02*
G01*
X178085000Y-102970000D01*
X178085000Y-102065000D01*
X178365000Y-102065000D01*
X178365000Y-102970000D01*
G37*
X178365000Y-102970000D02*
X178085000Y-102970000D01*
X178085000Y-102065000D01*
X178365000Y-102065000D01*
X178365000Y-102970000D01*
G36*
X178865000Y-102970000D02*
G01*
X178585000Y-102970000D01*
X178585000Y-102065000D01*
X178865000Y-102065000D01*
X178865000Y-102970000D01*
G37*
X178865000Y-102970000D02*
X178585000Y-102970000D01*
X178585000Y-102065000D01*
X178865000Y-102065000D01*
X178865000Y-102970000D01*
G36*
X177865000Y-102970000D02*
G01*
X177585000Y-102970000D01*
X177585000Y-102065000D01*
X177865000Y-102065000D01*
X177865000Y-102970000D01*
G37*
X177865000Y-102970000D02*
X177585000Y-102970000D01*
X177585000Y-102065000D01*
X177865000Y-102065000D01*
X177865000Y-102970000D01*
G36*
X180555000Y-99280000D02*
G01*
X179650000Y-99280000D01*
X179650000Y-99000000D01*
X180555000Y-99000000D01*
X180555000Y-99280000D01*
G37*
X180555000Y-99280000D02*
X179650000Y-99280000D01*
X179650000Y-99000000D01*
X180555000Y-99000000D01*
X180555000Y-99280000D01*
G36*
X180555000Y-99780000D02*
G01*
X179650000Y-99780000D01*
X179650000Y-99500000D01*
X180555000Y-99500000D01*
X180555000Y-99780000D01*
G37*
X180555000Y-99780000D02*
X179650000Y-99780000D01*
X179650000Y-99500000D01*
X180555000Y-99500000D01*
X180555000Y-99780000D01*
G36*
X176365000Y-98215000D02*
G01*
X176085000Y-98215000D01*
X176085000Y-97310000D01*
X176365000Y-97310000D01*
X176365000Y-98215000D01*
G37*
X176365000Y-98215000D02*
X176085000Y-98215000D01*
X176085000Y-97310000D01*
X176365000Y-97310000D01*
X176365000Y-98215000D01*
G36*
X177865000Y-98215000D02*
G01*
X177585000Y-98215000D01*
X177585000Y-97310000D01*
X177865000Y-97310000D01*
X177865000Y-98215000D01*
G37*
X177865000Y-98215000D02*
X177585000Y-98215000D01*
X177585000Y-97310000D01*
X177865000Y-97310000D01*
X177865000Y-98215000D01*
G36*
X179075000Y-101490000D02*
G01*
X176375000Y-101490000D01*
X176375000Y-98790000D01*
X179075000Y-98790000D01*
X179075000Y-101490000D01*
G37*
X179075000Y-101490000D02*
X176375000Y-101490000D01*
X176375000Y-98790000D01*
X179075000Y-98790000D01*
X179075000Y-101490000D01*
G36*
X180555000Y-98780000D02*
G01*
X179650000Y-98780000D01*
X179650000Y-98500000D01*
X180555000Y-98500000D01*
X180555000Y-98780000D01*
G37*
X180555000Y-98780000D02*
X179650000Y-98780000D01*
X179650000Y-98500000D01*
X180555000Y-98500000D01*
X180555000Y-98780000D01*
G36*
X180555000Y-100780000D02*
G01*
X179650000Y-100780000D01*
X179650000Y-100500000D01*
X180555000Y-100500000D01*
X180555000Y-100780000D01*
G37*
X180555000Y-100780000D02*
X179650000Y-100780000D01*
X179650000Y-100500000D01*
X180555000Y-100500000D01*
X180555000Y-100780000D01*
G36*
X178365000Y-98215000D02*
G01*
X178085000Y-98215000D01*
X178085000Y-97310000D01*
X178365000Y-97310000D01*
X178365000Y-98215000D01*
G37*
X178365000Y-98215000D02*
X178085000Y-98215000D01*
X178085000Y-97310000D01*
X178365000Y-97310000D01*
X178365000Y-98215000D01*
G36*
X175800000Y-101780000D02*
G01*
X174895000Y-101780000D01*
X174895000Y-101500000D01*
X175800000Y-101500000D01*
X175800000Y-101780000D01*
G37*
X175800000Y-101780000D02*
X174895000Y-101780000D01*
X174895000Y-101500000D01*
X175800000Y-101500000D01*
X175800000Y-101780000D01*
G36*
X180555000Y-101780000D02*
G01*
X179650000Y-101780000D01*
X179650000Y-101500000D01*
X180555000Y-101500000D01*
X180555000Y-101780000D01*
G37*
X180555000Y-101780000D02*
X179650000Y-101780000D01*
X179650000Y-101500000D01*
X180555000Y-101500000D01*
X180555000Y-101780000D01*
G36*
X175800000Y-101280000D02*
G01*
X174895000Y-101280000D01*
X174895000Y-101000000D01*
X175800000Y-101000000D01*
X175800000Y-101280000D01*
G37*
X175800000Y-101280000D02*
X174895000Y-101280000D01*
X174895000Y-101000000D01*
X175800000Y-101000000D01*
X175800000Y-101280000D01*
G36*
X175800000Y-99780000D02*
G01*
X174895000Y-99780000D01*
X174895000Y-99500000D01*
X175800000Y-99500000D01*
X175800000Y-99780000D01*
G37*
X175800000Y-99780000D02*
X174895000Y-99780000D01*
X174895000Y-99500000D01*
X175800000Y-99500000D01*
X175800000Y-99780000D01*
G36*
X177365000Y-102970000D02*
G01*
X177085000Y-102970000D01*
X177085000Y-102065000D01*
X177365000Y-102065000D01*
X177365000Y-102970000D01*
G37*
X177365000Y-102970000D02*
X177085000Y-102970000D01*
X177085000Y-102065000D01*
X177365000Y-102065000D01*
X177365000Y-102970000D01*
G36*
X177365000Y-98215000D02*
G01*
X177085000Y-98215000D01*
X177085000Y-97310000D01*
X177365000Y-97310000D01*
X177365000Y-98215000D01*
G37*
X177365000Y-98215000D02*
X177085000Y-98215000D01*
X177085000Y-97310000D01*
X177365000Y-97310000D01*
X177365000Y-98215000D01*
%TO.C,USB1*%
G36*
X127018500Y-103785000D02*
G01*
X127112500Y-103813000D01*
X127198500Y-103859000D01*
X127274500Y-103921000D01*
X127336500Y-103997000D01*
X127383500Y-104084000D01*
X127411500Y-104177000D01*
X127421500Y-104275000D01*
X127411500Y-104373000D01*
X127383500Y-104466000D01*
X127336500Y-104553000D01*
X127274500Y-104629000D01*
X127198500Y-104691000D01*
X127112500Y-104737000D01*
X127018500Y-104765000D01*
X126921500Y-104775000D01*
X126021500Y-104775000D01*
X125923500Y-104765000D01*
X125829500Y-104737000D01*
X125743500Y-104691000D01*
X125667500Y-104629000D01*
X125605500Y-104553000D01*
X125559500Y-104466000D01*
X125530500Y-104373000D01*
X125521500Y-104275000D01*
X125530500Y-104177000D01*
X125559500Y-104084000D01*
X125605500Y-103997000D01*
X125667500Y-103921000D01*
X125743500Y-103859000D01*
X125829500Y-103813000D01*
X125923500Y-103785000D01*
X126021500Y-103775000D01*
X126921500Y-103775000D01*
X127018500Y-103785000D01*
G37*
X127018500Y-103785000D02*
X127112500Y-103813000D01*
X127198500Y-103859000D01*
X127274500Y-103921000D01*
X127336500Y-103997000D01*
X127383500Y-104084000D01*
X127411500Y-104177000D01*
X127421500Y-104275000D01*
X127411500Y-104373000D01*
X127383500Y-104466000D01*
X127336500Y-104553000D01*
X127274500Y-104629000D01*
X127198500Y-104691000D01*
X127112500Y-104737000D01*
X127018500Y-104765000D01*
X126921500Y-104775000D01*
X126021500Y-104775000D01*
X125923500Y-104765000D01*
X125829500Y-104737000D01*
X125743500Y-104691000D01*
X125667500Y-104629000D01*
X125605500Y-104553000D01*
X125559500Y-104466000D01*
X125530500Y-104373000D01*
X125521500Y-104275000D01*
X125530500Y-104177000D01*
X125559500Y-104084000D01*
X125605500Y-103997000D01*
X125667500Y-103921000D01*
X125743500Y-103859000D01*
X125829500Y-103813000D01*
X125923500Y-103785000D01*
X126021500Y-103775000D01*
X126921500Y-103775000D01*
X127018500Y-103785000D01*
G36*
X131318500Y-103785000D02*
G01*
X131412500Y-103813000D01*
X131498500Y-103859000D01*
X131574500Y-103921000D01*
X131636500Y-103997000D01*
X131683500Y-104084000D01*
X131711500Y-104177000D01*
X131721500Y-104275000D01*
X131711500Y-104373000D01*
X131683500Y-104466000D01*
X131636500Y-104553000D01*
X131574500Y-104629000D01*
X131498500Y-104691000D01*
X131412500Y-104737000D01*
X131318500Y-104765000D01*
X131221500Y-104775000D01*
X130121500Y-104775000D01*
X130023500Y-104765000D01*
X129929500Y-104737000D01*
X129843500Y-104691000D01*
X129767500Y-104629000D01*
X129705500Y-104553000D01*
X129659500Y-104466000D01*
X129630500Y-104373000D01*
X129621500Y-104275000D01*
X129630500Y-104177000D01*
X129659500Y-104084000D01*
X129705500Y-103997000D01*
X129767500Y-103921000D01*
X129843500Y-103859000D01*
X129929500Y-103813000D01*
X130023500Y-103785000D01*
X130121500Y-103775000D01*
X131221500Y-103775000D01*
X131318500Y-103785000D01*
G37*
X131318500Y-103785000D02*
X131412500Y-103813000D01*
X131498500Y-103859000D01*
X131574500Y-103921000D01*
X131636500Y-103997000D01*
X131683500Y-104084000D01*
X131711500Y-104177000D01*
X131721500Y-104275000D01*
X131711500Y-104373000D01*
X131683500Y-104466000D01*
X131636500Y-104553000D01*
X131574500Y-104629000D01*
X131498500Y-104691000D01*
X131412500Y-104737000D01*
X131318500Y-104765000D01*
X131221500Y-104775000D01*
X130121500Y-104775000D01*
X130023500Y-104765000D01*
X129929500Y-104737000D01*
X129843500Y-104691000D01*
X129767500Y-104629000D01*
X129705500Y-104553000D01*
X129659500Y-104466000D01*
X129630500Y-104373000D01*
X129621500Y-104275000D01*
X129630500Y-104177000D01*
X129659500Y-104084000D01*
X129705500Y-103997000D01*
X129767500Y-103921000D01*
X129843500Y-103859000D01*
X129929500Y-103813000D01*
X130023500Y-103785000D01*
X130121500Y-103775000D01*
X131221500Y-103775000D01*
X131318500Y-103785000D01*
G36*
X131318500Y-95135000D02*
G01*
X131412500Y-95163000D01*
X131498500Y-95209000D01*
X131574500Y-95271000D01*
X131636500Y-95347000D01*
X131683500Y-95434000D01*
X131711500Y-95527000D01*
X131721500Y-95625000D01*
X131711500Y-95723000D01*
X131683500Y-95816000D01*
X131636500Y-95903000D01*
X131574500Y-95979000D01*
X131498500Y-96041000D01*
X131412500Y-96087000D01*
X131318500Y-96115000D01*
X131221500Y-96125000D01*
X130121500Y-96125000D01*
X130023500Y-96115000D01*
X129929500Y-96087000D01*
X129843500Y-96041000D01*
X129767500Y-95979000D01*
X129705500Y-95903000D01*
X129659500Y-95816000D01*
X129630500Y-95723000D01*
X129621500Y-95625000D01*
X129630500Y-95527000D01*
X129659500Y-95434000D01*
X129705500Y-95347000D01*
X129767500Y-95271000D01*
X129843500Y-95209000D01*
X129929500Y-95163000D01*
X130023500Y-95135000D01*
X130121500Y-95125000D01*
X131221500Y-95125000D01*
X131318500Y-95135000D01*
G37*
X131318500Y-95135000D02*
X131412500Y-95163000D01*
X131498500Y-95209000D01*
X131574500Y-95271000D01*
X131636500Y-95347000D01*
X131683500Y-95434000D01*
X131711500Y-95527000D01*
X131721500Y-95625000D01*
X131711500Y-95723000D01*
X131683500Y-95816000D01*
X131636500Y-95903000D01*
X131574500Y-95979000D01*
X131498500Y-96041000D01*
X131412500Y-96087000D01*
X131318500Y-96115000D01*
X131221500Y-96125000D01*
X130121500Y-96125000D01*
X130023500Y-96115000D01*
X129929500Y-96087000D01*
X129843500Y-96041000D01*
X129767500Y-95979000D01*
X129705500Y-95903000D01*
X129659500Y-95816000D01*
X129630500Y-95723000D01*
X129621500Y-95625000D01*
X129630500Y-95527000D01*
X129659500Y-95434000D01*
X129705500Y-95347000D01*
X129767500Y-95271000D01*
X129843500Y-95209000D01*
X129929500Y-95163000D01*
X130023500Y-95135000D01*
X130121500Y-95125000D01*
X131221500Y-95125000D01*
X131318500Y-95135000D01*
G36*
X127018500Y-95135000D02*
G01*
X127112500Y-95163000D01*
X127198500Y-95209000D01*
X127274500Y-95271000D01*
X127336500Y-95347000D01*
X127383500Y-95434000D01*
X127411500Y-95527000D01*
X127421500Y-95625000D01*
X127411500Y-95723000D01*
X127383500Y-95816000D01*
X127336500Y-95903000D01*
X127274500Y-95979000D01*
X127198500Y-96041000D01*
X127112500Y-96087000D01*
X127018500Y-96115000D01*
X126921500Y-96125000D01*
X126021500Y-96125000D01*
X125923500Y-96115000D01*
X125829500Y-96087000D01*
X125743500Y-96041000D01*
X125667500Y-95979000D01*
X125605500Y-95903000D01*
X125559500Y-95816000D01*
X125530500Y-95723000D01*
X125521500Y-95625000D01*
X125530500Y-95527000D01*
X125559500Y-95434000D01*
X125605500Y-95347000D01*
X125667500Y-95271000D01*
X125743500Y-95209000D01*
X125829500Y-95163000D01*
X125923500Y-95135000D01*
X126021500Y-95125000D01*
X126921500Y-95125000D01*
X127018500Y-95135000D01*
G37*
X127018500Y-95135000D02*
X127112500Y-95163000D01*
X127198500Y-95209000D01*
X127274500Y-95271000D01*
X127336500Y-95347000D01*
X127383500Y-95434000D01*
X127411500Y-95527000D01*
X127421500Y-95625000D01*
X127411500Y-95723000D01*
X127383500Y-95816000D01*
X127336500Y-95903000D01*
X127274500Y-95979000D01*
X127198500Y-96041000D01*
X127112500Y-96087000D01*
X127018500Y-96115000D01*
X126921500Y-96125000D01*
X126021500Y-96125000D01*
X125923500Y-96115000D01*
X125829500Y-96087000D01*
X125743500Y-96041000D01*
X125667500Y-95979000D01*
X125605500Y-95903000D01*
X125559500Y-95816000D01*
X125530500Y-95723000D01*
X125521500Y-95625000D01*
X125530500Y-95527000D01*
X125559500Y-95434000D01*
X125605500Y-95347000D01*
X125667500Y-95271000D01*
X125743500Y-95209000D01*
X125829500Y-95163000D01*
X125923500Y-95135000D01*
X126021500Y-95125000D01*
X126921500Y-95125000D01*
X127018500Y-95135000D01*
G36*
X132008500Y-101350000D02*
G01*
X130858500Y-101350000D01*
X130858500Y-101050000D01*
X132008500Y-101050000D01*
X132008500Y-101350000D01*
G37*
X132008500Y-101350000D02*
X130858500Y-101350000D01*
X130858500Y-101050000D01*
X132008500Y-101050000D01*
X132008500Y-101350000D01*
G36*
X132008500Y-97850000D02*
G01*
X130858500Y-97850000D01*
X130858500Y-97250000D01*
X132008500Y-97250000D01*
X132008500Y-97850000D01*
G37*
X132008500Y-97850000D02*
X130858500Y-97850000D01*
X130858500Y-97250000D01*
X132008500Y-97250000D01*
X132008500Y-97850000D01*
G36*
X132008500Y-100850000D02*
G01*
X130858500Y-100850000D01*
X130858500Y-100550000D01*
X132008500Y-100550000D01*
X132008500Y-100850000D01*
G37*
X132008500Y-100850000D02*
X130858500Y-100850000D01*
X130858500Y-100550000D01*
X132008500Y-100550000D01*
X132008500Y-100850000D01*
G36*
X132008500Y-99350000D02*
G01*
X130858500Y-99350000D01*
X130858500Y-99050000D01*
X132008500Y-99050000D01*
X132008500Y-99350000D01*
G37*
X132008500Y-99350000D02*
X130858500Y-99350000D01*
X130858500Y-99050000D01*
X132008500Y-99050000D01*
X132008500Y-99350000D01*
G36*
X132008500Y-103450000D02*
G01*
X130858500Y-103450000D01*
X130858500Y-102850000D01*
X132008500Y-102850000D01*
X132008500Y-103450000D01*
G37*
X132008500Y-103450000D02*
X130858500Y-103450000D01*
X130858500Y-102850000D01*
X132008500Y-102850000D01*
X132008500Y-103450000D01*
G36*
X132008500Y-102650000D02*
G01*
X130858500Y-102650000D01*
X130858500Y-102050000D01*
X132008500Y-102050000D01*
X132008500Y-102650000D01*
G37*
X132008500Y-102650000D02*
X130858500Y-102650000D01*
X130858500Y-102050000D01*
X132008500Y-102050000D01*
X132008500Y-102650000D01*
G36*
X132008500Y-97050000D02*
G01*
X130858500Y-97050000D01*
X130858500Y-96450000D01*
X132008500Y-96450000D01*
X132008500Y-97050000D01*
G37*
X132008500Y-97050000D02*
X130858500Y-97050000D01*
X130858500Y-96450000D01*
X132008500Y-96450000D01*
X132008500Y-97050000D01*
G36*
X132008500Y-98850000D02*
G01*
X130858500Y-98850000D01*
X130858500Y-98550000D01*
X132008500Y-98550000D01*
X132008500Y-98850000D01*
G37*
X132008500Y-98850000D02*
X130858500Y-98850000D01*
X130858500Y-98550000D01*
X132008500Y-98550000D01*
X132008500Y-98850000D01*
G36*
X132008500Y-98350000D02*
G01*
X130858500Y-98350000D01*
X130858500Y-98050000D01*
X132008500Y-98050000D01*
X132008500Y-98350000D01*
G37*
X132008500Y-98350000D02*
X130858500Y-98350000D01*
X130858500Y-98050000D01*
X132008500Y-98050000D01*
X132008500Y-98350000D01*
G36*
X132008500Y-100350000D02*
G01*
X130858500Y-100350000D01*
X130858500Y-100050000D01*
X132008500Y-100050000D01*
X132008500Y-100350000D01*
G37*
X132008500Y-100350000D02*
X130858500Y-100350000D01*
X130858500Y-100050000D01*
X132008500Y-100050000D01*
X132008500Y-100350000D01*
G36*
X132008500Y-101850000D02*
G01*
X130858500Y-101850000D01*
X130858500Y-101550000D01*
X132008500Y-101550000D01*
X132008500Y-101850000D01*
G37*
X132008500Y-101850000D02*
X130858500Y-101850000D01*
X130858500Y-101550000D01*
X132008500Y-101550000D01*
X132008500Y-101850000D01*
G36*
X132008500Y-99850000D02*
G01*
X130858500Y-99850000D01*
X130858500Y-99550000D01*
X132008500Y-99550000D01*
X132008500Y-99850000D01*
G37*
X132008500Y-99850000D02*
X130858500Y-99850000D01*
X130858500Y-99550000D01*
X132008500Y-99550000D01*
X132008500Y-99850000D01*
%TO.C,U2*%
G36*
X144415000Y-101013500D02*
G01*
X143665000Y-101013500D01*
X143665000Y-100763500D01*
X144415000Y-100763500D01*
X144415000Y-101013500D01*
G37*
X144415000Y-101013500D02*
X143665000Y-101013500D01*
X143665000Y-100763500D01*
X144415000Y-100763500D01*
X144415000Y-101013500D01*
G36*
X142464000Y-101963500D02*
G01*
X142214000Y-101963500D01*
X142214000Y-101213500D01*
X142464000Y-101213500D01*
X142464000Y-101963500D01*
G37*
X142464000Y-101963500D02*
X142214000Y-101963500D01*
X142214000Y-101213500D01*
X142464000Y-101213500D01*
X142464000Y-101963500D01*
G36*
X144415000Y-100513500D02*
G01*
X143665000Y-100513500D01*
X143665000Y-100263500D01*
X144415000Y-100263500D01*
X144415000Y-100513500D01*
G37*
X144415000Y-100513500D02*
X143665000Y-100513500D01*
X143665000Y-100263500D01*
X144415000Y-100263500D01*
X144415000Y-100513500D01*
G36*
X144415000Y-100013500D02*
G01*
X143665000Y-100013500D01*
X143665000Y-99763500D01*
X144415000Y-99763500D01*
X144415000Y-100013500D01*
G37*
X144415000Y-100013500D02*
X143665000Y-100013500D01*
X143665000Y-99763500D01*
X144415000Y-99763500D01*
X144415000Y-100013500D01*
G36*
X142964000Y-99063500D02*
G01*
X142714000Y-99063500D01*
X142714000Y-98313500D01*
X142964000Y-98313500D01*
X142964000Y-99063500D01*
G37*
X142964000Y-99063500D02*
X142714000Y-99063500D01*
X142714000Y-98313500D01*
X142964000Y-98313500D01*
X142964000Y-99063500D01*
G36*
X143270000Y-100818500D02*
G01*
X141910000Y-100818500D01*
X141910000Y-99458500D01*
X143270000Y-99458500D01*
X143270000Y-100818500D01*
G37*
X143270000Y-100818500D02*
X141910000Y-100818500D01*
X141910000Y-99458500D01*
X143270000Y-99458500D01*
X143270000Y-100818500D01*
G36*
X143463000Y-99063500D02*
G01*
X143213000Y-99063500D01*
X143213000Y-98313500D01*
X143463000Y-98313500D01*
X143463000Y-99063500D01*
G37*
X143463000Y-99063500D02*
X143213000Y-99063500D01*
X143213000Y-98313500D01*
X143463000Y-98313500D01*
X143463000Y-99063500D01*
G36*
X141964000Y-101963500D02*
G01*
X141714000Y-101963500D01*
X141714000Y-101213500D01*
X141964000Y-101213500D01*
X141964000Y-101963500D01*
G37*
X141964000Y-101963500D02*
X141714000Y-101963500D01*
X141714000Y-101213500D01*
X141964000Y-101213500D01*
X141964000Y-101963500D01*
G36*
X141515000Y-101013500D02*
G01*
X140765000Y-101013500D01*
X140765000Y-100763500D01*
X141515000Y-100763500D01*
X141515000Y-101013500D01*
G37*
X141515000Y-101013500D02*
X140765000Y-101013500D01*
X140765000Y-100763500D01*
X141515000Y-100763500D01*
X141515000Y-101013500D01*
G36*
X142964000Y-101963500D02*
G01*
X142714000Y-101963500D01*
X142714000Y-101213500D01*
X142964000Y-101213500D01*
X142964000Y-101963500D01*
G37*
X142964000Y-101963500D02*
X142714000Y-101963500D01*
X142714000Y-101213500D01*
X142964000Y-101213500D01*
X142964000Y-101963500D01*
G36*
X144415000Y-99513500D02*
G01*
X143665000Y-99513500D01*
X143665000Y-99263500D01*
X144415000Y-99263500D01*
X144415000Y-99513500D01*
G37*
X144415000Y-99513500D02*
X143665000Y-99513500D01*
X143665000Y-99263500D01*
X144415000Y-99263500D01*
X144415000Y-99513500D01*
G36*
X141515000Y-99513500D02*
G01*
X140765000Y-99513500D01*
X140765000Y-99263500D01*
X141515000Y-99263500D01*
X141515000Y-99513500D01*
G37*
X141515000Y-99513500D02*
X140765000Y-99513500D01*
X140765000Y-99263500D01*
X141515000Y-99263500D01*
X141515000Y-99513500D01*
G36*
X141515000Y-100513500D02*
G01*
X140765000Y-100513500D01*
X140765000Y-100263500D01*
X141515000Y-100263500D01*
X141515000Y-100513500D01*
G37*
X141515000Y-100513500D02*
X140765000Y-100513500D01*
X140765000Y-100263500D01*
X141515000Y-100263500D01*
X141515000Y-100513500D01*
G36*
X141515000Y-100013500D02*
G01*
X140765000Y-100013500D01*
X140765000Y-99763500D01*
X141515000Y-99763500D01*
X141515000Y-100013500D01*
G37*
X141515000Y-100013500D02*
X140765000Y-100013500D01*
X140765000Y-99763500D01*
X141515000Y-99763500D01*
X141515000Y-100013500D01*
G36*
X142463000Y-99063500D02*
G01*
X142213000Y-99063500D01*
X142213000Y-98313500D01*
X142463000Y-98313500D01*
X142463000Y-99063500D01*
G37*
X142463000Y-99063500D02*
X142213000Y-99063500D01*
X142213000Y-98313500D01*
X142463000Y-98313500D01*
X142463000Y-99063500D01*
G36*
X143464000Y-101963500D02*
G01*
X143214000Y-101963500D01*
X143214000Y-101213500D01*
X143464000Y-101213500D01*
X143464000Y-101963500D01*
G37*
X143464000Y-101963500D02*
X143214000Y-101963500D01*
X143214000Y-101213500D01*
X143464000Y-101213500D01*
X143464000Y-101963500D01*
G36*
X141964000Y-99063500D02*
G01*
X141714000Y-99063500D01*
X141714000Y-98313500D01*
X141964000Y-98313500D01*
X141964000Y-99063500D01*
G37*
X141964000Y-99063500D02*
X141714000Y-99063500D01*
X141714000Y-98313500D01*
X141964000Y-98313500D01*
X141964000Y-99063500D01*
%TD*%
D11*
%TO.C,R8*%
X183685000Y-102480000D03*
X185335000Y-102480000D03*
%TD*%
D12*
%TO.C,R9*%
X137495000Y-97220000D03*
X135845000Y-97220000D03*
%TD*%
D13*
%TO.C,F2*%
X188580000Y-106880000D03*
X191380000Y-106880000D03*
%TD*%
D11*
%TO.C,R7*%
X183685000Y-103940000D03*
X185335000Y-103940000D03*
%TD*%
D14*
%TO.C,C2*%
X183735000Y-95820000D03*
X185285000Y-95820000D03*
%TD*%
D15*
%TO.C,D2*%
X170232500Y-97060000D03*
X171807500Y-97060000D03*
%TD*%
D11*
%TO.C,R6*%
X147425000Y-101240000D03*
X149075000Y-101240000D03*
%TD*%
D16*
%TO.C,F1*%
X130450000Y-93810000D03*
X130450000Y-91010000D03*
%TD*%
D11*
%TO.C,R5*%
X147425000Y-98680000D03*
X149075000Y-98680000D03*
%TD*%
D12*
%TO.C,R10*%
X137495000Y-102500000D03*
X135845000Y-102500000D03*
%TD*%
D17*
%TO.C,USB2*%
X189716700Y-103090000D03*
X189716700Y-102290000D03*
D18*
X189716700Y-101140000D03*
X189716700Y-100140000D03*
X189716700Y-99640000D03*
X189716700Y-98640000D03*
D17*
X189716700Y-96690000D03*
X189716700Y-97490000D03*
D18*
X189716700Y-98140000D03*
X189716700Y-99140000D03*
X189716700Y-100640000D03*
X189716700Y-101640000D03*
%TD*%
D19*
%TO.C,U1*%
X180102000Y-101640000D03*
X180102000Y-101140000D03*
X180102000Y-100640000D03*
X180102000Y-100140000D03*
X180102000Y-99640000D03*
X180102000Y-99140000D03*
X180102000Y-98640000D03*
D20*
X179225000Y-97763000D03*
X178725000Y-97763000D03*
X178225000Y-97763000D03*
X177725000Y-97763000D03*
X177225000Y-97763000D03*
X176725000Y-97763000D03*
X176225000Y-97763000D03*
D19*
X175348000Y-98640000D03*
X175348000Y-99140000D03*
X175348000Y-99640000D03*
X175348000Y-100140000D03*
X175348000Y-100640000D03*
X175348000Y-101140000D03*
X175348000Y-101640000D03*
D20*
X176225000Y-102517000D03*
X176725000Y-102517000D03*
X177225000Y-102517000D03*
X177725000Y-102517000D03*
X178225000Y-102517000D03*
X178725000Y-102517000D03*
X179225000Y-102517000D03*
D21*
X177725000Y-100140000D03*
%TD*%
D11*
%TO.C,R1*%
X132625000Y-93340000D03*
X134275000Y-93340000D03*
%TD*%
D22*
%TO.C,D5*%
X149037500Y-97000000D03*
X147462500Y-97000000D03*
%TD*%
D23*
%TO.C,C5*%
X143345000Y-104050000D03*
X141795000Y-104050000D03*
%TD*%
%TO.C,C7*%
X143355000Y-96240000D03*
X141805000Y-96240000D03*
%TD*%
D12*
%TO.C,R4*%
X191705000Y-93270000D03*
X190055000Y-93270000D03*
%TD*%
D14*
%TO.C,C4*%
X183735000Y-98740000D03*
X185285000Y-98740000D03*
%TD*%
D12*
%TO.C,R3*%
X171855000Y-101130000D03*
X170205000Y-101130000D03*
%TD*%
D17*
%TO.C,USB1*%
X131433500Y-96750000D03*
X131433500Y-97550000D03*
D18*
X131433500Y-98700000D03*
X131433500Y-99700000D03*
X131433500Y-100200000D03*
X131433500Y-101200000D03*
D17*
X131433500Y-103150000D03*
X131433500Y-102350000D03*
D18*
X131433500Y-101700000D03*
X131433500Y-100700000D03*
X131433500Y-99200000D03*
X131433500Y-98200000D03*
%TD*%
D15*
%TO.C,D3*%
X170252500Y-103070000D03*
X171827500Y-103070000D03*
%TD*%
D22*
%TO.C,D1*%
X134197500Y-91550000D03*
X132622500Y-91550000D03*
%TD*%
%TO.C,D6*%
X149037500Y-102910000D03*
X147462500Y-102910000D03*
%TD*%
D14*
%TO.C,C6*%
X135895000Y-99860000D03*
X137445000Y-99860000D03*
%TD*%
D15*
%TO.C,D4*%
X190132500Y-91670000D03*
X191707500Y-91670000D03*
%TD*%
D14*
%TO.C,C3*%
X183735000Y-100200000D03*
X185285000Y-100200000D03*
%TD*%
%TO.C,C1*%
X183735000Y-97280000D03*
X185285000Y-97280000D03*
%TD*%
D12*
%TO.C,R2*%
X171835000Y-98730000D03*
X170185000Y-98730000D03*
%TD*%
D24*
%TO.C,U2*%
X143338000Y-98688500D03*
X142839000Y-98688500D03*
X142338000Y-98688500D03*
X141839000Y-98688500D03*
D25*
X141140000Y-99388500D03*
X141140000Y-99888500D03*
X141140000Y-100388500D03*
X141140000Y-100888500D03*
D24*
X141840000Y-101588500D03*
X142340000Y-101588500D03*
X142840000Y-101588500D03*
X143339000Y-101588500D03*
D25*
X144040000Y-100888500D03*
X144040000Y-100388500D03*
X144040000Y-99888500D03*
X144040000Y-99388500D03*
D26*
X142590000Y-100138500D03*
%TD*%
M02*
