M48
; DRILL file {KiCad 8.0.6} date 2024-11-26T19:59:02+0800
; FORMAT={-:-/ absolute / metric / decimal}
; #@! TF.CreationDate,2024-11-26T19:59:02+08:00
; #@! TF.GenerationSoftware,Kicad,Pcbnew,8.0.6
; #@! TF.FileFunction,MixedPlating,1,2
FMAT,2
METRIC
; #@! TA.AperFunction,Plated,PTH,ViaDrill
T1C0.300
; #@! TA.AperFunction,Plated,PTH,ViaDrill
T2C0.400
; #@! TA.AperFunction,Plated,PTH,ViaDrill
T3C0.500
; #@! TA.AperFunction,Plated,PTH,ComponentDrill
T4C0.600
; #@! TA.AperFunction,Plated,PTH,ComponentDrill
T5C1.000
; #@! TA.AperFunction,NonPlated,NPTH,ComponentDrill
T6C0.650
; #@! TA.AperFunction,NonPlated,NPTH,ComponentDrill
T7C2.200
%
G90
G05
T1
X-2.08Y-4.71
X-2.08Y-15.6
X-1.08Y-4.71
X-1.08Y-15.6
X-0.08Y-4.71
X-0.08Y-15.6
X0.92Y-4.71
X0.92Y-15.6
X1.92Y-4.71
X1.92Y-15.6
X2.57Y-9.4
X2.57Y-10.4
X9.55Y-9.8
X9.56Y-10.55
X9.56Y-12.71
X9.56Y-13.46
X15.1Y-7.24
X15.468Y-10.15
X15.51Y-13.56
X15.94Y-3.48
X16.21Y-7.24
X17.32Y-7.24
X17.54Y-11.11
X17.945Y-3.48
X18.3Y-11.82
X18.39Y-16.98
X18.665Y-13.7
X18.671Y-12.999
X19.69Y-10.28
X20.16Y-16.98
X20.348Y-3.48
X20.69Y-10.28
X21.378Y-14.583
X22.433Y-3.477
X22.82Y-16.98
X23.808Y-3.48
X26.545Y-13.52
X29.06Y-2.19
T2
X7.97Y-4.95
X11.87Y-1.33
X11.87Y-6.68
X12.84Y-15.03
X13.414Y-11.101
X13.9Y-5.28
X15.97Y-15.23
X17.57Y-8.65
X18.7Y-6.58
X18.7Y-9.34
X19.82Y-12.449
T3
X4.64Y-7.74
X4.64Y-12.54
T5
X3.361Y-18.94
X5.901Y-18.94
X8.441Y-18.94
X14.57Y-1.33
X17.11Y-1.33
X17.12Y-18.94
X19.65Y-1.33
X19.66Y-18.94
X22.19Y-1.33
X22.2Y-18.94
X29.06Y-5.065
X29.06Y-7.605
X29.06Y-10.145
X29.06Y-12.685
X29.06Y-15.225
T6
X2.131Y-7.26
X2.131Y-13.04
T7
X-0.36Y-2.19
X-0.36Y-18.11
X25.84Y-2.19
X25.84Y-18.11
T4
G00X-1.119Y-5.825
M15
G01X-2.019Y-5.825
M16
G05
G00X-1.119Y-14.475
M15
G01X-2.019Y-14.475
M16
G05
G00X3.231Y-5.825
M15
G01X2.031Y-5.825
M16
G05
G00X3.231Y-14.475
M15
G01X2.031Y-14.475
M16
G05
M30
