%TF.GenerationSoftware,KiCad,Pcbnew,7.0.6*%
%TF.CreationDate,2023-07-09T03:07:13+08:00*%
%TF.ProjectId,UINIO-USB-UART,55494e49-4f2d-4555-9342-2d554152542e,Version 3.2.0*%
%TF.SameCoordinates,PX8b79910PY5020b20*%
%TF.FileFunction,Paste,Top*%
%TF.FilePolarity,Positive*%
%FSLAX46Y46*%
G04 Gerber Fmt 4.6, Leading zero omitted, Abs format (unit mm)*
G04 Created by KiCad (PCBNEW 7.0.6) date 2023-07-09 03:07:13*
%MOMM*%
%LPD*%
G01*
G04 APERTURE LIST*
G04 Aperture macros list*
%AMRoundRect*
0 Rectangle with rounded corners*
0 $1 Rounding radius*
0 $2 $3 $4 $5 $6 $7 $8 $9 X,Y pos of 4 corners*
0 Add a 4 corners polygon primitive as box body*
4,1,4,$2,$3,$4,$5,$6,$7,$8,$9,$2,$3,0*
0 Add four circle primitives for the rounded corners*
1,1,$1+$1,$2,$3*
1,1,$1+$1,$4,$5*
1,1,$1+$1,$6,$7*
1,1,$1+$1,$8,$9*
0 Add four rect primitives between the rounded corners*
20,1,$1+$1,$2,$3,$4,$5,0*
20,1,$1+$1,$4,$5,$6,$7,0*
20,1,$1+$1,$6,$7,$8,$9,0*
20,1,$1+$1,$8,$9,$2,$3,0*%
%AMRotRect*
0 Rectangle, with rotation*
0 The origin of the aperture is its center*
0 $1 length*
0 $2 width*
0 $3 Rotation angle, in degrees counterclockwise*
0 Add horizontal line*
21,1,$1,$2,0,0,$3*%
G04 Aperture macros list end*
%ADD10C,0.120000*%
%ADD11RoundRect,0.200000X0.275000X-0.200000X0.275000X0.200000X-0.275000X0.200000X-0.275000X-0.200000X0*%
%ADD12RoundRect,0.250000X-0.625000X0.375000X-0.625000X-0.375000X0.625000X-0.375000X0.625000X0.375000X0*%
%ADD13RoundRect,0.225000X0.250000X-0.225000X0.250000X0.225000X-0.250000X0.225000X-0.250000X-0.225000X0*%
%ADD14RoundRect,0.218750X0.256250X-0.218750X0.256250X0.218750X-0.256250X0.218750X-0.256250X-0.218750X0*%
%ADD15RoundRect,0.200000X-0.275000X0.200000X-0.275000X-0.200000X0.275000X-0.200000X0.275000X0.200000X0*%
%ADD16R,0.600000X1.150000*%
%ADD17R,0.300000X1.150000*%
%ADD18R,0.280000X0.905000*%
%ADD19R,0.905000X0.280000*%
%ADD20R,3.350000X3.350000*%
%ADD21RoundRect,0.218750X-0.256250X0.218750X-0.256250X-0.218750X0.256250X-0.218750X0.256250X0.218750X0*%
%ADD22RoundRect,0.225000X-0.250000X0.225000X-0.250000X-0.225000X0.250000X-0.225000X0.250000X0.225000X0*%
%ADD23RotRect,0.250000X0.750000X45.000000*%
%ADD24RotRect,0.750000X0.250000X45.000000*%
%ADD25RotRect,1.700000X1.700000X45.000000*%
G04 APERTURE END LIST*
%TO.C,USB2*%
D10*
X21750000Y-2073320D02*
X21150000Y-2073320D01*
X21150000Y-923320D01*
X21750000Y-923320D01*
X21750000Y-2073320D01*
G36*
X21750000Y-2073320D02*
G01*
X21150000Y-2073320D01*
X21150000Y-923320D01*
X21750000Y-923320D01*
X21750000Y-2073320D01*
G37*
X20950000Y-2073320D02*
X20350000Y-2073320D01*
X20350000Y-923320D01*
X20950000Y-923320D01*
X20950000Y-2073320D01*
G36*
X20950000Y-2073320D02*
G01*
X20350000Y-2073320D01*
X20350000Y-923320D01*
X20950000Y-923320D01*
X20950000Y-2073320D01*
G37*
X20150000Y-2073320D02*
X19850000Y-2073320D01*
X19850000Y-923320D01*
X20150000Y-923320D01*
X20150000Y-2073320D01*
G36*
X20150000Y-2073320D02*
G01*
X19850000Y-2073320D01*
X19850000Y-923320D01*
X20150000Y-923320D01*
X20150000Y-2073320D01*
G37*
X19650000Y-2073320D02*
X19350000Y-2073320D01*
X19350000Y-923320D01*
X19650000Y-923320D01*
X19650000Y-2073320D01*
G36*
X19650000Y-2073320D02*
G01*
X19350000Y-2073320D01*
X19350000Y-923320D01*
X19650000Y-923320D01*
X19650000Y-2073320D01*
G37*
X19150000Y-2073320D02*
X18850000Y-2073320D01*
X18850000Y-923320D01*
X19150000Y-923320D01*
X19150000Y-2073320D01*
G36*
X19150000Y-2073320D02*
G01*
X18850000Y-2073320D01*
X18850000Y-923320D01*
X19150000Y-923320D01*
X19150000Y-2073320D01*
G37*
X18650000Y-2073320D02*
X18350000Y-2073320D01*
X18350000Y-923320D01*
X18650000Y-923320D01*
X18650000Y-2073320D01*
G36*
X18650000Y-2073320D02*
G01*
X18350000Y-2073320D01*
X18350000Y-923320D01*
X18650000Y-923320D01*
X18650000Y-2073320D01*
G37*
X18150000Y-2073320D02*
X17850000Y-2073320D01*
X17850000Y-923320D01*
X18150000Y-923320D01*
X18150000Y-2073320D01*
G36*
X18150000Y-2073320D02*
G01*
X17850000Y-2073320D01*
X17850000Y-923320D01*
X18150000Y-923320D01*
X18150000Y-2073320D01*
G37*
X17650000Y-2073320D02*
X17350000Y-2073320D01*
X17350000Y-923320D01*
X17650000Y-923320D01*
X17650000Y-2073320D01*
G36*
X17650000Y-2073320D02*
G01*
X17350000Y-2073320D01*
X17350000Y-923320D01*
X17650000Y-923320D01*
X17650000Y-2073320D01*
G37*
X17150000Y-2073320D02*
X16850000Y-2073320D01*
X16850000Y-923320D01*
X17150000Y-923320D01*
X17150000Y-2073320D01*
G36*
X17150000Y-2073320D02*
G01*
X16850000Y-2073320D01*
X16850000Y-923320D01*
X17150000Y-923320D01*
X17150000Y-2073320D01*
G37*
X16650000Y-2073320D02*
X16350000Y-2073320D01*
X16350000Y-923320D01*
X16650000Y-923320D01*
X16650000Y-2073320D01*
G36*
X16650000Y-2073320D02*
G01*
X16350000Y-2073320D01*
X16350000Y-923320D01*
X16650000Y-923320D01*
X16650000Y-2073320D01*
G37*
X16150000Y-2073320D02*
X15550000Y-2073320D01*
X15550000Y-923320D01*
X16150000Y-923320D01*
X16150000Y-2073320D01*
G36*
X16150000Y-2073320D02*
G01*
X15550000Y-2073320D01*
X15550000Y-923320D01*
X16150000Y-923320D01*
X16150000Y-2073320D01*
G37*
X15350000Y-2073320D02*
X14750000Y-2073320D01*
X14750000Y-923320D01*
X15350000Y-923320D01*
X15350000Y-2073320D01*
G36*
X15350000Y-2073320D02*
G01*
X14750000Y-2073320D01*
X14750000Y-923320D01*
X15350000Y-923320D01*
X15350000Y-2073320D01*
G37*
X22673000Y304680D02*
X22766000Y275680D01*
X22853000Y229680D01*
X22929000Y167680D01*
X22991000Y91680D01*
X23037000Y5680D01*
X23065000Y-88320D01*
X23075000Y-186320D01*
X23075000Y-1286320D01*
X23065000Y-1383320D01*
X23037000Y-1477320D01*
X22991000Y-1563320D01*
X22929000Y-1639320D01*
X22853000Y-1701320D01*
X22766000Y-1748320D01*
X22673000Y-1776320D01*
X22575000Y-1786320D01*
X22477000Y-1776320D01*
X22384000Y-1748320D01*
X22297000Y-1701320D01*
X22221000Y-1639320D01*
X22159000Y-1563320D01*
X22113000Y-1477320D01*
X22085000Y-1383320D01*
X22075000Y-1286320D01*
X22075000Y-186320D01*
X22085000Y-88320D01*
X22113000Y5680D01*
X22159000Y91680D01*
X22221000Y167680D01*
X22297000Y229680D01*
X22384000Y275680D01*
X22477000Y304680D01*
X22575000Y313680D01*
X22673000Y304680D01*
G36*
X22673000Y304680D02*
G01*
X22766000Y275680D01*
X22853000Y229680D01*
X22929000Y167680D01*
X22991000Y91680D01*
X23037000Y5680D01*
X23065000Y-88320D01*
X23075000Y-186320D01*
X23075000Y-1286320D01*
X23065000Y-1383320D01*
X23037000Y-1477320D01*
X22991000Y-1563320D01*
X22929000Y-1639320D01*
X22853000Y-1701320D01*
X22766000Y-1748320D01*
X22673000Y-1776320D01*
X22575000Y-1786320D01*
X22477000Y-1776320D01*
X22384000Y-1748320D01*
X22297000Y-1701320D01*
X22221000Y-1639320D01*
X22159000Y-1563320D01*
X22113000Y-1477320D01*
X22085000Y-1383320D01*
X22075000Y-1286320D01*
X22075000Y-186320D01*
X22085000Y-88320D01*
X22113000Y5680D01*
X22159000Y91680D01*
X22221000Y167680D01*
X22297000Y229680D01*
X22384000Y275680D01*
X22477000Y304680D01*
X22575000Y313680D01*
X22673000Y304680D01*
G37*
X22673000Y4404680D02*
X22766000Y4375680D01*
X22853000Y4329680D01*
X22929000Y4267680D01*
X22991000Y4191680D01*
X23037000Y4105680D01*
X23065000Y4011680D01*
X23075000Y3913680D01*
X23075000Y3013680D01*
X23065000Y2916680D01*
X23037000Y2822680D01*
X22991000Y2736680D01*
X22929000Y2660680D01*
X22853000Y2598680D01*
X22766000Y2551680D01*
X22673000Y2523680D01*
X22575000Y2513680D01*
X22477000Y2523680D01*
X22384000Y2551680D01*
X22297000Y2598680D01*
X22221000Y2660680D01*
X22159000Y2736680D01*
X22113000Y2822680D01*
X22085000Y2916680D01*
X22075000Y3013680D01*
X22075000Y3913680D01*
X22085000Y4011680D01*
X22113000Y4105680D01*
X22159000Y4191680D01*
X22221000Y4267680D01*
X22297000Y4329680D01*
X22384000Y4375680D01*
X22477000Y4404680D01*
X22575000Y4413680D01*
X22673000Y4404680D01*
G36*
X22673000Y4404680D02*
G01*
X22766000Y4375680D01*
X22853000Y4329680D01*
X22929000Y4267680D01*
X22991000Y4191680D01*
X23037000Y4105680D01*
X23065000Y4011680D01*
X23075000Y3913680D01*
X23075000Y3013680D01*
X23065000Y2916680D01*
X23037000Y2822680D01*
X22991000Y2736680D01*
X22929000Y2660680D01*
X22853000Y2598680D01*
X22766000Y2551680D01*
X22673000Y2523680D01*
X22575000Y2513680D01*
X22477000Y2523680D01*
X22384000Y2551680D01*
X22297000Y2598680D01*
X22221000Y2660680D01*
X22159000Y2736680D01*
X22113000Y2822680D01*
X22085000Y2916680D01*
X22075000Y3013680D01*
X22075000Y3913680D01*
X22085000Y4011680D01*
X22113000Y4105680D01*
X22159000Y4191680D01*
X22221000Y4267680D01*
X22297000Y4329680D01*
X22384000Y4375680D01*
X22477000Y4404680D01*
X22575000Y4413680D01*
X22673000Y4404680D01*
G37*
X14023000Y304680D02*
X14116000Y275680D01*
X14203000Y229680D01*
X14279000Y167680D01*
X14341000Y91680D01*
X14387000Y5680D01*
X14415000Y-88320D01*
X14425000Y-186320D01*
X14425000Y-1286320D01*
X14415000Y-1383320D01*
X14387000Y-1477320D01*
X14341000Y-1563320D01*
X14279000Y-1639320D01*
X14203000Y-1701320D01*
X14116000Y-1748320D01*
X14023000Y-1776320D01*
X13925000Y-1786320D01*
X13827000Y-1776320D01*
X13734000Y-1748320D01*
X13647000Y-1701320D01*
X13571000Y-1639320D01*
X13509000Y-1563320D01*
X13463000Y-1477320D01*
X13435000Y-1383320D01*
X13425000Y-1286320D01*
X13425000Y-186320D01*
X13435000Y-88320D01*
X13463000Y5680D01*
X13509000Y91680D01*
X13571000Y167680D01*
X13647000Y229680D01*
X13734000Y275680D01*
X13827000Y304680D01*
X13925000Y313680D01*
X14023000Y304680D01*
G36*
X14023000Y304680D02*
G01*
X14116000Y275680D01*
X14203000Y229680D01*
X14279000Y167680D01*
X14341000Y91680D01*
X14387000Y5680D01*
X14415000Y-88320D01*
X14425000Y-186320D01*
X14425000Y-1286320D01*
X14415000Y-1383320D01*
X14387000Y-1477320D01*
X14341000Y-1563320D01*
X14279000Y-1639320D01*
X14203000Y-1701320D01*
X14116000Y-1748320D01*
X14023000Y-1776320D01*
X13925000Y-1786320D01*
X13827000Y-1776320D01*
X13734000Y-1748320D01*
X13647000Y-1701320D01*
X13571000Y-1639320D01*
X13509000Y-1563320D01*
X13463000Y-1477320D01*
X13435000Y-1383320D01*
X13425000Y-1286320D01*
X13425000Y-186320D01*
X13435000Y-88320D01*
X13463000Y5680D01*
X13509000Y91680D01*
X13571000Y167680D01*
X13647000Y229680D01*
X13734000Y275680D01*
X13827000Y304680D01*
X13925000Y313680D01*
X14023000Y304680D01*
G37*
X14023000Y4404680D02*
X14116000Y4375680D01*
X14203000Y4329680D01*
X14279000Y4267680D01*
X14341000Y4191680D01*
X14387000Y4105680D01*
X14415000Y4011680D01*
X14425000Y3913680D01*
X14425000Y3013680D01*
X14415000Y2916680D01*
X14387000Y2822680D01*
X14341000Y2736680D01*
X14279000Y2660680D01*
X14203000Y2598680D01*
X14116000Y2551680D01*
X14023000Y2523680D01*
X13925000Y2513680D01*
X13827000Y2523680D01*
X13734000Y2551680D01*
X13647000Y2598680D01*
X13571000Y2660680D01*
X13509000Y2736680D01*
X13463000Y2822680D01*
X13435000Y2916680D01*
X13425000Y3013680D01*
X13425000Y3913680D01*
X13435000Y4011680D01*
X13463000Y4105680D01*
X13509000Y4191680D01*
X13571000Y4267680D01*
X13647000Y4329680D01*
X13734000Y4375680D01*
X13827000Y4404680D01*
X13925000Y4413680D01*
X14023000Y4404680D01*
G36*
X14023000Y4404680D02*
G01*
X14116000Y4375680D01*
X14203000Y4329680D01*
X14279000Y4267680D01*
X14341000Y4191680D01*
X14387000Y4105680D01*
X14415000Y4011680D01*
X14425000Y3913680D01*
X14425000Y3013680D01*
X14415000Y2916680D01*
X14387000Y2822680D01*
X14341000Y2736680D01*
X14279000Y2660680D01*
X14203000Y2598680D01*
X14116000Y2551680D01*
X14023000Y2523680D01*
X13925000Y2513680D01*
X13827000Y2523680D01*
X13734000Y2551680D01*
X13647000Y2598680D01*
X13571000Y2660680D01*
X13509000Y2736680D01*
X13463000Y2822680D01*
X13435000Y2916680D01*
X13425000Y3013680D01*
X13425000Y3913680D01*
X13435000Y4011680D01*
X13463000Y4105680D01*
X13509000Y4191680D01*
X13571000Y4267680D01*
X13647000Y4329680D01*
X13734000Y4375680D01*
X13827000Y4404680D01*
X13925000Y4413680D01*
X14023000Y4404680D01*
G37*
%TO.C,U1*%
X19890000Y-11267000D02*
X19610000Y-11267000D01*
X19610000Y-10362000D01*
X19890000Y-10362000D01*
X19890000Y-11267000D01*
G36*
X19890000Y-11267000D02*
G01*
X19610000Y-11267000D01*
X19610000Y-10362000D01*
X19890000Y-10362000D01*
X19890000Y-11267000D01*
G37*
X19390000Y-11267000D02*
X19110000Y-11267000D01*
X19110000Y-10362000D01*
X19390000Y-10362000D01*
X19390000Y-11267000D01*
G36*
X19390000Y-11267000D02*
G01*
X19110000Y-11267000D01*
X19110000Y-10362000D01*
X19390000Y-10362000D01*
X19390000Y-11267000D01*
G37*
X18890000Y-11267000D02*
X18610000Y-11267000D01*
X18610000Y-10362000D01*
X18890000Y-10362000D01*
X18890000Y-11267000D01*
G36*
X18890000Y-11267000D02*
G01*
X18610000Y-11267000D01*
X18610000Y-10362000D01*
X18890000Y-10362000D01*
X18890000Y-11267000D01*
G37*
X18390000Y-11267000D02*
X18110000Y-11267000D01*
X18110000Y-10362000D01*
X18390000Y-10362000D01*
X18390000Y-11267000D01*
G36*
X18390000Y-11267000D02*
G01*
X18110000Y-11267000D01*
X18110000Y-10362000D01*
X18390000Y-10362000D01*
X18390000Y-11267000D01*
G37*
X17890000Y-11267000D02*
X17610000Y-11267000D01*
X17610000Y-10362000D01*
X17890000Y-10362000D01*
X17890000Y-11267000D01*
G36*
X17890000Y-11267000D02*
G01*
X17610000Y-11267000D01*
X17610000Y-10362000D01*
X17890000Y-10362000D01*
X17890000Y-11267000D01*
G37*
X17390000Y-11267000D02*
X17110000Y-11267000D01*
X17110000Y-10362000D01*
X17390000Y-10362000D01*
X17390000Y-11267000D01*
G36*
X17390000Y-11267000D02*
G01*
X17110000Y-11267000D01*
X17110000Y-10362000D01*
X17390000Y-10362000D01*
X17390000Y-11267000D01*
G37*
X16890000Y-11267000D02*
X16610000Y-11267000D01*
X16610000Y-10362000D01*
X16890000Y-10362000D01*
X16890000Y-11267000D01*
G36*
X16890000Y-11267000D02*
G01*
X16610000Y-11267000D01*
X16610000Y-10362000D01*
X16890000Y-10362000D01*
X16890000Y-11267000D01*
G37*
X21080000Y-11832000D02*
X20175000Y-11832000D01*
X20175000Y-11552000D01*
X21080000Y-11552000D01*
X21080000Y-11832000D01*
G36*
X21080000Y-11832000D02*
G01*
X20175000Y-11832000D01*
X20175000Y-11552000D01*
X21080000Y-11552000D01*
X21080000Y-11832000D01*
G37*
X16325000Y-11832000D02*
X15420000Y-11832000D01*
X15420000Y-11552000D01*
X16325000Y-11552000D01*
X16325000Y-11832000D01*
G36*
X16325000Y-11832000D02*
G01*
X15420000Y-11832000D01*
X15420000Y-11552000D01*
X16325000Y-11552000D01*
X16325000Y-11832000D01*
G37*
X19600000Y-14542000D02*
X16900000Y-14542000D01*
X16900000Y-11842000D01*
X19600000Y-11842000D01*
X19600000Y-14542000D01*
G36*
X19600000Y-14542000D02*
G01*
X16900000Y-14542000D01*
X16900000Y-11842000D01*
X19600000Y-11842000D01*
X19600000Y-14542000D01*
G37*
X21080000Y-12332000D02*
X20175000Y-12332000D01*
X20175000Y-12052000D01*
X21080000Y-12052000D01*
X21080000Y-12332000D01*
G36*
X21080000Y-12332000D02*
G01*
X20175000Y-12332000D01*
X20175000Y-12052000D01*
X21080000Y-12052000D01*
X21080000Y-12332000D01*
G37*
X16325000Y-12332000D02*
X15420000Y-12332000D01*
X15420000Y-12052000D01*
X16325000Y-12052000D01*
X16325000Y-12332000D01*
G36*
X16325000Y-12332000D02*
G01*
X15420000Y-12332000D01*
X15420000Y-12052000D01*
X16325000Y-12052000D01*
X16325000Y-12332000D01*
G37*
X21080000Y-12832000D02*
X20175000Y-12832000D01*
X20175000Y-12552000D01*
X21080000Y-12552000D01*
X21080000Y-12832000D01*
G36*
X21080000Y-12832000D02*
G01*
X20175000Y-12832000D01*
X20175000Y-12552000D01*
X21080000Y-12552000D01*
X21080000Y-12832000D01*
G37*
X16325000Y-12832000D02*
X15420000Y-12832000D01*
X15420000Y-12552000D01*
X16325000Y-12552000D01*
X16325000Y-12832000D01*
G36*
X16325000Y-12832000D02*
G01*
X15420000Y-12832000D01*
X15420000Y-12552000D01*
X16325000Y-12552000D01*
X16325000Y-12832000D01*
G37*
X21080000Y-13332000D02*
X20175000Y-13332000D01*
X20175000Y-13052000D01*
X21080000Y-13052000D01*
X21080000Y-13332000D01*
G36*
X21080000Y-13332000D02*
G01*
X20175000Y-13332000D01*
X20175000Y-13052000D01*
X21080000Y-13052000D01*
X21080000Y-13332000D01*
G37*
X16325000Y-13332000D02*
X15420000Y-13332000D01*
X15420000Y-13052000D01*
X16325000Y-13052000D01*
X16325000Y-13332000D01*
G36*
X16325000Y-13332000D02*
G01*
X15420000Y-13332000D01*
X15420000Y-13052000D01*
X16325000Y-13052000D01*
X16325000Y-13332000D01*
G37*
X21080000Y-13832000D02*
X20175000Y-13832000D01*
X20175000Y-13552000D01*
X21080000Y-13552000D01*
X21080000Y-13832000D01*
G36*
X21080000Y-13832000D02*
G01*
X20175000Y-13832000D01*
X20175000Y-13552000D01*
X21080000Y-13552000D01*
X21080000Y-13832000D01*
G37*
X16325000Y-13832000D02*
X15420000Y-13832000D01*
X15420000Y-13552000D01*
X16325000Y-13552000D01*
X16325000Y-13832000D01*
G36*
X16325000Y-13832000D02*
G01*
X15420000Y-13832000D01*
X15420000Y-13552000D01*
X16325000Y-13552000D01*
X16325000Y-13832000D01*
G37*
X21080000Y-14332000D02*
X20175000Y-14332000D01*
X20175000Y-14052000D01*
X21080000Y-14052000D01*
X21080000Y-14332000D01*
G36*
X21080000Y-14332000D02*
G01*
X20175000Y-14332000D01*
X20175000Y-14052000D01*
X21080000Y-14052000D01*
X21080000Y-14332000D01*
G37*
X16325000Y-14332000D02*
X15420000Y-14332000D01*
X15420000Y-14052000D01*
X16325000Y-14052000D01*
X16325000Y-14332000D01*
G36*
X16325000Y-14332000D02*
G01*
X15420000Y-14332000D01*
X15420000Y-14052000D01*
X16325000Y-14052000D01*
X16325000Y-14332000D01*
G37*
X21080000Y-14832000D02*
X20175000Y-14832000D01*
X20175000Y-14552000D01*
X21080000Y-14552000D01*
X21080000Y-14832000D01*
G36*
X21080000Y-14832000D02*
G01*
X20175000Y-14832000D01*
X20175000Y-14552000D01*
X21080000Y-14552000D01*
X21080000Y-14832000D01*
G37*
X16325000Y-14832000D02*
X15420000Y-14832000D01*
X15420000Y-14552000D01*
X16325000Y-14552000D01*
X16325000Y-14832000D01*
G36*
X16325000Y-14832000D02*
G01*
X15420000Y-14832000D01*
X15420000Y-14552000D01*
X16325000Y-14552000D01*
X16325000Y-14832000D01*
G37*
X19890000Y-16022000D02*
X19610000Y-16022000D01*
X19610000Y-15117000D01*
X19890000Y-15117000D01*
X19890000Y-16022000D01*
G36*
X19890000Y-16022000D02*
G01*
X19610000Y-16022000D01*
X19610000Y-15117000D01*
X19890000Y-15117000D01*
X19890000Y-16022000D01*
G37*
X19390000Y-16022000D02*
X19110000Y-16022000D01*
X19110000Y-15117000D01*
X19390000Y-15117000D01*
X19390000Y-16022000D01*
G36*
X19390000Y-16022000D02*
G01*
X19110000Y-16022000D01*
X19110000Y-15117000D01*
X19390000Y-15117000D01*
X19390000Y-16022000D01*
G37*
X18890000Y-16022000D02*
X18610000Y-16022000D01*
X18610000Y-15117000D01*
X18890000Y-15117000D01*
X18890000Y-16022000D01*
G36*
X18890000Y-16022000D02*
G01*
X18610000Y-16022000D01*
X18610000Y-15117000D01*
X18890000Y-15117000D01*
X18890000Y-16022000D01*
G37*
X18390000Y-16022000D02*
X18110000Y-16022000D01*
X18110000Y-15117000D01*
X18390000Y-15117000D01*
X18390000Y-16022000D01*
G36*
X18390000Y-16022000D02*
G01*
X18110000Y-16022000D01*
X18110000Y-15117000D01*
X18390000Y-15117000D01*
X18390000Y-16022000D01*
G37*
X17890000Y-16022000D02*
X17610000Y-16022000D01*
X17610000Y-15117000D01*
X17890000Y-15117000D01*
X17890000Y-16022000D01*
G36*
X17890000Y-16022000D02*
G01*
X17610000Y-16022000D01*
X17610000Y-15117000D01*
X17890000Y-15117000D01*
X17890000Y-16022000D01*
G37*
X17390000Y-16022000D02*
X17110000Y-16022000D01*
X17110000Y-15117000D01*
X17390000Y-15117000D01*
X17390000Y-16022000D01*
G36*
X17390000Y-16022000D02*
G01*
X17110000Y-16022000D01*
X17110000Y-15117000D01*
X17390000Y-15117000D01*
X17390000Y-16022000D01*
G37*
X16890000Y-16022000D02*
X16610000Y-16022000D01*
X16610000Y-15117000D01*
X16890000Y-15117000D01*
X16890000Y-16022000D01*
G36*
X16890000Y-16022000D02*
G01*
X16610000Y-16022000D01*
X16610000Y-15117000D01*
X16890000Y-15117000D01*
X16890000Y-16022000D01*
G37*
%TO.C,USB1*%
X-6650000Y-2073320D02*
X-7250000Y-2073320D01*
X-7250000Y-923320D01*
X-6650000Y-923320D01*
X-6650000Y-2073320D01*
G36*
X-6650000Y-2073320D02*
G01*
X-7250000Y-2073320D01*
X-7250000Y-923320D01*
X-6650000Y-923320D01*
X-6650000Y-2073320D01*
G37*
X-7450000Y-2073320D02*
X-8050000Y-2073320D01*
X-8050000Y-923320D01*
X-7450000Y-923320D01*
X-7450000Y-2073320D01*
G36*
X-7450000Y-2073320D02*
G01*
X-8050000Y-2073320D01*
X-8050000Y-923320D01*
X-7450000Y-923320D01*
X-7450000Y-2073320D01*
G37*
X-8250000Y-2073320D02*
X-8550000Y-2073320D01*
X-8550000Y-923320D01*
X-8250000Y-923320D01*
X-8250000Y-2073320D01*
G36*
X-8250000Y-2073320D02*
G01*
X-8550000Y-2073320D01*
X-8550000Y-923320D01*
X-8250000Y-923320D01*
X-8250000Y-2073320D01*
G37*
X-8750000Y-2073320D02*
X-9050000Y-2073320D01*
X-9050000Y-923320D01*
X-8750000Y-923320D01*
X-8750000Y-2073320D01*
G36*
X-8750000Y-2073320D02*
G01*
X-9050000Y-2073320D01*
X-9050000Y-923320D01*
X-8750000Y-923320D01*
X-8750000Y-2073320D01*
G37*
X-9250000Y-2073320D02*
X-9550000Y-2073320D01*
X-9550000Y-923320D01*
X-9250000Y-923320D01*
X-9250000Y-2073320D01*
G36*
X-9250000Y-2073320D02*
G01*
X-9550000Y-2073320D01*
X-9550000Y-923320D01*
X-9250000Y-923320D01*
X-9250000Y-2073320D01*
G37*
X-9750000Y-2073320D02*
X-10050000Y-2073320D01*
X-10050000Y-923320D01*
X-9750000Y-923320D01*
X-9750000Y-2073320D01*
G36*
X-9750000Y-2073320D02*
G01*
X-10050000Y-2073320D01*
X-10050000Y-923320D01*
X-9750000Y-923320D01*
X-9750000Y-2073320D01*
G37*
X-10250000Y-2073320D02*
X-10550000Y-2073320D01*
X-10550000Y-923320D01*
X-10250000Y-923320D01*
X-10250000Y-2073320D01*
G36*
X-10250000Y-2073320D02*
G01*
X-10550000Y-2073320D01*
X-10550000Y-923320D01*
X-10250000Y-923320D01*
X-10250000Y-2073320D01*
G37*
X-10750000Y-2073320D02*
X-11050000Y-2073320D01*
X-11050000Y-923320D01*
X-10750000Y-923320D01*
X-10750000Y-2073320D01*
G36*
X-10750000Y-2073320D02*
G01*
X-11050000Y-2073320D01*
X-11050000Y-923320D01*
X-10750000Y-923320D01*
X-10750000Y-2073320D01*
G37*
X-11250000Y-2073320D02*
X-11550000Y-2073320D01*
X-11550000Y-923320D01*
X-11250000Y-923320D01*
X-11250000Y-2073320D01*
G36*
X-11250000Y-2073320D02*
G01*
X-11550000Y-2073320D01*
X-11550000Y-923320D01*
X-11250000Y-923320D01*
X-11250000Y-2073320D01*
G37*
X-11750000Y-2073320D02*
X-12050000Y-2073320D01*
X-12050000Y-923320D01*
X-11750000Y-923320D01*
X-11750000Y-2073320D01*
G36*
X-11750000Y-2073320D02*
G01*
X-12050000Y-2073320D01*
X-12050000Y-923320D01*
X-11750000Y-923320D01*
X-11750000Y-2073320D01*
G37*
X-12250000Y-2073320D02*
X-12850000Y-2073320D01*
X-12850000Y-923320D01*
X-12250000Y-923320D01*
X-12250000Y-2073320D01*
G36*
X-12250000Y-2073320D02*
G01*
X-12850000Y-2073320D01*
X-12850000Y-923320D01*
X-12250000Y-923320D01*
X-12250000Y-2073320D01*
G37*
X-13050000Y-2073320D02*
X-13650000Y-2073320D01*
X-13650000Y-923320D01*
X-13050000Y-923320D01*
X-13050000Y-2073320D01*
G36*
X-13050000Y-2073320D02*
G01*
X-13650000Y-2073320D01*
X-13650000Y-923320D01*
X-13050000Y-923320D01*
X-13050000Y-2073320D01*
G37*
X-5727000Y304680D02*
X-5634000Y275680D01*
X-5547000Y229680D01*
X-5471000Y167680D01*
X-5409000Y91680D01*
X-5363000Y5680D01*
X-5335000Y-88320D01*
X-5325000Y-186320D01*
X-5325000Y-1286320D01*
X-5335000Y-1383320D01*
X-5363000Y-1477320D01*
X-5409000Y-1563320D01*
X-5471000Y-1639320D01*
X-5547000Y-1701320D01*
X-5634000Y-1748320D01*
X-5727000Y-1776320D01*
X-5825000Y-1786320D01*
X-5923000Y-1776320D01*
X-6016000Y-1748320D01*
X-6103000Y-1701320D01*
X-6179000Y-1639320D01*
X-6241000Y-1563320D01*
X-6287000Y-1477320D01*
X-6315000Y-1383320D01*
X-6325000Y-1286320D01*
X-6325000Y-186320D01*
X-6315000Y-88320D01*
X-6287000Y5680D01*
X-6241000Y91680D01*
X-6179000Y167680D01*
X-6103000Y229680D01*
X-6016000Y275680D01*
X-5923000Y304680D01*
X-5825000Y313680D01*
X-5727000Y304680D01*
G36*
X-5727000Y304680D02*
G01*
X-5634000Y275680D01*
X-5547000Y229680D01*
X-5471000Y167680D01*
X-5409000Y91680D01*
X-5363000Y5680D01*
X-5335000Y-88320D01*
X-5325000Y-186320D01*
X-5325000Y-1286320D01*
X-5335000Y-1383320D01*
X-5363000Y-1477320D01*
X-5409000Y-1563320D01*
X-5471000Y-1639320D01*
X-5547000Y-1701320D01*
X-5634000Y-1748320D01*
X-5727000Y-1776320D01*
X-5825000Y-1786320D01*
X-5923000Y-1776320D01*
X-6016000Y-1748320D01*
X-6103000Y-1701320D01*
X-6179000Y-1639320D01*
X-6241000Y-1563320D01*
X-6287000Y-1477320D01*
X-6315000Y-1383320D01*
X-6325000Y-1286320D01*
X-6325000Y-186320D01*
X-6315000Y-88320D01*
X-6287000Y5680D01*
X-6241000Y91680D01*
X-6179000Y167680D01*
X-6103000Y229680D01*
X-6016000Y275680D01*
X-5923000Y304680D01*
X-5825000Y313680D01*
X-5727000Y304680D01*
G37*
X-5727000Y4404680D02*
X-5634000Y4375680D01*
X-5547000Y4329680D01*
X-5471000Y4267680D01*
X-5409000Y4191680D01*
X-5363000Y4105680D01*
X-5335000Y4011680D01*
X-5325000Y3913680D01*
X-5325000Y3013680D01*
X-5335000Y2916680D01*
X-5363000Y2822680D01*
X-5409000Y2736680D01*
X-5471000Y2660680D01*
X-5547000Y2598680D01*
X-5634000Y2551680D01*
X-5727000Y2523680D01*
X-5825000Y2513680D01*
X-5923000Y2523680D01*
X-6016000Y2551680D01*
X-6103000Y2598680D01*
X-6179000Y2660680D01*
X-6241000Y2736680D01*
X-6287000Y2822680D01*
X-6315000Y2916680D01*
X-6325000Y3013680D01*
X-6325000Y3913680D01*
X-6315000Y4011680D01*
X-6287000Y4105680D01*
X-6241000Y4191680D01*
X-6179000Y4267680D01*
X-6103000Y4329680D01*
X-6016000Y4375680D01*
X-5923000Y4404680D01*
X-5825000Y4413680D01*
X-5727000Y4404680D01*
G36*
X-5727000Y4404680D02*
G01*
X-5634000Y4375680D01*
X-5547000Y4329680D01*
X-5471000Y4267680D01*
X-5409000Y4191680D01*
X-5363000Y4105680D01*
X-5335000Y4011680D01*
X-5325000Y3913680D01*
X-5325000Y3013680D01*
X-5335000Y2916680D01*
X-5363000Y2822680D01*
X-5409000Y2736680D01*
X-5471000Y2660680D01*
X-5547000Y2598680D01*
X-5634000Y2551680D01*
X-5727000Y2523680D01*
X-5825000Y2513680D01*
X-5923000Y2523680D01*
X-6016000Y2551680D01*
X-6103000Y2598680D01*
X-6179000Y2660680D01*
X-6241000Y2736680D01*
X-6287000Y2822680D01*
X-6315000Y2916680D01*
X-6325000Y3013680D01*
X-6325000Y3913680D01*
X-6315000Y4011680D01*
X-6287000Y4105680D01*
X-6241000Y4191680D01*
X-6179000Y4267680D01*
X-6103000Y4329680D01*
X-6016000Y4375680D01*
X-5923000Y4404680D01*
X-5825000Y4413680D01*
X-5727000Y4404680D01*
G37*
X-14377000Y304680D02*
X-14284000Y275680D01*
X-14197000Y229680D01*
X-14121000Y167680D01*
X-14059000Y91680D01*
X-14013000Y5680D01*
X-13985000Y-88320D01*
X-13975000Y-186320D01*
X-13975000Y-1286320D01*
X-13985000Y-1383320D01*
X-14013000Y-1477320D01*
X-14059000Y-1563320D01*
X-14121000Y-1639320D01*
X-14197000Y-1701320D01*
X-14284000Y-1748320D01*
X-14377000Y-1776320D01*
X-14475000Y-1786320D01*
X-14573000Y-1776320D01*
X-14666000Y-1748320D01*
X-14753000Y-1701320D01*
X-14829000Y-1639320D01*
X-14891000Y-1563320D01*
X-14937000Y-1477320D01*
X-14965000Y-1383320D01*
X-14975000Y-1286320D01*
X-14975000Y-186320D01*
X-14965000Y-88320D01*
X-14937000Y5680D01*
X-14891000Y91680D01*
X-14829000Y167680D01*
X-14753000Y229680D01*
X-14666000Y275680D01*
X-14573000Y304680D01*
X-14475000Y313680D01*
X-14377000Y304680D01*
G36*
X-14377000Y304680D02*
G01*
X-14284000Y275680D01*
X-14197000Y229680D01*
X-14121000Y167680D01*
X-14059000Y91680D01*
X-14013000Y5680D01*
X-13985000Y-88320D01*
X-13975000Y-186320D01*
X-13975000Y-1286320D01*
X-13985000Y-1383320D01*
X-14013000Y-1477320D01*
X-14059000Y-1563320D01*
X-14121000Y-1639320D01*
X-14197000Y-1701320D01*
X-14284000Y-1748320D01*
X-14377000Y-1776320D01*
X-14475000Y-1786320D01*
X-14573000Y-1776320D01*
X-14666000Y-1748320D01*
X-14753000Y-1701320D01*
X-14829000Y-1639320D01*
X-14891000Y-1563320D01*
X-14937000Y-1477320D01*
X-14965000Y-1383320D01*
X-14975000Y-1286320D01*
X-14975000Y-186320D01*
X-14965000Y-88320D01*
X-14937000Y5680D01*
X-14891000Y91680D01*
X-14829000Y167680D01*
X-14753000Y229680D01*
X-14666000Y275680D01*
X-14573000Y304680D01*
X-14475000Y313680D01*
X-14377000Y304680D01*
G37*
X-14377000Y4404680D02*
X-14284000Y4375680D01*
X-14197000Y4329680D01*
X-14121000Y4267680D01*
X-14059000Y4191680D01*
X-14013000Y4105680D01*
X-13985000Y4011680D01*
X-13975000Y3913680D01*
X-13975000Y3013680D01*
X-13985000Y2916680D01*
X-14013000Y2822680D01*
X-14059000Y2736680D01*
X-14121000Y2660680D01*
X-14197000Y2598680D01*
X-14284000Y2551680D01*
X-14377000Y2523680D01*
X-14475000Y2513680D01*
X-14573000Y2523680D01*
X-14666000Y2551680D01*
X-14753000Y2598680D01*
X-14829000Y2660680D01*
X-14891000Y2736680D01*
X-14937000Y2822680D01*
X-14965000Y2916680D01*
X-14975000Y3013680D01*
X-14975000Y3913680D01*
X-14965000Y4011680D01*
X-14937000Y4105680D01*
X-14891000Y4191680D01*
X-14829000Y4267680D01*
X-14753000Y4329680D01*
X-14666000Y4375680D01*
X-14573000Y4404680D01*
X-14475000Y4413680D01*
X-14377000Y4404680D01*
G36*
X-14377000Y4404680D02*
G01*
X-14284000Y4375680D01*
X-14197000Y4329680D01*
X-14121000Y4267680D01*
X-14059000Y4191680D01*
X-14013000Y4105680D01*
X-13985000Y4011680D01*
X-13975000Y3913680D01*
X-13975000Y3013680D01*
X-13985000Y2916680D01*
X-14013000Y2822680D01*
X-14059000Y2736680D01*
X-14121000Y2660680D01*
X-14197000Y2598680D01*
X-14284000Y2551680D01*
X-14377000Y2523680D01*
X-14475000Y2513680D01*
X-14573000Y2523680D01*
X-14666000Y2551680D01*
X-14753000Y2598680D01*
X-14829000Y2660680D01*
X-14891000Y2736680D01*
X-14937000Y2822680D01*
X-14965000Y2916680D01*
X-14975000Y3013680D01*
X-14975000Y3913680D01*
X-14965000Y4011680D01*
X-14937000Y4105680D01*
X-14891000Y4191680D01*
X-14829000Y4267680D01*
X-14753000Y4329680D01*
X-14666000Y4375680D01*
X-14573000Y4404680D01*
X-14475000Y4413680D01*
X-14377000Y4404680D01*
G37*
%TO.C,U2*%
X-11352082Y-13891698D02*
X-11882412Y-14422028D01*
X-12059188Y-14245251D01*
X-11528858Y-13714921D01*
X-11352082Y-13891698D01*
G36*
X-11352082Y-13891698D02*
G01*
X-11882412Y-14422028D01*
X-12059188Y-14245251D01*
X-11528858Y-13714921D01*
X-11352082Y-13891698D01*
G37*
X-10998528Y-14245251D02*
X-11528858Y-14775582D01*
X-11705635Y-14598805D01*
X-11175305Y-14068475D01*
X-10998528Y-14245251D01*
G36*
X-10998528Y-14245251D02*
G01*
X-11528858Y-14775582D01*
X-11705635Y-14598805D01*
X-11175305Y-14068475D01*
X-10998528Y-14245251D01*
G37*
X-10644975Y-14598805D02*
X-11175305Y-15129135D01*
X-11352082Y-14952358D01*
X-10821751Y-14422028D01*
X-10644975Y-14598805D01*
G36*
X-10644975Y-14598805D02*
G01*
X-11175305Y-15129135D01*
X-11352082Y-14952358D01*
X-10821751Y-14422028D01*
X-10644975Y-14598805D01*
G37*
X-10291421Y-14952358D02*
X-10821751Y-15482688D01*
X-10998528Y-15305912D01*
X-10468198Y-14775582D01*
X-10291421Y-14952358D01*
G36*
X-10291421Y-14952358D02*
G01*
X-10821751Y-15482688D01*
X-10998528Y-15305912D01*
X-10468198Y-14775582D01*
X-10291421Y-14952358D01*
G37*
X-9188335Y-13573500D02*
X-10150000Y-14535165D01*
X-11111665Y-13573500D01*
X-10150000Y-12611835D01*
X-9188335Y-13573500D01*
G36*
X-9188335Y-13573500D02*
G01*
X-10150000Y-14535165D01*
X-11111665Y-13573500D01*
X-10150000Y-12611835D01*
X-9188335Y-13573500D01*
G37*
X-11351374Y-13254595D02*
X-11528151Y-13431372D01*
X-12058481Y-12901041D01*
X-11881705Y-12724265D01*
X-11351374Y-13254595D01*
G36*
X-11351374Y-13254595D02*
G01*
X-11528151Y-13431372D01*
X-12058481Y-12901041D01*
X-11881705Y-12724265D01*
X-11351374Y-13254595D01*
G37*
X-9300058Y-15304497D02*
X-9476834Y-15481274D01*
X-10007164Y-14950944D01*
X-9830388Y-14774167D01*
X-9300058Y-15304497D01*
G36*
X-9300058Y-15304497D02*
G01*
X-9476834Y-15481274D01*
X-10007164Y-14950944D01*
X-9830388Y-14774167D01*
X-9300058Y-15304497D01*
G37*
X-10997821Y-12901041D02*
X-11174598Y-13077818D01*
X-11704928Y-12547488D01*
X-11528151Y-12370711D01*
X-10997821Y-12901041D01*
G36*
X-10997821Y-12901041D02*
G01*
X-11174598Y-13077818D01*
X-11704928Y-12547488D01*
X-11528151Y-12370711D01*
X-10997821Y-12901041D01*
G37*
X-8947211Y-14951651D02*
X-9123988Y-15128428D01*
X-9654318Y-14598098D01*
X-9477541Y-14421321D01*
X-8947211Y-14951651D01*
G36*
X-8947211Y-14951651D02*
G01*
X-9123988Y-15128428D01*
X-9654318Y-14598098D01*
X-9477541Y-14421321D01*
X-8947211Y-14951651D01*
G37*
X-10644268Y-12547488D02*
X-10821044Y-12724265D01*
X-11351374Y-12193935D01*
X-11174598Y-12017158D01*
X-10644268Y-12547488D01*
G36*
X-10644268Y-12547488D02*
G01*
X-10821044Y-12724265D01*
X-11351374Y-12193935D01*
X-11174598Y-12017158D01*
X-10644268Y-12547488D01*
G37*
X-8592951Y-14597391D02*
X-8769728Y-14774167D01*
X-9300058Y-14243837D01*
X-9123281Y-14067061D01*
X-8592951Y-14597391D01*
G36*
X-8592951Y-14597391D02*
G01*
X-8769728Y-14774167D01*
X-9300058Y-14243837D01*
X-9123281Y-14067061D01*
X-8592951Y-14597391D01*
G37*
X-10290714Y-12193935D02*
X-10467491Y-12370711D01*
X-10997821Y-11840381D01*
X-10821044Y-11663605D01*
X-10290714Y-12193935D01*
G36*
X-10290714Y-12193935D02*
G01*
X-10467491Y-12370711D01*
X-10997821Y-11840381D01*
X-10821044Y-11663605D01*
X-10290714Y-12193935D01*
G37*
X-8240105Y-14244544D02*
X-8416881Y-14421321D01*
X-8947211Y-13890991D01*
X-8770435Y-13714214D01*
X-8240105Y-14244544D01*
G36*
X-8240105Y-14244544D02*
G01*
X-8416881Y-14421321D01*
X-8947211Y-13890991D01*
X-8770435Y-13714214D01*
X-8240105Y-14244544D01*
G37*
X-9301472Y-11841088D02*
X-9831802Y-12371418D01*
X-10008579Y-12194642D01*
X-9478249Y-11664312D01*
X-9301472Y-11841088D01*
G36*
X-9301472Y-11841088D02*
G01*
X-9831802Y-12371418D01*
X-10008579Y-12194642D01*
X-9478249Y-11664312D01*
X-9301472Y-11841088D01*
G37*
X-8947918Y-12194642D02*
X-9478249Y-12724972D01*
X-9655025Y-12548195D01*
X-9124695Y-12017865D01*
X-8947918Y-12194642D01*
G36*
X-8947918Y-12194642D02*
G01*
X-9478249Y-12724972D01*
X-9655025Y-12548195D01*
X-9124695Y-12017865D01*
X-8947918Y-12194642D01*
G37*
X-8594365Y-12548195D02*
X-9124695Y-13078525D01*
X-9301472Y-12901749D01*
X-8771142Y-12371418D01*
X-8594365Y-12548195D01*
G36*
X-8594365Y-12548195D02*
G01*
X-9124695Y-13078525D01*
X-9301472Y-12901749D01*
X-8771142Y-12371418D01*
X-8594365Y-12548195D01*
G37*
X-8240812Y-12901749D02*
X-8771142Y-13432079D01*
X-8947918Y-13255302D01*
X-8417588Y-12724972D01*
X-8240812Y-12901749D01*
G36*
X-8240812Y-12901749D02*
G01*
X-8771142Y-13432079D01*
X-8947918Y-13255302D01*
X-8417588Y-12724972D01*
X-8240812Y-12901749D01*
G37*
%TD*%
D11*
%TO.C,R8*%
X20950000Y-7495000D03*
X20950000Y-5845000D03*
%TD*%
%TO.C,R9*%
X-10150000Y-8460000D03*
X-10150000Y-6810000D03*
%TD*%
D12*
%TO.C,F2*%
X10790000Y-906320D03*
X10790000Y-3706320D03*
%TD*%
D11*
%TO.C,R7*%
X22410000Y-7495000D03*
X22410000Y-5845000D03*
%TD*%
D13*
%TO.C,C2*%
X12870000Y-7445000D03*
X12870000Y-5895000D03*
%TD*%
D14*
%TO.C,D2*%
X14810000Y-20805000D03*
X14810000Y-19230000D03*
%TD*%
D15*
%TO.C,R6*%
X-12140000Y-18526320D03*
X-12140000Y-20176320D03*
%TD*%
D12*
%TO.C,F1*%
X-2740000Y-900000D03*
X-2740000Y-3700000D03*
%TD*%
D15*
%TO.C,R5*%
X-8170000Y-18558820D03*
X-8170000Y-20208820D03*
%TD*%
D11*
%TO.C,R10*%
X-12940000Y-8460000D03*
X-12940000Y-6810000D03*
%TD*%
D16*
%TO.C,USB2*%
X21450000Y-1498320D03*
X20650000Y-1498320D03*
D17*
X19500000Y-1498320D03*
X18500000Y-1498320D03*
X18000000Y-1498320D03*
X17000000Y-1498320D03*
D16*
X15050000Y-1498320D03*
X15850000Y-1498320D03*
D17*
X16500000Y-1498320D03*
X17500000Y-1498320D03*
X19000000Y-1498320D03*
X20000000Y-1498320D03*
%TD*%
D18*
%TO.C,U1*%
X19750000Y-10815000D03*
X19250000Y-10815000D03*
X18750000Y-10815000D03*
X18250000Y-10815000D03*
X17750000Y-10815000D03*
X17250000Y-10815000D03*
X16750000Y-10815000D03*
D19*
X15873000Y-11692000D03*
X15873000Y-12192000D03*
X15873000Y-12692000D03*
X15873000Y-13192000D03*
X15873000Y-13692000D03*
X15873000Y-14192000D03*
X15873000Y-14692000D03*
D18*
X16750000Y-15569000D03*
X17250000Y-15569000D03*
X17750000Y-15569000D03*
X18250000Y-15569000D03*
X18750000Y-15569000D03*
X19250000Y-15569000D03*
X19750000Y-15569000D03*
D19*
X20627000Y-14692000D03*
X20627000Y-14192000D03*
X20627000Y-13692000D03*
X20627000Y-13192000D03*
X20627000Y-12692000D03*
X20627000Y-12192000D03*
X20627000Y-11692000D03*
D20*
X18250000Y-13192000D03*
%TD*%
D15*
%TO.C,R1*%
X-3740000Y-6800000D03*
X-3740000Y-8450000D03*
%TD*%
D14*
%TO.C,D5*%
X-6620000Y-20171320D03*
X-6620000Y-18596320D03*
%TD*%
D13*
%TO.C,C5*%
X-14280000Y-14345000D03*
X-14280000Y-12795000D03*
%TD*%
%TO.C,C7*%
X-6010000Y-14345000D03*
X-6010000Y-12795000D03*
%TD*%
D15*
%TO.C,R4*%
X24720000Y-1175000D03*
X24720000Y-2825000D03*
%TD*%
D13*
%TO.C,C4*%
X17250000Y-7445000D03*
X17250000Y-5895000D03*
%TD*%
D15*
%TO.C,R3*%
X20030000Y-19185000D03*
X20030000Y-20835000D03*
%TD*%
D16*
%TO.C,USB1*%
X-6950000Y-1498320D03*
X-7750000Y-1498320D03*
D17*
X-8900000Y-1498320D03*
X-9900000Y-1498320D03*
X-10400000Y-1498320D03*
X-11400000Y-1498320D03*
D16*
X-13350000Y-1498320D03*
X-12550000Y-1498320D03*
D17*
X-11900000Y-1498320D03*
X-10900000Y-1498320D03*
X-9400000Y-1498320D03*
X-8400000Y-1498320D03*
%TD*%
D14*
%TO.C,D3*%
X21590000Y-20797500D03*
X21590000Y-19222500D03*
%TD*%
D21*
%TO.C,D1*%
X-2160000Y-6847500D03*
X-2160000Y-8422500D03*
%TD*%
D14*
%TO.C,D6*%
X-13690000Y-20138820D03*
X-13690000Y-18563820D03*
%TD*%
D22*
%TO.C,C6*%
X-7310000Y-6860000D03*
X-7310000Y-8410000D03*
%TD*%
D14*
%TO.C,D4*%
X26280000Y-2787500D03*
X26280000Y-1212500D03*
%TD*%
D13*
%TO.C,C3*%
X15790000Y-7445000D03*
X15790000Y-5895000D03*
%TD*%
%TO.C,C1*%
X14330000Y-7445000D03*
X14330000Y-5895000D03*
%TD*%
D15*
%TO.C,R2*%
X16360000Y-19192500D03*
X16360000Y-20842500D03*
%TD*%
D23*
%TO.C,U2*%
X-9653611Y-15127721D03*
X-9300765Y-14774874D03*
X-8946504Y-14420614D03*
X-8593658Y-14067768D03*
D24*
X-8594365Y-13078525D03*
X-8947918Y-12724972D03*
X-9301472Y-12371418D03*
X-9655025Y-12017865D03*
D23*
X-10644975Y-12017865D03*
X-10998528Y-12371418D03*
X-11352082Y-12724972D03*
X-11704928Y-13077818D03*
D24*
X-11705635Y-14068475D03*
X-11352082Y-14422028D03*
X-10998528Y-14775582D03*
X-10644975Y-15129135D03*
D25*
X-10150000Y-13573500D03*
%TD*%
M02*
