%TF.GenerationSoftware,KiCad,Pcbnew,8.0.6*%
%TF.CreationDate,2024-11-26T19:58:57+08:00*%
%TF.ProjectId,UINIO-USB-UART,55494e49-4f2d-4555-9342-2d554152542e,Version 5.0.0*%
%TF.SameCoordinates,PX8be9df0PY5020b20*%
%TF.FileFunction,Copper,L1,Top*%
%TF.FilePolarity,Positive*%
%FSLAX46Y46*%
G04 Gerber Fmt 4.6, Leading zero omitted, Abs format (unit mm)*
G04 Created by KiCad (PCBNEW 8.0.6) date 2024-11-26 19:58:57*
%MOMM*%
%LPD*%
G01*
G04 APERTURE LIST*
G04 Aperture macros list*
%AMRoundRect*
0 Rectangle with rounded corners*
0 $1 Rounding radius*
0 $2 $3 $4 $5 $6 $7 $8 $9 X,Y pos of 4 corners*
0 Add a 4 corners polygon primitive as box body*
4,1,4,$2,$3,$4,$5,$6,$7,$8,$9,$2,$3,0*
0 Add four circle primitives for the rounded corners*
1,1,$1+$1,$2,$3*
1,1,$1+$1,$4,$5*
1,1,$1+$1,$6,$7*
1,1,$1+$1,$8,$9*
0 Add four rect primitives between the rounded corners*
20,1,$1+$1,$2,$3,$4,$5,0*
20,1,$1+$1,$4,$5,$6,$7,0*
20,1,$1+$1,$6,$7,$8,$9,0*
20,1,$1+$1,$8,$9,$2,$3,0*%
%AMRotRect*
0 Rectangle, with rotation*
0 The origin of the aperture is its center*
0 $1 length*
0 $2 width*
0 $3 Rotation angle, in degrees counterclockwise*
0 Add horizontal line*
21,1,$1,$2,0,0,$3*%
G04 Aperture macros list end*
%TA.AperFunction,SMDPad,CuDef*%
%ADD10RoundRect,0.150000X0.200000X-0.150000X0.200000X0.150000X-0.200000X0.150000X-0.200000X-0.150000X0*%
%TD*%
%TA.AperFunction,SMDPad,CuDef*%
%ADD11RoundRect,0.150000X-0.200000X0.150000X-0.200000X-0.150000X0.200000X-0.150000X0.200000X0.150000X0*%
%TD*%
%TA.AperFunction,SMDPad,CuDef*%
%ADD12R,1.200000X1.200000*%
%TD*%
%TA.AperFunction,ComponentPad*%
%ADD13R,1.700000X1.700000*%
%TD*%
%TA.AperFunction,ComponentPad*%
%ADD14O,1.700000X1.700000*%
%TD*%
%TA.AperFunction,SMDPad,CuDef*%
%ADD15RoundRect,0.200000X0.275000X-0.200000X0.275000X0.200000X-0.275000X0.200000X-0.275000X-0.200000X0*%
%TD*%
%TA.AperFunction,SMDPad,CuDef*%
%ADD16RoundRect,0.200000X-0.200000X-0.275000X0.200000X-0.275000X0.200000X0.275000X-0.200000X0.275000X0*%
%TD*%
%TA.AperFunction,SMDPad,CuDef*%
%ADD17RoundRect,0.250000X-0.375000X-0.625000X0.375000X-0.625000X0.375000X0.625000X-0.375000X0.625000X0*%
%TD*%
%TA.AperFunction,SMDPad,CuDef*%
%ADD18RoundRect,0.200000X-0.275000X0.200000X-0.275000X-0.200000X0.275000X-0.200000X0.275000X0.200000X0*%
%TD*%
%TA.AperFunction,SMDPad,CuDef*%
%ADD19RoundRect,0.218750X0.218750X0.256250X-0.218750X0.256250X-0.218750X-0.256250X0.218750X-0.256250X0*%
%TD*%
%TA.AperFunction,SMDPad,CuDef*%
%ADD20RoundRect,0.225000X0.225000X0.250000X-0.225000X0.250000X-0.225000X-0.250000X0.225000X-0.250000X0*%
%TD*%
%TA.AperFunction,ComponentPad*%
%ADD21O,2.100000X1.000000*%
%TD*%
%TA.AperFunction,ComponentPad*%
%ADD22O,1.900000X1.000000*%
%TD*%
%TA.AperFunction,SMDPad,CuDef*%
%ADD23R,1.150000X0.600000*%
%TD*%
%TA.AperFunction,SMDPad,CuDef*%
%ADD24R,1.150000X0.300000*%
%TD*%
%TA.AperFunction,SMDPad,CuDef*%
%ADD25RoundRect,0.218750X-0.218750X-0.256250X0.218750X-0.256250X0.218750X0.256250X-0.218750X0.256250X0*%
%TD*%
%TA.AperFunction,SMDPad,CuDef*%
%ADD26RoundRect,0.225000X-0.250000X0.225000X-0.250000X-0.225000X0.250000X-0.225000X0.250000X0.225000X0*%
%TD*%
%TA.AperFunction,SMDPad,CuDef*%
%ADD27RotRect,0.250000X0.750000X135.000000*%
%TD*%
%TA.AperFunction,SMDPad,CuDef*%
%ADD28RotRect,0.750000X0.250000X135.000000*%
%TD*%
%TA.AperFunction,SMDPad,CuDef*%
%ADD29RotRect,1.700000X1.700000X135.000000*%
%TD*%
%TA.AperFunction,ViaPad*%
%ADD30C,0.500000*%
%TD*%
%TA.AperFunction,ViaPad*%
%ADD31C,0.700000*%
%TD*%
%TA.AperFunction,ViaPad*%
%ADD32C,0.900000*%
%TD*%
%TA.AperFunction,Conductor*%
%ADD33C,0.200000*%
%TD*%
%TA.AperFunction,Conductor*%
%ADD34C,0.300000*%
%TD*%
%TA.AperFunction,Conductor*%
%ADD35C,0.500000*%
%TD*%
%TA.AperFunction,Conductor*%
%ADD36C,0.400000*%
%TD*%
%TA.AperFunction,Conductor*%
%ADD37C,0.700000*%
%TD*%
G04 APERTURE END LIST*
D10*
%TO.P,D4,1,A1*%
%TO.N,GND*%
X8150000Y-9800000D03*
%TO.P,D4,2,A2*%
%TO.N,/CH343_USB_Data_P*%
X8150000Y-11200000D03*
%TD*%
D11*
%TO.P,D3,1,A1*%
%TO.N,GND*%
X8150000Y-13460000D03*
%TO.P,D3,2,A2*%
%TO.N,/CH343_USB_Data_N*%
X8150000Y-12060000D03*
%TD*%
D12*
%TO.P,D2,1,K*%
%TO.N,/CH343_VDD_3.3V*%
X7970000Y-3620000D03*
%TO.P,D2,2,A*%
%TO.N,GND*%
X10770000Y-3620000D03*
%TD*%
D13*
%TO.P,J7,1,Pin_1*%
%TO.N,/CH343_VDD_3.3V*%
X3361320Y-18940000D03*
D14*
%TO.P,J7,2,Pin_2*%
%TO.N,/CH343_VIO*%
X5901320Y-18940000D03*
%TO.P,J7,3,Pin_3*%
%TO.N,/CH343_VDD_5V*%
X8441320Y-18940000D03*
%TD*%
D15*
%TO.P,R9,2*%
%TO.N,Net-(USB1-CC1)*%
X10920000Y-8900000D03*
%TO.P,R9,1*%
%TO.N,GND*%
X10920000Y-10550000D03*
%TD*%
D16*
%TO.P,R6,2*%
%TO.N,Net-(D6-K)*%
X22562500Y-12140000D03*
%TO.P,R6,1*%
%TO.N,/CH343_TXD*%
X20912500Y-12140000D03*
%TD*%
D17*
%TO.P,F1,2*%
%TO.N,/CH343_V3*%
X10770000Y-6300000D03*
%TO.P,F1,1*%
%TO.N,/CH343_VDD_3.3V*%
X7970000Y-6300000D03*
%TD*%
D16*
%TO.P,R5,2*%
%TO.N,Net-(D5-K)*%
X22562500Y-8130000D03*
%TO.P,R5,1*%
%TO.N,/CH343_RXD*%
X20912500Y-8130000D03*
%TD*%
D18*
%TO.P,R10,1*%
%TO.N,GND*%
X10920000Y-12710000D03*
%TO.P,R10,2*%
%TO.N,Net-(USB1-CC2)*%
X10920000Y-14360000D03*
%TD*%
D16*
%TO.P,R1,2*%
%TO.N,/CH343_V3*%
X9797500Y-1330000D03*
%TO.P,R1,1*%
%TO.N,Net-(D1-A)*%
X8147500Y-1330000D03*
%TD*%
D19*
%TO.P,D5,1,K*%
%TO.N,Net-(D5-K)*%
X22525000Y-6580000D03*
%TO.P,D5,2,A*%
%TO.N,/CH343_VIO*%
X20950000Y-6580000D03*
%TD*%
D20*
%TO.P,C5,1*%
%TO.N,GND*%
X15965000Y-14270000D03*
%TO.P,C5,2*%
%TO.N,/CH343_VDD_5V*%
X14415000Y-14270000D03*
%TD*%
%TO.P,C7,1*%
%TO.N,/CH343_VIO*%
X16240000Y-6280000D03*
%TO.P,C7,2*%
%TO.N,GND*%
X14690000Y-6280000D03*
%TD*%
D21*
%TO.P,USB1,13,GND*%
%TO.N,GND*%
X2631320Y-5825000D03*
%TO.P,USB1,14,GND*%
X2631320Y-14475000D03*
D22*
%TO.P,USB1,15,GND*%
X-1568680Y-5825000D03*
%TO.P,USB1,16,GND*%
X-1568680Y-14475000D03*
D23*
%TO.P,USB1,A1B12,GND*%
X3393320Y-6950000D03*
%TO.P,USB1,A4B9,VBUS*%
%TO.N,/CH343_VDD_5V*%
X3393320Y-7750000D03*
D24*
%TO.P,USB1,A5,CC1*%
%TO.N,Net-(USB1-CC1)*%
X3393320Y-8900000D03*
%TO.P,USB1,A6,DP1*%
%TO.N,/CH343_USB_Data_P*%
X3393320Y-9900000D03*
%TO.P,USB1,A7,DN1*%
%TO.N,/CH343_USB_Data_N*%
X3393320Y-10400000D03*
%TO.P,USB1,A8,SBU1*%
%TO.N,unconnected-(USB1-SBU1-PadA8)*%
X3393320Y-11400000D03*
D23*
%TO.P,USB1,B1A12,GND*%
%TO.N,GND*%
X3393320Y-13350000D03*
%TO.P,USB1,B4A9,VBUS*%
%TO.N,/CH343_VDD_5V*%
X3393320Y-12550000D03*
D24*
%TO.P,USB1,B5,CC2*%
%TO.N,Net-(USB1-CC2)*%
X3393320Y-11900000D03*
%TO.P,USB1,B6,DP2*%
%TO.N,/CH343_USB_Data_P*%
X3393320Y-10900000D03*
%TO.P,USB1,B7,DN2*%
%TO.N,/CH343_USB_Data_N*%
X3393320Y-9400000D03*
%TO.P,USB1,B8,SBU2*%
%TO.N,unconnected-(USB1-SBU2-PadB8)*%
X3393320Y-8400000D03*
%TD*%
D13*
%TO.P,J5,1,Pin_1*%
%TO.N,/CH343_VDD_5V*%
X29060000Y-15225000D03*
D14*
%TO.P,J5,2,Pin_2*%
%TO.N,/CH343_TXD*%
X29060000Y-12685000D03*
%TO.P,J5,3,Pin_3*%
%TO.N,/CH343_RXD*%
X29060000Y-10145000D03*
%TO.P,J5,4,Pin_4*%
%TO.N,GND*%
X29060000Y-7605000D03*
%TO.P,J5,5,Pin_5*%
%TO.N,/CH343_VDD_3.3V*%
X29060000Y-5065000D03*
%TD*%
D25*
%TO.P,D1,2,A*%
%TO.N,Net-(D1-A)*%
X6797500Y-1330000D03*
%TO.P,D1,1,K*%
%TO.N,GND*%
X5222500Y-1330000D03*
%TD*%
D19*
%TO.P,D6,2,A*%
%TO.N,/CH343_VIO*%
X20950000Y-13690000D03*
%TO.P,D6,1,K*%
%TO.N,Net-(D6-K)*%
X22525000Y-13690000D03*
%TD*%
D26*
%TO.P,C6,2*%
%TO.N,/CH343_V3*%
X12830000Y-6305000D03*
%TO.P,C6,1*%
%TO.N,GND*%
X12830000Y-4755000D03*
%TD*%
D27*
%TO.P,U2,1,VIO*%
%TO.N,/CH343_VIO*%
X17022721Y-9653611D03*
%TO.P,U2,2,GND*%
%TO.N,GND*%
X16669874Y-9300765D03*
%TO.P,U2,3,VDD5*%
%TO.N,/CH343_VDD_5V*%
X16315614Y-8946504D03*
%TO.P,U2,4,TXD*%
%TO.N,/CH343_TXD*%
X15962768Y-8593658D03*
D28*
%TO.P,U2,5,RXD*%
%TO.N,/CH343_RXD*%
X14973525Y-8594365D03*
%TO.P,U2,6,V3*%
%TO.N,/CH343_V3*%
X14619972Y-8947918D03*
%TO.P,U2,7,UD+*%
%TO.N,/CH343_USB_Data_P*%
X14266418Y-9301472D03*
%TO.P,U2,8,UD-*%
%TO.N,/CH343_USB_Data_N*%
X13912865Y-9655025D03*
D27*
%TO.P,U2,9,VBUS*%
%TO.N,/CH343_VDD_5V*%
X13912865Y-10644975D03*
%TO.P,U2,10,ACT#*%
%TO.N,/CH343_ACT#*%
X14266418Y-10998528D03*
%TO.P,U2,11,DCD*%
%TO.N,/CH343_DCD*%
X14619972Y-11352082D03*
%TO.P,U2,12,DTRTNOW*%
%TO.N,/CH343_DTR*%
X14972818Y-11704928D03*
D28*
%TO.P,U2,13,RTS*%
%TO.N,/CH343_RTS*%
X15963475Y-11705635D03*
%TO.P,U2,14,DSR*%
%TO.N,/CH343_DSR*%
X16317028Y-11352082D03*
%TO.P,U2,15,CTS*%
%TO.N,/CH343_CTS*%
X16670582Y-10998528D03*
%TO.P,U2,16,RI*%
%TO.N,/CH343_RI*%
X17024135Y-10644975D03*
D29*
%TO.P,U2,17,EP*%
%TO.N,GND*%
X15468500Y-10150000D03*
%TD*%
D13*
%TO.P,J4,1,Pin_1*%
%TO.N,/CH343_ACT#*%
X17120000Y-18940000D03*
D14*
%TO.P,J4,2,Pin_2*%
%TO.N,/CH343_DCD*%
X19660000Y-18940000D03*
%TO.P,J4,3,Pin_3*%
%TO.N,/CH343_DTR*%
X22200000Y-18940000D03*
%TD*%
D13*
%TO.P,J6,1,Pin_1*%
%TO.N,/CH343_RI*%
X14570000Y-1330000D03*
D14*
%TO.P,J6,2,Pin_2*%
%TO.N,/CH343_CTS*%
X17110000Y-1330000D03*
%TO.P,J6,3,Pin_3*%
%TO.N,/CH343_DSR*%
X19650000Y-1330000D03*
%TO.P,J6,4,Pin_4*%
%TO.N,/CH343_RTS*%
X22190000Y-1330000D03*
%TD*%
D30*
%TO.N,GND*%
X18300000Y-11820000D03*
X920000Y-4710000D03*
X-2080000Y-4710000D03*
X-1080000Y-4710000D03*
X-80000Y-4710000D03*
X1920000Y-4710000D03*
X-80000Y-15600000D03*
X1920000Y-15600000D03*
X920000Y-15600000D03*
X-1080000Y-15600000D03*
X-2080000Y-15600000D03*
X20690000Y-10280000D03*
X19690000Y-10280000D03*
D31*
%TO.N,/CH343_VDD_5V*%
X13413769Y-11100779D03*
X17570000Y-8650000D03*
D30*
%TO.N,GND*%
X16210000Y-7240000D03*
X17320000Y-7240000D03*
X15940000Y-3480000D03*
X23808337Y-3480000D03*
X29060000Y-2190000D03*
D31*
X13900000Y-5280000D03*
D30*
X9560000Y-12710000D03*
X9560000Y-10550000D03*
X9550000Y-9800000D03*
X9560000Y-13460000D03*
D31*
%TO.N,/CH343_VDD_3.3V*%
X7970000Y-4950000D03*
%TO.N,/CH343_V3*%
X11870000Y-1330000D03*
X11870000Y-6680000D03*
D30*
%TO.N,GND*%
X15100000Y-7240000D03*
D31*
X12840000Y-15030000D03*
D30*
X26545000Y-13520000D03*
X20347986Y-3480000D03*
X15468500Y-10150000D03*
X17944653Y-3480000D03*
X22433199Y-3476801D03*
D31*
%TO.N,/CH343_VIO*%
X19820000Y-12448999D03*
X18700000Y-9340000D03*
X18700000Y-6580000D03*
D32*
%TO.N,/CH343_VDD_5V*%
X4640000Y-7740000D03*
X4640000Y-12540000D03*
D30*
%TO.N,/CH343_DSR*%
X18664946Y-13700000D03*
%TO.N,/CH343_RTS*%
X21378160Y-14583160D03*
%TO.N,/CH343_CTS*%
X18671053Y-12998999D03*
%TO.N,/CH343_USB_Data_N*%
X2570000Y-10400000D03*
%TO.N,/CH343_RI*%
X17540000Y-11110000D03*
%TO.N,/CH343_USB_Data_N*%
X2570000Y-9400000D03*
%TO.N,GND*%
X20160000Y-16980000D03*
X18390000Y-16980000D03*
X22820000Y-16980000D03*
X15510000Y-13560000D03*
D31*
X15970000Y-15230000D03*
%TD*%
D33*
%TO.N,/CH343_RI*%
X17540000Y-11110000D02*
X17491320Y-11110000D01*
X17491320Y-11110000D02*
X17026295Y-10644975D01*
D34*
%TO.N,/CH343_VIO*%
X19820000Y-12448999D02*
X19820000Y-12450890D01*
X19818109Y-12448999D02*
X17022721Y-9653611D01*
X19820000Y-12448999D02*
X19818109Y-12448999D01*
X19820000Y-12450890D02*
X20950000Y-13580890D01*
D33*
%TO.N,/CH343_USB_Data_P*%
X13891418Y-8926472D02*
X14266418Y-9301472D01*
X13856062Y-8926472D02*
X13891418Y-8926472D01*
X12644366Y-8742787D02*
X13672377Y-8742787D01*
X13672377Y-8742787D02*
X13856062Y-8926472D01*
X11700000Y-9687153D02*
X12644366Y-8742787D01*
X11520000Y-11400000D02*
X11700000Y-11220000D01*
X8350000Y-11400000D02*
X11520000Y-11400000D01*
X8150000Y-11200000D02*
X8350000Y-11400000D01*
X11700000Y-11220000D02*
X11700000Y-9687153D01*
%TO.N,/CH343_USB_Data_N*%
X13537865Y-9280025D02*
X13912865Y-9655025D01*
X12830766Y-9192787D02*
X13485983Y-9192787D01*
X13485983Y-9192787D02*
X13537865Y-9244669D01*
X12110000Y-9913553D02*
X12830766Y-9192787D01*
X13537865Y-9244669D02*
X13537865Y-9280025D01*
X12110000Y-11460000D02*
X12110000Y-9913553D01*
X8350000Y-11860000D02*
X11710000Y-11860000D01*
X11710000Y-11860000D02*
X12110000Y-11460000D01*
X8150000Y-12060000D02*
X8350000Y-11860000D01*
%TO.N,/CH343_TXD*%
X20190000Y-11417500D02*
X20912500Y-12140000D01*
X20190000Y-8880000D02*
X20190000Y-11417500D01*
X19410000Y-8100000D02*
X20190000Y-8880000D01*
X16456426Y-8100000D02*
X19410000Y-8100000D01*
X15962768Y-8593658D02*
X16456426Y-8100000D01*
D34*
%TO.N,/CH343_VIO*%
X16540000Y-6580000D02*
X16240000Y-6280000D01*
X18700000Y-6580000D02*
X16540000Y-6580000D01*
X17336332Y-9340000D02*
X17022721Y-9653611D01*
X18700000Y-9340000D02*
X17336332Y-9340000D01*
X18700000Y-6580000D02*
X20980000Y-6580000D01*
D35*
%TO.N,/CH343_VDD_5V*%
X13400000Y-12280000D02*
X14415000Y-13295000D01*
X13400000Y-11157840D02*
X13400000Y-12280000D01*
X13912865Y-10644975D02*
X13400000Y-11157840D01*
X14415000Y-13295000D02*
X14415000Y-14270000D01*
D36*
X17570000Y-8690000D02*
X17527212Y-8647212D01*
X17570000Y-8650000D02*
X17570000Y-8690000D01*
X17530000Y-8650000D02*
X17570000Y-8650000D01*
D37*
X4640000Y-12540000D02*
X4640000Y-15120000D01*
X4640000Y-15120000D02*
X8441320Y-18921320D01*
D33*
%TO.N,GND*%
X17944653Y-3480000D02*
X15940000Y-3480000D01*
%TO.N,/CH343_RXD*%
X20945000Y-9595000D02*
X21495000Y-10145000D01*
X21495000Y-10145000D02*
X29060000Y-10145000D01*
X20635000Y-7750000D02*
X20945000Y-8060000D01*
X15817890Y-7750000D02*
X20635000Y-7750000D01*
X20945000Y-8060000D02*
X20945000Y-9595000D01*
X14973525Y-8594365D02*
X15817890Y-7750000D01*
%TO.N,GND*%
X22436398Y-3480000D02*
X23808337Y-3480000D01*
X22433199Y-3476801D02*
X22436398Y-3480000D01*
X22430000Y-3480000D02*
X20347986Y-3480000D01*
X22433199Y-3476801D02*
X22430000Y-3480000D01*
X17944653Y-3480000D02*
X20347986Y-3480000D01*
D36*
%TO.N,/CH343_V3*%
X12830000Y-7157946D02*
X12830000Y-6305000D01*
X14619972Y-8947918D02*
X12830000Y-7157946D01*
D33*
%TO.N,/CH343_USB_Data_N*%
X6561800Y-11860000D02*
X7950000Y-11860000D01*
X5076800Y-10375000D02*
X6561800Y-11860000D01*
X4255821Y-10400000D02*
X4280821Y-10375000D01*
X4280821Y-10375000D02*
X5076800Y-10375000D01*
X7950000Y-11860000D02*
X8150000Y-12060000D01*
X3393320Y-10400000D02*
X4255821Y-10400000D01*
%TO.N,/CH343_USB_Data_P*%
X7950000Y-11400000D02*
X8150000Y-11200000D01*
X6738200Y-11400000D02*
X7950000Y-11400000D01*
X5263200Y-9925000D02*
X6738200Y-11400000D01*
X4255821Y-9900000D02*
X4280821Y-9925000D01*
X4280821Y-9925000D02*
X5263200Y-9925000D01*
X3393320Y-9900000D02*
X4255821Y-9900000D01*
D37*
%TO.N,/CH343_VDD_5V*%
X4630000Y-12550000D02*
X4640000Y-12540000D01*
X3393320Y-12550000D02*
X4630000Y-12550000D01*
X4630000Y-7750000D02*
X4640000Y-7740000D01*
X3393320Y-7750000D02*
X4630000Y-7750000D01*
D33*
%TO.N,Net-(USB1-CC2)*%
X8050000Y-14350000D02*
X10915000Y-14350000D01*
X3393320Y-11900000D02*
X5600000Y-11900000D01*
X5600000Y-11900000D02*
X8050000Y-14350000D01*
D34*
%TO.N,/CH343_V3*%
X11870000Y-1330000D02*
X9797500Y-1330000D01*
D33*
%TO.N,Net-(USB1-CC1)*%
X3393320Y-8900000D02*
X10920000Y-8900000D01*
D37*
%TO.N,/CH343_VDD_5V*%
X12500000Y-18940000D02*
X8441320Y-18940000D01*
X14420000Y-17020000D02*
X12500000Y-18940000D01*
X14420000Y-14275000D02*
X14420000Y-17020000D01*
D33*
%TO.N,/CH343_DTR*%
X16283576Y-12450000D02*
X22200000Y-18366424D01*
X14778873Y-11898873D02*
X15330000Y-12450000D01*
X15330000Y-12450000D02*
X16283576Y-12450000D01*
%TO.N,/CH343_DCD*%
X19660000Y-16320000D02*
X19660000Y-18940000D01*
X16090000Y-12750000D02*
X19660000Y-16320000D01*
X14320000Y-11980000D02*
X15090000Y-12750000D01*
X14320000Y-11652054D02*
X14320000Y-11980000D01*
X15090000Y-12750000D02*
X16090000Y-12750000D01*
X14619972Y-11352082D02*
X14320000Y-11652054D01*
%TO.N,/CH343_ACT#*%
X14890000Y-13050000D02*
X15897276Y-13050000D01*
X15897276Y-13050000D02*
X17120000Y-14272724D01*
X13891320Y-12051320D02*
X14890000Y-13050000D01*
X14266418Y-10998528D02*
X13891320Y-11373626D01*
X13891320Y-11373626D02*
X13891320Y-12051320D01*
X17120000Y-14272724D02*
X17120000Y-18940000D01*
%TO.N,/CH343_CTS*%
X18671053Y-12998999D02*
X16670582Y-10998528D01*
%TO.N,/CH343_DSR*%
X18664946Y-13700000D02*
X16317028Y-11352082D01*
%TO.N,/CH343_RTS*%
X18841000Y-14583160D02*
X15963475Y-11705635D01*
X21378160Y-14583160D02*
X18841000Y-14583160D01*
%TO.N,/CH343_TXD*%
X26820000Y-10450000D02*
X29055000Y-12685000D01*
X21480000Y-10450000D02*
X26820000Y-10450000D01*
X20912500Y-11017500D02*
X21480000Y-10450000D01*
X20912500Y-12140000D02*
X20912500Y-11017500D01*
%TO.N,Net-(D5-K)*%
X22103820Y-7048820D02*
X22103820Y-6657500D01*
%TO.N,Net-(D6-K)*%
X22562500Y-12140000D02*
X22071320Y-12631180D01*
X22071320Y-12631180D02*
X22071320Y-13652500D01*
D36*
%TO.N,GND*%
X-1568680Y-5825000D02*
X2631320Y-5825000D01*
X2710000Y-5825000D02*
X3393320Y-6508320D01*
X2710000Y-14475000D02*
X3393320Y-13791680D01*
X3393320Y-6508320D02*
X3393320Y-6950000D01*
D34*
X16669874Y-9300765D02*
X15820639Y-10150000D01*
D36*
X3393320Y-13791680D02*
X3393320Y-13350000D01*
X-1568680Y-14475000D02*
X-1568680Y-5825000D01*
X2631320Y-14475000D02*
X-1568680Y-14475000D01*
D33*
%TO.N,/CH343_USB_Data_N*%
X3393320Y-9400000D02*
X2511320Y-9400000D01*
D36*
%TO.N,/CH343_VDD_5V*%
X16614906Y-8647212D02*
X16315614Y-8946504D01*
X17527212Y-8647212D02*
X16614906Y-8647212D01*
%TD*%
%TA.AperFunction,Conductor*%
%TO.N,GND*%
G36*
X13370607Y-270185D02*
G01*
X13416362Y-322989D01*
X13426306Y-392147D01*
X13423219Y-407050D01*
X13422415Y-410001D01*
X13419500Y-435131D01*
X13419500Y-1470500D01*
X13399815Y-1537539D01*
X13347011Y-1583294D01*
X13295500Y-1594500D01*
X12633129Y-1594500D01*
X12566090Y-1574815D01*
X12520335Y-1522011D01*
X12510033Y-1455553D01*
X12522704Y-1351203D01*
X12525278Y-1330000D01*
X12519271Y-1280523D01*
X12506237Y-1173181D01*
X12470030Y-1077713D01*
X12450220Y-1025477D01*
X12360483Y-895470D01*
X12242240Y-790717D01*
X12242238Y-790716D01*
X12242237Y-790715D01*
X12102365Y-717303D01*
X11948986Y-679500D01*
X11948985Y-679500D01*
X11791015Y-679500D01*
X11791014Y-679500D01*
X11637634Y-717303D01*
X11497762Y-790715D01*
X11497760Y-790717D01*
X11434994Y-846323D01*
X11432744Y-848316D01*
X11369510Y-878037D01*
X11350517Y-879500D01*
X10718266Y-879500D01*
X10657801Y-863759D01*
X10370209Y-703131D01*
X10347582Y-690493D01*
X10333738Y-681501D01*
X10239835Y-611206D01*
X10239828Y-611202D01*
X10104986Y-560910D01*
X10104985Y-560909D01*
X10104983Y-560909D01*
X10045373Y-554500D01*
X10045363Y-554500D01*
X9549629Y-554500D01*
X9549623Y-554501D01*
X9490016Y-560908D01*
X9355171Y-611202D01*
X9355164Y-611206D01*
X9239955Y-697452D01*
X9239952Y-697455D01*
X9153706Y-812664D01*
X9153702Y-812671D01*
X9103410Y-947513D01*
X9103409Y-947517D01*
X9097000Y-1007127D01*
X9097000Y-1298888D01*
X9097001Y-1470500D01*
X9077317Y-1537539D01*
X9024513Y-1583294D01*
X8973001Y-1594500D01*
X8972000Y-1594500D01*
X8904961Y-1574815D01*
X8859206Y-1522011D01*
X8848000Y-1470500D01*
X8847999Y-1007129D01*
X8847998Y-1007123D01*
X8845596Y-984780D01*
X8841591Y-947517D01*
X8828570Y-912607D01*
X8791297Y-812671D01*
X8791293Y-812664D01*
X8705047Y-697455D01*
X8705044Y-697452D01*
X8589835Y-611206D01*
X8589828Y-611202D01*
X8454986Y-560910D01*
X8454985Y-560909D01*
X8454983Y-560909D01*
X8395373Y-554500D01*
X8395363Y-554500D01*
X7899629Y-554500D01*
X7899623Y-554501D01*
X7840016Y-560908D01*
X7705171Y-611202D01*
X7705164Y-611206D01*
X7589955Y-697452D01*
X7589952Y-697455D01*
X7585549Y-703337D01*
X7529613Y-745205D01*
X7459921Y-750185D01*
X7398600Y-716696D01*
X7387481Y-703943D01*
X7386867Y-703133D01*
X7386865Y-703132D01*
X7386865Y-703131D01*
X7273134Y-616886D01*
X7273132Y-616885D01*
X7140346Y-564521D01*
X7140345Y-564520D01*
X7140343Y-564520D01*
X7056902Y-554500D01*
X6538098Y-554500D01*
X6454656Y-564520D01*
X6454655Y-564520D01*
X6321865Y-616886D01*
X6208132Y-703132D01*
X6121886Y-816865D01*
X6069520Y-949655D01*
X6069520Y-949656D01*
X6059500Y-1033097D01*
X6059500Y-1626902D01*
X6069520Y-1710343D01*
X6069520Y-1710344D01*
X6121886Y-1843134D01*
X6208132Y-1956867D01*
X6321865Y-2043113D01*
X6321868Y-2043115D01*
X6454654Y-2095479D01*
X6538098Y-2105500D01*
X6800500Y-2105500D01*
X6867539Y-2125185D01*
X6913294Y-2177989D01*
X6924500Y-2229500D01*
X6924500Y-7476000D01*
X6924501Y-7476009D01*
X6931481Y-7540935D01*
X6931483Y-7540947D01*
X6942688Y-7592453D01*
X6953644Y-7630654D01*
X6953646Y-7630658D01*
X6982797Y-7680503D01*
X7010325Y-7727571D01*
X7028425Y-7748460D01*
X7056081Y-7780376D01*
X7056091Y-7780387D01*
X7100807Y-7822548D01*
X7100809Y-7822549D01*
X7100813Y-7822553D01*
X7200889Y-7873439D01*
X7267928Y-7893124D01*
X7354000Y-7905500D01*
X7354003Y-7905500D01*
X8585990Y-7905500D01*
X8586000Y-7905500D01*
X8650941Y-7898518D01*
X8702452Y-7887312D01*
X8740658Y-7876354D01*
X8837571Y-7819675D01*
X8890375Y-7773920D01*
X8890382Y-7773912D01*
X8890387Y-7773908D01*
X8932548Y-7729192D01*
X8932553Y-7729187D01*
X8983439Y-7629111D01*
X9003124Y-7562072D01*
X9015500Y-7476000D01*
X9015500Y-4659500D01*
X9035185Y-4592461D01*
X9087989Y-4546706D01*
X9139500Y-4535500D01*
X9745491Y-4535500D01*
X9745501Y-4535500D01*
X9810441Y-4528518D01*
X9861953Y-4517312D01*
X9900162Y-4506354D01*
X9997075Y-4449673D01*
X10049878Y-4403918D01*
X10092054Y-4359187D01*
X10142940Y-4259111D01*
X10162625Y-4192072D01*
X10175001Y-4105999D01*
X10175000Y-3563202D01*
X10175000Y-3149000D01*
X10194685Y-3081961D01*
X10247489Y-3036206D01*
X10299000Y-3025000D01*
X11240999Y-3025000D01*
X11308038Y-3044685D01*
X11353793Y-3097489D01*
X11364999Y-3149000D01*
X11364999Y-4105989D01*
X11365001Y-4106009D01*
X11371981Y-4170935D01*
X11371983Y-4170947D01*
X11383188Y-4222453D01*
X11394144Y-4260654D01*
X11394146Y-4260658D01*
X11450823Y-4357568D01*
X11450825Y-4357571D01*
X11496581Y-4410376D01*
X11496591Y-4410387D01*
X11541307Y-4452548D01*
X11541309Y-4452549D01*
X11541313Y-4452553D01*
X11641389Y-4503439D01*
X11708428Y-4523124D01*
X11794500Y-4535500D01*
X11794503Y-4535500D01*
X12086407Y-4535500D01*
X12135820Y-4531154D01*
X12139711Y-4530812D01*
X12182323Y-4523260D01*
X12209552Y-4517140D01*
X12310569Y-4468145D01*
X12366761Y-4426622D01*
X12409060Y-4384842D01*
X12421255Y-4374274D01*
X12457584Y-4346725D01*
X12487012Y-4330179D01*
X12515041Y-4319126D01*
X12545743Y-4311367D01*
X12549785Y-4310882D01*
X12564550Y-4310000D01*
X13095446Y-4310000D01*
X13110213Y-4310882D01*
X13113463Y-4311271D01*
X13114240Y-4311365D01*
X13144960Y-4319127D01*
X13172983Y-4330178D01*
X13202412Y-4346724D01*
X13223450Y-4362678D01*
X13247324Y-4386554D01*
X13270922Y-4417674D01*
X13282212Y-4435544D01*
X13298512Y-4466998D01*
X13298517Y-4467008D01*
X13326186Y-4509192D01*
X13326189Y-4509196D01*
X13326190Y-4509197D01*
X13365620Y-4557662D01*
X13617160Y-4809202D01*
X13638384Y-4828266D01*
X13641493Y-4831059D01*
X13662174Y-4847724D01*
X13667672Y-4852051D01*
X13667675Y-4852053D01*
X13767751Y-4902939D01*
X13834790Y-4922624D01*
X13920862Y-4935000D01*
X13926841Y-4935000D01*
X13956514Y-4938603D01*
X14008611Y-4951443D01*
X14036561Y-4962042D01*
X14084093Y-4986989D01*
X14108686Y-5003965D01*
X14148865Y-5039559D01*
X14168684Y-5061929D01*
X14199174Y-5106102D01*
X14213062Y-5132564D01*
X14218620Y-5147220D01*
X14232096Y-5182754D01*
X14239249Y-5211775D01*
X14251726Y-5314531D01*
X14253773Y-5328630D01*
X14255703Y-5340036D01*
X14288795Y-5435502D01*
X14322280Y-5496824D01*
X14374380Y-5566420D01*
X14374386Y-5566427D01*
X14374389Y-5566431D01*
X14492160Y-5684202D01*
X14512929Y-5702857D01*
X14516493Y-5706059D01*
X14537174Y-5722724D01*
X14542672Y-5727051D01*
X14542675Y-5727053D01*
X14642751Y-5777939D01*
X14709790Y-5797624D01*
X14795862Y-5810000D01*
X14930446Y-5810000D01*
X14945213Y-5810882D01*
X14948463Y-5811271D01*
X14949240Y-5811365D01*
X14979956Y-5819126D01*
X15007988Y-5830180D01*
X15037417Y-5846727D01*
X15058445Y-5862674D01*
X15082318Y-5886548D01*
X15092399Y-5899841D01*
X15122773Y-5939894D01*
X15135322Y-5955367D01*
X15145902Y-5967576D01*
X15145904Y-5967578D01*
X15145905Y-5967579D01*
X15228698Y-6034720D01*
X15228700Y-6034721D01*
X15228704Y-6034724D01*
X15289818Y-6068589D01*
X15346320Y-6092826D01*
X15380294Y-6096909D01*
X15444506Y-6124451D01*
X15483634Y-6182337D01*
X15489500Y-6220023D01*
X15489500Y-6571144D01*
X15494825Y-6615494D01*
X15499640Y-6655588D01*
X15552636Y-6789976D01*
X15639921Y-6905078D01*
X15755023Y-6992363D01*
X15755024Y-6992363D01*
X15755025Y-6992364D01*
X15889410Y-7045359D01*
X15973856Y-7055500D01*
X16444720Y-7055500D01*
X16462907Y-7056840D01*
X16484171Y-7059994D01*
X16484173Y-7059993D01*
X16484174Y-7059994D01*
X17130169Y-7035711D01*
X17130866Y-7035683D01*
X17131594Y-7035655D01*
X17140186Y-7033672D01*
X17168057Y-7030500D01*
X17919385Y-7030500D01*
X17955696Y-7035936D01*
X18187529Y-7106936D01*
X18245865Y-7145388D01*
X18274152Y-7209276D01*
X18263408Y-7278315D01*
X18217044Y-7330585D01*
X18151218Y-7349500D01*
X15765163Y-7349500D01*
X15663303Y-7376793D01*
X15663302Y-7376793D01*
X15663300Y-7376794D01*
X15663299Y-7376794D01*
X15601787Y-7412309D01*
X15571980Y-7429517D01*
X15571975Y-7429521D01*
X15060164Y-7941331D01*
X14998841Y-7974816D01*
X14929149Y-7969832D01*
X14927719Y-7969288D01*
X14924693Y-7968116D01*
X14869296Y-7925537D01*
X14845713Y-7859767D01*
X14845500Y-7852494D01*
X14845500Y-7179252D01*
X14845499Y-7179233D01*
X14840323Y-7123256D01*
X14840322Y-7123241D01*
X14836276Y-7101547D01*
X14831990Y-7078563D01*
X14831986Y-7078546D01*
X14827552Y-7059994D01*
X14824861Y-7048732D01*
X14824862Y-7048732D01*
X14774059Y-6948611D01*
X14731536Y-6893178D01*
X14731533Y-6893174D01*
X14689393Y-6848405D01*
X14592528Y-6791644D01*
X14592529Y-6791644D01*
X14592525Y-6791642D01*
X14507266Y-6760979D01*
X14500237Y-6762073D01*
X14479319Y-6757444D01*
X14463957Y-6752620D01*
X14463955Y-6752619D01*
X14463953Y-6752619D01*
X14460280Y-6752178D01*
X14460270Y-6752177D01*
X14458660Y-6751984D01*
X14458641Y-6751982D01*
X14445503Y-6750404D01*
X14430741Y-6748631D01*
X14400041Y-6740871D01*
X14372017Y-6729820D01*
X14342580Y-6713268D01*
X14321551Y-6697321D01*
X14297676Y-6673447D01*
X14281726Y-6652414D01*
X14265177Y-6622980D01*
X14254128Y-6594960D01*
X14246367Y-6564250D01*
X14245884Y-6560226D01*
X14245000Y-6545448D01*
X14245000Y-6054510D01*
X14245000Y-6054500D01*
X14238018Y-5989559D01*
X14226812Y-5938048D01*
X14215854Y-5899842D01*
X14159175Y-5802929D01*
X14154578Y-5797624D01*
X14113428Y-5750134D01*
X14113425Y-5750131D01*
X14113420Y-5750125D01*
X14068689Y-5707948D01*
X13968612Y-5657061D01*
X13941341Y-5649053D01*
X13932410Y-5643313D01*
X13791379Y-5608553D01*
X13763426Y-5597951D01*
X13715907Y-5573010D01*
X13691311Y-5556033D01*
X13687346Y-5552521D01*
X13687344Y-5552519D01*
X13687338Y-5552514D01*
X13669168Y-5537624D01*
X13669167Y-5537623D01*
X13669157Y-5537615D01*
X13653986Y-5526128D01*
X13653977Y-5526123D01*
X13555645Y-5476563D01*
X13555636Y-5476560D01*
X13488606Y-5456877D01*
X13488600Y-5456876D01*
X13402528Y-5444500D01*
X13402525Y-5444500D01*
X11722680Y-5444500D01*
X11655641Y-5424815D01*
X11623876Y-5395425D01*
X11537922Y-5282077D01*
X11417343Y-5190639D01*
X11276561Y-5135122D01*
X11230926Y-5129642D01*
X11188102Y-5124500D01*
X10351898Y-5124500D01*
X10312853Y-5129188D01*
X10263438Y-5135122D01*
X10122656Y-5190639D01*
X10002077Y-5282077D01*
X9910639Y-5402656D01*
X9855122Y-5543438D01*
X9849188Y-5592853D01*
X9844500Y-5631898D01*
X9844500Y-6968102D01*
X9848773Y-7003685D01*
X9855122Y-7056561D01*
X9855122Y-7056563D01*
X9855123Y-7056564D01*
X9856476Y-7059994D01*
X9910639Y-7197343D01*
X10002077Y-7317922D01*
X10122656Y-7409360D01*
X10122657Y-7409360D01*
X10122658Y-7409361D01*
X10255991Y-7461941D01*
X10311134Y-7504846D01*
X10334327Y-7570754D01*
X10334500Y-7577295D01*
X10334500Y-8075500D01*
X10334501Y-8075509D01*
X10341481Y-8140435D01*
X10341481Y-8140438D01*
X10350990Y-8184149D01*
X10346004Y-8253841D01*
X10304132Y-8309774D01*
X10289081Y-8319430D01*
X9985799Y-8484424D01*
X9926541Y-8499500D01*
X5241229Y-8499500D01*
X5174190Y-8479815D01*
X5128435Y-8427011D01*
X5118491Y-8357853D01*
X5147516Y-8294297D01*
X5153548Y-8287819D01*
X5187526Y-8253841D01*
X5230477Y-8210890D01*
X5268737Y-8150000D01*
X5320452Y-8067697D01*
X5320454Y-8067694D01*
X5320454Y-8067692D01*
X5320456Y-8067690D01*
X5376313Y-7908059D01*
X5376313Y-7908058D01*
X5376314Y-7908056D01*
X5395249Y-7740002D01*
X5395249Y-7739997D01*
X5376314Y-7571943D01*
X5320454Y-7412305D01*
X5320452Y-7412302D01*
X5230481Y-7269115D01*
X5230476Y-7269109D01*
X5110890Y-7149523D01*
X5110884Y-7149518D01*
X4967697Y-7059547D01*
X4967694Y-7059545D01*
X4808056Y-7003685D01*
X4640003Y-6984751D01*
X4639996Y-6984751D01*
X4612204Y-6987882D01*
X4590537Y-6988417D01*
X4589770Y-6988368D01*
X4589764Y-6988368D01*
X3715113Y-7095508D01*
X3710080Y-7096554D01*
X3709901Y-7095696D01*
X3683665Y-7099500D01*
X3329249Y-7099500D01*
X3203577Y-7124498D01*
X3203574Y-7124499D01*
X3166001Y-7140062D01*
X3118550Y-7149500D01*
X2773463Y-7149500D01*
X2773442Y-7149502D01*
X2755942Y-7151531D01*
X2687082Y-7139697D01*
X2635551Y-7092514D01*
X2621889Y-7060451D01*
X2621009Y-7057168D01*
X2621008Y-7057164D01*
X2569585Y-6968096D01*
X2551827Y-6937338D01*
X2551823Y-6937333D01*
X2453986Y-6839496D01*
X2453981Y-6839492D01*
X2334158Y-6770313D01*
X2334157Y-6770312D01*
X2334156Y-6770312D01*
X2200503Y-6734500D01*
X2062137Y-6734500D01*
X1928484Y-6770312D01*
X1928481Y-6770313D01*
X1808658Y-6839492D01*
X1808653Y-6839496D01*
X1710816Y-6937333D01*
X1710812Y-6937338D01*
X1641633Y-7057161D01*
X1641632Y-7057164D01*
X1605820Y-7190817D01*
X1605820Y-7329183D01*
X1638082Y-7449585D01*
X1641632Y-7462835D01*
X1641633Y-7462838D01*
X1710812Y-7582661D01*
X1710814Y-7582664D01*
X1710815Y-7582665D01*
X1808655Y-7680505D01*
X1928484Y-7749688D01*
X2062137Y-7785500D01*
X2062139Y-7785500D01*
X2200501Y-7785500D01*
X2200503Y-7785500D01*
X2334156Y-7749688D01*
X2334164Y-7749683D01*
X2341666Y-7746577D01*
X2342446Y-7748460D01*
X2399706Y-7734563D01*
X2465735Y-7757407D01*
X2508932Y-7812324D01*
X2517820Y-7858422D01*
X2517820Y-8094856D01*
X2517822Y-8094882D01*
X2521809Y-8129258D01*
X2520046Y-8129462D01*
X2520046Y-8170540D01*
X2521810Y-8170745D01*
X2517820Y-8205131D01*
X2517820Y-8594856D01*
X2517822Y-8594882D01*
X2521809Y-8629258D01*
X2520046Y-8629462D01*
X2520046Y-8670540D01*
X2521810Y-8670745D01*
X2517820Y-8705131D01*
X2517820Y-8743996D01*
X2498135Y-8811035D01*
X2445331Y-8856790D01*
X2426916Y-8863410D01*
X2292377Y-8919137D01*
X2177379Y-9007379D01*
X2089137Y-9122377D01*
X2033671Y-9256287D01*
X2033670Y-9256291D01*
X2014750Y-9399999D01*
X2014750Y-9400000D01*
X2033670Y-9543708D01*
X2033671Y-9543712D01*
X2089137Y-9677622D01*
X2089138Y-9677624D01*
X2089139Y-9677625D01*
X2177379Y-9792621D01*
X2186711Y-9799782D01*
X2189113Y-9801625D01*
X2230316Y-9858053D01*
X2234470Y-9927799D01*
X2200257Y-9988719D01*
X2189113Y-9998375D01*
X2177381Y-10007377D01*
X2177380Y-10007378D01*
X2177379Y-10007379D01*
X2147020Y-10046943D01*
X2089137Y-10122377D01*
X2033671Y-10256287D01*
X2033670Y-10256291D01*
X2014750Y-10399999D01*
X2014750Y-10400000D01*
X2033670Y-10543708D01*
X2033671Y-10543712D01*
X2089137Y-10677622D01*
X2089138Y-10677624D01*
X2089139Y-10677625D01*
X2177379Y-10792621D01*
X2292375Y-10880861D01*
X2292376Y-10880861D01*
X2292377Y-10880862D01*
X2433799Y-10939440D01*
X2433271Y-10940714D01*
X2485570Y-10972589D01*
X2516102Y-11035434D01*
X2517820Y-11056000D01*
X2517820Y-11094855D01*
X2517822Y-11094881D01*
X2521809Y-11129257D01*
X2520046Y-11129461D01*
X2520046Y-11170540D01*
X2521810Y-11170745D01*
X2517820Y-11205131D01*
X2517820Y-11594856D01*
X2517822Y-11594882D01*
X2521809Y-11629258D01*
X2520046Y-11629462D01*
X2520046Y-11670540D01*
X2521810Y-11670745D01*
X2517820Y-11705131D01*
X2517820Y-12094856D01*
X2517822Y-12094882D01*
X2521809Y-12129258D01*
X2520046Y-12129462D01*
X2520046Y-12170540D01*
X2521810Y-12170745D01*
X2520735Y-12180008D01*
X2520735Y-12180009D01*
X2520680Y-12180480D01*
X2517820Y-12205131D01*
X2517820Y-12441576D01*
X2498135Y-12508615D01*
X2445331Y-12554370D01*
X2376173Y-12564314D01*
X2342046Y-12552503D01*
X2341666Y-12553423D01*
X2334158Y-12550313D01*
X2334156Y-12550312D01*
X2200503Y-12514500D01*
X2062137Y-12514500D01*
X1928484Y-12550312D01*
X1928481Y-12550313D01*
X1808658Y-12619492D01*
X1808653Y-12619496D01*
X1710816Y-12717333D01*
X1710812Y-12717338D01*
X1641633Y-12837161D01*
X1641632Y-12837164D01*
X1605820Y-12970817D01*
X1605820Y-13109183D01*
X1640755Y-13239561D01*
X1641632Y-13242835D01*
X1641633Y-13242838D01*
X1710812Y-13362661D01*
X1710814Y-13362664D01*
X1710815Y-13362665D01*
X1808655Y-13460505D01*
X1808656Y-13460506D01*
X1808658Y-13460507D01*
X1854232Y-13486819D01*
X1928484Y-13529688D01*
X2062137Y-13565500D01*
X2062139Y-13565500D01*
X2200501Y-13565500D01*
X2200503Y-13565500D01*
X2334156Y-13529688D01*
X2453985Y-13460505D01*
X2551825Y-13362665D01*
X2621008Y-13242836D01*
X2621886Y-13239556D01*
X2623382Y-13237101D01*
X2624117Y-13235329D01*
X2624393Y-13235443D01*
X2658243Y-13179897D01*
X2721087Y-13149362D01*
X2755956Y-13148470D01*
X2761773Y-13149144D01*
X2773455Y-13150500D01*
X3118551Y-13150499D01*
X3166004Y-13159938D01*
X3203576Y-13175501D01*
X3203580Y-13175501D01*
X3203581Y-13175502D01*
X3329248Y-13200500D01*
X3329251Y-13200500D01*
X3688800Y-13200500D01*
X3716329Y-13204445D01*
X3716429Y-13203936D01*
X3722046Y-13205029D01*
X3722057Y-13205032D01*
X3859354Y-13218792D01*
X3924094Y-13245062D01*
X3964356Y-13302166D01*
X3970228Y-13328479D01*
X3985210Y-13463316D01*
X3986226Y-13468455D01*
X3985684Y-13468562D01*
X3989500Y-13495706D01*
X3989500Y-15184069D01*
X3998141Y-15227507D01*
X3998141Y-15227509D01*
X4014497Y-15309736D01*
X4014499Y-15309744D01*
X4063534Y-15428125D01*
X4134726Y-15534673D01*
X4134727Y-15534674D01*
X6194144Y-17594090D01*
X6227629Y-17655413D01*
X6222645Y-17725105D01*
X6180773Y-17781038D01*
X6115309Y-17805455D01*
X6083679Y-17803660D01*
X6007930Y-17789500D01*
X5794710Y-17789500D01*
X5585122Y-17828679D01*
X5585119Y-17828679D01*
X5585119Y-17828680D01*
X5386302Y-17905701D01*
X5386300Y-17905702D01*
X5205019Y-18017947D01*
X5047447Y-18161593D01*
X4918952Y-18331746D01*
X4823916Y-18522605D01*
X4823916Y-18522607D01*
X4765564Y-18727689D01*
X4759290Y-18795394D01*
X4733503Y-18860331D01*
X4676703Y-18901018D01*
X4606922Y-18904538D01*
X4546315Y-18869772D01*
X4514126Y-18807759D01*
X4511819Y-18783952D01*
X4511819Y-18045143D01*
X4511819Y-18045136D01*
X4511817Y-18045117D01*
X4508906Y-18020012D01*
X4508905Y-18020010D01*
X4508905Y-18020009D01*
X4463526Y-17917235D01*
X4384085Y-17837794D01*
X4363444Y-17828680D01*
X4281312Y-17792415D01*
X4256185Y-17789500D01*
X2466463Y-17789500D01*
X2466437Y-17789502D01*
X2441332Y-17792413D01*
X2441328Y-17792415D01*
X2338555Y-17837793D01*
X2259114Y-17917234D01*
X2213735Y-18020006D01*
X2213735Y-18020008D01*
X2210820Y-18045131D01*
X2210820Y-19834856D01*
X2210822Y-19834882D01*
X2213733Y-19859986D01*
X2213734Y-19859990D01*
X2213735Y-19859991D01*
X2220545Y-19875414D01*
X2229617Y-19944690D01*
X2199795Y-20007876D01*
X2140546Y-20044907D01*
X2107111Y-20049500D01*
X933315Y-20049500D01*
X866276Y-20029815D01*
X820521Y-19977011D01*
X810577Y-19907853D01*
X839602Y-19844297D01*
X855060Y-19829312D01*
X882135Y-19807285D01*
X1077053Y-19648708D01*
X1273189Y-19438698D01*
X1438901Y-19203936D01*
X1571104Y-18948797D01*
X1667334Y-18678032D01*
X1725798Y-18396686D01*
X1745408Y-18110000D01*
X1725798Y-17823314D01*
X1667334Y-17541968D01*
X1571105Y-17271206D01*
X1571106Y-17271206D01*
X1438901Y-17016064D01*
X1273187Y-16781299D01*
X1194554Y-16697105D01*
X1077053Y-16571292D01*
X927441Y-16449574D01*
X854146Y-16389944D01*
X608617Y-16240634D01*
X345063Y-16126158D01*
X345061Y-16126157D01*
X345058Y-16126156D01*
X215578Y-16089877D01*
X68364Y-16048630D01*
X68359Y-16048629D01*
X68358Y-16048629D01*
X-73982Y-16029064D01*
X-216321Y-16009500D01*
X-216322Y-16009500D01*
X-503678Y-16009500D01*
X-503679Y-16009500D01*
X-788358Y-16048629D01*
X-788365Y-16048630D01*
X-996139Y-16106845D01*
X-1065058Y-16126156D01*
X-1065061Y-16126156D01*
X-1065064Y-16126158D01*
X-1065065Y-16126158D01*
X-1328618Y-16240634D01*
X-1574147Y-16389944D01*
X-1797050Y-16571289D01*
X-1993188Y-16781299D01*
X-2158902Y-17016064D01*
X-2291106Y-17271206D01*
X-2387333Y-17541962D01*
X-2387334Y-17541965D01*
X-2445799Y-17823319D01*
X-2465408Y-18110000D01*
X-2445799Y-18396680D01*
X-2445799Y-18396684D01*
X-2445798Y-18396686D01*
X-2421754Y-18512391D01*
X-2405068Y-18592691D01*
X-2410702Y-18662333D01*
X-2453093Y-18717874D01*
X-2518782Y-18741680D01*
X-2586913Y-18726193D01*
X-2635003Y-18677900D01*
X-2639078Y-18670527D01*
X-2733851Y-18499049D01*
X-2739880Y-18486527D01*
X-2741464Y-18482704D01*
X-2803992Y-18331746D01*
X-2852541Y-18214537D01*
X-2857134Y-18201413D01*
X-2938637Y-17918510D01*
X-2941731Y-17904953D01*
X-2943746Y-17893095D01*
X-2991047Y-17614703D01*
X-2992603Y-17600900D01*
X-3009305Y-17303471D01*
X-3009500Y-17296519D01*
X-3009500Y-3003480D01*
X-3009305Y-2996528D01*
X-3002290Y-2871610D01*
X-2992602Y-2699097D01*
X-2991048Y-2685298D01*
X-2941731Y-2395041D01*
X-2938637Y-2381489D01*
X-2930361Y-2352765D01*
X-2857133Y-2098582D01*
X-2852541Y-2085462D01*
X-2831019Y-2033502D01*
X-2739877Y-1813463D01*
X-2733855Y-1800957D01*
X-2635002Y-1622097D01*
X-2585346Y-1572946D01*
X-2516998Y-1558443D01*
X-2451659Y-1583193D01*
X-2410074Y-1639340D01*
X-2405068Y-1707308D01*
X-2445799Y-1903319D01*
X-2465408Y-2190000D01*
X-2445799Y-2476680D01*
X-2445799Y-2476684D01*
X-2445798Y-2476686D01*
X-2442089Y-2494534D01*
X-2387334Y-2758034D01*
X-2387333Y-2758037D01*
X-2291106Y-3028793D01*
X-2291107Y-3028793D01*
X-2158902Y-3283935D01*
X-1993188Y-3518700D01*
X-1919535Y-3597562D01*
X-1797053Y-3728708D01*
X-1574147Y-3910055D01*
X-1534091Y-3934414D01*
X-1328618Y-4059365D01*
X-1141763Y-4140526D01*
X-1065058Y-4173844D01*
X-788358Y-4251371D01*
X-538080Y-4285771D01*
X-503679Y-4290500D01*
X-503678Y-4290500D01*
X-216321Y-4290500D01*
X-185630Y-4286281D01*
X68358Y-4251371D01*
X345058Y-4173844D01*
X458015Y-4124779D01*
X608617Y-4059365D01*
X608620Y-4059363D01*
X608625Y-4059361D01*
X854147Y-3910055D01*
X1077053Y-3728708D01*
X1273189Y-3518698D01*
X1438901Y-3283936D01*
X1571104Y-3028797D01*
X1667334Y-2758032D01*
X1725798Y-2476686D01*
X1745408Y-2190000D01*
X1725798Y-1903314D01*
X1667334Y-1621968D01*
X1631904Y-1522279D01*
X1571105Y-1351206D01*
X1571106Y-1351206D01*
X1438901Y-1096064D01*
X1273187Y-861299D01*
X1169413Y-750185D01*
X1077053Y-651292D01*
X855059Y-470687D01*
X815480Y-413111D01*
X813311Y-343275D01*
X849242Y-283353D01*
X911867Y-252369D01*
X933315Y-250500D01*
X1895172Y-250500D01*
X7995172Y-250500D01*
X13303568Y-250500D01*
X13370607Y-270185D01*
G37*
%TD.AperFunction*%
%TA.AperFunction,Conductor*%
G36*
X15747060Y-13470185D02*
G01*
X15767702Y-13486819D01*
X16683181Y-14402298D01*
X16716666Y-14463621D01*
X16719500Y-14489979D01*
X16719500Y-17071937D01*
X16699815Y-17138976D01*
X16688480Y-17153977D01*
X16097885Y-17823319D01*
X16048186Y-17879644D01*
X16045081Y-17884796D01*
X16026567Y-17908460D01*
X16017797Y-17917230D01*
X16017794Y-17917235D01*
X15999750Y-17958098D01*
X15992535Y-17971990D01*
X15991540Y-17973640D01*
X15991533Y-17973655D01*
X15988597Y-17981415D01*
X15985485Y-17989825D01*
X15982632Y-17996865D01*
X15972415Y-18020007D01*
X15969500Y-18045131D01*
X15969500Y-18082726D01*
X15968803Y-18091297D01*
X15969176Y-18107858D01*
X15969065Y-18107860D01*
X15969500Y-18112041D01*
X15969500Y-19834856D01*
X15969502Y-19834882D01*
X15972413Y-19859986D01*
X15972414Y-19859990D01*
X15972415Y-19859991D01*
X15979225Y-19875414D01*
X15988297Y-19944690D01*
X15958475Y-20007876D01*
X15899226Y-20044907D01*
X15865791Y-20049500D01*
X9557123Y-20049500D01*
X9490084Y-20029815D01*
X9444329Y-19977011D01*
X9434385Y-19907853D01*
X9463410Y-19844297D01*
X9519691Y-19807285D01*
X10098405Y-19624038D01*
X10186052Y-19596284D01*
X10223484Y-19590500D01*
X12564071Y-19590500D01*
X12648615Y-19573682D01*
X12689744Y-19565501D01*
X12808127Y-19516465D01*
X12836084Y-19497785D01*
X12914669Y-19445277D01*
X14925277Y-17434669D01*
X14996465Y-17328127D01*
X15045501Y-17209744D01*
X15046085Y-17206808D01*
X15063744Y-17118034D01*
X15070500Y-17084071D01*
X15070500Y-15256500D01*
X15073218Y-15233197D01*
X15073137Y-15233186D01*
X15073622Y-15229735D01*
X15073830Y-15227958D01*
X15073936Y-15227509D01*
X15133775Y-14802335D01*
X15166401Y-14570518D01*
X15168666Y-14507037D01*
X15168335Y-14502211D01*
X15167593Y-14498229D01*
X15165500Y-14475539D01*
X15165500Y-13978855D01*
X15160182Y-13934573D01*
X15155359Y-13894410D01*
X15155357Y-13894405D01*
X15155356Y-13894401D01*
X15145298Y-13868897D01*
X15137488Y-13837784D01*
X15137445Y-13837420D01*
X15137229Y-13835567D01*
X15067577Y-13611271D01*
X15066496Y-13541412D01*
X15103355Y-13482056D01*
X15166454Y-13452050D01*
X15186000Y-13450500D01*
X15680021Y-13450500D01*
X15747060Y-13470185D01*
G37*
%TD.AperFunction*%
%TA.AperFunction,Conductor*%
G36*
X26669784Y-10870185D02*
G01*
X26690426Y-10886819D01*
X27494388Y-11690781D01*
X27524223Y-11738890D01*
X27875880Y-12783201D01*
X27977467Y-13084884D01*
X27979216Y-13090517D01*
X27982594Y-13102387D01*
X27984356Y-13105927D01*
X27988205Y-13114450D01*
X27991377Y-13122245D01*
X27992508Y-13124350D01*
X27999253Y-13135844D01*
X28077632Y-13293253D01*
X28203935Y-13460503D01*
X28206128Y-13463407D01*
X28363698Y-13607052D01*
X28544981Y-13719298D01*
X28743802Y-13796321D01*
X28916544Y-13828612D01*
X28978823Y-13860279D01*
X29014096Y-13920591D01*
X29011162Y-13990400D01*
X28970953Y-14047540D01*
X28906235Y-14073871D01*
X28893757Y-14074500D01*
X28165143Y-14074500D01*
X28165117Y-14074502D01*
X28140012Y-14077413D01*
X28140008Y-14077415D01*
X28037235Y-14122793D01*
X27957794Y-14202234D01*
X27912415Y-14305006D01*
X27912415Y-14305008D01*
X27909500Y-14330131D01*
X27909500Y-16119856D01*
X27909502Y-16119882D01*
X27912413Y-16144987D01*
X27912415Y-16144991D01*
X27957793Y-16247764D01*
X27957794Y-16247765D01*
X28037235Y-16327206D01*
X28140009Y-16372585D01*
X28165135Y-16375500D01*
X29954864Y-16375499D01*
X29954879Y-16375497D01*
X29954882Y-16375497D01*
X29979987Y-16372586D01*
X29988989Y-16370137D01*
X29989696Y-16372736D01*
X30044685Y-16365533D01*
X30107872Y-16395353D01*
X30144906Y-16454601D01*
X30149500Y-16488040D01*
X30149500Y-17296519D01*
X30149305Y-17303472D01*
X30132602Y-17600893D01*
X30131045Y-17614711D01*
X30081730Y-17904953D01*
X30078636Y-17918510D01*
X29997133Y-18201413D01*
X29992540Y-18214537D01*
X29879879Y-18486527D01*
X29873846Y-18499056D01*
X29731436Y-18756726D01*
X29724038Y-18768500D01*
X29553676Y-19008604D01*
X29545006Y-19019476D01*
X29348830Y-19238997D01*
X29338997Y-19248830D01*
X29119476Y-19445006D01*
X29108604Y-19453676D01*
X28868500Y-19624038D01*
X28856726Y-19631436D01*
X28599056Y-19773846D01*
X28586527Y-19779879D01*
X28314537Y-19892540D01*
X28301413Y-19897133D01*
X28018510Y-19978636D01*
X28004953Y-19981730D01*
X27714711Y-20031045D01*
X27700893Y-20032602D01*
X27403472Y-20049305D01*
X27396519Y-20049500D01*
X27133315Y-20049500D01*
X27066276Y-20029815D01*
X27020521Y-19977011D01*
X27010577Y-19907853D01*
X27039602Y-19844297D01*
X27055060Y-19829312D01*
X27082135Y-19807285D01*
X27277053Y-19648708D01*
X27473189Y-19438698D01*
X27638901Y-19203936D01*
X27771104Y-18948797D01*
X27867334Y-18678032D01*
X27925798Y-18396686D01*
X27945408Y-18110000D01*
X27925798Y-17823314D01*
X27867334Y-17541968D01*
X27771105Y-17271206D01*
X27771106Y-17271206D01*
X27638901Y-17016064D01*
X27473187Y-16781299D01*
X27394554Y-16697105D01*
X27277053Y-16571292D01*
X27127441Y-16449574D01*
X27054146Y-16389944D01*
X26808617Y-16240634D01*
X26545063Y-16126158D01*
X26545061Y-16126157D01*
X26545058Y-16126156D01*
X26415578Y-16089877D01*
X26268364Y-16048630D01*
X26268359Y-16048629D01*
X26268358Y-16048629D01*
X26126018Y-16029064D01*
X25983679Y-16009500D01*
X25983678Y-16009500D01*
X25696322Y-16009500D01*
X25696321Y-16009500D01*
X25411642Y-16048629D01*
X25411635Y-16048630D01*
X25203861Y-16106845D01*
X25134942Y-16126156D01*
X25134939Y-16126156D01*
X25134936Y-16126158D01*
X25134935Y-16126158D01*
X24871382Y-16240634D01*
X24625853Y-16389944D01*
X24402950Y-16571289D01*
X24206812Y-16781299D01*
X24041098Y-17016064D01*
X23908894Y-17271206D01*
X23812667Y-17541962D01*
X23812666Y-17541965D01*
X23754201Y-17823319D01*
X23734592Y-18110000D01*
X23754201Y-18396680D01*
X23754201Y-18396684D01*
X23754202Y-18396686D01*
X23769783Y-18471667D01*
X23812666Y-18678034D01*
X23812667Y-18678037D01*
X23908894Y-18948793D01*
X23908893Y-18948793D01*
X24041098Y-19203935D01*
X24206812Y-19438700D01*
X24279440Y-19516465D01*
X24402947Y-19648708D01*
X24597865Y-19807285D01*
X24624940Y-19829312D01*
X24664520Y-19886889D01*
X24666689Y-19956725D01*
X24630758Y-20016647D01*
X24568133Y-20047631D01*
X24546685Y-20049500D01*
X23010762Y-20049500D01*
X22943723Y-20029815D01*
X22897968Y-19977011D01*
X22888024Y-19907853D01*
X22917049Y-19844297D01*
X22927224Y-19833863D01*
X23053870Y-19718409D01*
X23106505Y-19648710D01*
X23182366Y-19548255D01*
X23214758Y-19483202D01*
X23277403Y-19357394D01*
X23277403Y-19357393D01*
X23277405Y-19357389D01*
X23335756Y-19152310D01*
X23355429Y-18940000D01*
X23335756Y-18727690D01*
X23277405Y-18522611D01*
X23277403Y-18522606D01*
X23277403Y-18522605D01*
X23182367Y-18331746D01*
X23053872Y-18161593D01*
X22999516Y-18112041D01*
X22896302Y-18017948D01*
X22839323Y-17982668D01*
X22715022Y-17905703D01*
X22709045Y-17903387D01*
X22695763Y-17898242D01*
X22674035Y-17887260D01*
X21794621Y-17328127D01*
X21623464Y-17219305D01*
X21602314Y-17202345D01*
X19595310Y-15195341D01*
X19561825Y-15134018D01*
X19566809Y-15064326D01*
X19608681Y-15008393D01*
X19674145Y-14983976D01*
X19682991Y-14983660D01*
X20794898Y-14983660D01*
X20833109Y-14989694D01*
X21178106Y-15101445D01*
X21181555Y-15101922D01*
X21211997Y-15110189D01*
X21234451Y-15119490D01*
X21359239Y-15135918D01*
X21378159Y-15138410D01*
X21378160Y-15138410D01*
X21378161Y-15138410D01*
X21393137Y-15136438D01*
X21521869Y-15119490D01*
X21655785Y-15064021D01*
X21770781Y-14975781D01*
X21859021Y-14860785D01*
X21914490Y-14726869D01*
X21933410Y-14583160D01*
X21929547Y-14553822D01*
X21940311Y-14484791D01*
X21986690Y-14432534D01*
X22053958Y-14413647D01*
X22097973Y-14422282D01*
X22182154Y-14455479D01*
X22265598Y-14465500D01*
X22784402Y-14465500D01*
X22867846Y-14455479D01*
X23000632Y-14403115D01*
X23114367Y-14316867D01*
X23200615Y-14203132D01*
X23252979Y-14070346D01*
X23263000Y-13986902D01*
X23263000Y-13393098D01*
X23252979Y-13309654D01*
X23200615Y-13176868D01*
X23199579Y-13175502D01*
X23114367Y-13063132D01*
X23055489Y-13018484D01*
X23013965Y-12962292D01*
X23009414Y-12892570D01*
X23043279Y-12831456D01*
X23056096Y-12820418D01*
X23120046Y-12772546D01*
X23206296Y-12657331D01*
X23256591Y-12522483D01*
X23263000Y-12462873D01*
X23262999Y-11817128D01*
X23256591Y-11757517D01*
X23242161Y-11718829D01*
X23206297Y-11622671D01*
X23206293Y-11622664D01*
X23120047Y-11507455D01*
X23120044Y-11507452D01*
X23004835Y-11421206D01*
X23004828Y-11421202D01*
X22869986Y-11370910D01*
X22869985Y-11370909D01*
X22869983Y-11370909D01*
X22810373Y-11364500D01*
X22810363Y-11364500D01*
X22314629Y-11364500D01*
X22314623Y-11364501D01*
X22255016Y-11370908D01*
X22120171Y-11421202D01*
X22120164Y-11421206D01*
X22004955Y-11507452D01*
X22004952Y-11507455D01*
X21918706Y-11622664D01*
X21918702Y-11622671D01*
X21868408Y-11757517D01*
X21862583Y-11811700D01*
X21862001Y-11817123D01*
X21862000Y-11817135D01*
X21862000Y-11945902D01*
X21858948Y-11973244D01*
X21857947Y-11977672D01*
X21823965Y-12038721D01*
X21762372Y-12071706D01*
X21692723Y-12066156D01*
X21637131Y-12023831D01*
X21613247Y-11958171D01*
X21612999Y-11950330D01*
X21612999Y-11817129D01*
X21612998Y-11817123D01*
X21612997Y-11817116D01*
X21606591Y-11757517D01*
X21566026Y-11648757D01*
X21564259Y-11643683D01*
X21561261Y-11634433D01*
X21561255Y-11634422D01*
X21558994Y-11629159D01*
X21559200Y-11629070D01*
X21556355Y-11622826D01*
X21556298Y-11622674D01*
X21556297Y-11622673D01*
X21556296Y-11622669D01*
X21556293Y-11622665D01*
X21556194Y-11622483D01*
X21546760Y-11607779D01*
X21537021Y-11589878D01*
X21440424Y-11412316D01*
X21359155Y-11262930D01*
X21344410Y-11194634D01*
X21368929Y-11129208D01*
X21380384Y-11116007D01*
X21609575Y-10886816D01*
X21670897Y-10853334D01*
X21697255Y-10850500D01*
X26602745Y-10850500D01*
X26669784Y-10870185D01*
G37*
%TD.AperFunction*%
%TA.AperFunction,Conductor*%
G36*
X17725703Y-14952542D02*
G01*
X17732181Y-14958574D01*
X19223181Y-16449574D01*
X19256666Y-16510897D01*
X19259500Y-16537255D01*
X19259500Y-17128852D01*
X19246475Y-17184173D01*
X18606893Y-18467182D01*
X18602313Y-18476783D01*
X18601989Y-18477494D01*
X18594115Y-18496159D01*
X18587682Y-18512391D01*
X18582596Y-18522606D01*
X18582593Y-18522614D01*
X18524244Y-18727687D01*
X18517970Y-18795395D01*
X18492184Y-18860332D01*
X18435383Y-18901019D01*
X18365602Y-18904539D01*
X18304996Y-18869773D01*
X18272806Y-18807761D01*
X18270499Y-18783953D01*
X18270499Y-18114867D01*
X18270595Y-18109979D01*
X18271060Y-18098183D01*
X18270499Y-18090477D01*
X18270499Y-18045143D01*
X18270499Y-18045136D01*
X18270497Y-18045117D01*
X18267586Y-18020013D01*
X18267585Y-18020011D01*
X18267585Y-18020009D01*
X18255989Y-17993747D01*
X18252129Y-17983880D01*
X18251722Y-17982692D01*
X18249355Y-17976038D01*
X18248695Y-17974933D01*
X18241735Y-17961465D01*
X18240248Y-17958098D01*
X18222206Y-17917235D01*
X18213362Y-17908391D01*
X18194573Y-17884271D01*
X18193339Y-17882205D01*
X18191807Y-17879638D01*
X17551520Y-17153979D01*
X17521926Y-17090687D01*
X17520500Y-17071938D01*
X17520500Y-15046255D01*
X17540185Y-14979216D01*
X17592989Y-14933461D01*
X17662147Y-14923517D01*
X17725703Y-14952542D01*
G37*
%TD.AperFunction*%
%TA.AperFunction,Conductor*%
G36*
X20265703Y-16998966D02*
G01*
X20272181Y-17004998D01*
X20962492Y-17695309D01*
X20995977Y-17756632D01*
X20998716Y-17778133D01*
X21033700Y-18670527D01*
X21016656Y-18738286D01*
X20965685Y-18786074D01*
X20896969Y-18798719D01*
X20832326Y-18772206D01*
X20792278Y-18714953D01*
X20790529Y-18709319D01*
X20770419Y-18638644D01*
X20737405Y-18522611D01*
X20737403Y-18522607D01*
X20725676Y-18499056D01*
X20722640Y-18492960D01*
X20714392Y-18471680D01*
X20713117Y-18467206D01*
X20621647Y-18283715D01*
X20073525Y-17184173D01*
X20060500Y-17128852D01*
X20060500Y-17092679D01*
X20080185Y-17025640D01*
X20132989Y-16979885D01*
X20202147Y-16969941D01*
X20265703Y-16998966D01*
G37*
%TD.AperFunction*%
%TA.AperFunction,Conductor*%
G36*
X13269518Y-9612972D02*
G01*
X13300982Y-9641967D01*
X13303400Y-9645130D01*
X13309102Y-9651663D01*
X13312871Y-9656194D01*
X13315101Y-9659009D01*
X13315372Y-9659280D01*
X13321114Y-9665425D01*
X13355301Y-9704596D01*
X13355303Y-9704598D01*
X13355306Y-9704601D01*
X13359050Y-9707909D01*
X13359800Y-9708572D01*
X13364930Y-9712037D01*
X13383202Y-9727110D01*
X13571033Y-9914941D01*
X13641713Y-9985620D01*
X13675198Y-10046943D01*
X13670214Y-10116634D01*
X13628343Y-10172568D01*
X13616033Y-10180687D01*
X13574857Y-10204460D01*
X13574849Y-10204466D01*
X13351597Y-10427715D01*
X13293593Y-10460430D01*
X13181401Y-10488083D01*
X13041531Y-10561494D01*
X13041529Y-10561496D01*
X12929417Y-10660818D01*
X12923285Y-10666250D01*
X12833550Y-10796254D01*
X12833549Y-10796255D01*
X12777531Y-10943960D01*
X12758490Y-11100778D01*
X12777531Y-11257597D01*
X12833550Y-11405305D01*
X12835297Y-11408633D01*
X12836196Y-11412281D01*
X12836209Y-11412315D01*
X12836204Y-11412316D01*
X12849500Y-11466257D01*
X12849500Y-12352474D01*
X12871131Y-12433206D01*
X12887013Y-12492478D01*
X12887016Y-12492485D01*
X12952771Y-12606378D01*
X12959489Y-12618013D01*
X12959491Y-12618016D01*
X13754573Y-13413098D01*
X13788058Y-13474421D01*
X13785314Y-13537553D01*
X13692770Y-13835569D01*
X13689861Y-13850309D01*
X13683564Y-13871782D01*
X13674641Y-13894410D01*
X13664500Y-13978856D01*
X13664500Y-13978862D01*
X13664500Y-14561150D01*
X13664868Y-14564216D01*
X13665435Y-14577019D01*
X13665725Y-14581724D01*
X13670920Y-14615218D01*
X13671500Y-14619436D01*
X13674640Y-14645586D01*
X13675779Y-14650091D01*
X13678094Y-14661470D01*
X13699942Y-14802328D01*
X13765889Y-15227509D01*
X13767324Y-15236756D01*
X13766933Y-15236816D01*
X13769500Y-15258760D01*
X13769500Y-16699192D01*
X13749815Y-16766231D01*
X13733181Y-16786873D01*
X12266873Y-18253181D01*
X12205550Y-18286666D01*
X12179192Y-18289500D01*
X10223485Y-18289500D01*
X10186053Y-18283715D01*
X10089623Y-18253181D01*
X9253151Y-17988316D01*
X8895836Y-17875173D01*
X8875244Y-17866545D01*
X7682914Y-17235217D01*
X7653258Y-17213312D01*
X5326819Y-14886873D01*
X5293334Y-14825550D01*
X5290500Y-14799192D01*
X5290500Y-13495866D01*
X5294480Y-13469124D01*
X5293630Y-13468949D01*
X5294784Y-13463338D01*
X5294787Y-13463329D01*
X5392190Y-12586700D01*
X5393566Y-12570309D01*
X5393638Y-12569043D01*
X5393848Y-12557356D01*
X5414732Y-12490683D01*
X5468349Y-12445883D01*
X5537674Y-12437182D01*
X5600699Y-12467342D01*
X5605509Y-12471902D01*
X7804087Y-14670480D01*
X7895412Y-14723207D01*
X7997273Y-14750500D01*
X8102727Y-14750500D01*
X9923505Y-14750500D01*
X9984349Y-14766454D01*
X10386084Y-14992682D01*
X10399549Y-15001460D01*
X10402669Y-15003796D01*
X10424756Y-15012033D01*
X10426618Y-15012746D01*
X10489365Y-15037352D01*
X10490727Y-15037677D01*
X10491076Y-15037761D01*
X10505592Y-15042184D01*
X10537511Y-15054089D01*
X10537517Y-15054091D01*
X10597127Y-15060500D01*
X11242872Y-15060499D01*
X11302483Y-15054091D01*
X11437331Y-15003796D01*
X11552546Y-14917546D01*
X11638796Y-14802331D01*
X11689091Y-14667483D01*
X11695500Y-14607873D01*
X11695499Y-14112128D01*
X11689091Y-14052517D01*
X11684800Y-14041013D01*
X11638797Y-13917671D01*
X11638793Y-13917664D01*
X11552547Y-13802455D01*
X11552544Y-13802452D01*
X11437335Y-13716206D01*
X11437328Y-13716202D01*
X11302486Y-13665910D01*
X11302485Y-13665909D01*
X11302483Y-13665909D01*
X11242873Y-13659500D01*
X11242863Y-13659500D01*
X10597129Y-13659500D01*
X10597123Y-13659501D01*
X10537516Y-13665908D01*
X10443192Y-13701089D01*
X10436341Y-13703419D01*
X10418499Y-13708911D01*
X10418487Y-13708915D01*
X10416292Y-13710068D01*
X10403157Y-13715936D01*
X10398038Y-13718731D01*
X10389376Y-13724196D01*
X9987228Y-13935293D01*
X9929595Y-13949500D01*
X8267255Y-13949500D01*
X8200216Y-13929815D01*
X8179574Y-13913181D01*
X6738574Y-12472181D01*
X6705089Y-12410858D01*
X6710073Y-12341166D01*
X6751945Y-12285233D01*
X6817409Y-12260816D01*
X6826255Y-12260500D01*
X7402404Y-12260500D01*
X7469443Y-12280185D01*
X7515198Y-12332989D01*
X7519445Y-12343544D01*
X7523487Y-12355094D01*
X7547207Y-12422882D01*
X7627850Y-12532150D01*
X7737118Y-12612793D01*
X7779845Y-12627744D01*
X7865299Y-12657646D01*
X7895730Y-12660500D01*
X7895734Y-12660500D01*
X8404270Y-12660500D01*
X8434699Y-12657646D01*
X8434701Y-12657646D01*
X8498790Y-12635219D01*
X8562882Y-12612793D01*
X8672150Y-12532150D01*
X8752793Y-12422882D01*
X8776513Y-12355094D01*
X8780555Y-12343544D01*
X8821277Y-12286769D01*
X8886230Y-12261022D01*
X8897596Y-12260500D01*
X11762725Y-12260500D01*
X11762727Y-12260500D01*
X11864588Y-12233207D01*
X11955913Y-12180480D01*
X12430480Y-11705913D01*
X12450255Y-11671662D01*
X12483207Y-11614587D01*
X12510500Y-11512727D01*
X12510500Y-11108354D01*
X12511476Y-11105029D01*
X12510500Y-11093203D01*
X12510500Y-10130808D01*
X12530185Y-10063769D01*
X12546819Y-10043127D01*
X12960340Y-9629606D01*
X13021663Y-9596121D01*
X13048021Y-9593287D01*
X13202479Y-9593287D01*
X13269518Y-9612972D01*
G37*
%TD.AperFunction*%
%TA.AperFunction,Conductor*%
G36*
X18163725Y-11431719D02*
G01*
X18948939Y-12216933D01*
X18970652Y-12246228D01*
X18992243Y-12286682D01*
X19006443Y-12355094D01*
X18981402Y-12420322D01*
X18925072Y-12461658D01*
X18855336Y-12465977D01*
X18826454Y-12455502D01*
X18790579Y-12437182D01*
X18573105Y-12326125D01*
X18541819Y-12303372D01*
X17924216Y-11685769D01*
X17890731Y-11624446D01*
X17895715Y-11554754D01*
X17928683Y-11510169D01*
X17926878Y-11508364D01*
X17932616Y-11502625D01*
X17932616Y-11502624D01*
X17932621Y-11502621D01*
X17977670Y-11443911D01*
X18034095Y-11402711D01*
X18103841Y-11398556D01*
X18163725Y-11431719D01*
G37*
%TD.AperFunction*%
%TA.AperFunction,Conductor*%
G36*
X19259784Y-8520185D02*
G01*
X19280426Y-8536819D01*
X19753181Y-9009573D01*
X19786666Y-9070896D01*
X19789500Y-9097254D01*
X19789500Y-11478354D01*
X19787761Y-11478354D01*
X19778514Y-11537625D01*
X19732131Y-11589878D01*
X19664860Y-11608759D01*
X19598061Y-11588274D01*
X19578663Y-11572449D01*
X18843331Y-10837117D01*
X18086393Y-10080180D01*
X18052909Y-10018858D01*
X18057893Y-9949166D01*
X18099765Y-9893233D01*
X18165229Y-9868816D01*
X18210386Y-9873936D01*
X18227849Y-9879284D01*
X18464070Y-9951627D01*
X18466160Y-9952343D01*
X18466853Y-9952503D01*
X18467634Y-9952695D01*
X18467635Y-9952696D01*
X18621015Y-9990500D01*
X18778985Y-9990500D01*
X18932365Y-9952696D01*
X18962913Y-9936663D01*
X19072240Y-9879283D01*
X19190483Y-9774530D01*
X19280220Y-9644523D01*
X19336237Y-9496818D01*
X19355278Y-9340000D01*
X19350913Y-9304046D01*
X19336237Y-9183181D01*
X19303649Y-9097254D01*
X19280220Y-9035477D01*
X19190483Y-8905470D01*
X19072240Y-8800717D01*
X19072237Y-8800714D01*
X18945688Y-8734296D01*
X18895475Y-8685711D01*
X18879501Y-8617692D01*
X18902836Y-8551835D01*
X18958073Y-8509048D01*
X19003314Y-8500500D01*
X19192745Y-8500500D01*
X19259784Y-8520185D01*
G37*
%TD.AperFunction*%
%TA.AperFunction,Conductor*%
G36*
X15511831Y-9113869D02*
G01*
X15556179Y-9142370D01*
X15605230Y-9191420D01*
X15625058Y-9207127D01*
X15629562Y-9208871D01*
X15684964Y-9251441D01*
X15700396Y-9279700D01*
X15702145Y-9284214D01*
X15702146Y-9284215D01*
X15717845Y-9304035D01*
X15717855Y-9304046D01*
X15958067Y-9544258D01*
X15958071Y-9544261D01*
X15958076Y-9544266D01*
X15977904Y-9559973D01*
X16082664Y-9600557D01*
X16082665Y-9600557D01*
X16195010Y-9600557D01*
X16195011Y-9600557D01*
X16216619Y-9592185D01*
X16286240Y-9586323D01*
X16347981Y-9619032D01*
X16382236Y-9679928D01*
X16378131Y-9749677D01*
X16377040Y-9752603D01*
X16368668Y-9774214D01*
X16368668Y-9886561D01*
X16409252Y-9991321D01*
X16409253Y-9991322D01*
X16424952Y-10011142D01*
X16424962Y-10011153D01*
X16476127Y-10062318D01*
X16509612Y-10123641D01*
X16504628Y-10193333D01*
X16476130Y-10237678D01*
X16426373Y-10287437D01*
X16426368Y-10287442D01*
X16410664Y-10307266D01*
X16408718Y-10312291D01*
X16366140Y-10367689D01*
X16337899Y-10383110D01*
X16332874Y-10385056D01*
X16313045Y-10400764D01*
X16313039Y-10400769D01*
X16072824Y-10640984D01*
X16057115Y-10660814D01*
X16057111Y-10660823D01*
X16055166Y-10665843D01*
X16012589Y-10721242D01*
X15984339Y-10736667D01*
X15979319Y-10738611D01*
X15959491Y-10754318D01*
X15959485Y-10754323D01*
X15719270Y-10994538D01*
X15703557Y-11014373D01*
X15701611Y-11019398D01*
X15659033Y-11074796D01*
X15630792Y-11090217D01*
X15625767Y-11092163D01*
X15605938Y-11107871D01*
X15605932Y-11107876D01*
X15556179Y-11157629D01*
X15494856Y-11191113D01*
X15425164Y-11186128D01*
X15380818Y-11157628D01*
X15330355Y-11107165D01*
X15322292Y-11100778D01*
X15310528Y-11091459D01*
X15310526Y-11091458D01*
X15306015Y-11089710D01*
X15250615Y-11047135D01*
X15235184Y-11018872D01*
X15233442Y-11014375D01*
X15233441Y-11014373D01*
X15233441Y-11014372D01*
X15217735Y-10994544D01*
X15098691Y-10875500D01*
X14977515Y-10754324D01*
X14957682Y-10738613D01*
X14957675Y-10738609D01*
X14952659Y-10736666D01*
X14897259Y-10694091D01*
X14881831Y-10665836D01*
X14879887Y-10660818D01*
X14879886Y-10660817D01*
X14864186Y-10640996D01*
X14864176Y-10640985D01*
X14623961Y-10400770D01*
X14604131Y-10385061D01*
X14604129Y-10385060D01*
X14604128Y-10385059D01*
X14601295Y-10383961D01*
X14599103Y-10383112D01*
X14543704Y-10340535D01*
X14528278Y-10312283D01*
X14526334Y-10307265D01*
X14526333Y-10307264D01*
X14510633Y-10287443D01*
X14510623Y-10287432D01*
X14460871Y-10237680D01*
X14427386Y-10176357D01*
X14432370Y-10106665D01*
X14460868Y-10062321D01*
X14510627Y-10012563D01*
X14526334Y-9992735D01*
X14528276Y-9987719D01*
X14570846Y-9932318D01*
X14599112Y-9916884D01*
X14604128Y-9914941D01*
X14623956Y-9899235D01*
X14864180Y-9659010D01*
X14879887Y-9639182D01*
X14881830Y-9634165D01*
X14924399Y-9578764D01*
X14952666Y-9563329D01*
X14957682Y-9561387D01*
X14977510Y-9545681D01*
X15217734Y-9305456D01*
X15233441Y-9285628D01*
X15235383Y-9280612D01*
X15277953Y-9225211D01*
X15306219Y-9209777D01*
X15311235Y-9207834D01*
X15331063Y-9192128D01*
X15380819Y-9142370D01*
X15442140Y-9108886D01*
X15511831Y-9113869D01*
G37*
%TD.AperFunction*%
%TA.AperFunction,Conductor*%
G36*
X9985800Y-9315575D02*
G01*
X10096298Y-9375688D01*
X10387781Y-9534261D01*
X10402483Y-9543694D01*
X10402664Y-9543792D01*
X10402669Y-9543796D01*
X10403469Y-9544094D01*
X10411898Y-9547597D01*
X10414430Y-9548760D01*
X10491600Y-9578049D01*
X10495612Y-9579268D01*
X10495611Y-9579269D01*
X10506793Y-9582632D01*
X10537511Y-9594089D01*
X10537517Y-9594091D01*
X10597127Y-9600500D01*
X11175500Y-9600499D01*
X11242539Y-9620183D01*
X11288294Y-9672987D01*
X11299500Y-9724499D01*
X11299500Y-10875500D01*
X11279815Y-10942539D01*
X11227011Y-10988294D01*
X11175500Y-10999500D01*
X8897596Y-10999500D01*
X8830557Y-10979815D01*
X8784802Y-10927011D01*
X8780555Y-10916456D01*
X8766223Y-10875500D01*
X8752793Y-10837118D01*
X8672150Y-10727850D01*
X8562882Y-10647207D01*
X8562880Y-10647206D01*
X8434700Y-10602353D01*
X8404270Y-10599500D01*
X8404266Y-10599500D01*
X7895734Y-10599500D01*
X7895730Y-10599500D01*
X7865300Y-10602353D01*
X7865298Y-10602353D01*
X7737119Y-10647206D01*
X7737117Y-10647207D01*
X7627850Y-10727850D01*
X7547207Y-10837117D01*
X7519445Y-10916456D01*
X7478723Y-10973231D01*
X7413770Y-10998978D01*
X7402404Y-10999500D01*
X6955455Y-10999500D01*
X6888416Y-10979815D01*
X6867774Y-10963181D01*
X5509115Y-9604522D01*
X5509113Y-9604520D01*
X5463264Y-9578049D01*
X5417789Y-9551793D01*
X5406468Y-9548760D01*
X5389726Y-9544274D01*
X5330068Y-9507911D01*
X5299538Y-9445064D01*
X5307832Y-9375688D01*
X5352317Y-9321810D01*
X5418869Y-9300535D01*
X5421821Y-9300500D01*
X9926543Y-9300500D01*
X9985800Y-9315575D01*
G37*
%TD.AperFunction*%
%TA.AperFunction,Conductor*%
G36*
X20795703Y-10012542D02*
G01*
X20802181Y-10018574D01*
X20985925Y-10202318D01*
X21019410Y-10263641D01*
X21014426Y-10333333D01*
X20985925Y-10377680D01*
X20802181Y-10561425D01*
X20740858Y-10594910D01*
X20671167Y-10589926D01*
X20615233Y-10548055D01*
X20590816Y-10482590D01*
X20590500Y-10473744D01*
X20590500Y-10106255D01*
X20610185Y-10039216D01*
X20662989Y-9993461D01*
X20732147Y-9983517D01*
X20795703Y-10012542D01*
G37*
%TD.AperFunction*%
%TA.AperFunction,Conductor*%
G36*
X28911187Y-6207611D02*
G01*
X28929872Y-6211103D01*
X28953390Y-6215500D01*
X28953391Y-6215500D01*
X29166608Y-6215500D01*
X29166610Y-6215500D01*
X29196813Y-6209853D01*
X29208813Y-6207611D01*
X29231597Y-6205500D01*
X30025500Y-6205500D01*
X30092539Y-6225185D01*
X30138294Y-6277989D01*
X30149500Y-6329500D01*
X30149500Y-9308649D01*
X30129815Y-9375688D01*
X30077011Y-9421443D01*
X30007853Y-9431387D01*
X29944297Y-9402362D01*
X29926546Y-9383376D01*
X29913872Y-9366593D01*
X29884700Y-9339999D01*
X29756302Y-9222948D01*
X29575019Y-9110702D01*
X29575017Y-9110701D01*
X29430434Y-9054690D01*
X29376198Y-9033679D01*
X29166610Y-8994500D01*
X28953390Y-8994500D01*
X28884494Y-9007379D01*
X28743800Y-9033679D01*
X28743796Y-9033680D01*
X28616576Y-9082965D01*
X28605776Y-9086588D01*
X28587204Y-9091881D01*
X28587204Y-9091882D01*
X28570182Y-9100366D01*
X28559672Y-9105010D01*
X28544981Y-9110702D01*
X28544969Y-9110708D01*
X28531357Y-9119136D01*
X28521405Y-9124682D01*
X27304172Y-9731475D01*
X27248851Y-9744500D01*
X21712255Y-9744500D01*
X21645216Y-9724815D01*
X21624574Y-9708181D01*
X21381819Y-9465426D01*
X21348334Y-9404103D01*
X21345500Y-9377745D01*
X21345500Y-9113469D01*
X21357796Y-9059635D01*
X21435169Y-8899089D01*
X21568707Y-8622002D01*
X21592746Y-8550868D01*
X21592746Y-8550864D01*
X21593705Y-8548029D01*
X21596000Y-8540876D01*
X21606591Y-8512483D01*
X21613000Y-8452873D01*
X21612999Y-7807128D01*
X21606591Y-7747517D01*
X21606240Y-7746577D01*
X21556297Y-7612671D01*
X21556293Y-7612664D01*
X21470047Y-7497455D01*
X21443844Y-7477839D01*
X21401973Y-7421904D01*
X21396990Y-7352213D01*
X21430476Y-7290890D01*
X21443231Y-7279769D01*
X21539367Y-7206867D01*
X21539369Y-7206865D01*
X21545365Y-7200870D01*
X21547305Y-7202810D01*
X21592422Y-7169458D01*
X21662143Y-7164892D01*
X21723264Y-7198745D01*
X21742441Y-7223895D01*
X21783340Y-7294733D01*
X21857907Y-7369300D01*
X21906573Y-7397397D01*
X21954787Y-7447964D01*
X21968009Y-7516571D01*
X21943838Y-7579094D01*
X21918704Y-7612668D01*
X21918702Y-7612671D01*
X21868410Y-7747513D01*
X21868409Y-7747517D01*
X21862000Y-7807127D01*
X21862000Y-7807134D01*
X21862000Y-7807135D01*
X21862000Y-8452870D01*
X21862001Y-8452876D01*
X21868408Y-8512483D01*
X21918702Y-8647328D01*
X21918706Y-8647335D01*
X22004952Y-8762544D01*
X22004955Y-8762547D01*
X22120164Y-8848793D01*
X22120171Y-8848797D01*
X22141602Y-8856790D01*
X22255017Y-8899091D01*
X22314627Y-8905500D01*
X22810372Y-8905499D01*
X22869983Y-8899091D01*
X23004831Y-8848796D01*
X23120046Y-8762546D01*
X23206296Y-8647331D01*
X23256591Y-8512483D01*
X23263000Y-8452873D01*
X23262999Y-7807128D01*
X23256591Y-7747517D01*
X23256240Y-7746577D01*
X23206297Y-7612671D01*
X23206293Y-7612664D01*
X23120047Y-7497455D01*
X23056102Y-7449585D01*
X23014232Y-7393651D01*
X23009248Y-7323959D01*
X23042734Y-7262636D01*
X23055482Y-7251520D01*
X23114367Y-7206867D01*
X23200615Y-7093132D01*
X23252979Y-6960346D01*
X23263000Y-6876902D01*
X23263000Y-6329500D01*
X23282685Y-6262461D01*
X23335489Y-6216706D01*
X23387000Y-6205500D01*
X28888403Y-6205500D01*
X28911187Y-6207611D01*
G37*
%TD.AperFunction*%
%TA.AperFunction,Conductor*%
G36*
X18873369Y-270185D02*
G01*
X18919124Y-322989D01*
X18929068Y-392147D01*
X18900043Y-455703D01*
X18889868Y-466137D01*
X18796129Y-551591D01*
X18667632Y-721746D01*
X18572596Y-912605D01*
X18572596Y-912607D01*
X18514244Y-1117689D01*
X18503471Y-1233951D01*
X18477685Y-1298888D01*
X18433130Y-1330804D01*
X18469503Y-1351668D01*
X18501693Y-1413681D01*
X18503471Y-1426048D01*
X18514244Y-1542310D01*
X18572596Y-1747392D01*
X18572596Y-1747394D01*
X18667632Y-1938253D01*
X18796127Y-2108406D01*
X18796128Y-2108407D01*
X18953698Y-2252052D01*
X19134981Y-2364298D01*
X19333802Y-2441321D01*
X19543390Y-2480500D01*
X19543392Y-2480500D01*
X19756608Y-2480500D01*
X19756610Y-2480500D01*
X19966198Y-2441321D01*
X20165019Y-2364298D01*
X20346302Y-2252052D01*
X20503872Y-2108407D01*
X20632366Y-1938255D01*
X20679731Y-1843132D01*
X20727403Y-1747394D01*
X20727403Y-1747393D01*
X20727405Y-1747389D01*
X20785756Y-1542310D01*
X20796529Y-1426047D01*
X20822315Y-1361111D01*
X20866869Y-1329194D01*
X20830497Y-1308331D01*
X20798307Y-1246318D01*
X20796529Y-1233951D01*
X20793175Y-1197759D01*
X20785756Y-1117690D01*
X20727405Y-912611D01*
X20727403Y-912606D01*
X20727403Y-912605D01*
X20632367Y-721746D01*
X20553179Y-616886D01*
X20503872Y-551593D01*
X20472272Y-522786D01*
X20410132Y-466137D01*
X20373850Y-406426D01*
X20375611Y-336578D01*
X20414854Y-278771D01*
X20479121Y-251356D01*
X20493670Y-250500D01*
X21346330Y-250500D01*
X21413369Y-270185D01*
X21459124Y-322989D01*
X21469068Y-392147D01*
X21440043Y-455703D01*
X21429868Y-466137D01*
X21336129Y-551591D01*
X21207632Y-721746D01*
X21112596Y-912605D01*
X21112596Y-912607D01*
X21054244Y-1117689D01*
X21043471Y-1233951D01*
X21017685Y-1298888D01*
X20973130Y-1330804D01*
X21009503Y-1351668D01*
X21041693Y-1413681D01*
X21043471Y-1426048D01*
X21054244Y-1542310D01*
X21112596Y-1747392D01*
X21112596Y-1747394D01*
X21207632Y-1938253D01*
X21336127Y-2108406D01*
X21336128Y-2108407D01*
X21493698Y-2252052D01*
X21674981Y-2364298D01*
X21873802Y-2441321D01*
X22083390Y-2480500D01*
X22083392Y-2480500D01*
X22296608Y-2480500D01*
X22296610Y-2480500D01*
X22506198Y-2441321D01*
X22705019Y-2364298D01*
X22886302Y-2252052D01*
X23043872Y-2108407D01*
X23172366Y-1938255D01*
X23219731Y-1843132D01*
X23267403Y-1747394D01*
X23267403Y-1747393D01*
X23267405Y-1747389D01*
X23325756Y-1542310D01*
X23345429Y-1330000D01*
X23325756Y-1117690D01*
X23267405Y-912611D01*
X23267403Y-912606D01*
X23267403Y-912605D01*
X23172367Y-721746D01*
X23093179Y-616886D01*
X23043872Y-551593D01*
X23012272Y-522786D01*
X22950132Y-466137D01*
X22913850Y-406426D01*
X22915611Y-336578D01*
X22954854Y-278771D01*
X23019121Y-251356D01*
X23033670Y-250500D01*
X24546685Y-250500D01*
X24613724Y-270185D01*
X24659479Y-322989D01*
X24669423Y-392147D01*
X24640398Y-455703D01*
X24624940Y-470688D01*
X24402950Y-651289D01*
X24206812Y-861299D01*
X24041098Y-1096064D01*
X23908894Y-1351206D01*
X23812667Y-1621962D01*
X23812666Y-1621965D01*
X23754201Y-1903319D01*
X23734592Y-2190000D01*
X23754201Y-2476680D01*
X23754201Y-2476684D01*
X23754202Y-2476686D01*
X23757911Y-2494534D01*
X23812666Y-2758034D01*
X23812667Y-2758037D01*
X23908894Y-3028793D01*
X23908893Y-3028793D01*
X24041098Y-3283935D01*
X24206812Y-3518700D01*
X24362626Y-3685535D01*
X24399137Y-3724629D01*
X24400290Y-3725863D01*
X24431662Y-3788294D01*
X24424302Y-3857775D01*
X24380545Y-3912246D01*
X24314285Y-3934414D01*
X24309667Y-3934500D01*
X16157904Y-3934500D01*
X16090865Y-3914815D01*
X16070227Y-3898185D01*
X15961536Y-3789494D01*
X15915244Y-3751503D01*
X15915239Y-3751499D01*
X15915230Y-3751493D01*
X15875027Y-3724629D01*
X15875013Y-3724621D01*
X15822436Y-3696518D01*
X15805403Y-3685535D01*
X15778213Y-3664671D01*
X15755327Y-3641785D01*
X15734459Y-3614590D01*
X15723480Y-3597562D01*
X15695376Y-3544984D01*
X15695368Y-3544970D01*
X15668504Y-3504767D01*
X15668500Y-3504762D01*
X15668495Y-3504754D01*
X15630504Y-3458462D01*
X15630503Y-3458461D01*
X15630499Y-3458456D01*
X14864222Y-2692180D01*
X14830737Y-2630857D01*
X14835721Y-2561166D01*
X14877593Y-2505232D01*
X14943057Y-2480815D01*
X14951903Y-2480499D01*
X15464856Y-2480499D01*
X15464864Y-2480499D01*
X15464879Y-2480497D01*
X15464882Y-2480497D01*
X15489987Y-2477586D01*
X15489988Y-2477585D01*
X15489991Y-2477585D01*
X15592765Y-2432206D01*
X15672206Y-2352765D01*
X15717585Y-2249991D01*
X15720500Y-2224865D01*
X15720499Y-1486046D01*
X15740183Y-1419009D01*
X15792987Y-1373254D01*
X15862146Y-1363310D01*
X15925702Y-1392335D01*
X15963476Y-1451113D01*
X15967970Y-1474606D01*
X15974244Y-1542310D01*
X16032596Y-1747392D01*
X16032596Y-1747394D01*
X16127632Y-1938253D01*
X16256127Y-2108406D01*
X16256128Y-2108407D01*
X16413698Y-2252052D01*
X16594981Y-2364298D01*
X16793802Y-2441321D01*
X17003390Y-2480500D01*
X17003392Y-2480500D01*
X17216608Y-2480500D01*
X17216610Y-2480500D01*
X17426198Y-2441321D01*
X17625019Y-2364298D01*
X17806302Y-2252052D01*
X17963872Y-2108407D01*
X18092366Y-1938255D01*
X18139731Y-1843132D01*
X18187403Y-1747394D01*
X18187403Y-1747393D01*
X18187405Y-1747389D01*
X18245756Y-1542310D01*
X18256529Y-1426047D01*
X18282315Y-1361111D01*
X18326869Y-1329194D01*
X18290497Y-1308331D01*
X18258307Y-1246318D01*
X18256529Y-1233951D01*
X18253175Y-1197759D01*
X18245756Y-1117690D01*
X18187405Y-912611D01*
X18187403Y-912606D01*
X18187403Y-912605D01*
X18092367Y-721746D01*
X18013179Y-616886D01*
X17963872Y-551593D01*
X17932272Y-522786D01*
X17870132Y-466137D01*
X17833850Y-406426D01*
X17835611Y-336578D01*
X17874854Y-278771D01*
X17939121Y-251356D01*
X17953670Y-250500D01*
X18806330Y-250500D01*
X18873369Y-270185D01*
G37*
%TD.AperFunction*%
%TA.AperFunction,Conductor*%
G36*
X27403471Y-250695D02*
G01*
X27416649Y-251435D01*
X27700900Y-267397D01*
X27714703Y-268953D01*
X28004953Y-318269D01*
X28018510Y-321363D01*
X28301413Y-402866D01*
X28314537Y-407459D01*
X28586527Y-520120D01*
X28599049Y-526149D01*
X28752943Y-611204D01*
X28856726Y-668563D01*
X28868500Y-675961D01*
X29108604Y-846323D01*
X29119476Y-854993D01*
X29318775Y-1033098D01*
X29338997Y-1051169D01*
X29348828Y-1061000D01*
X29446918Y-1170762D01*
X29545006Y-1280523D01*
X29553676Y-1291395D01*
X29724038Y-1531499D01*
X29731436Y-1543273D01*
X29873846Y-1800943D01*
X29879879Y-1813472D01*
X29992540Y-2085462D01*
X29997133Y-2098586D01*
X30078636Y-2381489D01*
X30081730Y-2395046D01*
X30131045Y-2685288D01*
X30132602Y-2699106D01*
X30149305Y-2996527D01*
X30149500Y-3003480D01*
X30149500Y-3810500D01*
X30129815Y-3877539D01*
X30077011Y-3923294D01*
X30025500Y-3934500D01*
X29285092Y-3934500D01*
X29262307Y-3932389D01*
X29166610Y-3914500D01*
X28953390Y-3914500D01*
X28857693Y-3932389D01*
X28834908Y-3934500D01*
X27370333Y-3934500D01*
X27303294Y-3914815D01*
X27257539Y-3862011D01*
X27247595Y-3792853D01*
X27276620Y-3729297D01*
X27279710Y-3725863D01*
X27473189Y-3518698D01*
X27638901Y-3283936D01*
X27771104Y-3028797D01*
X27867334Y-2758032D01*
X27925798Y-2476686D01*
X27945408Y-2190000D01*
X27925798Y-1903314D01*
X27867334Y-1621968D01*
X27831904Y-1522279D01*
X27771105Y-1351206D01*
X27771106Y-1351206D01*
X27638901Y-1096064D01*
X27473187Y-861299D01*
X27369413Y-750185D01*
X27277053Y-651292D01*
X27055059Y-470687D01*
X27015480Y-413111D01*
X27013311Y-343275D01*
X27049242Y-283353D01*
X27111867Y-252369D01*
X27133315Y-250500D01*
X27355830Y-250500D01*
X27396519Y-250500D01*
X27403471Y-250695D01*
G37*
%TD.AperFunction*%
%TD*%
%TA.AperFunction,Conductor*%
%TO.N,/CH343_V3*%
G36*
X13469567Y-5769685D02*
G01*
X13484754Y-5781184D01*
X13527759Y-5819283D01*
X13527761Y-5819284D01*
X13667634Y-5892696D01*
X13821014Y-5930500D01*
X13828460Y-5931404D01*
X13828119Y-5934205D01*
X13882539Y-5950185D01*
X13928294Y-6002989D01*
X13939500Y-6054500D01*
X13939500Y-6571144D01*
X13944825Y-6615494D01*
X13949640Y-6655588D01*
X14002636Y-6789976D01*
X14089921Y-6905078D01*
X14205023Y-6992363D01*
X14205024Y-6992363D01*
X14205025Y-6992364D01*
X14339410Y-7045359D01*
X14423856Y-7055500D01*
X14423862Y-7055500D01*
X14427535Y-7055941D01*
X14427417Y-7056919D01*
X14489138Y-7079117D01*
X14531664Y-7134554D01*
X14540000Y-7179251D01*
X14540000Y-8021226D01*
X14520315Y-8088265D01*
X14503682Y-8108907D01*
X14375766Y-8236823D01*
X14375763Y-8236827D01*
X14360056Y-8256655D01*
X14326818Y-8342454D01*
X14319472Y-8361416D01*
X14319472Y-8473761D01*
X14319692Y-8474938D01*
X14319472Y-8477113D01*
X14319472Y-8485252D01*
X14318649Y-8485252D01*
X14312661Y-8544452D01*
X14269163Y-8599131D01*
X14203009Y-8621613D01*
X14135803Y-8605109D01*
X14067812Y-8565854D01*
X14042131Y-8546148D01*
X13918292Y-8422309D01*
X13918290Y-8422307D01*
X13872627Y-8395943D01*
X13826966Y-8369580D01*
X13776034Y-8355933D01*
X13725104Y-8342287D01*
X12697093Y-8342287D01*
X12591639Y-8342287D01*
X12489776Y-8369580D01*
X12398453Y-8422307D01*
X12398450Y-8422309D01*
X11907180Y-8913579D01*
X11845857Y-8947064D01*
X11776165Y-8942080D01*
X11720232Y-8900208D01*
X11695815Y-8834744D01*
X11695499Y-8825898D01*
X11695499Y-8652129D01*
X11695498Y-8652123D01*
X11692941Y-8628337D01*
X11689091Y-8592517D01*
X11684243Y-8579520D01*
X11638797Y-8457671D01*
X11638793Y-8457664D01*
X11552547Y-8342455D01*
X11552544Y-8342452D01*
X11437335Y-8256206D01*
X11437328Y-8256202D01*
X11302482Y-8205908D01*
X11302483Y-8205908D01*
X11242883Y-8199501D01*
X11242881Y-8199500D01*
X11242873Y-8199500D01*
X11242865Y-8199500D01*
X10764000Y-8199500D01*
X10696961Y-8179815D01*
X10651206Y-8127011D01*
X10640000Y-8075500D01*
X10640000Y-5874000D01*
X10659685Y-5806961D01*
X10712489Y-5761206D01*
X10764000Y-5750000D01*
X13402528Y-5750000D01*
X13469567Y-5769685D01*
G37*
%TD.AperFunction*%
%TD*%
%TA.AperFunction,Conductor*%
%TO.N,/CH343_VDD_3.3V*%
G36*
X9198102Y-1919685D02*
G01*
X9230327Y-1949686D01*
X9239954Y-1962546D01*
X9239955Y-1962546D01*
X9239956Y-1962548D01*
X9355164Y-2048793D01*
X9355171Y-2048797D01*
X9400118Y-2065561D01*
X9490017Y-2099091D01*
X9549627Y-2105500D01*
X10045372Y-2105499D01*
X10104983Y-2099091D01*
X10239831Y-2048796D01*
X10333757Y-1978482D01*
X10347570Y-1969510D01*
X10443844Y-1915739D01*
X10504307Y-1900000D01*
X11525723Y-1900000D01*
X11583347Y-1914203D01*
X11637635Y-1942696D01*
X11691864Y-1956062D01*
X11791014Y-1980500D01*
X11791015Y-1980500D01*
X11948985Y-1980500D01*
X12102365Y-1942696D01*
X12156652Y-1914203D01*
X12214277Y-1900000D01*
X13295501Y-1900000D01*
X13362540Y-1919685D01*
X13408295Y-1972489D01*
X13419501Y-2024000D01*
X13419501Y-2224856D01*
X13419502Y-2224882D01*
X13422413Y-2249987D01*
X13422415Y-2249991D01*
X13467793Y-2352764D01*
X13467794Y-2352765D01*
X13547235Y-2432206D01*
X13650009Y-2477585D01*
X13675135Y-2480500D01*
X14169139Y-2480499D01*
X14236176Y-2500183D01*
X14256818Y-2516818D01*
X15414483Y-3674483D01*
X15441363Y-3714711D01*
X15447161Y-3728708D01*
X15459139Y-3757625D01*
X15547379Y-3872621D01*
X15662375Y-3960861D01*
X15705287Y-3978635D01*
X15745515Y-4005515D01*
X15980000Y-4240000D01*
X25354013Y-4240000D01*
X25387467Y-4244598D01*
X25411631Y-4251368D01*
X25411642Y-4251371D01*
X25661920Y-4285771D01*
X25696321Y-4290500D01*
X25696322Y-4290500D01*
X25983679Y-4290500D01*
X26014370Y-4286281D01*
X26268358Y-4251371D01*
X26275690Y-4249316D01*
X26292533Y-4244598D01*
X26325987Y-4240000D01*
X30025500Y-4240000D01*
X30092539Y-4259685D01*
X30138294Y-4312489D01*
X30149500Y-4364000D01*
X30149500Y-5776000D01*
X30129815Y-5843039D01*
X30077011Y-5888794D01*
X30025500Y-5900000D01*
X23086000Y-5900000D01*
X23018961Y-5880315D01*
X23011083Y-5874810D01*
X23000632Y-5866885D01*
X22867846Y-5814521D01*
X22867845Y-5814520D01*
X22867843Y-5814520D01*
X22784402Y-5804500D01*
X22265598Y-5804500D01*
X22182156Y-5814520D01*
X22182155Y-5814520D01*
X22049367Y-5866885D01*
X22043446Y-5871375D01*
X22038924Y-5874804D01*
X21973614Y-5899627D01*
X21964000Y-5900000D01*
X21511000Y-5900000D01*
X21443961Y-5880315D01*
X21436083Y-5874810D01*
X21425632Y-5866885D01*
X21292846Y-5814521D01*
X21292845Y-5814520D01*
X21292843Y-5814520D01*
X21209402Y-5804500D01*
X20690598Y-5804500D01*
X20607156Y-5814520D01*
X20607148Y-5814522D01*
X20474370Y-5866884D01*
X20474368Y-5866884D01*
X20463921Y-5874807D01*
X20398608Y-5899627D01*
X20389000Y-5900000D01*
X17100189Y-5900000D01*
X17033150Y-5880315D01*
X17010412Y-5861534D01*
X16965620Y-5814520D01*
X16944022Y-5791851D01*
X16932742Y-5776593D01*
X16932490Y-5776785D01*
X16927364Y-5770025D01*
X16840078Y-5654922D01*
X16840076Y-5654921D01*
X16840076Y-5654920D01*
X16724976Y-5567636D01*
X16590588Y-5514640D01*
X16547242Y-5509435D01*
X16506144Y-5504500D01*
X15973856Y-5504500D01*
X15935841Y-5509065D01*
X15889411Y-5514640D01*
X15755023Y-5567636D01*
X15639923Y-5654920D01*
X15563804Y-5755298D01*
X15507611Y-5796821D01*
X15437890Y-5801372D01*
X15376776Y-5767507D01*
X15366196Y-5755298D01*
X15290076Y-5654920D01*
X15174976Y-5567636D01*
X15040588Y-5514640D01*
X14997242Y-5509435D01*
X14956144Y-5504500D01*
X14956138Y-5504500D01*
X14795862Y-5504500D01*
X14728823Y-5484815D01*
X14708181Y-5468181D01*
X14590410Y-5350410D01*
X14556925Y-5289087D01*
X14554997Y-5277689D01*
X14536237Y-5123182D01*
X14480220Y-4975477D01*
X14390483Y-4845470D01*
X14272240Y-4740717D01*
X14272238Y-4740716D01*
X14272237Y-4740715D01*
X14132365Y-4667303D01*
X13978986Y-4629500D01*
X13978985Y-4629500D01*
X13920862Y-4629500D01*
X13853823Y-4609815D01*
X13833181Y-4593181D01*
X13581641Y-4341641D01*
X13553969Y-4299453D01*
X13542364Y-4270025D01*
X13538451Y-4264865D01*
X13455078Y-4154921D01*
X13339976Y-4067636D01*
X13205588Y-4014640D01*
X13162242Y-4009435D01*
X13121144Y-4004500D01*
X12538856Y-4004500D01*
X12500841Y-4009065D01*
X12454411Y-4014640D01*
X12320023Y-4067636D01*
X12204921Y-4154921D01*
X12185203Y-4180925D01*
X12129011Y-4222448D01*
X12086399Y-4230000D01*
X11794500Y-4230000D01*
X11727461Y-4210315D01*
X11681706Y-4157511D01*
X11670500Y-4106000D01*
X11670499Y-2975143D01*
X11670499Y-2975137D01*
X11670499Y-2975136D01*
X11668558Y-2958397D01*
X11667586Y-2950012D01*
X11667585Y-2950010D01*
X11667585Y-2950009D01*
X11622206Y-2847235D01*
X11542765Y-2767794D01*
X11491708Y-2745250D01*
X11439992Y-2722415D01*
X11414865Y-2719500D01*
X10125143Y-2719500D01*
X10125117Y-2719502D01*
X10100012Y-2722413D01*
X10100008Y-2722415D01*
X9997235Y-2767793D01*
X9917794Y-2847234D01*
X9872415Y-2950006D01*
X9872415Y-2950008D01*
X9871542Y-2957537D01*
X9869500Y-2975135D01*
X9869500Y-3563202D01*
X9869501Y-4106000D01*
X9849816Y-4173039D01*
X9797013Y-4218794D01*
X9745501Y-4230000D01*
X8710000Y-4230000D01*
X8710000Y-7476000D01*
X8690315Y-7543039D01*
X8637511Y-7588794D01*
X8586000Y-7600000D01*
X7354000Y-7600000D01*
X7286961Y-7580315D01*
X7241206Y-7527511D01*
X7230000Y-7476000D01*
X7230000Y-2137412D01*
X7249685Y-2070373D01*
X7279075Y-2038608D01*
X7386867Y-1956867D01*
X7387478Y-1956061D01*
X7388228Y-1955506D01*
X7392865Y-1950870D01*
X7393560Y-1951565D01*
X7443666Y-1914534D01*
X7513386Y-1909976D01*
X7574503Y-1943836D01*
X7585552Y-1956666D01*
X7589953Y-1962545D01*
X7589955Y-1962547D01*
X7705164Y-2048793D01*
X7705171Y-2048797D01*
X7750118Y-2065561D01*
X7840017Y-2099091D01*
X7899627Y-2105500D01*
X8395372Y-2105499D01*
X8454983Y-2099091D01*
X8589831Y-2048796D01*
X8705046Y-1962546D01*
X8714671Y-1949687D01*
X8770604Y-1907818D01*
X8813937Y-1900000D01*
X9131063Y-1900000D01*
X9198102Y-1919685D01*
G37*
%TD.AperFunction*%
%TD*%
%TA.AperFunction,Conductor*%
%TO.N,/CH343_RI*%
G36*
X17055031Y-10660101D02*
G01*
X17374983Y-10820396D01*
X17379398Y-10824252D01*
X17443999Y-10918724D01*
X17445840Y-10927487D01*
X17442614Y-10933601D01*
X17314819Y-11061396D01*
X17306546Y-11064823D01*
X17300084Y-11062877D01*
X17204307Y-10999429D01*
X17200323Y-10994944D01*
X17112273Y-10820395D01*
X17039350Y-10675833D01*
X17038684Y-10666905D01*
X17044528Y-10660119D01*
X17053457Y-10659452D01*
X17055031Y-10660101D01*
G37*
%TD.AperFunction*%
%TD*%
%TA.AperFunction,Conductor*%
%TO.N,/CH343_RI*%
G36*
X17244870Y-10717891D02*
G01*
X17564864Y-10849834D01*
X17624876Y-10874579D01*
X17631218Y-10880901D01*
X17631242Y-10889833D01*
X17542564Y-11106175D01*
X17536255Y-11112531D01*
X17536176Y-11112564D01*
X17422954Y-11158973D01*
X17318266Y-11201884D01*
X17309312Y-11201852D01*
X17303837Y-11197146D01*
X17101023Y-10864194D01*
X17099646Y-10855345D01*
X17102740Y-10849836D01*
X17232141Y-10720435D01*
X17240413Y-10717009D01*
X17244870Y-10717891D01*
G37*
%TD.AperFunction*%
%TD*%
%TA.AperFunction,Conductor*%
%TO.N,/CH343_VIO*%
G36*
X19437967Y-11853124D02*
G01*
X19944541Y-12120677D01*
X19950255Y-12127570D01*
X19949897Y-12135471D01*
X19822563Y-12445190D01*
X19816248Y-12451539D01*
X19816191Y-12451562D01*
X19506430Y-12578913D01*
X19497475Y-12578890D01*
X19491659Y-12573601D01*
X19253611Y-12127570D01*
X19222284Y-12068873D01*
X19221413Y-12059963D01*
X19224332Y-12055095D01*
X19424231Y-11855196D01*
X19432503Y-11851770D01*
X19437967Y-11853124D01*
G37*
%TD.AperFunction*%
%TD*%
%TA.AperFunction,Conductor*%
%TO.N,/CH343_VIO*%
G36*
X20423873Y-12839105D02*
G01*
X21110873Y-13210235D01*
X21116523Y-13217182D01*
X21116337Y-13224445D01*
X20952546Y-13685528D01*
X20946548Y-13692177D01*
X20945548Y-13692597D01*
X20523323Y-13847367D01*
X20514376Y-13846997D01*
X20508372Y-13840571D01*
X20206791Y-13054185D01*
X20207028Y-13045234D01*
X20209439Y-13041726D01*
X20410040Y-12841125D01*
X20418312Y-12837699D01*
X20423873Y-12839105D01*
G37*
%TD.AperFunction*%
%TD*%
%TA.AperFunction,Conductor*%
%TO.N,/CH343_VIO*%
G36*
X20142482Y-12319124D02*
G01*
X20148321Y-12324457D01*
X20213726Y-12448292D01*
X20415874Y-12831031D01*
X20416707Y-12839947D01*
X20413801Y-12844768D01*
X20213905Y-13044664D01*
X20205632Y-13048091D01*
X20200124Y-13046713D01*
X20021137Y-12951188D01*
X19695397Y-12777339D01*
X19689712Y-12770420D01*
X19690084Y-12762569D01*
X19817437Y-12452805D01*
X19823748Y-12446460D01*
X20133528Y-12319101D01*
X20142482Y-12319124D01*
G37*
%TD.AperFunction*%
%TD*%
%TA.AperFunction,Conductor*%
%TO.N,/CH343_USB_Data_P*%
G36*
X13991555Y-8882527D02*
G01*
X14087060Y-8946198D01*
X14091030Y-8950691D01*
X14251360Y-9270712D01*
X14252002Y-9279644D01*
X14246140Y-9286414D01*
X14237208Y-9287056D01*
X14235658Y-9286414D01*
X13915637Y-9126084D01*
X13911144Y-9122114D01*
X13847473Y-9026609D01*
X13845736Y-9017825D01*
X13848934Y-9011849D01*
X13976794Y-8883989D01*
X13985066Y-8880563D01*
X13991555Y-8882527D01*
G37*
%TD.AperFunction*%
%TD*%
%TA.AperFunction,Conductor*%
%TO.N,/CH343_USB_Data_N*%
G36*
X13638002Y-9236080D02*
G01*
X13733507Y-9299751D01*
X13737477Y-9304244D01*
X13897807Y-9624265D01*
X13898449Y-9633197D01*
X13892587Y-9639967D01*
X13883655Y-9640609D01*
X13882105Y-9639967D01*
X13562084Y-9479637D01*
X13557591Y-9475667D01*
X13493920Y-9380162D01*
X13492183Y-9371378D01*
X13495381Y-9365402D01*
X13623241Y-9237542D01*
X13631513Y-9234116D01*
X13638002Y-9236080D01*
G37*
%TD.AperFunction*%
%TD*%
%TA.AperFunction,Conductor*%
%TO.N,/CH343_TXD*%
G36*
X20335938Y-11417592D02*
G01*
X20993921Y-11661565D01*
X21000485Y-11667653D01*
X21001348Y-11674708D01*
X20914385Y-12134476D01*
X20909480Y-12141969D01*
X20907343Y-12143121D01*
X20523118Y-12301313D01*
X20514164Y-12301294D01*
X20507930Y-12295150D01*
X20190650Y-11563704D01*
X20190503Y-11554753D01*
X20193110Y-11550780D01*
X20323601Y-11420289D01*
X20331873Y-11416863D01*
X20335938Y-11417592D01*
G37*
%TD.AperFunction*%
%TD*%
%TA.AperFunction,Conductor*%
%TO.N,/CH343_TXD*%
G36*
X16252392Y-8176176D02*
G01*
X16380249Y-8304033D01*
X16383676Y-8312306D01*
X16381711Y-8318796D01*
X16318042Y-8414299D01*
X16313548Y-8418270D01*
X15993527Y-8578600D01*
X15984595Y-8579242D01*
X15977825Y-8573380D01*
X15977183Y-8564448D01*
X15977820Y-8562908D01*
X16138157Y-8242873D01*
X16142123Y-8238386D01*
X16237630Y-8174713D01*
X16246414Y-8172976D01*
X16252392Y-8176176D01*
G37*
%TD.AperFunction*%
%TD*%
%TA.AperFunction,Conductor*%
%TO.N,/CH343_VIO*%
G36*
X16681631Y-5959330D02*
G01*
X17126825Y-6426611D01*
X17130054Y-6434681D01*
X17130054Y-6718731D01*
X17126627Y-6727004D01*
X17118793Y-6730423D01*
X16472695Y-6754710D01*
X16464299Y-6751596D01*
X16461691Y-6748045D01*
X16393767Y-6605286D01*
X16243101Y-6288621D01*
X16242642Y-6279679D01*
X16246623Y-6274253D01*
X16666118Y-5958057D01*
X16674787Y-5955815D01*
X16681631Y-5959330D01*
G37*
%TD.AperFunction*%
%TD*%
%TA.AperFunction,Conductor*%
%TO.N,/CH343_VIO*%
G36*
X18564834Y-6260601D02*
G01*
X18570144Y-6266428D01*
X18699119Y-6575494D01*
X18699142Y-6584449D01*
X18699119Y-6584506D01*
X18570144Y-6893571D01*
X18563795Y-6899886D01*
X18555920Y-6900252D01*
X18008274Y-6732533D01*
X18001367Y-6726834D01*
X18000000Y-6721346D01*
X18000000Y-6438653D01*
X18003427Y-6430380D01*
X18008274Y-6427466D01*
X18555921Y-6259747D01*
X18564834Y-6260601D01*
G37*
%TD.AperFunction*%
%TD*%
%TA.AperFunction,Conductor*%
%TO.N,/CH343_VIO*%
G36*
X18564834Y-9020601D02*
G01*
X18570144Y-9026428D01*
X18699119Y-9335494D01*
X18699142Y-9344449D01*
X18699119Y-9344506D01*
X18570144Y-9653571D01*
X18563795Y-9659886D01*
X18555920Y-9660252D01*
X18008274Y-9492533D01*
X18001367Y-9486834D01*
X18000000Y-9481346D01*
X18000000Y-9198653D01*
X18003427Y-9190380D01*
X18008274Y-9187466D01*
X18555921Y-9019747D01*
X18564834Y-9020601D01*
G37*
%TD.AperFunction*%
%TD*%
%TA.AperFunction,Conductor*%
%TO.N,/CH343_VIO*%
G36*
X20622358Y-6150374D02*
G01*
X20945561Y-6572891D01*
X20947866Y-6581545D01*
X20945561Y-6587109D01*
X20622358Y-7009625D01*
X20614610Y-7014114D01*
X20607577Y-7012849D01*
X20081212Y-6733299D01*
X20075513Y-6726392D01*
X20075000Y-6722966D01*
X20075000Y-6437033D01*
X20078427Y-6428760D01*
X20081207Y-6426702D01*
X20607580Y-6147149D01*
X20616491Y-6146296D01*
X20622358Y-6150374D01*
G37*
%TD.AperFunction*%
%TD*%
%TA.AperFunction,Conductor*%
%TO.N,/CH343_VIO*%
G36*
X19391726Y-6427466D02*
G01*
X19398633Y-6433165D01*
X19400000Y-6438653D01*
X19400000Y-6721346D01*
X19396573Y-6729619D01*
X19391726Y-6732533D01*
X18844079Y-6900252D01*
X18835165Y-6899398D01*
X18829855Y-6893571D01*
X18700880Y-6584506D01*
X18700857Y-6575551D01*
X18700880Y-6575494D01*
X18761596Y-6430000D01*
X18829855Y-6266427D01*
X18836204Y-6260113D01*
X18844077Y-6259747D01*
X19391726Y-6427466D01*
G37*
%TD.AperFunction*%
%TD*%
%TA.AperFunction,Conductor*%
%TO.N,/CH343_VDD_5V*%
G36*
X14664655Y-13348427D02*
G01*
X14667556Y-13353230D01*
X14845472Y-13926167D01*
X14844652Y-13935084D01*
X14841487Y-13938868D01*
X14422189Y-14265401D01*
X14413556Y-14267781D01*
X14407811Y-14265401D01*
X13988512Y-13938868D01*
X13984090Y-13931081D01*
X13984527Y-13926167D01*
X14162444Y-13353230D01*
X14168171Y-13346346D01*
X14173618Y-13345000D01*
X14656382Y-13345000D01*
X14664655Y-13348427D01*
G37*
%TD.AperFunction*%
%TD*%
%TA.AperFunction,Conductor*%
%TO.N,/CH343_VDD_5V*%
G36*
X5076957Y-12539971D02*
G01*
X5085223Y-12543416D01*
X5088631Y-12551697D01*
X5088559Y-12552963D01*
X4991156Y-13429592D01*
X4986837Y-13437436D01*
X4979528Y-13440000D01*
X4300472Y-13440000D01*
X4292199Y-13436573D01*
X4288844Y-13429592D01*
X4191440Y-12552963D01*
X4193932Y-12544362D01*
X4201776Y-12540043D01*
X4203041Y-12539971D01*
X4640000Y-12539000D01*
X5076957Y-12539971D01*
G37*
%TD.AperFunction*%
%TD*%
%TA.AperFunction,Conductor*%
%TO.N,/CH343_VDD_5V*%
G36*
X7505558Y-17486991D02*
G01*
X8757202Y-18149725D01*
X8762910Y-18156625D01*
X8762541Y-18164531D01*
X8443882Y-18936214D01*
X8437557Y-18942553D01*
X8437534Y-18942562D01*
X7666025Y-19261150D01*
X7657070Y-19261141D01*
X7651126Y-19255629D01*
X7006786Y-17985489D01*
X7006100Y-17976562D01*
X7008946Y-17971926D01*
X7491814Y-17489058D01*
X7500086Y-17485632D01*
X7505558Y-17486991D01*
G37*
%TD.AperFunction*%
%TD*%
%TA.AperFunction,Conductor*%
%TO.N,GND*%
G36*
X17945653Y-3480000D02*
G01*
X17848982Y-3710970D01*
X17444653Y-3580000D01*
X17444653Y-3380000D01*
X17848982Y-3249030D01*
X17945653Y-3480000D01*
G37*
%TD.AperFunction*%
%TD*%
%TA.AperFunction,Conductor*%
%TO.N,/CH343_RXD*%
G36*
X28739193Y-9370544D02*
G01*
X28739527Y-9371275D01*
X29059134Y-10140511D01*
X29059143Y-10149466D01*
X29059134Y-10149489D01*
X28739527Y-10918724D01*
X28733188Y-10925049D01*
X28724233Y-10925040D01*
X28723502Y-10924706D01*
X27366480Y-10248230D01*
X27360605Y-10241472D01*
X27360000Y-10237759D01*
X27360000Y-10052240D01*
X27363427Y-10043967D01*
X27366476Y-10041771D01*
X28723503Y-9365292D01*
X28732435Y-9364669D01*
X28739193Y-9370544D01*
G37*
%TD.AperFunction*%
%TD*%
%TA.AperFunction,Conductor*%
%TO.N,/CH343_RXD*%
G36*
X20845556Y-7654927D02*
G01*
X20853804Y-7658412D01*
X20857088Y-7665217D01*
X20912598Y-8122569D01*
X20910193Y-8131195D01*
X20907132Y-8133933D01*
X20521942Y-8371862D01*
X20513102Y-8373294D01*
X20506177Y-8368573D01*
X20148827Y-7853006D01*
X20146743Y-7846341D01*
X20146743Y-7661783D01*
X20150170Y-7653510D01*
X20158443Y-7650083D01*
X20158514Y-7650083D01*
X20845556Y-7654927D01*
G37*
%TD.AperFunction*%
%TD*%
%TA.AperFunction,Conductor*%
%TO.N,/CH343_RXD*%
G36*
X20920402Y-8136240D02*
G01*
X21104492Y-8304906D01*
X21290864Y-8475663D01*
X21294649Y-8483779D01*
X21293500Y-8489370D01*
X21048190Y-8998380D01*
X21041511Y-9004345D01*
X21037650Y-9005000D01*
X20851590Y-9005000D01*
X20843317Y-9001573D01*
X20841584Y-8999364D01*
X20532698Y-8489744D01*
X20531341Y-8480893D01*
X20534798Y-8475054D01*
X20904597Y-8136240D01*
X20913011Y-8133179D01*
X20920402Y-8136240D01*
G37*
%TD.AperFunction*%
%TD*%
%TA.AperFunction,Conductor*%
%TO.N,/CH343_RXD*%
G36*
X15086372Y-8353660D02*
G01*
X15214229Y-8481517D01*
X15217656Y-8489790D01*
X15215691Y-8496280D01*
X15153757Y-8589179D01*
X15146316Y-8594162D01*
X15144069Y-8594389D01*
X14984611Y-8595025D01*
X14976324Y-8591631D01*
X14972864Y-8583373D01*
X14973499Y-8423818D01*
X14976959Y-8415560D01*
X14978706Y-8414132D01*
X15071610Y-8352197D01*
X15080394Y-8350460D01*
X15086372Y-8353660D01*
G37*
%TD.AperFunction*%
%TD*%
%TA.AperFunction,Conductor*%
%TO.N,GND*%
G36*
X22932563Y-3380000D02*
G01*
X22932563Y-3580000D01*
X22528870Y-3707771D01*
X22432199Y-3476801D01*
X22528870Y-3245831D01*
X22932563Y-3380000D01*
G37*
%TD.AperFunction*%
%TD*%
%TA.AperFunction,Conductor*%
%TO.N,GND*%
G36*
X20847986Y-3380000D02*
G01*
X20847986Y-3580000D01*
X20443657Y-3710970D01*
X20346986Y-3480000D01*
X20443657Y-3249030D01*
X20847986Y-3380000D01*
G37*
%TD.AperFunction*%
%TD*%
%TA.AperFunction,Conductor*%
%TO.N,GND*%
G36*
X22434199Y-3476801D02*
G01*
X22337528Y-3707771D01*
X21933835Y-3580000D01*
X21933835Y-3380000D01*
X22337528Y-3245831D01*
X22434199Y-3476801D01*
G37*
%TD.AperFunction*%
%TD*%
%TA.AperFunction,Conductor*%
%TO.N,GND*%
G36*
X18444653Y-3380000D02*
G01*
X18444653Y-3580000D01*
X18040324Y-3710970D01*
X17943653Y-3480000D01*
X18040324Y-3249030D01*
X18444653Y-3380000D01*
G37*
%TD.AperFunction*%
%TD*%
%TA.AperFunction,Conductor*%
%TO.N,GND*%
G36*
X20348986Y-3480000D02*
G01*
X20252315Y-3710970D01*
X19847986Y-3580000D01*
X19847986Y-3380000D01*
X20252315Y-3249030D01*
X20348986Y-3480000D01*
G37*
%TD.AperFunction*%
%TD*%
%TA.AperFunction,Conductor*%
%TO.N,/CH343_USB_Data_N*%
G36*
X3971607Y-10251095D02*
G01*
X4110320Y-10297333D01*
X4117085Y-10303201D01*
X4118320Y-10308433D01*
X4118320Y-10491566D01*
X4114893Y-10499839D01*
X4110320Y-10502666D01*
X3971610Y-10548903D01*
X3964961Y-10549125D01*
X3435796Y-10411322D01*
X3428654Y-10405921D01*
X3427423Y-10397051D01*
X3432824Y-10389909D01*
X3435796Y-10388678D01*
X3964963Y-10250874D01*
X3971607Y-10251095D01*
G37*
%TD.AperFunction*%
%TD*%
%TA.AperFunction,Conductor*%
%TO.N,/CH343_USB_Data_P*%
G36*
X3971607Y-9751095D02*
G01*
X4110320Y-9797333D01*
X4117085Y-9803201D01*
X4118320Y-9808433D01*
X4118320Y-9991566D01*
X4114893Y-9999839D01*
X4110320Y-10002666D01*
X3971610Y-10048903D01*
X3964961Y-10049125D01*
X3435796Y-9911322D01*
X3428654Y-9905921D01*
X3427423Y-9897051D01*
X3432824Y-9889909D01*
X3435796Y-9888678D01*
X3964963Y-9750874D01*
X3971607Y-9751095D01*
G37*
%TD.AperFunction*%
%TD*%
%TA.AperFunction,Conductor*%
%TO.N,/CH343_VDD_5V*%
G36*
X4636622Y-12103927D02*
G01*
X4640049Y-12112174D01*
X4641000Y-12540000D01*
X4641000Y-12540052D01*
X4640028Y-12977097D01*
X4636583Y-12985363D01*
X4628302Y-12988771D01*
X4627161Y-12988713D01*
X3752522Y-12901055D01*
X3744632Y-12896820D01*
X3741989Y-12889413D01*
X3741989Y-12210354D01*
X3745416Y-12202081D01*
X3752265Y-12198741D01*
X4317829Y-12129463D01*
X4553571Y-12100587D01*
X4554994Y-12100500D01*
X4628349Y-12100500D01*
X4636622Y-12103927D01*
G37*
%TD.AperFunction*%
%TD*%
%TA.AperFunction,Conductor*%
%TO.N,/CH343_VDD_5V*%
G36*
X4635535Y-7293998D02*
G01*
X4639942Y-7301793D01*
X4640029Y-7303190D01*
X4641000Y-7740000D01*
X4641000Y-7740052D01*
X4640028Y-8177097D01*
X4636583Y-8185363D01*
X4628302Y-8188771D01*
X4627161Y-8188713D01*
X3752522Y-8101055D01*
X3744632Y-8096820D01*
X3741989Y-8089413D01*
X3741989Y-7410354D01*
X3745416Y-7402081D01*
X3752265Y-7398741D01*
X4626908Y-7291603D01*
X4635535Y-7293998D01*
G37*
%TD.AperFunction*%
%TD*%
%TA.AperFunction,Conductor*%
%TO.N,Net-(USB1-CC2)*%
G36*
X10574549Y-13981867D02*
G01*
X10913758Y-14352096D01*
X10916820Y-14360511D01*
X10913758Y-14367904D01*
X10574737Y-14737927D01*
X10566621Y-14741712D01*
X10560369Y-14740218D01*
X10050959Y-14453355D01*
X10045432Y-14446309D01*
X10045000Y-14443160D01*
X10045000Y-14257071D01*
X10048427Y-14248798D01*
X10051252Y-14246717D01*
X10560487Y-13979410D01*
X10569402Y-13978601D01*
X10574549Y-13981867D01*
G37*
%TD.AperFunction*%
%TD*%
%TA.AperFunction,Conductor*%
%TO.N,Net-(USB1-CC2)*%
G36*
X3971607Y-11751095D02*
G01*
X4110320Y-11797333D01*
X4117085Y-11803201D01*
X4118320Y-11808433D01*
X4118320Y-11991566D01*
X4114893Y-11999839D01*
X4110320Y-12002666D01*
X3971610Y-12048903D01*
X3964961Y-12049125D01*
X3435796Y-11911322D01*
X3428654Y-11905921D01*
X3427423Y-11897051D01*
X3432824Y-11889909D01*
X3435796Y-11888678D01*
X3964963Y-11750874D01*
X3971607Y-11751095D01*
G37*
%TD.AperFunction*%
%TD*%
%TA.AperFunction,Conductor*%
%TO.N,/CH343_V3*%
G36*
X10158123Y-934597D02*
G01*
X10162542Y-937065D01*
X10591505Y-1176652D01*
X10597057Y-1183677D01*
X10597500Y-1186866D01*
X10597500Y-1473133D01*
X10594073Y-1481406D01*
X10591505Y-1483348D01*
X10158123Y-1725402D01*
X10149229Y-1726444D01*
X10143650Y-1722934D01*
X9931980Y-1483348D01*
X9803343Y-1337746D01*
X9800434Y-1329278D01*
X9803344Y-1322253D01*
X9922956Y-1186866D01*
X10143652Y-937063D01*
X10151696Y-933134D01*
X10158123Y-934597D01*
G37*
%TD.AperFunction*%
%TD*%
%TA.AperFunction,Conductor*%
%TO.N,Net-(USB1-CC1)*%
G36*
X10574644Y-8521970D02*
G01*
X10913758Y-8892096D01*
X10916820Y-8900511D01*
X10913758Y-8907904D01*
X10574644Y-9278029D01*
X10566528Y-9281814D01*
X10560426Y-9280403D01*
X10051109Y-9003323D01*
X10045479Y-8996359D01*
X10045000Y-8993045D01*
X10045000Y-8806954D01*
X10048427Y-8798681D01*
X10051106Y-8796678D01*
X10560426Y-8519595D01*
X10569331Y-8518653D01*
X10574644Y-8521970D01*
G37*
%TD.AperFunction*%
%TD*%
%TA.AperFunction,Conductor*%
%TO.N,Net-(USB1-CC1)*%
G36*
X3971607Y-8751095D02*
G01*
X4110320Y-8797333D01*
X4117085Y-8803201D01*
X4118320Y-8808433D01*
X4118320Y-8991566D01*
X4114893Y-8999839D01*
X4110320Y-9002666D01*
X3971610Y-9048903D01*
X3964961Y-9049125D01*
X3435796Y-8911322D01*
X3428654Y-8905921D01*
X3427423Y-8897051D01*
X3432824Y-8889909D01*
X3435796Y-8888678D01*
X3964963Y-8750874D01*
X3971607Y-8751095D01*
G37*
%TD.AperFunction*%
%TD*%
%TA.AperFunction,Conductor*%
%TO.N,/CH343_VDD_5V*%
G36*
X9160929Y-18279564D02*
G01*
X10133153Y-18587414D01*
X10140005Y-18593177D01*
X10141320Y-18598567D01*
X10141320Y-19281432D01*
X10137893Y-19289705D01*
X10133152Y-19292586D01*
X8776823Y-19722060D01*
X8767901Y-19721291D01*
X8762486Y-19715395D01*
X8582180Y-19281432D01*
X8442184Y-18944488D01*
X8442176Y-18935534D01*
X8442185Y-18935511D01*
X8762487Y-18164602D01*
X8768825Y-18158279D01*
X8776823Y-18157939D01*
X9160929Y-18279564D01*
G37*
%TD.AperFunction*%
%TD*%
%TA.AperFunction,Conductor*%
%TO.N,/CH343_VDD_5V*%
G36*
X14420781Y-14272224D02*
G01*
X14857996Y-14516093D01*
X14863551Y-14523115D01*
X14863882Y-14527941D01*
X14771417Y-15184931D01*
X14766870Y-15192645D01*
X14759831Y-15195000D01*
X14080025Y-15195000D01*
X14071752Y-15191573D01*
X14068463Y-15185093D01*
X13967616Y-14534905D01*
X13969735Y-14526205D01*
X13973343Y-14522970D01*
X14409258Y-14272301D01*
X14418136Y-14271149D01*
X14420781Y-14272224D01*
G37*
%TD.AperFunction*%
%TD*%
%TA.AperFunction,Conductor*%
%TO.N,/CH343_DTR*%
G36*
X21447022Y-17469142D02*
G01*
X21449539Y-17470743D01*
X22516997Y-18149435D01*
X22522140Y-18156765D01*
X22521534Y-18163774D01*
X22203696Y-18933466D01*
X22197371Y-18939805D01*
X22192872Y-18940700D01*
X21361240Y-18940009D01*
X21352970Y-18936575D01*
X21349559Y-18928768D01*
X21297886Y-17610642D01*
X21300986Y-17602242D01*
X21301277Y-17601939D01*
X21432474Y-17470742D01*
X21440746Y-17467316D01*
X21447022Y-17469142D01*
G37*
%TD.AperFunction*%
%TD*%
%TA.AperFunction,Conductor*%
%TO.N,/CH343_DTR*%
G36*
X14982770Y-11709047D02*
G01*
X14982857Y-11709086D01*
X15085630Y-11755610D01*
X15091754Y-11762144D01*
X15092075Y-11769413D01*
X15027185Y-12001980D01*
X15024188Y-12007109D01*
X14897288Y-12134009D01*
X14889015Y-12137436D01*
X14880742Y-12134009D01*
X14878216Y-12130238D01*
X14834847Y-12026217D01*
X14834826Y-12017263D01*
X14834902Y-12017084D01*
X14967356Y-11715062D01*
X14973817Y-11708863D01*
X14982770Y-11709047D01*
G37*
%TD.AperFunction*%
%TD*%
%TA.AperFunction,Conductor*%
%TO.N,/CH343_DCD*%
G36*
X19761032Y-17243427D02*
G01*
X19763230Y-17246480D01*
X20439706Y-18603502D01*
X20440330Y-18612435D01*
X20434455Y-18619193D01*
X20433724Y-18619527D01*
X19664489Y-18939134D01*
X19655534Y-18939143D01*
X19655511Y-18939134D01*
X18886275Y-18619527D01*
X18879950Y-18613188D01*
X18879959Y-18604233D01*
X18880285Y-18603518D01*
X19556770Y-17246480D01*
X19563528Y-17240605D01*
X19567241Y-17240000D01*
X19752759Y-17240000D01*
X19761032Y-17243427D01*
G37*
%TD.AperFunction*%
%TD*%
%TA.AperFunction,Conductor*%
%TO.N,/CH343_DCD*%
G36*
X14600530Y-11377350D02*
G01*
X14602087Y-11386168D01*
X14601135Y-11388860D01*
X14444103Y-11703813D01*
X14441721Y-11707045D01*
X14423393Y-11724583D01*
X14415304Y-11727830D01*
X14238002Y-11727830D01*
X14229729Y-11724403D01*
X14226302Y-11716130D01*
X14227310Y-11711379D01*
X14294061Y-11561152D01*
X14298463Y-11556037D01*
X14584378Y-11373772D01*
X14593193Y-11372216D01*
X14600530Y-11377350D01*
G37*
%TD.AperFunction*%
%TD*%
%TA.AperFunction,Conductor*%
%TO.N,/CH343_ACT#*%
G36*
X14251360Y-11018805D02*
G01*
X14252002Y-11027737D01*
X14251360Y-11029287D01*
X14091030Y-11349308D01*
X14087059Y-11353802D01*
X13991556Y-11417471D01*
X13982771Y-11419209D01*
X13976793Y-11416009D01*
X13848936Y-11288152D01*
X13845509Y-11279879D01*
X13847473Y-11273391D01*
X13911146Y-11177883D01*
X13915633Y-11173917D01*
X14235660Y-11013584D01*
X14244590Y-11012943D01*
X14251360Y-11018805D01*
G37*
%TD.AperFunction*%
%TD*%
%TA.AperFunction,Conductor*%
%TO.N,/CH343_ACT#*%
G36*
X17222993Y-17243427D02*
G01*
X17223493Y-17243959D01*
X17962732Y-18081763D01*
X17965636Y-18090234D01*
X17962237Y-18097772D01*
X17128278Y-18932712D01*
X17120007Y-18936144D01*
X17111732Y-18932722D01*
X17111722Y-18932712D01*
X16918868Y-18739632D01*
X16277761Y-18097770D01*
X16274340Y-18089497D01*
X16277266Y-18081764D01*
X17016507Y-17243959D01*
X17024550Y-17240023D01*
X17025280Y-17240000D01*
X17214720Y-17240000D01*
X17222993Y-17243427D01*
G37*
%TD.AperFunction*%
%TD*%
%TA.AperFunction,Conductor*%
%TO.N,/CH343_CTS*%
G36*
X16701335Y-11013582D02*
G01*
X17021363Y-11173916D01*
X17025856Y-11177886D01*
X17089525Y-11273389D01*
X17091263Y-11282174D01*
X17088063Y-11288152D01*
X16960206Y-11416009D01*
X16951933Y-11419436D01*
X16945443Y-11417471D01*
X16849940Y-11353802D01*
X16845970Y-11349309D01*
X16685638Y-11029285D01*
X16684997Y-11020355D01*
X16690859Y-11013585D01*
X16699791Y-11012943D01*
X16701335Y-11013582D01*
G37*
%TD.AperFunction*%
%TD*%
%TA.AperFunction,Conductor*%
%TO.N,/CH343_CTS*%
G36*
X18395785Y-12578603D02*
G01*
X18757137Y-12763133D01*
X18762946Y-12769947D01*
X18762641Y-12777990D01*
X18673617Y-12995175D01*
X18667308Y-13001530D01*
X18667229Y-13001563D01*
X18450044Y-13090587D01*
X18441089Y-13090554D01*
X18435187Y-13085083D01*
X18250657Y-12723732D01*
X18249947Y-12714807D01*
X18252803Y-12710141D01*
X18382194Y-12580750D01*
X18390466Y-12577324D01*
X18395785Y-12578603D01*
G37*
%TD.AperFunction*%
%TD*%
%TA.AperFunction,Conductor*%
%TO.N,/CH343_DSR*%
G36*
X16347781Y-11367136D02*
G01*
X16667809Y-11527470D01*
X16672302Y-11531440D01*
X16735971Y-11626943D01*
X16737709Y-11635728D01*
X16734509Y-11641706D01*
X16606652Y-11769563D01*
X16598379Y-11772990D01*
X16591889Y-11771025D01*
X16496386Y-11707356D01*
X16492416Y-11702863D01*
X16332084Y-11382839D01*
X16331443Y-11373909D01*
X16337305Y-11367139D01*
X16346237Y-11366497D01*
X16347781Y-11367136D01*
G37*
%TD.AperFunction*%
%TD*%
%TA.AperFunction,Conductor*%
%TO.N,/CH343_DSR*%
G36*
X18389678Y-13279604D02*
G01*
X18751030Y-13464134D01*
X18756839Y-13470948D01*
X18756534Y-13478991D01*
X18667510Y-13696176D01*
X18661201Y-13702531D01*
X18661122Y-13702564D01*
X18443937Y-13791588D01*
X18434982Y-13791555D01*
X18429080Y-13786084D01*
X18244550Y-13424733D01*
X18243840Y-13415808D01*
X18246696Y-13411142D01*
X18376087Y-13281751D01*
X18384359Y-13278325D01*
X18389678Y-13279604D01*
G37*
%TD.AperFunction*%
%TD*%
%TA.AperFunction,Conductor*%
%TO.N,/CH343_RTS*%
G36*
X15994228Y-11720689D02*
G01*
X16314256Y-11881023D01*
X16318749Y-11884993D01*
X16382418Y-11980496D01*
X16384156Y-11989281D01*
X16380956Y-11995259D01*
X16253099Y-12123116D01*
X16244826Y-12126543D01*
X16238336Y-12124578D01*
X16142833Y-12060909D01*
X16138863Y-12056416D01*
X15978531Y-11736392D01*
X15977890Y-11727462D01*
X15983752Y-11720692D01*
X15992684Y-11720050D01*
X15994228Y-11720689D01*
G37*
%TD.AperFunction*%
%TD*%
%TA.AperFunction,Conductor*%
%TO.N,/CH343_RTS*%
G36*
X21281173Y-14356218D02*
G01*
X21286645Y-14362121D01*
X21377269Y-14578643D01*
X21377302Y-14587597D01*
X21377269Y-14587677D01*
X21286645Y-14804198D01*
X21280289Y-14810507D01*
X21272247Y-14810812D01*
X20886255Y-14685782D01*
X20879440Y-14679972D01*
X20878160Y-14674651D01*
X20878160Y-14491668D01*
X20881587Y-14483395D01*
X20886251Y-14480538D01*
X21272248Y-14355507D01*
X21281173Y-14356218D01*
G37*
%TD.AperFunction*%
%TD*%
%TA.AperFunction,Conductor*%
%TO.N,/CH343_TXD*%
G36*
X27933477Y-11417480D02*
G01*
X29373360Y-11895742D01*
X29380131Y-11901602D01*
X29380776Y-11910534D01*
X29380486Y-11911312D01*
X29062562Y-12681214D01*
X29056237Y-12687553D01*
X29056214Y-12687562D01*
X28286264Y-13005506D01*
X28277309Y-13005497D01*
X28270984Y-12999158D01*
X28270710Y-12998426D01*
X28165406Y-12685707D01*
X27787520Y-11563501D01*
X27788127Y-11554568D01*
X27790332Y-11551498D01*
X27921519Y-11420311D01*
X27929791Y-11416885D01*
X27933477Y-11417480D01*
G37*
%TD.AperFunction*%
%TD*%
%TA.AperFunction,Conductor*%
%TO.N,/CH343_TXD*%
G36*
X21013818Y-11268427D02*
G01*
X21015823Y-11271109D01*
X21292903Y-11780426D01*
X21293846Y-11789331D01*
X21290529Y-11794644D01*
X20920404Y-12133758D01*
X20911989Y-12136820D01*
X20904596Y-12133758D01*
X20534470Y-11794644D01*
X20530685Y-11786528D01*
X20532096Y-11780426D01*
X20809177Y-11271109D01*
X20816141Y-11265479D01*
X20819455Y-11265000D01*
X21005545Y-11265000D01*
X21013818Y-11268427D01*
G37*
%TD.AperFunction*%
%TD*%
%TA.AperFunction,Conductor*%
%TO.N,Net-(D5-K)*%
G36*
X22101348Y-6416904D02*
G01*
X22513334Y-6574536D01*
X22519836Y-6580693D01*
X22520080Y-6589644D01*
X22519784Y-6590349D01*
X22309593Y-7047724D01*
X22303025Y-7053810D01*
X22298258Y-7054517D01*
X22241671Y-7051103D01*
X22203820Y-7048820D01*
X22203811Y-7048820D01*
X22017156Y-7048820D01*
X22008883Y-7045393D01*
X22005456Y-7037120D01*
X22005556Y-7035597D01*
X22064120Y-6589644D01*
X22085569Y-6426308D01*
X22090043Y-6418552D01*
X22098692Y-6416232D01*
X22101348Y-6416904D01*
G37*
%TD.AperFunction*%
%TD*%
%TA.AperFunction,Conductor*%
%TO.N,Net-(D6-K)*%
G36*
X22174565Y-12019672D02*
G01*
X22556765Y-12137235D01*
X22563664Y-12142943D01*
X22564413Y-12144687D01*
X22719281Y-12604932D01*
X22718672Y-12613866D01*
X22712973Y-12619341D01*
X22173602Y-12860852D01*
X22168821Y-12861874D01*
X21985959Y-12861874D01*
X21977686Y-12858447D01*
X21974259Y-12850174D01*
X21974547Y-12847595D01*
X22159716Y-12028275D01*
X22164882Y-12020963D01*
X22173707Y-12019444D01*
X22174565Y-12019672D01*
G37*
%TD.AperFunction*%
%TD*%
%TA.AperFunction,Conductor*%
%TO.N,/CH343_USB_Data_N*%
G36*
X3234247Y-9358314D02*
G01*
X3350843Y-9388678D01*
X3357985Y-9394079D01*
X3359216Y-9402949D01*
X3353815Y-9410091D01*
X3350843Y-9411322D01*
X2821678Y-9549125D01*
X2815029Y-9548903D01*
X2676320Y-9502666D01*
X2669555Y-9496798D01*
X2668320Y-9491566D01*
X2668320Y-9308433D01*
X2671747Y-9300160D01*
X2676318Y-9297333D01*
X2815032Y-9251095D01*
X2821676Y-9250874D01*
X3234247Y-9358314D01*
G37*
%TD.AperFunction*%
%TD*%
%TA.AperFunction,Conductor*%
%TO.N,/CH343_USB_Data_N*%
G36*
X3061906Y-9297378D02*
G01*
X3068720Y-9303187D01*
X3070000Y-9308508D01*
X3070000Y-9491491D01*
X3066573Y-9499764D01*
X3061905Y-9502622D01*
X2675912Y-9627652D01*
X2666986Y-9626941D01*
X2661514Y-9621038D01*
X2570889Y-9404515D01*
X2570857Y-9395563D01*
X2661514Y-9178960D01*
X2667870Y-9172652D01*
X2675911Y-9172347D01*
X3061906Y-9297378D01*
G37*
%TD.AperFunction*%
%TD*%
M02*
