%TF.GenerationSoftware,KiCad,Pcbnew,(6.0.8)*%
%TF.CreationDate,2022-10-12T15:16:41+08:00*%
%TF.ProjectId,UINIO-USB-UART,55494e49-4f2d-4555-9342-2d554152542e,Hank*%
%TF.SameCoordinates,Original*%
%TF.FileFunction,Legend,Bot*%
%TF.FilePolarity,Positive*%
%FSLAX46Y46*%
G04 Gerber Fmt 4.6, Leading zero omitted, Abs format (unit mm)*
G04 Created by KiCad (PCBNEW (6.0.8)) date 2022-10-12 15:16:41*
%MOMM*%
%LPD*%
G01*
G04 APERTURE LIST*
%ADD10C,0.100000*%
%ADD11C,0.200000*%
%ADD12C,0.300000*%
%ADD13C,0.120000*%
%ADD14C,1.200000*%
%ADD15C,0.650000*%
%ADD16O,2.100000X1.000000*%
%ADD17O,1.900000X1.000000*%
%ADD18O,1.200000X1.000000*%
%ADD19R,1.700000X1.700000*%
%ADD20O,1.700000X1.700000*%
G04 APERTURE END LIST*
D10*
X125886190Y-97367619D02*
X126386190Y-97534285D01*
X125886190Y-97700952D01*
X126362380Y-98058095D02*
X126386190Y-98010476D01*
X126386190Y-97915238D01*
X126362380Y-97867619D01*
X126314761Y-97843809D01*
X126124285Y-97843809D01*
X126076666Y-97867619D01*
X126052857Y-97915238D01*
X126052857Y-98010476D01*
X126076666Y-98058095D01*
X126124285Y-98081904D01*
X126171904Y-98081904D01*
X126219523Y-97843809D01*
X126386190Y-98296190D02*
X126052857Y-98296190D01*
X126148095Y-98296190D02*
X126100476Y-98320000D01*
X126076666Y-98343809D01*
X126052857Y-98391428D01*
X126052857Y-98439047D01*
X126362380Y-98581904D02*
X126386190Y-98629523D01*
X126386190Y-98724761D01*
X126362380Y-98772380D01*
X126314761Y-98796190D01*
X126290952Y-98796190D01*
X126243333Y-98772380D01*
X126219523Y-98724761D01*
X126219523Y-98653333D01*
X126195714Y-98605714D01*
X126148095Y-98581904D01*
X126124285Y-98581904D01*
X126076666Y-98605714D01*
X126052857Y-98653333D01*
X126052857Y-98724761D01*
X126076666Y-98772380D01*
X126386190Y-99010476D02*
X126052857Y-99010476D01*
X125886190Y-99010476D02*
X125910000Y-98986666D01*
X125933809Y-99010476D01*
X125910000Y-99034285D01*
X125886190Y-99010476D01*
X125933809Y-99010476D01*
X126386190Y-99320000D02*
X126362380Y-99272380D01*
X126338571Y-99248571D01*
X126290952Y-99224761D01*
X126148095Y-99224761D01*
X126100476Y-99248571D01*
X126076666Y-99272380D01*
X126052857Y-99320000D01*
X126052857Y-99391428D01*
X126076666Y-99439047D01*
X126100476Y-99462857D01*
X126148095Y-99486666D01*
X126290952Y-99486666D01*
X126338571Y-99462857D01*
X126362380Y-99439047D01*
X126386190Y-99391428D01*
X126386190Y-99320000D01*
X126052857Y-99700952D02*
X126386190Y-99700952D01*
X126100476Y-99700952D02*
X126076666Y-99724761D01*
X126052857Y-99772380D01*
X126052857Y-99843809D01*
X126076666Y-99891428D01*
X126124285Y-99915238D01*
X126386190Y-99915238D01*
X126386190Y-100796190D02*
X126386190Y-100510476D01*
X126386190Y-100653333D02*
X125886190Y-100653333D01*
X125957619Y-100605714D01*
X126005238Y-100558095D01*
X126029047Y-100510476D01*
X126338571Y-101010476D02*
X126362380Y-101034285D01*
X126386190Y-101010476D01*
X126362380Y-100986666D01*
X126338571Y-101010476D01*
X126386190Y-101010476D01*
X125886190Y-101343809D02*
X125886190Y-101391428D01*
X125910000Y-101439047D01*
X125933809Y-101462857D01*
X125981428Y-101486666D01*
X126076666Y-101510476D01*
X126195714Y-101510476D01*
X126290952Y-101486666D01*
X126338571Y-101462857D01*
X126362380Y-101439047D01*
X126386190Y-101391428D01*
X126386190Y-101343809D01*
X126362380Y-101296190D01*
X126338571Y-101272380D01*
X126290952Y-101248571D01*
X126195714Y-101224761D01*
X126076666Y-101224761D01*
X125981428Y-101248571D01*
X125933809Y-101272380D01*
X125910000Y-101296190D01*
X125886190Y-101343809D01*
X126338571Y-101724761D02*
X126362380Y-101748571D01*
X126386190Y-101724761D01*
X126362380Y-101700952D01*
X126338571Y-101724761D01*
X126386190Y-101724761D01*
X125886190Y-102058095D02*
X125886190Y-102105714D01*
X125910000Y-102153333D01*
X125933809Y-102177142D01*
X125981428Y-102200952D01*
X126076666Y-102224761D01*
X126195714Y-102224761D01*
X126290952Y-102200952D01*
X126338571Y-102177142D01*
X126362380Y-102153333D01*
X126386190Y-102105714D01*
X126386190Y-102058095D01*
X126362380Y-102010476D01*
X126338571Y-101986666D01*
X126290952Y-101962857D01*
X126195714Y-101939047D01*
X126076666Y-101939047D01*
X125981428Y-101962857D01*
X125933809Y-101986666D01*
X125910000Y-102010476D01*
X125886190Y-102058095D01*
X140904266Y-104849666D02*
X140904266Y-105183000D01*
X141104266Y-104783000D02*
X140404266Y-105016333D01*
X141104266Y-105249666D01*
X141037600Y-105883000D02*
X141070933Y-105849666D01*
X141104266Y-105749666D01*
X141104266Y-105683000D01*
X141070933Y-105583000D01*
X141004266Y-105516333D01*
X140937600Y-105483000D01*
X140804266Y-105449666D01*
X140704266Y-105449666D01*
X140570933Y-105483000D01*
X140504266Y-105516333D01*
X140437600Y-105583000D01*
X140404266Y-105683000D01*
X140404266Y-105749666D01*
X140437600Y-105849666D01*
X140470933Y-105883000D01*
X140404266Y-106083000D02*
X140404266Y-106483000D01*
X141104266Y-106283000D02*
X140404266Y-106283000D01*
X140637600Y-106683000D02*
X140637600Y-107183000D01*
X140337600Y-106883000D02*
X141237600Y-106683000D01*
X140937600Y-107116333D02*
X140937600Y-106616333D01*
X141237600Y-106916333D02*
X140337600Y-107116333D01*
D11*
X174067485Y-106603618D02*
X174029390Y-106641713D01*
X173991295Y-106755999D01*
X173991295Y-106832189D01*
X174029390Y-106946475D01*
X174105580Y-107022665D01*
X174181771Y-107060761D01*
X174334152Y-107098856D01*
X174448438Y-107098856D01*
X174600819Y-107060761D01*
X174677009Y-107022665D01*
X174753200Y-106946475D01*
X174791295Y-106832189D01*
X174791295Y-106755999D01*
X174753200Y-106641713D01*
X174715104Y-106603618D01*
X174791295Y-106375046D02*
X174791295Y-105917903D01*
X173991295Y-106146475D02*
X174791295Y-106146475D01*
X174029390Y-105689332D02*
X173991295Y-105575046D01*
X173991295Y-105384570D01*
X174029390Y-105308380D01*
X174067485Y-105270284D01*
X174143676Y-105232189D01*
X174219866Y-105232189D01*
X174296057Y-105270284D01*
X174334152Y-105308380D01*
X174372247Y-105384570D01*
X174410342Y-105536951D01*
X174448438Y-105613142D01*
X174486533Y-105651237D01*
X174562723Y-105689332D01*
X174638914Y-105689332D01*
X174715104Y-105651237D01*
X174753200Y-105613142D01*
X174791295Y-105536951D01*
X174791295Y-105346475D01*
X174753200Y-105232189D01*
X143711904Y-93219570D02*
X143330952Y-92952904D01*
X143711904Y-92762428D02*
X142911904Y-92762428D01*
X142911904Y-93067189D01*
X142950000Y-93143380D01*
X142988095Y-93181475D01*
X143064285Y-93219570D01*
X143178571Y-93219570D01*
X143254761Y-93181475D01*
X143292857Y-93143380D01*
X143330952Y-93067189D01*
X143330952Y-92762428D01*
X143711904Y-93562428D02*
X142911904Y-93562428D01*
X181738095Y-94088095D02*
X182119047Y-94354761D01*
X181738095Y-94545238D02*
X182538095Y-94545238D01*
X182538095Y-94240476D01*
X182500000Y-94164285D01*
X182461904Y-94126190D01*
X182385714Y-94088095D01*
X182271428Y-94088095D01*
X182195238Y-94126190D01*
X182157142Y-94164285D01*
X182119047Y-94240476D01*
X182119047Y-94545238D01*
X181776190Y-93783333D02*
X181738095Y-93669047D01*
X181738095Y-93478571D01*
X181776190Y-93402380D01*
X181814285Y-93364285D01*
X181890476Y-93326190D01*
X181966666Y-93326190D01*
X182042857Y-93364285D01*
X182080952Y-93402380D01*
X182119047Y-93478571D01*
X182157142Y-93630952D01*
X182195238Y-93707142D01*
X182233333Y-93745238D01*
X182309523Y-93783333D01*
X182385714Y-93783333D01*
X182461904Y-93745238D01*
X182500000Y-93707142D01*
X182538095Y-93630952D01*
X182538095Y-93440476D01*
X182500000Y-93326190D01*
X182538095Y-93097619D02*
X182538095Y-92640476D01*
X181738095Y-92869047D02*
X182538095Y-92869047D01*
D10*
X183105833Y-99563333D02*
X182010595Y-99563333D01*
X183105833Y-99849047D02*
X182010595Y-99849047D01*
X182534404Y-100182380D02*
X181915357Y-100182380D01*
X183105833Y-99230000D02*
X183105833Y-99944285D01*
X182534404Y-99039523D02*
X182534404Y-100182380D01*
X183105833Y-99230000D02*
X182010595Y-99230000D01*
X182010595Y-99849047D01*
X181867738Y-99944285D02*
X181915357Y-100182380D01*
X181629642Y-99658571D02*
X180391547Y-99658571D01*
X181296309Y-100182380D02*
X181010595Y-100182380D01*
X181010595Y-99420476D02*
X181010595Y-100182380D01*
X181486785Y-99182380D02*
X180534404Y-99182380D01*
X180677261Y-99277619D01*
X181010595Y-99420476D01*
X179677261Y-99277619D02*
X178962976Y-99277619D01*
X180153452Y-99325238D02*
X179772500Y-99325238D01*
X180105833Y-100182380D02*
X179962976Y-100182380D01*
X179915357Y-99039523D02*
X179915357Y-100182380D01*
X179343928Y-99039523D02*
X179343928Y-99563333D01*
X179582023Y-99563333D02*
X179486785Y-99801428D01*
X179248690Y-100039523D01*
X178915357Y-100182380D01*
X179677261Y-99563333D02*
X179010595Y-99563333D01*
X179105833Y-99753809D01*
X179343928Y-99991904D01*
X179772500Y-100182380D01*
X179724880Y-99658571D02*
X180153452Y-99753809D01*
X178629642Y-99372857D02*
X177486785Y-99372857D01*
X178058214Y-99039523D02*
X178058214Y-100182380D01*
X178010595Y-99468095D02*
X177534404Y-99991904D01*
X178105833Y-99372857D02*
X177867738Y-99610952D01*
X178486785Y-99896666D02*
X178677261Y-99991904D01*
X178058214Y-99325238D02*
X178153452Y-99563333D01*
X178534404Y-99944285D01*
X177867738Y-99087142D02*
X177677261Y-99182380D01*
X176820119Y-99230000D02*
X175962976Y-99230000D01*
X177201071Y-99420476D02*
X176820119Y-99420476D01*
X176724880Y-99515714D02*
X176058214Y-99515714D01*
X176724880Y-99706190D02*
X176058214Y-99706190D01*
X176820119Y-99849047D02*
X175962976Y-99849047D01*
X176391547Y-100182380D02*
X176201071Y-100182380D01*
X177010595Y-99039523D02*
X177010595Y-100182380D01*
X176724880Y-99372857D02*
X176724880Y-99706190D01*
X176391547Y-99039523D02*
X176391547Y-99706190D01*
X176201071Y-99706190D02*
X176201071Y-100182380D01*
X176724880Y-99372857D02*
X176058214Y-99372857D01*
X176058214Y-99706190D01*
X176629642Y-99944285D02*
X176486785Y-100087142D01*
X176248690Y-99087142D02*
X176058214Y-99134761D01*
X175439166Y-100134761D02*
X174724880Y-100134761D01*
X175677261Y-99182380D02*
X175677261Y-99325238D01*
X175439166Y-99801428D02*
X175439166Y-100182380D01*
X175105833Y-99039523D02*
X175105833Y-99182380D01*
X175582023Y-99849047D02*
X174724880Y-99849047D01*
X174724880Y-100182380D01*
X175677261Y-99182380D02*
X174534404Y-99182380D01*
X174534404Y-99325238D01*
X175296309Y-99277619D02*
X175486785Y-99468095D01*
X175677261Y-99563333D01*
X175343928Y-99372857D02*
X175201071Y-99563333D01*
X174962976Y-99706190D01*
X174486785Y-99849047D01*
X175343928Y-99372857D02*
X174772500Y-99372857D01*
X174962976Y-99563333D01*
X175296309Y-99753809D01*
X175724880Y-99849047D01*
D11*
X181611095Y-106603618D02*
X181992047Y-106870285D01*
X181611095Y-107060761D02*
X182411095Y-107060761D01*
X182411095Y-106755999D01*
X182373000Y-106679808D01*
X182334904Y-106641713D01*
X182258714Y-106603618D01*
X182144428Y-106603618D01*
X182068238Y-106641713D01*
X182030142Y-106679808D01*
X181992047Y-106755999D01*
X181992047Y-107060761D01*
X182411095Y-106336951D02*
X181611095Y-105803618D01*
X182411095Y-105803618D02*
X181611095Y-106336951D01*
X181611095Y-105498856D02*
X182411095Y-105498856D01*
X182411095Y-105308380D01*
X182373000Y-105194094D01*
X182296809Y-105117904D01*
X182220619Y-105079808D01*
X182068238Y-105041713D01*
X181953952Y-105041713D01*
X181801571Y-105079808D01*
X181725380Y-105117904D01*
X181649190Y-105194094D01*
X181611095Y-105308380D01*
X181611095Y-105498856D01*
D10*
X196353809Y-105212380D02*
X195949047Y-105212380D01*
X195901428Y-105188571D01*
X195877619Y-105164761D01*
X195853809Y-105117142D01*
X195853809Y-105021904D01*
X195877619Y-104974285D01*
X195901428Y-104950476D01*
X195949047Y-104926666D01*
X196353809Y-104926666D01*
X195853809Y-104688571D02*
X196353809Y-104688571D01*
X195853809Y-104450476D02*
X196353809Y-104450476D01*
X195853809Y-104164761D01*
X196353809Y-104164761D01*
X195853809Y-103926666D02*
X196353809Y-103926666D01*
X196353809Y-103593333D02*
X196353809Y-103498095D01*
X196330000Y-103450476D01*
X196282380Y-103402857D01*
X196187142Y-103379047D01*
X196020476Y-103379047D01*
X195925238Y-103402857D01*
X195877619Y-103450476D01*
X195853809Y-103498095D01*
X195853809Y-103593333D01*
X195877619Y-103640952D01*
X195925238Y-103688571D01*
X196020476Y-103712380D01*
X196187142Y-103712380D01*
X196282380Y-103688571D01*
X196330000Y-103640952D01*
X196353809Y-103593333D01*
X196044285Y-103164761D02*
X196044285Y-102783809D01*
X196353809Y-102545714D02*
X195949047Y-102545714D01*
X195901428Y-102521904D01*
X195877619Y-102498095D01*
X195853809Y-102450476D01*
X195853809Y-102355238D01*
X195877619Y-102307619D01*
X195901428Y-102283809D01*
X195949047Y-102260000D01*
X196353809Y-102260000D01*
X195877619Y-102045714D02*
X195853809Y-101974285D01*
X195853809Y-101855238D01*
X195877619Y-101807619D01*
X195901428Y-101783809D01*
X195949047Y-101760000D01*
X195996666Y-101760000D01*
X196044285Y-101783809D01*
X196068095Y-101807619D01*
X196091904Y-101855238D01*
X196115714Y-101950476D01*
X196139523Y-101998095D01*
X196163333Y-102021904D01*
X196210952Y-102045714D01*
X196258571Y-102045714D01*
X196306190Y-102021904D01*
X196330000Y-101998095D01*
X196353809Y-101950476D01*
X196353809Y-101831428D01*
X196330000Y-101760000D01*
X196115714Y-101379047D02*
X196091904Y-101307619D01*
X196068095Y-101283809D01*
X196020476Y-101260000D01*
X195949047Y-101260000D01*
X195901428Y-101283809D01*
X195877619Y-101307619D01*
X195853809Y-101355238D01*
X195853809Y-101545714D01*
X196353809Y-101545714D01*
X196353809Y-101379047D01*
X196330000Y-101331428D01*
X196306190Y-101307619D01*
X196258571Y-101283809D01*
X196210952Y-101283809D01*
X196163333Y-101307619D01*
X196139523Y-101331428D01*
X196115714Y-101379047D01*
X196115714Y-101545714D01*
X196044285Y-101045714D02*
X196044285Y-100664761D01*
X196353809Y-100426666D02*
X195949047Y-100426666D01*
X195901428Y-100402857D01*
X195877619Y-100379047D01*
X195853809Y-100331428D01*
X195853809Y-100236190D01*
X195877619Y-100188571D01*
X195901428Y-100164761D01*
X195949047Y-100140952D01*
X196353809Y-100140952D01*
X195996666Y-99926666D02*
X195996666Y-99688571D01*
X195853809Y-99974285D02*
X196353809Y-99807619D01*
X195853809Y-99640952D01*
X195853809Y-99188571D02*
X196091904Y-99355238D01*
X195853809Y-99474285D02*
X196353809Y-99474285D01*
X196353809Y-99283809D01*
X196330000Y-99236190D01*
X196306190Y-99212380D01*
X196258571Y-99188571D01*
X196187142Y-99188571D01*
X196139523Y-99212380D01*
X196115714Y-99236190D01*
X196091904Y-99283809D01*
X196091904Y-99474285D01*
X196353809Y-99045714D02*
X196353809Y-98760000D01*
X195853809Y-98902857D02*
X196353809Y-98902857D01*
X196044285Y-98593333D02*
X196044285Y-98212380D01*
X195901428Y-97688571D02*
X195877619Y-97712380D01*
X195853809Y-97783809D01*
X195853809Y-97831428D01*
X195877619Y-97902857D01*
X195925238Y-97950476D01*
X195972857Y-97974285D01*
X196068095Y-97998095D01*
X196139523Y-97998095D01*
X196234761Y-97974285D01*
X196282380Y-97950476D01*
X196330000Y-97902857D01*
X196353809Y-97831428D01*
X196353809Y-97783809D01*
X196330000Y-97712380D01*
X196306190Y-97688571D01*
X195901428Y-97188571D02*
X195877619Y-97212380D01*
X195853809Y-97283809D01*
X195853809Y-97331428D01*
X195877619Y-97402857D01*
X195925238Y-97450476D01*
X195972857Y-97474285D01*
X196068095Y-97498095D01*
X196139523Y-97498095D01*
X196234761Y-97474285D01*
X196282380Y-97450476D01*
X196330000Y-97402857D01*
X196353809Y-97331428D01*
X196353809Y-97283809D01*
X196330000Y-97212380D01*
X196306190Y-97188571D01*
X195853809Y-96974285D02*
X196353809Y-96974285D01*
X196353809Y-96783809D01*
X196330000Y-96736190D01*
X196306190Y-96712380D01*
X196258571Y-96688571D01*
X196187142Y-96688571D01*
X196139523Y-96712380D01*
X196115714Y-96736190D01*
X196091904Y-96783809D01*
X196091904Y-96974285D01*
X196306190Y-96498095D02*
X196330000Y-96474285D01*
X196353809Y-96426666D01*
X196353809Y-96307619D01*
X196330000Y-96260000D01*
X196306190Y-96236190D01*
X196258571Y-96212380D01*
X196210952Y-96212380D01*
X196139523Y-96236190D01*
X195853809Y-96521904D01*
X195853809Y-96212380D01*
X195853809Y-95736190D02*
X195853809Y-96021904D01*
X195853809Y-95879047D02*
X196353809Y-95879047D01*
X196282380Y-95926666D01*
X196234761Y-95974285D01*
X196210952Y-96021904D01*
X196353809Y-95426666D02*
X196353809Y-95379047D01*
X196330000Y-95331428D01*
X196306190Y-95307619D01*
X196258571Y-95283809D01*
X196163333Y-95260000D01*
X196044285Y-95260000D01*
X195949047Y-95283809D01*
X195901428Y-95307619D01*
X195877619Y-95331428D01*
X195853809Y-95379047D01*
X195853809Y-95426666D01*
X195877619Y-95474285D01*
X195901428Y-95498095D01*
X195949047Y-95521904D01*
X196044285Y-95545714D01*
X196163333Y-95545714D01*
X196258571Y-95521904D01*
X196306190Y-95498095D01*
X196330000Y-95474285D01*
X196353809Y-95426666D01*
X196306190Y-95069523D02*
X196330000Y-95045714D01*
X196353809Y-94998095D01*
X196353809Y-94879047D01*
X196330000Y-94831428D01*
X196306190Y-94807619D01*
X196258571Y-94783809D01*
X196210952Y-94783809D01*
X196139523Y-94807619D01*
X195853809Y-95093333D01*
X195853809Y-94783809D01*
D11*
X184938095Y-107109523D02*
X184938095Y-106652380D01*
X184138095Y-106880952D02*
X184938095Y-106880952D01*
X184938095Y-106461904D02*
X184138095Y-105928571D01*
X184938095Y-105928571D02*
X184138095Y-106461904D01*
X184138095Y-105623809D02*
X184938095Y-105623809D01*
X184938095Y-105433333D01*
X184900000Y-105319047D01*
X184823809Y-105242857D01*
X184747619Y-105204761D01*
X184595238Y-105166666D01*
X184480952Y-105166666D01*
X184328571Y-105204761D01*
X184252380Y-105242857D01*
X184176190Y-105319047D01*
X184138095Y-105433333D01*
X184138095Y-105623809D01*
X166647476Y-98371095D02*
X166380810Y-98752047D01*
X166190333Y-98371095D02*
X166190333Y-99171095D01*
X166495095Y-99171095D01*
X166571286Y-99133000D01*
X166609381Y-99094904D01*
X166647476Y-99018714D01*
X166647476Y-98904428D01*
X166609381Y-98828238D01*
X166571286Y-98790142D01*
X166495095Y-98752047D01*
X166190333Y-98752047D01*
X166914143Y-99171095D02*
X167447476Y-98371095D01*
X167447476Y-99171095D02*
X166914143Y-98371095D01*
X167752238Y-98371095D02*
X167752238Y-99171095D01*
X167942714Y-99171095D01*
X168057000Y-99133000D01*
X168133190Y-99056809D01*
X168171286Y-98980619D01*
X168209381Y-98828238D01*
X168209381Y-98713952D01*
X168171286Y-98561571D01*
X168133190Y-98485380D01*
X168057000Y-98409190D01*
X167942714Y-98371095D01*
X167752238Y-98371095D01*
X153070304Y-92686237D02*
X153070304Y-93181475D01*
X153375066Y-92914809D01*
X153375066Y-93029094D01*
X153413161Y-93105285D01*
X153451257Y-93143380D01*
X153527447Y-93181475D01*
X153717923Y-93181475D01*
X153794114Y-93143380D01*
X153832209Y-93105285D01*
X153870304Y-93029094D01*
X153870304Y-92800523D01*
X153832209Y-92724332D01*
X153794114Y-92686237D01*
X153794114Y-93524332D02*
X153832209Y-93562428D01*
X153870304Y-93524332D01*
X153832209Y-93486237D01*
X153794114Y-93524332D01*
X153870304Y-93524332D01*
X153070304Y-93829094D02*
X153070304Y-94324332D01*
X153375066Y-94057666D01*
X153375066Y-94171951D01*
X153413161Y-94248142D01*
X153451257Y-94286237D01*
X153527447Y-94324332D01*
X153717923Y-94324332D01*
X153794114Y-94286237D01*
X153832209Y-94248142D01*
X153870304Y-94171951D01*
X153870304Y-93943380D01*
X153832209Y-93867190D01*
X153794114Y-93829094D01*
X153070304Y-94552904D02*
X153870304Y-94819570D01*
X153070304Y-95086237D01*
X146251904Y-105180618D02*
X145451904Y-105180618D01*
X145451904Y-105371094D01*
X145490000Y-105485380D01*
X145566190Y-105561570D01*
X145642380Y-105599665D01*
X145794761Y-105637761D01*
X145909047Y-105637761D01*
X146061428Y-105599665D01*
X146137619Y-105561570D01*
X146213809Y-105485380D01*
X146251904Y-105371094D01*
X146251904Y-105180618D01*
X145451904Y-105866332D02*
X145451904Y-106323475D01*
X146251904Y-106094904D02*
X145451904Y-106094904D01*
X146251904Y-107047284D02*
X145870952Y-106780618D01*
X146251904Y-106590142D02*
X145451904Y-106590142D01*
X145451904Y-106894904D01*
X145490000Y-106971094D01*
X145528095Y-107009189D01*
X145604285Y-107047284D01*
X145718571Y-107047284D01*
X145794761Y-107009189D01*
X145832857Y-106971094D01*
X145870952Y-106894904D01*
X145870952Y-106590142D01*
X174103095Y-94660476D02*
X174903095Y-94660476D01*
X174903095Y-94470000D01*
X174865000Y-94355714D01*
X174788809Y-94279523D01*
X174712619Y-94241428D01*
X174560238Y-94203333D01*
X174445952Y-94203333D01*
X174293571Y-94241428D01*
X174217380Y-94279523D01*
X174141190Y-94355714D01*
X174103095Y-94470000D01*
X174103095Y-94660476D01*
X174141190Y-93898571D02*
X174103095Y-93784285D01*
X174103095Y-93593809D01*
X174141190Y-93517619D01*
X174179285Y-93479523D01*
X174255476Y-93441428D01*
X174331666Y-93441428D01*
X174407857Y-93479523D01*
X174445952Y-93517619D01*
X174484047Y-93593809D01*
X174522142Y-93746190D01*
X174560238Y-93822380D01*
X174598333Y-93860476D01*
X174674523Y-93898571D01*
X174750714Y-93898571D01*
X174826904Y-93860476D01*
X174865000Y-93822380D01*
X174903095Y-93746190D01*
X174903095Y-93555714D01*
X174865000Y-93441428D01*
X174103095Y-92641428D02*
X174484047Y-92908095D01*
X174103095Y-93098571D02*
X174903095Y-93098571D01*
X174903095Y-92793809D01*
X174865000Y-92717619D01*
X174826904Y-92679523D01*
X174750714Y-92641428D01*
X174636428Y-92641428D01*
X174560238Y-92679523D01*
X174522142Y-92717619D01*
X174484047Y-92793809D01*
X174484047Y-93098571D01*
X150570000Y-105371095D02*
X150531904Y-105294904D01*
X150531904Y-105180619D01*
X150570000Y-105066333D01*
X150646190Y-104990142D01*
X150722380Y-104952047D01*
X150874761Y-104913952D01*
X150989047Y-104913952D01*
X151141428Y-104952047D01*
X151217619Y-104990142D01*
X151293809Y-105066333D01*
X151331904Y-105180619D01*
X151331904Y-105256809D01*
X151293809Y-105371095D01*
X151255714Y-105409190D01*
X150989047Y-105409190D01*
X150989047Y-105256809D01*
X151331904Y-105752047D02*
X150531904Y-105752047D01*
X151331904Y-106209190D01*
X150531904Y-106209190D01*
X151331904Y-106590142D02*
X150531904Y-106590142D01*
X150531904Y-106780619D01*
X150570000Y-106894904D01*
X150646190Y-106971095D01*
X150722380Y-107009190D01*
X150874761Y-107047285D01*
X150989047Y-107047285D01*
X151141428Y-107009190D01*
X151217619Y-106971095D01*
X151293809Y-106894904D01*
X151331904Y-106780619D01*
X151331904Y-106590142D01*
X154248095Y-104331904D02*
X154514761Y-103950952D01*
X154705238Y-104331904D02*
X154705238Y-103531904D01*
X154400476Y-103531904D01*
X154324285Y-103570000D01*
X154286190Y-103608095D01*
X154248095Y-103684285D01*
X154248095Y-103798571D01*
X154286190Y-103874761D01*
X154324285Y-103912857D01*
X154400476Y-103950952D01*
X154705238Y-103950952D01*
X154019523Y-103531904D02*
X153562380Y-103531904D01*
X153790952Y-104331904D02*
X153790952Y-103531904D01*
X153333809Y-104293809D02*
X153219523Y-104331904D01*
X153029047Y-104331904D01*
X152952857Y-104293809D01*
X152914761Y-104255714D01*
X152876666Y-104179523D01*
X152876666Y-104103333D01*
X152914761Y-104027142D01*
X152952857Y-103989047D01*
X153029047Y-103950952D01*
X153181428Y-103912857D01*
X153257619Y-103874761D01*
X153295714Y-103836666D01*
X153333809Y-103760476D01*
X153333809Y-103684285D01*
X153295714Y-103608095D01*
X153257619Y-103570000D01*
X153181428Y-103531904D01*
X152990952Y-103531904D01*
X152876666Y-103570000D01*
D10*
X124776190Y-95093809D02*
X125180952Y-95093809D01*
X125228571Y-95117619D01*
X125252380Y-95141428D01*
X125276190Y-95189047D01*
X125276190Y-95284285D01*
X125252380Y-95331904D01*
X125228571Y-95355714D01*
X125180952Y-95379523D01*
X124776190Y-95379523D01*
X125276190Y-95617619D02*
X124776190Y-95617619D01*
X125276190Y-95855714D02*
X124776190Y-95855714D01*
X125276190Y-96141428D01*
X124776190Y-96141428D01*
X125276190Y-96379523D02*
X124776190Y-96379523D01*
X124776190Y-96712857D02*
X124776190Y-96808095D01*
X124800000Y-96855714D01*
X124847619Y-96903333D01*
X124942857Y-96927142D01*
X125109523Y-96927142D01*
X125204761Y-96903333D01*
X125252380Y-96855714D01*
X125276190Y-96808095D01*
X125276190Y-96712857D01*
X125252380Y-96665238D01*
X125204761Y-96617619D01*
X125109523Y-96593809D01*
X124942857Y-96593809D01*
X124847619Y-96617619D01*
X124800000Y-96665238D01*
X124776190Y-96712857D01*
X125085714Y-97141428D02*
X125085714Y-97522380D01*
X124776190Y-97760476D02*
X125180952Y-97760476D01*
X125228571Y-97784285D01*
X125252380Y-97808095D01*
X125276190Y-97855714D01*
X125276190Y-97950952D01*
X125252380Y-97998571D01*
X125228571Y-98022380D01*
X125180952Y-98046190D01*
X124776190Y-98046190D01*
X125252380Y-98260476D02*
X125276190Y-98331904D01*
X125276190Y-98450952D01*
X125252380Y-98498571D01*
X125228571Y-98522380D01*
X125180952Y-98546190D01*
X125133333Y-98546190D01*
X125085714Y-98522380D01*
X125061904Y-98498571D01*
X125038095Y-98450952D01*
X125014285Y-98355714D01*
X124990476Y-98308095D01*
X124966666Y-98284285D01*
X124919047Y-98260476D01*
X124871428Y-98260476D01*
X124823809Y-98284285D01*
X124800000Y-98308095D01*
X124776190Y-98355714D01*
X124776190Y-98474761D01*
X124800000Y-98546190D01*
X125014285Y-98927142D02*
X125038095Y-98998571D01*
X125061904Y-99022380D01*
X125109523Y-99046190D01*
X125180952Y-99046190D01*
X125228571Y-99022380D01*
X125252380Y-98998571D01*
X125276190Y-98950952D01*
X125276190Y-98760476D01*
X124776190Y-98760476D01*
X124776190Y-98927142D01*
X124800000Y-98974761D01*
X124823809Y-98998571D01*
X124871428Y-99022380D01*
X124919047Y-99022380D01*
X124966666Y-98998571D01*
X124990476Y-98974761D01*
X125014285Y-98927142D01*
X125014285Y-98760476D01*
X125085714Y-99260476D02*
X125085714Y-99641428D01*
X124776190Y-99879523D02*
X125180952Y-99879523D01*
X125228571Y-99903333D01*
X125252380Y-99927142D01*
X125276190Y-99974761D01*
X125276190Y-100070000D01*
X125252380Y-100117619D01*
X125228571Y-100141428D01*
X125180952Y-100165238D01*
X124776190Y-100165238D01*
X125133333Y-100379523D02*
X125133333Y-100617619D01*
X125276190Y-100331904D02*
X124776190Y-100498571D01*
X125276190Y-100665238D01*
X125276190Y-101117619D02*
X125038095Y-100950952D01*
X125276190Y-100831904D02*
X124776190Y-100831904D01*
X124776190Y-101022380D01*
X124800000Y-101070000D01*
X124823809Y-101093809D01*
X124871428Y-101117619D01*
X124942857Y-101117619D01*
X124990476Y-101093809D01*
X125014285Y-101070000D01*
X125038095Y-101022380D01*
X125038095Y-100831904D01*
X124776190Y-101260476D02*
X124776190Y-101546190D01*
X125276190Y-101403333D02*
X124776190Y-101403333D01*
X125085714Y-101712857D02*
X125085714Y-102093809D01*
X125228571Y-102617619D02*
X125252380Y-102593809D01*
X125276190Y-102522380D01*
X125276190Y-102474761D01*
X125252380Y-102403333D01*
X125204761Y-102355714D01*
X125157142Y-102331904D01*
X125061904Y-102308095D01*
X124990476Y-102308095D01*
X124895238Y-102331904D01*
X124847619Y-102355714D01*
X124800000Y-102403333D01*
X124776190Y-102474761D01*
X124776190Y-102522380D01*
X124800000Y-102593809D01*
X124823809Y-102617619D01*
X125276190Y-102831904D02*
X124776190Y-102831904D01*
X125014285Y-102831904D02*
X125014285Y-103117619D01*
X125276190Y-103117619D02*
X124776190Y-103117619D01*
X124776190Y-103308095D02*
X124776190Y-103617619D01*
X124966666Y-103450952D01*
X124966666Y-103522380D01*
X124990476Y-103570000D01*
X125014285Y-103593809D01*
X125061904Y-103617619D01*
X125180952Y-103617619D01*
X125228571Y-103593809D01*
X125252380Y-103570000D01*
X125276190Y-103522380D01*
X125276190Y-103379523D01*
X125252380Y-103331904D01*
X125228571Y-103308095D01*
X124942857Y-104046190D02*
X125276190Y-104046190D01*
X124752380Y-103927142D02*
X125109523Y-103808095D01*
X125109523Y-104117619D01*
X124776190Y-104260476D02*
X124776190Y-104570000D01*
X124966666Y-104403333D01*
X124966666Y-104474761D01*
X124990476Y-104522380D01*
X125014285Y-104546190D01*
X125061904Y-104570000D01*
X125180952Y-104570000D01*
X125228571Y-104546190D01*
X125252380Y-104522380D01*
X125276190Y-104474761D01*
X125276190Y-104331904D01*
X125252380Y-104284285D01*
X125228571Y-104260476D01*
D11*
X146260304Y-93219571D02*
X145879352Y-92952905D01*
X146260304Y-92762428D02*
X145460304Y-92762428D01*
X145460304Y-93067190D01*
X145498400Y-93143381D01*
X145536495Y-93181476D01*
X145612685Y-93219571D01*
X145726971Y-93219571D01*
X145803161Y-93181476D01*
X145841257Y-93143381D01*
X145879352Y-93067190D01*
X145879352Y-92762428D01*
X145460304Y-93448143D02*
X145460304Y-93905286D01*
X146260304Y-93676714D02*
X145460304Y-93676714D01*
X146222209Y-94133857D02*
X146260304Y-94248143D01*
X146260304Y-94438619D01*
X146222209Y-94514809D01*
X146184114Y-94552905D01*
X146107923Y-94591000D01*
X146031733Y-94591000D01*
X145955542Y-94552905D01*
X145917447Y-94514809D01*
X145879352Y-94438619D01*
X145841257Y-94286238D01*
X145803161Y-94210047D01*
X145765066Y-94171952D01*
X145688876Y-94133857D01*
X145612685Y-94133857D01*
X145536495Y-94171952D01*
X145498400Y-94210047D01*
X145460304Y-94286238D01*
X145460304Y-94476714D01*
X145498400Y-94591000D01*
X176660395Y-94531381D02*
X177460395Y-94531381D01*
X177460395Y-94340905D01*
X177422300Y-94226619D01*
X177346109Y-94150429D01*
X177269919Y-94112334D01*
X177117538Y-94074238D01*
X177003252Y-94074238D01*
X176850871Y-94112334D01*
X176774680Y-94150429D01*
X176698490Y-94226619D01*
X176660395Y-94340905D01*
X176660395Y-94531381D01*
X177460395Y-93845667D02*
X177460395Y-93388524D01*
X176660395Y-93617096D02*
X177460395Y-93617096D01*
X176660395Y-92664715D02*
X177041347Y-92931381D01*
X176660395Y-93121857D02*
X177460395Y-93121857D01*
X177460395Y-92817096D01*
X177422300Y-92740905D01*
X177384204Y-92702810D01*
X177308014Y-92664715D01*
X177193728Y-92664715D01*
X177117538Y-92702810D01*
X177079442Y-92740905D01*
X177041347Y-92817096D01*
X177041347Y-93121857D01*
X166342714Y-103471095D02*
X166342714Y-104271095D01*
X166533190Y-104271095D01*
X166647476Y-104233000D01*
X166723666Y-104156809D01*
X166761761Y-104080619D01*
X166799857Y-103928238D01*
X166799857Y-103813952D01*
X166761761Y-103661571D01*
X166723666Y-103585380D01*
X166647476Y-103509190D01*
X166533190Y-103471095D01*
X166342714Y-103471095D01*
X167028428Y-104271095D02*
X167485571Y-104271095D01*
X167257000Y-103471095D02*
X167257000Y-104271095D01*
X168209380Y-103471095D02*
X167942714Y-103852047D01*
X167752238Y-103471095D02*
X167752238Y-104271095D01*
X168057000Y-104271095D01*
X168133190Y-104233000D01*
X168171285Y-104194904D01*
X168209380Y-104118714D01*
X168209380Y-104004428D01*
X168171285Y-103928238D01*
X168133190Y-103890142D01*
X168057000Y-103852047D01*
X167752238Y-103852047D01*
X179200395Y-94709523D02*
X180000395Y-94709523D01*
X180000395Y-94519047D01*
X179962300Y-94404761D01*
X179886109Y-94328571D01*
X179809919Y-94290476D01*
X179657538Y-94252380D01*
X179543252Y-94252380D01*
X179390871Y-94290476D01*
X179314680Y-94328571D01*
X179238490Y-94404761D01*
X179200395Y-94519047D01*
X179200395Y-94709523D01*
X179276585Y-93452380D02*
X179238490Y-93490476D01*
X179200395Y-93604761D01*
X179200395Y-93680952D01*
X179238490Y-93795238D01*
X179314680Y-93871428D01*
X179390871Y-93909523D01*
X179543252Y-93947619D01*
X179657538Y-93947619D01*
X179809919Y-93909523D01*
X179886109Y-93871428D01*
X179962300Y-93795238D01*
X180000395Y-93680952D01*
X180000395Y-93604761D01*
X179962300Y-93490476D01*
X179924204Y-93452380D01*
X179200395Y-93109523D02*
X180000395Y-93109523D01*
X180000395Y-92919047D01*
X179962300Y-92804761D01*
X179886109Y-92728571D01*
X179809919Y-92690476D01*
X179657538Y-92652380D01*
X179543252Y-92652380D01*
X179390871Y-92690476D01*
X179314680Y-92728571D01*
X179238490Y-92804761D01*
X179200395Y-92919047D01*
X179200395Y-93109523D01*
X179118095Y-106622857D02*
X179499047Y-106889523D01*
X179118095Y-107080000D02*
X179918095Y-107080000D01*
X179918095Y-106775238D01*
X179880000Y-106699047D01*
X179841904Y-106660952D01*
X179765714Y-106622857D01*
X179651428Y-106622857D01*
X179575238Y-106660952D01*
X179537142Y-106699047D01*
X179499047Y-106775238D01*
X179499047Y-107080000D01*
X179118095Y-106280000D02*
X179918095Y-106280000D01*
D10*
X184422619Y-95850952D02*
X184398809Y-95779523D01*
X184398809Y-95660476D01*
X184422619Y-95612857D01*
X184446428Y-95589047D01*
X184494047Y-95565238D01*
X184541666Y-95565238D01*
X184589285Y-95589047D01*
X184613095Y-95612857D01*
X184636904Y-95660476D01*
X184660714Y-95755714D01*
X184684523Y-95803333D01*
X184708333Y-95827142D01*
X184755952Y-95850952D01*
X184803571Y-95850952D01*
X184851190Y-95827142D01*
X184875000Y-95803333D01*
X184898809Y-95755714D01*
X184898809Y-95636666D01*
X184875000Y-95565238D01*
X184898809Y-95350952D02*
X184494047Y-95350952D01*
X184446428Y-95327142D01*
X184422619Y-95303333D01*
X184398809Y-95255714D01*
X184398809Y-95160476D01*
X184422619Y-95112857D01*
X184446428Y-95089047D01*
X184494047Y-95065238D01*
X184898809Y-95065238D01*
X184422619Y-94850952D02*
X184398809Y-94779523D01*
X184398809Y-94660476D01*
X184422619Y-94612857D01*
X184446428Y-94589047D01*
X184494047Y-94565238D01*
X184541666Y-94565238D01*
X184589285Y-94589047D01*
X184613095Y-94612857D01*
X184636904Y-94660476D01*
X184660714Y-94755714D01*
X184684523Y-94803333D01*
X184708333Y-94827142D01*
X184755952Y-94850952D01*
X184803571Y-94850952D01*
X184851190Y-94827142D01*
X184875000Y-94803333D01*
X184898809Y-94755714D01*
X184898809Y-94636666D01*
X184875000Y-94565238D01*
X184398809Y-94350952D02*
X184898809Y-94350952D01*
X184898809Y-94160476D01*
X184875000Y-94112857D01*
X184851190Y-94089047D01*
X184803571Y-94065238D01*
X184732142Y-94065238D01*
X184684523Y-94089047D01*
X184660714Y-94112857D01*
X184636904Y-94160476D01*
X184636904Y-94350952D01*
X184660714Y-93850952D02*
X184660714Y-93684285D01*
X184398809Y-93612857D02*
X184398809Y-93850952D01*
X184898809Y-93850952D01*
X184898809Y-93612857D01*
X184398809Y-93398571D02*
X184898809Y-93398571D01*
X184398809Y-93112857D01*
X184898809Y-93112857D01*
X184398809Y-92874761D02*
X184898809Y-92874761D01*
X184898809Y-92755714D01*
X184875000Y-92684285D01*
X184827380Y-92636666D01*
X184779761Y-92612857D01*
X184684523Y-92589047D01*
X184613095Y-92589047D01*
X184517857Y-92612857D01*
X184470238Y-92636666D01*
X184422619Y-92684285D01*
X184398809Y-92755714D01*
X184398809Y-92874761D01*
D12*
X183041071Y-100992857D02*
X183041071Y-101964285D01*
X182983928Y-102078571D01*
X182926785Y-102135714D01*
X182812500Y-102192857D01*
X182583928Y-102192857D01*
X182469642Y-102135714D01*
X182412500Y-102078571D01*
X182355357Y-101964285D01*
X182355357Y-100992857D01*
X181783928Y-102192857D02*
X181783928Y-101392857D01*
X181783928Y-100992857D02*
X181841071Y-101050000D01*
X181783928Y-101107142D01*
X181726785Y-101050000D01*
X181783928Y-100992857D01*
X181783928Y-101107142D01*
X181212500Y-101392857D02*
X181212500Y-102192857D01*
X181212500Y-101507142D02*
X181155357Y-101450000D01*
X181041071Y-101392857D01*
X180869642Y-101392857D01*
X180755357Y-101450000D01*
X180698214Y-101564285D01*
X180698214Y-102192857D01*
X180126785Y-102192857D02*
X180126785Y-100992857D01*
X179326785Y-100992857D02*
X179098214Y-100992857D01*
X178983928Y-101050000D01*
X178869642Y-101164285D01*
X178812500Y-101392857D01*
X178812500Y-101792857D01*
X178869642Y-102021428D01*
X178983928Y-102135714D01*
X179098214Y-102192857D01*
X179326785Y-102192857D01*
X179441071Y-102135714D01*
X179555357Y-102021428D01*
X179612500Y-101792857D01*
X179612500Y-101392857D01*
X179555357Y-101164285D01*
X179441071Y-101050000D01*
X179326785Y-100992857D01*
X178298214Y-102078571D02*
X178241071Y-102135714D01*
X178298214Y-102192857D01*
X178355357Y-102135714D01*
X178298214Y-102078571D01*
X178298214Y-102192857D01*
X177212500Y-102135714D02*
X177326785Y-102192857D01*
X177555357Y-102192857D01*
X177669642Y-102135714D01*
X177726785Y-102078571D01*
X177783928Y-101964285D01*
X177783928Y-101621428D01*
X177726785Y-101507142D01*
X177669642Y-101450000D01*
X177555357Y-101392857D01*
X177326785Y-101392857D01*
X177212500Y-101450000D01*
X176526785Y-102192857D02*
X176641071Y-102135714D01*
X176698214Y-102078571D01*
X176755357Y-101964285D01*
X176755357Y-101621428D01*
X176698214Y-101507142D01*
X176641071Y-101450000D01*
X176526785Y-101392857D01*
X176355357Y-101392857D01*
X176241071Y-101450000D01*
X176183928Y-101507142D01*
X176126785Y-101621428D01*
X176126785Y-101964285D01*
X176183928Y-102078571D01*
X176241071Y-102135714D01*
X176355357Y-102192857D01*
X176526785Y-102192857D01*
X175612500Y-102192857D02*
X175612500Y-101392857D01*
X175612500Y-101507142D02*
X175555357Y-101450000D01*
X175441071Y-101392857D01*
X175269642Y-101392857D01*
X175155357Y-101450000D01*
X175098214Y-101564285D01*
X175098214Y-102192857D01*
X175098214Y-101564285D02*
X175041071Y-101450000D01*
X174926785Y-101392857D01*
X174755357Y-101392857D01*
X174641071Y-101450000D01*
X174583928Y-101564285D01*
X174583928Y-102192857D01*
D11*
X166350476Y-101748095D02*
X166807619Y-101748095D01*
X166579047Y-100948095D02*
X166579047Y-101748095D01*
X166998095Y-101748095D02*
X167531428Y-100948095D01*
X167531428Y-101748095D02*
X166998095Y-100948095D01*
X167836190Y-100948095D02*
X167836190Y-101748095D01*
X168026666Y-101748095D01*
X168140952Y-101710000D01*
X168217142Y-101633809D01*
X168255238Y-101557619D01*
X168293333Y-101405238D01*
X168293333Y-101290952D01*
X168255238Y-101138571D01*
X168217142Y-101062380D01*
X168140952Y-100986190D01*
X168026666Y-100948095D01*
X167836190Y-100948095D01*
D12*
X142938571Y-100812857D02*
X142938571Y-101784285D01*
X142881428Y-101898571D01*
X142824285Y-101955714D01*
X142710000Y-102012857D01*
X142481428Y-102012857D01*
X142367142Y-101955714D01*
X142310000Y-101898571D01*
X142252857Y-101784285D01*
X142252857Y-100812857D01*
X141681428Y-102012857D02*
X141681428Y-101212857D01*
X141681428Y-100812857D02*
X141738571Y-100870000D01*
X141681428Y-100927142D01*
X141624285Y-100870000D01*
X141681428Y-100812857D01*
X141681428Y-100927142D01*
X141110000Y-101212857D02*
X141110000Y-102012857D01*
X141110000Y-101327142D02*
X141052857Y-101270000D01*
X140938571Y-101212857D01*
X140767142Y-101212857D01*
X140652857Y-101270000D01*
X140595714Y-101384285D01*
X140595714Y-102012857D01*
X140024285Y-102012857D02*
X140024285Y-100812857D01*
X139224285Y-100812857D02*
X138995714Y-100812857D01*
X138881428Y-100870000D01*
X138767142Y-100984285D01*
X138710000Y-101212857D01*
X138710000Y-101612857D01*
X138767142Y-101841428D01*
X138881428Y-101955714D01*
X138995714Y-102012857D01*
X139224285Y-102012857D01*
X139338571Y-101955714D01*
X139452857Y-101841428D01*
X139510000Y-101612857D01*
X139510000Y-101212857D01*
X139452857Y-100984285D01*
X139338571Y-100870000D01*
X139224285Y-100812857D01*
X138195714Y-101898571D02*
X138138571Y-101955714D01*
X138195714Y-102012857D01*
X138252857Y-101955714D01*
X138195714Y-101898571D01*
X138195714Y-102012857D01*
X137110000Y-101955714D02*
X137224285Y-102012857D01*
X137452857Y-102012857D01*
X137567142Y-101955714D01*
X137624285Y-101898571D01*
X137681428Y-101784285D01*
X137681428Y-101441428D01*
X137624285Y-101327142D01*
X137567142Y-101270000D01*
X137452857Y-101212857D01*
X137224285Y-101212857D01*
X137110000Y-101270000D01*
X136424285Y-102012857D02*
X136538571Y-101955714D01*
X136595714Y-101898571D01*
X136652857Y-101784285D01*
X136652857Y-101441428D01*
X136595714Y-101327142D01*
X136538571Y-101270000D01*
X136424285Y-101212857D01*
X136252857Y-101212857D01*
X136138571Y-101270000D01*
X136081428Y-101327142D01*
X136024285Y-101441428D01*
X136024285Y-101784285D01*
X136081428Y-101898571D01*
X136138571Y-101955714D01*
X136252857Y-102012857D01*
X136424285Y-102012857D01*
X135510000Y-102012857D02*
X135510000Y-101212857D01*
X135510000Y-101327142D02*
X135452857Y-101270000D01*
X135338571Y-101212857D01*
X135167142Y-101212857D01*
X135052857Y-101270000D01*
X134995714Y-101384285D01*
X134995714Y-102012857D01*
X134995714Y-101384285D02*
X134938571Y-101270000D01*
X134824285Y-101212857D01*
X134652857Y-101212857D01*
X134538571Y-101270000D01*
X134481428Y-101384285D01*
X134481428Y-102012857D01*
D11*
X154402023Y-101703904D02*
X154668690Y-101322952D01*
X154859166Y-101703904D02*
X154859166Y-100903904D01*
X154554404Y-100903904D01*
X154478213Y-100942000D01*
X154440118Y-100980095D01*
X154402023Y-101056285D01*
X154402023Y-101170571D01*
X154440118Y-101246761D01*
X154478213Y-101284857D01*
X154554404Y-101322952D01*
X154859166Y-101322952D01*
X154135356Y-100903904D02*
X153602023Y-101703904D01*
X153602023Y-100903904D02*
X154135356Y-101703904D01*
X153297261Y-101703904D02*
X153297261Y-100903904D01*
X153106785Y-100903904D01*
X152992499Y-100942000D01*
X152916309Y-101018190D01*
X152878213Y-101094380D01*
X152840118Y-101246761D01*
X152840118Y-101361047D01*
X152878213Y-101513428D01*
X152916309Y-101589619D01*
X152992499Y-101665809D01*
X153106785Y-101703904D01*
X153297261Y-101703904D01*
D10*
X143003333Y-99383333D02*
X141908095Y-99383333D01*
X143003333Y-99669047D02*
X141908095Y-99669047D01*
X142431904Y-100002380D02*
X141812857Y-100002380D01*
X143003333Y-99050000D02*
X143003333Y-99764285D01*
X142431904Y-98859523D02*
X142431904Y-100002380D01*
X143003333Y-99050000D02*
X141908095Y-99050000D01*
X141908095Y-99669047D01*
X141765238Y-99764285D02*
X141812857Y-100002380D01*
X141527142Y-99478571D02*
X140289047Y-99478571D01*
X141193809Y-100002380D02*
X140908095Y-100002380D01*
X140908095Y-99240476D02*
X140908095Y-100002380D01*
X141384285Y-99002380D02*
X140431904Y-99002380D01*
X140574761Y-99097619D01*
X140908095Y-99240476D01*
X139574761Y-99097619D02*
X138860476Y-99097619D01*
X140050952Y-99145238D02*
X139670000Y-99145238D01*
X140003333Y-100002380D02*
X139860476Y-100002380D01*
X139812857Y-98859523D02*
X139812857Y-100002380D01*
X139241428Y-98859523D02*
X139241428Y-99383333D01*
X139479523Y-99383333D02*
X139384285Y-99621428D01*
X139146190Y-99859523D01*
X138812857Y-100002380D01*
X139574761Y-99383333D02*
X138908095Y-99383333D01*
X139003333Y-99573809D01*
X139241428Y-99811904D01*
X139670000Y-100002380D01*
X139622380Y-99478571D02*
X140050952Y-99573809D01*
X138527142Y-99192857D02*
X137384285Y-99192857D01*
X137955714Y-98859523D02*
X137955714Y-100002380D01*
X137908095Y-99288095D02*
X137431904Y-99811904D01*
X138003333Y-99192857D02*
X137765238Y-99430952D01*
X138384285Y-99716666D02*
X138574761Y-99811904D01*
X137955714Y-99145238D02*
X138050952Y-99383333D01*
X138431904Y-99764285D01*
X137765238Y-98907142D02*
X137574761Y-99002380D01*
X136717619Y-99050000D02*
X135860476Y-99050000D01*
X137098571Y-99240476D02*
X136717619Y-99240476D01*
X136622380Y-99335714D02*
X135955714Y-99335714D01*
X136622380Y-99526190D02*
X135955714Y-99526190D01*
X136717619Y-99669047D02*
X135860476Y-99669047D01*
X136289047Y-100002380D02*
X136098571Y-100002380D01*
X136908095Y-98859523D02*
X136908095Y-100002380D01*
X136622380Y-99192857D02*
X136622380Y-99526190D01*
X136289047Y-98859523D02*
X136289047Y-99526190D01*
X136098571Y-99526190D02*
X136098571Y-100002380D01*
X136622380Y-99192857D02*
X135955714Y-99192857D01*
X135955714Y-99526190D01*
X136527142Y-99764285D02*
X136384285Y-99907142D01*
X136146190Y-98907142D02*
X135955714Y-98954761D01*
X135336666Y-99954761D02*
X134622380Y-99954761D01*
X135574761Y-99002380D02*
X135574761Y-99145238D01*
X135336666Y-99621428D02*
X135336666Y-100002380D01*
X135003333Y-98859523D02*
X135003333Y-99002380D01*
X135479523Y-99669047D02*
X134622380Y-99669047D01*
X134622380Y-100002380D01*
X135574761Y-99002380D02*
X134431904Y-99002380D01*
X134431904Y-99145238D01*
X135193809Y-99097619D02*
X135384285Y-99288095D01*
X135574761Y-99383333D01*
X135241428Y-99192857D02*
X135098571Y-99383333D01*
X134860476Y-99526190D01*
X134384285Y-99669047D01*
X135241428Y-99192857D02*
X134670000Y-99192857D01*
X134860476Y-99383333D01*
X135193809Y-99573809D01*
X135622380Y-99669047D01*
D11*
X172325000Y-94299523D02*
X172363095Y-94375714D01*
X172363095Y-94490000D01*
X172325000Y-94604285D01*
X172248809Y-94680476D01*
X172172619Y-94718571D01*
X172020238Y-94756666D01*
X171905952Y-94756666D01*
X171753571Y-94718571D01*
X171677380Y-94680476D01*
X171601190Y-94604285D01*
X171563095Y-94490000D01*
X171563095Y-94413809D01*
X171601190Y-94299523D01*
X171639285Y-94261428D01*
X171905952Y-94261428D01*
X171905952Y-94413809D01*
X171563095Y-93918571D02*
X172363095Y-93918571D01*
X171563095Y-93461428D01*
X172363095Y-93461428D01*
X171563095Y-93080476D02*
X172363095Y-93080476D01*
X172363095Y-92890000D01*
X172325000Y-92775714D01*
X172248809Y-92699523D01*
X172172619Y-92661428D01*
X172020238Y-92623333D01*
X171905952Y-92623333D01*
X171753571Y-92661428D01*
X171677380Y-92699523D01*
X171601190Y-92775714D01*
X171563095Y-92890000D01*
X171563095Y-93080476D01*
X150568400Y-93181476D02*
X150530304Y-93105285D01*
X150530304Y-92991000D01*
X150568400Y-92876714D01*
X150644590Y-92800523D01*
X150720780Y-92762428D01*
X150873161Y-92724333D01*
X150987447Y-92724333D01*
X151139828Y-92762428D01*
X151216019Y-92800523D01*
X151292209Y-92876714D01*
X151330304Y-92991000D01*
X151330304Y-93067190D01*
X151292209Y-93181476D01*
X151254114Y-93219571D01*
X150987447Y-93219571D01*
X150987447Y-93067190D01*
X151330304Y-93562428D02*
X150530304Y-93562428D01*
X151330304Y-94019571D01*
X150530304Y-94019571D01*
X151330304Y-94400523D02*
X150530304Y-94400523D01*
X150530304Y-94591000D01*
X150568400Y-94705285D01*
X150644590Y-94781476D01*
X150720780Y-94819571D01*
X150873161Y-94857666D01*
X150987447Y-94857666D01*
X151139828Y-94819571D01*
X151216019Y-94781476D01*
X151292209Y-94705285D01*
X151330304Y-94591000D01*
X151330304Y-94400523D01*
X148715714Y-93219571D02*
X148753809Y-93181476D01*
X148791904Y-93067190D01*
X148791904Y-92991000D01*
X148753809Y-92876714D01*
X148677619Y-92800524D01*
X148601428Y-92762428D01*
X148449047Y-92724333D01*
X148334761Y-92724333D01*
X148182380Y-92762428D01*
X148106190Y-92800524D01*
X148030000Y-92876714D01*
X147991904Y-92991000D01*
X147991904Y-93067190D01*
X148030000Y-93181476D01*
X148068095Y-93219571D01*
X147991904Y-93448143D02*
X147991904Y-93905286D01*
X148791904Y-93676714D02*
X147991904Y-93676714D01*
X148753809Y-94133857D02*
X148791904Y-94248143D01*
X148791904Y-94438619D01*
X148753809Y-94514809D01*
X148715714Y-94552905D01*
X148639523Y-94591000D01*
X148563333Y-94591000D01*
X148487142Y-94552905D01*
X148449047Y-94514809D01*
X148410952Y-94438619D01*
X148372857Y-94286238D01*
X148334761Y-94210047D01*
X148296666Y-94171952D01*
X148220476Y-94133857D01*
X148144285Y-94133857D01*
X148068095Y-94171952D01*
X148030000Y-94210047D01*
X147991904Y-94286238D01*
X147991904Y-94476714D01*
X148030000Y-94591000D01*
D10*
X187445309Y-96136190D02*
X187326261Y-96136190D01*
X187373880Y-96255238D02*
X187326261Y-96136190D01*
X187373880Y-96017142D01*
X187231023Y-96207619D02*
X187326261Y-96136190D01*
X187231023Y-96064761D01*
X186969119Y-95850476D02*
X186945309Y-95779047D01*
X186945309Y-95660000D01*
X186969119Y-95612380D01*
X186992928Y-95588571D01*
X187040547Y-95564761D01*
X187088166Y-95564761D01*
X187135785Y-95588571D01*
X187159595Y-95612380D01*
X187183404Y-95660000D01*
X187207214Y-95755238D01*
X187231023Y-95802857D01*
X187254833Y-95826666D01*
X187302452Y-95850476D01*
X187350071Y-95850476D01*
X187397690Y-95826666D01*
X187421500Y-95802857D01*
X187445309Y-95755238D01*
X187445309Y-95636190D01*
X187421500Y-95564761D01*
X187445309Y-95350476D02*
X187040547Y-95350476D01*
X186992928Y-95326666D01*
X186969119Y-95302857D01*
X186945309Y-95255238D01*
X186945309Y-95160000D01*
X186969119Y-95112380D01*
X186992928Y-95088571D01*
X187040547Y-95064761D01*
X187445309Y-95064761D01*
X186969119Y-94850476D02*
X186945309Y-94779047D01*
X186945309Y-94660000D01*
X186969119Y-94612380D01*
X186992928Y-94588571D01*
X187040547Y-94564761D01*
X187088166Y-94564761D01*
X187135785Y-94588571D01*
X187159595Y-94612380D01*
X187183404Y-94660000D01*
X187207214Y-94755238D01*
X187231023Y-94802857D01*
X187254833Y-94826666D01*
X187302452Y-94850476D01*
X187350071Y-94850476D01*
X187397690Y-94826666D01*
X187421500Y-94802857D01*
X187445309Y-94755238D01*
X187445309Y-94636190D01*
X187421500Y-94564761D01*
X186945309Y-94350476D02*
X187445309Y-94350476D01*
X187445309Y-94160000D01*
X187421500Y-94112380D01*
X187397690Y-94088571D01*
X187350071Y-94064761D01*
X187278642Y-94064761D01*
X187231023Y-94088571D01*
X187207214Y-94112380D01*
X187183404Y-94160000D01*
X187183404Y-94350476D01*
X187207214Y-93850476D02*
X187207214Y-93683809D01*
X186945309Y-93612380D02*
X186945309Y-93850476D01*
X187445309Y-93850476D01*
X187445309Y-93612380D01*
X186945309Y-93398095D02*
X187445309Y-93398095D01*
X186945309Y-93112380D01*
X187445309Y-93112380D01*
X186945309Y-92874285D02*
X187445309Y-92874285D01*
X187445309Y-92755238D01*
X187421500Y-92683809D01*
X187373880Y-92636190D01*
X187326261Y-92612380D01*
X187231023Y-92588571D01*
X187159595Y-92588571D01*
X187064357Y-92612380D01*
X187016738Y-92636190D01*
X186969119Y-92683809D01*
X186945309Y-92755238D01*
X186945309Y-92874285D01*
D11*
X141160304Y-93219571D02*
X140779352Y-92952905D01*
X141160304Y-92762428D02*
X140360304Y-92762428D01*
X140360304Y-93067190D01*
X140398400Y-93143381D01*
X140436495Y-93181476D01*
X140512685Y-93219571D01*
X140626971Y-93219571D01*
X140703161Y-93181476D01*
X140741257Y-93143381D01*
X140779352Y-93067190D01*
X140779352Y-92762428D01*
X140360304Y-93486238D02*
X141160304Y-94019571D01*
X140360304Y-94019571D02*
X141160304Y-93486238D01*
X141160304Y-94324333D02*
X140360304Y-94324333D01*
X140360304Y-94514809D01*
X140398400Y-94629095D01*
X140474590Y-94705285D01*
X140550780Y-94743381D01*
X140703161Y-94781476D01*
X140817447Y-94781476D01*
X140969828Y-94743381D01*
X141046019Y-94705285D01*
X141122209Y-94629095D01*
X141160304Y-94514809D01*
X141160304Y-94324333D01*
X169831895Y-93492380D02*
X169831895Y-93873333D01*
X169450942Y-93911428D01*
X169489038Y-93873333D01*
X169527133Y-93797142D01*
X169527133Y-93606666D01*
X169489038Y-93530476D01*
X169450942Y-93492380D01*
X169374752Y-93454285D01*
X169184276Y-93454285D01*
X169108085Y-93492380D01*
X169069990Y-93530476D01*
X169031895Y-93606666D01*
X169031895Y-93797142D01*
X169069990Y-93873333D01*
X169108085Y-93911428D01*
X169831895Y-93225714D02*
X169031895Y-92959047D01*
X169831895Y-92692380D01*
X154706785Y-96603904D02*
X154706785Y-95803904D01*
X154516309Y-95803904D01*
X154402023Y-95842000D01*
X154325833Y-95918190D01*
X154287738Y-95994380D01*
X154249642Y-96146761D01*
X154249642Y-96261047D01*
X154287738Y-96413428D01*
X154325833Y-96489619D01*
X154402023Y-96565809D01*
X154516309Y-96603904D01*
X154706785Y-96603904D01*
X154021071Y-95803904D02*
X153563928Y-95803904D01*
X153792500Y-96603904D02*
X153792500Y-95803904D01*
X152840119Y-96603904D02*
X153106785Y-96222952D01*
X153297261Y-96603904D02*
X153297261Y-95803904D01*
X152992500Y-95803904D01*
X152916309Y-95842000D01*
X152878214Y-95880095D01*
X152840119Y-95956285D01*
X152840119Y-96070571D01*
X152878214Y-96146761D01*
X152916309Y-96184857D01*
X152992500Y-96222952D01*
X153297261Y-96222952D01*
X148791904Y-105028237D02*
X147991904Y-105028237D01*
X147991904Y-105218714D01*
X148030000Y-105332999D01*
X148106190Y-105409190D01*
X148182380Y-105447285D01*
X148334761Y-105485380D01*
X148449047Y-105485380D01*
X148601428Y-105447285D01*
X148677619Y-105409190D01*
X148753809Y-105332999D01*
X148791904Y-105218714D01*
X148791904Y-105028237D01*
X148753809Y-105790142D02*
X148791904Y-105904428D01*
X148791904Y-106094904D01*
X148753809Y-106171094D01*
X148715714Y-106209190D01*
X148639523Y-106247285D01*
X148563333Y-106247285D01*
X148487142Y-106209190D01*
X148449047Y-106171094D01*
X148410952Y-106094904D01*
X148372857Y-105942523D01*
X148334761Y-105866333D01*
X148296666Y-105828237D01*
X148220476Y-105790142D01*
X148144285Y-105790142D01*
X148068095Y-105828237D01*
X148030000Y-105866333D01*
X147991904Y-105942523D01*
X147991904Y-106132999D01*
X148030000Y-106247285D01*
X148791904Y-107047285D02*
X148410952Y-106780618D01*
X148791904Y-106590142D02*
X147991904Y-106590142D01*
X147991904Y-106894904D01*
X148030000Y-106971094D01*
X148068095Y-107009190D01*
X148144285Y-107047285D01*
X148258571Y-107047285D01*
X148334761Y-107009190D01*
X148372857Y-106971094D01*
X148410952Y-106894904D01*
X148410952Y-106590142D01*
X172213200Y-106641713D02*
X172251295Y-106717904D01*
X172251295Y-106832190D01*
X172213200Y-106946475D01*
X172137009Y-107022666D01*
X172060819Y-107060761D01*
X171908438Y-107098856D01*
X171794152Y-107098856D01*
X171641771Y-107060761D01*
X171565580Y-107022666D01*
X171489390Y-106946475D01*
X171451295Y-106832190D01*
X171451295Y-106755999D01*
X171489390Y-106641713D01*
X171527485Y-106603618D01*
X171794152Y-106603618D01*
X171794152Y-106755999D01*
X171451295Y-106260761D02*
X172251295Y-106260761D01*
X171451295Y-105803618D01*
X172251295Y-105803618D01*
X171451295Y-105422666D02*
X172251295Y-105422666D01*
X172251295Y-105232190D01*
X172213200Y-105117904D01*
X172137009Y-105041713D01*
X172060819Y-105003618D01*
X171908438Y-104965523D01*
X171794152Y-104965523D01*
X171641771Y-105003618D01*
X171565580Y-105041713D01*
X171489390Y-105117904D01*
X171451295Y-105232190D01*
X171451295Y-105422666D01*
X176531295Y-106603618D02*
X176912247Y-106870284D01*
X176531295Y-107060761D02*
X177331295Y-107060761D01*
X177331295Y-106755999D01*
X177293200Y-106679808D01*
X177255104Y-106641713D01*
X177178914Y-106603618D01*
X177064628Y-106603618D01*
X176988438Y-106641713D01*
X176950342Y-106679808D01*
X176912247Y-106755999D01*
X176912247Y-107060761D01*
X177331295Y-106375046D02*
X177331295Y-105917903D01*
X176531295Y-106146475D02*
X177331295Y-106146475D01*
X176569390Y-105689332D02*
X176531295Y-105575046D01*
X176531295Y-105384570D01*
X176569390Y-105308380D01*
X176607485Y-105270284D01*
X176683676Y-105232189D01*
X176759866Y-105232189D01*
X176836057Y-105270284D01*
X176874152Y-105308380D01*
X176912247Y-105384570D01*
X176950342Y-105536951D01*
X176988438Y-105613142D01*
X177026533Y-105651237D01*
X177102723Y-105689332D01*
X177178914Y-105689332D01*
X177255104Y-105651237D01*
X177293200Y-105613142D01*
X177331295Y-105536951D01*
X177331295Y-105346475D01*
X177293200Y-105232189D01*
X143711904Y-104990142D02*
X142911904Y-104990142D01*
X142911904Y-105180618D01*
X142950000Y-105294904D01*
X143026190Y-105371094D01*
X143102380Y-105409189D01*
X143254761Y-105447285D01*
X143369047Y-105447285D01*
X143521428Y-105409189D01*
X143597619Y-105371094D01*
X143673809Y-105294904D01*
X143711904Y-105180618D01*
X143711904Y-104990142D01*
X143635714Y-106247285D02*
X143673809Y-106209189D01*
X143711904Y-106094904D01*
X143711904Y-106018713D01*
X143673809Y-105904427D01*
X143597619Y-105828237D01*
X143521428Y-105790142D01*
X143369047Y-105752046D01*
X143254761Y-105752046D01*
X143102380Y-105790142D01*
X143026190Y-105828237D01*
X142950000Y-105904427D01*
X142911904Y-106018713D01*
X142911904Y-106094904D01*
X142950000Y-106209189D01*
X142988095Y-106247285D01*
X143711904Y-106590142D02*
X142911904Y-106590142D01*
X142911904Y-106780618D01*
X142950000Y-106894904D01*
X143026190Y-106971094D01*
X143102380Y-107009189D01*
X143254761Y-107047285D01*
X143369047Y-107047285D01*
X143521428Y-107009189D01*
X143597619Y-106971094D01*
X143673809Y-106894904D01*
X143711904Y-106780618D01*
X143711904Y-106590142D01*
D10*
X195213809Y-102392380D02*
X194713809Y-102225714D01*
X195213809Y-102059047D01*
X194737619Y-101701904D02*
X194713809Y-101749523D01*
X194713809Y-101844761D01*
X194737619Y-101892380D01*
X194785238Y-101916190D01*
X194975714Y-101916190D01*
X195023333Y-101892380D01*
X195047142Y-101844761D01*
X195047142Y-101749523D01*
X195023333Y-101701904D01*
X194975714Y-101678095D01*
X194928095Y-101678095D01*
X194880476Y-101916190D01*
X194713809Y-101463809D02*
X195047142Y-101463809D01*
X194951904Y-101463809D02*
X194999523Y-101440000D01*
X195023333Y-101416190D01*
X195047142Y-101368571D01*
X195047142Y-101320952D01*
X194737619Y-101178095D02*
X194713809Y-101130476D01*
X194713809Y-101035238D01*
X194737619Y-100987619D01*
X194785238Y-100963809D01*
X194809047Y-100963809D01*
X194856666Y-100987619D01*
X194880476Y-101035238D01*
X194880476Y-101106666D01*
X194904285Y-101154285D01*
X194951904Y-101178095D01*
X194975714Y-101178095D01*
X195023333Y-101154285D01*
X195047142Y-101106666D01*
X195047142Y-101035238D01*
X195023333Y-100987619D01*
X194713809Y-100749523D02*
X195047142Y-100749523D01*
X195213809Y-100749523D02*
X195190000Y-100773333D01*
X195166190Y-100749523D01*
X195190000Y-100725714D01*
X195213809Y-100749523D01*
X195166190Y-100749523D01*
X194713809Y-100440000D02*
X194737619Y-100487619D01*
X194761428Y-100511428D01*
X194809047Y-100535238D01*
X194951904Y-100535238D01*
X194999523Y-100511428D01*
X195023333Y-100487619D01*
X195047142Y-100440000D01*
X195047142Y-100368571D01*
X195023333Y-100320952D01*
X194999523Y-100297142D01*
X194951904Y-100273333D01*
X194809047Y-100273333D01*
X194761428Y-100297142D01*
X194737619Y-100320952D01*
X194713809Y-100368571D01*
X194713809Y-100440000D01*
X195047142Y-100059047D02*
X194713809Y-100059047D01*
X194999523Y-100059047D02*
X195023333Y-100035238D01*
X195047142Y-99987619D01*
X195047142Y-99916190D01*
X195023333Y-99868571D01*
X194975714Y-99844761D01*
X194713809Y-99844761D01*
X194713809Y-98963809D02*
X194713809Y-99249523D01*
X194713809Y-99106666D02*
X195213809Y-99106666D01*
X195142380Y-99154285D01*
X195094761Y-99201904D01*
X195070952Y-99249523D01*
X194761428Y-98749523D02*
X194737619Y-98725714D01*
X194713809Y-98749523D01*
X194737619Y-98773333D01*
X194761428Y-98749523D01*
X194713809Y-98749523D01*
X195213809Y-98416190D02*
X195213809Y-98368571D01*
X195190000Y-98320952D01*
X195166190Y-98297142D01*
X195118571Y-98273333D01*
X195023333Y-98249523D01*
X194904285Y-98249523D01*
X194809047Y-98273333D01*
X194761428Y-98297142D01*
X194737619Y-98320952D01*
X194713809Y-98368571D01*
X194713809Y-98416190D01*
X194737619Y-98463809D01*
X194761428Y-98487619D01*
X194809047Y-98511428D01*
X194904285Y-98535238D01*
X195023333Y-98535238D01*
X195118571Y-98511428D01*
X195166190Y-98487619D01*
X195190000Y-98463809D01*
X195213809Y-98416190D01*
X194761428Y-98035238D02*
X194737619Y-98011428D01*
X194713809Y-98035238D01*
X194737619Y-98059047D01*
X194761428Y-98035238D01*
X194713809Y-98035238D01*
X195213809Y-97701904D02*
X195213809Y-97654285D01*
X195190000Y-97606666D01*
X195166190Y-97582857D01*
X195118571Y-97559047D01*
X195023333Y-97535238D01*
X194904285Y-97535238D01*
X194809047Y-97559047D01*
X194761428Y-97582857D01*
X194737619Y-97606666D01*
X194713809Y-97654285D01*
X194713809Y-97701904D01*
X194737619Y-97749523D01*
X194761428Y-97773333D01*
X194809047Y-97797142D01*
X194904285Y-97820952D01*
X195023333Y-97820952D01*
X195118571Y-97797142D01*
X195166190Y-97773333D01*
X195190000Y-97749523D01*
X195213809Y-97701904D01*
D11*
X154782975Y-98321904D02*
X154325832Y-98321904D01*
X154554404Y-99121904D02*
X154554404Y-98321904D01*
X154135356Y-98321904D02*
X153602023Y-99121904D01*
X153602023Y-98321904D02*
X154135356Y-99121904D01*
X153297261Y-99121904D02*
X153297261Y-98321904D01*
X153106785Y-98321904D01*
X152992499Y-98360000D01*
X152916309Y-98436190D01*
X152878213Y-98512380D01*
X152840118Y-98664761D01*
X152840118Y-98779047D01*
X152878213Y-98931428D01*
X152916309Y-99007619D01*
X152992499Y-99083809D01*
X153106785Y-99121904D01*
X153297261Y-99121904D01*
X169711295Y-107136952D02*
X169711295Y-106641714D01*
X169406533Y-106908380D01*
X169406533Y-106794095D01*
X169368438Y-106717904D01*
X169330342Y-106679809D01*
X169254152Y-106641714D01*
X169063676Y-106641714D01*
X168987485Y-106679809D01*
X168949390Y-106717904D01*
X168911295Y-106794095D01*
X168911295Y-107022666D01*
X168949390Y-107098857D01*
X168987485Y-107136952D01*
X168987485Y-106298857D02*
X168949390Y-106260761D01*
X168911295Y-106298857D01*
X168949390Y-106336952D01*
X168987485Y-106298857D01*
X168911295Y-106298857D01*
X169711295Y-105994095D02*
X169711295Y-105498857D01*
X169406533Y-105765523D01*
X169406533Y-105651238D01*
X169368438Y-105575047D01*
X169330342Y-105536952D01*
X169254152Y-105498857D01*
X169063676Y-105498857D01*
X168987485Y-105536952D01*
X168949390Y-105575047D01*
X168911295Y-105651238D01*
X168911295Y-105879809D01*
X168949390Y-105956000D01*
X168987485Y-105994095D01*
X169711295Y-105270285D02*
X168911295Y-105003619D01*
X169711295Y-104736952D01*
X153051904Y-106323476D02*
X153051904Y-105942523D01*
X153432857Y-105904428D01*
X153394761Y-105942523D01*
X153356666Y-106018714D01*
X153356666Y-106209190D01*
X153394761Y-106285380D01*
X153432857Y-106323476D01*
X153509047Y-106361571D01*
X153699523Y-106361571D01*
X153775714Y-106323476D01*
X153813809Y-106285380D01*
X153851904Y-106209190D01*
X153851904Y-106018714D01*
X153813809Y-105942523D01*
X153775714Y-105904428D01*
X153051904Y-106590142D02*
X153851904Y-106856809D01*
X153051904Y-107123476D01*
X137831904Y-92720476D02*
X137831904Y-93177619D01*
X138631904Y-92949047D02*
X137831904Y-92949047D01*
X137831904Y-93368095D02*
X138631904Y-93901428D01*
X137831904Y-93901428D02*
X138631904Y-93368095D01*
X138631904Y-94206190D02*
X137831904Y-94206190D01*
X137831904Y-94396666D01*
X137870000Y-94510952D01*
X137946190Y-94587142D01*
X138022380Y-94625238D01*
X138174761Y-94663333D01*
X138289047Y-94663333D01*
X138441428Y-94625238D01*
X138517619Y-94587142D01*
X138593809Y-94510952D01*
X138631904Y-94396666D01*
X138631904Y-94206190D01*
X166837952Y-95853095D02*
X166571286Y-96234047D01*
X166380809Y-95853095D02*
X166380809Y-96653095D01*
X166685571Y-96653095D01*
X166761762Y-96615000D01*
X166799857Y-96576904D01*
X166837952Y-96500714D01*
X166837952Y-96386428D01*
X166799857Y-96310238D01*
X166761762Y-96272142D01*
X166685571Y-96234047D01*
X166380809Y-96234047D01*
X167066524Y-96653095D02*
X167523667Y-96653095D01*
X167295095Y-95853095D02*
X167295095Y-96653095D01*
X167752238Y-95891190D02*
X167866524Y-95853095D01*
X168057000Y-95853095D01*
X168133190Y-95891190D01*
X168171286Y-95929285D01*
X168209381Y-96005476D01*
X168209381Y-96081666D01*
X168171286Y-96157857D01*
X168133190Y-96195952D01*
X168057000Y-96234047D01*
X167904619Y-96272142D01*
X167828428Y-96310238D01*
X167790333Y-96348333D01*
X167752238Y-96424523D01*
X167752238Y-96500714D01*
X167790333Y-96576904D01*
X167828428Y-96615000D01*
X167904619Y-96653095D01*
X168095095Y-96653095D01*
X168209381Y-96615000D01*
D12*
%TO.C,*%
D10*
%TO.C,Hole4*%
X157180000Y-91650000D02*
G75*
G03*
X157180000Y-91650000I-900000J0D01*
G01*
%TO.C,Hole1*%
X127340000Y-91650000D02*
G75*
G03*
X127340000Y-91650000I-900000J0D01*
G01*
%TO.C,Hole8*%
X195740000Y-91790000D02*
G75*
G03*
X195740000Y-91790000I-900000J0D01*
G01*
%TO.C,Hole3*%
X157040000Y-108110000D02*
G75*
G03*
X157040000Y-108110000I-900000J0D01*
G01*
%TO.C,Hole5*%
X166350000Y-91670000D02*
G75*
G03*
X166350000Y-91670000I-900000J0D01*
G01*
%TO.C,Hole2*%
X127440000Y-108350000D02*
G75*
G03*
X127440000Y-108350000I-900000J0D01*
G01*
%TO.C,Hole7*%
X195600000Y-108240000D02*
G75*
G03*
X195600000Y-108240000I-900000J0D01*
G01*
%TO.C,Hole6*%
X166320000Y-108150000D02*
G75*
G03*
X166320000Y-108150000I-900000J0D01*
G01*
D13*
%TO.C,J4*%
X152230000Y-110030000D02*
X139470000Y-110030000D01*
X153500000Y-110030000D02*
X154830000Y-110030000D01*
X154830000Y-110030000D02*
X154830000Y-108700000D01*
X152230000Y-110030000D02*
X152230000Y-107370000D01*
X139470000Y-110030000D02*
X139470000Y-107370000D01*
X152230000Y-107370000D02*
X139470000Y-107370000D01*
%TO.C,J3*%
X170611000Y-107316000D02*
X170611000Y-109976000D01*
X170611000Y-107316000D02*
X185911000Y-107316000D01*
X168011000Y-107316000D02*
X168011000Y-108646000D01*
X185911000Y-107316000D02*
X185911000Y-109976000D01*
X169341000Y-107316000D02*
X168011000Y-107316000D01*
X170611000Y-109976000D02*
X185911000Y-109976000D01*
%TO.C,J1*%
X170670000Y-89770000D02*
X170670000Y-92430000D01*
X188510000Y-89770000D02*
X188510000Y-92430000D01*
X170670000Y-89770000D02*
X188510000Y-89770000D01*
X169400000Y-89770000D02*
X168070000Y-89770000D01*
X170670000Y-92430000D02*
X188510000Y-92430000D01*
X168070000Y-89770000D02*
X168070000Y-91100000D01*
%TO.C,J6*%
X152230000Y-92524000D02*
X152230000Y-89864000D01*
X152230000Y-92524000D02*
X136930000Y-92524000D01*
X154830000Y-92524000D02*
X154830000Y-91194000D01*
X136930000Y-92524000D02*
X136930000Y-89864000D01*
X153500000Y-92524000D02*
X154830000Y-92524000D01*
X152230000Y-89864000D02*
X136930000Y-89864000D01*
%TO.C,*%
G36*
X184852637Y-102194940D02*
G01*
X184847201Y-102200376D01*
X184841764Y-102194940D01*
X184847201Y-102189503D01*
X184852637Y-102194940D01*
G37*
G36*
X186012455Y-101518984D02*
G01*
X186014156Y-101522254D01*
X186005206Y-101526233D01*
X185999450Y-101525448D01*
X185997957Y-101518984D01*
X185999551Y-101517682D01*
X186012455Y-101518984D01*
G37*
G36*
X185544903Y-101649463D02*
G01*
X185546604Y-101652734D01*
X185537654Y-101656712D01*
X185531898Y-101655927D01*
X185530406Y-101649463D01*
X185531999Y-101648162D01*
X185544903Y-101649463D01*
G37*
G36*
X185872972Y-101617266D02*
G01*
X185874726Y-101634965D01*
X185872881Y-101647596D01*
X185864871Y-101656712D01*
X185860093Y-101652304D01*
X185860703Y-101634965D01*
X185864846Y-101622184D01*
X185870558Y-101613219D01*
X185872972Y-101617266D01*
G37*
G36*
X185570274Y-101651275D02*
G01*
X185564838Y-101656712D01*
X185559401Y-101651275D01*
X185564838Y-101645839D01*
X185570274Y-101651275D01*
G37*
G36*
X185874726Y-101678459D02*
G01*
X185873942Y-101684215D01*
X185867478Y-101685707D01*
X185866176Y-101684114D01*
X185867478Y-101671210D01*
X185870748Y-101669509D01*
X185874726Y-101678459D01*
G37*
G36*
X186646730Y-102281926D02*
G01*
X186641293Y-102287363D01*
X186635856Y-102281926D01*
X186641293Y-102276489D01*
X186646730Y-102281926D01*
G37*
G36*
X185867653Y-101099461D02*
G01*
X185882881Y-101100619D01*
X185890025Y-101105616D01*
X185896473Y-101124178D01*
X185894504Y-101135163D01*
X185882881Y-101149484D01*
X185879376Y-101150260D01*
X185856918Y-101151937D01*
X185818625Y-101153031D01*
X185768770Y-101153452D01*
X185711627Y-101153109D01*
X185683806Y-101152741D01*
X185630353Y-101151747D01*
X185593888Y-101150170D01*
X185571044Y-101147469D01*
X185558453Y-101143102D01*
X185552749Y-101136528D01*
X185550564Y-101127206D01*
X185549912Y-101121534D01*
X185551183Y-101113901D01*
X185558247Y-101108620D01*
X185574293Y-101105142D01*
X185602512Y-101102916D01*
X185646093Y-101101393D01*
X185708227Y-101100022D01*
X185733708Y-101099554D01*
X185788849Y-101098914D01*
X185834903Y-101098888D01*
X185867653Y-101099461D01*
G37*
G36*
X186567496Y-99733844D02*
G01*
X186619125Y-99735573D01*
X186667195Y-99738688D01*
X186707161Y-99742898D01*
X186734474Y-99747913D01*
X186744589Y-99753440D01*
X186742174Y-99755627D01*
X186723485Y-99761408D01*
X186690331Y-99768000D01*
X186647543Y-99774361D01*
X186639877Y-99775420D01*
X186589439Y-99784598D01*
X186526962Y-99798622D01*
X186459658Y-99815781D01*
X186394739Y-99834363D01*
X186329691Y-99853356D01*
X186257248Y-99871340D01*
X186199472Y-99881041D01*
X186153435Y-99882909D01*
X186116212Y-99877397D01*
X186098240Y-99868891D01*
X186097979Y-99856236D01*
X186117693Y-99839180D01*
X186157870Y-99817014D01*
X186201941Y-99797668D01*
X186287279Y-99769332D01*
X186379573Y-99747939D01*
X186469725Y-99735859D01*
X186471751Y-99735706D01*
X186516856Y-99733791D01*
X186567496Y-99733844D01*
G37*
G36*
X185313689Y-100083470D02*
G01*
X185334381Y-100108856D01*
X185340711Y-100133989D01*
X185327162Y-100154923D01*
X185323568Y-100157526D01*
X185307471Y-100159319D01*
X185284673Y-100145381D01*
X185268729Y-100134552D01*
X185232130Y-100123037D01*
X185200005Y-100131663D01*
X185175000Y-100160075D01*
X185173747Y-100162316D01*
X185149903Y-100192084D01*
X185120879Y-100214113D01*
X185100535Y-100222112D01*
X185053960Y-100226585D01*
X185008677Y-100215338D01*
X184970789Y-100190469D01*
X184946398Y-100154077D01*
X184934187Y-100121647D01*
X184863511Y-100129122D01*
X184828458Y-100133318D01*
X184800668Y-100137637D01*
X184788370Y-100140894D01*
X184789866Y-100148575D01*
X184801962Y-100165143D01*
X184813774Y-100180569D01*
X184818454Y-100201385D01*
X184802920Y-100214799D01*
X184783122Y-100216379D01*
X184753345Y-100201421D01*
X184722914Y-100168134D01*
X184717539Y-100160298D01*
X184702657Y-100128991D01*
X184705987Y-100105057D01*
X184727766Y-100084410D01*
X184738485Y-100079032D01*
X184755695Y-100074278D01*
X184781227Y-100070502D01*
X184817767Y-100067488D01*
X184868000Y-100065019D01*
X184934610Y-100062880D01*
X185020282Y-100060855D01*
X185285443Y-100055224D01*
X185313689Y-100083470D01*
G37*
G36*
X185907346Y-101586036D02*
G01*
X185901910Y-101591472D01*
X185896473Y-101586036D01*
X185901910Y-101580599D01*
X185907346Y-101586036D01*
G37*
G36*
X186113939Y-101520796D02*
G01*
X186108502Y-101526233D01*
X186103065Y-101520796D01*
X186108502Y-101515359D01*
X186113939Y-101520796D01*
G37*
G36*
X186016079Y-101586036D02*
G01*
X186010642Y-101591472D01*
X186005206Y-101586036D01*
X186010642Y-101580599D01*
X186016079Y-101586036D01*
G37*
G36*
X185461541Y-101586036D02*
G01*
X185456105Y-101591472D01*
X185450668Y-101586036D01*
X185456105Y-101580599D01*
X185461541Y-101586036D01*
G37*
G36*
X186603237Y-102167757D02*
G01*
X186602452Y-102173513D01*
X186595988Y-102175005D01*
X186594686Y-102173412D01*
X186595988Y-102160508D01*
X186599258Y-102158807D01*
X186603237Y-102167757D01*
G37*
G36*
X185483288Y-101618655D02*
G01*
X185477851Y-101624092D01*
X185472415Y-101618655D01*
X185477851Y-101613219D01*
X185483288Y-101618655D01*
G37*
G36*
X185158097Y-100814037D02*
G01*
X185179497Y-100820053D01*
X185188033Y-100841215D01*
X185192565Y-100860806D01*
X185201812Y-100880613D01*
X185209724Y-100886873D01*
X185240525Y-100898419D01*
X185289035Y-100908526D01*
X185352584Y-100917086D01*
X185428504Y-100923989D01*
X185514124Y-100929125D01*
X185606776Y-100932386D01*
X185703791Y-100933660D01*
X185802498Y-100932840D01*
X185900229Y-100929815D01*
X185994315Y-100924476D01*
X186082085Y-100916714D01*
X186138671Y-100909684D01*
X186187575Y-100900471D01*
X186220299Y-100889197D01*
X186239852Y-100874772D01*
X186249240Y-100856104D01*
X186249307Y-100855840D01*
X186259907Y-100835589D01*
X186280141Y-100832355D01*
X186290023Y-100834713D01*
X186301330Y-100846350D01*
X186304221Y-100872662D01*
X186303957Y-100880454D01*
X186298244Y-100904585D01*
X186283476Y-100924222D01*
X186257537Y-100940122D01*
X186218312Y-100953041D01*
X186163686Y-100963733D01*
X186091543Y-100972956D01*
X185999769Y-100981465D01*
X185969523Y-100983724D01*
X185866011Y-100988738D01*
X185753640Y-100990694D01*
X185637492Y-100989739D01*
X185522651Y-100986017D01*
X185414199Y-100979674D01*
X185317218Y-100970854D01*
X185236791Y-100959702D01*
X185188771Y-100947443D01*
X185150605Y-100925692D01*
X185130392Y-100894578D01*
X185126659Y-100852668D01*
X185129677Y-100831141D01*
X185138405Y-100817262D01*
X185157089Y-100814032D01*
X185158097Y-100814037D01*
G37*
G36*
X186522330Y-101597481D02*
G01*
X186564774Y-101684235D01*
X186608862Y-101785256D01*
X186653609Y-101898296D01*
X186698028Y-102021109D01*
X186741135Y-102151447D01*
X186748357Y-102174300D01*
X186765029Y-102226985D01*
X186779051Y-102271188D01*
X186789125Y-102302822D01*
X186793953Y-102317803D01*
X186791317Y-102325918D01*
X186773953Y-102329331D01*
X186738483Y-102328676D01*
X186678279Y-102325419D01*
X186651741Y-102249306D01*
X186650537Y-102245857D01*
X186636606Y-102206651D01*
X186624877Y-102174789D01*
X186617781Y-102156883D01*
X186612861Y-102142425D01*
X186607352Y-102114851D01*
X186604237Y-102097596D01*
X186598659Y-102083441D01*
X186594560Y-102082789D01*
X186586568Y-102094377D01*
X186579555Y-102116011D01*
X186575641Y-102140256D01*
X186576941Y-102159681D01*
X186579234Y-102174100D01*
X186570521Y-102173134D01*
X186566260Y-102172038D01*
X186561536Y-102180555D01*
X186560038Y-102204870D01*
X186561413Y-102247886D01*
X186565603Y-102330856D01*
X184874384Y-102330856D01*
X184874384Y-102308468D01*
X184876080Y-102295887D01*
X184882539Y-102291114D01*
X184887141Y-102291113D01*
X184892175Y-102277284D01*
X184893401Y-102250201D01*
X184891033Y-102215040D01*
X184885283Y-102176974D01*
X184876365Y-102141177D01*
X184856058Y-102077059D01*
X184843933Y-102111841D01*
X184843491Y-102113135D01*
X184837312Y-102142270D01*
X184838634Y-102164410D01*
X184840800Y-102173778D01*
X184834678Y-102175534D01*
X184833280Y-102175267D01*
X184824006Y-102185642D01*
X184811385Y-102211879D01*
X184797492Y-102249829D01*
X184771088Y-102330788D01*
X184729580Y-102330822D01*
X184706624Y-102329828D01*
X184693596Y-102324355D01*
X184693568Y-102311828D01*
X184694384Y-102308948D01*
X184700505Y-102286744D01*
X184710736Y-102249229D01*
X184723870Y-102200839D01*
X184738700Y-102146010D01*
X184777588Y-102007772D01*
X184817965Y-101877868D01*
X184857245Y-101766563D01*
X184896029Y-101672285D01*
X184934917Y-101593461D01*
X184974510Y-101528517D01*
X185001503Y-101496687D01*
X185029758Y-101472434D01*
X185313626Y-101472434D01*
X185314056Y-101486294D01*
X185314550Y-101489598D01*
X185322679Y-101516773D01*
X185336401Y-101547907D01*
X185338409Y-101551758D01*
X185350555Y-101572526D01*
X185357796Y-101575953D01*
X185363791Y-101564217D01*
X185368529Y-101553468D01*
X185373345Y-101555507D01*
X185379117Y-101576972D01*
X185379340Y-101577950D01*
X185389327Y-101603429D01*
X185402403Y-101617406D01*
X185408994Y-101618875D01*
X185416845Y-101612734D01*
X185419615Y-101592075D01*
X185418162Y-101553416D01*
X185418061Y-101551780D01*
X185418679Y-101531898D01*
X185422732Y-101527424D01*
X185425107Y-101532630D01*
X185429230Y-101554977D01*
X185431925Y-101587227D01*
X185433036Y-101606553D01*
X185436993Y-101629486D01*
X185446308Y-101639910D01*
X185464444Y-101643860D01*
X185483730Y-101649145D01*
X185488371Y-101657285D01*
X185489405Y-101664803D01*
X185503849Y-101679137D01*
X185527677Y-101694229D01*
X185554398Y-101706167D01*
X185577523Y-101711038D01*
X185592398Y-101713517D01*
X185605198Y-101723426D01*
X185608060Y-101725082D01*
X185615090Y-101714081D01*
X185623527Y-101692210D01*
X185631356Y-101665739D01*
X185636559Y-101640942D01*
X185636849Y-101632247D01*
X185712012Y-101632247D01*
X185718547Y-101641209D01*
X185738810Y-101645839D01*
X185748450Y-101645502D01*
X185762573Y-101640246D01*
X185764049Y-101624938D01*
X185754301Y-101594898D01*
X185742608Y-101564289D01*
X185820360Y-101564289D01*
X185821906Y-101571841D01*
X185833952Y-101580765D01*
X185840382Y-101582584D01*
X185831736Y-101590932D01*
X185829290Y-101592579D01*
X185821530Y-101605099D01*
X185827957Y-101624938D01*
X185828334Y-101626103D01*
X185837025Y-101645761D01*
X185847274Y-101674736D01*
X185852449Y-101687477D01*
X185870697Y-101704526D01*
X185892467Y-101705653D01*
X185911078Y-101691841D01*
X185919849Y-101664070D01*
X185919852Y-101663992D01*
X185921179Y-101641915D01*
X185922841Y-101640687D01*
X185926007Y-101659427D01*
X185928548Y-101672663D01*
X185935988Y-101683145D01*
X185951561Y-101678072D01*
X185964006Y-101667032D01*
X185973847Y-101642738D01*
X185974026Y-101639657D01*
X185976099Y-101628046D01*
X185980011Y-101637322D01*
X185981216Y-101641430D01*
X185989077Y-101650176D01*
X186005933Y-101642861D01*
X186017807Y-101631477D01*
X186024976Y-101609648D01*
X186026952Y-101572547D01*
X186026990Y-101569726D01*
X186039686Y-101569726D01*
X186040669Y-101584372D01*
X186046348Y-101607997D01*
X186056264Y-101610690D01*
X186070063Y-101592187D01*
X186072924Y-101586490D01*
X186081391Y-101556362D01*
X186076702Y-101534602D01*
X186059651Y-101526233D01*
X186046716Y-101528850D01*
X186040256Y-101541418D01*
X186039686Y-101569726D01*
X186026990Y-101569726D01*
X186027304Y-101546491D01*
X186030221Y-101525573D01*
X186038304Y-101517007D01*
X186054136Y-101515359D01*
X186092192Y-101515359D01*
X186092400Y-101534915D01*
X186093360Y-101556362D01*
X186093520Y-101559938D01*
X186095284Y-101569726D01*
X186095663Y-101569583D01*
X186103649Y-101559426D01*
X186117031Y-101538146D01*
X186125386Y-101522385D01*
X186135166Y-101490622D01*
X186131303Y-101468986D01*
X186113939Y-101460993D01*
X186108909Y-101461225D01*
X186098197Y-101466487D01*
X186097345Y-101469338D01*
X186093337Y-101482750D01*
X186092765Y-101499049D01*
X186092192Y-101515359D01*
X186054136Y-101515359D01*
X186071867Y-101512167D01*
X186081319Y-101499049D01*
X186080000Y-101490613D01*
X186067063Y-101483328D01*
X186040396Y-101492819D01*
X186029166Y-101498292D01*
X186001311Y-101509239D01*
X185994002Y-101512410D01*
X185985115Y-101525961D01*
X185985536Y-101553526D01*
X185985710Y-101555073D01*
X185985410Y-101581743D01*
X185977722Y-101591472D01*
X185970253Y-101583113D01*
X185970267Y-101558852D01*
X185971808Y-101544223D01*
X185967856Y-101529681D01*
X185952073Y-101526233D01*
X185951534Y-101526235D01*
X185933997Y-101532301D01*
X185929093Y-101553416D01*
X185932470Y-101571343D01*
X185942684Y-101580765D01*
X185949515Y-101581940D01*
X185944315Y-101588920D01*
X185938839Y-101593661D01*
X185926145Y-101613219D01*
X185924183Y-101615988D01*
X185920800Y-101607491D01*
X185919078Y-101583317D01*
X185917107Y-101555030D01*
X185910469Y-101540656D01*
X185896473Y-101537106D01*
X185882726Y-101540495D01*
X185874726Y-101558211D01*
X185873135Y-101570657D01*
X185864867Y-101585409D01*
X185859983Y-101584456D01*
X185860699Y-101569741D01*
X185860721Y-101569654D01*
X185860286Y-101552578D01*
X185843375Y-101547979D01*
X185829542Y-101551037D01*
X185820360Y-101564289D01*
X185742608Y-101564289D01*
X185741683Y-101565954D01*
X185727503Y-101591472D01*
X185717274Y-101613230D01*
X185712012Y-101632247D01*
X185636849Y-101632247D01*
X185637121Y-101624092D01*
X185636405Y-101616761D01*
X185641565Y-101615773D01*
X185641659Y-101615863D01*
X185651692Y-101613036D01*
X185664345Y-101595501D01*
X185669129Y-101586147D01*
X185677545Y-101565954D01*
X185673875Y-101559259D01*
X185657261Y-101562003D01*
X185644205Y-101563679D01*
X185635514Y-101559069D01*
X185633621Y-101556373D01*
X185616824Y-101549408D01*
X185588299Y-101543368D01*
X185578975Y-101541954D01*
X185541723Y-101536057D01*
X185512186Y-101531047D01*
X185507741Y-101530311D01*
X185488272Y-101531508D01*
X185482204Y-101545048D01*
X185482134Y-101546142D01*
X185479316Y-101552191D01*
X185473559Y-101537106D01*
X185464946Y-101519803D01*
X185444741Y-101509923D01*
X185432133Y-101508513D01*
X185417073Y-101501228D01*
X185412625Y-101497791D01*
X185391650Y-101488132D01*
X185361038Y-101477599D01*
X185338271Y-101470948D01*
X185329531Y-101469367D01*
X185520657Y-101469367D01*
X185521658Y-101469851D01*
X185537393Y-101473921D01*
X185567854Y-101480492D01*
X185607694Y-101488395D01*
X185610787Y-101488981D01*
X185658435Y-101496686D01*
X185703658Y-101501936D01*
X185737048Y-101503622D01*
X185763008Y-101501558D01*
X185806107Y-101495574D01*
X185854256Y-101487208D01*
X185898734Y-101477997D01*
X185930818Y-101469479D01*
X185931017Y-101469338D01*
X185920714Y-101468416D01*
X185892229Y-101467618D01*
X185848679Y-101466989D01*
X185793179Y-101466577D01*
X185728843Y-101466429D01*
X185720208Y-101466432D01*
X185656261Y-101466610D01*
X185601089Y-101467039D01*
X185557937Y-101467672D01*
X185530045Y-101468463D01*
X185520657Y-101469367D01*
X185329531Y-101469367D01*
X185319973Y-101467638D01*
X185313626Y-101472434D01*
X185029758Y-101472434D01*
X185048980Y-101455934D01*
X185103946Y-101420192D01*
X185158722Y-101395023D01*
X185198411Y-101381296D01*
X185115229Y-101338763D01*
X185073015Y-101316833D01*
X184990202Y-101270800D01*
X184920485Y-101226553D01*
X184858707Y-101180379D01*
X184799708Y-101128563D01*
X184738331Y-101067392D01*
X184700908Y-101027647D01*
X184658136Y-100979005D01*
X184624044Y-100934711D01*
X184594168Y-100888827D01*
X184564045Y-100835411D01*
X184540164Y-100791202D01*
X184520867Y-100757562D01*
X184506363Y-100736987D01*
X184493800Y-100726254D01*
X184480321Y-100722139D01*
X184463072Y-100721420D01*
X184435652Y-100719487D01*
X184393490Y-100713730D01*
X184348968Y-100705515D01*
X184295830Y-100691100D01*
X184212532Y-100652310D01*
X184141312Y-100595706D01*
X184080960Y-100520453D01*
X184038911Y-100446460D01*
X184009939Y-100367028D01*
X183998968Y-100286493D01*
X184000433Y-100264931D01*
X184097573Y-100264931D01*
X184097852Y-100300083D01*
X184099811Y-100340219D01*
X184104833Y-100370044D01*
X184114282Y-100396464D01*
X184129527Y-100426382D01*
X184148563Y-100457030D01*
X184199862Y-100517330D01*
X184261195Y-100567342D01*
X184326217Y-100601419D01*
X184350903Y-100609529D01*
X184394099Y-100619753D01*
X184429720Y-100623750D01*
X184429994Y-100623750D01*
X184457534Y-100622365D01*
X184468289Y-100616488D01*
X184467108Y-100603491D01*
X184458450Y-100571050D01*
X184446349Y-100508696D01*
X184434941Y-100430415D01*
X184424706Y-100339625D01*
X184416122Y-100239743D01*
X184411131Y-100171902D01*
X184506788Y-100171902D01*
X184508723Y-100207376D01*
X184512533Y-100253908D01*
X184517768Y-100307106D01*
X184523976Y-100362578D01*
X184530706Y-100415930D01*
X184537508Y-100462770D01*
X184543931Y-100498707D01*
X184573864Y-100616488D01*
X184574765Y-100620032D01*
X184617978Y-100735861D01*
X184673834Y-100840125D01*
X184744780Y-100937336D01*
X184833264Y-101032003D01*
X184908300Y-101098192D01*
X185034331Y-101186916D01*
X185172897Y-101260833D01*
X185320607Y-101318223D01*
X185474073Y-101357364D01*
X185492521Y-101360497D01*
X185540041Y-101366684D01*
X185596270Y-101372264D01*
X185656154Y-101376919D01*
X185714645Y-101380329D01*
X185766689Y-101382176D01*
X185807235Y-101382141D01*
X185831233Y-101379905D01*
X185836461Y-101378837D01*
X185861490Y-101374696D01*
X185899614Y-101368992D01*
X185944897Y-101362627D01*
X186037218Y-101345166D01*
X186158680Y-101309880D01*
X186280853Y-101262147D01*
X186396890Y-101204712D01*
X186499940Y-101140318D01*
X186508360Y-101134203D01*
X186567112Y-101085633D01*
X186630248Y-101025040D01*
X186692217Y-100958344D01*
X186747469Y-100891471D01*
X186790452Y-100830342D01*
X186800285Y-100814052D01*
X186855003Y-100701354D01*
X186880313Y-100623750D01*
X186987310Y-100623750D01*
X187031768Y-100623741D01*
X187050439Y-100622294D01*
X187101102Y-100609060D01*
X187156615Y-100584747D01*
X187210007Y-100552721D01*
X187254307Y-100516344D01*
X187265953Y-100504389D01*
X187304419Y-100457183D01*
X187329703Y-100408283D01*
X187344453Y-100351220D01*
X187351323Y-100279519D01*
X187352419Y-100253350D01*
X187352757Y-100211009D01*
X187349585Y-100179532D01*
X187341860Y-100151615D01*
X187328538Y-100119952D01*
X187306876Y-100080438D01*
X187277281Y-100037964D01*
X187244873Y-99999422D01*
X187213964Y-99969918D01*
X187188865Y-99954557D01*
X187175833Y-99953987D01*
X187152225Y-99965198D01*
X187119435Y-99992199D01*
X187096934Y-100011872D01*
X187082999Y-100022502D01*
X187073545Y-100029714D01*
X187060158Y-100036592D01*
X187059630Y-100036666D01*
X187054069Y-100048531D01*
X187050379Y-100078103D01*
X187049041Y-100121690D01*
X187048545Y-100144488D01*
X187047838Y-100176968D01*
X187042228Y-100267967D01*
X187032860Y-100363689D01*
X187020643Y-100455320D01*
X187006488Y-100534045D01*
X186987310Y-100623750D01*
X186880313Y-100623750D01*
X186897601Y-100570740D01*
X186928041Y-100422358D01*
X186946280Y-100256358D01*
X186954043Y-100144488D01*
X186926836Y-100156884D01*
X186923738Y-100158360D01*
X186908082Y-100170413D01*
X186903272Y-100181440D01*
X186899125Y-100190947D01*
X186893715Y-100226591D01*
X186892469Y-100236966D01*
X186875089Y-100304101D01*
X186844013Y-100359914D01*
X186801459Y-100400226D01*
X186779225Y-100412814D01*
X186742550Y-100427011D01*
X186696511Y-100437928D01*
X186638646Y-100445876D01*
X186566491Y-100451169D01*
X186477584Y-100454119D01*
X186369461Y-100455038D01*
X186312965Y-100454998D01*
X186247361Y-100454639D01*
X186197816Y-100453666D01*
X186160966Y-100451786D01*
X186133448Y-100448707D01*
X186111899Y-100444140D01*
X186092955Y-100437791D01*
X186073255Y-100429370D01*
X186052419Y-100418625D01*
X186011712Y-100391571D01*
X185979427Y-100362913D01*
X185963031Y-100341577D01*
X185938982Y-100300816D01*
X185917620Y-100255125D01*
X185902323Y-100212001D01*
X185896473Y-100178941D01*
X185895842Y-100173293D01*
X185887977Y-100163520D01*
X185867477Y-100156868D01*
X185829789Y-100151463D01*
X185823431Y-100150817D01*
X185777063Y-100148548D01*
X185721587Y-100148736D01*
X185667651Y-100151386D01*
X185572196Y-100158853D01*
X185572017Y-100159816D01*
X185564859Y-100198300D01*
X185547895Y-100260729D01*
X185510901Y-100331431D01*
X185457207Y-100388274D01*
X185386548Y-100431604D01*
X185378894Y-100435053D01*
X185361110Y-100441869D01*
X185341330Y-100446913D01*
X185316262Y-100450448D01*
X185282616Y-100452738D01*
X185237099Y-100454046D01*
X185176420Y-100454636D01*
X185097286Y-100454773D01*
X185051095Y-100454648D01*
X184953216Y-100453203D01*
X184873372Y-100449837D01*
X184808965Y-100444178D01*
X184757400Y-100435855D01*
X184716078Y-100424495D01*
X184682403Y-100409725D01*
X184653778Y-100391173D01*
X184651771Y-100389620D01*
X184608701Y-100342552D01*
X184580896Y-100282827D01*
X184570523Y-100215028D01*
X184568755Y-100189577D01*
X184560389Y-100170061D01*
X184541344Y-100157537D01*
X184520147Y-100149813D01*
X184508053Y-100149213D01*
X184507180Y-100151878D01*
X184506788Y-100171902D01*
X184411131Y-100171902D01*
X184408851Y-100140905D01*
X184604941Y-100140905D01*
X184605156Y-100200819D01*
X184606812Y-100218987D01*
X184620344Y-100281668D01*
X184646425Y-100329683D01*
X184687060Y-100364935D01*
X184744256Y-100389330D01*
X184820017Y-100404770D01*
X184840474Y-100407314D01*
X184907853Y-100413569D01*
X184984510Y-100418298D01*
X185064269Y-100421311D01*
X185140952Y-100422421D01*
X185208384Y-100421440D01*
X185260386Y-100418179D01*
X185299353Y-100412574D01*
X185376346Y-100389810D01*
X185437095Y-100352896D01*
X185482079Y-100301486D01*
X185511772Y-100235232D01*
X185516753Y-100217737D01*
X185527116Y-100159816D01*
X185524612Y-100137566D01*
X185940643Y-100137566D01*
X185942775Y-100190913D01*
X185961824Y-100257296D01*
X185980098Y-100296960D01*
X186017163Y-100345201D01*
X186067528Y-100380521D01*
X186133395Y-100404305D01*
X186216962Y-100417939D01*
X186247915Y-100420741D01*
X186313200Y-100424846D01*
X186376219Y-100425632D01*
X186444888Y-100423077D01*
X186527124Y-100417164D01*
X186620324Y-100407815D01*
X186695083Y-100395768D01*
X186752417Y-100379559D01*
X186794486Y-100357626D01*
X186823450Y-100328409D01*
X186841467Y-100290345D01*
X186850699Y-100241876D01*
X186853305Y-100181440D01*
X186852461Y-100138933D01*
X186847686Y-100101335D01*
X186836532Y-100076952D01*
X186816593Y-100061088D01*
X186785464Y-100049046D01*
X186748520Y-100039958D01*
X186682397Y-100029888D01*
X186602433Y-100022587D01*
X186513054Y-100018057D01*
X186418688Y-100016298D01*
X186323759Y-100017309D01*
X186232695Y-100021089D01*
X186149922Y-100027640D01*
X186079866Y-100036962D01*
X186026952Y-100049053D01*
X185988396Y-100065927D01*
X185955745Y-100096241D01*
X185940643Y-100137566D01*
X185524612Y-100137566D01*
X185522157Y-100115758D01*
X185500424Y-100083027D01*
X185460468Y-100059091D01*
X185400838Y-100041413D01*
X185398326Y-100040868D01*
X185334819Y-100030682D01*
X185256474Y-100023428D01*
X185167846Y-100019050D01*
X185073491Y-100017495D01*
X184977962Y-100018707D01*
X184885816Y-100022632D01*
X184801607Y-100029214D01*
X184729891Y-100038400D01*
X184675224Y-100050134D01*
X184671903Y-100051139D01*
X184636981Y-100068932D01*
X184615105Y-100097898D01*
X184604941Y-100140905D01*
X184408851Y-100140905D01*
X184402670Y-100056891D01*
X184369413Y-100042989D01*
X184341727Y-100027915D01*
X184338923Y-100025583D01*
X184504692Y-100025583D01*
X184505082Y-100051681D01*
X184508264Y-100078979D01*
X184516560Y-100095661D01*
X184532215Y-100108491D01*
X184532709Y-100108814D01*
X184552625Y-100120077D01*
X184562439Y-100122333D01*
X184563467Y-100120451D01*
X184571330Y-100104121D01*
X184583436Y-100077858D01*
X184588285Y-100068028D01*
X184609098Y-100040105D01*
X184639314Y-100019970D01*
X184683033Y-100005501D01*
X184744353Y-99994576D01*
X184806030Y-99987159D01*
X184910260Y-99978885D01*
X185016831Y-99975081D01*
X185122336Y-99975564D01*
X185223369Y-99980153D01*
X185316520Y-99988663D01*
X185398382Y-100000913D01*
X185465549Y-100016719D01*
X185514612Y-100035898D01*
X185514931Y-100036072D01*
X185536576Y-100055629D01*
X185553876Y-100083679D01*
X185568257Y-100118142D01*
X185732367Y-100114879D01*
X185896478Y-100111615D01*
X185912898Y-100079863D01*
X185920144Y-100067818D01*
X185941770Y-100045163D01*
X185973410Y-100026677D01*
X186017407Y-100011665D01*
X186076108Y-99999429D01*
X186151855Y-99989272D01*
X186246993Y-99980496D01*
X186252676Y-99980061D01*
X186330194Y-99976204D01*
X186415227Y-99975199D01*
X186502906Y-99976824D01*
X186588363Y-99980853D01*
X186666730Y-99987063D01*
X186733138Y-99995231D01*
X186782721Y-100005132D01*
X186795833Y-100009314D01*
X186838640Y-100031986D01*
X186872355Y-100063200D01*
X186890706Y-100097587D01*
X186890743Y-100097731D01*
X186899978Y-100119091D01*
X186913656Y-100120499D01*
X186934496Y-100102247D01*
X186934922Y-100101772D01*
X186942106Y-100091495D01*
X186947003Y-100077222D01*
X186949879Y-100055406D01*
X186951004Y-100022502D01*
X186950646Y-99974964D01*
X186949070Y-99909246D01*
X186948204Y-99878840D01*
X186946143Y-99821165D01*
X186943494Y-99778989D01*
X186939589Y-99747939D01*
X186933758Y-99723636D01*
X186925330Y-99701707D01*
X186913635Y-99677774D01*
X186877690Y-99612377D01*
X186814161Y-99518274D01*
X186745361Y-99443176D01*
X186669346Y-99385428D01*
X186584175Y-99343377D01*
X186487904Y-99315369D01*
X186487406Y-99315265D01*
X186447610Y-99307503D01*
X186423621Y-99305014D01*
X186410194Y-99307837D01*
X186402081Y-99316011D01*
X186384565Y-99340949D01*
X186361821Y-99364613D01*
X186335535Y-99377598D01*
X186297833Y-99385124D01*
X186293871Y-99385665D01*
X186239479Y-99390488D01*
X186169501Y-99393235D01*
X186089489Y-99393978D01*
X186004996Y-99392791D01*
X185921572Y-99389745D01*
X185844770Y-99384914D01*
X185780142Y-99378368D01*
X185685427Y-99363295D01*
X185554957Y-99335224D01*
X185420981Y-99299188D01*
X185289811Y-99257083D01*
X185167759Y-99210808D01*
X185061139Y-99162260D01*
X185043050Y-99153135D01*
X185015243Y-99139953D01*
X185000616Y-99135800D01*
X184994942Y-99140030D01*
X184993990Y-99151997D01*
X184988407Y-99175776D01*
X184973204Y-99212447D01*
X184951180Y-99256537D01*
X184925139Y-99302786D01*
X184897882Y-99345930D01*
X184872210Y-99380707D01*
X184870590Y-99382640D01*
X184837036Y-99418243D01*
X184794801Y-99457441D01*
X184752626Y-99492094D01*
X184743262Y-99499291D01*
X184686268Y-99549886D01*
X184639556Y-99605967D01*
X184600655Y-99671598D01*
X184567095Y-99750844D01*
X184536405Y-99847769D01*
X184533887Y-99856895D01*
X184518546Y-99921110D01*
X184508375Y-99979801D01*
X184504692Y-100025583D01*
X184338923Y-100025583D01*
X184320638Y-100010376D01*
X184301859Y-99993389D01*
X184274611Y-99975888D01*
X184256976Y-99967997D01*
X184242629Y-99968126D01*
X184226042Y-99979135D01*
X184200795Y-100003417D01*
X184184585Y-100021213D01*
X184153062Y-100062632D01*
X184127474Y-100104179D01*
X184119206Y-100120562D01*
X184107747Y-100148454D01*
X184101185Y-100177168D01*
X184098226Y-100213671D01*
X184097573Y-100264931D01*
X184000433Y-100264931D01*
X184004843Y-100199995D01*
X184016163Y-100150546D01*
X184038477Y-100088175D01*
X184067466Y-100027469D01*
X184099907Y-99975051D01*
X184132575Y-99937548D01*
X184140634Y-99930368D01*
X184159005Y-99911013D01*
X184163833Y-99895747D01*
X184158102Y-99877561D01*
X184149564Y-99848208D01*
X184145874Y-99813586D01*
X184144569Y-99796975D01*
X184137121Y-99758827D01*
X184125272Y-99718956D01*
X184121971Y-99709566D01*
X184094126Y-99614951D01*
X184069577Y-99504274D01*
X184048960Y-99382509D01*
X184032911Y-99254629D01*
X184022066Y-99125606D01*
X184017061Y-99000413D01*
X184018531Y-98884024D01*
X184019531Y-98864314D01*
X184032201Y-98733200D01*
X184054515Y-98605951D01*
X184085388Y-98486874D01*
X184123730Y-98380275D01*
X184168454Y-98290462D01*
X184182187Y-98268976D01*
X184228672Y-98208595D01*
X184286838Y-98145200D01*
X184351301Y-98084037D01*
X184416675Y-98030350D01*
X184477575Y-97989386D01*
X184514906Y-97966411D01*
X184559890Y-97932564D01*
X184585699Y-97903231D01*
X184593310Y-97890898D01*
X184645176Y-97825357D01*
X184714020Y-97760734D01*
X184795931Y-97699700D01*
X184887000Y-97644925D01*
X184983318Y-97599081D01*
X185080976Y-97564838D01*
X185144863Y-97549728D01*
X185239134Y-97534380D01*
X185346074Y-97522824D01*
X185460821Y-97515271D01*
X185578514Y-97511931D01*
X185694291Y-97513016D01*
X185803291Y-97518736D01*
X185900654Y-97529301D01*
X185967841Y-97540073D01*
X186176475Y-97587305D01*
X186376284Y-97654278D01*
X186568217Y-97741349D01*
X186753220Y-97848872D01*
X186753815Y-97849258D01*
X186820007Y-97893877D01*
X186878947Y-97937844D01*
X186934683Y-97984776D01*
X186991263Y-98038292D01*
X187052735Y-98102013D01*
X187123149Y-98179555D01*
X187126769Y-98183620D01*
X187193183Y-98256897D01*
X187248716Y-98315157D01*
X187295659Y-98360496D01*
X187336303Y-98395009D01*
X187372940Y-98420792D01*
X187407860Y-98439939D01*
X187422865Y-98447663D01*
X187454454Y-98467634D01*
X187475576Y-98486029D01*
X187491739Y-98519131D01*
X187491578Y-98558584D01*
X187474623Y-98596304D01*
X187442272Y-98626399D01*
X187418593Y-98641155D01*
X187400176Y-98653011D01*
X187396310Y-98658141D01*
X187393359Y-98673832D01*
X187393404Y-98702094D01*
X187396495Y-98745909D01*
X187402679Y-98808261D01*
X187402849Y-98809870D01*
X187408887Y-98879530D01*
X187413883Y-98960709D01*
X187417321Y-99043451D01*
X187418687Y-99117799D01*
X187418991Y-99152661D01*
X187421719Y-99233522D01*
X187427071Y-99299068D01*
X187434826Y-99346138D01*
X187441584Y-99376407D01*
X187448238Y-99412569D01*
X187450966Y-99436679D01*
X187450879Y-99439452D01*
X187440474Y-99466861D01*
X187417589Y-99494906D01*
X187389085Y-99516747D01*
X187361820Y-99525548D01*
X187357075Y-99525729D01*
X187347877Y-99528543D01*
X187339849Y-99537188D01*
X187331749Y-99554728D01*
X187322335Y-99584228D01*
X187310364Y-99628752D01*
X187294593Y-99691365D01*
X187286222Y-99724878D01*
X187272618Y-99778753D01*
X187261218Y-99823171D01*
X187253022Y-99854248D01*
X187249033Y-99868096D01*
X187251529Y-99876031D01*
X187266951Y-99894447D01*
X187292195Y-99917012D01*
X187338829Y-99961948D01*
X187391078Y-100036623D01*
X187430485Y-100125684D01*
X187446669Y-100194240D01*
X187447437Y-100211009D01*
X187450772Y-100283847D01*
X187438053Y-100373028D01*
X187408982Y-100454582D01*
X187369111Y-100523789D01*
X187307323Y-100597766D01*
X187233749Y-100653672D01*
X187147498Y-100692145D01*
X187047683Y-100713823D01*
X187015905Y-100718016D01*
X186979763Y-100724080D01*
X186957922Y-100730728D01*
X186945852Y-100739558D01*
X186939025Y-100752169D01*
X186936380Y-100758750D01*
X186915987Y-100800167D01*
X186886240Y-100851690D01*
X186850715Y-100907638D01*
X186812991Y-100962326D01*
X186776646Y-101010071D01*
X186757469Y-101033163D01*
X186701231Y-101094657D01*
X186641583Y-101149604D01*
X186574233Y-101201403D01*
X186494892Y-101253455D01*
X186399270Y-101309159D01*
X186287727Y-101371364D01*
X186347342Y-101400531D01*
X186371897Y-101414280D01*
X186411998Y-101442761D01*
X186442964Y-101471764D01*
X186446321Y-101475764D01*
X186456768Y-101490622D01*
X186482517Y-101527241D01*
X186522330Y-101597481D01*
G37*
G36*
X185793014Y-100249043D02*
G01*
X185799204Y-100260253D01*
X185803712Y-100282371D01*
X185807243Y-100319009D01*
X185810503Y-100373777D01*
X185813525Y-100417734D01*
X185818820Y-100467942D01*
X185825120Y-100508466D01*
X185831626Y-100533279D01*
X185835361Y-100543322D01*
X185838067Y-100582120D01*
X185819760Y-100615549D01*
X185780375Y-100643744D01*
X185770670Y-100648392D01*
X185743265Y-100658095D01*
X185725550Y-100659385D01*
X185720924Y-100656825D01*
X185712211Y-100639998D01*
X185715783Y-100619400D01*
X185730655Y-100605446D01*
X185743924Y-100599265D01*
X185767896Y-100583094D01*
X185772212Y-100579226D01*
X185780022Y-100567596D01*
X185778975Y-100551123D01*
X185769238Y-100522225D01*
X185766327Y-100513169D01*
X185758363Y-100471719D01*
X185753313Y-100418980D01*
X185751504Y-100362886D01*
X185753265Y-100311370D01*
X185758923Y-100272364D01*
X185768564Y-100250948D01*
X185785410Y-100245294D01*
X185793014Y-100249043D01*
G37*
G36*
X185983459Y-101607782D02*
G01*
X185978023Y-101613219D01*
X185972586Y-101607782D01*
X185978023Y-101602346D01*
X185983459Y-101607782D01*
G37*
G36*
X184971452Y-99740060D02*
G01*
X185052743Y-99747253D01*
X185125230Y-99760759D01*
X185195101Y-99781719D01*
X185268541Y-99811275D01*
X185270341Y-99812075D01*
X185313606Y-99834145D01*
X185337086Y-99852659D01*
X185340335Y-99867081D01*
X185322907Y-99876871D01*
X185315143Y-99878669D01*
X185261335Y-99882930D01*
X185199745Y-99877117D01*
X185139763Y-99861993D01*
X185094327Y-99847154D01*
X185024738Y-99826942D01*
X184950386Y-99807561D01*
X184877606Y-99790558D01*
X184812736Y-99777479D01*
X184762113Y-99769869D01*
X184755477Y-99769150D01*
X184717847Y-99763668D01*
X184699862Y-99757573D01*
X184699667Y-99750281D01*
X184715325Y-99745363D01*
X184750681Y-99741544D01*
X184803530Y-99739054D01*
X184871742Y-99738044D01*
X184875170Y-99738036D01*
X184971452Y-99740060D01*
G37*
G36*
X185487863Y-101581453D02*
G01*
X185488725Y-101591472D01*
X185486493Y-101594726D01*
X185477210Y-101602346D01*
X185476125Y-101602063D01*
X185472415Y-101591472D01*
X185472857Y-101588492D01*
X185483930Y-101580599D01*
X185487863Y-101581453D01*
G37*
G36*
X185602894Y-101651275D02*
G01*
X185597458Y-101656712D01*
X185592021Y-101651275D01*
X185597458Y-101645839D01*
X185602894Y-101651275D01*
G37*
G36*
X185407175Y-101586036D02*
G01*
X185401738Y-101591472D01*
X185396302Y-101586036D01*
X185401738Y-101580599D01*
X185407175Y-101586036D01*
G37*
G36*
X185561440Y-101584045D02*
G01*
X185566473Y-101587958D01*
X185554870Y-101590614D01*
X185543842Y-101589845D01*
X185540599Y-101584903D01*
X185544446Y-101582748D01*
X185561440Y-101584045D01*
G37*
G36*
X184863511Y-102146010D02*
G01*
X184862726Y-102151766D01*
X184856262Y-102153259D01*
X184854960Y-102151665D01*
X184856262Y-102138761D01*
X184859532Y-102137060D01*
X184863511Y-102146010D01*
G37*
G36*
X186606100Y-102197390D02*
G01*
X186605074Y-102215124D01*
X186602329Y-102224664D01*
X186598245Y-102231237D01*
X186594420Y-102217826D01*
X186593996Y-102215841D01*
X186588650Y-102204113D01*
X186579561Y-102212390D01*
X186578901Y-102213332D01*
X186571558Y-102222033D01*
X186573097Y-102212200D01*
X186576830Y-102204980D01*
X186594351Y-102194327D01*
X186606100Y-102197390D01*
G37*
G36*
X185649242Y-101582260D02*
G01*
X185651824Y-101591472D01*
X185649595Y-101594762D01*
X185640951Y-101602346D01*
X185639378Y-101601834D01*
X185630077Y-101591472D01*
X185629207Y-101585713D01*
X185640951Y-101580599D01*
X185649242Y-101582260D01*
G37*
G36*
X185604933Y-101584045D02*
G01*
X185609966Y-101587958D01*
X185598364Y-101590614D01*
X185587335Y-101589845D01*
X185584092Y-101584903D01*
X185587939Y-101582748D01*
X185604933Y-101584045D01*
G37*
G36*
X185374555Y-101504486D02*
G01*
X185373770Y-101510242D01*
X185367306Y-101511735D01*
X185366005Y-101510141D01*
X185367306Y-101497237D01*
X185370577Y-101495536D01*
X185374555Y-101504486D01*
G37*
G36*
X185374555Y-101531669D02*
G01*
X185369118Y-101537106D01*
X185363682Y-101531669D01*
X185369118Y-101526233D01*
X185374555Y-101531669D01*
G37*
G36*
X186426096Y-100060975D02*
G01*
X186502010Y-100063002D01*
X186586143Y-100066328D01*
X186649330Y-100070355D01*
X186692026Y-100075113D01*
X186714688Y-100080634D01*
X186732807Y-100092689D01*
X186744246Y-100117419D01*
X186735820Y-100148456D01*
X186707620Y-100184469D01*
X186687614Y-100203509D01*
X186666358Y-100218204D01*
X186650618Y-100218186D01*
X186635592Y-100204809D01*
X186629967Y-100196236D01*
X186630915Y-100181767D01*
X186647029Y-100161316D01*
X186672267Y-100134452D01*
X186635034Y-100134332D01*
X186597177Y-100132328D01*
X186558126Y-100127651D01*
X186550712Y-100126475D01*
X186527595Y-100125610D01*
X186513477Y-100135314D01*
X186499802Y-100160391D01*
X186495651Y-100169065D01*
X186484759Y-100190992D01*
X186479673Y-100199855D01*
X186477810Y-100200431D01*
X186461664Y-100206052D01*
X186434701Y-100215688D01*
X186432306Y-100216551D01*
X186401510Y-100227117D01*
X186381433Y-100230584D01*
X186362827Y-100227029D01*
X186336440Y-100216534D01*
X186336167Y-100216420D01*
X186302809Y-100194146D01*
X186275912Y-100162168D01*
X186264220Y-100144397D01*
X186244999Y-100127884D01*
X186219580Y-100123578D01*
X186192763Y-100128599D01*
X186161170Y-100146921D01*
X186150693Y-100156105D01*
X186134466Y-100163602D01*
X186119694Y-100156463D01*
X186114971Y-100152251D01*
X186104411Y-100134151D01*
X186110863Y-100113428D01*
X186135235Y-100085953D01*
X186167405Y-100055132D01*
X186426096Y-100060975D01*
G37*
G36*
X184820017Y-102276489D02*
G01*
X184819233Y-102282246D01*
X184812769Y-102283738D01*
X184811467Y-102282145D01*
X184812769Y-102269241D01*
X184816039Y-102267539D01*
X184820017Y-102276489D01*
G37*
G36*
X185523157Y-101584223D02*
G01*
X185524858Y-101587494D01*
X185515908Y-101591472D01*
X185510152Y-101590688D01*
X185508659Y-101584223D01*
X185510253Y-101582922D01*
X185523157Y-101584223D01*
G37*
G36*
X145211189Y-99903470D02*
G01*
X145231881Y-99928856D01*
X145238211Y-99953989D01*
X145224662Y-99974923D01*
X145221068Y-99977526D01*
X145204971Y-99979319D01*
X145182173Y-99965381D01*
X145166229Y-99954552D01*
X145129630Y-99943037D01*
X145097505Y-99951663D01*
X145072500Y-99980075D01*
X145071247Y-99982316D01*
X145047403Y-100012084D01*
X145018379Y-100034113D01*
X144998035Y-100042112D01*
X144951460Y-100046585D01*
X144906177Y-100035338D01*
X144868289Y-100010469D01*
X144843898Y-99974077D01*
X144831687Y-99941647D01*
X144761011Y-99949122D01*
X144725958Y-99953318D01*
X144698168Y-99957637D01*
X144685870Y-99960894D01*
X144687366Y-99968575D01*
X144699462Y-99985143D01*
X144711274Y-100000569D01*
X144715954Y-100021385D01*
X144700420Y-100034799D01*
X144680622Y-100036379D01*
X144650845Y-100021421D01*
X144620414Y-99988134D01*
X144615039Y-99980298D01*
X144600157Y-99948991D01*
X144603487Y-99925057D01*
X144625266Y-99904410D01*
X144635985Y-99899032D01*
X144653195Y-99894278D01*
X144678727Y-99890502D01*
X144715267Y-99887488D01*
X144765500Y-99885019D01*
X144832110Y-99882880D01*
X144917782Y-99880855D01*
X145182943Y-99875224D01*
X145211189Y-99903470D01*
G37*
G36*
X146503600Y-102017390D02*
G01*
X146502574Y-102035124D01*
X146499829Y-102044664D01*
X146495745Y-102051237D01*
X146491920Y-102037826D01*
X146491496Y-102035841D01*
X146486150Y-102024113D01*
X146477061Y-102032390D01*
X146476401Y-102033332D01*
X146469058Y-102042033D01*
X146470597Y-102032200D01*
X146474330Y-102024980D01*
X146491851Y-102014327D01*
X146503600Y-102017390D01*
G37*
G36*
X146544230Y-102101926D02*
G01*
X146538793Y-102107363D01*
X146533356Y-102101926D01*
X146538793Y-102096489D01*
X146544230Y-102101926D01*
G37*
G36*
X145546742Y-101402260D02*
G01*
X145549324Y-101411472D01*
X145547095Y-101414762D01*
X145538451Y-101422346D01*
X145536878Y-101421834D01*
X145527577Y-101411472D01*
X145526707Y-101405713D01*
X145538451Y-101400599D01*
X145546742Y-101402260D01*
G37*
G36*
X144750137Y-102014940D02*
G01*
X144744701Y-102020376D01*
X144739264Y-102014940D01*
X144744701Y-102009503D01*
X144750137Y-102014940D01*
G37*
G36*
X145380788Y-101438655D02*
G01*
X145375351Y-101444092D01*
X145369915Y-101438655D01*
X145375351Y-101433219D01*
X145380788Y-101438655D01*
G37*
G36*
X145765153Y-100919461D02*
G01*
X145780381Y-100920619D01*
X145787525Y-100925616D01*
X145793973Y-100944178D01*
X145792004Y-100955163D01*
X145780381Y-100969484D01*
X145776876Y-100970260D01*
X145754418Y-100971937D01*
X145716125Y-100973031D01*
X145666270Y-100973452D01*
X145609127Y-100973109D01*
X145581306Y-100972741D01*
X145527853Y-100971747D01*
X145491388Y-100970170D01*
X145468544Y-100967469D01*
X145455953Y-100963102D01*
X145450249Y-100956528D01*
X145448064Y-100947206D01*
X145447412Y-100941534D01*
X145448683Y-100933901D01*
X145455747Y-100928620D01*
X145471793Y-100925142D01*
X145500012Y-100922916D01*
X145543593Y-100921393D01*
X145605727Y-100920022D01*
X145631208Y-100919554D01*
X145686349Y-100918914D01*
X145732403Y-100918888D01*
X145765153Y-100919461D01*
G37*
G36*
X145272055Y-101324486D02*
G01*
X145271270Y-101330242D01*
X145264806Y-101331735D01*
X145263505Y-101330141D01*
X145264806Y-101317237D01*
X145268077Y-101315536D01*
X145272055Y-101324486D01*
G37*
G36*
X145880959Y-101427782D02*
G01*
X145875523Y-101433219D01*
X145870086Y-101427782D01*
X145875523Y-101422346D01*
X145880959Y-101427782D01*
G37*
G36*
X145502433Y-101404045D02*
G01*
X145507466Y-101407958D01*
X145495864Y-101410614D01*
X145484835Y-101409845D01*
X145481592Y-101404903D01*
X145485439Y-101402748D01*
X145502433Y-101404045D01*
G37*
G36*
X146011439Y-101340796D02*
G01*
X146006002Y-101346233D01*
X146000565Y-101340796D01*
X146006002Y-101335359D01*
X146011439Y-101340796D01*
G37*
G36*
X145467774Y-101471275D02*
G01*
X145462338Y-101476712D01*
X145456901Y-101471275D01*
X145462338Y-101465839D01*
X145467774Y-101471275D01*
G37*
G36*
X146323596Y-99880975D02*
G01*
X146399510Y-99883002D01*
X146483643Y-99886328D01*
X146546830Y-99890355D01*
X146589526Y-99895113D01*
X146612188Y-99900634D01*
X146630307Y-99912689D01*
X146641746Y-99937419D01*
X146633320Y-99968456D01*
X146605120Y-100004469D01*
X146585114Y-100023509D01*
X146563858Y-100038204D01*
X146548118Y-100038186D01*
X146533092Y-100024809D01*
X146527467Y-100016236D01*
X146528415Y-100001767D01*
X146544529Y-99981316D01*
X146569767Y-99954452D01*
X146532534Y-99954332D01*
X146494677Y-99952328D01*
X146455626Y-99947651D01*
X146448212Y-99946475D01*
X146425095Y-99945610D01*
X146410977Y-99955314D01*
X146397302Y-99980391D01*
X146393151Y-99989065D01*
X146382259Y-100010992D01*
X146377173Y-100019855D01*
X146375310Y-100020431D01*
X146359164Y-100026052D01*
X146332201Y-100035688D01*
X146329806Y-100036551D01*
X146299010Y-100047117D01*
X146278933Y-100050584D01*
X146260327Y-100047029D01*
X146233940Y-100036534D01*
X146233667Y-100036420D01*
X146200309Y-100014146D01*
X146173412Y-99982168D01*
X146161720Y-99964397D01*
X146142499Y-99947884D01*
X146117080Y-99943578D01*
X146090263Y-99948599D01*
X146058670Y-99966921D01*
X146048193Y-99976105D01*
X146031966Y-99983602D01*
X146017194Y-99976463D01*
X146012471Y-99972251D01*
X146001911Y-99954151D01*
X146008363Y-99933428D01*
X146032735Y-99905953D01*
X146064905Y-99875132D01*
X146323596Y-99880975D01*
G37*
G36*
X145772226Y-101498459D02*
G01*
X145771442Y-101504215D01*
X145764978Y-101505707D01*
X145763676Y-101504114D01*
X145764978Y-101491210D01*
X145768248Y-101489509D01*
X145772226Y-101498459D01*
G37*
G36*
X145442403Y-101469463D02*
G01*
X145444104Y-101472734D01*
X145435154Y-101476712D01*
X145429398Y-101475927D01*
X145427906Y-101469463D01*
X145429499Y-101468162D01*
X145442403Y-101469463D01*
G37*
G36*
X145385363Y-101401453D02*
G01*
X145386225Y-101411472D01*
X145383993Y-101414726D01*
X145374710Y-101422346D01*
X145373625Y-101422063D01*
X145369915Y-101411472D01*
X145370357Y-101408492D01*
X145381430Y-101400599D01*
X145385363Y-101401453D01*
G37*
G36*
X145458940Y-101404045D02*
G01*
X145463973Y-101407958D01*
X145452370Y-101410614D01*
X145441342Y-101409845D01*
X145438099Y-101404903D01*
X145441946Y-101402748D01*
X145458940Y-101404045D01*
G37*
G36*
X145909955Y-101338984D02*
G01*
X145911656Y-101342254D01*
X145902706Y-101346233D01*
X145896950Y-101345448D01*
X145895457Y-101338984D01*
X145897051Y-101337682D01*
X145909955Y-101338984D01*
G37*
G36*
X146464996Y-99553844D02*
G01*
X146516625Y-99555573D01*
X146564695Y-99558688D01*
X146604661Y-99562898D01*
X146631974Y-99567913D01*
X146642089Y-99573440D01*
X146639674Y-99575627D01*
X146620985Y-99581408D01*
X146587831Y-99588000D01*
X146545043Y-99594361D01*
X146537377Y-99595420D01*
X146486939Y-99604598D01*
X146424462Y-99618622D01*
X146357158Y-99635781D01*
X146292239Y-99654363D01*
X146227191Y-99673356D01*
X146154748Y-99691340D01*
X146096972Y-99701041D01*
X146050935Y-99702909D01*
X146013712Y-99697397D01*
X145995740Y-99688891D01*
X145995479Y-99676236D01*
X146015193Y-99659180D01*
X146055370Y-99637014D01*
X146099441Y-99617668D01*
X146184779Y-99589332D01*
X146277073Y-99567939D01*
X146367225Y-99555859D01*
X146369251Y-99555706D01*
X146414356Y-99553791D01*
X146464996Y-99553844D01*
G37*
G36*
X145359041Y-101406036D02*
G01*
X145353605Y-101411472D01*
X145348168Y-101406036D01*
X145353605Y-101400599D01*
X145359041Y-101406036D01*
G37*
G36*
X145500394Y-101471275D02*
G01*
X145494958Y-101476712D01*
X145489521Y-101471275D01*
X145494958Y-101465839D01*
X145500394Y-101471275D01*
G37*
G36*
X146419830Y-101417481D02*
G01*
X146462274Y-101504235D01*
X146506362Y-101605256D01*
X146551109Y-101718296D01*
X146595528Y-101841109D01*
X146638635Y-101971447D01*
X146645857Y-101994300D01*
X146662529Y-102046985D01*
X146676551Y-102091188D01*
X146686625Y-102122822D01*
X146691453Y-102137803D01*
X146688817Y-102145918D01*
X146671453Y-102149331D01*
X146635983Y-102148676D01*
X146575779Y-102145419D01*
X146549241Y-102069306D01*
X146548037Y-102065857D01*
X146534106Y-102026651D01*
X146522377Y-101994789D01*
X146515281Y-101976883D01*
X146510361Y-101962425D01*
X146504852Y-101934851D01*
X146501737Y-101917596D01*
X146496159Y-101903441D01*
X146492060Y-101902789D01*
X146484068Y-101914377D01*
X146477055Y-101936011D01*
X146473141Y-101960256D01*
X146474441Y-101979681D01*
X146476734Y-101994100D01*
X146468021Y-101993134D01*
X146463760Y-101992038D01*
X146459036Y-102000555D01*
X146457538Y-102024870D01*
X146458913Y-102067886D01*
X146463103Y-102150856D01*
X144771884Y-102150856D01*
X144771884Y-102128468D01*
X144773580Y-102115887D01*
X144780039Y-102111114D01*
X144784641Y-102111113D01*
X144789675Y-102097284D01*
X144790901Y-102070201D01*
X144788533Y-102035040D01*
X144782783Y-101996974D01*
X144773865Y-101961177D01*
X144753558Y-101897059D01*
X144741433Y-101931841D01*
X144740991Y-101933135D01*
X144734812Y-101962270D01*
X144736134Y-101984410D01*
X144738300Y-101993778D01*
X144732178Y-101995534D01*
X144730780Y-101995267D01*
X144721506Y-102005642D01*
X144708885Y-102031879D01*
X144694992Y-102069829D01*
X144668588Y-102150788D01*
X144627080Y-102150822D01*
X144604124Y-102149828D01*
X144591096Y-102144355D01*
X144591068Y-102131828D01*
X144591884Y-102128948D01*
X144598005Y-102106744D01*
X144608236Y-102069229D01*
X144621370Y-102020839D01*
X144636200Y-101966010D01*
X144675088Y-101827772D01*
X144715465Y-101697868D01*
X144754745Y-101586563D01*
X144793529Y-101492285D01*
X144832417Y-101413461D01*
X144872010Y-101348517D01*
X144899003Y-101316687D01*
X144927258Y-101292434D01*
X145211126Y-101292434D01*
X145211556Y-101306294D01*
X145212050Y-101309598D01*
X145220179Y-101336773D01*
X145233901Y-101367907D01*
X145235909Y-101371758D01*
X145248055Y-101392526D01*
X145255296Y-101395953D01*
X145261291Y-101384217D01*
X145266029Y-101373468D01*
X145270845Y-101375507D01*
X145276617Y-101396972D01*
X145276840Y-101397950D01*
X145286827Y-101423429D01*
X145299903Y-101437406D01*
X145306494Y-101438875D01*
X145314345Y-101432734D01*
X145317115Y-101412075D01*
X145315662Y-101373416D01*
X145315561Y-101371780D01*
X145316179Y-101351898D01*
X145320232Y-101347424D01*
X145322607Y-101352630D01*
X145326730Y-101374977D01*
X145329425Y-101407227D01*
X145330536Y-101426553D01*
X145334493Y-101449486D01*
X145343808Y-101459910D01*
X145361944Y-101463860D01*
X145381230Y-101469145D01*
X145385871Y-101477285D01*
X145386905Y-101484803D01*
X145401349Y-101499137D01*
X145425177Y-101514229D01*
X145451898Y-101526167D01*
X145475023Y-101531038D01*
X145489898Y-101533517D01*
X145502698Y-101543426D01*
X145505560Y-101545082D01*
X145512590Y-101534081D01*
X145521027Y-101512210D01*
X145528856Y-101485739D01*
X145534059Y-101460942D01*
X145534349Y-101452247D01*
X145609512Y-101452247D01*
X145616047Y-101461209D01*
X145636310Y-101465839D01*
X145645950Y-101465502D01*
X145660073Y-101460246D01*
X145661549Y-101444938D01*
X145651801Y-101414898D01*
X145640108Y-101384289D01*
X145717860Y-101384289D01*
X145719406Y-101391841D01*
X145731452Y-101400765D01*
X145737882Y-101402584D01*
X145729236Y-101410932D01*
X145726790Y-101412579D01*
X145719030Y-101425099D01*
X145725457Y-101444938D01*
X145725834Y-101446103D01*
X145734525Y-101465761D01*
X145744774Y-101494736D01*
X145749949Y-101507477D01*
X145768197Y-101524526D01*
X145789967Y-101525653D01*
X145808578Y-101511841D01*
X145817349Y-101484070D01*
X145817352Y-101483992D01*
X145818679Y-101461915D01*
X145820341Y-101460687D01*
X145823507Y-101479427D01*
X145826048Y-101492663D01*
X145833488Y-101503145D01*
X145849061Y-101498072D01*
X145861506Y-101487032D01*
X145871347Y-101462738D01*
X145871526Y-101459657D01*
X145873599Y-101448046D01*
X145877511Y-101457322D01*
X145878716Y-101461430D01*
X145886577Y-101470176D01*
X145903433Y-101462861D01*
X145915307Y-101451477D01*
X145922476Y-101429648D01*
X145924452Y-101392547D01*
X145924490Y-101389726D01*
X145937186Y-101389726D01*
X145938169Y-101404372D01*
X145943848Y-101427997D01*
X145953764Y-101430690D01*
X145967563Y-101412187D01*
X145970424Y-101406490D01*
X145978891Y-101376362D01*
X145974202Y-101354602D01*
X145957151Y-101346233D01*
X145944216Y-101348850D01*
X145937756Y-101361418D01*
X145937186Y-101389726D01*
X145924490Y-101389726D01*
X145924804Y-101366491D01*
X145927721Y-101345573D01*
X145935804Y-101337007D01*
X145951636Y-101335359D01*
X145989692Y-101335359D01*
X145989900Y-101354915D01*
X145990860Y-101376362D01*
X145991020Y-101379938D01*
X145992784Y-101389726D01*
X145993163Y-101389583D01*
X146001149Y-101379426D01*
X146014531Y-101358146D01*
X146022886Y-101342385D01*
X146032666Y-101310622D01*
X146028803Y-101288986D01*
X146011439Y-101280993D01*
X146006409Y-101281225D01*
X145995697Y-101286487D01*
X145994845Y-101289338D01*
X145990837Y-101302750D01*
X145990265Y-101319049D01*
X145989692Y-101335359D01*
X145951636Y-101335359D01*
X145969367Y-101332167D01*
X145978819Y-101319049D01*
X145977500Y-101310613D01*
X145964563Y-101303328D01*
X145937896Y-101312819D01*
X145926666Y-101318292D01*
X145898811Y-101329239D01*
X145891502Y-101332410D01*
X145882615Y-101345961D01*
X145883036Y-101373526D01*
X145883210Y-101375073D01*
X145882910Y-101401743D01*
X145875222Y-101411472D01*
X145867753Y-101403113D01*
X145867767Y-101378852D01*
X145869308Y-101364223D01*
X145865356Y-101349681D01*
X145849573Y-101346233D01*
X145849034Y-101346235D01*
X145831497Y-101352301D01*
X145826593Y-101373416D01*
X145829970Y-101391343D01*
X145840184Y-101400765D01*
X145847015Y-101401940D01*
X145841815Y-101408920D01*
X145836339Y-101413661D01*
X145823645Y-101433219D01*
X145821683Y-101435988D01*
X145818300Y-101427491D01*
X145816578Y-101403317D01*
X145814607Y-101375030D01*
X145807969Y-101360656D01*
X145793973Y-101357106D01*
X145780226Y-101360495D01*
X145772226Y-101378211D01*
X145770635Y-101390657D01*
X145762367Y-101405409D01*
X145757483Y-101404456D01*
X145758199Y-101389741D01*
X145758221Y-101389654D01*
X145757786Y-101372578D01*
X145740875Y-101367979D01*
X145727042Y-101371037D01*
X145717860Y-101384289D01*
X145640108Y-101384289D01*
X145639183Y-101385954D01*
X145625003Y-101411472D01*
X145614774Y-101433230D01*
X145609512Y-101452247D01*
X145534349Y-101452247D01*
X145534621Y-101444092D01*
X145533905Y-101436761D01*
X145539065Y-101435773D01*
X145539159Y-101435863D01*
X145549192Y-101433036D01*
X145561845Y-101415501D01*
X145566629Y-101406147D01*
X145575045Y-101385954D01*
X145571375Y-101379259D01*
X145554761Y-101382003D01*
X145541705Y-101383679D01*
X145533014Y-101379069D01*
X145531121Y-101376373D01*
X145514324Y-101369408D01*
X145485799Y-101363368D01*
X145476475Y-101361954D01*
X145439223Y-101356057D01*
X145409686Y-101351047D01*
X145405241Y-101350311D01*
X145385772Y-101351508D01*
X145379704Y-101365048D01*
X145379634Y-101366142D01*
X145376816Y-101372191D01*
X145371059Y-101357106D01*
X145362446Y-101339803D01*
X145342241Y-101329923D01*
X145329633Y-101328513D01*
X145314573Y-101321228D01*
X145310125Y-101317791D01*
X145289150Y-101308132D01*
X145258538Y-101297599D01*
X145235771Y-101290948D01*
X145227031Y-101289367D01*
X145418157Y-101289367D01*
X145419158Y-101289851D01*
X145434893Y-101293921D01*
X145465354Y-101300492D01*
X145505194Y-101308395D01*
X145508287Y-101308981D01*
X145555935Y-101316686D01*
X145601158Y-101321936D01*
X145634548Y-101323622D01*
X145660508Y-101321558D01*
X145703607Y-101315574D01*
X145751756Y-101307208D01*
X145796234Y-101297997D01*
X145828318Y-101289479D01*
X145828517Y-101289338D01*
X145818214Y-101288416D01*
X145789729Y-101287618D01*
X145746179Y-101286989D01*
X145690679Y-101286577D01*
X145626343Y-101286429D01*
X145617708Y-101286432D01*
X145553761Y-101286610D01*
X145498589Y-101287039D01*
X145455437Y-101287672D01*
X145427545Y-101288463D01*
X145418157Y-101289367D01*
X145227031Y-101289367D01*
X145217473Y-101287638D01*
X145211126Y-101292434D01*
X144927258Y-101292434D01*
X144946480Y-101275934D01*
X145001446Y-101240192D01*
X145056222Y-101215023D01*
X145095911Y-101201296D01*
X145012729Y-101158763D01*
X144970515Y-101136833D01*
X144887702Y-101090800D01*
X144817985Y-101046553D01*
X144756207Y-101000379D01*
X144697208Y-100948563D01*
X144635831Y-100887392D01*
X144598408Y-100847647D01*
X144555636Y-100799005D01*
X144521544Y-100754711D01*
X144491668Y-100708827D01*
X144461545Y-100655411D01*
X144437664Y-100611202D01*
X144418367Y-100577562D01*
X144403863Y-100556987D01*
X144391300Y-100546254D01*
X144377821Y-100542139D01*
X144360572Y-100541420D01*
X144333152Y-100539487D01*
X144290990Y-100533730D01*
X144246468Y-100525515D01*
X144193330Y-100511100D01*
X144110032Y-100472310D01*
X144038812Y-100415706D01*
X143978460Y-100340453D01*
X143936411Y-100266460D01*
X143907439Y-100187028D01*
X143896468Y-100106493D01*
X143897933Y-100084931D01*
X143995073Y-100084931D01*
X143995352Y-100120083D01*
X143997311Y-100160219D01*
X144002333Y-100190044D01*
X144011782Y-100216464D01*
X144027027Y-100246382D01*
X144046063Y-100277030D01*
X144097362Y-100337330D01*
X144158695Y-100387342D01*
X144223717Y-100421419D01*
X144248403Y-100429529D01*
X144291599Y-100439753D01*
X144327220Y-100443750D01*
X144327494Y-100443750D01*
X144355034Y-100442365D01*
X144365789Y-100436488D01*
X144364608Y-100423491D01*
X144355950Y-100391050D01*
X144343849Y-100328696D01*
X144332441Y-100250415D01*
X144322206Y-100159625D01*
X144313622Y-100059743D01*
X144308631Y-99991902D01*
X144404288Y-99991902D01*
X144406223Y-100027376D01*
X144410033Y-100073908D01*
X144415268Y-100127106D01*
X144421476Y-100182578D01*
X144428206Y-100235930D01*
X144435008Y-100282770D01*
X144441431Y-100318707D01*
X144471364Y-100436488D01*
X144472265Y-100440032D01*
X144515478Y-100555861D01*
X144571334Y-100660125D01*
X144642280Y-100757336D01*
X144730764Y-100852003D01*
X144805800Y-100918192D01*
X144931831Y-101006916D01*
X145070397Y-101080833D01*
X145218107Y-101138223D01*
X145371573Y-101177364D01*
X145390021Y-101180497D01*
X145437541Y-101186684D01*
X145493770Y-101192264D01*
X145553654Y-101196919D01*
X145612145Y-101200329D01*
X145664189Y-101202176D01*
X145704735Y-101202141D01*
X145728733Y-101199905D01*
X145733961Y-101198837D01*
X145758990Y-101194696D01*
X145797114Y-101188992D01*
X145842397Y-101182627D01*
X145934718Y-101165166D01*
X146056180Y-101129880D01*
X146178353Y-101082147D01*
X146294390Y-101024712D01*
X146397440Y-100960318D01*
X146405860Y-100954203D01*
X146464612Y-100905633D01*
X146527748Y-100845040D01*
X146589717Y-100778344D01*
X146644969Y-100711471D01*
X146687952Y-100650342D01*
X146697785Y-100634052D01*
X146752503Y-100521354D01*
X146777813Y-100443750D01*
X146884810Y-100443750D01*
X146929268Y-100443741D01*
X146947939Y-100442294D01*
X146998602Y-100429060D01*
X147054115Y-100404747D01*
X147107507Y-100372721D01*
X147151807Y-100336344D01*
X147163453Y-100324389D01*
X147201919Y-100277183D01*
X147227203Y-100228283D01*
X147241953Y-100171220D01*
X147248823Y-100099519D01*
X147249919Y-100073350D01*
X147250257Y-100031009D01*
X147247085Y-99999532D01*
X147239360Y-99971615D01*
X147226038Y-99939952D01*
X147204376Y-99900438D01*
X147174781Y-99857964D01*
X147142373Y-99819422D01*
X147111464Y-99789918D01*
X147086365Y-99774557D01*
X147073333Y-99773987D01*
X147049725Y-99785198D01*
X147016935Y-99812199D01*
X146994434Y-99831872D01*
X146980499Y-99842502D01*
X146971045Y-99849714D01*
X146957658Y-99856592D01*
X146957130Y-99856666D01*
X146951569Y-99868531D01*
X146947879Y-99898103D01*
X146946541Y-99941690D01*
X146946045Y-99964488D01*
X146945338Y-99996968D01*
X146939728Y-100087967D01*
X146930360Y-100183689D01*
X146918143Y-100275320D01*
X146903988Y-100354045D01*
X146884810Y-100443750D01*
X146777813Y-100443750D01*
X146795101Y-100390740D01*
X146825541Y-100242358D01*
X146843780Y-100076358D01*
X146851543Y-99964488D01*
X146824336Y-99976884D01*
X146821238Y-99978360D01*
X146805582Y-99990413D01*
X146800772Y-100001440D01*
X146796625Y-100010947D01*
X146791215Y-100046591D01*
X146789969Y-100056966D01*
X146772589Y-100124101D01*
X146741513Y-100179914D01*
X146698959Y-100220226D01*
X146676725Y-100232814D01*
X146640050Y-100247011D01*
X146594011Y-100257928D01*
X146536146Y-100265876D01*
X146463991Y-100271169D01*
X146375084Y-100274119D01*
X146266961Y-100275038D01*
X146210465Y-100274998D01*
X146144861Y-100274639D01*
X146095316Y-100273666D01*
X146058466Y-100271786D01*
X146030948Y-100268707D01*
X146009399Y-100264140D01*
X145990455Y-100257791D01*
X145970755Y-100249370D01*
X145949919Y-100238625D01*
X145909212Y-100211571D01*
X145876927Y-100182913D01*
X145860531Y-100161577D01*
X145836482Y-100120816D01*
X145815120Y-100075125D01*
X145799823Y-100032001D01*
X145793973Y-99998941D01*
X145793342Y-99993293D01*
X145785477Y-99983520D01*
X145764977Y-99976868D01*
X145727289Y-99971463D01*
X145720931Y-99970817D01*
X145674563Y-99968548D01*
X145619087Y-99968736D01*
X145565151Y-99971386D01*
X145469696Y-99978853D01*
X145469517Y-99979816D01*
X145462359Y-100018300D01*
X145445395Y-100080729D01*
X145408401Y-100151431D01*
X145354707Y-100208274D01*
X145284048Y-100251604D01*
X145276394Y-100255053D01*
X145258610Y-100261869D01*
X145238830Y-100266913D01*
X145213762Y-100270448D01*
X145180116Y-100272738D01*
X145134599Y-100274046D01*
X145073920Y-100274636D01*
X144994786Y-100274773D01*
X144948595Y-100274648D01*
X144850716Y-100273203D01*
X144770872Y-100269837D01*
X144706465Y-100264178D01*
X144654900Y-100255855D01*
X144613578Y-100244495D01*
X144579903Y-100229725D01*
X144551278Y-100211173D01*
X144549271Y-100209620D01*
X144506201Y-100162552D01*
X144478396Y-100102827D01*
X144468023Y-100035028D01*
X144466255Y-100009577D01*
X144457889Y-99990061D01*
X144438844Y-99977537D01*
X144417647Y-99969813D01*
X144405553Y-99969213D01*
X144404680Y-99971878D01*
X144404288Y-99991902D01*
X144308631Y-99991902D01*
X144306351Y-99960905D01*
X144502441Y-99960905D01*
X144502656Y-100020819D01*
X144504312Y-100038987D01*
X144517844Y-100101668D01*
X144543925Y-100149683D01*
X144584560Y-100184935D01*
X144641756Y-100209330D01*
X144717517Y-100224770D01*
X144737974Y-100227314D01*
X144805353Y-100233569D01*
X144882010Y-100238298D01*
X144961769Y-100241311D01*
X145038452Y-100242421D01*
X145105884Y-100241440D01*
X145157886Y-100238179D01*
X145196853Y-100232574D01*
X145273846Y-100209810D01*
X145334595Y-100172896D01*
X145379579Y-100121486D01*
X145409272Y-100055232D01*
X145414253Y-100037737D01*
X145424616Y-99979816D01*
X145422112Y-99957566D01*
X145838143Y-99957566D01*
X145840275Y-100010913D01*
X145859324Y-100077296D01*
X145877598Y-100116960D01*
X145914663Y-100165201D01*
X145965028Y-100200521D01*
X146030895Y-100224305D01*
X146114462Y-100237939D01*
X146145415Y-100240741D01*
X146210700Y-100244846D01*
X146273719Y-100245632D01*
X146342388Y-100243077D01*
X146424624Y-100237164D01*
X146517824Y-100227815D01*
X146592583Y-100215768D01*
X146649917Y-100199559D01*
X146691986Y-100177626D01*
X146720950Y-100148409D01*
X146738967Y-100110345D01*
X146748199Y-100061876D01*
X146750805Y-100001440D01*
X146749961Y-99958933D01*
X146745186Y-99921335D01*
X146734032Y-99896952D01*
X146714093Y-99881088D01*
X146682964Y-99869046D01*
X146646020Y-99859958D01*
X146579897Y-99849888D01*
X146499933Y-99842587D01*
X146410554Y-99838057D01*
X146316188Y-99836298D01*
X146221259Y-99837309D01*
X146130195Y-99841089D01*
X146047422Y-99847640D01*
X145977366Y-99856962D01*
X145924452Y-99869053D01*
X145885896Y-99885927D01*
X145853245Y-99916241D01*
X145838143Y-99957566D01*
X145422112Y-99957566D01*
X145419657Y-99935758D01*
X145397924Y-99903027D01*
X145357968Y-99879091D01*
X145298338Y-99861413D01*
X145295826Y-99860868D01*
X145232319Y-99850682D01*
X145153974Y-99843428D01*
X145065346Y-99839050D01*
X144970991Y-99837495D01*
X144875462Y-99838707D01*
X144783316Y-99842632D01*
X144699107Y-99849214D01*
X144627391Y-99858400D01*
X144572724Y-99870134D01*
X144569403Y-99871139D01*
X144534481Y-99888932D01*
X144512605Y-99917898D01*
X144502441Y-99960905D01*
X144306351Y-99960905D01*
X144300170Y-99876891D01*
X144266913Y-99862989D01*
X144239227Y-99847915D01*
X144236423Y-99845583D01*
X144402192Y-99845583D01*
X144402582Y-99871681D01*
X144405764Y-99898979D01*
X144414060Y-99915661D01*
X144429715Y-99928491D01*
X144430209Y-99928814D01*
X144450125Y-99940077D01*
X144459939Y-99942333D01*
X144460967Y-99940451D01*
X144468830Y-99924121D01*
X144480936Y-99897858D01*
X144485785Y-99888028D01*
X144506598Y-99860105D01*
X144536814Y-99839970D01*
X144580533Y-99825501D01*
X144641853Y-99814576D01*
X144703530Y-99807159D01*
X144807760Y-99798885D01*
X144914331Y-99795081D01*
X145019836Y-99795564D01*
X145120869Y-99800153D01*
X145214020Y-99808663D01*
X145295882Y-99820913D01*
X145363049Y-99836719D01*
X145412112Y-99855898D01*
X145412431Y-99856072D01*
X145434076Y-99875629D01*
X145451376Y-99903679D01*
X145465757Y-99938142D01*
X145629867Y-99934879D01*
X145793978Y-99931615D01*
X145810398Y-99899863D01*
X145817644Y-99887818D01*
X145839270Y-99865163D01*
X145870910Y-99846677D01*
X145914907Y-99831665D01*
X145973608Y-99819429D01*
X146049355Y-99809272D01*
X146144493Y-99800496D01*
X146150176Y-99800061D01*
X146227694Y-99796204D01*
X146312727Y-99795199D01*
X146400406Y-99796824D01*
X146485863Y-99800853D01*
X146564230Y-99807063D01*
X146630638Y-99815231D01*
X146680221Y-99825132D01*
X146693333Y-99829314D01*
X146736140Y-99851986D01*
X146769855Y-99883200D01*
X146788206Y-99917587D01*
X146788243Y-99917731D01*
X146797478Y-99939091D01*
X146811156Y-99940499D01*
X146831996Y-99922247D01*
X146832422Y-99921772D01*
X146839606Y-99911495D01*
X146844503Y-99897222D01*
X146847379Y-99875406D01*
X146848504Y-99842502D01*
X146848146Y-99794964D01*
X146846570Y-99729246D01*
X146845704Y-99698840D01*
X146843643Y-99641165D01*
X146840994Y-99598989D01*
X146837089Y-99567939D01*
X146831258Y-99543636D01*
X146822830Y-99521707D01*
X146811135Y-99497774D01*
X146775190Y-99432377D01*
X146711661Y-99338274D01*
X146642861Y-99263176D01*
X146566846Y-99205428D01*
X146481675Y-99163377D01*
X146385404Y-99135369D01*
X146384906Y-99135265D01*
X146345110Y-99127503D01*
X146321121Y-99125014D01*
X146307694Y-99127837D01*
X146299581Y-99136011D01*
X146282065Y-99160949D01*
X146259321Y-99184613D01*
X146233035Y-99197598D01*
X146195333Y-99205124D01*
X146191371Y-99205665D01*
X146136979Y-99210488D01*
X146067001Y-99213235D01*
X145986989Y-99213978D01*
X145902496Y-99212791D01*
X145819072Y-99209745D01*
X145742270Y-99204914D01*
X145677642Y-99198368D01*
X145582927Y-99183295D01*
X145452457Y-99155224D01*
X145318481Y-99119188D01*
X145187311Y-99077083D01*
X145065259Y-99030808D01*
X144958639Y-98982260D01*
X144940550Y-98973135D01*
X144912743Y-98959953D01*
X144898116Y-98955800D01*
X144892442Y-98960030D01*
X144891490Y-98971997D01*
X144885907Y-98995776D01*
X144870704Y-99032447D01*
X144848680Y-99076537D01*
X144822639Y-99122786D01*
X144795382Y-99165930D01*
X144769710Y-99200707D01*
X144768090Y-99202640D01*
X144734536Y-99238243D01*
X144692301Y-99277441D01*
X144650126Y-99312094D01*
X144640762Y-99319291D01*
X144583768Y-99369886D01*
X144537056Y-99425967D01*
X144498155Y-99491598D01*
X144464595Y-99570844D01*
X144433905Y-99667769D01*
X144431387Y-99676895D01*
X144416046Y-99741110D01*
X144405875Y-99799801D01*
X144402192Y-99845583D01*
X144236423Y-99845583D01*
X144218138Y-99830376D01*
X144199359Y-99813389D01*
X144172111Y-99795888D01*
X144154476Y-99787997D01*
X144140129Y-99788126D01*
X144123542Y-99799135D01*
X144098295Y-99823417D01*
X144082085Y-99841213D01*
X144050562Y-99882632D01*
X144024974Y-99924179D01*
X144016706Y-99940562D01*
X144005247Y-99968454D01*
X143998685Y-99997168D01*
X143995726Y-100033671D01*
X143995073Y-100084931D01*
X143897933Y-100084931D01*
X143902343Y-100019995D01*
X143913663Y-99970546D01*
X143935977Y-99908175D01*
X143964966Y-99847469D01*
X143997407Y-99795051D01*
X144030075Y-99757548D01*
X144038134Y-99750368D01*
X144056505Y-99731013D01*
X144061333Y-99715747D01*
X144055602Y-99697561D01*
X144047064Y-99668208D01*
X144043374Y-99633586D01*
X144042069Y-99616975D01*
X144034621Y-99578827D01*
X144022772Y-99538956D01*
X144019471Y-99529566D01*
X143991626Y-99434951D01*
X143967077Y-99324274D01*
X143946460Y-99202509D01*
X143930411Y-99074629D01*
X143919566Y-98945606D01*
X143914561Y-98820413D01*
X143916031Y-98704024D01*
X143917031Y-98684314D01*
X143929701Y-98553200D01*
X143952015Y-98425951D01*
X143982888Y-98306874D01*
X144021230Y-98200275D01*
X144065954Y-98110462D01*
X144079687Y-98088976D01*
X144126172Y-98028595D01*
X144184338Y-97965200D01*
X144248801Y-97904037D01*
X144314175Y-97850350D01*
X144375075Y-97809386D01*
X144412406Y-97786411D01*
X144457390Y-97752564D01*
X144483199Y-97723231D01*
X144490810Y-97710898D01*
X144542676Y-97645357D01*
X144611520Y-97580734D01*
X144693431Y-97519700D01*
X144784500Y-97464925D01*
X144880818Y-97419081D01*
X144978476Y-97384838D01*
X145042363Y-97369728D01*
X145136634Y-97354380D01*
X145243574Y-97342824D01*
X145358321Y-97335271D01*
X145476014Y-97331931D01*
X145591791Y-97333016D01*
X145700791Y-97338736D01*
X145798154Y-97349301D01*
X145865341Y-97360073D01*
X146073975Y-97407305D01*
X146273784Y-97474278D01*
X146465717Y-97561349D01*
X146650720Y-97668872D01*
X146651315Y-97669258D01*
X146717507Y-97713877D01*
X146776447Y-97757844D01*
X146832183Y-97804776D01*
X146888763Y-97858292D01*
X146950235Y-97922013D01*
X147020649Y-97999555D01*
X147024269Y-98003620D01*
X147090683Y-98076897D01*
X147146216Y-98135157D01*
X147193159Y-98180496D01*
X147233803Y-98215009D01*
X147270440Y-98240792D01*
X147305360Y-98259939D01*
X147320365Y-98267663D01*
X147351954Y-98287634D01*
X147373076Y-98306029D01*
X147389239Y-98339131D01*
X147389078Y-98378584D01*
X147372123Y-98416304D01*
X147339772Y-98446399D01*
X147316093Y-98461155D01*
X147297676Y-98473011D01*
X147293810Y-98478141D01*
X147290859Y-98493832D01*
X147290904Y-98522094D01*
X147293995Y-98565909D01*
X147300179Y-98628261D01*
X147300349Y-98629870D01*
X147306387Y-98699530D01*
X147311383Y-98780709D01*
X147314821Y-98863451D01*
X147316187Y-98937799D01*
X147316491Y-98972661D01*
X147319219Y-99053522D01*
X147324571Y-99119068D01*
X147332326Y-99166138D01*
X147339084Y-99196407D01*
X147345738Y-99232569D01*
X147348466Y-99256679D01*
X147348379Y-99259452D01*
X147337974Y-99286861D01*
X147315089Y-99314906D01*
X147286585Y-99336747D01*
X147259320Y-99345548D01*
X147254575Y-99345729D01*
X147245377Y-99348543D01*
X147237349Y-99357188D01*
X147229249Y-99374728D01*
X147219835Y-99404228D01*
X147207864Y-99448752D01*
X147192093Y-99511365D01*
X147183722Y-99544878D01*
X147170118Y-99598753D01*
X147158718Y-99643171D01*
X147150522Y-99674248D01*
X147146533Y-99688096D01*
X147149029Y-99696031D01*
X147164451Y-99714447D01*
X147189695Y-99737012D01*
X147236329Y-99781948D01*
X147288578Y-99856623D01*
X147327985Y-99945684D01*
X147344169Y-100014240D01*
X147344937Y-100031009D01*
X147348272Y-100103847D01*
X147335553Y-100193028D01*
X147306482Y-100274582D01*
X147266611Y-100343789D01*
X147204823Y-100417766D01*
X147131249Y-100473672D01*
X147044998Y-100512145D01*
X146945183Y-100533823D01*
X146913405Y-100538016D01*
X146877263Y-100544080D01*
X146855422Y-100550728D01*
X146843352Y-100559558D01*
X146836525Y-100572169D01*
X146833880Y-100578750D01*
X146813487Y-100620167D01*
X146783740Y-100671690D01*
X146748215Y-100727638D01*
X146710491Y-100782326D01*
X146674146Y-100830071D01*
X146654969Y-100853163D01*
X146598731Y-100914657D01*
X146539083Y-100969604D01*
X146471733Y-101021403D01*
X146392392Y-101073455D01*
X146296770Y-101129159D01*
X146185227Y-101191364D01*
X146244842Y-101220531D01*
X146269397Y-101234280D01*
X146309498Y-101262761D01*
X146340464Y-101291764D01*
X146343821Y-101295764D01*
X146354268Y-101310622D01*
X146380017Y-101347241D01*
X146419830Y-101417481D01*
G37*
G36*
X144868952Y-99560060D02*
G01*
X144950243Y-99567253D01*
X145022730Y-99580759D01*
X145092601Y-99601719D01*
X145166041Y-99631275D01*
X145167841Y-99632075D01*
X145211106Y-99654145D01*
X145234586Y-99672659D01*
X145237835Y-99687081D01*
X145220407Y-99696871D01*
X145212643Y-99698669D01*
X145158835Y-99702930D01*
X145097245Y-99697117D01*
X145037263Y-99681993D01*
X144991827Y-99667154D01*
X144922238Y-99646942D01*
X144847886Y-99627561D01*
X144775106Y-99610558D01*
X144710236Y-99597479D01*
X144659613Y-99589869D01*
X144652977Y-99589150D01*
X144615347Y-99583668D01*
X144597362Y-99577573D01*
X144597167Y-99570281D01*
X144612825Y-99565363D01*
X144648181Y-99561544D01*
X144701030Y-99559054D01*
X144769242Y-99558044D01*
X144772670Y-99558036D01*
X144868952Y-99560060D01*
G37*
G36*
X144717517Y-102096489D02*
G01*
X144716733Y-102102246D01*
X144710269Y-102103738D01*
X144708967Y-102102145D01*
X144710269Y-102089241D01*
X144713539Y-102087539D01*
X144717517Y-102096489D01*
G37*
G36*
X144761011Y-101966010D02*
G01*
X144760226Y-101971766D01*
X144753762Y-101973259D01*
X144752460Y-101971665D01*
X144753762Y-101958761D01*
X144757032Y-101957060D01*
X144761011Y-101966010D01*
G37*
G36*
X145272055Y-101351669D02*
G01*
X145266618Y-101357106D01*
X145261182Y-101351669D01*
X145266618Y-101346233D01*
X145272055Y-101351669D01*
G37*
G36*
X145913579Y-101406036D02*
G01*
X145908142Y-101411472D01*
X145902706Y-101406036D01*
X145908142Y-101400599D01*
X145913579Y-101406036D01*
G37*
G36*
X145690514Y-100069043D02*
G01*
X145696704Y-100080253D01*
X145701212Y-100102371D01*
X145704743Y-100139009D01*
X145708003Y-100193777D01*
X145711025Y-100237734D01*
X145716320Y-100287942D01*
X145722620Y-100328466D01*
X145729126Y-100353279D01*
X145732861Y-100363322D01*
X145735567Y-100402120D01*
X145717260Y-100435549D01*
X145677875Y-100463744D01*
X145668170Y-100468392D01*
X145640765Y-100478095D01*
X145623050Y-100479385D01*
X145618424Y-100476825D01*
X145609711Y-100459998D01*
X145613283Y-100439400D01*
X145628155Y-100425446D01*
X145641424Y-100419265D01*
X145665396Y-100403094D01*
X145669712Y-100399226D01*
X145677522Y-100387596D01*
X145676475Y-100371123D01*
X145666738Y-100342225D01*
X145663827Y-100333169D01*
X145655863Y-100291719D01*
X145650813Y-100238980D01*
X145649004Y-100182886D01*
X145650765Y-100131370D01*
X145656423Y-100092364D01*
X145666064Y-100070948D01*
X145682910Y-100065294D01*
X145690514Y-100069043D01*
G37*
G36*
X146500737Y-101987757D02*
G01*
X146499952Y-101993513D01*
X146493488Y-101995005D01*
X146492186Y-101993412D01*
X146493488Y-101980508D01*
X146496758Y-101978807D01*
X146500737Y-101987757D01*
G37*
G36*
X145420657Y-101404223D02*
G01*
X145422358Y-101407494D01*
X145413408Y-101411472D01*
X145407652Y-101410688D01*
X145406159Y-101404223D01*
X145407753Y-101402922D01*
X145420657Y-101404223D01*
G37*
G36*
X145804846Y-101406036D02*
G01*
X145799410Y-101411472D01*
X145793973Y-101406036D01*
X145799410Y-101400599D01*
X145804846Y-101406036D01*
G37*
G36*
X145304675Y-101406036D02*
G01*
X145299238Y-101411472D01*
X145293802Y-101406036D01*
X145299238Y-101400599D01*
X145304675Y-101406036D01*
G37*
G36*
X145770472Y-101437266D02*
G01*
X145772226Y-101454965D01*
X145770381Y-101467596D01*
X145762371Y-101476712D01*
X145757593Y-101472304D01*
X145758203Y-101454965D01*
X145762346Y-101442184D01*
X145768058Y-101433219D01*
X145770472Y-101437266D01*
G37*
G36*
X145055597Y-100634037D02*
G01*
X145076997Y-100640053D01*
X145085533Y-100661215D01*
X145090065Y-100680806D01*
X145099312Y-100700613D01*
X145107224Y-100706873D01*
X145138025Y-100718419D01*
X145186535Y-100728526D01*
X145250084Y-100737086D01*
X145326004Y-100743989D01*
X145411624Y-100749125D01*
X145504276Y-100752386D01*
X145601291Y-100753660D01*
X145699998Y-100752840D01*
X145797729Y-100749815D01*
X145891815Y-100744476D01*
X145979585Y-100736714D01*
X146036171Y-100729684D01*
X146085075Y-100720471D01*
X146117799Y-100709197D01*
X146137352Y-100694772D01*
X146146740Y-100676104D01*
X146146807Y-100675840D01*
X146157407Y-100655589D01*
X146177641Y-100652355D01*
X146187523Y-100654713D01*
X146198830Y-100666350D01*
X146201721Y-100692662D01*
X146201457Y-100700454D01*
X146195744Y-100724585D01*
X146180976Y-100744222D01*
X146155037Y-100760122D01*
X146115812Y-100773041D01*
X146061186Y-100783733D01*
X145989043Y-100792956D01*
X145897269Y-100801465D01*
X145867023Y-100803724D01*
X145763511Y-100808738D01*
X145651140Y-100810694D01*
X145534992Y-100809739D01*
X145420151Y-100806017D01*
X145311699Y-100799674D01*
X145214718Y-100790854D01*
X145134291Y-100779702D01*
X145086271Y-100767443D01*
X145048105Y-100745692D01*
X145027892Y-100714578D01*
X145024159Y-100672668D01*
X145027177Y-100651141D01*
X145035905Y-100637262D01*
X145054589Y-100634032D01*
X145055597Y-100634037D01*
G37*
%TD*%
%LPC*%
D14*
%TO.C,Hole4*%
X156280000Y-91650000D03*
%TD*%
D15*
%TO.C,USB2*%
X190978700Y-97130000D03*
X190978700Y-102910000D03*
D16*
X190478700Y-104345000D03*
X190478700Y-95695000D03*
D17*
X194678700Y-104345000D03*
X194678700Y-95695000D03*
%TD*%
D14*
%TO.C,Hole1*%
X126440000Y-91650000D03*
%TD*%
%TO.C,Hole8*%
X194840000Y-91790000D03*
%TD*%
D18*
%TO.C,SW1*%
X131040000Y-107480000D03*
X133540000Y-107480000D03*
X136040000Y-107480000D03*
%TD*%
D14*
%TO.C,Hole3*%
X156140000Y-108110000D03*
%TD*%
%TO.C,Hole5*%
X165450000Y-91670000D03*
%TD*%
D19*
%TO.C,J2*%
X164640000Y-103820000D03*
D20*
X164640000Y-101280000D03*
X164640000Y-98740000D03*
X164640000Y-96200000D03*
%TD*%
D14*
%TO.C,Hole2*%
X126540000Y-108350000D03*
%TD*%
D15*
%TO.C,USB1*%
X130171500Y-102660000D03*
X130171500Y-96880000D03*
D16*
X130671500Y-95445000D03*
X130671500Y-104095000D03*
D17*
X126471500Y-95445000D03*
X126471500Y-104095000D03*
%TD*%
D19*
%TO.C,J5*%
X156432500Y-103850000D03*
D20*
X156432500Y-101310000D03*
X156432500Y-98770000D03*
X156432500Y-96230000D03*
%TD*%
D14*
%TO.C,Hole7*%
X194700000Y-108240000D03*
%TD*%
%TO.C,Hole6*%
X165420000Y-108150000D03*
%TD*%
D19*
%TO.C,J4*%
X153500000Y-108700000D03*
D20*
X150960000Y-108700000D03*
X148420000Y-108700000D03*
X145880000Y-108700000D03*
X143340000Y-108700000D03*
X140800000Y-108700000D03*
%TD*%
D19*
%TO.C,J3*%
X169341000Y-108646000D03*
D20*
X171881000Y-108646000D03*
X174421000Y-108646000D03*
X176961000Y-108646000D03*
X179501000Y-108646000D03*
X182041000Y-108646000D03*
X184581000Y-108646000D03*
%TD*%
D19*
%TO.C,J1*%
X169400000Y-91100000D03*
D20*
X171940000Y-91100000D03*
X174480000Y-91100000D03*
X177020000Y-91100000D03*
X179560000Y-91100000D03*
X182100000Y-91100000D03*
X184640000Y-91100000D03*
X187180000Y-91100000D03*
%TD*%
D19*
%TO.C,J6*%
X153500000Y-91194000D03*
D20*
X150960000Y-91194000D03*
X148420000Y-91194000D03*
X145880000Y-91194000D03*
X143340000Y-91194000D03*
X140800000Y-91194000D03*
X138260000Y-91194000D03*
%TD*%
M02*
