%TF.GenerationSoftware,KiCad,Pcbnew,8.0.6*%
%TF.CreationDate,2024-11-26T19:58:57+08:00*%
%TF.ProjectId,UINIO-USB-UART,55494e49-4f2d-4555-9342-2d554152542e,Version 5.0.0*%
%TF.SameCoordinates,PX8be9df0PY5020b20*%
%TF.FileFunction,Paste,Top*%
%TF.FilePolarity,Positive*%
%FSLAX46Y46*%
G04 Gerber Fmt 4.6, Leading zero omitted, Abs format (unit mm)*
G04 Created by KiCad (PCBNEW 8.0.6) date 2024-11-26 19:58:57*
%MOMM*%
%LPD*%
G01*
G04 APERTURE LIST*
G04 Aperture macros list*
%AMRoundRect*
0 Rectangle with rounded corners*
0 $1 Rounding radius*
0 $2 $3 $4 $5 $6 $7 $8 $9 X,Y pos of 4 corners*
0 Add a 4 corners polygon primitive as box body*
4,1,4,$2,$3,$4,$5,$6,$7,$8,$9,$2,$3,0*
0 Add four circle primitives for the rounded corners*
1,1,$1+$1,$2,$3*
1,1,$1+$1,$4,$5*
1,1,$1+$1,$6,$7*
1,1,$1+$1,$8,$9*
0 Add four rect primitives between the rounded corners*
20,1,$1+$1,$2,$3,$4,$5,0*
20,1,$1+$1,$4,$5,$6,$7,0*
20,1,$1+$1,$6,$7,$8,$9,0*
20,1,$1+$1,$8,$9,$2,$3,0*%
%AMRotRect*
0 Rectangle, with rotation*
0 The origin of the aperture is its center*
0 $1 length*
0 $2 width*
0 $3 Rotation angle, in degrees counterclockwise*
0 Add horizontal line*
21,1,$1,$2,0,0,$3*%
G04 Aperture macros list end*
%ADD10C,0.120000*%
%ADD11RoundRect,0.150000X0.200000X-0.150000X0.200000X0.150000X-0.200000X0.150000X-0.200000X-0.150000X0*%
%ADD12RoundRect,0.150000X-0.200000X0.150000X-0.200000X-0.150000X0.200000X-0.150000X0.200000X0.150000X0*%
%ADD13R,1.200000X1.200000*%
%ADD14RoundRect,0.200000X0.275000X-0.200000X0.275000X0.200000X-0.275000X0.200000X-0.275000X-0.200000X0*%
%ADD15RoundRect,0.200000X-0.200000X-0.275000X0.200000X-0.275000X0.200000X0.275000X-0.200000X0.275000X0*%
%ADD16RoundRect,0.250000X-0.375000X-0.625000X0.375000X-0.625000X0.375000X0.625000X-0.375000X0.625000X0*%
%ADD17RoundRect,0.200000X-0.275000X0.200000X-0.275000X-0.200000X0.275000X-0.200000X0.275000X0.200000X0*%
%ADD18RoundRect,0.218750X0.218750X0.256250X-0.218750X0.256250X-0.218750X-0.256250X0.218750X-0.256250X0*%
%ADD19RoundRect,0.225000X0.225000X0.250000X-0.225000X0.250000X-0.225000X-0.250000X0.225000X-0.250000X0*%
%ADD20R,1.150000X0.600000*%
%ADD21R,1.150000X0.300000*%
%ADD22RoundRect,0.218750X-0.218750X-0.256250X0.218750X-0.256250X0.218750X0.256250X-0.218750X0.256250X0*%
%ADD23RoundRect,0.225000X-0.250000X0.225000X-0.250000X-0.225000X0.250000X-0.225000X0.250000X0.225000X0*%
%ADD24RotRect,0.250000X0.750000X135.000000*%
%ADD25RotRect,0.750000X0.250000X135.000000*%
%ADD26RotRect,1.700000X1.700000X135.000000*%
G04 APERTURE END LIST*
D10*
%TO.C,USB1*%
X3968320Y-7250000D02*
X2818320Y-7250000D01*
X2818320Y-6650000D01*
X3968320Y-6650000D01*
X3968320Y-7250000D01*
G36*
X3968320Y-7250000D02*
G01*
X2818320Y-7250000D01*
X2818320Y-6650000D01*
X3968320Y-6650000D01*
X3968320Y-7250000D01*
G37*
X3968320Y-8050000D02*
X2818320Y-8050000D01*
X2818320Y-7450000D01*
X3968320Y-7450000D01*
X3968320Y-8050000D01*
G36*
X3968320Y-8050000D02*
G01*
X2818320Y-8050000D01*
X2818320Y-7450000D01*
X3968320Y-7450000D01*
X3968320Y-8050000D01*
G37*
X3968320Y-8550000D02*
X2818320Y-8550000D01*
X2818320Y-8250000D01*
X3968320Y-8250000D01*
X3968320Y-8550000D01*
G36*
X3968320Y-8550000D02*
G01*
X2818320Y-8550000D01*
X2818320Y-8250000D01*
X3968320Y-8250000D01*
X3968320Y-8550000D01*
G37*
X3968320Y-9050000D02*
X2818320Y-9050000D01*
X2818320Y-8750000D01*
X3968320Y-8750000D01*
X3968320Y-9050000D01*
G36*
X3968320Y-9050000D02*
G01*
X2818320Y-9050000D01*
X2818320Y-8750000D01*
X3968320Y-8750000D01*
X3968320Y-9050000D01*
G37*
X3968320Y-9550000D02*
X2818320Y-9550000D01*
X2818320Y-9250000D01*
X3968320Y-9250000D01*
X3968320Y-9550000D01*
G36*
X3968320Y-9550000D02*
G01*
X2818320Y-9550000D01*
X2818320Y-9250000D01*
X3968320Y-9250000D01*
X3968320Y-9550000D01*
G37*
X3968320Y-10050000D02*
X2818320Y-10050000D01*
X2818320Y-9750000D01*
X3968320Y-9750000D01*
X3968320Y-10050000D01*
G36*
X3968320Y-10050000D02*
G01*
X2818320Y-10050000D01*
X2818320Y-9750000D01*
X3968320Y-9750000D01*
X3968320Y-10050000D01*
G37*
X3968320Y-10550000D02*
X2818320Y-10550000D01*
X2818320Y-10250000D01*
X3968320Y-10250000D01*
X3968320Y-10550000D01*
G36*
X3968320Y-10550000D02*
G01*
X2818320Y-10550000D01*
X2818320Y-10250000D01*
X3968320Y-10250000D01*
X3968320Y-10550000D01*
G37*
X3968320Y-11050000D02*
X2818320Y-11050000D01*
X2818320Y-10750000D01*
X3968320Y-10750000D01*
X3968320Y-11050000D01*
G36*
X3968320Y-11050000D02*
G01*
X2818320Y-11050000D01*
X2818320Y-10750000D01*
X3968320Y-10750000D01*
X3968320Y-11050000D01*
G37*
X3968320Y-11550000D02*
X2818320Y-11550000D01*
X2818320Y-11250000D01*
X3968320Y-11250000D01*
X3968320Y-11550000D01*
G36*
X3968320Y-11550000D02*
G01*
X2818320Y-11550000D01*
X2818320Y-11250000D01*
X3968320Y-11250000D01*
X3968320Y-11550000D01*
G37*
X3968320Y-12050000D02*
X2818320Y-12050000D01*
X2818320Y-11750000D01*
X3968320Y-11750000D01*
X3968320Y-12050000D01*
G36*
X3968320Y-12050000D02*
G01*
X2818320Y-12050000D01*
X2818320Y-11750000D01*
X3968320Y-11750000D01*
X3968320Y-12050000D01*
G37*
X3968320Y-12850000D02*
X2818320Y-12850000D01*
X2818320Y-12250000D01*
X3968320Y-12250000D01*
X3968320Y-12850000D01*
G36*
X3968320Y-12850000D02*
G01*
X2818320Y-12850000D01*
X2818320Y-12250000D01*
X3968320Y-12250000D01*
X3968320Y-12850000D01*
G37*
X3968320Y-13650000D02*
X2818320Y-13650000D01*
X2818320Y-13050000D01*
X3968320Y-13050000D01*
X3968320Y-13650000D01*
G36*
X3968320Y-13650000D02*
G01*
X2818320Y-13650000D01*
X2818320Y-13050000D01*
X3968320Y-13050000D01*
X3968320Y-13650000D01*
G37*
X3278320Y-5335000D02*
X3372320Y-5363000D01*
X3458320Y-5409000D01*
X3534320Y-5471000D01*
X3596320Y-5547000D01*
X3643320Y-5634000D01*
X3671320Y-5727000D01*
X3681320Y-5825000D01*
X3671320Y-5923000D01*
X3643320Y-6016000D01*
X3596320Y-6103000D01*
X3534320Y-6179000D01*
X3458320Y-6241000D01*
X3372320Y-6287000D01*
X3278320Y-6315000D01*
X3181320Y-6325000D01*
X2081320Y-6325000D01*
X1983320Y-6315000D01*
X1889320Y-6287000D01*
X1803320Y-6241000D01*
X1727320Y-6179000D01*
X1665320Y-6103000D01*
X1619320Y-6016000D01*
X1590320Y-5923000D01*
X1581320Y-5825000D01*
X1590320Y-5727000D01*
X1619320Y-5634000D01*
X1665320Y-5547000D01*
X1727320Y-5471000D01*
X1803320Y-5409000D01*
X1889320Y-5363000D01*
X1983320Y-5335000D01*
X2081320Y-5325000D01*
X3181320Y-5325000D01*
X3278320Y-5335000D01*
G36*
X3278320Y-5335000D02*
G01*
X3372320Y-5363000D01*
X3458320Y-5409000D01*
X3534320Y-5471000D01*
X3596320Y-5547000D01*
X3643320Y-5634000D01*
X3671320Y-5727000D01*
X3681320Y-5825000D01*
X3671320Y-5923000D01*
X3643320Y-6016000D01*
X3596320Y-6103000D01*
X3534320Y-6179000D01*
X3458320Y-6241000D01*
X3372320Y-6287000D01*
X3278320Y-6315000D01*
X3181320Y-6325000D01*
X2081320Y-6325000D01*
X1983320Y-6315000D01*
X1889320Y-6287000D01*
X1803320Y-6241000D01*
X1727320Y-6179000D01*
X1665320Y-6103000D01*
X1619320Y-6016000D01*
X1590320Y-5923000D01*
X1581320Y-5825000D01*
X1590320Y-5727000D01*
X1619320Y-5634000D01*
X1665320Y-5547000D01*
X1727320Y-5471000D01*
X1803320Y-5409000D01*
X1889320Y-5363000D01*
X1983320Y-5335000D01*
X2081320Y-5325000D01*
X3181320Y-5325000D01*
X3278320Y-5335000D01*
G37*
X-1021680Y-5335000D02*
X-927680Y-5363000D01*
X-841680Y-5409000D01*
X-765680Y-5471000D01*
X-703680Y-5547000D01*
X-656680Y-5634000D01*
X-628680Y-5727000D01*
X-618680Y-5825000D01*
X-628680Y-5923000D01*
X-656680Y-6016000D01*
X-703680Y-6103000D01*
X-765680Y-6179000D01*
X-841680Y-6241000D01*
X-927680Y-6287000D01*
X-1021680Y-6315000D01*
X-1118680Y-6325000D01*
X-2018680Y-6325000D01*
X-2116680Y-6315000D01*
X-2210680Y-6287000D01*
X-2296680Y-6241000D01*
X-2372680Y-6179000D01*
X-2434680Y-6103000D01*
X-2480680Y-6016000D01*
X-2509680Y-5923000D01*
X-2518680Y-5825000D01*
X-2509680Y-5727000D01*
X-2480680Y-5634000D01*
X-2434680Y-5547000D01*
X-2372680Y-5471000D01*
X-2296680Y-5409000D01*
X-2210680Y-5363000D01*
X-2116680Y-5335000D01*
X-2018680Y-5325000D01*
X-1118680Y-5325000D01*
X-1021680Y-5335000D01*
G36*
X-1021680Y-5335000D02*
G01*
X-927680Y-5363000D01*
X-841680Y-5409000D01*
X-765680Y-5471000D01*
X-703680Y-5547000D01*
X-656680Y-5634000D01*
X-628680Y-5727000D01*
X-618680Y-5825000D01*
X-628680Y-5923000D01*
X-656680Y-6016000D01*
X-703680Y-6103000D01*
X-765680Y-6179000D01*
X-841680Y-6241000D01*
X-927680Y-6287000D01*
X-1021680Y-6315000D01*
X-1118680Y-6325000D01*
X-2018680Y-6325000D01*
X-2116680Y-6315000D01*
X-2210680Y-6287000D01*
X-2296680Y-6241000D01*
X-2372680Y-6179000D01*
X-2434680Y-6103000D01*
X-2480680Y-6016000D01*
X-2509680Y-5923000D01*
X-2518680Y-5825000D01*
X-2509680Y-5727000D01*
X-2480680Y-5634000D01*
X-2434680Y-5547000D01*
X-2372680Y-5471000D01*
X-2296680Y-5409000D01*
X-2210680Y-5363000D01*
X-2116680Y-5335000D01*
X-2018680Y-5325000D01*
X-1118680Y-5325000D01*
X-1021680Y-5335000D01*
G37*
X3278320Y-13985000D02*
X3372320Y-14013000D01*
X3458320Y-14059000D01*
X3534320Y-14121000D01*
X3596320Y-14197000D01*
X3643320Y-14284000D01*
X3671320Y-14377000D01*
X3681320Y-14475000D01*
X3671320Y-14573000D01*
X3643320Y-14666000D01*
X3596320Y-14753000D01*
X3534320Y-14829000D01*
X3458320Y-14891000D01*
X3372320Y-14937000D01*
X3278320Y-14965000D01*
X3181320Y-14975000D01*
X2081320Y-14975000D01*
X1983320Y-14965000D01*
X1889320Y-14937000D01*
X1803320Y-14891000D01*
X1727320Y-14829000D01*
X1665320Y-14753000D01*
X1619320Y-14666000D01*
X1590320Y-14573000D01*
X1581320Y-14475000D01*
X1590320Y-14377000D01*
X1619320Y-14284000D01*
X1665320Y-14197000D01*
X1727320Y-14121000D01*
X1803320Y-14059000D01*
X1889320Y-14013000D01*
X1983320Y-13985000D01*
X2081320Y-13975000D01*
X3181320Y-13975000D01*
X3278320Y-13985000D01*
G36*
X3278320Y-13985000D02*
G01*
X3372320Y-14013000D01*
X3458320Y-14059000D01*
X3534320Y-14121000D01*
X3596320Y-14197000D01*
X3643320Y-14284000D01*
X3671320Y-14377000D01*
X3681320Y-14475000D01*
X3671320Y-14573000D01*
X3643320Y-14666000D01*
X3596320Y-14753000D01*
X3534320Y-14829000D01*
X3458320Y-14891000D01*
X3372320Y-14937000D01*
X3278320Y-14965000D01*
X3181320Y-14975000D01*
X2081320Y-14975000D01*
X1983320Y-14965000D01*
X1889320Y-14937000D01*
X1803320Y-14891000D01*
X1727320Y-14829000D01*
X1665320Y-14753000D01*
X1619320Y-14666000D01*
X1590320Y-14573000D01*
X1581320Y-14475000D01*
X1590320Y-14377000D01*
X1619320Y-14284000D01*
X1665320Y-14197000D01*
X1727320Y-14121000D01*
X1803320Y-14059000D01*
X1889320Y-14013000D01*
X1983320Y-13985000D01*
X2081320Y-13975000D01*
X3181320Y-13975000D01*
X3278320Y-13985000D01*
G37*
X-1021680Y-13985000D02*
X-927680Y-14013000D01*
X-841680Y-14059000D01*
X-765680Y-14121000D01*
X-703680Y-14197000D01*
X-656680Y-14284000D01*
X-628680Y-14377000D01*
X-618680Y-14475000D01*
X-628680Y-14573000D01*
X-656680Y-14666000D01*
X-703680Y-14753000D01*
X-765680Y-14829000D01*
X-841680Y-14891000D01*
X-927680Y-14937000D01*
X-1021680Y-14965000D01*
X-1118680Y-14975000D01*
X-2018680Y-14975000D01*
X-2116680Y-14965000D01*
X-2210680Y-14937000D01*
X-2296680Y-14891000D01*
X-2372680Y-14829000D01*
X-2434680Y-14753000D01*
X-2480680Y-14666000D01*
X-2509680Y-14573000D01*
X-2518680Y-14475000D01*
X-2509680Y-14377000D01*
X-2480680Y-14284000D01*
X-2434680Y-14197000D01*
X-2372680Y-14121000D01*
X-2296680Y-14059000D01*
X-2210680Y-14013000D01*
X-2116680Y-13985000D01*
X-2018680Y-13975000D01*
X-1118680Y-13975000D01*
X-1021680Y-13985000D01*
G36*
X-1021680Y-13985000D02*
G01*
X-927680Y-14013000D01*
X-841680Y-14059000D01*
X-765680Y-14121000D01*
X-703680Y-14197000D01*
X-656680Y-14284000D01*
X-628680Y-14377000D01*
X-618680Y-14475000D01*
X-628680Y-14573000D01*
X-656680Y-14666000D01*
X-703680Y-14753000D01*
X-765680Y-14829000D01*
X-841680Y-14891000D01*
X-927680Y-14937000D01*
X-1021680Y-14965000D01*
X-1118680Y-14975000D01*
X-2018680Y-14975000D01*
X-2116680Y-14965000D01*
X-2210680Y-14937000D01*
X-2296680Y-14891000D01*
X-2372680Y-14829000D01*
X-2434680Y-14753000D01*
X-2480680Y-14666000D01*
X-2509680Y-14573000D01*
X-2518680Y-14475000D01*
X-2509680Y-14377000D01*
X-2480680Y-14284000D01*
X-2434680Y-14197000D01*
X-2372680Y-14121000D01*
X-2296680Y-14059000D01*
X-2210680Y-14013000D01*
X-2116680Y-13985000D01*
X-2018680Y-13975000D01*
X-1118680Y-13975000D01*
X-1021680Y-13985000D01*
G37*
%TO.C,U2*%
X16317028Y-11882412D02*
X16140251Y-12059188D01*
X15609921Y-11528858D01*
X15786698Y-11352082D01*
X16317028Y-11882412D01*
G36*
X16317028Y-11882412D02*
G01*
X16140251Y-12059188D01*
X15609921Y-11528858D01*
X15786698Y-11352082D01*
X16317028Y-11882412D01*
G37*
X16670582Y-11528858D02*
X16493805Y-11705635D01*
X15963475Y-11175305D01*
X16140251Y-10998528D01*
X16670582Y-11528858D01*
G36*
X16670582Y-11528858D02*
G01*
X16493805Y-11705635D01*
X15963475Y-11175305D01*
X16140251Y-10998528D01*
X16670582Y-11528858D01*
G37*
X17024135Y-11175305D02*
X16847358Y-11352082D01*
X16317028Y-10821751D01*
X16493805Y-10644975D01*
X17024135Y-11175305D01*
G36*
X17024135Y-11175305D02*
G01*
X16847358Y-11352082D01*
X16317028Y-10821751D01*
X16493805Y-10644975D01*
X17024135Y-11175305D01*
G37*
X17377688Y-10821751D02*
X17200912Y-10998528D01*
X16670582Y-10468198D01*
X16847358Y-10291421D01*
X17377688Y-10821751D01*
G36*
X17377688Y-10821751D02*
G01*
X17200912Y-10998528D01*
X16670582Y-10468198D01*
X16847358Y-10291421D01*
X17377688Y-10821751D01*
G37*
X16430165Y-10150000D02*
X15468500Y-11111665D01*
X14506835Y-10150000D01*
X15468500Y-9188335D01*
X16430165Y-10150000D01*
G36*
X16430165Y-10150000D02*
G01*
X15468500Y-11111665D01*
X14506835Y-10150000D01*
X15468500Y-9188335D01*
X16430165Y-10150000D01*
G37*
X15326372Y-11528151D02*
X14796041Y-12058481D01*
X14619265Y-11881705D01*
X15149595Y-11351374D01*
X15326372Y-11528151D01*
G36*
X15326372Y-11528151D02*
G01*
X14796041Y-12058481D01*
X14619265Y-11881705D01*
X15149595Y-11351374D01*
X15326372Y-11528151D01*
G37*
X17376274Y-9476834D02*
X16845944Y-10007164D01*
X16669167Y-9830388D01*
X17199497Y-9300058D01*
X17376274Y-9476834D01*
G36*
X17376274Y-9476834D02*
G01*
X16845944Y-10007164D01*
X16669167Y-9830388D01*
X17199497Y-9300058D01*
X17376274Y-9476834D01*
G37*
X14972818Y-11174598D02*
X14442488Y-11704928D01*
X14265711Y-11528151D01*
X14796041Y-10997821D01*
X14972818Y-11174598D01*
G36*
X14972818Y-11174598D02*
G01*
X14442488Y-11704928D01*
X14265711Y-11528151D01*
X14796041Y-10997821D01*
X14972818Y-11174598D01*
G37*
X17023428Y-9123988D02*
X16493098Y-9654318D01*
X16316321Y-9477541D01*
X16846651Y-8947211D01*
X17023428Y-9123988D01*
G36*
X17023428Y-9123988D02*
G01*
X16493098Y-9654318D01*
X16316321Y-9477541D01*
X16846651Y-8947211D01*
X17023428Y-9123988D01*
G37*
X14619265Y-10821044D02*
X14088935Y-11351374D01*
X13912158Y-11174598D01*
X14442488Y-10644268D01*
X14619265Y-10821044D01*
G36*
X14619265Y-10821044D02*
G01*
X14088935Y-11351374D01*
X13912158Y-11174598D01*
X14442488Y-10644268D01*
X14619265Y-10821044D01*
G37*
X16669167Y-8769728D02*
X16138837Y-9300058D01*
X15962061Y-9123281D01*
X16492391Y-8592951D01*
X16669167Y-8769728D01*
G36*
X16669167Y-8769728D02*
G01*
X16138837Y-9300058D01*
X15962061Y-9123281D01*
X16492391Y-8592951D01*
X16669167Y-8769728D01*
G37*
X14265711Y-10467491D02*
X13735381Y-10997821D01*
X13558605Y-10821044D01*
X14088935Y-10290714D01*
X14265711Y-10467491D01*
G36*
X14265711Y-10467491D02*
G01*
X13735381Y-10997821D01*
X13558605Y-10821044D01*
X14088935Y-10290714D01*
X14265711Y-10467491D01*
G37*
X16316321Y-8416881D02*
X15785991Y-8947211D01*
X15609214Y-8770435D01*
X16139544Y-8240105D01*
X16316321Y-8416881D01*
G36*
X16316321Y-8416881D02*
G01*
X15785991Y-8947211D01*
X15609214Y-8770435D01*
X16139544Y-8240105D01*
X16316321Y-8416881D01*
G37*
X14266418Y-9831802D02*
X14089642Y-10008579D01*
X13559312Y-9478249D01*
X13736088Y-9301472D01*
X14266418Y-9831802D01*
G36*
X14266418Y-9831802D02*
G01*
X14089642Y-10008579D01*
X13559312Y-9478249D01*
X13736088Y-9301472D01*
X14266418Y-9831802D01*
G37*
X14619972Y-9478249D02*
X14443195Y-9655025D01*
X13912865Y-9124695D01*
X14089642Y-8947918D01*
X14619972Y-9478249D01*
G36*
X14619972Y-9478249D02*
G01*
X14443195Y-9655025D01*
X13912865Y-9124695D01*
X14089642Y-8947918D01*
X14619972Y-9478249D01*
G37*
X14973525Y-9124695D02*
X14796749Y-9301472D01*
X14266418Y-8771142D01*
X14443195Y-8594365D01*
X14973525Y-9124695D01*
G36*
X14973525Y-9124695D02*
G01*
X14796749Y-9301472D01*
X14266418Y-8771142D01*
X14443195Y-8594365D01*
X14973525Y-9124695D01*
G37*
X15327079Y-8771142D02*
X15150302Y-8947918D01*
X14619972Y-8417588D01*
X14796749Y-8240812D01*
X15327079Y-8771142D01*
G36*
X15327079Y-8771142D02*
G01*
X15150302Y-8947918D01*
X14619972Y-8417588D01*
X14796749Y-8240812D01*
X15327079Y-8771142D01*
G37*
%TD*%
D11*
%TO.C,D4*%
X8150000Y-9800000D03*
X8150000Y-11200000D03*
%TD*%
D12*
%TO.C,D3*%
X8150000Y-13460000D03*
X8150000Y-12060000D03*
%TD*%
D13*
%TO.C,D2*%
X7970000Y-3620000D03*
X10770000Y-3620000D03*
%TD*%
D14*
%TO.C,R9*%
X10920000Y-8900000D03*
X10920000Y-10550000D03*
%TD*%
D15*
%TO.C,R6*%
X22562500Y-12140000D03*
X20912500Y-12140000D03*
%TD*%
D16*
%TO.C,F1*%
X10770000Y-6300000D03*
X7970000Y-6300000D03*
%TD*%
D15*
%TO.C,R5*%
X22562500Y-8130000D03*
X20912500Y-8130000D03*
%TD*%
D17*
%TO.C,R10*%
X10920000Y-12710000D03*
X10920000Y-14360000D03*
%TD*%
D15*
%TO.C,R1*%
X9797500Y-1330000D03*
X8147500Y-1330000D03*
%TD*%
D18*
%TO.C,D5*%
X22525000Y-6580000D03*
X20950000Y-6580000D03*
%TD*%
D19*
%TO.C,C5*%
X15965000Y-14270000D03*
X14415000Y-14270000D03*
%TD*%
%TO.C,C7*%
X16240000Y-6280000D03*
X14690000Y-6280000D03*
%TD*%
D20*
%TO.C,USB1*%
X3393320Y-6950000D03*
X3393320Y-7750000D03*
D21*
X3393320Y-8900000D03*
X3393320Y-9900000D03*
X3393320Y-10400000D03*
X3393320Y-11400000D03*
D20*
X3393320Y-13350000D03*
X3393320Y-12550000D03*
D21*
X3393320Y-11900000D03*
X3393320Y-10900000D03*
X3393320Y-9400000D03*
X3393320Y-8400000D03*
%TD*%
D22*
%TO.C,D1*%
X6797500Y-1330000D03*
X5222500Y-1330000D03*
%TD*%
D18*
%TO.C,D6*%
X20950000Y-13690000D03*
X22525000Y-13690000D03*
%TD*%
D23*
%TO.C,C6*%
X12830000Y-6305000D03*
X12830000Y-4755000D03*
%TD*%
D24*
%TO.C,U2*%
X17022721Y-9653611D03*
X16669874Y-9300765D03*
X16315614Y-8946504D03*
X15962768Y-8593658D03*
D25*
X14973525Y-8594365D03*
X14619972Y-8947918D03*
X14266418Y-9301472D03*
X13912865Y-9655025D03*
D24*
X13912865Y-10644975D03*
X14266418Y-10998528D03*
X14619972Y-11352082D03*
X14972818Y-11704928D03*
D25*
X15963475Y-11705635D03*
X16317028Y-11352082D03*
X16670582Y-10998528D03*
X17024135Y-10644975D03*
D26*
X15468500Y-10150000D03*
%TD*%
M02*
