%TF.GenerationSoftware,KiCad,Pcbnew,8.0.6*%
%TF.CreationDate,2024-11-26T19:58:57+08:00*%
%TF.ProjectId,UINIO-USB-UART,55494e49-4f2d-4555-9342-2d554152542e,Version 5.0.0*%
%TF.SameCoordinates,PX8be9df0PY5020b20*%
%TF.FileFunction,Copper,L2,Bot*%
%TF.FilePolarity,Positive*%
%FSLAX46Y46*%
G04 Gerber Fmt 4.6, Leading zero omitted, Abs format (unit mm)*
G04 Created by KiCad (PCBNEW 8.0.6) date 2024-11-26 19:58:57*
%MOMM*%
%LPD*%
G01*
G04 APERTURE LIST*
%TA.AperFunction,ComponentPad*%
%ADD10R,1.700000X1.700000*%
%TD*%
%TA.AperFunction,ComponentPad*%
%ADD11O,1.700000X1.700000*%
%TD*%
%TA.AperFunction,ComponentPad*%
%ADD12O,2.100000X1.000000*%
%TD*%
%TA.AperFunction,ComponentPad*%
%ADD13O,1.900000X1.000000*%
%TD*%
%TA.AperFunction,ViaPad*%
%ADD14C,0.500000*%
%TD*%
%TA.AperFunction,ViaPad*%
%ADD15C,0.700000*%
%TD*%
%TA.AperFunction,ViaPad*%
%ADD16C,0.900000*%
%TD*%
%TA.AperFunction,Conductor*%
%ADD17C,0.200000*%
%TD*%
%TA.AperFunction,Conductor*%
%ADD18C,0.300000*%
%TD*%
%TA.AperFunction,Conductor*%
%ADD19C,0.500000*%
%TD*%
%TA.AperFunction,Conductor*%
%ADD20C,0.400000*%
%TD*%
%TA.AperFunction,Conductor*%
%ADD21C,0.700000*%
%TD*%
G04 APERTURE END LIST*
D10*
%TO.P,J7,1,Pin_1*%
%TO.N,/CH343_VDD_3.3V*%
X3361320Y-18940000D03*
D11*
%TO.P,J7,2,Pin_2*%
%TO.N,/CH343_VIO*%
X5901320Y-18940000D03*
%TO.P,J7,3,Pin_3*%
%TO.N,/CH343_VDD_5V*%
X8441320Y-18940000D03*
%TD*%
D12*
%TO.P,USB1,13,GND*%
%TO.N,GND*%
X2631320Y-5825000D03*
%TO.P,USB1,14,GND*%
X2631320Y-14475000D03*
D13*
%TO.P,USB1,15,GND*%
X-1568680Y-5825000D03*
%TO.P,USB1,16,GND*%
X-1568680Y-14475000D03*
%TD*%
D10*
%TO.P,J5,1,Pin_1*%
%TO.N,/CH343_VDD_5V*%
X29060000Y-15225000D03*
D11*
%TO.P,J5,2,Pin_2*%
%TO.N,/CH343_TXD*%
X29060000Y-12685000D03*
%TO.P,J5,3,Pin_3*%
%TO.N,/CH343_RXD*%
X29060000Y-10145000D03*
%TO.P,J5,4,Pin_4*%
%TO.N,GND*%
X29060000Y-7605000D03*
%TO.P,J5,5,Pin_5*%
%TO.N,/CH343_VDD_3.3V*%
X29060000Y-5065000D03*
%TD*%
D10*
%TO.P,J4,1,Pin_1*%
%TO.N,/CH343_ACT#*%
X17120000Y-18940000D03*
D11*
%TO.P,J4,2,Pin_2*%
%TO.N,/CH343_DCD*%
X19660000Y-18940000D03*
%TO.P,J4,3,Pin_3*%
%TO.N,/CH343_DTR*%
X22200000Y-18940000D03*
%TD*%
D10*
%TO.P,J6,1,Pin_1*%
%TO.N,/CH343_RI*%
X14570000Y-1330000D03*
D11*
%TO.P,J6,2,Pin_2*%
%TO.N,/CH343_CTS*%
X17110000Y-1330000D03*
%TO.P,J6,3,Pin_3*%
%TO.N,/CH343_DSR*%
X19650000Y-1330000D03*
%TO.P,J6,4,Pin_4*%
%TO.N,/CH343_RTS*%
X22190000Y-1330000D03*
%TD*%
D14*
%TO.N,GND*%
X18300000Y-11820000D03*
X920000Y-4710000D03*
X-2080000Y-4710000D03*
X-1080000Y-4710000D03*
X-80000Y-4710000D03*
X1920000Y-4710000D03*
X-80000Y-15600000D03*
X1920000Y-15600000D03*
X920000Y-15600000D03*
X-1080000Y-15600000D03*
X-2080000Y-15600000D03*
X20690000Y-10280000D03*
X19690000Y-10280000D03*
D15*
%TO.N,/CH343_VDD_5V*%
X13413769Y-11100779D03*
X17570000Y-8650000D03*
D14*
%TO.N,GND*%
X16210000Y-7240000D03*
X17320000Y-7240000D03*
X15940000Y-3480000D03*
X23808337Y-3480000D03*
X29060000Y-2190000D03*
D15*
X13900000Y-5280000D03*
D14*
X9560000Y-12710000D03*
X9560000Y-10550000D03*
X9550000Y-9800000D03*
X9560000Y-13460000D03*
D15*
%TO.N,/CH343_VDD_3.3V*%
X7970000Y-4950000D03*
%TO.N,/CH343_V3*%
X11870000Y-1330000D03*
X11870000Y-6680000D03*
D14*
%TO.N,GND*%
X15100000Y-7240000D03*
D15*
X12840000Y-15030000D03*
D14*
X26545000Y-13520000D03*
X20347986Y-3480000D03*
X15468500Y-10150000D03*
X17944653Y-3480000D03*
X22433199Y-3476801D03*
D15*
%TO.N,/CH343_VIO*%
X19820000Y-12448999D03*
X18700000Y-9340000D03*
X18700000Y-6580000D03*
D16*
%TO.N,/CH343_VDD_5V*%
X4640000Y-7740000D03*
X4640000Y-12540000D03*
D14*
%TO.N,/CH343_DSR*%
X18664946Y-13700000D03*
%TO.N,/CH343_RTS*%
X21378160Y-14583160D03*
%TO.N,/CH343_CTS*%
X18671053Y-12998999D03*
%TO.N,/CH343_USB_Data_N*%
X2570000Y-10400000D03*
%TO.N,/CH343_RI*%
X17540000Y-11110000D03*
%TO.N,/CH343_USB_Data_N*%
X2570000Y-9400000D03*
%TO.N,GND*%
X20160000Y-16980000D03*
X18390000Y-16980000D03*
X22820000Y-16980000D03*
X15510000Y-13560000D03*
D15*
X15970000Y-15230000D03*
%TD*%
D17*
%TO.N,/CH343_RI*%
X22011320Y-8771320D02*
X14570000Y-1330000D01*
X22011320Y-10650000D02*
X22011320Y-8771320D01*
X21551320Y-11110000D02*
X22011320Y-10650000D01*
X17540000Y-11110000D02*
X21551320Y-11110000D01*
D18*
%TO.N,/CH343_VIO*%
X12391320Y-12450000D02*
X5901320Y-18940000D01*
X19818999Y-12450000D02*
X12391320Y-12450000D01*
X19820000Y-12448999D02*
X19818999Y-12450000D01*
D19*
%TO.N,GND*%
X22820000Y-16980000D02*
X18390000Y-16980000D01*
D18*
%TO.N,/CH343_VIO*%
X18700000Y-6580000D02*
X18700000Y-9340000D01*
D20*
%TO.N,/CH343_VDD_5V*%
X17560000Y-8640000D02*
X17570000Y-8650000D01*
X15870000Y-8640000D02*
X17560000Y-8640000D01*
X13413769Y-11096231D02*
X15870000Y-8640000D01*
X13413769Y-11100779D02*
X13413769Y-11096231D01*
D17*
%TO.N,/CH343_RTS*%
X22911320Y-2051320D02*
X22190000Y-1330000D01*
X21378160Y-14583160D02*
X22911320Y-13050000D01*
X22911320Y-13050000D02*
X22911320Y-2051320D01*
%TO.N,/CH343_DSR*%
X22611320Y-12510000D02*
X22611320Y-4291320D01*
X22611320Y-4291320D02*
X19650000Y-1330000D01*
X21421320Y-13700000D02*
X22611320Y-12510000D01*
X18664946Y-13700000D02*
X21421320Y-13700000D01*
%TO.N,/CH343_CTS*%
X22311320Y-6531320D02*
X17110000Y-1330000D01*
X21162321Y-12998999D02*
X22311320Y-11850000D01*
X22311320Y-11850000D02*
X22311320Y-6531320D01*
X18671053Y-12998999D02*
X21162321Y-12998999D01*
D18*
%TO.N,/CH343_VDD_3.3V*%
X7970000Y-14331320D02*
X3361320Y-18940000D01*
X7970000Y-4950000D02*
X7970000Y-14331320D01*
D21*
%TO.N,/CH343_VDD_5V*%
X4640000Y-7740000D02*
X4640000Y-12540000D01*
D18*
%TO.N,/CH343_V3*%
X11870000Y-6680000D02*
X11870000Y-1330000D01*
D17*
%TO.N,/CH343_USB_Data_N*%
X2570000Y-10400000D02*
X2570000Y-9400000D01*
%TD*%
%TA.AperFunction,Conductor*%
%TO.N,GND*%
G36*
X13370607Y-270185D02*
G01*
X13416362Y-322989D01*
X13426306Y-392147D01*
X13423219Y-407050D01*
X13422415Y-410001D01*
X13419500Y-435131D01*
X13419500Y-2224856D01*
X13419502Y-2224882D01*
X13422413Y-2249987D01*
X13422415Y-2249991D01*
X13467793Y-2352764D01*
X13467794Y-2352765D01*
X13547235Y-2432206D01*
X13650009Y-2477585D01*
X13675135Y-2480500D01*
X14124668Y-2480499D01*
X14169497Y-2488886D01*
X14683120Y-2688046D01*
X15767022Y-3108334D01*
X15809873Y-3136266D01*
X17189078Y-4515471D01*
X18462109Y-5788501D01*
X18495594Y-5849824D01*
X18490610Y-5919516D01*
X18448738Y-5975449D01*
X18432054Y-5985978D01*
X18327762Y-6040714D01*
X18209516Y-6145471D01*
X18119781Y-6275475D01*
X18119780Y-6275476D01*
X18063762Y-6423181D01*
X18044722Y-6579999D01*
X18044722Y-6580000D01*
X18063762Y-6736814D01*
X18063764Y-6736823D01*
X18079900Y-6779370D01*
X18087175Y-6809426D01*
X18087639Y-6813537D01*
X18087640Y-6813545D01*
X18244064Y-7324307D01*
X18249500Y-7360618D01*
X18249500Y-8107407D01*
X18229815Y-8174446D01*
X18177011Y-8220201D01*
X18107853Y-8230145D01*
X18044297Y-8201120D01*
X18043274Y-8200223D01*
X17942240Y-8110717D01*
X17942238Y-8110715D01*
X17802365Y-8037303D01*
X17648986Y-7999500D01*
X17648985Y-7999500D01*
X17491015Y-7999500D01*
X17491014Y-7999500D01*
X17337634Y-8037303D01*
X17197764Y-8110714D01*
X17191587Y-8114978D01*
X17190290Y-8113099D01*
X17137245Y-8138036D01*
X17118244Y-8139500D01*
X15804107Y-8139500D01*
X15676812Y-8173608D01*
X15562686Y-8239500D01*
X15562683Y-8239502D01*
X15469498Y-8332688D01*
X13381951Y-10420234D01*
X13323945Y-10452950D01*
X13181402Y-10488083D01*
X13041531Y-10561494D01*
X12923285Y-10666250D01*
X12833550Y-10796254D01*
X12833549Y-10796255D01*
X12777531Y-10943960D01*
X12758491Y-11100778D01*
X12758491Y-11100779D01*
X12777531Y-11257597D01*
X12822095Y-11375100D01*
X12833549Y-11405302D01*
X12923286Y-11535309D01*
X13041529Y-11640062D01*
X13041531Y-11640063D01*
X13181403Y-11713475D01*
X13334783Y-11751279D01*
X13334784Y-11751279D01*
X13492754Y-11751279D01*
X13646134Y-11713475D01*
X13786009Y-11640062D01*
X13904252Y-11535309D01*
X13993989Y-11405302D01*
X14050006Y-11257597D01*
X14057257Y-11197874D01*
X14084878Y-11133697D01*
X14092661Y-11125151D01*
X16040994Y-9176819D01*
X16102317Y-9143334D01*
X16128675Y-9140500D01*
X17095668Y-9140500D01*
X17162707Y-9160185D01*
X17177894Y-9171684D01*
X17197759Y-9189282D01*
X17197761Y-9189284D01*
X17337634Y-9262696D01*
X17491014Y-9300500D01*
X17491015Y-9300500D01*
X17648985Y-9300500D01*
X17802365Y-9262696D01*
X17863096Y-9230822D01*
X17931604Y-9217096D01*
X17996657Y-9242588D01*
X18037602Y-9299204D01*
X18043345Y-9332612D01*
X18043818Y-9332555D01*
X18063762Y-9496818D01*
X18102915Y-9600054D01*
X18119780Y-9644523D01*
X18209517Y-9774530D01*
X18327760Y-9879283D01*
X18327762Y-9879284D01*
X18467634Y-9952696D01*
X18621014Y-9990500D01*
X18621015Y-9990500D01*
X18778985Y-9990500D01*
X18932365Y-9952696D01*
X19072240Y-9879283D01*
X19190483Y-9774530D01*
X19280220Y-9644523D01*
X19336237Y-9496818D01*
X19355278Y-9340000D01*
X19336237Y-9183182D01*
X19320098Y-9140628D01*
X19312822Y-9110558D01*
X19312360Y-9106461D01*
X19155936Y-8595693D01*
X19150500Y-8559382D01*
X19150500Y-7360616D01*
X19155936Y-7324305D01*
X19292940Y-6876946D01*
X19331392Y-6818612D01*
X19395280Y-6790325D01*
X19464319Y-6801069D01*
X19499185Y-6825578D01*
X21574501Y-8900893D01*
X21607986Y-8962216D01*
X21610820Y-8988574D01*
X21610820Y-10432745D01*
X21591135Y-10499784D01*
X21574501Y-10520426D01*
X21421746Y-10673181D01*
X21360423Y-10706666D01*
X21334065Y-10709500D01*
X18123264Y-10709500D01*
X18085053Y-10703466D01*
X17855591Y-10629139D01*
X17740053Y-10591714D01*
X17740051Y-10591713D01*
X17740050Y-10591713D01*
X17736590Y-10591234D01*
X17706161Y-10582969D01*
X17683711Y-10573670D01*
X17683713Y-10573670D01*
X17540001Y-10554750D01*
X17539999Y-10554750D01*
X17396291Y-10573670D01*
X17396287Y-10573671D01*
X17262377Y-10629137D01*
X17147379Y-10717379D01*
X17059137Y-10832377D01*
X17003671Y-10966287D01*
X17003670Y-10966291D01*
X16984750Y-11109999D01*
X16984750Y-11110000D01*
X17003670Y-11253708D01*
X17003671Y-11253712D01*
X17059137Y-11387622D01*
X17059138Y-11387624D01*
X17059139Y-11387625D01*
X17147379Y-11502621D01*
X17262375Y-11590861D01*
X17396291Y-11646330D01*
X17523280Y-11663048D01*
X17539999Y-11665250D01*
X17540000Y-11665250D01*
X17540001Y-11665250D01*
X17556719Y-11663048D01*
X17683709Y-11646330D01*
X17706255Y-11636990D01*
X17737835Y-11628571D01*
X17740053Y-11628285D01*
X18085051Y-11516534D01*
X18123262Y-11510500D01*
X21604045Y-11510500D01*
X21604047Y-11510500D01*
X21705908Y-11483207D01*
X21724818Y-11472288D01*
X21792717Y-11455815D01*
X21858745Y-11478666D01*
X21901937Y-11533586D01*
X21910820Y-11579675D01*
X21910820Y-11632745D01*
X21891135Y-11699784D01*
X21874501Y-11720426D01*
X21032747Y-12562180D01*
X20971424Y-12595665D01*
X20945066Y-12598499D01*
X20597092Y-12598499D01*
X20530053Y-12578814D01*
X20484298Y-12526010D01*
X20473996Y-12459553D01*
X20475278Y-12448999D01*
X20456237Y-12292181D01*
X20446917Y-12267607D01*
X20434992Y-12236163D01*
X20400220Y-12144476D01*
X20310483Y-12014469D01*
X20192240Y-11909716D01*
X20192238Y-11909715D01*
X20192237Y-11909714D01*
X20052365Y-11836302D01*
X19898986Y-11798499D01*
X19898985Y-11798499D01*
X19741015Y-11798499D01*
X19741014Y-11798499D01*
X19586240Y-11836645D01*
X19584004Y-11837413D01*
X19075811Y-11994002D01*
X19039297Y-11999500D01*
X12332011Y-11999500D01*
X12241645Y-12023713D01*
X12241644Y-12023712D01*
X12217436Y-12030199D01*
X12217433Y-12030200D01*
X12114706Y-12089511D01*
X12114703Y-12089513D01*
X6859281Y-17344934D01*
X6814411Y-17373628D01*
X5481974Y-17863789D01*
X5475945Y-17866080D01*
X5475414Y-17866288D01*
X5463949Y-17871058D01*
X5463932Y-17871067D01*
X5460337Y-17873524D01*
X5435181Y-17886765D01*
X5386299Y-17905702D01*
X5366570Y-17917918D01*
X5299209Y-17936471D01*
X5232510Y-17915662D01*
X5187650Y-17862095D01*
X5178871Y-17792779D01*
X5208962Y-17729721D01*
X5213595Y-17724827D01*
X8330490Y-14607934D01*
X8378795Y-14524266D01*
X8389798Y-14505209D01*
X8395442Y-14484145D01*
X8403269Y-14454934D01*
X8420500Y-14390629D01*
X8420500Y-5475759D01*
X8440185Y-5408720D01*
X8455846Y-5390444D01*
X8455509Y-5390145D01*
X8460481Y-5384532D01*
X8460481Y-5384531D01*
X8460483Y-5384530D01*
X8550220Y-5254523D01*
X8606237Y-5106818D01*
X8625278Y-4950000D01*
X8613463Y-4852689D01*
X8606237Y-4793181D01*
X8551029Y-4647611D01*
X8550220Y-4645477D01*
X8460483Y-4515470D01*
X8342240Y-4410717D01*
X8342238Y-4410716D01*
X8342237Y-4410715D01*
X8202365Y-4337303D01*
X8048986Y-4299500D01*
X8048985Y-4299500D01*
X7891015Y-4299500D01*
X7891014Y-4299500D01*
X7737634Y-4337303D01*
X7597762Y-4410715D01*
X7479516Y-4515471D01*
X7389781Y-4645475D01*
X7389780Y-4645476D01*
X7333762Y-4793181D01*
X7314722Y-4949999D01*
X7314722Y-4950000D01*
X7333762Y-5106818D01*
X7389780Y-5254523D01*
X7389781Y-5254524D01*
X7479518Y-5384532D01*
X7484491Y-5390145D01*
X7483044Y-5391426D01*
X7514850Y-5442120D01*
X7519500Y-5475759D01*
X7519500Y-14093354D01*
X7499815Y-14160393D01*
X7483181Y-14181035D01*
X4562477Y-17101738D01*
X4522488Y-17128519D01*
X2959026Y-17779962D01*
X2911334Y-17789500D01*
X2466463Y-17789500D01*
X2466437Y-17789502D01*
X2441332Y-17792413D01*
X2441328Y-17792415D01*
X2338555Y-17837793D01*
X2259114Y-17917234D01*
X2213735Y-18020006D01*
X2213735Y-18020008D01*
X2210820Y-18045131D01*
X2210820Y-19834856D01*
X2210822Y-19834882D01*
X2213733Y-19859986D01*
X2213734Y-19859990D01*
X2213735Y-19859991D01*
X2220545Y-19875414D01*
X2229617Y-19944690D01*
X2199795Y-20007876D01*
X2140546Y-20044907D01*
X2107111Y-20049500D01*
X933315Y-20049500D01*
X866276Y-20029815D01*
X820521Y-19977011D01*
X810577Y-19907853D01*
X839602Y-19844297D01*
X855060Y-19829312D01*
X1077053Y-19648708D01*
X1273189Y-19438698D01*
X1438901Y-19203936D01*
X1571104Y-18948797D01*
X1667334Y-18678032D01*
X1725798Y-18396686D01*
X1745408Y-18110000D01*
X1725798Y-17823314D01*
X1667334Y-17541968D01*
X1571105Y-17271206D01*
X1571106Y-17271206D01*
X1438901Y-17016064D01*
X1273187Y-16781299D01*
X1194554Y-16697105D01*
X1077053Y-16571292D01*
X854147Y-16389945D01*
X854146Y-16389944D01*
X608617Y-16240634D01*
X345063Y-16126158D01*
X345061Y-16126157D01*
X345058Y-16126156D01*
X215578Y-16089877D01*
X68364Y-16048630D01*
X68359Y-16048629D01*
X68358Y-16048629D01*
X-73982Y-16029064D01*
X-216321Y-16009500D01*
X-216322Y-16009500D01*
X-503678Y-16009500D01*
X-503679Y-16009500D01*
X-788358Y-16048629D01*
X-788365Y-16048630D01*
X-996139Y-16106845D01*
X-1065058Y-16126156D01*
X-1065061Y-16126156D01*
X-1065064Y-16126158D01*
X-1065065Y-16126158D01*
X-1328618Y-16240634D01*
X-1574147Y-16389944D01*
X-1797050Y-16571289D01*
X-1993188Y-16781299D01*
X-2158902Y-17016064D01*
X-2291106Y-17271206D01*
X-2387333Y-17541962D01*
X-2387334Y-17541965D01*
X-2445799Y-17823319D01*
X-2465408Y-18110000D01*
X-2445799Y-18396680D01*
X-2445799Y-18396684D01*
X-2445798Y-18396686D01*
X-2424525Y-18499056D01*
X-2405068Y-18592691D01*
X-2410702Y-18662333D01*
X-2453093Y-18717874D01*
X-2518782Y-18741680D01*
X-2586913Y-18726193D01*
X-2635003Y-18677900D01*
X-2733851Y-18499049D01*
X-2739880Y-18486527D01*
X-2852541Y-18214537D01*
X-2857134Y-18201413D01*
X-2912957Y-18007648D01*
X-2938638Y-17918508D01*
X-2941731Y-17904953D01*
X-2947071Y-17873524D01*
X-2991047Y-17614703D01*
X-2992603Y-17600892D01*
X-2995734Y-17545140D01*
X-3009305Y-17303471D01*
X-3009500Y-17296519D01*
X-3009500Y-12970817D01*
X1605820Y-12970817D01*
X1605820Y-13109183D01*
X1635636Y-13220456D01*
X1641632Y-13242835D01*
X1641633Y-13242838D01*
X1710812Y-13362661D01*
X1710814Y-13362664D01*
X1710815Y-13362665D01*
X1808655Y-13460505D01*
X1808656Y-13460506D01*
X1808658Y-13460507D01*
X1813681Y-13463407D01*
X1928484Y-13529688D01*
X2062137Y-13565500D01*
X2062139Y-13565500D01*
X2200501Y-13565500D01*
X2200503Y-13565500D01*
X2334156Y-13529688D01*
X2453985Y-13460505D01*
X2551825Y-13362665D01*
X2621008Y-13242836D01*
X2656820Y-13109183D01*
X2656820Y-12970817D01*
X2621008Y-12837164D01*
X2551825Y-12717335D01*
X2453985Y-12619495D01*
X2453984Y-12619494D01*
X2453981Y-12619492D01*
X2334158Y-12550313D01*
X2334157Y-12550312D01*
X2334156Y-12550312D01*
X2200503Y-12514500D01*
X2062137Y-12514500D01*
X1928484Y-12550312D01*
X1928481Y-12550313D01*
X1808658Y-12619492D01*
X1808653Y-12619496D01*
X1710816Y-12717333D01*
X1710812Y-12717338D01*
X1641633Y-12837161D01*
X1641632Y-12837164D01*
X1605820Y-12970817D01*
X-3009500Y-12970817D01*
X-3009500Y-9399999D01*
X2014750Y-9399999D01*
X2014750Y-9400000D01*
X2033670Y-9543708D01*
X2033671Y-9543713D01*
X2043010Y-9566261D01*
X2051423Y-9597807D01*
X2051712Y-9600044D01*
X2051715Y-9600059D01*
X2136494Y-9861789D01*
X2138426Y-9931632D01*
X2136494Y-9938211D01*
X2051714Y-10199946D01*
X2051713Y-10199948D01*
X2051234Y-10203409D01*
X2042970Y-10233837D01*
X2033670Y-10256289D01*
X2033670Y-10256291D01*
X2014750Y-10400000D01*
X2021369Y-10450279D01*
X2033670Y-10543708D01*
X2033671Y-10543712D01*
X2089137Y-10677622D01*
X2089138Y-10677624D01*
X2089139Y-10677625D01*
X2177379Y-10792621D01*
X2292375Y-10880861D01*
X2426291Y-10936330D01*
X2553280Y-10953048D01*
X2569999Y-10955250D01*
X2570000Y-10955250D01*
X2570001Y-10955250D01*
X2584977Y-10953278D01*
X2713709Y-10936330D01*
X2847625Y-10880861D01*
X2962621Y-10792621D01*
X3050861Y-10677625D01*
X3106330Y-10543709D01*
X3125250Y-10400000D01*
X3106330Y-10256291D01*
X3096989Y-10233741D01*
X3088571Y-10202162D01*
X3088285Y-10199947D01*
X3088285Y-10199946D01*
X3003502Y-9938208D01*
X3001571Y-9868368D01*
X3003496Y-9861809D01*
X3088285Y-9600053D01*
X3088762Y-9596603D01*
X3097029Y-9566161D01*
X3106330Y-9543709D01*
X3125250Y-9400000D01*
X3106330Y-9256291D01*
X3050861Y-9122375D01*
X2962621Y-9007379D01*
X2847625Y-8919139D01*
X2847624Y-8919138D01*
X2847622Y-8919137D01*
X2713712Y-8863671D01*
X2713710Y-8863670D01*
X2713709Y-8863670D01*
X2641854Y-8854210D01*
X2570001Y-8844750D01*
X2569999Y-8844750D01*
X2426291Y-8863670D01*
X2426287Y-8863671D01*
X2292377Y-8919137D01*
X2177379Y-9007379D01*
X2089137Y-9122377D01*
X2033671Y-9256287D01*
X2033670Y-9256291D01*
X2014750Y-9399999D01*
X-3009500Y-9399999D01*
X-3009500Y-7190817D01*
X1605820Y-7190817D01*
X1605820Y-7329183D01*
X1628093Y-7412305D01*
X1641632Y-7462835D01*
X1641633Y-7462838D01*
X1710812Y-7582661D01*
X1710814Y-7582664D01*
X1710815Y-7582665D01*
X1808655Y-7680505D01*
X1928484Y-7749688D01*
X2062137Y-7785500D01*
X2062139Y-7785500D01*
X2200501Y-7785500D01*
X2200503Y-7785500D01*
X2334156Y-7749688D01*
X2350941Y-7739997D01*
X3884751Y-7739997D01*
X3884751Y-7740002D01*
X3887387Y-7763408D01*
X3887827Y-7786447D01*
X3887808Y-7786691D01*
X3887809Y-7786699D01*
X3887809Y-7786700D01*
X3935450Y-8215470D01*
X3985213Y-8663328D01*
X3986226Y-8668455D01*
X3985684Y-8668562D01*
X3989500Y-8695706D01*
X3989500Y-11584132D01*
X3985519Y-11610882D01*
X3986368Y-11611057D01*
X3985214Y-11616661D01*
X3887809Y-12493297D01*
X3886431Y-12509715D01*
X3886361Y-12510937D01*
X3886149Y-12522691D01*
X3885391Y-12534316D01*
X3884751Y-12540001D01*
X3884751Y-12540004D01*
X3903685Y-12708056D01*
X3959545Y-12867694D01*
X3959547Y-12867697D01*
X4049518Y-13010884D01*
X4049523Y-13010890D01*
X4169109Y-13130476D01*
X4169115Y-13130481D01*
X4312302Y-13220452D01*
X4312305Y-13220454D01*
X4312309Y-13220455D01*
X4312310Y-13220456D01*
X4384913Y-13245860D01*
X4471943Y-13276314D01*
X4639997Y-13295249D01*
X4640000Y-13295249D01*
X4640003Y-13295249D01*
X4808056Y-13276314D01*
X4808059Y-13276313D01*
X4967690Y-13220456D01*
X4967692Y-13220454D01*
X4967694Y-13220454D01*
X4967697Y-13220452D01*
X5110884Y-13130481D01*
X5110885Y-13130480D01*
X5110890Y-13130477D01*
X5230477Y-13010890D01*
X5239036Y-12997269D01*
X5320452Y-12867697D01*
X5320454Y-12867694D01*
X5320454Y-12867692D01*
X5320456Y-12867690D01*
X5376313Y-12708059D01*
X5376313Y-12708057D01*
X5376314Y-12708055D01*
X5395249Y-12540002D01*
X5395249Y-12540001D01*
X5392612Y-12516604D01*
X5392174Y-12493519D01*
X5392190Y-12493302D01*
X5392190Y-12493299D01*
X5294787Y-11616671D01*
X5294786Y-11616666D01*
X5293773Y-11611535D01*
X5294314Y-11611428D01*
X5290500Y-11584291D01*
X5290500Y-8695866D01*
X5294480Y-8669124D01*
X5293630Y-8668949D01*
X5294784Y-8663338D01*
X5294787Y-8663329D01*
X5392190Y-7786700D01*
X5393566Y-7770309D01*
X5393638Y-7769043D01*
X5393848Y-7757329D01*
X5394607Y-7745693D01*
X5395249Y-7740000D01*
X5387722Y-7673205D01*
X5376314Y-7571944D01*
X5320454Y-7412305D01*
X5320452Y-7412302D01*
X5230481Y-7269115D01*
X5230476Y-7269109D01*
X5110890Y-7149523D01*
X5110884Y-7149518D01*
X4967697Y-7059547D01*
X4967694Y-7059545D01*
X4808056Y-7003685D01*
X4640003Y-6984751D01*
X4639997Y-6984751D01*
X4471943Y-7003685D01*
X4312305Y-7059545D01*
X4312302Y-7059547D01*
X4169115Y-7149518D01*
X4169109Y-7149523D01*
X4049523Y-7269109D01*
X4049518Y-7269115D01*
X3959547Y-7412302D01*
X3959545Y-7412305D01*
X3903685Y-7571943D01*
X3884751Y-7739997D01*
X2350941Y-7739997D01*
X2453985Y-7680505D01*
X2551825Y-7582665D01*
X2621008Y-7462836D01*
X2656820Y-7329183D01*
X2656820Y-7190817D01*
X2621008Y-7057164D01*
X2579201Y-6984751D01*
X2551827Y-6937338D01*
X2551823Y-6937333D01*
X2453986Y-6839496D01*
X2453981Y-6839492D01*
X2334158Y-6770313D01*
X2334157Y-6770312D01*
X2334156Y-6770312D01*
X2200503Y-6734500D01*
X2062137Y-6734500D01*
X1928484Y-6770312D01*
X1928481Y-6770313D01*
X1808658Y-6839492D01*
X1808653Y-6839496D01*
X1710816Y-6937333D01*
X1710812Y-6937338D01*
X1641633Y-7057161D01*
X1641632Y-7057164D01*
X1605820Y-7190817D01*
X-3009500Y-7190817D01*
X-3009500Y-3003480D01*
X-3009305Y-2996528D01*
X-3002290Y-2871610D01*
X-2992602Y-2699097D01*
X-2991048Y-2685298D01*
X-2941731Y-2395041D01*
X-2938637Y-2381489D01*
X-2937246Y-2376663D01*
X-2857133Y-2098582D01*
X-2852541Y-2085462D01*
X-2823953Y-2016445D01*
X-2739877Y-1813463D01*
X-2733855Y-1800957D01*
X-2635002Y-1622097D01*
X-2585346Y-1572946D01*
X-2516998Y-1558443D01*
X-2451659Y-1583193D01*
X-2410074Y-1639340D01*
X-2405068Y-1707308D01*
X-2445799Y-1903319D01*
X-2465408Y-2190000D01*
X-2445799Y-2476680D01*
X-2445799Y-2476684D01*
X-2445798Y-2476686D01*
X-2442089Y-2494534D01*
X-2387334Y-2758034D01*
X-2387333Y-2758037D01*
X-2291106Y-3028793D01*
X-2291107Y-3028793D01*
X-2158902Y-3283935D01*
X-1993188Y-3518700D01*
X-1908077Y-3609831D01*
X-1797053Y-3728708D01*
X-1574147Y-3910055D01*
X-1328618Y-4059365D01*
X-1141763Y-4140526D01*
X-1065058Y-4173844D01*
X-788358Y-4251371D01*
X-538080Y-4285771D01*
X-503679Y-4290500D01*
X-503678Y-4290500D01*
X-216321Y-4290500D01*
X-185630Y-4286281D01*
X68358Y-4251371D01*
X345058Y-4173844D01*
X458015Y-4124779D01*
X608617Y-4059365D01*
X608620Y-4059363D01*
X608625Y-4059361D01*
X854147Y-3910055D01*
X1077053Y-3728708D01*
X1273189Y-3518698D01*
X1438901Y-3283936D01*
X1571104Y-3028797D01*
X1667334Y-2758032D01*
X1725798Y-2476686D01*
X1745408Y-2190000D01*
X1725798Y-1903314D01*
X1667334Y-1621968D01*
X1631904Y-1522279D01*
X1571105Y-1351206D01*
X1571106Y-1351206D01*
X1560117Y-1329999D01*
X11214722Y-1329999D01*
X11214722Y-1330000D01*
X11233762Y-1486818D01*
X11289780Y-1634523D01*
X11289781Y-1634524D01*
X11379518Y-1764532D01*
X11384491Y-1770145D01*
X11383044Y-1771426D01*
X11414850Y-1822120D01*
X11419500Y-1855759D01*
X11419500Y-6154240D01*
X11399815Y-6221279D01*
X11384153Y-6239556D01*
X11384491Y-6239856D01*
X11379515Y-6245472D01*
X11289781Y-6375475D01*
X11289780Y-6375476D01*
X11233762Y-6523181D01*
X11214722Y-6679999D01*
X11214722Y-6680000D01*
X11233762Y-6836818D01*
X11248982Y-6876948D01*
X11289780Y-6984523D01*
X11379517Y-7114530D01*
X11497760Y-7219283D01*
X11497762Y-7219284D01*
X11637634Y-7292696D01*
X11791014Y-7330500D01*
X11791015Y-7330500D01*
X11948985Y-7330500D01*
X12102365Y-7292696D01*
X12147294Y-7269115D01*
X12242240Y-7219283D01*
X12360483Y-7114530D01*
X12450220Y-6984523D01*
X12506237Y-6836818D01*
X12525278Y-6680000D01*
X12506237Y-6523182D01*
X12450220Y-6375477D01*
X12360483Y-6245470D01*
X12360479Y-6245466D01*
X12355509Y-6239856D01*
X12356953Y-6238576D01*
X12325145Y-6187860D01*
X12320500Y-6154240D01*
X12320500Y-1855759D01*
X12340185Y-1788720D01*
X12355846Y-1770444D01*
X12355509Y-1770145D01*
X12360481Y-1764532D01*
X12360481Y-1764531D01*
X12360483Y-1764530D01*
X12450220Y-1634523D01*
X12506237Y-1486818D01*
X12525278Y-1330000D01*
X12519271Y-1280523D01*
X12506237Y-1173181D01*
X12469965Y-1077541D01*
X12450220Y-1025477D01*
X12360483Y-895470D01*
X12242240Y-790717D01*
X12242238Y-790716D01*
X12242237Y-790715D01*
X12102365Y-717303D01*
X11948986Y-679500D01*
X11948985Y-679500D01*
X11791015Y-679500D01*
X11791014Y-679500D01*
X11637634Y-717303D01*
X11497762Y-790715D01*
X11497760Y-790717D01*
X11391714Y-884665D01*
X11379516Y-895471D01*
X11289781Y-1025475D01*
X11289780Y-1025476D01*
X11233762Y-1173181D01*
X11214722Y-1329999D01*
X1560117Y-1329999D01*
X1438901Y-1096064D01*
X1273187Y-861299D01*
X1194554Y-777105D01*
X1077053Y-651292D01*
X855059Y-470687D01*
X815480Y-413111D01*
X813311Y-343275D01*
X849242Y-283353D01*
X911867Y-252369D01*
X933315Y-250500D01*
X1895172Y-250500D01*
X7995172Y-250500D01*
X13303568Y-250500D01*
X13370607Y-270185D01*
G37*
%TD.AperFunction*%
%TA.AperFunction,Conductor*%
G36*
X22863107Y-16738274D02*
G01*
X22867409Y-16739282D01*
X22870491Y-16740005D01*
X22875969Y-16741225D01*
X22884997Y-16743128D01*
X22886291Y-16743385D01*
X22917263Y-16753939D01*
X22919221Y-16754911D01*
X22929390Y-16759674D01*
X22929390Y-16759673D01*
X22932804Y-16761272D01*
X22943556Y-16766968D01*
X22951406Y-16771633D01*
X22951687Y-16771790D01*
X22951752Y-16771838D01*
X22952818Y-16772472D01*
X22952752Y-16772582D01*
X22977544Y-16791036D01*
X22979051Y-16792497D01*
X22985466Y-16798721D01*
X22988722Y-16801786D01*
X22990912Y-16803848D01*
X22995300Y-16807855D01*
X23014780Y-16830524D01*
X23020402Y-16838938D01*
X23020429Y-16838978D01*
X23020517Y-16839109D01*
X23022009Y-16841323D01*
X23022127Y-16841497D01*
X23022136Y-16841510D01*
X23023161Y-16843019D01*
X23024875Y-16845524D01*
X23029978Y-16852918D01*
X23043878Y-16879406D01*
X23044316Y-16880561D01*
X23044931Y-16882183D01*
X23045286Y-16883099D01*
X23047214Y-16888069D01*
X23048557Y-16891451D01*
X23050811Y-16897011D01*
X23050829Y-16897054D01*
X23050837Y-16897073D01*
X23053015Y-16902332D01*
X23053018Y-16902338D01*
X23061246Y-16932511D01*
X23061824Y-16936622D01*
X23063290Y-16945794D01*
X23064623Y-16953225D01*
X23066343Y-16967616D01*
X23066639Y-16972505D01*
X23066639Y-16987496D01*
X23066343Y-16992383D01*
X23064624Y-17006767D01*
X23063303Y-17014134D01*
X23061822Y-17023392D01*
X23061247Y-17027482D01*
X23053022Y-17057644D01*
X23050800Y-17063009D01*
X23048551Y-17068556D01*
X23047163Y-17072055D01*
X23044980Y-17077683D01*
X23043857Y-17080644D01*
X23029987Y-17107064D01*
X23024988Y-17114308D01*
X23024849Y-17114510D01*
X23023095Y-17117074D01*
X23022966Y-17117263D01*
X23022443Y-17118034D01*
X23022162Y-17118448D01*
X23020461Y-17120973D01*
X23020460Y-17120975D01*
X23014778Y-17129477D01*
X22995299Y-17152141D01*
X22990979Y-17156086D01*
X22985540Y-17161203D01*
X22977539Y-17168965D01*
X22952768Y-17187412D01*
X22952832Y-17187519D01*
X22951813Y-17188124D01*
X22951748Y-17188173D01*
X22951463Y-17188332D01*
X22943184Y-17193252D01*
X22930661Y-17199706D01*
X22930670Y-17199724D01*
X22930196Y-17199945D01*
X22929905Y-17200095D01*
X22929617Y-17200222D01*
X22929385Y-17200325D01*
X22919287Y-17205053D01*
X22917231Y-17206074D01*
X22886366Y-17216597D01*
X22885015Y-17216866D01*
X22876065Y-17218751D01*
X22870572Y-17219973D01*
X22861661Y-17222063D01*
X22823752Y-17231406D01*
X22815082Y-17233217D01*
X22785666Y-17238272D01*
X22785663Y-17238272D01*
X22785663Y-17238273D01*
X22774327Y-17242727D01*
X22728410Y-17260771D01*
X22722865Y-17262645D01*
X22721834Y-17263123D01*
X22715119Y-17265993D01*
X22667583Y-17284675D01*
X22607353Y-17320088D01*
X22525239Y-17383823D01*
X22450996Y-17486696D01*
X22450994Y-17486700D01*
X22419476Y-17549047D01*
X22419465Y-17549072D01*
X22384857Y-17647051D01*
X22384855Y-17647060D01*
X22383498Y-17672189D01*
X22360226Y-17738069D01*
X22305031Y-17780909D01*
X22259679Y-17789500D01*
X22139050Y-17789500D01*
X22072011Y-17769815D01*
X22026256Y-17717011D01*
X22016312Y-17683146D01*
X22010867Y-17645277D01*
X21983011Y-17545140D01*
X21915951Y-17437443D01*
X21915950Y-17437442D01*
X21915949Y-17437440D01*
X21870202Y-17384645D01*
X21870198Y-17384641D01*
X21870196Y-17384639D01*
X21792624Y-17315458D01*
X21792622Y-17315457D01*
X21792621Y-17315456D01*
X21677988Y-17261111D01*
X21610948Y-17241426D01*
X21610940Y-17241424D01*
X21496701Y-17225000D01*
X20363300Y-17225000D01*
X20363293Y-17225000D01*
X20313551Y-17228062D01*
X20283392Y-17231790D01*
X20283356Y-17231795D01*
X20245665Y-17238272D01*
X20127583Y-17284675D01*
X20127578Y-17284678D01*
X20067353Y-17320088D01*
X19985239Y-17383823D01*
X19910996Y-17486696D01*
X19910994Y-17486700D01*
X19879476Y-17549047D01*
X19879465Y-17549072D01*
X19844857Y-17647051D01*
X19844855Y-17647060D01*
X19843498Y-17672189D01*
X19820226Y-17738069D01*
X19765031Y-17780909D01*
X19719679Y-17789500D01*
X19599050Y-17789500D01*
X19532011Y-17769815D01*
X19486256Y-17717011D01*
X19476312Y-17683146D01*
X19470867Y-17645277D01*
X19443011Y-17545140D01*
X19375951Y-17437443D01*
X19375950Y-17437442D01*
X19375949Y-17437440D01*
X19330202Y-17384645D01*
X19330198Y-17384641D01*
X19330196Y-17384639D01*
X19252624Y-17315458D01*
X19252622Y-17315457D01*
X19252621Y-17315456D01*
X19137988Y-17261111D01*
X19070948Y-17241426D01*
X19070940Y-17241424D01*
X18956701Y-17225000D01*
X18376255Y-17225000D01*
X18376232Y-17225000D01*
X18361806Y-17225256D01*
X18352892Y-17225575D01*
X18345713Y-17225858D01*
X18277951Y-17208826D01*
X18253152Y-17189633D01*
X18233338Y-17169818D01*
X18224556Y-17161298D01*
X18219070Y-17156134D01*
X18214691Y-17152135D01*
X18195208Y-17129461D01*
X18189576Y-17121032D01*
X18187867Y-17118494D01*
X18186815Y-17116945D01*
X18185082Y-17114415D01*
X18180017Y-17107078D01*
X18166123Y-17080601D01*
X18165047Y-17077763D01*
X18162853Y-17072105D01*
X18161478Y-17068637D01*
X18159159Y-17062917D01*
X18156982Y-17057661D01*
X18148750Y-17027471D01*
X18148176Y-17023391D01*
X18148175Y-17023383D01*
X18146697Y-17014145D01*
X18145376Y-17006782D01*
X18143654Y-16992365D01*
X18143414Y-16988395D01*
X18143358Y-16987454D01*
X18143360Y-16972522D01*
X18143656Y-16967622D01*
X18145380Y-16953194D01*
X18146697Y-16945855D01*
X18146707Y-16945794D01*
X18148175Y-16936617D01*
X18148751Y-16932520D01*
X18156981Y-16902337D01*
X18159170Y-16897054D01*
X18161492Y-16891325D01*
X18162870Y-16887849D01*
X18165060Y-16882202D01*
X18166128Y-16879383D01*
X18180021Y-16852916D01*
X18180022Y-16852915D01*
X18185094Y-16845567D01*
X18186822Y-16843043D01*
X18187872Y-16841497D01*
X18189582Y-16838958D01*
X18195207Y-16830538D01*
X18214696Y-16807858D01*
X18219093Y-16803843D01*
X18224541Y-16798714D01*
X18232447Y-16791043D01*
X18257230Y-16772598D01*
X18257162Y-16772483D01*
X18258277Y-16771820D01*
X18258336Y-16771775D01*
X18258578Y-16771641D01*
X18266810Y-16766749D01*
X18279324Y-16760302D01*
X18279314Y-16760281D01*
X18279896Y-16760008D01*
X18280157Y-16759874D01*
X18280190Y-16759859D01*
X18280590Y-16759683D01*
X18290758Y-16754921D01*
X18292723Y-16753945D01*
X18323719Y-16743381D01*
X18325011Y-16743125D01*
X18333978Y-16741236D01*
X18339442Y-16740020D01*
X18344409Y-16738854D01*
X18346884Y-16738275D01*
X18375193Y-16735000D01*
X22834803Y-16735000D01*
X22863107Y-16738274D01*
G37*
%TD.AperFunction*%
%TA.AperFunction,Conductor*%
G36*
X18061129Y-12920185D02*
G01*
X18106884Y-12972989D01*
X18117029Y-13008314D01*
X18123818Y-13059880D01*
X18129415Y-13102394D01*
X18134723Y-13142706D01*
X18134724Y-13142711D01*
X18190190Y-13276620D01*
X18194162Y-13283500D01*
X18210633Y-13351401D01*
X18187780Y-13417427D01*
X18185158Y-13420975D01*
X18184086Y-13422371D01*
X18184084Y-13422374D01*
X18128617Y-13556287D01*
X18128616Y-13556291D01*
X18109696Y-13699999D01*
X18109696Y-13700000D01*
X18128616Y-13843708D01*
X18128617Y-13843712D01*
X18184083Y-13977622D01*
X18184084Y-13977624D01*
X18184085Y-13977625D01*
X18272325Y-14092621D01*
X18284710Y-14102124D01*
X18325913Y-14158552D01*
X18330068Y-14228298D01*
X18295856Y-14289218D01*
X18234139Y-14321971D01*
X18209224Y-14324500D01*
X16764821Y-14324500D01*
X16764816Y-14324500D01*
X16764795Y-14324501D01*
X16703035Y-14329234D01*
X16703030Y-14329234D01*
X16665708Y-14334988D01*
X16665707Y-14334988D01*
X16616436Y-14345755D01*
X16501356Y-14399155D01*
X16443352Y-14438121D01*
X16443350Y-14438122D01*
X16390884Y-14484145D01*
X16365218Y-14506659D01*
X16346015Y-14536940D01*
X16297273Y-14613801D01*
X16269545Y-14677937D01*
X16240867Y-14777832D01*
X16241632Y-14904702D01*
X16241632Y-14904704D01*
X16255345Y-14988028D01*
X16255410Y-14988111D01*
X16262143Y-15011660D01*
X16265410Y-15029658D01*
X16265411Y-15029665D01*
X16303865Y-15139562D01*
X16310043Y-15166630D01*
X16315619Y-15216112D01*
X16315619Y-15243882D01*
X16310043Y-15293367D01*
X16303865Y-15320436D01*
X16287415Y-15367448D01*
X16275367Y-15392466D01*
X16248871Y-15434634D01*
X16231558Y-15456343D01*
X16196341Y-15491560D01*
X16174633Y-15508872D01*
X16132474Y-15535364D01*
X16132472Y-15535365D01*
X16107450Y-15547414D01*
X16060433Y-15563865D01*
X16033364Y-15570043D01*
X15983882Y-15575618D01*
X15956116Y-15575618D01*
X15906635Y-15570043D01*
X15879566Y-15563865D01*
X15848848Y-15553117D01*
X15848841Y-15553115D01*
X15832539Y-15547410D01*
X15807526Y-15535364D01*
X15765367Y-15508874D01*
X15743658Y-15491561D01*
X15708437Y-15456340D01*
X15691124Y-15434631D01*
X15664631Y-15392468D01*
X15652586Y-15367455D01*
X15636132Y-15320434D01*
X15629956Y-15293378D01*
X15624379Y-15243871D01*
X15624380Y-15216115D01*
X15629955Y-15166626D01*
X15636133Y-15139562D01*
X15664616Y-15058165D01*
X15665263Y-15057262D01*
X15666762Y-15052345D01*
X15668329Y-15047554D01*
X15674588Y-15029669D01*
X15674589Y-15029665D01*
X15674639Y-15029386D01*
X15674722Y-15029044D01*
X15675019Y-15027668D01*
X15675053Y-15027675D01*
X15678041Y-15015327D01*
X15678586Y-15013537D01*
X15678588Y-15013538D01*
X15685807Y-14989848D01*
X15697479Y-14940790D01*
X15699289Y-14813935D01*
X15689345Y-14744777D01*
X15661489Y-14644640D01*
X15594429Y-14536943D01*
X15594428Y-14536942D01*
X15594427Y-14536940D01*
X15548680Y-14484145D01*
X15548676Y-14484141D01*
X15548674Y-14484139D01*
X15471102Y-14414958D01*
X15471100Y-14414957D01*
X15471099Y-14414956D01*
X15356466Y-14360611D01*
X15289426Y-14340926D01*
X15289418Y-14340924D01*
X15175179Y-14324500D01*
X13700203Y-14324500D01*
X13700197Y-14324500D01*
X13591935Y-14339221D01*
X13591934Y-14339221D01*
X13528106Y-14356906D01*
X13437707Y-14394189D01*
X13382159Y-14438119D01*
X13338196Y-14472886D01*
X13338194Y-14472887D01*
X13338189Y-14472892D01*
X13290852Y-14524259D01*
X13290847Y-14524265D01*
X13290847Y-14524266D01*
X13230784Y-14609101D01*
X13218593Y-14644640D01*
X13189617Y-14729106D01*
X13177562Y-14797931D01*
X13174033Y-14913287D01*
X13174033Y-14913292D01*
X13179328Y-14960281D01*
X13185619Y-15016118D01*
X13185619Y-15043883D01*
X13180043Y-15093367D01*
X13173865Y-15120436D01*
X13157414Y-15167451D01*
X13145366Y-15192469D01*
X13118873Y-15234632D01*
X13101560Y-15256341D01*
X13066341Y-15291560D01*
X13044633Y-15308872D01*
X13002474Y-15335364D01*
X13002472Y-15335365D01*
X12977450Y-15347414D01*
X12930433Y-15363865D01*
X12903364Y-15370043D01*
X12853882Y-15375618D01*
X12826116Y-15375618D01*
X12776635Y-15370043D01*
X12749566Y-15363865D01*
X12718848Y-15353117D01*
X12718841Y-15353115D01*
X12702539Y-15347410D01*
X12677526Y-15335364D01*
X12635367Y-15308874D01*
X12613658Y-15291561D01*
X12578437Y-15256340D01*
X12561124Y-15234631D01*
X12534629Y-15192465D01*
X12522586Y-15167455D01*
X12506132Y-15120434D01*
X12499957Y-15093380D01*
X12494379Y-15043870D01*
X12494380Y-15016114D01*
X12494671Y-15013538D01*
X12505967Y-14913286D01*
X12503460Y-14804041D01*
X12493034Y-14738646D01*
X12466107Y-14644640D01*
X12399047Y-14536943D01*
X12399046Y-14536942D01*
X12399045Y-14536940D01*
X12353298Y-14484145D01*
X12353294Y-14484141D01*
X12353292Y-14484139D01*
X12275720Y-14414958D01*
X12275718Y-14414957D01*
X12275717Y-14414956D01*
X12161084Y-14360611D01*
X12094044Y-14340926D01*
X12094036Y-14340924D01*
X11979797Y-14324500D01*
X11453285Y-14324500D01*
X11386246Y-14304815D01*
X11340491Y-14252011D01*
X11330547Y-14182853D01*
X11359572Y-14119297D01*
X11365604Y-14112819D01*
X12541604Y-12936819D01*
X12602927Y-12903334D01*
X12629285Y-12900500D01*
X17994090Y-12900500D01*
X18061129Y-12920185D01*
G37*
%TD.AperFunction*%
%TA.AperFunction,Conductor*%
G36*
X24613724Y-270185D02*
G01*
X24659479Y-322989D01*
X24669423Y-392147D01*
X24640398Y-455703D01*
X24624940Y-470688D01*
X24402950Y-651289D01*
X24206812Y-861299D01*
X24041098Y-1096064D01*
X23908894Y-1351206D01*
X23812667Y-1621962D01*
X23812666Y-1621965D01*
X23754201Y-1903319D01*
X23734592Y-2190000D01*
X23754201Y-2476680D01*
X23754201Y-2476684D01*
X23754202Y-2476686D01*
X23757911Y-2494534D01*
X23812666Y-2758034D01*
X23812667Y-2758037D01*
X23908894Y-3028793D01*
X23908893Y-3028793D01*
X24041098Y-3283935D01*
X24206812Y-3518700D01*
X24291923Y-3609831D01*
X24402947Y-3728708D01*
X24625853Y-3910055D01*
X24871382Y-4059365D01*
X25058237Y-4140526D01*
X25134942Y-4173844D01*
X25411642Y-4251371D01*
X25661920Y-4285771D01*
X25696321Y-4290500D01*
X25696322Y-4290500D01*
X25983679Y-4290500D01*
X26014370Y-4286281D01*
X26268358Y-4251371D01*
X26545058Y-4173844D01*
X26658015Y-4124779D01*
X26808617Y-4059365D01*
X26808620Y-4059363D01*
X26808625Y-4059361D01*
X27054147Y-3910055D01*
X27277053Y-3728708D01*
X27473189Y-3518698D01*
X27638901Y-3283936D01*
X27771104Y-3028797D01*
X27867334Y-2758032D01*
X27925798Y-2476686D01*
X27945408Y-2190000D01*
X27925798Y-1903314D01*
X27867334Y-1621968D01*
X27831904Y-1522279D01*
X27771105Y-1351206D01*
X27771106Y-1351206D01*
X27638901Y-1096064D01*
X27473187Y-861299D01*
X27394554Y-777105D01*
X27277053Y-651292D01*
X27055059Y-470687D01*
X27015480Y-413111D01*
X27013311Y-343275D01*
X27049242Y-283353D01*
X27111867Y-252369D01*
X27133315Y-250500D01*
X27355830Y-250500D01*
X27396519Y-250500D01*
X27403471Y-250695D01*
X27416649Y-251435D01*
X27700900Y-267397D01*
X27714703Y-268953D01*
X28004953Y-318269D01*
X28018510Y-321363D01*
X28301413Y-402866D01*
X28314537Y-407459D01*
X28586527Y-520120D01*
X28599049Y-526149D01*
X28797673Y-635925D01*
X28856726Y-668563D01*
X28868500Y-675961D01*
X29108604Y-846323D01*
X29119476Y-854993D01*
X29314572Y-1029342D01*
X29338997Y-1051169D01*
X29348828Y-1061000D01*
X29417437Y-1137773D01*
X29545006Y-1280523D01*
X29553676Y-1291395D01*
X29724038Y-1531499D01*
X29731436Y-1543273D01*
X29873846Y-1800943D01*
X29879879Y-1813472D01*
X29992540Y-2085462D01*
X29997133Y-2098586D01*
X30078636Y-2381489D01*
X30081730Y-2395046D01*
X30131045Y-2685288D01*
X30132602Y-2699106D01*
X30149305Y-2996527D01*
X30149500Y-3003480D01*
X30149500Y-4228649D01*
X30129815Y-4295688D01*
X30077011Y-4341443D01*
X30007853Y-4351387D01*
X29944297Y-4322362D01*
X29926546Y-4303376D01*
X29913872Y-4286593D01*
X29756302Y-4142948D01*
X29575019Y-4030702D01*
X29575017Y-4030701D01*
X29475608Y-3992190D01*
X29376198Y-3953679D01*
X29166610Y-3914500D01*
X28953390Y-3914500D01*
X28743802Y-3953679D01*
X28743799Y-3953679D01*
X28743799Y-3953680D01*
X28544982Y-4030701D01*
X28544980Y-4030702D01*
X28363699Y-4142947D01*
X28206127Y-4286593D01*
X28077632Y-4456746D01*
X27982596Y-4647605D01*
X27982596Y-4647607D01*
X27924244Y-4852689D01*
X27904571Y-5064999D01*
X27904571Y-5065000D01*
X27924244Y-5277310D01*
X27982596Y-5482392D01*
X27982596Y-5482394D01*
X28077632Y-5673253D01*
X28206126Y-5843405D01*
X28206128Y-5843407D01*
X28363698Y-5987052D01*
X28544981Y-6099298D01*
X28743802Y-6176321D01*
X28953390Y-6215500D01*
X28953392Y-6215500D01*
X29166608Y-6215500D01*
X29166610Y-6215500D01*
X29376198Y-6176321D01*
X29575019Y-6099298D01*
X29756302Y-5987052D01*
X29913872Y-5843407D01*
X29926545Y-5826624D01*
X29982653Y-5784988D01*
X30052365Y-5780295D01*
X30113547Y-5814036D01*
X30146775Y-5875499D01*
X30149500Y-5901350D01*
X30149500Y-9308649D01*
X30129815Y-9375688D01*
X30077011Y-9421443D01*
X30007853Y-9431387D01*
X29944297Y-9402362D01*
X29926546Y-9383376D01*
X29913872Y-9366593D01*
X29792877Y-9256291D01*
X29756302Y-9222948D01*
X29575019Y-9110702D01*
X29575017Y-9110701D01*
X29475608Y-9072190D01*
X29376198Y-9033679D01*
X29166610Y-8994500D01*
X28953390Y-8994500D01*
X28743802Y-9033679D01*
X28743799Y-9033679D01*
X28743799Y-9033680D01*
X28544982Y-9110701D01*
X28544980Y-9110702D01*
X28363699Y-9222947D01*
X28206127Y-9366593D01*
X28077632Y-9536746D01*
X27982596Y-9727605D01*
X27982596Y-9727607D01*
X27933546Y-9899999D01*
X27924244Y-9932690D01*
X27904571Y-10145000D01*
X27924244Y-10357310D01*
X27980421Y-10554750D01*
X27982596Y-10562392D01*
X27982596Y-10562394D01*
X28077632Y-10753253D01*
X28206126Y-10923405D01*
X28206128Y-10923407D01*
X28363698Y-11067052D01*
X28544981Y-11179298D01*
X28743802Y-11256321D01*
X28940613Y-11293111D01*
X29002893Y-11324779D01*
X29038166Y-11385092D01*
X29035232Y-11454900D01*
X28995023Y-11512040D01*
X28940613Y-11536888D01*
X28743802Y-11573679D01*
X28743799Y-11573679D01*
X28743799Y-11573680D01*
X28544982Y-11650701D01*
X28544980Y-11650702D01*
X28363699Y-11762947D01*
X28206127Y-11906593D01*
X28077632Y-12076746D01*
X27982596Y-12267605D01*
X27982596Y-12267607D01*
X27924244Y-12472689D01*
X27918007Y-12540004D01*
X27904571Y-12685000D01*
X27924244Y-12897310D01*
X27945159Y-12970819D01*
X27982596Y-13102392D01*
X27982596Y-13102394D01*
X28077632Y-13293253D01*
X28203935Y-13460503D01*
X28206128Y-13463407D01*
X28363698Y-13607052D01*
X28544981Y-13719298D01*
X28743802Y-13796321D01*
X28916544Y-13828612D01*
X28978823Y-13860279D01*
X29014096Y-13920591D01*
X29011162Y-13990400D01*
X28970953Y-14047540D01*
X28906235Y-14073871D01*
X28893757Y-14074500D01*
X28165143Y-14074500D01*
X28165117Y-14074502D01*
X28140012Y-14077413D01*
X28140008Y-14077415D01*
X28037235Y-14122793D01*
X27957795Y-14202233D01*
X27957794Y-14202234D01*
X27957794Y-14202235D01*
X27936443Y-14250588D01*
X27891360Y-14303962D01*
X27824574Y-14324490D01*
X27823011Y-14324500D01*
X22502575Y-14324500D01*
X22435536Y-14304815D01*
X22389781Y-14252011D01*
X22379837Y-14182853D01*
X22408862Y-14119297D01*
X22414894Y-14112819D01*
X22731393Y-13796319D01*
X23147023Y-13380687D01*
X23147028Y-13380684D01*
X23157231Y-13370480D01*
X23157233Y-13370480D01*
X23231800Y-13295913D01*
X23284527Y-13204587D01*
X23294499Y-13167372D01*
X23311821Y-13102727D01*
X23311821Y-12997273D01*
X23311821Y-12989678D01*
X23311820Y-12989660D01*
X23311820Y-2763618D01*
X23314423Y-2738344D01*
X23314466Y-2738136D01*
X23316991Y-2726010D01*
X23345191Y-1348175D01*
X23345243Y-1344639D01*
X23345245Y-1344414D01*
X23345245Y-1344372D01*
X23345210Y-1338943D01*
X23345429Y-1333852D01*
X23345429Y-1330002D01*
X23345429Y-1329999D01*
X23325756Y-1117690D01*
X23267405Y-912611D01*
X23267403Y-912606D01*
X23267403Y-912605D01*
X23172367Y-721746D01*
X23043870Y-551591D01*
X22950132Y-466137D01*
X22913850Y-406426D01*
X22915611Y-336578D01*
X22954854Y-278771D01*
X23019121Y-251356D01*
X23033670Y-250500D01*
X24546685Y-250500D01*
X24613724Y-270185D01*
G37*
%TD.AperFunction*%
%TA.AperFunction,Conductor*%
G36*
X16478640Y-2295476D02*
G01*
X16502087Y-2306781D01*
X16525703Y-2321403D01*
X16594981Y-2364298D01*
X16667183Y-2392269D01*
X16682675Y-2399538D01*
X16690563Y-2403927D01*
X16699642Y-2408979D01*
X16699643Y-2408979D01*
X16699648Y-2408982D01*
X16775362Y-2434320D01*
X16780778Y-2436275D01*
X16793802Y-2441321D01*
X16793816Y-2441323D01*
X16799319Y-2442890D01*
X16799301Y-2442953D01*
X16807542Y-2445090D01*
X17473280Y-2667891D01*
X17473280Y-2667890D01*
X17728016Y-2753143D01*
X17728017Y-2753144D01*
X18059154Y-2863964D01*
X18107480Y-2893873D01*
X21874501Y-6660894D01*
X21907986Y-6722217D01*
X21910820Y-6748575D01*
X21910820Y-7805065D01*
X21891135Y-7872104D01*
X21838331Y-7917859D01*
X21769173Y-7927803D01*
X21705617Y-7898778D01*
X21699139Y-7892746D01*
X16376266Y-2569873D01*
X16348335Y-2527025D01*
X16321196Y-2457034D01*
X16315314Y-2387416D01*
X16348004Y-2325666D01*
X16408890Y-2291392D01*
X16478640Y-2295476D01*
G37*
%TD.AperFunction*%
%TA.AperFunction,Conductor*%
G36*
X18876227Y-2186213D02*
G01*
X18900336Y-2203406D01*
X18953698Y-2252052D01*
X19134981Y-2364298D01*
X19207183Y-2392269D01*
X19222675Y-2399538D01*
X19230563Y-2403927D01*
X19239642Y-2408979D01*
X19239643Y-2408979D01*
X19239648Y-2408982D01*
X19315362Y-2434320D01*
X19320778Y-2436275D01*
X19333802Y-2441321D01*
X19333816Y-2441323D01*
X19339319Y-2442890D01*
X19339301Y-2442953D01*
X19347542Y-2445090D01*
X20013280Y-2667891D01*
X20013280Y-2667890D01*
X20268016Y-2753143D01*
X20268017Y-2753144D01*
X20599154Y-2863964D01*
X20647480Y-2893873D01*
X22174501Y-4420894D01*
X22207986Y-4482217D01*
X22210820Y-4508575D01*
X22210820Y-5565065D01*
X22191135Y-5632104D01*
X22138331Y-5677859D01*
X22069173Y-5687803D01*
X22005617Y-5658778D01*
X21999139Y-5652746D01*
X18729119Y-2382726D01*
X18695634Y-2321403D01*
X18700618Y-2251711D01*
X18742490Y-2195778D01*
X18807954Y-2171361D01*
X18876227Y-2186213D01*
G37*
%TD.AperFunction*%
%TA.AperFunction,Conductor*%
G36*
X21416227Y-2186213D02*
G01*
X21440336Y-2203406D01*
X21493698Y-2252052D01*
X21674981Y-2364298D01*
X21693270Y-2371383D01*
X21716101Y-2383074D01*
X22454447Y-2863490D01*
X22499903Y-2916551D01*
X22510820Y-2967425D01*
X22510820Y-3325065D01*
X22491135Y-3392104D01*
X22438331Y-3437859D01*
X22369173Y-3447803D01*
X22305617Y-3418778D01*
X22299139Y-3412746D01*
X21269119Y-2382726D01*
X21235634Y-2321403D01*
X21240618Y-2251711D01*
X21282490Y-2195778D01*
X21347954Y-2171361D01*
X21416227Y-2186213D01*
G37*
%TD.AperFunction*%
%TD*%
%TA.AperFunction,Conductor*%
%TO.N,/CH343_VDD_5V*%
G36*
X12046836Y-14749685D02*
G01*
X12092591Y-14802489D01*
X12103017Y-14867884D01*
X12084751Y-15029997D01*
X12084751Y-15030002D01*
X12103685Y-15198056D01*
X12159545Y-15357694D01*
X12159547Y-15357697D01*
X12249518Y-15500884D01*
X12249523Y-15500890D01*
X12369109Y-15620476D01*
X12369115Y-15620481D01*
X12512302Y-15710452D01*
X12512305Y-15710454D01*
X12512309Y-15710455D01*
X12512310Y-15710456D01*
X12584913Y-15735860D01*
X12671943Y-15766314D01*
X12839997Y-15785249D01*
X12840000Y-15785249D01*
X12840003Y-15785249D01*
X13008056Y-15766314D01*
X13008059Y-15766313D01*
X13167690Y-15710456D01*
X13167692Y-15710454D01*
X13167694Y-15710454D01*
X13167697Y-15710452D01*
X13310884Y-15620481D01*
X13310885Y-15620480D01*
X13310890Y-15620477D01*
X13430477Y-15500890D01*
X13430481Y-15500884D01*
X13520452Y-15357697D01*
X13520454Y-15357694D01*
X13520454Y-15357692D01*
X13520456Y-15357690D01*
X13576313Y-15198059D01*
X13576313Y-15198058D01*
X13576314Y-15198056D01*
X13595249Y-15030002D01*
X13595249Y-15029997D01*
X13576983Y-14867884D01*
X13589037Y-14799062D01*
X13636386Y-14747682D01*
X13700203Y-14730000D01*
X15175179Y-14730000D01*
X15242218Y-14749685D01*
X15287973Y-14802489D01*
X15297917Y-14871647D01*
X15290698Y-14895337D01*
X15291844Y-14895738D01*
X15233685Y-15061943D01*
X15214751Y-15229997D01*
X15214751Y-15230002D01*
X15233685Y-15398056D01*
X15289545Y-15557694D01*
X15289547Y-15557697D01*
X15379518Y-15700884D01*
X15379523Y-15700890D01*
X15499109Y-15820476D01*
X15499115Y-15820481D01*
X15642302Y-15910452D01*
X15642305Y-15910454D01*
X15642309Y-15910455D01*
X15642310Y-15910456D01*
X15714913Y-15935860D01*
X15801943Y-15966314D01*
X15969997Y-15985249D01*
X15970000Y-15985249D01*
X15970003Y-15985249D01*
X16138056Y-15966314D01*
X16138059Y-15966313D01*
X16297690Y-15910456D01*
X16297692Y-15910454D01*
X16297694Y-15910454D01*
X16297697Y-15910452D01*
X16440884Y-15820481D01*
X16440885Y-15820480D01*
X16440890Y-15820477D01*
X16560477Y-15700890D01*
X16650452Y-15557697D01*
X16650454Y-15557694D01*
X16650454Y-15557692D01*
X16650456Y-15557690D01*
X16706313Y-15398059D01*
X16706313Y-15398058D01*
X16706314Y-15398056D01*
X16725249Y-15230002D01*
X16725249Y-15229997D01*
X16706314Y-15061943D01*
X16648156Y-14895738D01*
X16650951Y-14894759D01*
X16641750Y-14838851D01*
X16669477Y-14774719D01*
X16727475Y-14735757D01*
X16764821Y-14730000D01*
X20652548Y-14730000D01*
X20719587Y-14749685D01*
X20765342Y-14802489D01*
X20768487Y-14810023D01*
X20797940Y-14887683D01*
X20887677Y-15017690D01*
X21005920Y-15122443D01*
X21005922Y-15122444D01*
X21145794Y-15195856D01*
X21299174Y-15233660D01*
X21299175Y-15233660D01*
X21457145Y-15233660D01*
X21610525Y-15195856D01*
X21750400Y-15122443D01*
X21868643Y-15017690D01*
X21958380Y-14887683D01*
X21961157Y-14880357D01*
X21973166Y-14858168D01*
X21972607Y-14857825D01*
X21975153Y-14853675D01*
X21975163Y-14853663D01*
X22003789Y-14797605D01*
X22051809Y-14746853D01*
X22114223Y-14730000D01*
X30025500Y-14730000D01*
X30092539Y-14749685D01*
X30138294Y-14802489D01*
X30149500Y-14854000D01*
X30149500Y-17296519D01*
X30149305Y-17303472D01*
X30132602Y-17600893D01*
X30131045Y-17614711D01*
X30081730Y-17904953D01*
X30078636Y-17918510D01*
X29997133Y-18201413D01*
X29992540Y-18214537D01*
X29879879Y-18486527D01*
X29873846Y-18499056D01*
X29731436Y-18756726D01*
X29724038Y-18768500D01*
X29553676Y-19008604D01*
X29545006Y-19019476D01*
X29348830Y-19238997D01*
X29338997Y-19248830D01*
X29119476Y-19445006D01*
X29108604Y-19453676D01*
X28868500Y-19624038D01*
X28856726Y-19631436D01*
X28599056Y-19773846D01*
X28586527Y-19779879D01*
X28314537Y-19892540D01*
X28301413Y-19897133D01*
X28018510Y-19978636D01*
X28004953Y-19981730D01*
X27714711Y-20031045D01*
X27700893Y-20032602D01*
X27403472Y-20049305D01*
X27396519Y-20049500D01*
X27133315Y-20049500D01*
X27066276Y-20029815D01*
X27020521Y-19977011D01*
X27010577Y-19907853D01*
X27039602Y-19844297D01*
X27055060Y-19829312D01*
X27064640Y-19821518D01*
X27277053Y-19648708D01*
X27473189Y-19438698D01*
X27638901Y-19203936D01*
X27771104Y-18948797D01*
X27867334Y-18678032D01*
X27925798Y-18396686D01*
X27945408Y-18110000D01*
X27925798Y-17823314D01*
X27867334Y-17541968D01*
X27853082Y-17501868D01*
X27771105Y-17271206D01*
X27771106Y-17271206D01*
X27638901Y-17016064D01*
X27473187Y-16781299D01*
X27374353Y-16675475D01*
X27277053Y-16571292D01*
X27091092Y-16420002D01*
X27054146Y-16389944D01*
X26808617Y-16240634D01*
X26545063Y-16126158D01*
X26545061Y-16126157D01*
X26545058Y-16126156D01*
X26415578Y-16089877D01*
X26268364Y-16048630D01*
X26268359Y-16048629D01*
X26268358Y-16048629D01*
X26126018Y-16029064D01*
X25983679Y-16009500D01*
X25983678Y-16009500D01*
X25696322Y-16009500D01*
X25696321Y-16009500D01*
X25411642Y-16048629D01*
X25411635Y-16048630D01*
X25203861Y-16106845D01*
X25134942Y-16126156D01*
X25134939Y-16126156D01*
X25134936Y-16126158D01*
X25134935Y-16126158D01*
X24871382Y-16240634D01*
X24625853Y-16389944D01*
X24402950Y-16571289D01*
X24206812Y-16781299D01*
X24041098Y-17016064D01*
X23908894Y-17271206D01*
X23812667Y-17541962D01*
X23812666Y-17541965D01*
X23754201Y-17823319D01*
X23734592Y-18110000D01*
X23754201Y-18396680D01*
X23812666Y-18678034D01*
X23812667Y-18678037D01*
X23908894Y-18948793D01*
X23908893Y-18948793D01*
X24041098Y-19203935D01*
X24206812Y-19438700D01*
X24291923Y-19529831D01*
X24402947Y-19648708D01*
X24615360Y-19821518D01*
X24624940Y-19829312D01*
X24664520Y-19886889D01*
X24666689Y-19956725D01*
X24630758Y-20016647D01*
X24568133Y-20047631D01*
X24546685Y-20049500D01*
X23158337Y-20049500D01*
X23091298Y-20029815D01*
X23045543Y-19977011D01*
X23035599Y-19907853D01*
X23064624Y-19844297D01*
X23070656Y-19837819D01*
X23086957Y-19821518D01*
X23161598Y-19746877D01*
X23287102Y-19567639D01*
X23379575Y-19369330D01*
X23436207Y-19157977D01*
X23453771Y-18957219D01*
X23455277Y-18940002D01*
X23455277Y-18939997D01*
X23451569Y-18897618D01*
X23436207Y-18722023D01*
X23379575Y-18510670D01*
X23287102Y-18312362D01*
X23287100Y-18312359D01*
X23287099Y-18312357D01*
X23161599Y-18133124D01*
X23086950Y-18058475D01*
X23006877Y-17978402D01*
X22832175Y-17856074D01*
X22788551Y-17801497D01*
X22781359Y-17731999D01*
X22812881Y-17669644D01*
X22873111Y-17634231D01*
X22891605Y-17631945D01*
X22891540Y-17631404D01*
X22898981Y-17630500D01*
X22898985Y-17630500D01*
X22958692Y-17615783D01*
X22964099Y-17614580D01*
X23009744Y-17605501D01*
X23014782Y-17603413D01*
X23032564Y-17597576D01*
X23052365Y-17592696D01*
X23091237Y-17572292D01*
X23101374Y-17567545D01*
X23128127Y-17556465D01*
X23147328Y-17543634D01*
X23158576Y-17536950D01*
X23192240Y-17519283D01*
X23211909Y-17501856D01*
X23225234Y-17491579D01*
X23234669Y-17485276D01*
X23263425Y-17456518D01*
X23268866Y-17451398D01*
X23310483Y-17414530D01*
X23315534Y-17407210D01*
X23321743Y-17398972D01*
X23325267Y-17394677D01*
X23325276Y-17394669D01*
X23357630Y-17346244D01*
X23358563Y-17344870D01*
X23400220Y-17284523D01*
X23424122Y-17221497D01*
X23425448Y-17218154D01*
X23445501Y-17169744D01*
X23445502Y-17169737D01*
X23446196Y-17167448D01*
X23451094Y-17150377D01*
X23456237Y-17136818D01*
X23462232Y-17087440D01*
X23463709Y-17078207D01*
X23470500Y-17044069D01*
X23470500Y-17026851D01*
X23471404Y-17011904D01*
X23473127Y-16997713D01*
X23475278Y-16980000D01*
X23471404Y-16948094D01*
X23470500Y-16933148D01*
X23470500Y-16915932D01*
X23470499Y-16915928D01*
X23463705Y-16881775D01*
X23462232Y-16872562D01*
X23456237Y-16823182D01*
X23451094Y-16809621D01*
X23446185Y-16792512D01*
X23445502Y-16790261D01*
X23445501Y-16790256D01*
X23441791Y-16781299D01*
X23425472Y-16741900D01*
X23424091Y-16738420D01*
X23423476Y-16736798D01*
X23400220Y-16675477D01*
X23358595Y-16615173D01*
X23357570Y-16613664D01*
X23325281Y-16565337D01*
X23321732Y-16561013D01*
X23315529Y-16552780D01*
X23310486Y-16545474D01*
X23310484Y-16545472D01*
X23310483Y-16545470D01*
X23310480Y-16545467D01*
X23310477Y-16545464D01*
X23268856Y-16508590D01*
X23263403Y-16503457D01*
X23234672Y-16474726D01*
X23234667Y-16474722D01*
X23225241Y-16468424D01*
X23211904Y-16458137D01*
X23192244Y-16440720D01*
X23192242Y-16440719D01*
X23192240Y-16440717D01*
X23158570Y-16423045D01*
X23147318Y-16416358D01*
X23128127Y-16403535D01*
X23101390Y-16392460D01*
X23101388Y-16392459D01*
X23091219Y-16387696D01*
X23052365Y-16367304D01*
X23032560Y-16362422D01*
X23014799Y-16356592D01*
X23009744Y-16354499D01*
X22964118Y-16345422D01*
X22958640Y-16344202D01*
X22898987Y-16329500D01*
X22898985Y-16329500D01*
X22884069Y-16329500D01*
X18468985Y-16329500D01*
X18311015Y-16329500D01*
X18251354Y-16344203D01*
X18245890Y-16345419D01*
X18200259Y-16354497D01*
X18200253Y-16354499D01*
X18195194Y-16356594D01*
X18177444Y-16362420D01*
X18157637Y-16367303D01*
X18157634Y-16367304D01*
X18118776Y-16387698D01*
X18108608Y-16392460D01*
X18081872Y-16403534D01*
X18062677Y-16416360D01*
X18051418Y-16423051D01*
X18017761Y-16440716D01*
X18017754Y-16440721D01*
X17998094Y-16458138D01*
X17984768Y-16468418D01*
X17975332Y-16474723D01*
X17975324Y-16474729D01*
X17946583Y-16503469D01*
X17941135Y-16508598D01*
X17899517Y-16545469D01*
X17894465Y-16552788D01*
X17888284Y-16560991D01*
X17884730Y-16565322D01*
X17852424Y-16613670D01*
X17851374Y-16615216D01*
X17809778Y-16675478D01*
X17785911Y-16738410D01*
X17784533Y-16741886D01*
X17764497Y-16790261D01*
X17763843Y-16792416D01*
X17758908Y-16809613D01*
X17753763Y-16823179D01*
X17753762Y-16823183D01*
X17747767Y-16872555D01*
X17746289Y-16881793D01*
X17739500Y-16915928D01*
X17739500Y-16933148D01*
X17738596Y-16948094D01*
X17734722Y-16979999D01*
X17738596Y-17011904D01*
X17739500Y-17026851D01*
X17739500Y-17044071D01*
X17746289Y-17078207D01*
X17747767Y-17087445D01*
X17753763Y-17136819D01*
X17758906Y-17150381D01*
X17763847Y-17167594D01*
X17764498Y-17169741D01*
X17764499Y-17169744D01*
X17772470Y-17188988D01*
X17784525Y-17218092D01*
X17785900Y-17221560D01*
X17804729Y-17271206D01*
X17809780Y-17284522D01*
X17809780Y-17284523D01*
X17851363Y-17344766D01*
X17852415Y-17346315D01*
X17884722Y-17394666D01*
X17888278Y-17398999D01*
X17894470Y-17407218D01*
X17899518Y-17414532D01*
X17941142Y-17451407D01*
X17946598Y-17456543D01*
X17967875Y-17477821D01*
X18001359Y-17539145D01*
X17996373Y-17608836D01*
X17954500Y-17664769D01*
X17889035Y-17689184D01*
X17880192Y-17689500D01*
X16238482Y-17689500D01*
X16157519Y-17702323D01*
X16144696Y-17704354D01*
X16031658Y-17761950D01*
X16031657Y-17761951D01*
X16031652Y-17761954D01*
X15941954Y-17851652D01*
X15941951Y-17851657D01*
X15941950Y-17851658D01*
X15936074Y-17863190D01*
X15884352Y-17964698D01*
X15869500Y-18058475D01*
X15869500Y-19821518D01*
X15882897Y-19906104D01*
X15873941Y-19975397D01*
X15828944Y-20028848D01*
X15762192Y-20049487D01*
X15760423Y-20049500D01*
X7764000Y-20049500D01*
X7696961Y-20029815D01*
X7651206Y-19977011D01*
X7640000Y-19925500D01*
X7640000Y-18031207D01*
X7659685Y-17964168D01*
X7676319Y-17943526D01*
X10853526Y-14766319D01*
X10914849Y-14732834D01*
X10941207Y-14730000D01*
X11979797Y-14730000D01*
X12046836Y-14749685D01*
G37*
%TD.AperFunction*%
%TD*%
%TA.AperFunction,Conductor*%
%TO.N,/CH343_RI*%
G36*
X15417902Y-982492D02*
G01*
X15424228Y-988830D01*
X15424323Y-989067D01*
X16088994Y-2703219D01*
X16088790Y-2712172D01*
X16086358Y-2715722D01*
X15955722Y-2846358D01*
X15947449Y-2849785D01*
X15943220Y-2848994D01*
X14229068Y-2184323D01*
X14222593Y-2178137D01*
X14222389Y-2169184D01*
X14222484Y-2168947D01*
X14567438Y-1333782D01*
X14573761Y-1327447D01*
X15408947Y-982483D01*
X15417902Y-982492D01*
G37*
%TD.AperFunction*%
%TD*%
%TA.AperFunction,Conductor*%
%TO.N,/CH343_RI*%
G36*
X18031906Y-11007378D02*
G01*
X18038720Y-11013187D01*
X18040000Y-11018508D01*
X18040000Y-11201491D01*
X18036573Y-11209764D01*
X18031905Y-11212622D01*
X17645912Y-11337652D01*
X17636986Y-11336941D01*
X17631514Y-11331038D01*
X17540889Y-11114515D01*
X17540857Y-11105563D01*
X17631514Y-10888960D01*
X17637870Y-10882652D01*
X17645911Y-10882347D01*
X18031906Y-11007378D01*
G37*
%TD.AperFunction*%
%TD*%
%TA.AperFunction,Conductor*%
%TO.N,/CH343_VIO*%
G36*
X6999260Y-17634795D02*
G01*
X7002625Y-17637143D01*
X7204176Y-17838694D01*
X7207603Y-17846967D01*
X7206884Y-17851006D01*
X6690818Y-19253861D01*
X6684745Y-19260443D01*
X6675798Y-19260803D01*
X6675371Y-19260636D01*
X5905105Y-18942562D01*
X5898767Y-18936238D01*
X5580683Y-18165948D01*
X5580692Y-18156993D01*
X5587031Y-18150668D01*
X5587444Y-18150506D01*
X6990315Y-17634435D01*
X6999260Y-17634795D01*
G37*
%TD.AperFunction*%
%TD*%
%TA.AperFunction,Conductor*%
%TO.N,/CH343_VIO*%
G36*
X19684823Y-12129607D02*
G01*
X19690151Y-12135444D01*
X19819119Y-12444493D01*
X19819142Y-12453448D01*
X19819119Y-12453505D01*
X19690138Y-12762585D01*
X19683789Y-12768900D01*
X19675931Y-12769271D01*
X19128490Y-12602525D01*
X19121574Y-12596837D01*
X19120199Y-12591333D01*
X19120199Y-12308637D01*
X19123626Y-12300364D01*
X19128452Y-12297456D01*
X19675909Y-12128769D01*
X19684823Y-12129607D01*
G37*
%TD.AperFunction*%
%TD*%
%TA.AperFunction,Conductor*%
%TO.N,/CH343_VIO*%
G36*
X18849620Y-8643427D02*
G01*
X18852534Y-8648274D01*
X19020252Y-9195920D01*
X19019398Y-9204834D01*
X19013571Y-9210144D01*
X18704506Y-9339119D01*
X18695551Y-9339142D01*
X18695494Y-9339119D01*
X18386428Y-9210144D01*
X18380113Y-9203795D01*
X18379747Y-9195922D01*
X18547466Y-8648273D01*
X18553165Y-8641367D01*
X18558653Y-8640000D01*
X18841347Y-8640000D01*
X18849620Y-8643427D01*
G37*
%TD.AperFunction*%
%TD*%
%TA.AperFunction,Conductor*%
%TO.N,/CH343_VIO*%
G36*
X18704478Y-6580868D02*
G01*
X18918891Y-6670344D01*
X19013571Y-6709855D01*
X19019886Y-6716204D01*
X19020252Y-6724079D01*
X18852534Y-7271726D01*
X18846835Y-7278633D01*
X18841347Y-7280000D01*
X18558653Y-7280000D01*
X18550380Y-7276573D01*
X18547466Y-7271726D01*
X18379747Y-6724079D01*
X18380601Y-6715165D01*
X18386427Y-6709855D01*
X18695494Y-6580879D01*
X18704449Y-6580857D01*
X18704478Y-6580868D01*
G37*
%TD.AperFunction*%
%TD*%
%TA.AperFunction,Conductor*%
%TO.N,/CH343_RTS*%
G36*
X23028073Y-1329985D02*
G01*
X23036340Y-1333422D01*
X23039757Y-1341699D01*
X23039755Y-1341924D01*
X23011555Y-2719759D01*
X23007959Y-2727961D01*
X22999857Y-2731220D01*
X22814792Y-2731220D01*
X22808411Y-2729327D01*
X21872864Y-2120597D01*
X21867799Y-2113212D01*
X21868434Y-2106317D01*
X22187006Y-1336235D01*
X22193335Y-1329902D01*
X22197829Y-1329009D01*
X23028073Y-1329985D01*
G37*
%TD.AperFunction*%
%TD*%
%TA.AperFunction,Conductor*%
%TO.N,/CH343_RTS*%
G36*
X21667019Y-14164912D02*
G01*
X21796407Y-14294300D01*
X21799834Y-14302573D01*
X21798554Y-14307894D01*
X21614026Y-14669243D01*
X21607211Y-14675053D01*
X21599169Y-14674748D01*
X21381982Y-14585723D01*
X21375628Y-14579415D01*
X21286571Y-14362148D01*
X21286604Y-14353196D01*
X21292073Y-14347295D01*
X21653426Y-14162764D01*
X21662351Y-14162054D01*
X21667019Y-14164912D01*
G37*
%TD.AperFunction*%
%TD*%
%TA.AperFunction,Conductor*%
%TO.N,/CH343_DSR*%
G36*
X20432669Y-1009511D02*
G01*
X20438994Y-1015850D01*
X20439275Y-1016603D01*
X20806337Y-2113400D01*
X20920494Y-2454504D01*
X20919870Y-2463437D01*
X20917672Y-2466490D01*
X20786490Y-2597672D01*
X20778217Y-2601099D01*
X20774504Y-2600494D01*
X20364972Y-2463437D01*
X20110235Y-2378184D01*
X19336603Y-2119275D01*
X19329845Y-2113400D01*
X19329221Y-2104467D01*
X19329497Y-2103726D01*
X19647438Y-1333783D01*
X19653759Y-1327448D01*
X20423715Y-1009502D01*
X20432669Y-1009511D01*
G37*
%TD.AperFunction*%
%TD*%
%TA.AperFunction,Conductor*%
%TO.N,/CH343_DSR*%
G36*
X19156852Y-13597378D02*
G01*
X19163666Y-13603187D01*
X19164946Y-13608508D01*
X19164946Y-13791491D01*
X19161519Y-13799764D01*
X19156851Y-13802622D01*
X18770858Y-13927652D01*
X18761932Y-13926941D01*
X18756460Y-13921038D01*
X18665835Y-13704515D01*
X18665803Y-13695563D01*
X18756460Y-13478960D01*
X18762816Y-13472652D01*
X18770857Y-13472347D01*
X19156852Y-13597378D01*
G37*
%TD.AperFunction*%
%TD*%
%TA.AperFunction,Conductor*%
%TO.N,/CH343_CTS*%
G36*
X17892669Y-1009511D02*
G01*
X17898994Y-1015850D01*
X17899275Y-1016603D01*
X18266337Y-2113400D01*
X18380494Y-2454504D01*
X18379870Y-2463437D01*
X18377672Y-2466490D01*
X18246490Y-2597672D01*
X18238217Y-2601099D01*
X18234504Y-2600494D01*
X17824972Y-2463437D01*
X17570235Y-2378184D01*
X16796603Y-2119275D01*
X16789845Y-2113400D01*
X16789221Y-2104467D01*
X16789497Y-2103726D01*
X17107438Y-1333783D01*
X17113759Y-1327448D01*
X17883715Y-1009502D01*
X17892669Y-1009511D01*
G37*
%TD.AperFunction*%
%TD*%
%TA.AperFunction,Conductor*%
%TO.N,/CH343_CTS*%
G36*
X19162959Y-12896377D02*
G01*
X19169773Y-12902186D01*
X19171053Y-12907507D01*
X19171053Y-13090490D01*
X19167626Y-13098763D01*
X19162958Y-13101621D01*
X18776965Y-13226651D01*
X18768039Y-13225940D01*
X18762567Y-13220037D01*
X18671942Y-13003514D01*
X18671910Y-12994562D01*
X18762567Y-12777959D01*
X18768923Y-12771651D01*
X18776964Y-12771346D01*
X19162959Y-12896377D01*
G37*
%TD.AperFunction*%
%TD*%
%TA.AperFunction,Conductor*%
%TO.N,/CH343_VDD_3.3V*%
G36*
X4711834Y-17388434D02*
G01*
X4912885Y-17589485D01*
X4916312Y-17597758D01*
X4915412Y-17602258D01*
X4215806Y-19281315D01*
X4209461Y-19287634D01*
X4200539Y-19287629D01*
X3365104Y-18942562D01*
X3358766Y-18936236D01*
X3013690Y-18100778D01*
X3013699Y-18091825D01*
X3020001Y-18085515D01*
X4699062Y-17385906D01*
X4708016Y-17385888D01*
X4711834Y-17388434D01*
G37*
%TD.AperFunction*%
%TD*%
%TA.AperFunction,Conductor*%
%TO.N,/CH343_VDD_5V*%
G36*
X4987801Y-11643427D02*
G01*
X4991156Y-11650408D01*
X5088559Y-12527036D01*
X5086067Y-12535637D01*
X5078223Y-12539956D01*
X5076957Y-12540028D01*
X4640026Y-12540999D01*
X4639974Y-12540999D01*
X4203042Y-12540028D01*
X4194776Y-12536583D01*
X4191368Y-12528302D01*
X4191440Y-12527036D01*
X4288844Y-11650408D01*
X4293163Y-11642564D01*
X4300472Y-11640000D01*
X4979528Y-11640000D01*
X4987801Y-11643427D01*
G37*
%TD.AperFunction*%
%TD*%
%TA.AperFunction,Conductor*%
%TO.N,/CH343_VDD_5V*%
G36*
X5076957Y-7739971D02*
G01*
X5085223Y-7743416D01*
X5088631Y-7751697D01*
X5088559Y-7752963D01*
X4991156Y-8629592D01*
X4986837Y-8637436D01*
X4979528Y-8640000D01*
X4300472Y-8640000D01*
X4292199Y-8636573D01*
X4288844Y-8629592D01*
X4191440Y-7752963D01*
X4193932Y-7744362D01*
X4201776Y-7740043D01*
X4203041Y-7739971D01*
X4640000Y-7739000D01*
X5076957Y-7739971D01*
G37*
%TD.AperFunction*%
%TD*%
%TA.AperFunction,Conductor*%
%TO.N,/CH343_USB_Data_N*%
G36*
X2791038Y-9491514D02*
G01*
X2797347Y-9497870D01*
X2797652Y-9505912D01*
X2672622Y-9891905D01*
X2666812Y-9898720D01*
X2661491Y-9900000D01*
X2478509Y-9900000D01*
X2470236Y-9896573D01*
X2467378Y-9891905D01*
X2342347Y-9505912D01*
X2343058Y-9496986D01*
X2348960Y-9491514D01*
X2565484Y-9400889D01*
X2574437Y-9400857D01*
X2791038Y-9491514D01*
G37*
%TD.AperFunction*%
%TD*%
%TA.AperFunction,Conductor*%
%TO.N,/CH343_USB_Data_N*%
G36*
X2669764Y-9903427D02*
G01*
X2672622Y-9908095D01*
X2797652Y-10294087D01*
X2796941Y-10303013D01*
X2791038Y-10308485D01*
X2574517Y-10399109D01*
X2565563Y-10399142D01*
X2565483Y-10399109D01*
X2348961Y-10308485D01*
X2342652Y-10302129D01*
X2342347Y-10294088D01*
X2467378Y-9908095D01*
X2473188Y-9901280D01*
X2478509Y-9900000D01*
X2661491Y-9900000D01*
X2669764Y-9903427D01*
G37*
%TD.AperFunction*%
%TD*%
M02*
