%TF.GenerationSoftware,KiCad,Pcbnew,8.0.6*%
%TF.CreationDate,2024-11-26T19:58:57+08:00*%
%TF.ProjectId,UINIO-USB-UART,55494e49-4f2d-4555-9342-2d554152542e,Version 5.0.0*%
%TF.SameCoordinates,PX8be9df0PY5020b20*%
%TF.FileFunction,Legend,Bot*%
%TF.FilePolarity,Positive*%
%FSLAX46Y46*%
G04 Gerber Fmt 4.6, Leading zero omitted, Abs format (unit mm)*
G04 Created by KiCad (PCBNEW 8.0.6) date 2024-11-26 19:58:57*
%MOMM*%
%LPD*%
G01*
G04 APERTURE LIST*
%ADD10C,0.160000*%
%ADD11C,0.125000*%
%ADD12C,0.100000*%
%ADD13C,0.120000*%
%ADD14C,2.200000*%
%ADD15R,1.700000X1.700000*%
%ADD16O,1.700000X1.700000*%
%ADD17C,0.650000*%
%ADD18O,2.100000X1.000000*%
%ADD19O,1.900000X1.000000*%
G04 APERTURE END LIST*
D10*
G36*
X13841449Y-10993559D02*
G01*
X13918965Y-11131299D01*
X13922560Y-11185052D01*
X13922560Y-12536203D01*
X13884589Y-12684695D01*
X13758766Y-12759948D01*
X13692484Y-12765547D01*
X12975142Y-12765547D01*
X12826177Y-12727697D01*
X12748661Y-12589956D01*
X12745066Y-12536203D01*
X12745066Y-11185052D01*
X12783037Y-11036561D01*
X12908861Y-10961307D01*
X12975142Y-10955708D01*
X13692484Y-10955708D01*
X13841449Y-10993559D01*
G37*
G36*
X19890388Y-11003032D02*
G01*
X19904556Y-11079539D01*
X19904556Y-11923642D01*
X19835983Y-12055216D01*
X19759476Y-12069455D01*
X19253161Y-12069455D01*
X19121587Y-12000536D01*
X19107348Y-11923642D01*
X19107348Y-11079539D01*
X19176267Y-10948627D01*
X19253161Y-10934459D01*
X19759476Y-10934459D01*
X19890388Y-11003032D01*
G37*
G36*
X24912697Y-13737087D02*
G01*
X2794671Y-13737087D01*
X2794671Y-13403754D01*
X6423084Y-13403754D01*
X7208569Y-13403754D01*
X7208569Y-12765547D01*
X6423084Y-12765547D01*
X6423084Y-13403754D01*
X2794671Y-13403754D01*
X2794671Y-11185052D01*
X3128004Y-11185052D01*
X3128004Y-13361256D01*
X3934005Y-13361256D01*
X3934005Y-11185052D01*
X3971977Y-11036561D01*
X4097800Y-10961307D01*
X4164082Y-10955708D01*
X4797159Y-10955708D01*
X4946125Y-10993559D01*
X5023641Y-11131299D01*
X5027236Y-11185052D01*
X5027236Y-13361256D01*
X5833237Y-13361256D01*
X5833237Y-12643914D01*
X7575666Y-12643914D01*
X8272491Y-12643914D01*
X8311325Y-12448276D01*
X8446033Y-12525796D01*
X8591869Y-12589097D01*
X8695275Y-12623398D01*
X8845473Y-12661351D01*
X8997523Y-12683490D01*
X9055045Y-12685680D01*
X9244821Y-12685680D01*
X9402473Y-12671422D01*
X9555888Y-12622134D01*
X9686405Y-12537642D01*
X9721095Y-12505429D01*
X9816149Y-12381781D01*
X9875998Y-12235235D01*
X9899762Y-12083766D01*
X9901346Y-12029155D01*
X9901346Y-10997473D01*
X10135087Y-10997473D01*
X10514640Y-10997473D01*
X10514640Y-12723782D01*
X10135087Y-12723782D01*
X10135087Y-13361256D01*
X11700928Y-13361256D01*
X11700928Y-12723782D01*
X11321374Y-12723782D01*
X11321374Y-11185052D01*
X11938332Y-11185052D01*
X11938332Y-12536203D01*
X11945622Y-12697134D01*
X11972554Y-12863139D01*
X12019332Y-13005722D01*
X12097093Y-13139994D01*
X12145694Y-13195659D01*
X12264991Y-13286700D01*
X12414788Y-13351730D01*
X12570880Y-13387293D01*
X12723259Y-13401925D01*
X12805882Y-13403754D01*
X13861011Y-13403754D01*
X14022191Y-13396438D01*
X14188421Y-13369410D01*
X14331160Y-13322467D01*
X14465524Y-13244431D01*
X14521200Y-13195659D01*
X14611921Y-13076682D01*
X14676721Y-12927114D01*
X14712159Y-12771147D01*
X14726739Y-12618820D01*
X14728562Y-12536203D01*
X14728562Y-11185052D01*
X14721991Y-11039972D01*
X14962302Y-11039972D01*
X15769036Y-11039972D01*
X15769036Y-10974026D01*
X16012302Y-10974026D01*
X16012302Y-11944891D01*
X16023934Y-12099176D01*
X16064828Y-12251837D01*
X16135166Y-12382356D01*
X16198415Y-12457069D01*
X16314528Y-12547390D01*
X16452666Y-12608151D01*
X16612829Y-12639353D01*
X16711325Y-12643914D01*
X18085191Y-12643914D01*
X18085191Y-12026957D01*
X16943600Y-12026957D01*
X16812027Y-11958384D01*
X16797787Y-11881877D01*
X16797787Y-11059023D01*
X16814508Y-11016524D01*
X18321863Y-11016524D01*
X18321863Y-11079539D01*
X18321863Y-11987390D01*
X18333495Y-12141675D01*
X18374389Y-12294335D01*
X18444726Y-12424854D01*
X18507976Y-12499567D01*
X18624089Y-12589534D01*
X18762227Y-12650057D01*
X18922389Y-12681136D01*
X19020886Y-12685680D01*
X19991751Y-12685680D01*
X20146036Y-12674048D01*
X20258528Y-12643914D01*
X21008045Y-12643914D01*
X21704870Y-12643914D01*
X21743705Y-12448276D01*
X21878412Y-12525796D01*
X22024248Y-12589097D01*
X22127655Y-12623398D01*
X22277853Y-12661351D01*
X22429902Y-12683490D01*
X22487424Y-12685680D01*
X22529923Y-12685680D01*
X22676162Y-12674004D01*
X22823028Y-12632067D01*
X22962416Y-12548431D01*
X23063349Y-12441681D01*
X23192152Y-12517370D01*
X23332730Y-12579205D01*
X23470746Y-12623398D01*
X23622619Y-12658857D01*
X23775067Y-12680753D01*
X23880341Y-12685680D01*
X23922840Y-12685680D01*
X24080194Y-12671422D01*
X24233552Y-12622134D01*
X24364299Y-12537642D01*
X24399113Y-12505429D01*
X24494167Y-12381781D01*
X24554017Y-12235235D01*
X24577780Y-12083766D01*
X24579364Y-12029155D01*
X24579364Y-10360000D01*
X23793879Y-10360000D01*
X23793879Y-11903126D01*
X23757976Y-11991786D01*
X23669316Y-12026957D01*
X23648066Y-12026957D01*
X23495567Y-12015932D01*
X23349594Y-11989900D01*
X23203535Y-11953379D01*
X23186447Y-11948555D01*
X23186447Y-10360000D01*
X22400962Y-10360000D01*
X22400962Y-11903126D01*
X22365791Y-11991786D01*
X22276399Y-12026957D01*
X22255149Y-12026957D01*
X22102650Y-12015932D01*
X21956677Y-11989900D01*
X21810618Y-11953379D01*
X21793530Y-11948555D01*
X21793530Y-10360000D01*
X21008045Y-10360000D01*
X21008045Y-12643914D01*
X20258528Y-12643914D01*
X20298696Y-12633154D01*
X20429216Y-12562816D01*
X20503928Y-12499567D01*
X20593895Y-12383808D01*
X20654418Y-12245908D01*
X20685497Y-12085868D01*
X20690041Y-11987390D01*
X20690041Y-11016524D01*
X20678409Y-10862193D01*
X20637515Y-10709372D01*
X20567178Y-10578576D01*
X20503928Y-10503614D01*
X20388169Y-10413648D01*
X20250270Y-10353124D01*
X20090229Y-10322045D01*
X19991751Y-10317501D01*
X19020886Y-10317501D01*
X18866555Y-10329133D01*
X18713734Y-10370027D01*
X18582937Y-10440365D01*
X18507976Y-10503614D01*
X18418009Y-10619727D01*
X18357486Y-10757865D01*
X18326406Y-10918028D01*
X18321863Y-11016524D01*
X16814508Y-11016524D01*
X16832958Y-10969630D01*
X16922351Y-10934459D01*
X17078654Y-10936751D01*
X17230670Y-10942164D01*
X17402471Y-10950762D01*
X17554158Y-10959932D01*
X17718506Y-10971141D01*
X17895518Y-10984387D01*
X18085191Y-10999672D01*
X18085191Y-10404696D01*
X17934914Y-10389113D01*
X17788256Y-10375063D01*
X17598342Y-10358714D01*
X17414862Y-10345090D01*
X17237816Y-10334191D01*
X17067205Y-10326016D01*
X16903028Y-10320567D01*
X16745286Y-10317842D01*
X16668827Y-10317501D01*
X16511472Y-10331759D01*
X16358114Y-10381047D01*
X16227368Y-10465540D01*
X16192553Y-10497752D01*
X16097499Y-10621715D01*
X16037650Y-10768290D01*
X16013886Y-10919539D01*
X16012302Y-10974026D01*
X15769036Y-10974026D01*
X15769036Y-10360000D01*
X14962302Y-10360000D01*
X14962302Y-11039972D01*
X14721991Y-11039972D01*
X14721272Y-11024095D01*
X14694339Y-10857995D01*
X14647561Y-10715247D01*
X14569800Y-10580700D01*
X14521200Y-10524863D01*
X14402177Y-10434142D01*
X14252471Y-10369342D01*
X14096309Y-10333904D01*
X13943759Y-10319324D01*
X13861011Y-10317501D01*
X12805882Y-10317501D01*
X12644925Y-10324791D01*
X12478825Y-10351724D01*
X12336077Y-10398502D01*
X12201530Y-10476263D01*
X12145694Y-10524863D01*
X12054973Y-10644161D01*
X11990172Y-10793958D01*
X11954734Y-10950050D01*
X11940154Y-11102429D01*
X11938332Y-11185052D01*
X11321374Y-11185052D01*
X11321374Y-10997473D01*
X11700928Y-10997473D01*
X11700928Y-10360000D01*
X10135087Y-10360000D01*
X10135087Y-10997473D01*
X9901346Y-10997473D01*
X9901346Y-10360000D01*
X9115861Y-10360000D01*
X9115861Y-11903126D01*
X9080690Y-11991786D01*
X8992030Y-12026957D01*
X8844019Y-12026957D01*
X8687785Y-12017693D01*
X8536889Y-11993192D01*
X8393863Y-11958049D01*
X8361151Y-11948555D01*
X8361151Y-10360000D01*
X7575666Y-10360000D01*
X7575666Y-12643914D01*
X5833237Y-12643914D01*
X5833237Y-11942693D01*
X6106545Y-11942693D01*
X6106545Y-12559651D01*
X7208569Y-12559651D01*
X7208569Y-10360000D01*
X6423084Y-10360000D01*
X6423084Y-11942693D01*
X6106545Y-11942693D01*
X5833237Y-11942693D01*
X5833237Y-11185052D01*
X5825947Y-11024095D01*
X5799014Y-10857995D01*
X5752237Y-10715247D01*
X5674476Y-10580700D01*
X5625875Y-10524863D01*
X5506853Y-10434142D01*
X5357147Y-10369342D01*
X5200985Y-10333904D01*
X5048434Y-10319324D01*
X4965687Y-10317501D01*
X3995554Y-10317501D01*
X3834374Y-10324791D01*
X3668144Y-10351724D01*
X3525406Y-10398502D01*
X3391042Y-10476263D01*
X3335366Y-10524863D01*
X3244645Y-10644161D01*
X3179844Y-10793958D01*
X3144406Y-10950050D01*
X3129826Y-11102429D01*
X3128004Y-11185052D01*
X2794671Y-11185052D01*
X2794671Y-9984168D01*
X24912697Y-9984168D01*
X24912697Y-13737087D01*
G37*
G36*
X3522211Y-8944502D02*
G01*
X3844612Y-8944502D01*
X3844612Y-8074020D01*
X3841696Y-8009638D01*
X3830922Y-7943198D01*
X3812211Y-7886098D01*
X3781107Y-7832280D01*
X3761667Y-7809945D01*
X3714058Y-7773657D01*
X3654175Y-7747736D01*
X3591711Y-7733561D01*
X3530690Y-7727729D01*
X3497591Y-7727000D01*
X3109538Y-7727000D01*
X3045066Y-7729916D01*
X2978574Y-7740689D01*
X2921479Y-7759401D01*
X2867733Y-7790505D01*
X2845463Y-7809945D01*
X2809175Y-7857664D01*
X2783254Y-7917583D01*
X2769079Y-7980020D01*
X2763247Y-8040971D01*
X2762518Y-8074020D01*
X2762518Y-8944502D01*
X3084919Y-8944502D01*
X3084919Y-8074020D01*
X3100107Y-8014624D01*
X3150437Y-7984523D01*
X3176949Y-7982283D01*
X3430180Y-7982283D01*
X3489767Y-7997423D01*
X3520773Y-8052519D01*
X3522211Y-8074020D01*
X3522211Y-8944502D01*
G37*
G36*
X4597270Y-7744000D02*
G01*
X3970934Y-7744000D01*
X3970934Y-7998989D01*
X4122755Y-7998989D01*
X4122755Y-8689512D01*
X3970934Y-8689512D01*
X3970934Y-8944502D01*
X4597270Y-8944502D01*
X4597270Y-8689512D01*
X4445449Y-8689512D01*
X4445449Y-7998989D01*
X4597270Y-7998989D01*
X4597270Y-7744000D01*
G37*
G36*
X5774619Y-7744000D02*
G01*
X5439029Y-7744000D01*
X5048631Y-8427196D01*
X5048631Y-7744000D01*
X4726231Y-7744000D01*
X4726231Y-8944502D01*
X5061820Y-8944502D01*
X5451925Y-8261599D01*
X5451925Y-8944502D01*
X5774619Y-8944502D01*
X5774619Y-7744000D01*
G37*
G36*
X6528157Y-7744000D02*
G01*
X5901820Y-7744000D01*
X5901820Y-7998989D01*
X6053642Y-7998989D01*
X6053642Y-8689512D01*
X5901820Y-8689512D01*
X5901820Y-8944502D01*
X6528157Y-8944502D01*
X6528157Y-8689512D01*
X6376335Y-8689512D01*
X6376335Y-7998989D01*
X6528157Y-7998989D01*
X6528157Y-7744000D01*
G37*
G36*
X7425289Y-7727729D02*
G01*
X7486309Y-7733561D01*
X7548774Y-7747736D01*
X7608656Y-7773657D01*
X7656266Y-7809945D01*
X7675706Y-7832280D01*
X7706810Y-7886098D01*
X7725521Y-7943198D01*
X7736294Y-8009638D01*
X7739210Y-8074020D01*
X7739210Y-8614481D01*
X7738481Y-8647528D01*
X7732649Y-8708459D01*
X7718474Y-8770845D01*
X7692554Y-8830673D01*
X7656266Y-8878263D01*
X7633995Y-8897772D01*
X7580250Y-8928986D01*
X7523154Y-8947764D01*
X7456662Y-8958575D01*
X7392190Y-8961501D01*
X6970139Y-8961501D01*
X6937089Y-8960770D01*
X6876138Y-8954917D01*
X6813701Y-8940692D01*
X6753782Y-8914680D01*
X6706063Y-8878263D01*
X6686623Y-8855997D01*
X6655519Y-8802288D01*
X6636807Y-8745255D01*
X6626034Y-8678853D01*
X6623118Y-8614481D01*
X6623118Y-8074020D01*
X6945812Y-8074020D01*
X6945812Y-8614481D01*
X6947250Y-8635982D01*
X6978256Y-8691078D01*
X7037843Y-8706219D01*
X7324779Y-8706219D01*
X7351292Y-8703979D01*
X7401621Y-8673878D01*
X7416810Y-8614481D01*
X7416810Y-8074020D01*
X7415372Y-8052519D01*
X7384365Y-7997423D01*
X7324779Y-7982283D01*
X7037843Y-7982283D01*
X7011330Y-7984523D01*
X6961001Y-8014624D01*
X6945812Y-8074020D01*
X6623118Y-8074020D01*
X6623847Y-8040971D01*
X6629679Y-7980020D01*
X6643854Y-7917583D01*
X6669775Y-7857664D01*
X6706063Y-7809945D01*
X6728398Y-7790505D01*
X6782217Y-7759401D01*
X6839316Y-7740689D01*
X6905756Y-7729916D01*
X6970139Y-7727000D01*
X7392190Y-7727000D01*
X7425289Y-7727729D01*
G37*
G36*
X7832707Y-8216756D02*
G01*
X7832707Y-8471745D01*
X8543453Y-8471745D01*
X8543453Y-8216756D01*
X7832707Y-8216756D01*
G37*
G36*
X9432106Y-8944502D02*
G01*
X9754507Y-8944502D01*
X9754507Y-8074020D01*
X9751591Y-8009638D01*
X9740818Y-7943198D01*
X9722107Y-7886098D01*
X9691002Y-7832280D01*
X9671562Y-7809945D01*
X9623953Y-7773657D01*
X9564071Y-7747736D01*
X9501606Y-7733561D01*
X9440586Y-7727729D01*
X9407487Y-7727000D01*
X9019434Y-7727000D01*
X8954962Y-7729916D01*
X8888470Y-7740689D01*
X8831374Y-7759401D01*
X8777629Y-7790505D01*
X8755358Y-7809945D01*
X8719070Y-7857664D01*
X8693150Y-7917583D01*
X8678975Y-7980020D01*
X8673142Y-8040971D01*
X8672413Y-8074020D01*
X8672413Y-8944502D01*
X8994814Y-8944502D01*
X8994814Y-8074020D01*
X9010003Y-8014624D01*
X9060332Y-7984523D01*
X9086845Y-7982283D01*
X9340076Y-7982283D01*
X9399662Y-7997423D01*
X9430668Y-8052519D01*
X9432106Y-8074020D01*
X9432106Y-8944502D01*
G37*
G36*
X9896070Y-8008075D02*
G01*
X9981890Y-8003466D01*
X10062284Y-7999310D01*
X10137253Y-7995607D01*
X10206797Y-7992358D01*
X10270917Y-7989562D01*
X10329611Y-7987220D01*
X10399431Y-7984802D01*
X10459606Y-7983190D01*
X10521262Y-7982308D01*
X10531785Y-7982283D01*
X10586593Y-8002213D01*
X10606817Y-8057314D01*
X10606817Y-8199757D01*
X10227850Y-8199757D01*
X10163378Y-8202673D01*
X10096886Y-8213446D01*
X10039790Y-8232157D01*
X9986045Y-8263261D01*
X9963774Y-8282702D01*
X9927486Y-8330311D01*
X9901566Y-8390193D01*
X9887390Y-8452658D01*
X9881558Y-8513678D01*
X9880829Y-8546777D01*
X9880829Y-8597482D01*
X9883745Y-8661954D01*
X9894519Y-8728446D01*
X9913230Y-8785541D01*
X9944334Y-8839287D01*
X9963774Y-8861557D01*
X10011383Y-8897845D01*
X10071266Y-8923766D01*
X10133730Y-8937941D01*
X10194751Y-8943773D01*
X10227850Y-8944502D01*
X10829859Y-8944502D01*
X10829859Y-8689512D01*
X10295261Y-8689512D01*
X10235864Y-8674324D01*
X10205763Y-8623994D01*
X10203523Y-8597482D01*
X10203523Y-8563776D01*
X10218663Y-8504190D01*
X10273760Y-8473183D01*
X10295261Y-8471745D01*
X10599196Y-8471745D01*
X10659492Y-8468912D01*
X10721945Y-8458443D01*
X10782912Y-8437034D01*
X10832779Y-8405549D01*
X10848617Y-8391145D01*
X10887579Y-8338948D01*
X10911507Y-8280755D01*
X10924180Y-8220731D01*
X10929139Y-8152207D01*
X10929217Y-8141725D01*
X10929217Y-8057314D01*
X10926384Y-7996909D01*
X10915915Y-7934328D01*
X10894506Y-7873214D01*
X10863021Y-7823200D01*
X10848617Y-7807307D01*
X10796420Y-7768487D01*
X10738227Y-7744646D01*
X10678203Y-7732019D01*
X10609679Y-7727079D01*
X10599196Y-7727000D01*
X10538611Y-7727416D01*
X10475740Y-7728663D01*
X10416600Y-7730517D01*
X10261262Y-7737258D01*
X10195825Y-7740714D01*
X10128986Y-7744705D01*
X10060746Y-7749232D01*
X9991105Y-7754294D01*
X9932000Y-7758923D01*
X9896070Y-7761878D01*
X9896070Y-8008075D01*
G37*
G36*
X11802579Y-7744078D02*
G01*
X11871213Y-7749019D01*
X11931320Y-7761645D01*
X11989572Y-7785486D01*
X12041792Y-7824307D01*
X12056197Y-7840197D01*
X12087681Y-7890178D01*
X12109090Y-7951224D01*
X12119559Y-8013715D01*
X12122393Y-8074020D01*
X12122375Y-8078437D01*
X12117996Y-8140625D01*
X12104807Y-8198584D01*
X12079694Y-8258442D01*
X12043507Y-8312976D01*
X11999332Y-8352708D01*
X11940090Y-8379715D01*
X11987169Y-8413522D01*
X12025965Y-8461487D01*
X12051997Y-8511160D01*
X12067223Y-8569907D01*
X12071688Y-8631187D01*
X12067831Y-8696345D01*
X12053978Y-8761434D01*
X12030050Y-8816521D01*
X11991088Y-8866540D01*
X11980702Y-8875980D01*
X11925383Y-8910926D01*
X11864415Y-8931635D01*
X11801962Y-8941761D01*
X11741667Y-8944502D01*
X11057005Y-8944502D01*
X11057005Y-8689512D01*
X11379406Y-8689512D01*
X11657256Y-8689512D01*
X11678757Y-8688074D01*
X11733854Y-8657068D01*
X11748994Y-8597482D01*
X11748994Y-8563776D01*
X11746754Y-8537263D01*
X11716653Y-8486934D01*
X11657256Y-8471745D01*
X11379406Y-8471745D01*
X11379406Y-8689512D01*
X11057005Y-8689512D01*
X11057005Y-8216756D01*
X11379406Y-8216756D01*
X11707668Y-8216756D01*
X11734181Y-8214509D01*
X11784510Y-8184312D01*
X11799699Y-8124725D01*
X11799699Y-8091020D01*
X11797452Y-8064507D01*
X11767254Y-8014178D01*
X11707668Y-7998989D01*
X11379406Y-7998989D01*
X11379406Y-8216756D01*
X11057005Y-8216756D01*
X11057005Y-7744000D01*
X11792078Y-7744000D01*
X11802579Y-7744078D01*
G37*
G36*
X12198596Y-8216756D02*
G01*
X12198596Y-8471745D01*
X12909343Y-8471745D01*
X12909343Y-8216756D01*
X12198596Y-8216756D01*
G37*
G36*
X13797996Y-8944502D02*
G01*
X14120397Y-8944502D01*
X14120397Y-8074020D01*
X14117481Y-8009638D01*
X14106708Y-7943198D01*
X14087996Y-7886098D01*
X14056892Y-7832280D01*
X14037452Y-7809945D01*
X13989843Y-7773657D01*
X13929961Y-7747736D01*
X13867496Y-7733561D01*
X13806475Y-7727729D01*
X13773376Y-7727000D01*
X13385323Y-7727000D01*
X13320851Y-7729916D01*
X13254359Y-7740689D01*
X13197264Y-7759401D01*
X13143518Y-7790505D01*
X13121248Y-7809945D01*
X13084960Y-7857664D01*
X13059039Y-7917583D01*
X13044864Y-7980020D01*
X13039032Y-8040971D01*
X13038303Y-8074020D01*
X13038303Y-8944502D01*
X13360704Y-8944502D01*
X13360704Y-8074020D01*
X13375892Y-8014624D01*
X13426222Y-7984523D01*
X13452734Y-7982283D01*
X13705965Y-7982283D01*
X13765552Y-7997423D01*
X13796558Y-8052519D01*
X13797996Y-8074020D01*
X13797996Y-8944502D01*
G37*
G36*
X14567361Y-7955025D02*
G01*
X14976517Y-7955025D01*
X15052427Y-7744000D01*
X15401499Y-7744000D01*
X14947208Y-8944502D01*
X14596670Y-8944502D01*
X14312221Y-8193309D01*
X14650013Y-8193309D01*
X14771939Y-8551466D01*
X14893865Y-8193309D01*
X14650013Y-8193309D01*
X14312221Y-8193309D01*
X14142085Y-7744000D01*
X14491450Y-7744000D01*
X14567361Y-7955025D01*
G37*
G36*
X15779294Y-8098640D02*
G01*
X16000871Y-8098640D01*
X16194898Y-7744000D01*
X16545728Y-7744000D01*
X16332944Y-8118570D01*
X16386788Y-8138778D01*
X16435834Y-8173832D01*
X16474214Y-8222325D01*
X16495243Y-8266508D01*
X16511719Y-8325499D01*
X16519981Y-8386187D01*
X16522281Y-8445660D01*
X16522281Y-8597482D01*
X16521552Y-8630581D01*
X16515720Y-8691601D01*
X16501545Y-8754066D01*
X16475624Y-8813948D01*
X16439336Y-8861557D01*
X16417066Y-8880997D01*
X16363320Y-8912102D01*
X16306225Y-8930813D01*
X16239733Y-8941586D01*
X16175261Y-8944502D01*
X15456894Y-8944502D01*
X15456894Y-8689512D01*
X15779294Y-8689512D01*
X16107557Y-8689512D01*
X16134069Y-8687266D01*
X16184399Y-8657068D01*
X16199587Y-8597482D01*
X16199587Y-8445660D01*
X16197340Y-8419148D01*
X16167143Y-8368818D01*
X16107557Y-8353630D01*
X15779294Y-8353630D01*
X15779294Y-8689512D01*
X15456894Y-8689512D01*
X15456894Y-7744000D01*
X15779294Y-7744000D01*
X15779294Y-8098640D01*
G37*
G36*
X17258233Y-7744000D02*
G01*
X16935540Y-7744000D01*
X16935540Y-8689512D01*
X16581192Y-8689512D01*
X16581192Y-8944502D01*
X17612874Y-8944502D01*
X17612874Y-8689512D01*
X17258233Y-8689512D01*
X17258233Y-7744000D01*
G37*
G36*
X17555135Y-8216756D02*
G01*
X17555135Y-8471745D01*
X18265882Y-8471745D01*
X18265882Y-8216756D01*
X17555135Y-8216756D01*
G37*
G36*
X19325114Y-7761878D02*
G01*
X19254052Y-7755645D01*
X19185395Y-7750025D01*
X19119145Y-7745018D01*
X19055301Y-7740624D01*
X18993862Y-7736844D01*
X18934830Y-7733676D01*
X18859862Y-7730406D01*
X18789172Y-7728226D01*
X18722760Y-7727136D01*
X18691157Y-7727000D01*
X18630752Y-7729823D01*
X18568171Y-7740254D01*
X18507057Y-7761586D01*
X18457043Y-7792955D01*
X18441150Y-7807307D01*
X18402330Y-7859670D01*
X18378489Y-7918009D01*
X18365863Y-7978161D01*
X18360922Y-8046813D01*
X18360843Y-8057314D01*
X18360843Y-8597482D01*
X18363759Y-8661954D01*
X18374532Y-8728446D01*
X18393244Y-8785541D01*
X18424348Y-8839287D01*
X18443788Y-8861557D01*
X18491507Y-8897845D01*
X18551426Y-8923766D01*
X18613863Y-8937941D01*
X18674814Y-8943773D01*
X18707864Y-8944502D01*
X19325114Y-8944502D01*
X19325114Y-8689512D01*
X18775568Y-8689512D01*
X18715981Y-8674324D01*
X18685784Y-8623994D01*
X18683537Y-8597482D01*
X18683537Y-8057314D01*
X18703467Y-8002213D01*
X18757103Y-7982283D01*
X18817292Y-7982863D01*
X18832721Y-7983162D01*
X18892276Y-7984648D01*
X18920355Y-7985507D01*
X18980492Y-7987815D01*
X19012092Y-7989024D01*
X19072814Y-7992022D01*
X19131967Y-7995765D01*
X19193612Y-7999832D01*
X19254869Y-8003724D01*
X19317685Y-8007619D01*
X19325114Y-8008075D01*
X19325114Y-7761878D01*
G37*
G36*
X20484291Y-7744000D02*
G01*
X20161597Y-7744000D01*
X20161597Y-8225256D01*
X19758303Y-8225256D01*
X19758303Y-7744000D01*
X19435903Y-7744000D01*
X19435903Y-8944502D01*
X19758303Y-8944502D01*
X19758303Y-8480245D01*
X20161597Y-8480245D01*
X20161597Y-8944502D01*
X20484291Y-8944502D01*
X20484291Y-7744000D01*
G37*
G36*
X21228450Y-7727000D02*
G01*
X21156739Y-7727545D01*
X21082875Y-7729180D01*
X21006859Y-7731905D01*
X20928690Y-7735720D01*
X20868652Y-7739296D01*
X20807402Y-7743485D01*
X20744942Y-7748288D01*
X20681271Y-7753704D01*
X20616389Y-7759732D01*
X20594493Y-7761878D01*
X20594493Y-8008075D01*
X20664515Y-8003466D01*
X20731038Y-7999310D01*
X20794063Y-7995607D01*
X20853590Y-7992358D01*
X20927518Y-7988731D01*
X20995227Y-7985910D01*
X21056716Y-7983895D01*
X21124833Y-7982510D01*
X21161039Y-7982283D01*
X21215847Y-8002213D01*
X21236070Y-8057314D01*
X21236070Y-8124725D01*
X21220881Y-8184312D01*
X21170552Y-8214509D01*
X21144039Y-8216756D01*
X20780313Y-8216756D01*
X20780313Y-8471745D01*
X21110334Y-8471745D01*
X21169920Y-8486934D01*
X21200118Y-8537263D01*
X21202365Y-8563776D01*
X21202365Y-8597482D01*
X21187176Y-8657068D01*
X21136847Y-8687266D01*
X21110334Y-8689512D01*
X20611492Y-8689512D01*
X20611492Y-8944502D01*
X21194744Y-8944502D01*
X21255139Y-8941761D01*
X21317682Y-8931635D01*
X21378719Y-8910926D01*
X21434072Y-8875980D01*
X21444458Y-8866540D01*
X21483420Y-8816521D01*
X21507348Y-8761434D01*
X21521201Y-8696345D01*
X21525058Y-8631187D01*
X21520336Y-8569878D01*
X21504231Y-8511034D01*
X21476698Y-8461194D01*
X21437402Y-8415930D01*
X21388373Y-8382398D01*
X21379099Y-8378836D01*
X21437066Y-8352254D01*
X21480458Y-8312783D01*
X21516192Y-8258400D01*
X21541178Y-8198584D01*
X21554367Y-8140625D01*
X21558747Y-8078437D01*
X21558764Y-8074020D01*
X21558764Y-8057314D01*
X21555930Y-7996909D01*
X21545462Y-7934328D01*
X21524052Y-7873214D01*
X21492568Y-7823200D01*
X21478164Y-7807307D01*
X21425943Y-7768487D01*
X21367691Y-7744646D01*
X21307584Y-7732019D01*
X21238951Y-7727079D01*
X21228450Y-7727000D01*
G37*
G36*
X22243718Y-7980231D02*
G01*
X21619141Y-7980231D01*
X21619141Y-8228773D01*
X22028296Y-8944502D01*
X22387626Y-8944502D01*
X21982281Y-8235514D01*
X22243718Y-8235514D01*
X22243718Y-8488745D01*
X22566412Y-8488745D01*
X22566412Y-8235514D01*
X22684528Y-8235514D01*
X22684528Y-7980231D01*
X22566412Y-7980231D01*
X22566412Y-7744000D01*
X22243718Y-7744000D01*
X22243718Y-7980231D01*
G37*
G36*
X23344570Y-7727000D02*
G01*
X23272859Y-7727545D01*
X23198995Y-7729180D01*
X23122979Y-7731905D01*
X23044811Y-7735720D01*
X22984772Y-7739296D01*
X22923522Y-7743485D01*
X22861062Y-7748288D01*
X22797391Y-7753704D01*
X22732509Y-7759732D01*
X22710613Y-7761878D01*
X22710613Y-8008075D01*
X22780635Y-8003466D01*
X22847158Y-7999310D01*
X22910183Y-7995607D01*
X22969710Y-7992358D01*
X23043638Y-7988731D01*
X23111347Y-7985910D01*
X23172837Y-7983895D01*
X23240953Y-7982510D01*
X23277159Y-7982283D01*
X23331967Y-8002213D01*
X23352190Y-8057314D01*
X23352190Y-8124725D01*
X23337001Y-8184312D01*
X23286672Y-8214509D01*
X23260159Y-8216756D01*
X22896433Y-8216756D01*
X22896433Y-8471745D01*
X23226454Y-8471745D01*
X23286040Y-8486934D01*
X23316238Y-8537263D01*
X23318485Y-8563776D01*
X23318485Y-8597482D01*
X23303296Y-8657068D01*
X23252967Y-8687266D01*
X23226454Y-8689512D01*
X22727612Y-8689512D01*
X22727612Y-8944502D01*
X23310864Y-8944502D01*
X23371259Y-8941761D01*
X23433802Y-8931635D01*
X23494839Y-8910926D01*
X23550192Y-8875980D01*
X23560578Y-8866540D01*
X23599540Y-8816521D01*
X23623468Y-8761434D01*
X23637321Y-8696345D01*
X23641178Y-8631187D01*
X23636456Y-8569878D01*
X23620351Y-8511034D01*
X23592818Y-8461194D01*
X23553522Y-8415930D01*
X23504493Y-8382398D01*
X23495219Y-8378836D01*
X23553186Y-8352254D01*
X23596578Y-8312783D01*
X23632312Y-8258400D01*
X23657298Y-8198584D01*
X23670487Y-8140625D01*
X23674867Y-8078437D01*
X23674884Y-8074020D01*
X23674884Y-8057314D01*
X23672050Y-7996909D01*
X23661582Y-7934328D01*
X23640172Y-7873214D01*
X23608688Y-7823200D01*
X23594284Y-7807307D01*
X23542063Y-7768487D01*
X23483811Y-7744646D01*
X23423704Y-7732019D01*
X23355071Y-7727079D01*
X23344570Y-7727000D01*
G37*
G36*
X24125365Y-8081641D02*
G01*
X24521332Y-8081641D01*
X24554431Y-8082370D01*
X24615451Y-8088202D01*
X24677916Y-8102377D01*
X24737798Y-8128297D01*
X24785407Y-8164586D01*
X24804847Y-8186856D01*
X24835952Y-8240602D01*
X24854663Y-8297697D01*
X24865436Y-8364189D01*
X24868352Y-8428661D01*
X24868352Y-8597482D01*
X24867623Y-8630581D01*
X24861791Y-8691601D01*
X24847616Y-8754066D01*
X24821696Y-8813948D01*
X24785407Y-8861557D01*
X24763137Y-8880997D01*
X24709391Y-8912102D01*
X24652296Y-8930813D01*
X24585804Y-8941586D01*
X24521332Y-8944502D01*
X23802965Y-8944502D01*
X23802965Y-8689512D01*
X24125365Y-8689512D01*
X24453628Y-8689512D01*
X24480140Y-8687266D01*
X24530470Y-8657068D01*
X24545658Y-8597482D01*
X24545658Y-8428661D01*
X24543412Y-8402148D01*
X24513214Y-8351819D01*
X24453628Y-8336630D01*
X24125365Y-8336630D01*
X24125365Y-8689512D01*
X23802965Y-8689512D01*
X23802965Y-7744000D01*
X24125365Y-7744000D01*
X24125365Y-8081641D01*
G37*
D11*
G36*
X9229424Y-5922087D02*
G01*
X9492449Y-6680265D01*
X9794162Y-6680265D01*
X9384176Y-5597000D01*
X9074672Y-5597000D01*
X8664417Y-6680265D01*
X8966399Y-6680265D01*
X9229424Y-5922087D01*
G37*
G36*
X10051258Y-5581539D02*
G01*
X10113773Y-5582512D01*
X10178018Y-5584460D01*
X10243993Y-5587382D01*
X10311697Y-5591278D01*
X10381131Y-5596147D01*
X10452294Y-5601991D01*
X10506801Y-5607013D01*
X10562281Y-5612582D01*
X10562281Y-5806023D01*
X10490623Y-5800544D01*
X10423414Y-5795796D01*
X10360655Y-5791779D01*
X10302346Y-5788492D01*
X10235717Y-5785410D01*
X10176041Y-5783470D01*
X10113607Y-5782648D01*
X10074919Y-5797963D01*
X10059337Y-5836919D01*
X10059337Y-5898713D01*
X10593447Y-5898713D01*
X10593447Y-6185112D01*
X10592868Y-6206430D01*
X10584190Y-6265057D01*
X10562335Y-6320827D01*
X10527623Y-6366731D01*
X10505827Y-6385694D01*
X10454875Y-6413977D01*
X10400628Y-6428440D01*
X10345736Y-6432554D01*
X10036231Y-6432554D01*
X10008000Y-6431526D01*
X9950221Y-6421691D01*
X9900390Y-6401442D01*
X9854344Y-6366731D01*
X9835381Y-6345012D01*
X9807097Y-6294175D01*
X9792634Y-6239987D01*
X9788520Y-6185112D01*
X9788520Y-6177321D01*
X10059337Y-6177321D01*
X10071216Y-6219562D01*
X10121399Y-6239114D01*
X10260568Y-6239114D01*
X10300751Y-6228916D01*
X10322630Y-6177321D01*
X10322630Y-6092153D01*
X10059337Y-6092153D01*
X10059337Y-6177321D01*
X9788520Y-6177321D01*
X9788520Y-5813545D01*
X9789077Y-5794212D01*
X9797436Y-5740577D01*
X9818489Y-5688659D01*
X9851926Y-5644822D01*
X9864228Y-5633491D01*
X9910489Y-5603770D01*
X9964831Y-5586432D01*
X10020648Y-5581417D01*
X10051258Y-5581539D01*
G37*
G36*
X11199291Y-6192903D02*
G01*
X11143944Y-6189227D01*
X11087619Y-6178197D01*
X11030317Y-6159814D01*
X10998060Y-6146424D01*
X10998060Y-5597000D01*
X10727243Y-5597000D01*
X10727243Y-6417240D01*
X10967163Y-6417240D01*
X10982477Y-6316490D01*
X11032874Y-6355934D01*
X11084121Y-6387217D01*
X11136218Y-6410339D01*
X11189166Y-6425300D01*
X11242963Y-6432101D01*
X11261085Y-6432554D01*
X11330669Y-6432554D01*
X11330669Y-6192903D01*
X11199291Y-6192903D01*
G37*
G36*
X11404553Y-5813545D02*
G01*
X11462273Y-5809416D01*
X11517654Y-5805693D01*
X11587860Y-5801361D01*
X11653911Y-5797751D01*
X11715805Y-5794862D01*
X11773543Y-5792696D01*
X11839872Y-5791004D01*
X11899706Y-5790440D01*
X11938394Y-5805754D01*
X11953977Y-5844711D01*
X11953977Y-5898713D01*
X11621099Y-5898713D01*
X11565281Y-5903728D01*
X11510939Y-5921066D01*
X11464678Y-5950787D01*
X11452376Y-5962118D01*
X11418939Y-6005955D01*
X11397887Y-6057873D01*
X11389527Y-6111508D01*
X11388970Y-6130841D01*
X11388970Y-6185112D01*
X11393986Y-6240908D01*
X11411323Y-6295176D01*
X11441044Y-6341312D01*
X11452376Y-6353566D01*
X11496212Y-6387144D01*
X11548130Y-6408286D01*
X11601766Y-6416681D01*
X11621099Y-6417240D01*
X12147418Y-6417240D01*
X12147418Y-6216009D01*
X11714057Y-6216009D01*
X11675101Y-6200426D01*
X11659787Y-6161738D01*
X11675101Y-6123050D01*
X11714057Y-6107736D01*
X11992665Y-6107736D01*
X12048461Y-6102699D01*
X12102730Y-6085288D01*
X12148865Y-6055441D01*
X12161120Y-6044062D01*
X12194698Y-6000366D01*
X12215839Y-5948538D01*
X12224234Y-5894938D01*
X12224794Y-5875607D01*
X12224794Y-5813545D01*
X12219757Y-5757728D01*
X12202346Y-5703386D01*
X12172499Y-5657125D01*
X12161120Y-5644822D01*
X12117424Y-5611386D01*
X12065596Y-5590333D01*
X12011996Y-5581974D01*
X11992665Y-5581417D01*
X11923530Y-5581904D01*
X11853143Y-5583365D01*
X11781505Y-5585799D01*
X11726956Y-5588265D01*
X11671704Y-5591278D01*
X11615747Y-5594839D01*
X11559087Y-5598947D01*
X11501723Y-5603604D01*
X11443655Y-5608808D01*
X11404553Y-5612582D01*
X11404553Y-5813545D01*
G37*
G36*
X12653855Y-6386344D02*
G01*
X12653855Y-5597000D01*
X12383039Y-5597000D01*
X12383039Y-6177321D01*
X12266974Y-6177321D01*
X12266974Y-6386344D01*
X12653855Y-6386344D01*
G37*
G36*
X12383039Y-6695848D02*
G01*
X12653855Y-6695848D01*
X12653855Y-6479034D01*
X12383039Y-6479034D01*
X12383039Y-6695848D01*
G37*
G36*
X13415082Y-5581995D02*
G01*
X13473710Y-5590673D01*
X13529479Y-5612529D01*
X13575383Y-5647240D01*
X13594346Y-5669037D01*
X13622630Y-5719989D01*
X13637093Y-5774236D01*
X13641207Y-5829128D01*
X13641207Y-6185112D01*
X13640628Y-6206430D01*
X13631950Y-6265057D01*
X13610095Y-6320827D01*
X13575383Y-6366731D01*
X13553664Y-6385694D01*
X13502827Y-6413977D01*
X13448640Y-6428440D01*
X13393764Y-6432554D01*
X13037780Y-6432554D01*
X13009549Y-6431526D01*
X12951770Y-6421691D01*
X12901939Y-6401442D01*
X12855893Y-6366731D01*
X12836930Y-6345012D01*
X12808646Y-6294175D01*
X12794183Y-6239987D01*
X12790069Y-6185112D01*
X12790069Y-5852233D01*
X13060886Y-5852233D01*
X13060886Y-6161738D01*
X13072765Y-6204163D01*
X13122948Y-6223800D01*
X13308597Y-6223800D01*
X13350838Y-6211921D01*
X13370390Y-6161738D01*
X13370390Y-5852233D01*
X13360192Y-5812224D01*
X13308597Y-5790440D01*
X13122948Y-5790440D01*
X13082765Y-5800638D01*
X13060886Y-5852233D01*
X12790069Y-5852233D01*
X12790069Y-5829128D01*
X12791098Y-5800897D01*
X12800933Y-5743117D01*
X12821181Y-5693286D01*
X12855893Y-5647240D01*
X12877689Y-5628277D01*
X12928641Y-5599994D01*
X12982888Y-5585531D01*
X13037780Y-5581417D01*
X13393764Y-5581417D01*
X13415082Y-5581995D01*
G37*
G36*
X14231468Y-6208217D02*
G01*
X14172561Y-6204566D01*
X14114546Y-6194911D01*
X14058698Y-6181062D01*
X14045819Y-6177321D01*
X14045819Y-5597000D01*
X13775003Y-5597000D01*
X13775003Y-6417240D01*
X14014923Y-6417240D01*
X14030237Y-6339864D01*
X14080737Y-6369726D01*
X14132127Y-6393557D01*
X14179616Y-6409986D01*
X14233681Y-6423739D01*
X14288257Y-6431761D01*
X14308845Y-6432554D01*
X14378429Y-6432554D01*
X14434355Y-6427539D01*
X14488718Y-6410201D01*
X14534895Y-6380480D01*
X14547152Y-6369149D01*
X14580589Y-6325427D01*
X14601641Y-6273520D01*
X14610000Y-6219805D01*
X14610558Y-6200426D01*
X14610558Y-5597000D01*
X14339741Y-5597000D01*
X14339741Y-6154215D01*
X14324159Y-6192635D01*
X14285739Y-6208217D01*
X14231468Y-6208217D01*
G37*
G36*
X15732512Y-5581417D02*
G01*
X15667028Y-5581904D01*
X15599807Y-5583365D01*
X15530848Y-5585799D01*
X15460150Y-5589208D01*
X15405987Y-5592404D01*
X15350846Y-5596147D01*
X15294727Y-5600439D01*
X15237631Y-5605278D01*
X15179557Y-5610665D01*
X15159982Y-5612582D01*
X15159982Y-5821337D01*
X15222586Y-5817207D01*
X15282145Y-5813484D01*
X15338657Y-5810167D01*
X15409268Y-5806377D01*
X15474464Y-5803308D01*
X15534245Y-5800961D01*
X15588610Y-5799337D01*
X15648951Y-5798321D01*
X15670718Y-5798231D01*
X15723082Y-5815221D01*
X15727138Y-5818919D01*
X15747910Y-5869037D01*
X15748094Y-5875607D01*
X15748094Y-5952983D01*
X15737110Y-6005755D01*
X15691357Y-6041238D01*
X15655136Y-6045674D01*
X15206461Y-6045674D01*
X15206461Y-6680265D01*
X15949326Y-6680265D01*
X15949326Y-6463720D01*
X15485069Y-6463720D01*
X15485069Y-6262488D01*
X15732512Y-6262488D01*
X15786602Y-6260061D01*
X15842545Y-6251092D01*
X15897034Y-6232752D01*
X15946291Y-6201802D01*
X15955505Y-6193441D01*
X15989922Y-6149057D01*
X16013075Y-6093282D01*
X16024199Y-6034142D01*
X16026702Y-5983880D01*
X16026702Y-5875607D01*
X16024199Y-5821517D01*
X16014952Y-5765574D01*
X15996040Y-5711085D01*
X15964127Y-5661828D01*
X15955505Y-5652614D01*
X15909082Y-5618197D01*
X15857111Y-5597061D01*
X15803373Y-5585867D01*
X15741920Y-5581486D01*
X15732512Y-5581417D01*
G37*
G36*
X16098705Y-5829128D02*
G01*
X16377313Y-5829128D01*
X16377313Y-5597000D01*
X16098705Y-5597000D01*
X16098705Y-5829128D01*
G37*
G36*
X17107370Y-5581704D02*
G01*
X17163097Y-5586018D01*
X17220186Y-5597592D01*
X17274977Y-5619446D01*
X17323290Y-5655032D01*
X17336446Y-5669614D01*
X17365201Y-5716118D01*
X17384755Y-5773705D01*
X17394317Y-5833185D01*
X17396905Y-5890921D01*
X17396905Y-6386344D01*
X17396617Y-6406282D01*
X17392304Y-6461940D01*
X17380729Y-6518995D01*
X17358875Y-6573812D01*
X17323290Y-6622233D01*
X17308753Y-6635389D01*
X17262324Y-6664145D01*
X17204746Y-6683699D01*
X17145218Y-6693260D01*
X17087400Y-6695848D01*
X16793210Y-6695848D01*
X16773272Y-6695561D01*
X16717613Y-6691247D01*
X16660558Y-6679673D01*
X16605741Y-6657819D01*
X16557320Y-6622233D01*
X16544164Y-6607651D01*
X16515408Y-6561147D01*
X16495854Y-6503560D01*
X16486293Y-6444080D01*
X16483705Y-6386344D01*
X16483705Y-5890921D01*
X16762313Y-5890921D01*
X16762313Y-6386344D01*
X16766761Y-6422460D01*
X16802347Y-6468081D01*
X16855272Y-6479034D01*
X17025338Y-6479034D01*
X17061559Y-6474598D01*
X17107312Y-6439115D01*
X17118297Y-6386344D01*
X17118297Y-5890921D01*
X17113849Y-5854805D01*
X17078263Y-5809184D01*
X17025338Y-5798231D01*
X16855272Y-5798231D01*
X16819050Y-5802667D01*
X16773297Y-5838150D01*
X16762313Y-5890921D01*
X16483705Y-5890921D01*
X16483993Y-5870983D01*
X16488306Y-5815325D01*
X16499880Y-5758270D01*
X16521735Y-5703453D01*
X16557320Y-5655032D01*
X16571902Y-5641876D01*
X16618406Y-5613120D01*
X16675994Y-5593566D01*
X16735473Y-5584005D01*
X16793210Y-5581417D01*
X17087400Y-5581417D01*
X17107370Y-5581704D01*
G37*
G36*
X17500073Y-5829128D02*
G01*
X17778681Y-5829128D01*
X17778681Y-5597000D01*
X17500073Y-5597000D01*
X17500073Y-5829128D01*
G37*
G36*
X18508737Y-5581704D02*
G01*
X18564465Y-5586018D01*
X18621553Y-5597592D01*
X18676345Y-5619446D01*
X18724658Y-5655032D01*
X18737813Y-5669614D01*
X18766569Y-5716118D01*
X18786123Y-5773705D01*
X18795684Y-5833185D01*
X18798272Y-5890921D01*
X18798272Y-6386344D01*
X18797985Y-6406282D01*
X18793671Y-6461940D01*
X18782097Y-6518995D01*
X18760243Y-6573812D01*
X18724658Y-6622233D01*
X18710121Y-6635389D01*
X18663692Y-6664145D01*
X18606113Y-6683699D01*
X18546586Y-6693260D01*
X18488768Y-6695848D01*
X18194577Y-6695848D01*
X18174639Y-6695561D01*
X18118981Y-6691247D01*
X18061926Y-6679673D01*
X18007109Y-6657819D01*
X17958688Y-6622233D01*
X17945532Y-6607651D01*
X17916776Y-6561147D01*
X17897222Y-6503560D01*
X17887661Y-6444080D01*
X17885073Y-6386344D01*
X17885073Y-5890921D01*
X18163681Y-5890921D01*
X18163681Y-6386344D01*
X18168129Y-6422460D01*
X18203715Y-6468081D01*
X18256639Y-6479034D01*
X18426706Y-6479034D01*
X18462927Y-6474598D01*
X18508680Y-6439115D01*
X18519665Y-6386344D01*
X18519665Y-5890921D01*
X18515216Y-5854805D01*
X18479631Y-5809184D01*
X18426706Y-5798231D01*
X18256639Y-5798231D01*
X18220418Y-5802667D01*
X18174665Y-5838150D01*
X18163681Y-5890921D01*
X17885073Y-5890921D01*
X17885360Y-5870983D01*
X17889674Y-5815325D01*
X17901248Y-5758270D01*
X17923102Y-5703453D01*
X17958688Y-5655032D01*
X17973270Y-5641876D01*
X18019774Y-5613120D01*
X18077361Y-5593566D01*
X18136841Y-5584005D01*
X18194577Y-5581417D01*
X18488768Y-5581417D01*
X18508737Y-5581704D01*
G37*
D12*
%TO.C,HOLE\u002A\u002A*%
X27640000Y-18110000D02*
G75*
G02*
X24040000Y-18110000I-1800000J0D01*
G01*
X24040000Y-18110000D02*
G75*
G02*
X27640000Y-18110000I1800000J0D01*
G01*
X27640000Y-2190000D02*
G75*
G02*
X24040000Y-2190000I-1800000J0D01*
G01*
X24040000Y-2190000D02*
G75*
G02*
X27640000Y-2190000I1800000J0D01*
G01*
X1440000Y-2190000D02*
G75*
G02*
X-2160000Y-2190000I-1800000J0D01*
G01*
X-2160000Y-2190000D02*
G75*
G02*
X1440000Y-2190000I1800000J0D01*
G01*
X1440000Y-18110000D02*
G75*
G02*
X-2160000Y-18110000I-1800000J0D01*
G01*
X-2160000Y-18110000D02*
G75*
G02*
X1440000Y-18110000I1800000J0D01*
G01*
D13*
%TO.C,J4*%
X23530000Y-17610000D02*
X23530000Y-20270000D01*
X18390000Y-17610000D02*
X23530000Y-17610000D01*
X18390000Y-17610000D02*
X18390000Y-20270000D01*
X17120000Y-17610000D02*
X15790000Y-17610000D01*
X15790000Y-17610000D02*
X15790000Y-18940000D01*
X18390000Y-20270000D02*
X23530000Y-20270000D01*
%TO.C,J6*%
X23520000Y0D02*
X23520000Y-2660000D01*
X15840000Y0D02*
X23520000Y0D01*
X15840000Y0D02*
X15840000Y-2660000D01*
X14570000Y0D02*
X13240000Y0D01*
X13240000Y0D02*
X13240000Y-1330000D01*
X15840000Y-2660000D02*
X23520000Y-2660000D01*
%TD*%
%LPC*%
D14*
%TO.C,HOLE\u002A\u002A*%
X25840000Y-18110000D03*
%TD*%
%TO.C,HOLE\u002A\u002A*%
X25840000Y-2190000D03*
%TD*%
%TO.C,HOLE\u002A\u002A*%
X-360000Y-2190000D03*
%TD*%
%TO.C,HOLE\u002A\u002A*%
X-360000Y-18110000D03*
%TD*%
D15*
%TO.C,J7*%
X3361320Y-18940000D03*
D16*
X5901320Y-18940000D03*
X8441320Y-18940000D03*
%TD*%
D17*
%TO.C,USB1*%
X2131320Y-7260000D03*
X2131320Y-13040000D03*
D18*
X2631320Y-5825000D03*
X2631320Y-14475000D03*
D19*
X-1568680Y-5825000D03*
X-1568680Y-14475000D03*
%TD*%
D15*
%TO.C,J5*%
X29060000Y-15225000D03*
D16*
X29060000Y-12685000D03*
X29060000Y-10145000D03*
X29060000Y-7605000D03*
X29060000Y-5065000D03*
%TD*%
D15*
%TO.C,J4*%
X17120000Y-18940000D03*
D16*
X19660000Y-18940000D03*
X22200000Y-18940000D03*
%TD*%
D15*
%TO.C,J6*%
X14570000Y-1330000D03*
D16*
X17110000Y-1330000D03*
X19650000Y-1330000D03*
X22190000Y-1330000D03*
%TD*%
%LPD*%
M02*
