%TF.GenerationSoftware,KiCad,Pcbnew,(6.0.8)*%
%TF.CreationDate,2022-10-12T15:16:41+08:00*%
%TF.ProjectId,UINIO-USB-UART,55494e49-4f2d-4555-9342-2d554152542e,Hank*%
%TF.SameCoordinates,Original*%
%TF.FileFunction,Profile,NP*%
%FSLAX46Y46*%
G04 Gerber Fmt 4.6, Leading zero omitted, Abs format (unit mm)*
G04 Created by KiCad (PCBNEW (6.0.8)) date 2022-10-12 15:16:41*
%MOMM*%
%LPD*%
G01*
G04 APERTURE LIST*
%TA.AperFunction,Profile*%
%ADD10C,0.100000*%
%TD*%
G04 APERTURE END LIST*
D10*
X126470000Y-89750000D02*
X155920000Y-89730000D01*
X165470000Y-89660000D02*
X194470000Y-89660000D01*
X157980000Y-91730000D02*
X163200000Y-91730000D01*
X165469995Y-89659927D02*
G75*
G03*
X163200000Y-91730000I170005J-2466073D01*
G01*
X196670000Y-92030000D02*
X196670000Y-107730000D01*
X124480000Y-91740000D02*
X124480000Y-107730000D01*
X126470000Y-110170000D02*
X155920000Y-110150000D01*
X126470000Y-89750000D02*
G75*
G03*
X124480000Y-91740000I217600J-2207600D01*
G01*
X157980000Y-92860000D02*
X163090000Y-92860000D01*
X163090000Y-92860000D02*
X163090000Y-99530000D01*
X163090000Y-99530000D02*
X157980000Y-99530000D01*
X157980000Y-99530000D02*
X157980000Y-92860000D01*
X194469995Y-110119935D02*
G75*
G03*
X196670000Y-107730000I-188895J2381435D01*
G01*
X157980017Y-91729999D02*
G75*
G03*
X155920000Y-89730000I-2099417J-101501D01*
G01*
X124479944Y-107729995D02*
G75*
G03*
X126470000Y-110170000I2248956J-197305D01*
G01*
X155919993Y-110149951D02*
G75*
G03*
X157970000Y-107730000I-343593J2369351D01*
G01*
X165470000Y-110120000D02*
X194470000Y-110120000D01*
X157970000Y-107730000D02*
X163190000Y-107730000D01*
X196669984Y-92030000D02*
G75*
G03*
X194470000Y-89660000I-2305684J65800D01*
G01*
X163190028Y-107729998D02*
G75*
G03*
X165470000Y-110120000I2599372J197198D01*
G01*
X157980000Y-100560000D02*
X163090000Y-100560000D01*
X163090000Y-100560000D02*
X163090000Y-106550000D01*
X163090000Y-106550000D02*
X157980000Y-106550000D01*
X157980000Y-106550000D02*
X157980000Y-100560000D01*
M02*
