%TF.GenerationSoftware,KiCad,Pcbnew,7.0.5*%
%TF.CreationDate,2023-06-29T18:32:41+08:00*%
%TF.ProjectId,UINIO-USB-UART,55494e49-4f2d-4555-9342-2d554152542e,Version 3.2.0*%
%TF.SameCoordinates,PX8b79910PY5020b20*%
%TF.FileFunction,Copper,L2,Bot*%
%TF.FilePolarity,Positive*%
%FSLAX46Y46*%
G04 Gerber Fmt 4.6, Leading zero omitted, Abs format (unit mm)*
G04 Created by KiCad (PCBNEW 7.0.5) date 2023-06-29 18:32:41*
%MOMM*%
%LPD*%
G01*
G04 APERTURE LIST*
%TA.AperFunction,ComponentPad*%
%ADD10R,1.700000X1.700000*%
%TD*%
%TA.AperFunction,ComponentPad*%
%ADD11O,1.700000X1.700000*%
%TD*%
%TA.AperFunction,ComponentPad*%
%ADD12C,1.200000*%
%TD*%
%TA.AperFunction,ComponentPad*%
%ADD13O,1.000000X2.100000*%
%TD*%
%TA.AperFunction,ComponentPad*%
%ADD14O,1.000000X1.900000*%
%TD*%
%TA.AperFunction,ComponentPad*%
%ADD15C,2.200000*%
%TD*%
%TA.AperFunction,ViaPad*%
%ADD16C,0.700000*%
%TD*%
%TA.AperFunction,ViaPad*%
%ADD17C,0.500000*%
%TD*%
%TA.AperFunction,Conductor*%
%ADD18C,0.400000*%
%TD*%
%TA.AperFunction,Conductor*%
%ADD19C,0.200000*%
%TD*%
%TA.AperFunction,Conductor*%
%ADD20C,0.300000*%
%TD*%
%TA.AperFunction,Conductor*%
%ADD21C,0.500000*%
%TD*%
G04 APERTURE END LIST*
D10*
%TO.P,J7,1,Pin_1*%
%TO.N,/CH343_VDD_3.3V*%
X-18940000Y-1466320D03*
D11*
%TO.P,J7,2,Pin_2*%
%TO.N,/CH343_VIO*%
X-18940000Y-4006320D03*
%TO.P,J7,3,Pin_3*%
%TO.N,/CH343_VDD_5V*%
X-18940000Y-6546320D03*
%TD*%
D12*
%TO.P,HOLE\u002A\u002A,*%
%TO.N,*%
X26210000Y2973680D03*
%TD*%
%TO.P,HOLE\u002A\u002A,*%
%TO.N,*%
X-18110000Y-26315000D03*
%TD*%
%TO.P,HOLE\u002A\u002A,*%
%TO.N,*%
X10280000Y-26316320D03*
%TD*%
D13*
%TO.P,USB2,13,GND*%
%TO.N,GND*%
X22565000Y-736320D03*
%TO.P,USB2,14,GND*%
X13915000Y-736320D03*
D14*
%TO.P,USB2,15,GND*%
X22565000Y3463680D03*
%TO.P,USB2,16,GND*%
X13915000Y3463680D03*
%TD*%
D15*
%TO.P,HOLE\u002A\u002A,*%
%TO.N,*%
X4050000Y-3100000D03*
%TD*%
D12*
%TO.P,HOLE\u002A\u002A,*%
%TO.N,*%
X26210000Y-26306320D03*
%TD*%
D10*
%TO.P,J2,1,Pin_1*%
%TO.N,/CP2102_VDD_5V*%
X13175000Y-27165000D03*
D11*
%TO.P,J2,2,Pin_2*%
%TO.N,/CP2102_VDD_3.3V*%
X15715000Y-27165000D03*
%TO.P,J2,3,Pin_3*%
%TO.N,GND*%
X18255000Y-27165000D03*
%TO.P,J2,4,Pin_4*%
%TO.N,/CP2102_RXD*%
X20795000Y-27165000D03*
%TO.P,J2,5,Pin_5*%
%TO.N,/CP2102_TXD*%
X23335000Y-27165000D03*
%TD*%
D12*
%TO.P,HOLE\u002A\u002A,*%
%TO.N,*%
X-2190000Y2965000D03*
%TD*%
D13*
%TO.P,USB1,13,GND*%
%TO.N,GND*%
X-5825000Y-736320D03*
%TO.P,USB1,14,GND*%
X-14475000Y-736320D03*
D14*
%TO.P,USB1,15,GND*%
X-5825000Y3463680D03*
%TO.P,USB1,16,GND*%
X-14475000Y3463680D03*
%TD*%
D12*
%TO.P,HOLE\u002A\u002A,*%
%TO.N,*%
X10290000Y2963680D03*
%TD*%
D10*
%TO.P,J5,1,Pin_1*%
%TO.N,/CH343_VDD_5V*%
X-15225000Y-27165000D03*
D11*
%TO.P,J5,2,Pin_2*%
%TO.N,/CH343_VDD_3.3V*%
X-12685000Y-27165000D03*
%TO.P,J5,3,Pin_3*%
%TO.N,GND*%
X-10145000Y-27165000D03*
%TO.P,J5,4,Pin_4*%
%TO.N,/CH343_TXD*%
X-7605000Y-27165000D03*
%TO.P,J5,5,Pin_5*%
%TO.N,/CH343_RXD*%
X-5065000Y-27165000D03*
%TD*%
D12*
%TO.P,HOLE\u002A\u002A,*%
%TO.N,*%
X-18110000Y2965000D03*
%TD*%
%TO.P,HOLE\u002A\u002A,*%
%TO.N,*%
X-2190000Y-26325000D03*
%TD*%
D10*
%TO.P,J4,1,Pin_1*%
%TO.N,/CH343_ACT#*%
X-18940000Y-15225000D03*
D11*
%TO.P,J4,2,Pin_2*%
%TO.N,/CH343_DCD*%
X-18940000Y-17765000D03*
%TO.P,J4,3,Pin_3*%
%TO.N,/CH343_DTR*%
X-18940000Y-20305000D03*
%TD*%
D10*
%TO.P,J3,1,Pin_1*%
%TO.N,/CP2102_RI*%
X26930000Y-7235000D03*
D11*
%TO.P,J3,2,Pin_2*%
%TO.N,/CP2102_DCD*%
X26930000Y-9775000D03*
%TO.P,J3,3,Pin_3*%
%TO.N,/CP2102_DTR*%
X26930000Y-12315000D03*
%TO.P,J3,4,Pin_4*%
%TO.N,/CP2102_DSR*%
X26930000Y-14855000D03*
%TO.P,J3,5,Pin_5*%
%TO.N,/CP2102_RTS*%
X26930000Y-17395000D03*
%TO.P,J3,6,Pin_6*%
%TO.N,/CP2102_CTS*%
X26930000Y-19935000D03*
%TD*%
D10*
%TO.P,J1,1,Pin_1*%
%TO.N,/CP2102_RST*%
X9370000Y-12316320D03*
D11*
%TO.P,J1,2,Pin_2*%
%TO.N,/CP2102_\u002ASUSPEND*%
X9370000Y-14856320D03*
%TO.P,J1,3,Pin_3*%
%TO.N,/CP2102_SUSPEND*%
X9370000Y-17396320D03*
%TD*%
D10*
%TO.P,J6,1,Pin_1*%
%TO.N,/CH343_RI*%
X-1330000Y-12675000D03*
D11*
%TO.P,J6,2,Pin_2*%
%TO.N,/CH343_CTS*%
X-1330000Y-15215000D03*
%TO.P,J6,3,Pin_3*%
%TO.N,/CH343_DSR*%
X-1330000Y-17755000D03*
%TO.P,J6,4,Pin_4*%
%TO.N,/CH343_RTS*%
X-1330000Y-20295000D03*
%TD*%
D16*
%TO.N,/CP2102_VDD_5V*%
X10790000Y-6446320D03*
D17*
%TO.N,GND*%
X-16250000Y-24650000D03*
X-8500000Y-24650000D03*
X-3480000Y-13646320D03*
X-16800000Y-11076320D03*
X18145000Y-13190000D03*
X19490000Y-24456320D03*
X-11580000Y-7646320D03*
X-16800000Y-14016320D03*
X-6560000Y-15476320D03*
X19730000Y-4640000D03*
X-16800000Y-4846320D03*
X24710000Y-16460000D03*
X17180000Y-13190000D03*
X19120000Y-14200000D03*
X-3620000Y-24606320D03*
X18170000Y-16810000D03*
X18155000Y-14200000D03*
X-10550000Y-5486320D03*
X-3480000Y-18452986D03*
X-16800000Y-7376320D03*
D16*
X13520000Y-4536320D03*
D17*
X-16800000Y-16376320D03*
X-9460000Y-13573500D03*
X-16800000Y-18406320D03*
X18165000Y-12170000D03*
D16*
X19450000Y-6936320D03*
D17*
X-9300000Y-17746320D03*
X17050000Y-24456320D03*
X19110000Y-13190000D03*
X17190000Y-14200000D03*
X22080000Y-24456320D03*
X-6560000Y-17026320D03*
X17200000Y-12170000D03*
X-10840000Y-13573500D03*
X-3480000Y-16049653D03*
X19130000Y-12170000D03*
X18840000Y-18946320D03*
X-3480000Y-20856320D03*
X11830000Y-13816320D03*
X-11070000Y-24650000D03*
X-10550000Y-10645896D03*
D16*
%TO.N,/CH343_VDD_5V*%
X-8499500Y-15379891D03*
D17*
X-2830000Y-4926320D03*
X-14270000Y-4926320D03*
D16*
%TO.N,/CP2102_VDD_3.3V*%
X15690000Y-17706320D03*
D17*
X24720000Y-4066320D03*
D16*
X15690000Y-9486320D03*
D17*
X21580000Y-17696320D03*
D16*
%TO.N,/CH343_VDD_3.3V*%
X-10130000Y-19526320D03*
X-5540000Y-8410000D03*
%TO.N,/CH343_VIO*%
X-11731105Y-17205215D03*
D17*
X-8510000Y-16236320D03*
X-6000000Y-16246320D03*
D16*
%TO.N,Net-(F1-Pad1)*%
X-7760000Y-3266320D03*
X-12510000Y-3266320D03*
%TO.N,Net-(F2-Pad1)*%
X20630000Y-2716320D03*
X15840000Y-2716320D03*
D17*
%TO.N,/CP2102_RTS*%
X21320000Y-13692000D03*
%TO.N,/CP2102_CTS*%
X21660000Y-14665000D03*
%TO.N,/CH343_DSR*%
X-13312155Y-17204165D03*
%TO.N,/CH343_RTS*%
X-14583160Y-19483160D03*
%TO.N,/CH343_CTS*%
X-12560000Y-17197320D03*
%TO.N,/CP2102_USB_Data_P*%
X17490000Y-566320D03*
X18490000Y-566320D03*
%TO.N,Net-(USB2-CC2)*%
X19730000Y-5846320D03*
X16490000Y-3606320D03*
%TO.N,Net-(USB1-CC1)*%
X-8900000Y-2606320D03*
X-11160000Y-2606320D03*
%TO.N,/CH343_USB_Data_N*%
X-9400000Y-616320D03*
X-10400000Y-616320D03*
%TO.N,/CH343_RI*%
X-10996515Y-15660407D03*
%TD*%
D18*
%TO.N,/CP2102_VDD_5V*%
X13175000Y-27165000D02*
X13175000Y-8831320D01*
X13175000Y-8831320D02*
X10790000Y-6446320D01*
D19*
%TO.N,GND*%
X19490000Y-24456320D02*
X22080000Y-24456320D01*
X-10550000Y-5486320D02*
X-11580000Y-6516320D01*
X-16800000Y-11076320D02*
X-16800000Y-14016320D01*
X-16800000Y-16376320D02*
X-16800000Y-18406320D01*
X-11580000Y-6516320D02*
X-11580000Y-7646320D01*
D20*
X15920000Y-6936320D02*
X13520000Y-4536320D01*
X19450000Y-6936320D02*
X15920000Y-6936320D01*
D19*
X-16800000Y-14016320D02*
X-16800000Y-16376320D01*
X17050000Y-24456320D02*
X19490000Y-24456320D01*
D18*
%TO.N,/CH343_VDD_5V*%
X-15225000Y-27165000D02*
X-15225000Y-10261320D01*
X-2830000Y-9700000D02*
X-2830000Y-4926320D01*
X-8499500Y-15369500D02*
X-2830000Y-9700000D01*
X-2830000Y-4926320D02*
X-14270000Y-4926320D01*
X-15225000Y-10261320D02*
X-18940000Y-6546320D01*
X-8499500Y-15379891D02*
X-8499500Y-15369500D01*
D20*
%TO.N,/CP2102_VDD_3.3V*%
X21570000Y-17706320D02*
X21580000Y-17696320D01*
X15690000Y-17706320D02*
X21570000Y-17706320D01*
X24720000Y-4066320D02*
X24720000Y-7796320D01*
X15715000Y-17731320D02*
X15715000Y-27165000D01*
X24720000Y-7796320D02*
X23030000Y-9486320D01*
X15690000Y-17706320D02*
X15715000Y-17731320D01*
X15690000Y-17706320D02*
X15690000Y-9486320D01*
X23030000Y-9486320D02*
X15690000Y-9486320D01*
%TO.N,/CH343_VDD_3.3V*%
X-5540000Y-8410000D02*
X-11996320Y-8410000D01*
X-11996320Y-8410000D02*
X-18940000Y-1466320D01*
X-10130000Y-13000000D02*
X-5540000Y-8410000D01*
X-10130000Y-19526320D02*
X-10130000Y-13000000D01*
%TO.N,/CH343_VIO*%
X-11740000Y-11206320D02*
X-18940000Y-4006320D01*
X-11731105Y-17205215D02*
X-11740000Y-17196320D01*
X-6000000Y-16246320D02*
X-6010000Y-16236320D01*
X-11740000Y-17196320D02*
X-11740000Y-11206320D01*
X-6010000Y-16236320D02*
X-8510000Y-16236320D01*
D21*
%TO.N,Net-(F1-Pad1)*%
X-12510000Y-3266320D02*
X-7760000Y-3266320D01*
D18*
%TO.N,Net-(F2-Pad1)*%
X20630000Y-2716320D02*
X15840000Y-2716320D01*
D19*
%TO.N,/CP2102_RTS*%
X21320000Y-13692000D02*
X23227000Y-13692000D01*
X23227000Y-13692000D02*
X26930000Y-17395000D01*
%TO.N,/CP2102_CTS*%
X21660000Y-14665000D02*
X26930000Y-19935000D01*
%TO.N,/CH343_DSR*%
X-13312155Y-19914165D02*
X-12130000Y-21096320D01*
X-4671320Y-21096320D02*
X-1330000Y-17755000D01*
X-12130000Y-21096320D02*
X-4671320Y-21096320D01*
X-13312155Y-17204165D02*
X-13312155Y-19914165D01*
%TO.N,/CH343_RTS*%
X-2631320Y-21596320D02*
X-1330000Y-20295000D01*
X-12470000Y-21596320D02*
X-2631320Y-21596320D01*
X-14583160Y-19483160D02*
X-12470000Y-21596320D01*
%TO.N,/CH343_CTS*%
X-12560000Y-19706320D02*
X-11670000Y-20596320D01*
X-11670000Y-20596320D02*
X-6711320Y-20596320D01*
X-6711320Y-20596320D02*
X-1330000Y-15215000D01*
X-12560000Y-17197320D02*
X-12560000Y-19706320D01*
%TO.N,/CP2102_USB_Data_P*%
X18490000Y-566320D02*
X17490000Y-566320D01*
%TO.N,Net-(USB2-CC2)*%
X16490000Y-3606320D02*
X17490000Y-3606320D01*
X17490000Y-3606320D02*
X19730000Y-5846320D01*
%TO.N,Net-(USB1-CC1)*%
X-11130000Y-2606320D02*
X-8900000Y-2606320D01*
%TO.N,/CH343_USB_Data_N*%
X-9400000Y-616320D02*
X-10400000Y-616320D01*
%TO.N,/CH343_RI*%
X-8771320Y-20116320D02*
X-1330000Y-12675000D01*
X-10650000Y-20116320D02*
X-8771320Y-20116320D01*
X-10990000Y-15666922D02*
X-10990000Y-19776320D01*
X-10996515Y-15660407D02*
X-10990000Y-15666922D01*
X-10990000Y-19776320D02*
X-10650000Y-20116320D01*
%TD*%
%TA.AperFunction,Conductor*%
%TO.N,GND*%
G36*
X-19849338Y-7560046D02*
G01*
X-19685576Y-7687509D01*
X-19487574Y-7794662D01*
X-19487571Y-7794663D01*
X-19487569Y-7794664D01*
X-19487570Y-7794664D01*
X-19472310Y-7799902D01*
X-19450340Y-7809929D01*
X-19446176Y-7812345D01*
X-18179987Y-8322318D01*
X-18138633Y-8349658D01*
X-15969820Y-10518471D01*
X-15936335Y-10579794D01*
X-15933501Y-10606152D01*
X-15933501Y-25242644D01*
X-15953186Y-25309683D01*
X-15958992Y-25317955D01*
X-16474279Y-25991796D01*
X-16476714Y-25994980D01*
X-16489011Y-26011757D01*
X-16496375Y-26026275D01*
X-16507692Y-26044486D01*
X-16525887Y-26068791D01*
X-16525890Y-26068796D01*
X-16546737Y-26124687D01*
X-16549534Y-26131067D01*
X-16555129Y-26142097D01*
X-16555131Y-26142102D01*
X-16557534Y-26149196D01*
X-16557542Y-26149222D01*
X-16560468Y-26160541D01*
X-16562404Y-26166690D01*
X-16576989Y-26205797D01*
X-16576990Y-26205799D01*
X-16583500Y-26266345D01*
X-16583501Y-26266362D01*
X-16583501Y-28063637D01*
X-16583500Y-28063654D01*
X-16577737Y-28117244D01*
X-16590141Y-28186003D01*
X-16637751Y-28237141D01*
X-16701026Y-28254500D01*
X-17298258Y-28254500D01*
X-17301735Y-28254402D01*
X-17604368Y-28237407D01*
X-17611282Y-28236628D01*
X-17908384Y-28186147D01*
X-17915168Y-28184599D01*
X-18204757Y-28101170D01*
X-18211324Y-28098872D01*
X-18444546Y-28002269D01*
X-18489747Y-27983546D01*
X-18496012Y-27980529D01*
X-18759772Y-27834753D01*
X-18765664Y-27831051D01*
X-19011442Y-27656662D01*
X-19016883Y-27652324D01*
X-19241592Y-27451511D01*
X-19246512Y-27446591D01*
X-19447325Y-27221882D01*
X-19451663Y-27216441D01*
X-19626052Y-26970663D01*
X-19629754Y-26964771D01*
X-19692423Y-26851380D01*
X-19775534Y-26701002D01*
X-19778544Y-26694754D01*
X-19893874Y-26416320D01*
X-19896171Y-26409756D01*
X-19910707Y-26359302D01*
X-19923469Y-26315002D01*
X-19223249Y-26315002D01*
X-19216193Y-26391158D01*
X-19215999Y-26393927D01*
X-19212209Y-26473470D01*
X-19212208Y-26473475D01*
X-19208445Y-26488986D01*
X-19205479Y-26506774D01*
X-19204552Y-26516774D01*
X-19204294Y-26519559D01*
X-19182459Y-26596305D01*
X-19181848Y-26598621D01*
X-19162299Y-26679201D01*
X-19162298Y-26679206D01*
X-19157109Y-26690568D01*
X-19150641Y-26708134D01*
X-19148078Y-26717141D01*
X-19148072Y-26717158D01*
X-19111060Y-26791487D01*
X-19110162Y-26793367D01*
X-19074359Y-26871765D01*
X-19074353Y-26871776D01*
X-19069121Y-26879123D01*
X-19059132Y-26895771D01*
X-19056503Y-26901050D01*
X-19017843Y-26952244D01*
X-19004488Y-26969929D01*
X-19003474Y-26971310D01*
X-18951559Y-27044215D01*
X-18951557Y-27044217D01*
X-18951556Y-27044218D01*
X-18951555Y-27044219D01*
X-18947541Y-27048047D01*
X-18934163Y-27063057D01*
X-18932708Y-27064983D01*
X-18932705Y-27064987D01*
X-18932702Y-27064989D01*
X-18932701Y-27064991D01*
X-18866464Y-27125374D01*
X-18865470Y-27126301D01*
X-18827292Y-27162703D01*
X-18798346Y-27190303D01*
X-18796602Y-27191424D01*
X-18785481Y-27199970D01*
X-18785456Y-27199938D01*
X-18780881Y-27203393D01*
X-18701429Y-27252588D01*
X-18620253Y-27304757D01*
X-18615000Y-27307465D01*
X-18615034Y-27307529D01*
X-18611512Y-27309308D01*
X-18611350Y-27308984D01*
X-18606227Y-27311534D01*
X-18606218Y-27311540D01*
X-18516218Y-27346405D01*
X-18423722Y-27383435D01*
X-18423721Y-27383436D01*
X-18423483Y-27383482D01*
X-18418248Y-27384729D01*
X-18414663Y-27385748D01*
X-18414655Y-27385751D01*
X-18316771Y-27404048D01*
X-18215849Y-27423500D01*
X-18215844Y-27423500D01*
X-18007284Y-27423500D01*
X-18007282Y-27423500D01*
X-17957868Y-27414262D01*
X-17952425Y-27413494D01*
X-17899261Y-27408419D01*
X-17854332Y-27395225D01*
X-17848280Y-27393776D01*
X-17805345Y-27385751D01*
X-17755440Y-27366417D01*
X-17750513Y-27364743D01*
X-17700634Y-27350097D01*
X-17696138Y-27348777D01*
X-17694097Y-27347725D01*
X-17657458Y-27328835D01*
X-17651450Y-27326131D01*
X-17613782Y-27311540D01*
X-17565474Y-27281627D01*
X-17561252Y-27279236D01*
X-17507974Y-27251771D01*
X-17476344Y-27226896D01*
X-17470664Y-27222923D01*
X-17439118Y-27203392D01*
X-17394690Y-27162889D01*
X-17391279Y-27160000D01*
X-17341568Y-27120908D01*
X-17317373Y-27092984D01*
X-17312292Y-27087774D01*
X-17308501Y-27084318D01*
X-17287299Y-27064991D01*
X-17249107Y-27014414D01*
X-17246486Y-27011177D01*
X-17240332Y-27004075D01*
X-17202935Y-26960918D01*
X-17186103Y-26931761D01*
X-17181889Y-26925403D01*
X-17163497Y-26901050D01*
X-17133779Y-26841366D01*
X-17131978Y-26838014D01*
X-17127923Y-26830990D01*
X-17097087Y-26777582D01*
X-17087154Y-26748881D01*
X-17084075Y-26741547D01*
X-17071926Y-26717152D01*
X-17052776Y-26649842D01*
X-17051752Y-26646593D01*
X-17027847Y-26577527D01*
X-17023994Y-26550722D01*
X-17022262Y-26542597D01*
X-17015706Y-26519559D01*
X-17008949Y-26446636D01*
X-17008584Y-26443550D01*
X-17001441Y-26393872D01*
X-16997719Y-26367984D01*
X-16998851Y-26344236D01*
X-16998658Y-26335564D01*
X-16996751Y-26315000D01*
X-17003809Y-26238839D01*
X-17004004Y-26236067D01*
X-17004257Y-26230760D01*
X-17007792Y-26156526D01*
X-17011559Y-26141002D01*
X-17014522Y-26123229D01*
X-17015706Y-26110441D01*
X-17037551Y-26033666D01*
X-17038157Y-26031364D01*
X-17039194Y-26027089D01*
X-17057702Y-25950796D01*
X-17062893Y-25939430D01*
X-17069364Y-25921853D01*
X-17069540Y-25921235D01*
X-17071926Y-25912848D01*
X-17108957Y-25838482D01*
X-17109851Y-25836607D01*
X-17134193Y-25783305D01*
X-17145644Y-25758229D01*
X-17149409Y-25752942D01*
X-17150879Y-25750877D01*
X-17160871Y-25734224D01*
X-17163497Y-25728950D01*
X-17181885Y-25704601D01*
X-17215513Y-25660070D01*
X-17216540Y-25658670D01*
X-17261324Y-25595780D01*
X-17268441Y-25585785D01*
X-17268446Y-25585780D01*
X-17272454Y-25581958D01*
X-17285847Y-25566931D01*
X-17287292Y-25565018D01*
X-17287296Y-25565013D01*
X-17287299Y-25565009D01*
X-17353582Y-25504585D01*
X-17354532Y-25503698D01*
X-17421657Y-25439694D01*
X-17423399Y-25438575D01*
X-17434520Y-25430029D01*
X-17434544Y-25430062D01*
X-17439123Y-25426604D01*
X-17518558Y-25377420D01*
X-17599742Y-25325246D01*
X-17605001Y-25322535D01*
X-17604968Y-25322470D01*
X-17608488Y-25320692D01*
X-17608649Y-25321016D01*
X-17613778Y-25318462D01*
X-17613782Y-25318460D01*
X-17625636Y-25313868D01*
X-17703765Y-25283601D01*
X-17796278Y-25246564D01*
X-17796286Y-25246562D01*
X-17796530Y-25246515D01*
X-17801743Y-25245273D01*
X-17805342Y-25244249D01*
X-17903323Y-25225933D01*
X-18004150Y-25206500D01*
X-18004151Y-25206500D01*
X-18007282Y-25206500D01*
X-18212718Y-25206500D01*
X-18212724Y-25206500D01*
X-18262115Y-25215732D01*
X-18267614Y-25216507D01*
X-18320735Y-25221580D01*
X-18320739Y-25221580D01*
X-18320739Y-25221581D01*
X-18340057Y-25227253D01*
X-18365652Y-25234768D01*
X-18371729Y-25236224D01*
X-18414649Y-25244247D01*
X-18414662Y-25244250D01*
X-18464562Y-25263582D01*
X-18469491Y-25265257D01*
X-18523860Y-25281222D01*
X-18562541Y-25301162D01*
X-18568555Y-25303868D01*
X-18606219Y-25318460D01*
X-18606220Y-25318460D01*
X-18654526Y-25348370D01*
X-18658755Y-25350764D01*
X-18712023Y-25378226D01*
X-18743646Y-25403094D01*
X-18749335Y-25407073D01*
X-18780884Y-25426609D01*
X-18825292Y-25467091D01*
X-18828734Y-25470006D01*
X-18878435Y-25509093D01*
X-18902623Y-25537006D01*
X-18907710Y-25542224D01*
X-18932699Y-25565006D01*
X-18970889Y-25615576D01*
X-18973509Y-25618813D01*
X-19017064Y-25669079D01*
X-19033896Y-25698233D01*
X-19038116Y-25704601D01*
X-19056504Y-25728951D01*
X-19056509Y-25728960D01*
X-19086219Y-25788622D01*
X-19088024Y-25791985D01*
X-19122912Y-25852415D01*
X-19132842Y-25881103D01*
X-19135933Y-25888463D01*
X-19148072Y-25912842D01*
X-19148077Y-25912856D01*
X-19167218Y-25980128D01*
X-19168261Y-25983437D01*
X-19192154Y-26052475D01*
X-19196006Y-26079258D01*
X-19197742Y-26087404D01*
X-19204294Y-26110437D01*
X-19211051Y-26183351D01*
X-19211418Y-26186453D01*
X-19222281Y-26262010D01*
X-19222281Y-26262015D01*
X-19221150Y-26285765D01*
X-19221344Y-26294435D01*
X-19222445Y-26306323D01*
X-19223249Y-26315002D01*
X-19923469Y-26315002D01*
X-19967069Y-26163663D01*
X-19979600Y-26120167D01*
X-19981148Y-26113383D01*
X-19996368Y-26023808D01*
X-20031631Y-25816269D01*
X-20032407Y-25809376D01*
X-20041279Y-25651390D01*
X-20049402Y-25506735D01*
X-20049500Y-25503258D01*
X-20049500Y-21416580D01*
X-20029815Y-21349541D01*
X-19977011Y-21303786D01*
X-19907853Y-21293842D01*
X-19849338Y-21318726D01*
X-19685576Y-21446189D01*
X-19685575Y-21446189D01*
X-19685573Y-21446191D01*
X-19558865Y-21514761D01*
X-19487574Y-21553342D01*
X-19274635Y-21626444D01*
X-19052569Y-21663500D01*
X-18827431Y-21663500D01*
X-18605365Y-21626444D01*
X-18392426Y-21553342D01*
X-18194424Y-21446189D01*
X-18016760Y-21307906D01*
X-17917386Y-21199957D01*
X-17864285Y-21142276D01*
X-17864284Y-21142274D01*
X-17864278Y-21142268D01*
X-17741140Y-20953791D01*
X-17650704Y-20747616D01*
X-17595436Y-20529368D01*
X-17593070Y-20500817D01*
X-17576844Y-20305005D01*
X-17576844Y-20304994D01*
X-17595435Y-20080640D01*
X-17595437Y-20080628D01*
X-17623924Y-19968135D01*
X-17650704Y-19862384D01*
X-17741140Y-19656209D01*
X-17864278Y-19467732D01*
X-17864281Y-19467729D01*
X-17864285Y-19467723D01*
X-18016757Y-19302097D01*
X-18016762Y-19302092D01*
X-18194423Y-19163812D01*
X-18194428Y-19163808D01*
X-18230932Y-19144053D01*
X-18280522Y-19094833D01*
X-18295629Y-19026616D01*
X-18271458Y-18961061D01*
X-18230931Y-18925945D01*
X-18194424Y-18906189D01*
X-18016760Y-18767906D01*
X-17902090Y-18643342D01*
X-17864285Y-18602276D01*
X-17864284Y-18602274D01*
X-17864278Y-18602268D01*
X-17741140Y-18413791D01*
X-17650704Y-18207616D01*
X-17595436Y-17989368D01*
X-17587038Y-17888027D01*
X-17576844Y-17765005D01*
X-17576844Y-17764994D01*
X-17595435Y-17540640D01*
X-17595437Y-17540628D01*
X-17613749Y-17468316D01*
X-17650704Y-17322384D01*
X-17741140Y-17116209D01*
X-17747483Y-17106501D01*
X-17848320Y-16952158D01*
X-17864278Y-16927732D01*
X-17864281Y-16927729D01*
X-17864285Y-16927723D01*
X-18009490Y-16769991D01*
X-18040413Y-16707337D01*
X-18032553Y-16637911D01*
X-17988406Y-16583755D01*
X-17961595Y-16569827D01*
X-17881416Y-16539920D01*
X-17843796Y-16525889D01*
X-17726739Y-16438261D01*
X-17639111Y-16321204D01*
X-17588011Y-16184201D01*
X-17582689Y-16134698D01*
X-17581501Y-16123654D01*
X-17581501Y-16123647D01*
X-17581500Y-16123638D01*
X-17581500Y-14326362D01*
X-17581501Y-14326352D01*
X-17581501Y-14326345D01*
X-17585541Y-14288772D01*
X-17588011Y-14265799D01*
X-17592687Y-14253263D01*
X-17610478Y-14205564D01*
X-17639111Y-14128796D01*
X-17726739Y-14011739D01*
X-17843796Y-13924111D01*
X-17846316Y-13923171D01*
X-17980797Y-13873011D01*
X-18041346Y-13866500D01*
X-18041362Y-13866500D01*
X-19838638Y-13866500D01*
X-19838655Y-13866500D01*
X-19906912Y-13873840D01*
X-19907116Y-13871947D01*
X-19966773Y-13868740D01*
X-20023438Y-13827863D01*
X-20049008Y-13762841D01*
X-20049500Y-13751810D01*
X-20049500Y-7657900D01*
X-20029815Y-7590861D01*
X-19977011Y-7545106D01*
X-19907853Y-7535162D01*
X-19849338Y-7560046D01*
G37*
%TD.AperFunction*%
%TA.AperFunction,Conductor*%
G36*
X-14311297Y-20616017D02*
G01*
X-14304821Y-20622047D01*
X-12931345Y-21995524D01*
X-12926004Y-22001614D01*
X-12916073Y-22014556D01*
X-12903990Y-22030304D01*
X-12903989Y-22030305D01*
X-12903987Y-22030307D01*
X-12880171Y-22048582D01*
X-12873716Y-22053535D01*
X-12873692Y-22053555D01*
X-12776877Y-22127843D01*
X-12776875Y-22127845D01*
X-12683534Y-22166507D01*
X-12628850Y-22189158D01*
X-12488481Y-22207637D01*
X-12470001Y-22210071D01*
X-12470000Y-22210071D01*
X-12469999Y-22210071D01*
X-12434147Y-22205351D01*
X-12426046Y-22204820D01*
X-2675266Y-22204820D01*
X-2667169Y-22205350D01*
X-2641793Y-22208691D01*
X-2631321Y-22210070D01*
X-2631320Y-22210070D01*
X-2631319Y-22210070D01*
X-2595474Y-22205351D01*
X-2593359Y-22205072D01*
X-2593346Y-22205071D01*
X-2591439Y-22204820D01*
X-2591435Y-22204820D01*
X-2491864Y-22191711D01*
X-2491864Y-22191712D01*
X-2491860Y-22191710D01*
X-2472469Y-22189158D01*
X-2324444Y-22127844D01*
X-2229248Y-22054797D01*
X-2229247Y-22054795D01*
X-2221156Y-22048587D01*
X-2221154Y-22048584D01*
X-2197333Y-22030307D01*
X-2197332Y-22030304D01*
X-2192095Y-22026287D01*
X-2155967Y-22007075D01*
X-849471Y-21569834D01*
X-841188Y-21566904D01*
X-836320Y-21565087D01*
X-810309Y-21553222D01*
X-804746Y-21551003D01*
X-782426Y-21543342D01*
X-584424Y-21436189D01*
X-450662Y-21332076D01*
X-385669Y-21306434D01*
X-317129Y-21320000D01*
X-266804Y-21368468D01*
X-250500Y-21429930D01*
X-250500Y-25503258D01*
X-250598Y-25506735D01*
X-267593Y-25809367D01*
X-268372Y-25816281D01*
X-318853Y-26113383D01*
X-320401Y-26120167D01*
X-403830Y-26409756D01*
X-406128Y-26416323D01*
X-521452Y-26694742D01*
X-524471Y-26701011D01*
X-670247Y-26964771D01*
X-673949Y-26970663D01*
X-848338Y-27216441D01*
X-852676Y-27221882D01*
X-1053489Y-27446591D01*
X-1058409Y-27451511D01*
X-1283118Y-27652324D01*
X-1288559Y-27656662D01*
X-1534337Y-27831051D01*
X-1540229Y-27834753D01*
X-1803989Y-27980529D01*
X-1810258Y-27983548D01*
X-2088677Y-28098872D01*
X-2095244Y-28101170D01*
X-2384833Y-28184599D01*
X-2391617Y-28186147D01*
X-2688719Y-28236628D01*
X-2695633Y-28237407D01*
X-2998265Y-28254402D01*
X-3001742Y-28254500D01*
X-3938783Y-28254500D01*
X-4005822Y-28234815D01*
X-4051577Y-28182011D01*
X-4061521Y-28112853D01*
X-4032496Y-28049297D01*
X-4030012Y-28046516D01*
X-3989278Y-28002268D01*
X-3866140Y-27813791D01*
X-3775704Y-27607616D01*
X-3720436Y-27389368D01*
X-3720435Y-27389359D01*
X-3701844Y-27165005D01*
X-3701844Y-27164994D01*
X-3720435Y-26940640D01*
X-3720437Y-26940628D01*
X-3736201Y-26878377D01*
X-3775704Y-26722384D01*
X-3866140Y-26516209D01*
X-3866968Y-26514942D01*
X-3940396Y-26402552D01*
X-3989278Y-26327732D01*
X-3989281Y-26327729D01*
X-3989285Y-26327723D01*
X-3991790Y-26325002D01*
X-3303249Y-26325002D01*
X-3296193Y-26401158D01*
X-3295999Y-26403927D01*
X-3292209Y-26483470D01*
X-3292208Y-26483475D01*
X-3288445Y-26498986D01*
X-3285479Y-26516774D01*
X-3285089Y-26520986D01*
X-3284294Y-26529559D01*
X-3262459Y-26606305D01*
X-3261848Y-26608621D01*
X-3242299Y-26689201D01*
X-3242298Y-26689206D01*
X-3237109Y-26700568D01*
X-3230641Y-26718134D01*
X-3228078Y-26727141D01*
X-3228072Y-26727158D01*
X-3191060Y-26801487D01*
X-3190162Y-26803367D01*
X-3154359Y-26881765D01*
X-3154353Y-26881776D01*
X-3149121Y-26889123D01*
X-3139132Y-26905771D01*
X-3136503Y-26911050D01*
X-3097843Y-26962244D01*
X-3084488Y-26979929D01*
X-3083474Y-26981310D01*
X-3031559Y-27054215D01*
X-3031557Y-27054217D01*
X-3031556Y-27054218D01*
X-3031555Y-27054219D01*
X-3027541Y-27058047D01*
X-3014163Y-27073057D01*
X-3012708Y-27074983D01*
X-3012705Y-27074987D01*
X-3012702Y-27074989D01*
X-3012701Y-27074991D01*
X-2946464Y-27135374D01*
X-2945470Y-27136301D01*
X-2907079Y-27172906D01*
X-2878346Y-27200303D01*
X-2876602Y-27201424D01*
X-2865481Y-27209970D01*
X-2865456Y-27209938D01*
X-2860881Y-27213393D01*
X-2781429Y-27262588D01*
X-2700253Y-27314757D01*
X-2695000Y-27317465D01*
X-2695034Y-27317529D01*
X-2691512Y-27319308D01*
X-2691350Y-27318984D01*
X-2686227Y-27321534D01*
X-2686218Y-27321540D01*
X-2596218Y-27356405D01*
X-2503722Y-27393436D01*
X-2503721Y-27393436D01*
X-2503483Y-27393482D01*
X-2498248Y-27394729D01*
X-2494663Y-27395748D01*
X-2494655Y-27395751D01*
X-2396771Y-27414048D01*
X-2295849Y-27433500D01*
X-2295844Y-27433500D01*
X-2087284Y-27433500D01*
X-2087282Y-27433500D01*
X-2037868Y-27424262D01*
X-2032425Y-27423494D01*
X-1979261Y-27418419D01*
X-1934332Y-27405225D01*
X-1928280Y-27403776D01*
X-1885345Y-27395751D01*
X-1835440Y-27376417D01*
X-1830513Y-27374743D01*
X-1792397Y-27363550D01*
X-1776138Y-27358777D01*
X-1774706Y-27358039D01*
X-1737458Y-27338835D01*
X-1731450Y-27336131D01*
X-1693782Y-27321540D01*
X-1645474Y-27291627D01*
X-1641252Y-27289236D01*
X-1587974Y-27261771D01*
X-1556344Y-27236896D01*
X-1550664Y-27232923D01*
X-1519118Y-27213392D01*
X-1474690Y-27172889D01*
X-1471279Y-27170000D01*
X-1421568Y-27130908D01*
X-1397373Y-27102984D01*
X-1392292Y-27097774D01*
X-1388501Y-27094318D01*
X-1367299Y-27074991D01*
X-1329107Y-27024414D01*
X-1326486Y-27021177D01*
X-1319188Y-27012755D01*
X-1282935Y-26970918D01*
X-1266103Y-26941761D01*
X-1261889Y-26935403D01*
X-1243497Y-26911050D01*
X-1213779Y-26851366D01*
X-1211978Y-26848014D01*
X-1207923Y-26840990D01*
X-1177087Y-26787582D01*
X-1167154Y-26758881D01*
X-1164075Y-26751547D01*
X-1151926Y-26727152D01*
X-1132776Y-26659842D01*
X-1131752Y-26656593D01*
X-1107847Y-26587527D01*
X-1103994Y-26560722D01*
X-1102262Y-26552597D01*
X-1095706Y-26529559D01*
X-1088949Y-26456636D01*
X-1088584Y-26453550D01*
X-1087782Y-26447974D01*
X-1077719Y-26377984D01*
X-1078851Y-26354236D01*
X-1078658Y-26345564D01*
X-1076751Y-26325000D01*
X-1083809Y-26248839D01*
X-1084004Y-26246067D01*
X-1084352Y-26238767D01*
X-1087792Y-26166526D01*
X-1091559Y-26151002D01*
X-1094522Y-26133229D01*
X-1095706Y-26120441D01*
X-1117551Y-26043666D01*
X-1118157Y-26041364D01*
X-1137702Y-25960796D01*
X-1142893Y-25949430D01*
X-1149364Y-25931853D01*
X-1151924Y-25922856D01*
X-1151926Y-25922848D01*
X-1188957Y-25848482D01*
X-1189851Y-25846607D01*
X-1191163Y-25843735D01*
X-1225644Y-25768229D01*
X-1230879Y-25760877D01*
X-1240871Y-25744224D01*
X-1243497Y-25738950D01*
X-1247070Y-25734219D01*
X-1295513Y-25670070D01*
X-1296540Y-25668670D01*
X-1348442Y-25595784D01*
X-1348446Y-25595780D01*
X-1352454Y-25591958D01*
X-1365847Y-25576931D01*
X-1367292Y-25575018D01*
X-1367296Y-25575013D01*
X-1367299Y-25575009D01*
X-1433582Y-25514585D01*
X-1434532Y-25513698D01*
X-1439362Y-25509093D01*
X-1501654Y-25449697D01*
X-1501657Y-25449694D01*
X-1503399Y-25448575D01*
X-1514520Y-25440029D01*
X-1514544Y-25440062D01*
X-1519123Y-25436604D01*
X-1598558Y-25387420D01*
X-1679742Y-25335246D01*
X-1685001Y-25332535D01*
X-1684968Y-25332470D01*
X-1688488Y-25330692D01*
X-1688649Y-25331016D01*
X-1693778Y-25328462D01*
X-1693782Y-25328460D01*
X-1702084Y-25325244D01*
X-1783765Y-25293601D01*
X-1876278Y-25256564D01*
X-1876286Y-25256562D01*
X-1876530Y-25256515D01*
X-1881743Y-25255273D01*
X-1885342Y-25254249D01*
X-1983323Y-25235933D01*
X-2084150Y-25216500D01*
X-2084151Y-25216500D01*
X-2087282Y-25216500D01*
X-2292718Y-25216500D01*
X-2292724Y-25216500D01*
X-2342115Y-25225732D01*
X-2347614Y-25226507D01*
X-2400735Y-25231580D01*
X-2400739Y-25231580D01*
X-2400739Y-25231581D01*
X-2421048Y-25237544D01*
X-2445652Y-25244768D01*
X-2451729Y-25246224D01*
X-2494649Y-25254247D01*
X-2494662Y-25254250D01*
X-2544562Y-25273582D01*
X-2549491Y-25275257D01*
X-2603860Y-25291222D01*
X-2642541Y-25311162D01*
X-2648555Y-25313868D01*
X-2686219Y-25328460D01*
X-2686220Y-25328460D01*
X-2734526Y-25358370D01*
X-2738755Y-25360764D01*
X-2792023Y-25388226D01*
X-2823646Y-25413094D01*
X-2829335Y-25417073D01*
X-2860884Y-25436609D01*
X-2905292Y-25477091D01*
X-2908734Y-25480006D01*
X-2958435Y-25519093D01*
X-2982623Y-25547006D01*
X-2987710Y-25552224D01*
X-3012699Y-25575006D01*
X-3050889Y-25625576D01*
X-3053509Y-25628813D01*
X-3097064Y-25679079D01*
X-3113896Y-25708233D01*
X-3118116Y-25714601D01*
X-3136504Y-25738951D01*
X-3136509Y-25738960D01*
X-3166219Y-25798622D01*
X-3168024Y-25801985D01*
X-3202912Y-25862415D01*
X-3212842Y-25891103D01*
X-3215933Y-25898463D01*
X-3228072Y-25922842D01*
X-3228077Y-25922856D01*
X-3247218Y-25990128D01*
X-3248261Y-25993437D01*
X-3272154Y-26062475D01*
X-3276006Y-26089258D01*
X-3277742Y-26097404D01*
X-3284294Y-26120437D01*
X-3291051Y-26193351D01*
X-3291418Y-26196453D01*
X-3302281Y-26272010D01*
X-3302281Y-26272015D01*
X-3301150Y-26295765D01*
X-3301344Y-26304435D01*
X-3302445Y-26316323D01*
X-3303249Y-26325002D01*
X-3991790Y-26325002D01*
X-4141757Y-26162097D01*
X-4141762Y-26162092D01*
X-4282597Y-26052475D01*
X-4319424Y-26023811D01*
X-4319425Y-26023810D01*
X-4319428Y-26023808D01*
X-4517420Y-25916661D01*
X-4517423Y-25916659D01*
X-4517426Y-25916658D01*
X-4517429Y-25916657D01*
X-4517431Y-25916656D01*
X-4730363Y-25843556D01*
X-4952431Y-25806500D01*
X-5177569Y-25806500D01*
X-5399638Y-25843556D01*
X-5612570Y-25916656D01*
X-5612581Y-25916661D01*
X-5810573Y-26023808D01*
X-5810578Y-26023812D01*
X-5988239Y-26162092D01*
X-5988244Y-26162097D01*
X-6140716Y-26327723D01*
X-6140724Y-26327734D01*
X-6231192Y-26466206D01*
X-6284338Y-26511562D01*
X-6353569Y-26520986D01*
X-6416905Y-26491484D01*
X-6438808Y-26466206D01*
X-6520473Y-26341209D01*
X-6529278Y-26327732D01*
X-6529281Y-26327729D01*
X-6529285Y-26327723D01*
X-6681757Y-26162097D01*
X-6681762Y-26162092D01*
X-6822597Y-26052475D01*
X-6859424Y-26023811D01*
X-6859425Y-26023810D01*
X-6859428Y-26023808D01*
X-7057420Y-25916661D01*
X-7057423Y-25916659D01*
X-7057426Y-25916658D01*
X-7057429Y-25916657D01*
X-7057431Y-25916656D01*
X-7270363Y-25843556D01*
X-7492431Y-25806500D01*
X-7717569Y-25806500D01*
X-7939638Y-25843556D01*
X-8152570Y-25916656D01*
X-8152581Y-25916661D01*
X-8350573Y-26023808D01*
X-8350578Y-26023812D01*
X-8528239Y-26162092D01*
X-8528244Y-26162097D01*
X-8680716Y-26327723D01*
X-8680724Y-26327734D01*
X-8774749Y-26471650D01*
X-8827895Y-26517007D01*
X-8897127Y-26526430D01*
X-8960462Y-26496928D01*
X-8980132Y-26474951D01*
X-9106887Y-26293926D01*
X-9106892Y-26293920D01*
X-9273918Y-26126894D01*
X-9467422Y-25991399D01*
X-9681508Y-25891570D01*
X-9681514Y-25891567D01*
X-9895000Y-25834364D01*
X-9895000Y-26729498D01*
X-10002685Y-26680320D01*
X-10109237Y-26665000D01*
X-10180763Y-26665000D01*
X-10287315Y-26680320D01*
X-10395000Y-26729498D01*
X-10395000Y-25834364D01*
X-10395001Y-25834364D01*
X-10608487Y-25891567D01*
X-10608493Y-25891570D01*
X-10822578Y-25991399D01*
X-10822580Y-25991400D01*
X-11016074Y-26126886D01*
X-11016080Y-26126891D01*
X-11183109Y-26293920D01*
X-11183110Y-26293922D01*
X-11309869Y-26474952D01*
X-11364446Y-26518577D01*
X-11433945Y-26525769D01*
X-11496299Y-26494247D01*
X-11515248Y-26471656D01*
X-11609278Y-26327732D01*
X-11609285Y-26327725D01*
X-11609285Y-26327723D01*
X-11761757Y-26162097D01*
X-11761762Y-26162092D01*
X-11902597Y-26052475D01*
X-11939424Y-26023811D01*
X-11939425Y-26023810D01*
X-11939428Y-26023808D01*
X-12137420Y-25916661D01*
X-12137423Y-25916659D01*
X-12137426Y-25916658D01*
X-12137429Y-25916657D01*
X-12137431Y-25916656D01*
X-12350363Y-25843556D01*
X-12572431Y-25806500D01*
X-12797569Y-25806500D01*
X-13019638Y-25843556D01*
X-13232570Y-25916656D01*
X-13232581Y-25916661D01*
X-13430573Y-26023808D01*
X-13430578Y-26023812D01*
X-13608239Y-26162092D01*
X-13608245Y-26162098D01*
X-13671454Y-26230760D01*
X-13731341Y-26266750D01*
X-13801179Y-26264649D01*
X-13858795Y-26225124D01*
X-13878860Y-26190118D01*
X-13887335Y-26167397D01*
X-13888199Y-26164919D01*
X-13901960Y-26122497D01*
X-13903687Y-26119411D01*
X-13911649Y-26102207D01*
X-13924109Y-26068800D01*
X-13924112Y-26068795D01*
X-13952874Y-26030373D01*
X-13957340Y-26023502D01*
X-13973316Y-25994942D01*
X-14022297Y-25930890D01*
X-14491000Y-25317971D01*
X-14516087Y-25252760D01*
X-14516500Y-25242647D01*
X-14516500Y-20709730D01*
X-14496815Y-20642691D01*
X-14444011Y-20596936D01*
X-14374853Y-20586992D01*
X-14311297Y-20616017D01*
G37*
%TD.AperFunction*%
%TA.AperFunction,Conductor*%
G36*
X13262504Y4884815D02*
G01*
X13308259Y4832011D01*
X13318203Y4762853D01*
X13289178Y4699297D01*
X13280897Y4690626D01*
X13152331Y4568416D01*
X13152330Y4568414D01*
X13036143Y4401485D01*
X12955940Y4214588D01*
X12915000Y4015371D01*
X12915000Y3713680D01*
X13615000Y3713680D01*
X13615000Y3213680D01*
X12915000Y3213680D01*
X12915000Y2962967D01*
X12930418Y2811342D01*
X12991299Y2617299D01*
X12991304Y2617289D01*
X13090005Y2439465D01*
X13090005Y2439464D01*
X13222478Y2285150D01*
X13222479Y2285149D01*
X13383304Y2160662D01*
X13565907Y2071091D01*
X13665000Y2045436D01*
X13665000Y2847570D01*
X13689457Y2808070D01*
X13778962Y2740479D01*
X13886840Y2709785D01*
X13998521Y2720134D01*
X14098922Y2770128D01*
X14165000Y2842611D01*
X14165000Y2040314D01*
X14166944Y2040611D01*
X14166945Y2040611D01*
X14357660Y2111244D01*
X14357664Y2111246D01*
X14530267Y2218830D01*
X14677668Y2358945D01*
X14677669Y2358947D01*
X14793856Y2525876D01*
X14874059Y2712773D01*
X14915000Y2911990D01*
X14915000Y3213680D01*
X14215000Y3213680D01*
X14215000Y3713680D01*
X14915000Y3713680D01*
X14915000Y3964394D01*
X14899581Y4116019D01*
X14838700Y4310062D01*
X14838695Y4310072D01*
X14739994Y4487896D01*
X14739994Y4487897D01*
X14607521Y4642211D01*
X14607519Y4642212D01*
X14555544Y4682444D01*
X14514580Y4739045D01*
X14510720Y4808808D01*
X14545189Y4869584D01*
X14607044Y4902075D01*
X14631445Y4904500D01*
X21845465Y4904500D01*
X21912504Y4884815D01*
X21958259Y4832011D01*
X21968203Y4762853D01*
X21939178Y4699297D01*
X21930897Y4690626D01*
X21802331Y4568416D01*
X21802330Y4568414D01*
X21686143Y4401485D01*
X21605940Y4214588D01*
X21565000Y4015371D01*
X21565000Y3713680D01*
X22265000Y3713680D01*
X22265000Y3213680D01*
X21565000Y3213680D01*
X21565000Y2962967D01*
X21580418Y2811342D01*
X21641299Y2617299D01*
X21641304Y2617289D01*
X21740005Y2439465D01*
X21740005Y2439464D01*
X21872478Y2285150D01*
X21872479Y2285149D01*
X22033304Y2160662D01*
X22215907Y2071091D01*
X22315000Y2045436D01*
X22315000Y2847570D01*
X22339457Y2808070D01*
X22428962Y2740479D01*
X22536840Y2709785D01*
X22648521Y2720134D01*
X22748922Y2770128D01*
X22815000Y2842611D01*
X22815000Y2040314D01*
X22816944Y2040611D01*
X22816945Y2040611D01*
X23007660Y2111244D01*
X23007664Y2111246D01*
X23180267Y2218830D01*
X23327668Y2358945D01*
X23327669Y2358947D01*
X23443856Y2525876D01*
X23524059Y2712773D01*
X23565000Y2911990D01*
X23565000Y2973677D01*
X25096751Y2973677D01*
X25103807Y2897522D01*
X25104001Y2894753D01*
X25107791Y2815210D01*
X25107792Y2815205D01*
X25111555Y2799694D01*
X25114521Y2781906D01*
X25115706Y2769121D01*
X25137541Y2692375D01*
X25138152Y2690059D01*
X25157701Y2609479D01*
X25157702Y2609474D01*
X25162891Y2598112D01*
X25169359Y2580546D01*
X25171922Y2571539D01*
X25171928Y2571522D01*
X25208940Y2497193D01*
X25209838Y2495313D01*
X25245641Y2416915D01*
X25245647Y2416904D01*
X25250879Y2409557D01*
X25260868Y2392909D01*
X25263497Y2387630D01*
X25288437Y2354604D01*
X25315512Y2318751D01*
X25316526Y2317370D01*
X25368441Y2244465D01*
X25368443Y2244463D01*
X25368444Y2244462D01*
X25368445Y2244461D01*
X25372459Y2240633D01*
X25385837Y2225623D01*
X25387292Y2223697D01*
X25387295Y2223693D01*
X25387298Y2223691D01*
X25387299Y2223689D01*
X25453536Y2163306D01*
X25454530Y2162379D01*
X25492921Y2125774D01*
X25521654Y2098377D01*
X25523398Y2097256D01*
X25534519Y2088710D01*
X25534544Y2088742D01*
X25539119Y2085287D01*
X25618571Y2036092D01*
X25699747Y1983923D01*
X25705000Y1981215D01*
X25704966Y1981151D01*
X25708488Y1979372D01*
X25708650Y1979696D01*
X25713773Y1977146D01*
X25713782Y1977140D01*
X25803782Y1942275D01*
X25878752Y1912261D01*
X25896279Y1905244D01*
X25896517Y1905198D01*
X25901752Y1903951D01*
X25905337Y1902932D01*
X25905345Y1902929D01*
X26003229Y1884632D01*
X26104151Y1865180D01*
X26104156Y1865180D01*
X26312716Y1865180D01*
X26312718Y1865180D01*
X26362132Y1874418D01*
X26367575Y1875186D01*
X26420739Y1880261D01*
X26465668Y1893455D01*
X26471720Y1894904D01*
X26514655Y1902929D01*
X26564560Y1922263D01*
X26569487Y1923937D01*
X26607603Y1935130D01*
X26623862Y1939903D01*
X26628444Y1942265D01*
X26662542Y1959845D01*
X26668550Y1962549D01*
X26706218Y1977140D01*
X26754526Y2007053D01*
X26758748Y2009444D01*
X26812026Y2036909D01*
X26843656Y2061784D01*
X26849336Y2065757D01*
X26880882Y2085288D01*
X26925310Y2125791D01*
X26928721Y2128680D01*
X26978432Y2167772D01*
X27002627Y2195696D01*
X27007708Y2200906D01*
X27032701Y2223689D01*
X27070893Y2274266D01*
X27073514Y2277503D01*
X27117065Y2327762D01*
X27133897Y2356919D01*
X27138111Y2363277D01*
X27156503Y2387630D01*
X27186221Y2447314D01*
X27188022Y2450666D01*
X27222913Y2511098D01*
X27232846Y2539799D01*
X27235925Y2547133D01*
X27248074Y2571528D01*
X27267224Y2638838D01*
X27268248Y2642087D01*
X27292153Y2711153D01*
X27296006Y2737958D01*
X27297738Y2746083D01*
X27304294Y2769121D01*
X27311051Y2842044D01*
X27311416Y2845130D01*
X27317311Y2886128D01*
X27322281Y2920696D01*
X27321149Y2944444D01*
X27321342Y2953116D01*
X27323249Y2973680D01*
X27316191Y3049841D01*
X27315996Y3052613D01*
X27315496Y3063102D01*
X27312208Y3132154D01*
X27308441Y3147678D01*
X27305478Y3165451D01*
X27304294Y3178239D01*
X27282449Y3255014D01*
X27281843Y3257316D01*
X27272244Y3296884D01*
X27262298Y3337884D01*
X27257107Y3349250D01*
X27250636Y3366827D01*
X27248076Y3375824D01*
X27248074Y3375832D01*
X27211043Y3450198D01*
X27210149Y3452073D01*
X27192199Y3491378D01*
X27174356Y3530451D01*
X27170591Y3535738D01*
X27169121Y3537803D01*
X27159129Y3554456D01*
X27156503Y3559730D01*
X27139861Y3581767D01*
X27104487Y3628610D01*
X27103460Y3630010D01*
X27057736Y3694220D01*
X27051559Y3702895D01*
X27051554Y3702900D01*
X27047546Y3706722D01*
X27034153Y3721749D01*
X27032708Y3723662D01*
X27032704Y3723667D01*
X27032701Y3723671D01*
X26966418Y3784095D01*
X26965468Y3784982D01*
X26898343Y3848986D01*
X26896601Y3850105D01*
X26885480Y3858651D01*
X26885456Y3858618D01*
X26880877Y3862076D01*
X26801442Y3911260D01*
X26720258Y3963434D01*
X26714999Y3966145D01*
X26715032Y3966210D01*
X26711512Y3967988D01*
X26711351Y3967664D01*
X26706222Y3970218D01*
X26706218Y3970220D01*
X26694364Y3974812D01*
X26616235Y4005079D01*
X26523722Y4042116D01*
X26523714Y4042118D01*
X26523470Y4042165D01*
X26518257Y4043407D01*
X26514658Y4044431D01*
X26416677Y4062747D01*
X26315850Y4082180D01*
X26315849Y4082180D01*
X26312718Y4082180D01*
X26107282Y4082180D01*
X26107276Y4082180D01*
X26057885Y4072948D01*
X26052386Y4072173D01*
X25999265Y4067100D01*
X25999261Y4067100D01*
X25999261Y4067099D01*
X25984439Y4062747D01*
X25954348Y4053912D01*
X25948271Y4052456D01*
X25905351Y4044433D01*
X25905338Y4044430D01*
X25855438Y4025098D01*
X25850509Y4023423D01*
X25796140Y4007458D01*
X25757459Y3987518D01*
X25751445Y3984812D01*
X25713781Y3970220D01*
X25713780Y3970220D01*
X25665474Y3940310D01*
X25661245Y3937916D01*
X25607977Y3910454D01*
X25576354Y3885586D01*
X25570665Y3881607D01*
X25539116Y3862071D01*
X25494708Y3821589D01*
X25491266Y3818674D01*
X25441565Y3779587D01*
X25417377Y3751674D01*
X25412290Y3746456D01*
X25387301Y3723674D01*
X25349111Y3673104D01*
X25346491Y3669867D01*
X25302936Y3619601D01*
X25286104Y3590447D01*
X25281884Y3584079D01*
X25263496Y3559729D01*
X25263491Y3559720D01*
X25233781Y3500058D01*
X25231976Y3496695D01*
X25197088Y3436265D01*
X25187158Y3407577D01*
X25184067Y3400217D01*
X25171928Y3375838D01*
X25171923Y3375824D01*
X25152782Y3308552D01*
X25151739Y3305243D01*
X25127846Y3236205D01*
X25123994Y3209422D01*
X25122258Y3201276D01*
X25115706Y3178243D01*
X25108949Y3105329D01*
X25108582Y3102227D01*
X25097719Y3026670D01*
X25097719Y3026665D01*
X25098849Y3002911D01*
X25098655Y2994235D01*
X25096751Y2973677D01*
X23565000Y2973677D01*
X23565000Y3213680D01*
X22865000Y3213680D01*
X22865000Y3713680D01*
X23565000Y3713680D01*
X23565000Y3964394D01*
X23549581Y4116019D01*
X23488700Y4310062D01*
X23488695Y4310072D01*
X23389994Y4487896D01*
X23389994Y4487897D01*
X23257521Y4642211D01*
X23257519Y4642212D01*
X23205544Y4682444D01*
X23164580Y4739045D01*
X23160720Y4808808D01*
X23195189Y4869584D01*
X23257044Y4902075D01*
X23281445Y4904500D01*
X25355830Y4904500D01*
X25398258Y4904500D01*
X25401735Y4904402D01*
X25552467Y4895938D01*
X25704376Y4887407D01*
X25711269Y4886631D01*
X25952899Y4845576D01*
X26008383Y4836148D01*
X26015167Y4834600D01*
X26304756Y4751171D01*
X26311320Y4748874D01*
X26589754Y4633544D01*
X26596002Y4630534D01*
X26784070Y4526593D01*
X26859771Y4484754D01*
X26865663Y4481052D01*
X27111441Y4306663D01*
X27116882Y4302325D01*
X27341591Y4101512D01*
X27346511Y4096592D01*
X27547324Y3871883D01*
X27551662Y3866442D01*
X27726051Y3620664D01*
X27729753Y3614772D01*
X27825003Y3442432D01*
X27871585Y3358147D01*
X27875529Y3351012D01*
X27878546Y3344747D01*
X27918841Y3247466D01*
X27993872Y3066324D01*
X27996170Y3059757D01*
X28079599Y2770168D01*
X28081147Y2763384D01*
X28131628Y2466282D01*
X28132407Y2459368D01*
X28149402Y2156737D01*
X28149500Y2153260D01*
X28149500Y-5801504D01*
X28129815Y-5868543D01*
X28077011Y-5914298D01*
X28007853Y-5924242D01*
X27982165Y-5917685D01*
X27889203Y-5883011D01*
X27828654Y-5876500D01*
X27828638Y-5876500D01*
X26031362Y-5876500D01*
X26031345Y-5876500D01*
X25970797Y-5883011D01*
X25970795Y-5883011D01*
X25833795Y-5934111D01*
X25716739Y-6021739D01*
X25629111Y-6138795D01*
X25618681Y-6166759D01*
X25576809Y-6222692D01*
X25511344Y-6247108D01*
X25443072Y-6232255D01*
X25393667Y-6182849D01*
X25378500Y-6123424D01*
X25378500Y-4654489D01*
X25380914Y-4630141D01*
X25416906Y-4450411D01*
X25452592Y-4272212D01*
X25452617Y-4272084D01*
X25453139Y-4269478D01*
X25455408Y-4261183D01*
X25464162Y-4236170D01*
X25464162Y-4236169D01*
X25464163Y-4236167D01*
X25483299Y-4066323D01*
X25483299Y-4066316D01*
X25464163Y-3896475D01*
X25464162Y-3896470D01*
X25422067Y-3776170D01*
X25407709Y-3735137D01*
X25316771Y-3590411D01*
X25195909Y-3469549D01*
X25195908Y-3469548D01*
X25051183Y-3378611D01*
X24889849Y-3322157D01*
X24889844Y-3322156D01*
X24720004Y-3303021D01*
X24719996Y-3303021D01*
X24550155Y-3322156D01*
X24550150Y-3322157D01*
X24388816Y-3378611D01*
X24244091Y-3469548D01*
X24123228Y-3590411D01*
X24032291Y-3735136D01*
X23975837Y-3896470D01*
X23975836Y-3896475D01*
X23956701Y-4066316D01*
X23956701Y-4066323D01*
X23975836Y-4236162D01*
X23975838Y-4236170D01*
X23984584Y-4261165D01*
X23986859Y-4269477D01*
X24023093Y-4450411D01*
X24059085Y-4630141D01*
X24059086Y-4630143D01*
X24061500Y-4654492D01*
X24061499Y-7472197D01*
X24041814Y-7539236D01*
X24025180Y-7559878D01*
X22793559Y-8791501D01*
X22732236Y-8824986D01*
X22705878Y-8827820D01*
X16501756Y-8827820D01*
X16465445Y-8822384D01*
X15984490Y-8675089D01*
X15984467Y-8675082D01*
X15982154Y-8674446D01*
X15978249Y-8673373D01*
X15960684Y-8667090D01*
X15956758Y-8665342D01*
X15956750Y-8665339D01*
X15827878Y-8637947D01*
X15780232Y-8627820D01*
X15599768Y-8627820D01*
X15593323Y-8629190D01*
X15423248Y-8665339D01*
X15423242Y-8665341D01*
X15258386Y-8738741D01*
X15258381Y-8738744D01*
X15112388Y-8844814D01*
X15112381Y-8844820D01*
X14991632Y-8978928D01*
X14901400Y-9135214D01*
X14845635Y-9306843D01*
X14833510Y-9422205D01*
X14826771Y-9486320D01*
X14845635Y-9665795D01*
X14871004Y-9743876D01*
X14871794Y-9746305D01*
X14876386Y-9765547D01*
X14878755Y-9780765D01*
X15026064Y-10261766D01*
X15031500Y-10298077D01*
X15031500Y-16894562D01*
X15026064Y-16930873D01*
X14878762Y-17411852D01*
X14878759Y-17411862D01*
X14870862Y-17440605D01*
X14869895Y-17445852D01*
X14869639Y-17445804D01*
X14865489Y-17465739D01*
X14845635Y-17526843D01*
X14845635Y-17526844D01*
X14845635Y-17526845D01*
X14826771Y-17706320D01*
X14845635Y-17885795D01*
X14845636Y-17885798D01*
X14879261Y-17989286D01*
X14881097Y-17996313D01*
X14886194Y-18021848D01*
X14886195Y-18021853D01*
X14886197Y-18021858D01*
X15049409Y-18483527D01*
X15056500Y-18524857D01*
X15056500Y-25313998D01*
X15045062Y-25366016D01*
X14709831Y-26091419D01*
X14663839Y-26144017D01*
X14596711Y-26163400D01*
X14529761Y-26143414D01*
X14484244Y-26090405D01*
X14481095Y-26082756D01*
X14475889Y-26068796D01*
X14475885Y-26068791D01*
X14463671Y-26052475D01*
X14447126Y-26030373D01*
X14442660Y-26023502D01*
X14426684Y-25994942D01*
X14377703Y-25930890D01*
X13909000Y-25317971D01*
X13883913Y-25252760D01*
X13883500Y-25242647D01*
X13883500Y-8854598D01*
X13883613Y-8850854D01*
X13887401Y-8788227D01*
X13876091Y-8726510D01*
X13875527Y-8722804D01*
X13868763Y-8667090D01*
X13867965Y-8660519D01*
X13864283Y-8650812D01*
X13858258Y-8629200D01*
X13856388Y-8618990D01*
X13838762Y-8579827D01*
X13830635Y-8561768D01*
X13829201Y-8558307D01*
X13806953Y-8499643D01*
X13801058Y-8491103D01*
X13790035Y-8471559D01*
X13785775Y-8462094D01*
X13747064Y-8412684D01*
X13744854Y-8409679D01*
X13709216Y-8358049D01*
X13709215Y-8358047D01*
X13662253Y-8316442D01*
X13659542Y-8313891D01*
X11850729Y-6505079D01*
X11834071Y-6484400D01*
X11809618Y-6446320D01*
X11550716Y-6043130D01*
X11546030Y-6035965D01*
X11546027Y-6035961D01*
X11546024Y-6035957D01*
X11541910Y-6030599D01*
X11537387Y-6023833D01*
X11532962Y-6016169D01*
X11488367Y-5938927D01*
X11466191Y-5914298D01*
X11367618Y-5804820D01*
X11367615Y-5804818D01*
X11367614Y-5804817D01*
X11367613Y-5804816D01*
X11244661Y-5715486D01*
X11221614Y-5698741D01*
X11056757Y-5625341D01*
X11056751Y-5625339D01*
X10917751Y-5595794D01*
X10880232Y-5587820D01*
X10699768Y-5587820D01*
X10668825Y-5594396D01*
X10523248Y-5625339D01*
X10523242Y-5625341D01*
X10358386Y-5698741D01*
X10358381Y-5698744D01*
X10212388Y-5804814D01*
X10212381Y-5804820D01*
X10091632Y-5938928D01*
X10001400Y-6095214D01*
X9945635Y-6266843D01*
X9945634Y-6266845D01*
X9945635Y-6266845D01*
X9926771Y-6446320D01*
X9931955Y-6495637D01*
X9945635Y-6625796D01*
X9984661Y-6745908D01*
X10001401Y-6797427D01*
X10091633Y-6953713D01*
X10133696Y-7000428D01*
X10212381Y-7087819D01*
X10212384Y-7087821D01*
X10212387Y-7087824D01*
X10358385Y-7193898D01*
X10373888Y-7200800D01*
X10375742Y-7201626D01*
X10392303Y-7210564D01*
X10828080Y-7490391D01*
X10848760Y-7507050D01*
X12430182Y-9088472D01*
X12463666Y-9149793D01*
X12466500Y-9176151D01*
X12466500Y-25242644D01*
X12446815Y-25309683D01*
X12441000Y-25317968D01*
X11923309Y-25994949D01*
X11910989Y-26011757D01*
X11903625Y-26026275D01*
X11892308Y-26044486D01*
X11874113Y-26068791D01*
X11874110Y-26068796D01*
X11853263Y-26124687D01*
X11850466Y-26131067D01*
X11844871Y-26142097D01*
X11844867Y-26142108D01*
X11842465Y-26149195D01*
X11842465Y-26149196D01*
X11839535Y-26160535D01*
X11837598Y-26166688D01*
X11823010Y-26205800D01*
X11816500Y-26266345D01*
X11816500Y-28063654D01*
X11822263Y-28117244D01*
X11809859Y-28186003D01*
X11762249Y-28237141D01*
X11698974Y-28254500D01*
X11101742Y-28254500D01*
X11098265Y-28254402D01*
X10795632Y-28237407D01*
X10788718Y-28236628D01*
X10491616Y-28186147D01*
X10484832Y-28184599D01*
X10195243Y-28101170D01*
X10188676Y-28098872D01*
X9955454Y-28002269D01*
X9910253Y-27983546D01*
X9903988Y-27980529D01*
X9640228Y-27834753D01*
X9634336Y-27831051D01*
X9388558Y-27656662D01*
X9383117Y-27652324D01*
X9158408Y-27451511D01*
X9153488Y-27446591D01*
X8952675Y-27221882D01*
X8948337Y-27216441D01*
X8773948Y-26970663D01*
X8770246Y-26964771D01*
X8707577Y-26851380D01*
X8624466Y-26701002D01*
X8621456Y-26694754D01*
X8506126Y-26416320D01*
X8503829Y-26409756D01*
X8489293Y-26359302D01*
X8476911Y-26316323D01*
X9166751Y-26316323D01*
X9173807Y-26392478D01*
X9174001Y-26395247D01*
X9177791Y-26474790D01*
X9177792Y-26474795D01*
X9181555Y-26490306D01*
X9184521Y-26508094D01*
X9185706Y-26520879D01*
X9207541Y-26597625D01*
X9208152Y-26599941D01*
X9227701Y-26680521D01*
X9227702Y-26680526D01*
X9232891Y-26691888D01*
X9239359Y-26709454D01*
X9241922Y-26718461D01*
X9241928Y-26718478D01*
X9278940Y-26792807D01*
X9279838Y-26794687D01*
X9315641Y-26873085D01*
X9315647Y-26873096D01*
X9320879Y-26880443D01*
X9330868Y-26897091D01*
X9333497Y-26902370D01*
X9358437Y-26935396D01*
X9385512Y-26971249D01*
X9386526Y-26972630D01*
X9438441Y-27045535D01*
X9438443Y-27045537D01*
X9438444Y-27045538D01*
X9438445Y-27045539D01*
X9442459Y-27049367D01*
X9455837Y-27064377D01*
X9457292Y-27066303D01*
X9457295Y-27066307D01*
X9457298Y-27066309D01*
X9457299Y-27066311D01*
X9523536Y-27126694D01*
X9524530Y-27127621D01*
X9563738Y-27165005D01*
X9591654Y-27191623D01*
X9593398Y-27192744D01*
X9604519Y-27201290D01*
X9604544Y-27201258D01*
X9609119Y-27204713D01*
X9688571Y-27253908D01*
X9769747Y-27306077D01*
X9775000Y-27308785D01*
X9774966Y-27308849D01*
X9778488Y-27310628D01*
X9778650Y-27310304D01*
X9783773Y-27312854D01*
X9783782Y-27312860D01*
X9873782Y-27347725D01*
X9962982Y-27383436D01*
X9966279Y-27384756D01*
X9966517Y-27384802D01*
X9971752Y-27386049D01*
X9975337Y-27387068D01*
X9975345Y-27387071D01*
X10073229Y-27405368D01*
X10174151Y-27424820D01*
X10174156Y-27424820D01*
X10382716Y-27424820D01*
X10382718Y-27424820D01*
X10432132Y-27415582D01*
X10437575Y-27414814D01*
X10490739Y-27409739D01*
X10535668Y-27396545D01*
X10541720Y-27395096D01*
X10584655Y-27387071D01*
X10634560Y-27367737D01*
X10639487Y-27366063D01*
X10677603Y-27354870D01*
X10693862Y-27350097D01*
X10698444Y-27347735D01*
X10732542Y-27330155D01*
X10738550Y-27327451D01*
X10776218Y-27312860D01*
X10824526Y-27282947D01*
X10828748Y-27280556D01*
X10882026Y-27253091D01*
X10913656Y-27228216D01*
X10919336Y-27224243D01*
X10950882Y-27204712D01*
X10995310Y-27164209D01*
X10998721Y-27161320D01*
X11048432Y-27122228D01*
X11072627Y-27094304D01*
X11077708Y-27089094D01*
X11079156Y-27087774D01*
X11102701Y-27066311D01*
X11140893Y-27015734D01*
X11143514Y-27012497D01*
X11150812Y-27004075D01*
X11187065Y-26962238D01*
X11203897Y-26933081D01*
X11208111Y-26926723D01*
X11226503Y-26902370D01*
X11256221Y-26842686D01*
X11258022Y-26839334D01*
X11261852Y-26832700D01*
X11292913Y-26778902D01*
X11302846Y-26750201D01*
X11305925Y-26742867D01*
X11318074Y-26718472D01*
X11337224Y-26651162D01*
X11338248Y-26647913D01*
X11362153Y-26578847D01*
X11366006Y-26552042D01*
X11367738Y-26543917D01*
X11374294Y-26520879D01*
X11381051Y-26447956D01*
X11381416Y-26444870D01*
X11381606Y-26443550D01*
X11392281Y-26369304D01*
X11391149Y-26345556D01*
X11391342Y-26336884D01*
X11393249Y-26316320D01*
X11386191Y-26240159D01*
X11385996Y-26237387D01*
X11385680Y-26230760D01*
X11382208Y-26157846D01*
X11378441Y-26142322D01*
X11375478Y-26124549D01*
X11374294Y-26111761D01*
X11352449Y-26034986D01*
X11351843Y-26032684D01*
X11350288Y-26026275D01*
X11332298Y-25952116D01*
X11327107Y-25940750D01*
X11320636Y-25923173D01*
X11318782Y-25916658D01*
X11318074Y-25914168D01*
X11281043Y-25839802D01*
X11280149Y-25837927D01*
X11267106Y-25809367D01*
X11244356Y-25759549D01*
X11239651Y-25752942D01*
X11239121Y-25752197D01*
X11229129Y-25735544D01*
X11226503Y-25730270D01*
X11222930Y-25725539D01*
X11174487Y-25661390D01*
X11173460Y-25659990D01*
X11121558Y-25587104D01*
X11121554Y-25587100D01*
X11117546Y-25583278D01*
X11104153Y-25568251D01*
X11102708Y-25566338D01*
X11102704Y-25566333D01*
X11102701Y-25566329D01*
X11036418Y-25505905D01*
X11035468Y-25505018D01*
X11034574Y-25504166D01*
X10968346Y-25441017D01*
X10968343Y-25441014D01*
X10966601Y-25439895D01*
X10955480Y-25431349D01*
X10955456Y-25431382D01*
X10950877Y-25427924D01*
X10871442Y-25378740D01*
X10790258Y-25326566D01*
X10784999Y-25323855D01*
X10785032Y-25323790D01*
X10781512Y-25322012D01*
X10781351Y-25322336D01*
X10776222Y-25319782D01*
X10776218Y-25319780D01*
X10772805Y-25318458D01*
X10686235Y-25284921D01*
X10593722Y-25247884D01*
X10593714Y-25247882D01*
X10593470Y-25247835D01*
X10588257Y-25246593D01*
X10584658Y-25245569D01*
X10486677Y-25227253D01*
X10385850Y-25207820D01*
X10385849Y-25207820D01*
X10382718Y-25207820D01*
X10177282Y-25207820D01*
X10177276Y-25207820D01*
X10127885Y-25217052D01*
X10122386Y-25217827D01*
X10069265Y-25222900D01*
X10069261Y-25222900D01*
X10069261Y-25222901D01*
X10058407Y-25226088D01*
X10024348Y-25236088D01*
X10018271Y-25237544D01*
X9975351Y-25245567D01*
X9975338Y-25245570D01*
X9925438Y-25264902D01*
X9920509Y-25266577D01*
X9866140Y-25282542D01*
X9827459Y-25302482D01*
X9821445Y-25305188D01*
X9783781Y-25319780D01*
X9783780Y-25319780D01*
X9735474Y-25349690D01*
X9731245Y-25352084D01*
X9677977Y-25379546D01*
X9646354Y-25404414D01*
X9640665Y-25408393D01*
X9609116Y-25427929D01*
X9564708Y-25468411D01*
X9561266Y-25471326D01*
X9511565Y-25510413D01*
X9487377Y-25538326D01*
X9482290Y-25543544D01*
X9457301Y-25566326D01*
X9419111Y-25616896D01*
X9416491Y-25620133D01*
X9372936Y-25670399D01*
X9356104Y-25699553D01*
X9351884Y-25705921D01*
X9333496Y-25730271D01*
X9333491Y-25730280D01*
X9303781Y-25789942D01*
X9301976Y-25793305D01*
X9267088Y-25853735D01*
X9257158Y-25882423D01*
X9254067Y-25889783D01*
X9241928Y-25914162D01*
X9241923Y-25914176D01*
X9222782Y-25981448D01*
X9221739Y-25984757D01*
X9197846Y-26053795D01*
X9193994Y-26080578D01*
X9192258Y-26088724D01*
X9185706Y-26111757D01*
X9178949Y-26184671D01*
X9178582Y-26187773D01*
X9167719Y-26263330D01*
X9167719Y-26263335D01*
X9168849Y-26287089D01*
X9168655Y-26295765D01*
X9166874Y-26315000D01*
X9166751Y-26316323D01*
X8476911Y-26316323D01*
X8432931Y-26163663D01*
X8420400Y-26120167D01*
X8418852Y-26113383D01*
X8403632Y-26023808D01*
X8368369Y-25816269D01*
X8367593Y-25809376D01*
X8358721Y-25651390D01*
X8350598Y-25506735D01*
X8350500Y-25503258D01*
X8350500Y-18577950D01*
X8370185Y-18510911D01*
X8422989Y-18465156D01*
X8492147Y-18455212D01*
X8550662Y-18480097D01*
X8608169Y-18524857D01*
X8624420Y-18537506D01*
X8624427Y-18537511D01*
X8744103Y-18602276D01*
X8822426Y-18644662D01*
X9035365Y-18717764D01*
X9257431Y-18754820D01*
X9482569Y-18754820D01*
X9704635Y-18717764D01*
X9917574Y-18644662D01*
X10115576Y-18537509D01*
X10293240Y-18399226D01*
X10445722Y-18233588D01*
X10568860Y-18045111D01*
X10659296Y-17838936D01*
X10714564Y-17620688D01*
X10721198Y-17540628D01*
X10733156Y-17396325D01*
X10733156Y-17396314D01*
X10714565Y-17171960D01*
X10714563Y-17171948D01*
X10700447Y-17116207D01*
X10659296Y-16953704D01*
X10568860Y-16747529D01*
X10556268Y-16728256D01*
X10461861Y-16583755D01*
X10445722Y-16559052D01*
X10445719Y-16559049D01*
X10445715Y-16559043D01*
X10293243Y-16393417D01*
X10293238Y-16393412D01*
X10115577Y-16255132D01*
X10115572Y-16255128D01*
X10079068Y-16235373D01*
X10029478Y-16186153D01*
X10014371Y-16117936D01*
X10038542Y-16052381D01*
X10079069Y-16017265D01*
X10115576Y-15997509D01*
X10293240Y-15859226D01*
X10445722Y-15693588D01*
X10568860Y-15505111D01*
X10659296Y-15298936D01*
X10714564Y-15080688D01*
X10714565Y-15080679D01*
X10733156Y-14856325D01*
X10733156Y-14856314D01*
X10714565Y-14631960D01*
X10714563Y-14631948D01*
X10676311Y-14480895D01*
X10659296Y-14413704D01*
X10568860Y-14207529D01*
X10567996Y-14206207D01*
X10445723Y-14019054D01*
X10445715Y-14019043D01*
X10300510Y-13861311D01*
X10269587Y-13798657D01*
X10277447Y-13729231D01*
X10321594Y-13675075D01*
X10348405Y-13661147D01*
X10428584Y-13631240D01*
X10466204Y-13617209D01*
X10583261Y-13529581D01*
X10670889Y-13412524D01*
X10721989Y-13275521D01*
X10726504Y-13233523D01*
X10728499Y-13214974D01*
X10728500Y-13214957D01*
X10728500Y-11417682D01*
X10728499Y-11417665D01*
X10724790Y-11383171D01*
X10721989Y-11357119D01*
X10706701Y-11316132D01*
X10689041Y-11268783D01*
X10670889Y-11220116D01*
X10583261Y-11103059D01*
X10466204Y-11015431D01*
X10466204Y-11015430D01*
X10329203Y-10964331D01*
X10268654Y-10957820D01*
X10268638Y-10957820D01*
X8474500Y-10957820D01*
X8407461Y-10938135D01*
X8361706Y-10885331D01*
X8350500Y-10833820D01*
X8350500Y-6186885D01*
X8352883Y-6162691D01*
X8355408Y-6150000D01*
X8352383Y-6134792D01*
X8350000Y-6110600D01*
X8350000Y-2716319D01*
X14976771Y-2716319D01*
X14995635Y-2895796D01*
X15001944Y-2915214D01*
X15051401Y-3067427D01*
X15141633Y-3223713D01*
X15183696Y-3270428D01*
X15262381Y-3357819D01*
X15262384Y-3357821D01*
X15262387Y-3357824D01*
X15383470Y-3445796D01*
X15408385Y-3463898D01*
X15573242Y-3537298D01*
X15573244Y-3537298D01*
X15573248Y-3537300D01*
X15635069Y-3550440D01*
X15696548Y-3583630D01*
X15730325Y-3644793D01*
X15732506Y-3657846D01*
X15745836Y-3776164D01*
X15745837Y-3776169D01*
X15802291Y-3937503D01*
X15889423Y-4076173D01*
X15893229Y-4082229D01*
X16014091Y-4203091D01*
X16158817Y-4294029D01*
X16320149Y-4350482D01*
X16320150Y-4350482D01*
X16320155Y-4350483D01*
X16489996Y-4369619D01*
X16490000Y-4369619D01*
X16490004Y-4369619D01*
X16659843Y-4350483D01*
X16659843Y-4350482D01*
X16659850Y-4350482D01*
X16716302Y-4330727D01*
X16736209Y-4325570D01*
X16754149Y-4322483D01*
X17067898Y-4220854D01*
X17106110Y-4214820D01*
X17186589Y-4214820D01*
X17253628Y-4234505D01*
X17274270Y-4251139D01*
X18864066Y-5840935D01*
X18886819Y-5872221D01*
X19022950Y-6138796D01*
X19037275Y-6166846D01*
X19037186Y-6166891D01*
X19039120Y-6171309D01*
X19039273Y-6171236D01*
X19042292Y-6177505D01*
X19048936Y-6188079D01*
X19050696Y-6191062D01*
X19053086Y-6195385D01*
X19053790Y-6196429D01*
X19057037Y-6200972D01*
X19133227Y-6322227D01*
X19133228Y-6322228D01*
X19133229Y-6322229D01*
X19254091Y-6443091D01*
X19398817Y-6534029D01*
X19560149Y-6590482D01*
X19560150Y-6590482D01*
X19560155Y-6590483D01*
X19729996Y-6609619D01*
X19730000Y-6609619D01*
X19730004Y-6609619D01*
X19899844Y-6590483D01*
X19899847Y-6590482D01*
X19899850Y-6590482D01*
X20061183Y-6534029D01*
X20205909Y-6443091D01*
X20326771Y-6322229D01*
X20417709Y-6177503D01*
X20474162Y-6016170D01*
X20484520Y-5924242D01*
X20493299Y-5846323D01*
X20493299Y-5846316D01*
X20474163Y-5676475D01*
X20474162Y-5676470D01*
X20466476Y-5654505D01*
X20417709Y-5515137D01*
X20326771Y-5370411D01*
X20205909Y-5249549D01*
X20205908Y-5249549D01*
X20205908Y-5249548D01*
X20061183Y-5158610D01*
X20059243Y-5157676D01*
X20054779Y-5155766D01*
X19755901Y-5003139D01*
X19724615Y-4980386D01*
X18380730Y-3636501D01*
X18347245Y-3575178D01*
X18352229Y-3505486D01*
X18394101Y-3449553D01*
X18459565Y-3425136D01*
X18468411Y-3424820D01*
X19838403Y-3424820D01*
X19864795Y-3427661D01*
X20350764Y-3533565D01*
X20356708Y-3535174D01*
X20363239Y-3537296D01*
X20363248Y-3537300D01*
X20539768Y-3574820D01*
X20539769Y-3574820D01*
X20720231Y-3574820D01*
X20720232Y-3574820D01*
X20896752Y-3537300D01*
X20896754Y-3537298D01*
X20896757Y-3537298D01*
X20968207Y-3505486D01*
X21061615Y-3463898D01*
X21207613Y-3357824D01*
X21328367Y-3223713D01*
X21418599Y-3067427D01*
X21474365Y-2895795D01*
X21493229Y-2716320D01*
X21474365Y-2536845D01*
X21418599Y-2365213D01*
X21328367Y-2208927D01*
X21257671Y-2130411D01*
X21207618Y-2074820D01*
X21207615Y-2074818D01*
X21207614Y-2074817D01*
X21207613Y-2074816D01*
X21061615Y-1968742D01*
X21061614Y-1968741D01*
X20896757Y-1895341D01*
X20896751Y-1895339D01*
X20757751Y-1865794D01*
X20720232Y-1857820D01*
X20539768Y-1857820D01*
X20459962Y-1874783D01*
X20363247Y-1895340D01*
X20356715Y-1897462D01*
X20350763Y-1899072D01*
X20261107Y-1918611D01*
X19864800Y-2004976D01*
X19838397Y-2007820D01*
X16631602Y-2007820D01*
X16605199Y-2004976D01*
X16438924Y-1968741D01*
X16119246Y-1899075D01*
X16113295Y-1897465D01*
X16106752Y-1895339D01*
X15930232Y-1857820D01*
X15749768Y-1857820D01*
X15729364Y-1862157D01*
X15573248Y-1895339D01*
X15573242Y-1895341D01*
X15408386Y-1968741D01*
X15408381Y-1968744D01*
X15262388Y-2074814D01*
X15262381Y-2074820D01*
X15141632Y-2208928D01*
X15051400Y-2365214D01*
X14995635Y-2536843D01*
X14976771Y-2716319D01*
X8350000Y-2716319D01*
X8350000Y-1337033D01*
X12915000Y-1337033D01*
X12930418Y-1488658D01*
X12991299Y-1682701D01*
X12991304Y-1682711D01*
X13090005Y-1860535D01*
X13090005Y-1860536D01*
X13222478Y-2014850D01*
X13222479Y-2014851D01*
X13383304Y-2139338D01*
X13565907Y-2228909D01*
X13665000Y-2254564D01*
X13665000Y-1502430D01*
X13689457Y-1541930D01*
X13778962Y-1609521D01*
X13886840Y-1640215D01*
X13998521Y-1629866D01*
X14098922Y-1579872D01*
X14165000Y-1507389D01*
X14165000Y-2259686D01*
X14166944Y-2259389D01*
X14166945Y-2259389D01*
X14357660Y-2188756D01*
X14357664Y-2188754D01*
X14530267Y-2081170D01*
X14677668Y-1941055D01*
X14677669Y-1941053D01*
X14793856Y-1774124D01*
X14874059Y-1587227D01*
X14915000Y-1388010D01*
X14915000Y-986320D01*
X14215000Y-986320D01*
X14215000Y-486320D01*
X14812939Y-486320D01*
X14879978Y-506005D01*
X14914242Y-538811D01*
X14916642Y-542212D01*
X14985851Y-616316D01*
X15015245Y-647789D01*
X15138672Y-722846D01*
X15277772Y-761820D01*
X15277773Y-761820D01*
X15385950Y-761820D01*
X15397502Y-760231D01*
X15493111Y-747091D01*
X15625609Y-689539D01*
X15737665Y-598374D01*
X15760289Y-566323D01*
X16726701Y-566323D01*
X16745836Y-736164D01*
X16745837Y-736169D01*
X16802291Y-897503D01*
X16866403Y-999537D01*
X16893229Y-1042229D01*
X17014091Y-1163091D01*
X17158817Y-1254029D01*
X17320149Y-1310482D01*
X17320150Y-1310482D01*
X17320155Y-1310483D01*
X17489996Y-1329619D01*
X17490000Y-1329619D01*
X17490004Y-1329619D01*
X17659843Y-1310483D01*
X17659843Y-1310482D01*
X17659850Y-1310482D01*
X17716302Y-1290727D01*
X17736209Y-1285570D01*
X17754149Y-1282483D01*
X17754154Y-1282481D01*
X17754156Y-1282481D01*
X17951787Y-1218464D01*
X18021630Y-1216531D01*
X18028187Y-1218456D01*
X18225849Y-1282483D01*
X18258194Y-1291800D01*
X18258211Y-1291801D01*
X18263540Y-1292842D01*
X18263463Y-1293233D01*
X18284064Y-1297854D01*
X18320150Y-1310482D01*
X18320154Y-1310482D01*
X18320156Y-1310483D01*
X18489996Y-1329619D01*
X18490000Y-1329619D01*
X18490004Y-1329619D01*
X18659844Y-1310483D01*
X18659847Y-1310482D01*
X18659850Y-1310482D01*
X18821183Y-1254029D01*
X18965909Y-1163091D01*
X19086771Y-1042229D01*
X19177709Y-897503D01*
X19234162Y-736170D01*
X19234163Y-736164D01*
X19253299Y-566323D01*
X19253299Y-566316D01*
X19234163Y-396475D01*
X19234162Y-396470D01*
X19224940Y-370115D01*
X19190790Y-272519D01*
X20600796Y-272519D01*
X20621077Y-370116D01*
X20630186Y-413954D01*
X20630187Y-413956D01*
X20696645Y-542213D01*
X20696649Y-542219D01*
X20765851Y-616316D01*
X20795245Y-647789D01*
X20918672Y-722846D01*
X21057772Y-761820D01*
X21057773Y-761820D01*
X21165950Y-761820D01*
X21177502Y-760231D01*
X21273111Y-747091D01*
X21405609Y-689539D01*
X21517665Y-598374D01*
X21557309Y-542212D01*
X21559710Y-538811D01*
X21614453Y-495394D01*
X21661014Y-486320D01*
X22265000Y-486320D01*
X22265000Y-986320D01*
X21565000Y-986320D01*
X21565000Y-1337033D01*
X21580418Y-1488658D01*
X21641299Y-1682701D01*
X21641304Y-1682711D01*
X21740005Y-1860535D01*
X21740005Y-1860536D01*
X21872478Y-2014850D01*
X21872479Y-2014851D01*
X22033304Y-2139338D01*
X22215907Y-2228909D01*
X22315000Y-2254564D01*
X22315000Y-1502430D01*
X22339457Y-1541930D01*
X22428962Y-1609521D01*
X22536840Y-1640215D01*
X22648521Y-1629866D01*
X22748922Y-1579872D01*
X22815000Y-1507389D01*
X22815000Y-2259685D01*
X22816944Y-2259389D01*
X22816945Y-2259389D01*
X23007660Y-2188756D01*
X23007664Y-2188754D01*
X23180267Y-2081170D01*
X23327668Y-1941055D01*
X23327669Y-1941053D01*
X23443856Y-1774124D01*
X23524059Y-1587227D01*
X23565000Y-1388010D01*
X23565000Y-986320D01*
X22865000Y-986320D01*
X22865000Y-486320D01*
X23565000Y-486320D01*
X23565000Y-135606D01*
X23549581Y16019D01*
X23488700Y210062D01*
X23488695Y210072D01*
X23389994Y387896D01*
X23389994Y387897D01*
X23257521Y542211D01*
X23257520Y542212D01*
X23096695Y666699D01*
X22914093Y756269D01*
X22815000Y781927D01*
X22815000Y29791D01*
X22790543Y69290D01*
X22701038Y136881D01*
X22593160Y167575D01*
X22481479Y157226D01*
X22381078Y107232D01*
X22315000Y34750D01*
X22315000Y787047D01*
X22313053Y786749D01*
X22313047Y786747D01*
X22122342Y716118D01*
X22122335Y716115D01*
X21949732Y608531D01*
X21802331Y468416D01*
X21802330Y468414D01*
X21686144Y301487D01*
X21653448Y225294D01*
X21608921Y171451D01*
X21542352Y150228D01*
X21474877Y168364D01*
X21468523Y172858D01*
X21341330Y250205D01*
X21341329Y250206D01*
X21341328Y250206D01*
X21202228Y289180D01*
X21094051Y289180D01*
X21094050Y289180D01*
X20986889Y274451D01*
X20854389Y216899D01*
X20854389Y216898D01*
X20742338Y125737D01*
X20742333Y125732D01*
X20659028Y7717D01*
X20610654Y-128394D01*
X20610654Y-128397D01*
X20610653Y-128399D01*
X20610654Y-128399D01*
X20600796Y-272519D01*
X19190790Y-272519D01*
X19177709Y-235137D01*
X19086771Y-90411D01*
X18965909Y30451D01*
X18965908Y30452D01*
X18821183Y121389D01*
X18659849Y177843D01*
X18659844Y177844D01*
X18490004Y196979D01*
X18489996Y196979D01*
X18320151Y177843D01*
X18320150Y177843D01*
X18263709Y158094D01*
X18243800Y152935D01*
X18225859Y149846D01*
X18225852Y149845D01*
X18225851Y149844D01*
X18225847Y149843D01*
X18225848Y149843D01*
X18028209Y85826D01*
X17958366Y83895D01*
X17951788Y85826D01*
X17754146Y149845D01*
X17721808Y159161D01*
X17716465Y160203D01*
X17716540Y160590D01*
X17695933Y165217D01*
X17667546Y175149D01*
X17659850Y177842D01*
X17659848Y177843D01*
X17659843Y177844D01*
X17490004Y196979D01*
X17489996Y196979D01*
X17320155Y177844D01*
X17320150Y177843D01*
X17158816Y121389D01*
X17014091Y30452D01*
X16893228Y-90411D01*
X16802291Y-235136D01*
X16745837Y-396470D01*
X16745836Y-396475D01*
X16726701Y-566316D01*
X16726701Y-566323D01*
X15760289Y-566323D01*
X15820971Y-480357D01*
X15860150Y-370116D01*
X15869345Y-344245D01*
X15869345Y-344243D01*
X15869346Y-344241D01*
X15879204Y-200121D01*
X15849814Y-58686D01*
X15783354Y69575D01*
X15783351Y69578D01*
X15783350Y69580D01*
X15684754Y175150D01*
X15561330Y250205D01*
X15561329Y250206D01*
X15561328Y250206D01*
X15422228Y289180D01*
X15314051Y289180D01*
X15314050Y289180D01*
X15206889Y274451D01*
X15074389Y216899D01*
X15074388Y216898D01*
X15024239Y176098D01*
X14959813Y149060D01*
X14890996Y161145D01*
X14839638Y208517D01*
X14837565Y212108D01*
X14739994Y387896D01*
X14739994Y387897D01*
X14607521Y542211D01*
X14607520Y542212D01*
X14446695Y666699D01*
X14264093Y756269D01*
X14165000Y781927D01*
X14165000Y29791D01*
X14140543Y69290D01*
X14051038Y136881D01*
X13943160Y167575D01*
X13831479Y157226D01*
X13731078Y107232D01*
X13665000Y34750D01*
X13665000Y787047D01*
X13663053Y786749D01*
X13663047Y786747D01*
X13472342Y716118D01*
X13472335Y716115D01*
X13299732Y608531D01*
X13152331Y468416D01*
X13152330Y468414D01*
X13036143Y301485D01*
X12955940Y114588D01*
X12915000Y-84629D01*
X12915000Y-486320D01*
X13615000Y-486320D01*
X13615000Y-986320D01*
X12915000Y-986320D01*
X12915000Y-1337033D01*
X8350000Y-1337033D01*
X8350000Y-89399D01*
X8352383Y-65205D01*
X8355408Y-50000D01*
X8352883Y-37306D01*
X8350500Y-13114D01*
X8350500Y2153259D01*
X8350598Y2156736D01*
X8359714Y2319076D01*
X8367593Y2459379D01*
X8368369Y2466268D01*
X8418852Y2763385D01*
X8420400Y2770168D01*
X8421281Y2773226D01*
X8476148Y2963677D01*
X9176751Y2963677D01*
X9183807Y2887522D01*
X9184001Y2884753D01*
X9187791Y2805210D01*
X9187792Y2805205D01*
X9191555Y2789694D01*
X9194521Y2771906D01*
X9195706Y2759121D01*
X9217541Y2682375D01*
X9218152Y2680059D01*
X9237701Y2599479D01*
X9237702Y2599474D01*
X9242891Y2588112D01*
X9249359Y2570546D01*
X9251922Y2561539D01*
X9251928Y2561522D01*
X9288940Y2487193D01*
X9289838Y2485313D01*
X9325641Y2406915D01*
X9325647Y2406904D01*
X9330879Y2399557D01*
X9340868Y2382909D01*
X9343497Y2377630D01*
X9381156Y2327762D01*
X9395512Y2308751D01*
X9396526Y2307370D01*
X9448441Y2234465D01*
X9448443Y2234463D01*
X9448444Y2234462D01*
X9448445Y2234461D01*
X9452459Y2230633D01*
X9465837Y2215623D01*
X9467292Y2213697D01*
X9467295Y2213693D01*
X9467298Y2213691D01*
X9467299Y2213689D01*
X9533536Y2153306D01*
X9534530Y2152379D01*
X9572921Y2115774D01*
X9601654Y2088377D01*
X9603398Y2087256D01*
X9614519Y2078710D01*
X9614544Y2078742D01*
X9619119Y2075287D01*
X9698571Y2026092D01*
X9779747Y1973923D01*
X9785000Y1971215D01*
X9784966Y1971151D01*
X9788488Y1969372D01*
X9788650Y1969696D01*
X9793773Y1967146D01*
X9793782Y1967140D01*
X9883782Y1932275D01*
X9972982Y1896564D01*
X9976279Y1895244D01*
X9976517Y1895198D01*
X9981752Y1893951D01*
X9985337Y1892932D01*
X9985345Y1892929D01*
X10083229Y1874632D01*
X10184151Y1855180D01*
X10184156Y1855180D01*
X10392716Y1855180D01*
X10392718Y1855180D01*
X10442132Y1864418D01*
X10447575Y1865186D01*
X10500739Y1870261D01*
X10545668Y1883455D01*
X10551720Y1884904D01*
X10594655Y1892929D01*
X10644560Y1912263D01*
X10649487Y1913937D01*
X10687603Y1925130D01*
X10703862Y1929903D01*
X10708444Y1932265D01*
X10742542Y1949845D01*
X10748550Y1952549D01*
X10786218Y1967140D01*
X10834526Y1997053D01*
X10838748Y1999444D01*
X10892026Y2026909D01*
X10923656Y2051784D01*
X10929336Y2055757D01*
X10960882Y2075288D01*
X11005310Y2115791D01*
X11008721Y2118680D01*
X11058432Y2157772D01*
X11082627Y2185696D01*
X11087708Y2190906D01*
X11089156Y2192226D01*
X11112701Y2213689D01*
X11150893Y2264266D01*
X11153514Y2267503D01*
X11160812Y2275925D01*
X11197065Y2317762D01*
X11213897Y2346919D01*
X11218111Y2353277D01*
X11236503Y2377630D01*
X11266221Y2437314D01*
X11268022Y2440666D01*
X11271852Y2447300D01*
X11302913Y2501098D01*
X11312846Y2529799D01*
X11315925Y2537133D01*
X11328074Y2561528D01*
X11347224Y2628838D01*
X11348248Y2632087D01*
X11372153Y2701153D01*
X11376006Y2727958D01*
X11377738Y2736083D01*
X11384294Y2759121D01*
X11391051Y2832044D01*
X11391416Y2835130D01*
X11391606Y2836450D01*
X11402281Y2910696D01*
X11401149Y2934444D01*
X11401342Y2943116D01*
X11403249Y2963680D01*
X11396191Y3039841D01*
X11395996Y3042613D01*
X11395585Y3051233D01*
X11392208Y3122154D01*
X11388441Y3137678D01*
X11385478Y3155451D01*
X11384294Y3168239D01*
X11362449Y3245014D01*
X11361843Y3247316D01*
X11361523Y3248636D01*
X11342298Y3327884D01*
X11337107Y3339250D01*
X11330636Y3356827D01*
X11328076Y3365824D01*
X11328074Y3365832D01*
X11291043Y3440198D01*
X11290149Y3442073D01*
X11254355Y3520453D01*
X11249121Y3527803D01*
X11239129Y3544456D01*
X11236503Y3549730D01*
X11232930Y3554461D01*
X11184487Y3618610D01*
X11183460Y3620010D01*
X11131558Y3692896D01*
X11131554Y3692900D01*
X11127546Y3696722D01*
X11114153Y3711749D01*
X11112708Y3713662D01*
X11112704Y3713667D01*
X11112701Y3713671D01*
X11046418Y3774095D01*
X11045468Y3774982D01*
X11044574Y3775834D01*
X10978346Y3838983D01*
X10978343Y3838986D01*
X10976601Y3840105D01*
X10965480Y3848651D01*
X10965456Y3848618D01*
X10960877Y3852076D01*
X10881442Y3901260D01*
X10800258Y3953434D01*
X10794999Y3956145D01*
X10795032Y3956210D01*
X10791512Y3957988D01*
X10791351Y3957664D01*
X10786222Y3960218D01*
X10786218Y3960220D01*
X10782805Y3961542D01*
X10696235Y3995079D01*
X10603722Y4032116D01*
X10603714Y4032118D01*
X10603470Y4032165D01*
X10598257Y4033407D01*
X10594658Y4034431D01*
X10496677Y4052747D01*
X10395850Y4072180D01*
X10395849Y4072180D01*
X10392718Y4072180D01*
X10187282Y4072180D01*
X10187276Y4072180D01*
X10137885Y4062948D01*
X10132386Y4062173D01*
X10079265Y4057100D01*
X10079261Y4057100D01*
X10079261Y4057099D01*
X10068407Y4053912D01*
X10034348Y4043912D01*
X10028271Y4042456D01*
X9985351Y4034433D01*
X9985338Y4034430D01*
X9935438Y4015098D01*
X9930509Y4013423D01*
X9876140Y3997458D01*
X9837459Y3977518D01*
X9831445Y3974812D01*
X9793781Y3960220D01*
X9793780Y3960220D01*
X9745474Y3930310D01*
X9741245Y3927916D01*
X9687977Y3900454D01*
X9656354Y3875586D01*
X9650665Y3871607D01*
X9619116Y3852071D01*
X9574708Y3811589D01*
X9571266Y3808674D01*
X9521565Y3769587D01*
X9497377Y3741674D01*
X9492290Y3736456D01*
X9467301Y3713674D01*
X9429111Y3663104D01*
X9426491Y3659867D01*
X9382936Y3609601D01*
X9366104Y3580447D01*
X9361884Y3574079D01*
X9343496Y3549729D01*
X9343491Y3549720D01*
X9313781Y3490058D01*
X9311976Y3486695D01*
X9277088Y3426265D01*
X9267158Y3397577D01*
X9264067Y3390217D01*
X9251928Y3365838D01*
X9251923Y3365824D01*
X9232782Y3298552D01*
X9231739Y3295243D01*
X9207846Y3226205D01*
X9203994Y3199422D01*
X9202258Y3191276D01*
X9195706Y3168243D01*
X9188949Y3095329D01*
X9188582Y3092227D01*
X9177719Y3016670D01*
X9177719Y3016665D01*
X9178849Y2992911D01*
X9178655Y2984235D01*
X9176874Y2965000D01*
X9176751Y2963677D01*
X8476148Y2963677D01*
X8503830Y3059763D01*
X8506123Y3066315D01*
X8621459Y3344762D01*
X8624462Y3350997D01*
X8770248Y3614777D01*
X8773944Y3620658D01*
X8930586Y3841425D01*
X8948337Y3866442D01*
X8952669Y3871876D01*
X9153490Y4096595D01*
X9158408Y4101512D01*
X9383124Y4302331D01*
X9388558Y4306663D01*
X9522197Y4401485D01*
X9634342Y4481056D01*
X9640223Y4484752D01*
X9904003Y4630538D01*
X9910238Y4633541D01*
X10188685Y4748877D01*
X10195237Y4751170D01*
X10484836Y4834601D01*
X10491616Y4836148D01*
X10788732Y4886631D01*
X10795621Y4887407D01*
X10954630Y4896337D01*
X11098265Y4904402D01*
X11101742Y4904500D01*
X11144170Y4904500D01*
X13195465Y4904500D01*
X13262504Y4884815D01*
G37*
%TD.AperFunction*%
%TA.AperFunction,Conductor*%
G36*
X25522094Y-7998221D02*
G01*
X25563805Y-8054274D01*
X25571500Y-8097275D01*
X25571500Y-8133654D01*
X25578011Y-8194202D01*
X25578011Y-8194204D01*
X25620357Y-8307735D01*
X25629111Y-8331204D01*
X25716739Y-8448261D01*
X25833796Y-8535889D01*
X25885737Y-8555262D01*
X25951595Y-8579827D01*
X26007528Y-8621699D01*
X26031944Y-8687163D01*
X26017092Y-8755436D01*
X25999490Y-8779991D01*
X25854279Y-8937730D01*
X25854276Y-8937734D01*
X25731140Y-9126207D01*
X25640703Y-9332385D01*
X25585436Y-9550628D01*
X25585434Y-9550640D01*
X25566844Y-9774994D01*
X25566844Y-9775005D01*
X25585434Y-9999359D01*
X25585436Y-9999371D01*
X25640703Y-10217614D01*
X25731140Y-10423792D01*
X25854276Y-10612265D01*
X25854284Y-10612276D01*
X26006756Y-10777902D01*
X26006761Y-10777907D01*
X26065981Y-10824000D01*
X26184424Y-10916189D01*
X26184429Y-10916191D01*
X26184431Y-10916193D01*
X26220930Y-10935946D01*
X26270520Y-10985165D01*
X26285628Y-11053382D01*
X26261457Y-11118937D01*
X26220930Y-11154054D01*
X26184431Y-11173806D01*
X26184422Y-11173812D01*
X26006761Y-11312092D01*
X26006756Y-11312097D01*
X25854284Y-11477723D01*
X25854276Y-11477734D01*
X25731140Y-11666207D01*
X25640703Y-11872385D01*
X25585436Y-12090628D01*
X25585434Y-12090640D01*
X25566844Y-12314994D01*
X25566844Y-12315005D01*
X25585434Y-12539359D01*
X25585436Y-12539371D01*
X25640703Y-12757614D01*
X25731140Y-12963792D01*
X25854276Y-13152265D01*
X25854284Y-13152276D01*
X26006756Y-13317902D01*
X26006761Y-13317907D01*
X26061890Y-13360816D01*
X26184424Y-13456189D01*
X26184429Y-13456191D01*
X26184431Y-13456193D01*
X26220930Y-13475946D01*
X26270520Y-13525165D01*
X26285628Y-13593382D01*
X26261457Y-13658937D01*
X26220930Y-13694054D01*
X26184431Y-13713806D01*
X26184422Y-13713812D01*
X26006761Y-13852092D01*
X26006756Y-13852097D01*
X25854284Y-14017723D01*
X25854276Y-14017734D01*
X25731140Y-14206207D01*
X25640703Y-14412385D01*
X25585436Y-14630628D01*
X25585434Y-14630640D01*
X25566844Y-14854994D01*
X25566844Y-14854999D01*
X25567487Y-14862763D01*
X25553403Y-14931199D01*
X25504556Y-14981156D01*
X25436455Y-14996775D01*
X25370720Y-14973095D01*
X25356229Y-14960680D01*
X23688354Y-13292805D01*
X23683001Y-13286702D01*
X23680216Y-13283073D01*
X23660987Y-13258013D01*
X23660985Y-13258011D01*
X23660984Y-13258010D01*
X23637052Y-13239647D01*
X23629074Y-13233525D01*
X23629072Y-13233523D01*
X23577426Y-13193893D01*
X23533877Y-13160476D01*
X23533873Y-13160474D01*
X23385851Y-13099161D01*
X23368711Y-13096905D01*
X23366456Y-13096608D01*
X23366455Y-13096607D01*
X23264704Y-13083212D01*
X23264678Y-13083210D01*
X23227001Y-13078250D01*
X23226999Y-13078250D01*
X23216527Y-13079628D01*
X23191151Y-13082969D01*
X23183054Y-13083500D01*
X21936112Y-13083500D01*
X21897901Y-13077466D01*
X21763654Y-13033981D01*
X21584149Y-12975836D01*
X21578554Y-12974224D01*
X21551808Y-12966519D01*
X21546465Y-12965477D01*
X21546540Y-12965090D01*
X21525933Y-12960463D01*
X21505515Y-12953319D01*
X21489850Y-12947838D01*
X21489848Y-12947837D01*
X21489843Y-12947836D01*
X21320004Y-12928701D01*
X21319996Y-12928701D01*
X21150155Y-12947836D01*
X21150150Y-12947837D01*
X20988816Y-13004291D01*
X20844091Y-13095228D01*
X20723228Y-13216091D01*
X20632291Y-13360816D01*
X20575837Y-13522150D01*
X20575836Y-13522155D01*
X20556701Y-13691996D01*
X20556701Y-13692003D01*
X20575836Y-13861844D01*
X20575837Y-13861849D01*
X20632291Y-14023183D01*
X20723228Y-14167908D01*
X20844092Y-14288772D01*
X20844095Y-14288774D01*
X20878374Y-14310313D01*
X20924666Y-14362647D01*
X20935315Y-14431700D01*
X20929445Y-14456260D01*
X20915837Y-14495150D01*
X20915837Y-14495151D01*
X20896701Y-14664996D01*
X20896701Y-14665003D01*
X20915836Y-14834844D01*
X20915837Y-14834849D01*
X20948992Y-14929599D01*
X20972291Y-14996183D01*
X21063229Y-15140909D01*
X21184091Y-15261771D01*
X21328817Y-15352709D01*
X21328821Y-15352710D01*
X21330747Y-15353638D01*
X21335221Y-15355553D01*
X21340376Y-15358185D01*
X21340377Y-15358186D01*
X21634097Y-15508178D01*
X21665381Y-15530930D01*
X25184420Y-19049969D01*
X25214329Y-19098297D01*
X25634458Y-20353660D01*
X25635766Y-20358118D01*
X25640702Y-20377611D01*
X25640703Y-20377614D01*
X25647051Y-20392089D01*
X25649066Y-20397312D01*
X25654824Y-20414515D01*
X25655164Y-20415529D01*
X25658095Y-20423812D01*
X25659668Y-20428027D01*
X25659911Y-20428677D01*
X25659916Y-20428689D01*
X25690045Y-20494746D01*
X25693422Y-20500448D01*
X25692797Y-20500817D01*
X25700684Y-20514359D01*
X25731140Y-20583792D01*
X25854276Y-20772265D01*
X25854284Y-20772276D01*
X26006756Y-20937902D01*
X26006760Y-20937906D01*
X26184424Y-21076189D01*
X26184425Y-21076189D01*
X26184427Y-21076191D01*
X26210990Y-21090566D01*
X26382426Y-21183342D01*
X26595365Y-21256444D01*
X26817431Y-21293500D01*
X27042569Y-21293500D01*
X27264635Y-21256444D01*
X27477574Y-21183342D01*
X27675576Y-21076189D01*
X27853240Y-20937906D01*
X27934270Y-20849884D01*
X27994158Y-20813893D01*
X28063996Y-20815994D01*
X28121612Y-20855518D01*
X28148713Y-20919918D01*
X28149500Y-20933867D01*
X28149500Y-25503258D01*
X28149402Y-25506735D01*
X28132407Y-25809367D01*
X28131628Y-25816281D01*
X28081147Y-26113383D01*
X28079599Y-26120167D01*
X27996170Y-26409756D01*
X27993872Y-26416323D01*
X27878548Y-26694742D01*
X27875529Y-26701011D01*
X27729753Y-26964771D01*
X27726051Y-26970663D01*
X27551662Y-27216441D01*
X27547324Y-27221882D01*
X27346511Y-27446591D01*
X27341591Y-27451511D01*
X27116882Y-27652324D01*
X27111441Y-27656662D01*
X26865663Y-27831051D01*
X26859771Y-27834753D01*
X26596011Y-27980529D01*
X26589742Y-27983548D01*
X26311323Y-28098872D01*
X26304756Y-28101170D01*
X26015167Y-28184599D01*
X26008383Y-28186147D01*
X25711281Y-28236628D01*
X25704367Y-28237407D01*
X25401735Y-28254402D01*
X25398258Y-28254500D01*
X24461217Y-28254500D01*
X24394178Y-28234815D01*
X24348423Y-28182011D01*
X24338479Y-28112853D01*
X24367504Y-28049297D01*
X24369988Y-28046516D01*
X24410722Y-28002268D01*
X24533860Y-27813791D01*
X24624296Y-27607616D01*
X24679564Y-27389368D01*
X24679565Y-27389359D01*
X24698156Y-27165005D01*
X24698156Y-27164994D01*
X24679565Y-26940640D01*
X24679563Y-26940628D01*
X24663799Y-26878377D01*
X24624296Y-26722384D01*
X24533860Y-26516209D01*
X24533032Y-26514942D01*
X24459604Y-26402552D01*
X24410722Y-26327732D01*
X24410719Y-26327729D01*
X24410715Y-26327723D01*
X24391015Y-26306323D01*
X25096751Y-26306323D01*
X25103807Y-26382478D01*
X25104001Y-26385247D01*
X25107791Y-26464790D01*
X25107792Y-26464795D01*
X25111555Y-26480306D01*
X25114521Y-26498094D01*
X25115706Y-26510879D01*
X25137541Y-26587625D01*
X25138152Y-26589941D01*
X25157701Y-26670521D01*
X25157702Y-26670526D01*
X25162891Y-26681888D01*
X25169359Y-26699454D01*
X25171922Y-26708461D01*
X25171928Y-26708478D01*
X25208940Y-26782807D01*
X25209838Y-26784687D01*
X25245641Y-26863085D01*
X25245647Y-26863096D01*
X25250879Y-26870443D01*
X25260868Y-26887091D01*
X25263497Y-26892370D01*
X25288437Y-26925396D01*
X25315512Y-26961249D01*
X25316526Y-26962630D01*
X25368441Y-27035535D01*
X25368443Y-27035537D01*
X25368444Y-27035538D01*
X25368445Y-27035539D01*
X25372459Y-27039367D01*
X25385837Y-27054377D01*
X25387292Y-27056303D01*
X25387295Y-27056307D01*
X25387298Y-27056309D01*
X25387299Y-27056311D01*
X25453536Y-27116694D01*
X25454530Y-27117621D01*
X25492921Y-27154226D01*
X25521654Y-27181623D01*
X25523398Y-27182744D01*
X25534519Y-27191290D01*
X25534544Y-27191258D01*
X25539119Y-27194713D01*
X25618571Y-27243908D01*
X25699747Y-27296077D01*
X25705000Y-27298785D01*
X25704966Y-27298849D01*
X25708488Y-27300628D01*
X25708650Y-27300304D01*
X25713773Y-27302854D01*
X25713782Y-27302860D01*
X25803782Y-27337725D01*
X25878752Y-27367739D01*
X25896279Y-27374756D01*
X25896517Y-27374802D01*
X25901752Y-27376049D01*
X25905337Y-27377068D01*
X25905345Y-27377071D01*
X26003229Y-27395368D01*
X26104151Y-27414820D01*
X26104156Y-27414820D01*
X26312716Y-27414820D01*
X26312718Y-27414820D01*
X26362132Y-27405582D01*
X26367575Y-27404814D01*
X26420739Y-27399739D01*
X26465668Y-27386545D01*
X26471720Y-27385096D01*
X26514655Y-27377071D01*
X26564560Y-27357737D01*
X26569487Y-27356063D01*
X26615640Y-27342511D01*
X26623862Y-27340097D01*
X26628444Y-27337735D01*
X26662542Y-27320155D01*
X26668550Y-27317451D01*
X26706218Y-27302860D01*
X26754526Y-27272947D01*
X26758748Y-27270556D01*
X26812026Y-27243091D01*
X26843656Y-27218216D01*
X26849336Y-27214243D01*
X26880882Y-27194712D01*
X26925310Y-27154209D01*
X26928721Y-27151320D01*
X26978432Y-27112228D01*
X27002627Y-27084304D01*
X27007708Y-27079094D01*
X27012209Y-27074991D01*
X27032701Y-27056311D01*
X27070893Y-27005734D01*
X27073514Y-27002497D01*
X27117065Y-26952238D01*
X27133897Y-26923081D01*
X27138111Y-26916723D01*
X27156503Y-26892370D01*
X27186221Y-26832686D01*
X27188022Y-26829334D01*
X27203014Y-26803367D01*
X27222913Y-26768902D01*
X27232846Y-26740201D01*
X27235925Y-26732867D01*
X27248074Y-26708472D01*
X27267224Y-26641162D01*
X27268248Y-26637913D01*
X27292153Y-26568847D01*
X27296006Y-26542042D01*
X27297738Y-26533917D01*
X27304294Y-26510879D01*
X27311051Y-26437956D01*
X27311416Y-26434870D01*
X27317311Y-26393872D01*
X27322281Y-26359304D01*
X27321149Y-26335556D01*
X27321342Y-26326884D01*
X27323249Y-26306320D01*
X27316190Y-26230145D01*
X27315996Y-26227382D01*
X27315888Y-26225124D01*
X27312208Y-26147846D01*
X27308441Y-26132322D01*
X27305478Y-26114549D01*
X27304294Y-26101761D01*
X27282449Y-26024986D01*
X27281843Y-26022684D01*
X27279782Y-26014188D01*
X27262298Y-25942116D01*
X27257107Y-25930750D01*
X27250636Y-25913173D01*
X27248076Y-25904176D01*
X27248074Y-25904168D01*
X27211043Y-25829802D01*
X27210149Y-25827927D01*
X27192199Y-25788622D01*
X27174356Y-25749549D01*
X27170591Y-25744262D01*
X27169121Y-25742197D01*
X27159129Y-25725544D01*
X27156503Y-25720270D01*
X27139861Y-25698233D01*
X27104487Y-25651390D01*
X27103460Y-25649990D01*
X27057175Y-25584992D01*
X27051559Y-25577105D01*
X27051377Y-25576931D01*
X27047546Y-25573278D01*
X27034153Y-25558251D01*
X27032708Y-25556338D01*
X27032704Y-25556333D01*
X27032701Y-25556329D01*
X26966418Y-25495905D01*
X26965468Y-25495018D01*
X26898343Y-25431014D01*
X26896601Y-25429895D01*
X26885480Y-25421349D01*
X26885456Y-25421382D01*
X26880877Y-25417924D01*
X26801442Y-25368740D01*
X26720258Y-25316566D01*
X26714999Y-25313855D01*
X26715032Y-25313790D01*
X26711512Y-25312012D01*
X26711351Y-25312336D01*
X26706222Y-25309782D01*
X26706218Y-25309780D01*
X26694364Y-25305188D01*
X26616235Y-25274921D01*
X26523722Y-25237884D01*
X26523714Y-25237882D01*
X26523470Y-25237835D01*
X26518257Y-25236593D01*
X26514658Y-25235569D01*
X26416677Y-25217253D01*
X26315850Y-25197820D01*
X26315849Y-25197820D01*
X26312718Y-25197820D01*
X26107282Y-25197820D01*
X26107276Y-25197820D01*
X26057885Y-25207052D01*
X26052386Y-25207827D01*
X25999265Y-25212900D01*
X25999261Y-25212900D01*
X25999261Y-25212901D01*
X25984439Y-25217253D01*
X25954348Y-25226088D01*
X25948271Y-25227544D01*
X25905351Y-25235567D01*
X25905338Y-25235570D01*
X25855438Y-25254902D01*
X25850509Y-25256577D01*
X25796140Y-25272542D01*
X25757459Y-25292482D01*
X25751445Y-25295188D01*
X25713781Y-25309780D01*
X25713780Y-25309780D01*
X25665474Y-25339690D01*
X25661245Y-25342084D01*
X25607977Y-25369546D01*
X25576354Y-25394414D01*
X25570665Y-25398393D01*
X25539116Y-25417929D01*
X25494708Y-25458411D01*
X25491266Y-25461326D01*
X25441565Y-25500413D01*
X25417377Y-25528326D01*
X25412290Y-25533544D01*
X25387301Y-25556326D01*
X25349111Y-25606896D01*
X25346491Y-25610133D01*
X25302936Y-25660399D01*
X25286104Y-25689553D01*
X25281884Y-25695921D01*
X25263496Y-25720271D01*
X25263491Y-25720280D01*
X25233781Y-25779942D01*
X25231976Y-25783305D01*
X25197088Y-25843735D01*
X25187158Y-25872423D01*
X25184067Y-25879783D01*
X25171928Y-25904162D01*
X25171923Y-25904176D01*
X25152782Y-25971448D01*
X25151739Y-25974757D01*
X25127846Y-26043795D01*
X25123994Y-26070578D01*
X25122258Y-26078724D01*
X25115706Y-26101757D01*
X25108949Y-26174671D01*
X25108582Y-26177773D01*
X25097719Y-26253330D01*
X25097719Y-26253335D01*
X25098849Y-26277089D01*
X25098655Y-26285765D01*
X25096751Y-26306323D01*
X24391015Y-26306323D01*
X24258243Y-26162097D01*
X24258238Y-26162092D01*
X24117403Y-26052475D01*
X24080576Y-26023811D01*
X24080575Y-26023810D01*
X24080572Y-26023808D01*
X23882580Y-25916661D01*
X23882577Y-25916659D01*
X23882574Y-25916658D01*
X23882571Y-25916657D01*
X23882569Y-25916656D01*
X23669637Y-25843556D01*
X23447569Y-25806500D01*
X23222431Y-25806500D01*
X23000362Y-25843556D01*
X22787430Y-25916656D01*
X22787419Y-25916661D01*
X22589427Y-26023808D01*
X22589422Y-26023812D01*
X22411761Y-26162092D01*
X22411756Y-26162097D01*
X22259284Y-26327723D01*
X22259276Y-26327734D01*
X22168808Y-26466206D01*
X22115662Y-26511562D01*
X22046431Y-26520986D01*
X21983095Y-26491484D01*
X21961192Y-26466206D01*
X21879527Y-26341209D01*
X21870722Y-26327732D01*
X21870719Y-26327729D01*
X21870715Y-26327723D01*
X21718243Y-26162097D01*
X21718238Y-26162092D01*
X21577403Y-26052475D01*
X21540576Y-26023811D01*
X21540575Y-26023810D01*
X21540572Y-26023808D01*
X21342580Y-25916661D01*
X21342577Y-25916659D01*
X21342574Y-25916658D01*
X21342571Y-25916657D01*
X21342569Y-25916656D01*
X21129637Y-25843556D01*
X20907569Y-25806500D01*
X20682431Y-25806500D01*
X20460362Y-25843556D01*
X20247430Y-25916656D01*
X20247419Y-25916661D01*
X20049427Y-26023808D01*
X20049422Y-26023812D01*
X19871761Y-26162092D01*
X19871756Y-26162097D01*
X19719284Y-26327723D01*
X19719276Y-26327734D01*
X19625251Y-26471650D01*
X19572105Y-26517007D01*
X19502873Y-26526430D01*
X19439538Y-26496928D01*
X19419868Y-26474951D01*
X19293113Y-26293926D01*
X19293108Y-26293920D01*
X19126082Y-26126894D01*
X18932578Y-25991399D01*
X18718492Y-25891570D01*
X18718486Y-25891567D01*
X18505000Y-25834364D01*
X18505000Y-26729498D01*
X18397315Y-26680320D01*
X18290763Y-26665000D01*
X18219237Y-26665000D01*
X18112685Y-26680320D01*
X18005000Y-26729498D01*
X18005000Y-25834364D01*
X18004999Y-25834364D01*
X17791513Y-25891567D01*
X17791507Y-25891570D01*
X17577422Y-25991399D01*
X17577420Y-25991400D01*
X17383926Y-26126886D01*
X17383920Y-26126891D01*
X17216891Y-26293920D01*
X17216890Y-26293922D01*
X17097712Y-26464125D01*
X17043135Y-26507750D01*
X16973636Y-26514942D01*
X16911282Y-26483420D01*
X16883576Y-26445021D01*
X16537396Y-25695921D01*
X16384938Y-25366016D01*
X16373500Y-25313998D01*
X16373500Y-18503113D01*
X16377619Y-18471419D01*
X16381356Y-18457284D01*
X16417522Y-18397503D01*
X16465060Y-18370373D01*
X16465578Y-18370215D01*
X16501755Y-18364820D01*
X20997183Y-18364820D01*
X21019234Y-18366796D01*
X21382537Y-18432452D01*
X21401439Y-18437434D01*
X21406069Y-18439054D01*
X21410150Y-18440482D01*
X21452805Y-18445287D01*
X21456825Y-18445877D01*
X21485960Y-18451143D01*
X21508125Y-18454159D01*
X21521297Y-18455370D01*
X21537610Y-18455276D01*
X21544907Y-18455664D01*
X21572176Y-18458737D01*
X21579999Y-18459619D01*
X21580000Y-18459619D01*
X21580003Y-18459619D01*
X21749844Y-18440483D01*
X21749847Y-18440482D01*
X21749850Y-18440482D01*
X21911183Y-18384029D01*
X22055909Y-18293091D01*
X22176771Y-18172229D01*
X22267709Y-18027503D01*
X22324162Y-17866170D01*
X22327130Y-17839828D01*
X22343299Y-17696323D01*
X22343299Y-17696316D01*
X22324163Y-17526475D01*
X22324162Y-17526470D01*
X22303812Y-17468314D01*
X22267709Y-17365137D01*
X22176771Y-17220411D01*
X22055909Y-17099549D01*
X22055908Y-17099548D01*
X21911183Y-17008611D01*
X21749849Y-16952157D01*
X21749844Y-16952156D01*
X21580004Y-16933021D01*
X21579996Y-16933021D01*
X21410152Y-16952157D01*
X21385143Y-16960908D01*
X21362839Y-16966455D01*
X21361509Y-16966657D01*
X21016047Y-17044767D01*
X20988701Y-17047820D01*
X16501756Y-17047820D01*
X16465442Y-17042383D01*
X16456987Y-17039793D01*
X16443044Y-17035523D01*
X16384709Y-16997068D01*
X16360794Y-16953269D01*
X16353933Y-16930867D01*
X16348500Y-16894561D01*
X16348500Y-10298077D01*
X16353934Y-10261770D01*
X16360794Y-10239368D01*
X16399244Y-10181033D01*
X16443052Y-10157112D01*
X16451016Y-10154674D01*
X16465451Y-10150254D01*
X16501756Y-10144820D01*
X22943609Y-10144820D01*
X22959746Y-10146601D01*
X22959768Y-10146374D01*
X22967535Y-10147108D01*
X22967536Y-10147107D01*
X22967537Y-10147108D01*
X22974239Y-10146897D01*
X23039375Y-10144851D01*
X23041322Y-10144820D01*
X23071427Y-10144820D01*
X23071432Y-10144820D01*
X23078822Y-10143886D01*
X23084651Y-10143427D01*
X23133831Y-10141882D01*
X23154583Y-10135852D01*
X23173621Y-10131910D01*
X23195064Y-10129202D01*
X23240834Y-10111080D01*
X23246348Y-10109193D01*
X23272875Y-10101485D01*
X23293600Y-10095465D01*
X23312196Y-10084466D01*
X23329664Y-10075909D01*
X23349756Y-10067955D01*
X23389582Y-10039018D01*
X23394441Y-10035826D01*
X23436807Y-10010773D01*
X23452090Y-9995488D01*
X23466873Y-9982862D01*
X23484357Y-9970161D01*
X23515731Y-9932234D01*
X23519645Y-9927933D01*
X25124543Y-8323035D01*
X25137214Y-8312886D01*
X25137068Y-8312709D01*
X25143074Y-8307739D01*
X25143080Y-8307736D01*
X25192339Y-8255279D01*
X25193611Y-8253967D01*
X25214927Y-8232653D01*
X25219495Y-8226762D01*
X25223282Y-8222328D01*
X25256972Y-8186453D01*
X25267380Y-8167520D01*
X25278059Y-8151262D01*
X25291304Y-8134188D01*
X25310852Y-8089011D01*
X25313409Y-8083792D01*
X25337124Y-8040657D01*
X25337125Y-8040652D01*
X25338838Y-8037537D01*
X25388385Y-7988273D01*
X25456700Y-7973617D01*
X25522094Y-7998221D01*
G37*
%TD.AperFunction*%
%TA.AperFunction,Conductor*%
G36*
X-2884431Y-20272492D02*
G01*
X-2828497Y-20314363D01*
X-2804080Y-20379828D01*
X-2810174Y-20428027D01*
X-2834411Y-20500448D01*
X-2940013Y-20815994D01*
X-2969189Y-20903173D01*
X-3009132Y-20960500D01*
X-3073727Y-20987131D01*
X-3086779Y-20987820D01*
X-3402909Y-20987820D01*
X-3469948Y-20968135D01*
X-3515703Y-20915331D01*
X-3525647Y-20846173D01*
X-3496622Y-20782617D01*
X-3490590Y-20776139D01*
X-3298242Y-20583791D01*
X-3015445Y-20300992D01*
X-2954122Y-20267508D01*
X-2884431Y-20272492D01*
G37*
%TD.AperFunction*%
%TA.AperFunction,Conductor*%
G36*
X-2884431Y-17732492D02*
G01*
X-2828498Y-17774364D01*
X-2804081Y-17839828D01*
X-2810175Y-17888027D01*
X-3045673Y-18591703D01*
X-3075582Y-18640031D01*
X-4887050Y-20451501D01*
X-4948373Y-20484986D01*
X-4974731Y-20487820D01*
X-5442909Y-20487820D01*
X-5509948Y-20468135D01*
X-5555703Y-20415331D01*
X-5565647Y-20346173D01*
X-5536622Y-20282617D01*
X-5530590Y-20276139D01*
X-4910658Y-19656207D01*
X-3015444Y-17760991D01*
X-2954123Y-17727508D01*
X-2884431Y-17732492D01*
G37*
%TD.AperFunction*%
%TA.AperFunction,Conductor*%
G36*
X-2884431Y-15192492D02*
G01*
X-2828498Y-15234364D01*
X-2804081Y-15299828D01*
X-2810175Y-15348027D01*
X-3045673Y-16051703D01*
X-3075582Y-16100031D01*
X-6927050Y-19951501D01*
X-6988373Y-19984986D01*
X-7014731Y-19987820D01*
X-7482909Y-19987820D01*
X-7549948Y-19968135D01*
X-7595703Y-19915331D01*
X-7605647Y-19846173D01*
X-7576622Y-19782617D01*
X-7570590Y-19776139D01*
X-6434482Y-18640031D01*
X-3015444Y-15220991D01*
X-2954123Y-15187508D01*
X-2884431Y-15192492D01*
G37*
%TD.AperFunction*%
%TA.AperFunction,Conductor*%
G36*
X-9266297Y-16421153D02*
G01*
X-9230458Y-16473912D01*
X-9197710Y-16567502D01*
X-9153468Y-16637911D01*
X-9106771Y-16712229D01*
X-8985909Y-16833091D01*
X-8841183Y-16924029D01*
X-8704853Y-16971733D01*
X-8679850Y-16980482D01*
X-8679845Y-16980483D01*
X-8510004Y-16999619D01*
X-8510000Y-16999619D01*
X-8509996Y-16999619D01*
X-8340154Y-16980483D01*
X-8340152Y-16980482D01*
X-8340150Y-16980482D01*
X-8315141Y-16971730D01*
X-8306835Y-16969457D01*
X-8304116Y-16968912D01*
X-8304108Y-16968912D01*
X-7946178Y-16897233D01*
X-7921830Y-16894820D01*
X-6709732Y-16894820D01*
X-6642693Y-16914505D01*
X-6596938Y-16967309D01*
X-6586994Y-17036467D01*
X-6616019Y-17100023D01*
X-6622051Y-17106501D01*
X-8987050Y-19471501D01*
X-9048373Y-19504986D01*
X-9074731Y-19507820D01*
X-9157066Y-19507820D01*
X-9224105Y-19488135D01*
X-9269860Y-19435331D01*
X-9280386Y-19396787D01*
X-9285635Y-19346845D01*
X-9311798Y-19266323D01*
X-9316392Y-19247071D01*
X-9318756Y-19231882D01*
X-9318757Y-19231873D01*
X-9466064Y-18750874D01*
X-9471500Y-18714563D01*
X-9471500Y-16514866D01*
X-9451815Y-16447827D01*
X-9399011Y-16402072D01*
X-9329853Y-16392128D01*
X-9266297Y-16421153D01*
G37*
%TD.AperFunction*%
%TA.AperFunction,Conductor*%
G36*
X-17181340Y-6714026D02*
G01*
X-17133971Y-6743609D01*
X-12434818Y-11442762D01*
X-12401334Y-11504083D01*
X-12398500Y-11530441D01*
X-12398500Y-16313461D01*
X-12418185Y-16380500D01*
X-12470989Y-16426255D01*
X-12536381Y-16436682D01*
X-12542143Y-16436032D01*
X-12560000Y-16434021D01*
X-12560002Y-16434021D01*
X-12560003Y-16434021D01*
X-12560004Y-16434021D01*
X-12729845Y-16453156D01*
X-12729858Y-16453159D01*
X-12897755Y-16511910D01*
X-12898185Y-16510683D01*
X-12959877Y-16520837D01*
X-12985682Y-16514807D01*
X-13142298Y-16460004D01*
X-13142311Y-16460001D01*
X-13312151Y-16440866D01*
X-13312159Y-16440866D01*
X-13482000Y-16460001D01*
X-13482005Y-16460002D01*
X-13643339Y-16516456D01*
X-13788064Y-16607393D01*
X-13908927Y-16728256D01*
X-13999864Y-16872981D01*
X-14056318Y-17034315D01*
X-14056319Y-17034320D01*
X-14075454Y-17204161D01*
X-14075454Y-17204168D01*
X-14056318Y-17374012D01*
X-14036569Y-17430453D01*
X-14031409Y-17450368D01*
X-14028320Y-17468312D01*
X-14028320Y-17468314D01*
X-13926689Y-17782065D01*
X-13920655Y-17820276D01*
X-13920655Y-18779273D01*
X-13940340Y-18846312D01*
X-13993144Y-18892067D01*
X-14062302Y-18902011D01*
X-14110627Y-18884267D01*
X-14251978Y-18795450D01*
X-14334903Y-18766434D01*
X-14413310Y-18738998D01*
X-14413314Y-18738997D01*
X-14413315Y-18738997D01*
X-14420103Y-18737447D01*
X-14481079Y-18703332D01*
X-14513931Y-18641668D01*
X-14516500Y-18616558D01*
X-14516500Y-10284598D01*
X-14516387Y-10280854D01*
X-14512599Y-10218227D01*
X-14523909Y-10156510D01*
X-14524473Y-10152804D01*
X-14528255Y-10121651D01*
X-14532035Y-10090519D01*
X-14535717Y-10080812D01*
X-14541742Y-10059200D01*
X-14543612Y-10048990D01*
X-14560869Y-10010648D01*
X-14569365Y-9991768D01*
X-14570799Y-9988307D01*
X-14577681Y-9970161D01*
X-14593046Y-9929645D01*
X-14598942Y-9921103D01*
X-14609965Y-9901559D01*
X-14614225Y-9892094D01*
X-14652936Y-9842684D01*
X-14655146Y-9839679D01*
X-14690784Y-9788049D01*
X-14690785Y-9788047D01*
X-14737747Y-9746442D01*
X-14740458Y-9743891D01*
X-17136662Y-7347687D01*
X-17164002Y-7306332D01*
X-17204395Y-7206043D01*
X-17336674Y-6877615D01*
X-17343460Y-6808077D01*
X-17311573Y-6745908D01*
X-17251138Y-6710847D01*
X-17181340Y-6714026D01*
G37*
%TD.AperFunction*%
%TA.AperFunction,Conductor*%
G36*
X22990628Y-14320185D02*
G01*
X23011270Y-14336819D01*
X25184420Y-16509969D01*
X25214329Y-16558297D01*
X25449826Y-17261972D01*
X25452435Y-17331793D01*
X25416882Y-17391940D01*
X25354454Y-17423318D01*
X25284973Y-17415964D01*
X25244555Y-17389006D01*
X22525930Y-14670381D01*
X22503177Y-14639095D01*
X22422390Y-14480895D01*
X22409432Y-14412237D01*
X22435650Y-14347473D01*
X22492720Y-14307164D01*
X22532824Y-14300500D01*
X22923589Y-14300500D01*
X22990628Y-14320185D01*
G37*
%TD.AperFunction*%
%TA.AperFunction,Conductor*%
G36*
X-15127496Y4884815D02*
G01*
X-15081741Y4832011D01*
X-15071797Y4762853D01*
X-15100822Y4699297D01*
X-15109103Y4690626D01*
X-15237669Y4568416D01*
X-15237670Y4568414D01*
X-15353857Y4401485D01*
X-15434060Y4214588D01*
X-15475000Y4015371D01*
X-15475000Y3713680D01*
X-14775000Y3713680D01*
X-14775000Y3213680D01*
X-15475000Y3213680D01*
X-15475000Y2962967D01*
X-15459582Y2811342D01*
X-15398701Y2617299D01*
X-15398696Y2617289D01*
X-15299995Y2439465D01*
X-15299995Y2439464D01*
X-15167522Y2285150D01*
X-15167521Y2285149D01*
X-15006696Y2160662D01*
X-14824093Y2071091D01*
X-14725000Y2045436D01*
X-14725000Y2847570D01*
X-14700543Y2808070D01*
X-14611038Y2740479D01*
X-14503160Y2709785D01*
X-14391479Y2720134D01*
X-14291078Y2770128D01*
X-14225000Y2842611D01*
X-14225000Y2040314D01*
X-14223056Y2040611D01*
X-14223055Y2040611D01*
X-14032340Y2111244D01*
X-14032336Y2111246D01*
X-13859733Y2218830D01*
X-13712332Y2358945D01*
X-13712331Y2358947D01*
X-13596144Y2525876D01*
X-13515941Y2712773D01*
X-13475000Y2911990D01*
X-13475000Y3213680D01*
X-14175000Y3213680D01*
X-14175000Y3713680D01*
X-13475000Y3713680D01*
X-13475000Y3964394D01*
X-13490419Y4116019D01*
X-13551300Y4310062D01*
X-13551305Y4310072D01*
X-13650006Y4487896D01*
X-13650006Y4487897D01*
X-13782479Y4642211D01*
X-13782481Y4642212D01*
X-13834456Y4682444D01*
X-13875420Y4739045D01*
X-13879280Y4808808D01*
X-13844811Y4869584D01*
X-13782956Y4902075D01*
X-13758555Y4904500D01*
X-6544535Y4904500D01*
X-6477496Y4884815D01*
X-6431741Y4832011D01*
X-6421797Y4762853D01*
X-6450822Y4699297D01*
X-6459103Y4690626D01*
X-6587669Y4568416D01*
X-6587670Y4568414D01*
X-6703857Y4401485D01*
X-6784060Y4214588D01*
X-6825000Y4015371D01*
X-6825000Y3713680D01*
X-6125000Y3713680D01*
X-6125000Y3213680D01*
X-6825000Y3213680D01*
X-6825000Y2962967D01*
X-6809582Y2811342D01*
X-6748701Y2617299D01*
X-6748696Y2617289D01*
X-6649995Y2439465D01*
X-6649995Y2439464D01*
X-6517522Y2285150D01*
X-6517521Y2285149D01*
X-6356696Y2160662D01*
X-6174093Y2071091D01*
X-6075000Y2045436D01*
X-6075000Y2847570D01*
X-6050543Y2808070D01*
X-5961038Y2740479D01*
X-5853160Y2709785D01*
X-5741479Y2720134D01*
X-5641078Y2770128D01*
X-5575000Y2842611D01*
X-5575000Y2040314D01*
X-5573056Y2040611D01*
X-5573055Y2040611D01*
X-5382340Y2111244D01*
X-5382336Y2111246D01*
X-5209733Y2218830D01*
X-5062332Y2358945D01*
X-5062331Y2358947D01*
X-4946144Y2525876D01*
X-4865941Y2712773D01*
X-4825000Y2911990D01*
X-4825000Y2964998D01*
X-3303249Y2964998D01*
X-3296193Y2888842D01*
X-3295999Y2886073D01*
X-3292209Y2806530D01*
X-3292208Y2806525D01*
X-3288445Y2791014D01*
X-3285479Y2773226D01*
X-3284885Y2766821D01*
X-3284294Y2760441D01*
X-3262459Y2683695D01*
X-3261848Y2681379D01*
X-3242299Y2600799D01*
X-3242298Y2600794D01*
X-3237109Y2589432D01*
X-3230641Y2571866D01*
X-3228078Y2562859D01*
X-3228072Y2562842D01*
X-3191060Y2488513D01*
X-3190162Y2486633D01*
X-3154359Y2408235D01*
X-3154353Y2408224D01*
X-3149121Y2400877D01*
X-3139132Y2384229D01*
X-3136503Y2378950D01*
X-3097843Y2327756D01*
X-3084488Y2310071D01*
X-3083474Y2308690D01*
X-3031559Y2235785D01*
X-3031557Y2235783D01*
X-3031556Y2235782D01*
X-3031555Y2235781D01*
X-3027541Y2231953D01*
X-3014163Y2216943D01*
X-3012708Y2215017D01*
X-3012705Y2215013D01*
X-3012702Y2215011D01*
X-3012701Y2215009D01*
X-2946464Y2154626D01*
X-2945470Y2153699D01*
X-2907292Y2117297D01*
X-2878346Y2089697D01*
X-2876602Y2088576D01*
X-2865481Y2080030D01*
X-2865456Y2080062D01*
X-2860881Y2076607D01*
X-2781429Y2027412D01*
X-2700253Y1975243D01*
X-2695000Y1972535D01*
X-2695034Y1972471D01*
X-2691512Y1970692D01*
X-2691350Y1971016D01*
X-2686227Y1968466D01*
X-2686218Y1968460D01*
X-2596218Y1933595D01*
X-2503721Y1896565D01*
X-2503721Y1896564D01*
X-2503483Y1896518D01*
X-2498248Y1895271D01*
X-2494663Y1894252D01*
X-2494655Y1894249D01*
X-2396771Y1875952D01*
X-2295849Y1856500D01*
X-2295844Y1856500D01*
X-2087284Y1856500D01*
X-2087282Y1856500D01*
X-2037868Y1865738D01*
X-2032425Y1866506D01*
X-1979261Y1871581D01*
X-1934332Y1884775D01*
X-1928280Y1886224D01*
X-1885345Y1894249D01*
X-1835440Y1913583D01*
X-1830513Y1915257D01*
X-1780634Y1929903D01*
X-1776138Y1931223D01*
X-1774097Y1932275D01*
X-1737458Y1951165D01*
X-1731450Y1953869D01*
X-1693782Y1968460D01*
X-1645474Y1998373D01*
X-1641252Y2000764D01*
X-1587974Y2028229D01*
X-1556344Y2053104D01*
X-1550664Y2057077D01*
X-1519118Y2076608D01*
X-1474690Y2117111D01*
X-1471279Y2120000D01*
X-1421568Y2159092D01*
X-1397373Y2187016D01*
X-1392292Y2192226D01*
X-1388501Y2195682D01*
X-1367299Y2215009D01*
X-1329107Y2265586D01*
X-1326486Y2268823D01*
X-1320332Y2275925D01*
X-1282935Y2319082D01*
X-1266103Y2348239D01*
X-1261889Y2354597D01*
X-1243497Y2378950D01*
X-1213779Y2438634D01*
X-1211978Y2441986D01*
X-1207923Y2449010D01*
X-1177087Y2502418D01*
X-1167154Y2531119D01*
X-1164075Y2538453D01*
X-1151926Y2562848D01*
X-1132776Y2630158D01*
X-1131752Y2633407D01*
X-1107847Y2702473D01*
X-1103994Y2729278D01*
X-1102262Y2737403D01*
X-1095706Y2760441D01*
X-1088949Y2833364D01*
X-1088584Y2836450D01*
X-1081441Y2886128D01*
X-1077719Y2912016D01*
X-1078851Y2935764D01*
X-1078658Y2944436D01*
X-1076751Y2965000D01*
X-1083809Y3041161D01*
X-1084004Y3043933D01*
X-1084352Y3051233D01*
X-1087792Y3123474D01*
X-1091559Y3138998D01*
X-1094522Y3156771D01*
X-1095706Y3169559D01*
X-1117551Y3246334D01*
X-1118157Y3248636D01*
X-1120263Y3257316D01*
X-1137702Y3329204D01*
X-1142893Y3340570D01*
X-1149364Y3358147D01*
X-1149540Y3358765D01*
X-1151926Y3367152D01*
X-1188957Y3441518D01*
X-1189851Y3443393D01*
X-1214193Y3496695D01*
X-1225644Y3521771D01*
X-1230879Y3529123D01*
X-1240871Y3545776D01*
X-1243497Y3551050D01*
X-1261885Y3575399D01*
X-1295513Y3619930D01*
X-1296540Y3621330D01*
X-1348442Y3694216D01*
X-1348446Y3694220D01*
X-1352454Y3698042D01*
X-1365847Y3713069D01*
X-1367292Y3714982D01*
X-1367296Y3714987D01*
X-1367299Y3714991D01*
X-1433582Y3775415D01*
X-1434532Y3776302D01*
X-1501657Y3840306D01*
X-1503399Y3841425D01*
X-1514520Y3849971D01*
X-1514544Y3849938D01*
X-1519123Y3853396D01*
X-1598558Y3902580D01*
X-1679742Y3954754D01*
X-1685001Y3957465D01*
X-1684968Y3957530D01*
X-1688488Y3959308D01*
X-1688649Y3958984D01*
X-1693778Y3961538D01*
X-1693782Y3961540D01*
X-1707683Y3966925D01*
X-1783765Y3996399D01*
X-1876278Y4033436D01*
X-1876286Y4033438D01*
X-1876530Y4033485D01*
X-1881743Y4034727D01*
X-1885342Y4035751D01*
X-1983323Y4054067D01*
X-2084150Y4073500D01*
X-2084151Y4073500D01*
X-2087282Y4073500D01*
X-2292718Y4073500D01*
X-2292724Y4073500D01*
X-2342115Y4064268D01*
X-2347614Y4063493D01*
X-2400735Y4058420D01*
X-2400739Y4058420D01*
X-2400739Y4058419D01*
X-2420057Y4052747D01*
X-2445652Y4045232D01*
X-2451729Y4043776D01*
X-2494649Y4035753D01*
X-2494662Y4035750D01*
X-2544562Y4016418D01*
X-2549491Y4014743D01*
X-2603860Y3998778D01*
X-2642541Y3978838D01*
X-2648555Y3976132D01*
X-2686219Y3961540D01*
X-2686220Y3961540D01*
X-2734526Y3931630D01*
X-2738755Y3929236D01*
X-2792023Y3901774D01*
X-2823646Y3876906D01*
X-2829335Y3872927D01*
X-2860884Y3853391D01*
X-2905292Y3812909D01*
X-2908734Y3809994D01*
X-2958435Y3770907D01*
X-2982623Y3742994D01*
X-2987710Y3737776D01*
X-3012699Y3714994D01*
X-3050889Y3664424D01*
X-3053509Y3661187D01*
X-3097064Y3610921D01*
X-3113896Y3581767D01*
X-3118116Y3575399D01*
X-3136504Y3551049D01*
X-3136509Y3551040D01*
X-3166219Y3491378D01*
X-3168024Y3488015D01*
X-3202912Y3427585D01*
X-3212842Y3398897D01*
X-3215933Y3391537D01*
X-3228072Y3367158D01*
X-3228077Y3367144D01*
X-3247218Y3299872D01*
X-3248261Y3296563D01*
X-3272154Y3227525D01*
X-3276006Y3200742D01*
X-3277742Y3192596D01*
X-3284294Y3169563D01*
X-3291051Y3096649D01*
X-3291418Y3093547D01*
X-3302281Y3017990D01*
X-3302281Y3017985D01*
X-3301150Y2994235D01*
X-3301344Y2985565D01*
X-3302445Y2973677D01*
X-3303249Y2964998D01*
X-4825000Y2964998D01*
X-4825000Y3213680D01*
X-5525000Y3213680D01*
X-5525000Y3713680D01*
X-4825000Y3713680D01*
X-4825000Y3964394D01*
X-4840419Y4116019D01*
X-4901300Y4310062D01*
X-4901305Y4310072D01*
X-5000006Y4487896D01*
X-5000006Y4487897D01*
X-5132479Y4642211D01*
X-5132481Y4642212D01*
X-5184456Y4682444D01*
X-5225420Y4739045D01*
X-5229280Y4808808D01*
X-5194811Y4869584D01*
X-5132956Y4902075D01*
X-5108555Y4904500D01*
X-3044170Y4904500D01*
X-3001742Y4904500D01*
X-2998265Y4904402D01*
X-2847533Y4895938D01*
X-2695624Y4887407D01*
X-2688731Y4886631D01*
X-2447101Y4845576D01*
X-2391617Y4836148D01*
X-2384833Y4834600D01*
X-2095244Y4751171D01*
X-2088680Y4748874D01*
X-1810246Y4633544D01*
X-1803998Y4630534D01*
X-1615930Y4526593D01*
X-1540229Y4484754D01*
X-1534337Y4481052D01*
X-1288559Y4306663D01*
X-1283118Y4302325D01*
X-1058409Y4101512D01*
X-1053489Y4096592D01*
X-852676Y3871883D01*
X-848338Y3866442D01*
X-673949Y3620664D01*
X-670247Y3614772D01*
X-574997Y3442432D01*
X-528415Y3358147D01*
X-524471Y3351012D01*
X-521454Y3344747D01*
X-481159Y3247466D01*
X-406128Y3066324D01*
X-403830Y3059757D01*
X-320401Y2770168D01*
X-318853Y2763384D01*
X-268372Y2466282D01*
X-267593Y2459368D01*
X-250598Y2156736D01*
X-250500Y2153259D01*
X-250500Y-13114D01*
X-252884Y-37306D01*
X-255408Y-50000D01*
X-253681Y-58683D01*
X-252383Y-65205D01*
X-250000Y-89399D01*
X-250000Y-6110600D01*
X-252383Y-6134792D01*
X-255408Y-6149998D01*
X-252883Y-6162691D01*
X-250500Y-6186885D01*
X-250500Y-11197898D01*
X-270185Y-11264937D01*
X-322989Y-11310692D01*
X-387754Y-11321188D01*
X-431360Y-11316500D01*
X-431362Y-11316500D01*
X-2228638Y-11316500D01*
X-2228655Y-11316500D01*
X-2289203Y-11323011D01*
X-2289205Y-11323011D01*
X-2426205Y-11374111D01*
X-2543261Y-11461739D01*
X-2630889Y-11578795D01*
X-2681989Y-11715795D01*
X-2681989Y-11715797D01*
X-2688500Y-11776345D01*
X-2688500Y-12190749D01*
X-2696887Y-12235578D01*
X-2921493Y-12814825D01*
X-3286419Y-13755949D01*
X-3314351Y-13798800D01*
X-5256914Y-15741364D01*
X-5318237Y-15774849D01*
X-5387929Y-15769865D01*
X-5432276Y-15741364D01*
X-5524092Y-15649548D01*
X-5668817Y-15558611D01*
X-5830151Y-15502157D01*
X-5830156Y-15502156D01*
X-5999996Y-15483021D01*
X-5999998Y-15483021D01*
X-6000000Y-15483021D01*
X-6016374Y-15484865D01*
X-6084822Y-15492576D01*
X-6089529Y-15492925D01*
X-6105035Y-15493484D01*
X-6105057Y-15493486D01*
X-6123179Y-15496761D01*
X-6127262Y-15497359D01*
X-6169849Y-15502157D01*
X-6169854Y-15502158D01*
X-6178561Y-15505205D01*
X-6197461Y-15510186D01*
X-6560767Y-15575843D01*
X-6582819Y-15577820D01*
X-7387251Y-15577820D01*
X-7454290Y-15558135D01*
X-7500045Y-15505331D01*
X-7509989Y-15436173D01*
X-7492450Y-15388175D01*
X-7460516Y-15336999D01*
X-7443006Y-15314974D01*
X-2345467Y-10217435D01*
X-2342792Y-10214916D01*
X-2295785Y-10173273D01*
X-2260130Y-10121615D01*
X-2257933Y-10118631D01*
X-2252021Y-10111086D01*
X-2219225Y-10069226D01*
X-2214967Y-10059764D01*
X-2203940Y-10040213D01*
X-2198046Y-10031675D01*
X-2175787Y-9972978D01*
X-2174378Y-9969577D01*
X-2148611Y-9912329D01*
X-2146740Y-9902116D01*
X-2140712Y-9880495D01*
X-2137035Y-9870801D01*
X-2129473Y-9808521D01*
X-2128910Y-9804817D01*
X-2125837Y-9788049D01*
X-2117598Y-9743092D01*
X-2121387Y-9680447D01*
X-2121500Y-9676703D01*
X-2121500Y-5496160D01*
X-2118471Y-5471286D01*
X-2118748Y-5471239D01*
X-2118000Y-5466898D01*
X-2117994Y-5466878D01*
X-2069720Y-4984121D01*
X-2068791Y-4971886D01*
X-2068415Y-4964643D01*
X-2068789Y-4950089D01*
X-2068420Y-4941571D01*
X-2066701Y-4926320D01*
X-2069893Y-4897994D01*
X-2070260Y-4892680D01*
X-2070452Y-4885157D01*
X-2071051Y-4882775D01*
X-2072526Y-4874626D01*
X-2085838Y-4756470D01*
X-2142291Y-4595137D01*
X-2233229Y-4450411D01*
X-2354091Y-4329549D01*
X-2354092Y-4329549D01*
X-2354092Y-4329548D01*
X-2498817Y-4238611D01*
X-2660151Y-4182157D01*
X-2660156Y-4182156D01*
X-2829996Y-4163021D01*
X-2829999Y-4163021D01*
X-2830000Y-4163021D01*
X-2839146Y-4164051D01*
X-2861398Y-4166558D01*
X-2880622Y-4167222D01*
X-2893903Y-4166649D01*
X-2893905Y-4166649D01*
X-2893908Y-4166649D01*
X-3132216Y-4190479D01*
X-3370536Y-4214311D01*
X-3370586Y-4214317D01*
X-3393768Y-4217309D01*
X-3401712Y-4217820D01*
X-7227427Y-4217820D01*
X-7294466Y-4198135D01*
X-7340221Y-4145331D01*
X-7350165Y-4076173D01*
X-7321140Y-4012617D01*
X-7300316Y-3993504D01*
X-7182387Y-3907824D01*
X-7061633Y-3773713D01*
X-6971401Y-3617427D01*
X-6915635Y-3445795D01*
X-6896771Y-3266320D01*
X-6915635Y-3086845D01*
X-6971401Y-2915213D01*
X-7061633Y-2758927D01*
X-7108929Y-2706399D01*
X-7182382Y-2624820D01*
X-7182385Y-2624818D01*
X-7182386Y-2624817D01*
X-7182387Y-2624816D01*
X-7328385Y-2518742D01*
X-7328386Y-2518741D01*
X-7493243Y-2445341D01*
X-7493249Y-2445339D01*
X-7633424Y-2415545D01*
X-7669768Y-2407820D01*
X-7850232Y-2407820D01*
X-7850235Y-2407820D01*
X-7886594Y-2415547D01*
X-7890716Y-2416279D01*
X-8049035Y-2438896D01*
X-8118184Y-2428890D01*
X-8170947Y-2383087D01*
X-8183613Y-2357095D01*
X-8212290Y-2275138D01*
X-8303229Y-2130411D01*
X-8424092Y-2009548D01*
X-8568817Y-1918611D01*
X-8730151Y-1862157D01*
X-8730156Y-1862156D01*
X-8899996Y-1843021D01*
X-8900004Y-1843021D01*
X-9069849Y-1862157D01*
X-9069850Y-1862157D01*
X-9126291Y-1881906D01*
X-9146200Y-1887065D01*
X-9164143Y-1890154D01*
X-9164150Y-1890156D01*
X-9477902Y-1991786D01*
X-9516113Y-1997820D01*
X-10543888Y-1997820D01*
X-10582099Y-1991786D01*
X-10808005Y-1918611D01*
X-10895851Y-1890156D01*
X-10906581Y-1887065D01*
X-10928192Y-1880839D01*
X-10933535Y-1879797D01*
X-10933460Y-1879410D01*
X-10954067Y-1874783D01*
X-10974485Y-1867639D01*
X-10990150Y-1862158D01*
X-10990152Y-1862157D01*
X-10990157Y-1862156D01*
X-11159996Y-1843021D01*
X-11160004Y-1843021D01*
X-11329845Y-1862156D01*
X-11329850Y-1862157D01*
X-11491184Y-1918611D01*
X-11635909Y-2009548D01*
X-11756772Y-2130411D01*
X-11847711Y-2275139D01*
X-11886387Y-2385669D01*
X-11927108Y-2442445D01*
X-11992061Y-2468192D01*
X-12020964Y-2467468D01*
X-12379303Y-2416277D01*
X-12383420Y-2415546D01*
X-12402353Y-2411521D01*
X-12419767Y-2407820D01*
X-12419768Y-2407820D01*
X-12437012Y-2407820D01*
X-12443639Y-2407465D01*
X-12450667Y-2406709D01*
X-12450701Y-2406706D01*
X-12450710Y-2406705D01*
X-12450721Y-2406704D01*
X-12450757Y-2406701D01*
X-12461243Y-2405943D01*
X-12461259Y-2405942D01*
X-12552836Y-2407409D01*
X-12559068Y-2407820D01*
X-12600232Y-2407820D01*
X-12631175Y-2414396D01*
X-12776752Y-2445339D01*
X-12776758Y-2445341D01*
X-12941614Y-2518741D01*
X-12941619Y-2518744D01*
X-13087612Y-2624814D01*
X-13087619Y-2624820D01*
X-13208368Y-2758928D01*
X-13298600Y-2915214D01*
X-13354365Y-3086843D01*
X-13373229Y-3266319D01*
X-13354365Y-3445796D01*
X-13309581Y-3583630D01*
X-13298599Y-3617427D01*
X-13208367Y-3773713D01*
X-13166304Y-3820428D01*
X-13087619Y-3907819D01*
X-13087616Y-3907821D01*
X-13087613Y-3907824D01*
X-12969687Y-3993503D01*
X-12927022Y-4048832D01*
X-12921043Y-4118445D01*
X-12953649Y-4180240D01*
X-13014488Y-4214598D01*
X-13042573Y-4217820D01*
X-13700159Y-4217820D01*
X-13725033Y-4214790D01*
X-13725080Y-4215068D01*
X-13729437Y-4214315D01*
X-13729441Y-4214314D01*
X-14070178Y-4180240D01*
X-14212276Y-4166030D01*
X-14212281Y-4166029D01*
X-14212287Y-4166029D01*
X-14224693Y-4165092D01*
X-14224692Y-4165092D01*
X-14224719Y-4165090D01*
X-14232017Y-4164715D01*
X-14246370Y-4165088D01*
X-14254928Y-4164719D01*
X-14269997Y-4163021D01*
X-14269999Y-4163021D01*
X-14270000Y-4163021D01*
X-14296699Y-4166029D01*
X-14298261Y-4166205D01*
X-14303591Y-4166574D01*
X-14311158Y-4166770D01*
X-14311177Y-4166773D01*
X-14313568Y-4167373D01*
X-14321718Y-4168848D01*
X-14439843Y-4182156D01*
X-14439848Y-4182157D01*
X-14601183Y-4238610D01*
X-14745906Y-4329546D01*
X-14858030Y-4441670D01*
X-14919353Y-4475154D01*
X-14989045Y-4470170D01*
X-15033392Y-4441669D01*
X-16925569Y-2549492D01*
X-16952350Y-2509503D01*
X-16963227Y-2483399D01*
X-17440877Y-1337033D01*
X-15475000Y-1337033D01*
X-15459582Y-1488658D01*
X-15398701Y-1682701D01*
X-15398696Y-1682711D01*
X-15299995Y-1860535D01*
X-15299995Y-1860536D01*
X-15167522Y-2014850D01*
X-15167521Y-2014851D01*
X-15006696Y-2139338D01*
X-14824093Y-2228909D01*
X-14725000Y-2254564D01*
X-14725000Y-1502430D01*
X-14700543Y-1541930D01*
X-14611038Y-1609521D01*
X-14503160Y-1640215D01*
X-14391479Y-1629866D01*
X-14291078Y-1579872D01*
X-14225000Y-1507389D01*
X-14225000Y-2259686D01*
X-14223056Y-2259389D01*
X-14223055Y-2259389D01*
X-14032340Y-2188756D01*
X-14032336Y-2188754D01*
X-13859733Y-2081170D01*
X-13712332Y-1941055D01*
X-13712331Y-1941053D01*
X-13596144Y-1774124D01*
X-13515941Y-1587227D01*
X-13475000Y-1388010D01*
X-13475000Y-986320D01*
X-14175000Y-986320D01*
X-14175000Y-486320D01*
X-13577061Y-486320D01*
X-13510022Y-506005D01*
X-13475758Y-538811D01*
X-13473358Y-542212D01*
X-13404149Y-616316D01*
X-13374755Y-647789D01*
X-13251328Y-722846D01*
X-13112228Y-761820D01*
X-13112227Y-761820D01*
X-13004050Y-761820D01*
X-12992498Y-760231D01*
X-12896889Y-747091D01*
X-12764391Y-689539D01*
X-12674397Y-616323D01*
X-11163299Y-616323D01*
X-11144164Y-786164D01*
X-11144163Y-786169D01*
X-11087709Y-947503D01*
X-11028189Y-1042229D01*
X-10996771Y-1092229D01*
X-10875909Y-1213091D01*
X-10731183Y-1304029D01*
X-10605933Y-1347856D01*
X-10569850Y-1360482D01*
X-10569845Y-1360483D01*
X-10400004Y-1379619D01*
X-10400000Y-1379619D01*
X-10399996Y-1379619D01*
X-10230157Y-1360483D01*
X-10230157Y-1360482D01*
X-10230150Y-1360482D01*
X-10173698Y-1340727D01*
X-10153791Y-1335570D01*
X-10135851Y-1332483D01*
X-10135846Y-1332481D01*
X-10135844Y-1332481D01*
X-9938213Y-1268464D01*
X-9868370Y-1266531D01*
X-9861813Y-1268456D01*
X-9664151Y-1332483D01*
X-9631806Y-1341800D01*
X-9631789Y-1341801D01*
X-9626460Y-1342842D01*
X-9626537Y-1343233D01*
X-9605936Y-1347854D01*
X-9569850Y-1360482D01*
X-9569846Y-1360482D01*
X-9569844Y-1360483D01*
X-9400004Y-1379619D01*
X-9400000Y-1379619D01*
X-9399996Y-1379619D01*
X-9230156Y-1360483D01*
X-9230153Y-1360482D01*
X-9230150Y-1360482D01*
X-9068817Y-1304029D01*
X-8924091Y-1213091D01*
X-8803229Y-1092229D01*
X-8712291Y-947503D01*
X-8655838Y-786170D01*
X-8650204Y-736169D01*
X-8636701Y-616323D01*
X-8636701Y-616316D01*
X-8655837Y-446475D01*
X-8655838Y-446470D01*
X-8673334Y-396470D01*
X-8712291Y-285137D01*
X-8720219Y-272519D01*
X-7789204Y-272519D01*
X-7768923Y-370116D01*
X-7759814Y-413954D01*
X-7759813Y-413956D01*
X-7693355Y-542213D01*
X-7693351Y-542219D01*
X-7624149Y-616316D01*
X-7594755Y-647789D01*
X-7471328Y-722846D01*
X-7332228Y-761820D01*
X-7332227Y-761820D01*
X-7224050Y-761820D01*
X-7212498Y-760231D01*
X-7116889Y-747091D01*
X-6984391Y-689539D01*
X-6872335Y-598374D01*
X-6832691Y-542212D01*
X-6830290Y-538811D01*
X-6775547Y-495394D01*
X-6728986Y-486320D01*
X-6125000Y-486320D01*
X-6125000Y-986320D01*
X-6825000Y-986320D01*
X-6825000Y-1337033D01*
X-6809582Y-1488658D01*
X-6748701Y-1682701D01*
X-6748696Y-1682711D01*
X-6649995Y-1860535D01*
X-6649995Y-1860536D01*
X-6517522Y-2014850D01*
X-6517521Y-2014851D01*
X-6356696Y-2139338D01*
X-6174093Y-2228909D01*
X-6075000Y-2254564D01*
X-6075000Y-1502430D01*
X-6050543Y-1541930D01*
X-5961038Y-1609521D01*
X-5853160Y-1640215D01*
X-5741479Y-1629866D01*
X-5641078Y-1579872D01*
X-5575000Y-1507389D01*
X-5575000Y-2259686D01*
X-5573056Y-2259389D01*
X-5573055Y-2259389D01*
X-5382340Y-2188756D01*
X-5382336Y-2188754D01*
X-5209733Y-2081170D01*
X-5062332Y-1941055D01*
X-5062331Y-1941053D01*
X-4946144Y-1774124D01*
X-4865941Y-1587227D01*
X-4825000Y-1388010D01*
X-4825000Y-986320D01*
X-5525000Y-986320D01*
X-5525000Y-486320D01*
X-4825000Y-486320D01*
X-4825000Y-135606D01*
X-4840419Y16019D01*
X-4901300Y210062D01*
X-4901305Y210072D01*
X-5000006Y387896D01*
X-5000006Y387897D01*
X-5132479Y542211D01*
X-5132480Y542212D01*
X-5293305Y666699D01*
X-5475907Y756269D01*
X-5575000Y781927D01*
X-5575000Y29791D01*
X-5599457Y69290D01*
X-5688962Y136881D01*
X-5796840Y167575D01*
X-5908521Y157226D01*
X-6008922Y107232D01*
X-6075000Y34750D01*
X-6075000Y787047D01*
X-6076947Y786749D01*
X-6076953Y786747D01*
X-6267658Y716118D01*
X-6267665Y716115D01*
X-6440268Y608531D01*
X-6587669Y468416D01*
X-6587670Y468414D01*
X-6703856Y301487D01*
X-6736552Y225294D01*
X-6781079Y171451D01*
X-6847648Y150228D01*
X-6915123Y168364D01*
X-6921477Y172858D01*
X-7048670Y250205D01*
X-7048671Y250206D01*
X-7048672Y250206D01*
X-7187772Y289180D01*
X-7295949Y289180D01*
X-7295950Y289180D01*
X-7403111Y274451D01*
X-7535611Y216899D01*
X-7535611Y216898D01*
X-7647662Y125737D01*
X-7647667Y125732D01*
X-7730972Y7717D01*
X-7779346Y-128394D01*
X-7779346Y-128397D01*
X-7779347Y-128399D01*
X-7779346Y-128399D01*
X-7789204Y-272519D01*
X-8720219Y-272519D01*
X-8803229Y-140411D01*
X-8924091Y-19549D01*
X-8924092Y-19548D01*
X-9068817Y71389D01*
X-9230151Y127843D01*
X-9230156Y127844D01*
X-9399996Y146979D01*
X-9400004Y146979D01*
X-9569849Y127843D01*
X-9569850Y127843D01*
X-9626291Y108094D01*
X-9646200Y102935D01*
X-9664141Y99846D01*
X-9664148Y99845D01*
X-9664149Y99844D01*
X-9664153Y99843D01*
X-9664152Y99843D01*
X-9861791Y35826D01*
X-9931634Y33895D01*
X-9938212Y35826D01*
X-10135854Y99845D01*
X-10168192Y109161D01*
X-10173535Y110203D01*
X-10173460Y110590D01*
X-10194067Y115217D01*
X-10224120Y125732D01*
X-10230150Y127842D01*
X-10230152Y127843D01*
X-10230157Y127844D01*
X-10399996Y146979D01*
X-10400004Y146979D01*
X-10569845Y127844D01*
X-10569850Y127843D01*
X-10731184Y71389D01*
X-10875909Y-19548D01*
X-10996772Y-140411D01*
X-11087709Y-285136D01*
X-11144163Y-446470D01*
X-11144164Y-446475D01*
X-11163299Y-616316D01*
X-11163299Y-616323D01*
X-12674397Y-616323D01*
X-12652335Y-598374D01*
X-12569029Y-480357D01*
X-12529850Y-370116D01*
X-12520655Y-344245D01*
X-12520655Y-344243D01*
X-12520654Y-344241D01*
X-12510796Y-200121D01*
X-12540186Y-58686D01*
X-12606646Y69575D01*
X-12606649Y69578D01*
X-12606650Y69580D01*
X-12705246Y175150D01*
X-12828670Y250205D01*
X-12828671Y250206D01*
X-12828672Y250206D01*
X-12967772Y289180D01*
X-13075949Y289180D01*
X-13075950Y289180D01*
X-13183111Y274451D01*
X-13315611Y216899D01*
X-13315612Y216898D01*
X-13365761Y176098D01*
X-13430187Y149060D01*
X-13499004Y161145D01*
X-13550362Y208517D01*
X-13552435Y212108D01*
X-13650006Y387896D01*
X-13650006Y387897D01*
X-13782479Y542211D01*
X-13782480Y542212D01*
X-13943305Y666699D01*
X-14125907Y756269D01*
X-14225000Y781927D01*
X-14225000Y29791D01*
X-14249457Y69290D01*
X-14338962Y136881D01*
X-14446840Y167575D01*
X-14558521Y157226D01*
X-14658922Y107232D01*
X-14725001Y34749D01*
X-14725000Y787047D01*
X-14726947Y786749D01*
X-14726953Y786747D01*
X-14917658Y716118D01*
X-14917665Y716115D01*
X-15090268Y608531D01*
X-15237669Y468416D01*
X-15237670Y468414D01*
X-15353857Y301485D01*
X-15434060Y114588D01*
X-15475000Y-84629D01*
X-15475000Y-486320D01*
X-14775000Y-486320D01*
X-14775000Y-986320D01*
X-15475000Y-986320D01*
X-15475000Y-1337033D01*
X-17440877Y-1337033D01*
X-17571962Y-1022428D01*
X-17581500Y-974736D01*
X-17581500Y-567682D01*
X-17581501Y-567665D01*
X-17584843Y-536590D01*
X-17588011Y-507119D01*
X-17588427Y-506005D01*
X-17610632Y-446470D01*
X-17639111Y-370116D01*
X-17726739Y-253059D01*
X-17843796Y-165431D01*
X-17843797Y-165430D01*
X-17980797Y-114331D01*
X-18041346Y-107820D01*
X-18041362Y-107820D01*
X-19838638Y-107820D01*
X-19838655Y-107820D01*
X-19906912Y-115160D01*
X-19907116Y-113267D01*
X-19966773Y-110060D01*
X-20023438Y-69183D01*
X-20049008Y-4161D01*
X-20049500Y6870D01*
X-20049500Y787047D01*
X-20049500Y2153295D01*
X-20049403Y2156736D01*
X-20032407Y2459381D01*
X-20031631Y2466268D01*
X-19981148Y2763385D01*
X-19979600Y2770168D01*
X-19978719Y2773226D01*
X-19923471Y2964998D01*
X-19223249Y2964998D01*
X-19216193Y2888842D01*
X-19215999Y2886073D01*
X-19212209Y2806530D01*
X-19212208Y2806525D01*
X-19208445Y2791014D01*
X-19205479Y2773226D01*
X-19204885Y2766821D01*
X-19204294Y2760441D01*
X-19182459Y2683695D01*
X-19181848Y2681379D01*
X-19162299Y2600799D01*
X-19162298Y2600794D01*
X-19157109Y2589432D01*
X-19150641Y2571866D01*
X-19148078Y2562859D01*
X-19148072Y2562842D01*
X-19111060Y2488513D01*
X-19110162Y2486633D01*
X-19074359Y2408235D01*
X-19074353Y2408224D01*
X-19069121Y2400877D01*
X-19059132Y2384229D01*
X-19056503Y2378950D01*
X-19017843Y2327756D01*
X-19004488Y2310071D01*
X-19003474Y2308690D01*
X-18951559Y2235785D01*
X-18951557Y2235783D01*
X-18951556Y2235782D01*
X-18951555Y2235781D01*
X-18947541Y2231953D01*
X-18934163Y2216943D01*
X-18932708Y2215017D01*
X-18932705Y2215013D01*
X-18932702Y2215011D01*
X-18932701Y2215009D01*
X-18866464Y2154626D01*
X-18865470Y2153699D01*
X-18827292Y2117297D01*
X-18798346Y2089697D01*
X-18796602Y2088576D01*
X-18785481Y2080030D01*
X-18785456Y2080062D01*
X-18780881Y2076607D01*
X-18701429Y2027412D01*
X-18620253Y1975243D01*
X-18615000Y1972535D01*
X-18615034Y1972471D01*
X-18611512Y1970692D01*
X-18611350Y1971016D01*
X-18606227Y1968466D01*
X-18606218Y1968460D01*
X-18516218Y1933595D01*
X-18423721Y1896565D01*
X-18423721Y1896564D01*
X-18423483Y1896518D01*
X-18418248Y1895271D01*
X-18414663Y1894252D01*
X-18414655Y1894249D01*
X-18316771Y1875952D01*
X-18215849Y1856500D01*
X-18215844Y1856500D01*
X-18007284Y1856500D01*
X-18007282Y1856500D01*
X-17957868Y1865738D01*
X-17952425Y1866506D01*
X-17899261Y1871581D01*
X-17854332Y1884775D01*
X-17848280Y1886224D01*
X-17805345Y1894249D01*
X-17755440Y1913583D01*
X-17750513Y1915257D01*
X-17700634Y1929903D01*
X-17696138Y1931223D01*
X-17694097Y1932275D01*
X-17657458Y1951165D01*
X-17651450Y1953869D01*
X-17613782Y1968460D01*
X-17565474Y1998373D01*
X-17561252Y2000764D01*
X-17507974Y2028229D01*
X-17476344Y2053104D01*
X-17470664Y2057077D01*
X-17439118Y2076608D01*
X-17394690Y2117111D01*
X-17391279Y2120000D01*
X-17341568Y2159092D01*
X-17317373Y2187016D01*
X-17312292Y2192226D01*
X-17308501Y2195682D01*
X-17287299Y2215009D01*
X-17249107Y2265586D01*
X-17246486Y2268823D01*
X-17240332Y2275925D01*
X-17202935Y2319082D01*
X-17186103Y2348239D01*
X-17181889Y2354597D01*
X-17163497Y2378950D01*
X-17133779Y2438634D01*
X-17131978Y2441986D01*
X-17127923Y2449010D01*
X-17097087Y2502418D01*
X-17087154Y2531119D01*
X-17084075Y2538453D01*
X-17071926Y2562848D01*
X-17052776Y2630158D01*
X-17051752Y2633407D01*
X-17027847Y2702473D01*
X-17023994Y2729278D01*
X-17022262Y2737403D01*
X-17015706Y2760441D01*
X-17008949Y2833364D01*
X-17008584Y2836450D01*
X-17001441Y2886128D01*
X-16997719Y2912016D01*
X-16998851Y2935764D01*
X-16998658Y2944436D01*
X-16996751Y2965000D01*
X-17003809Y3041161D01*
X-17004004Y3043933D01*
X-17004352Y3051233D01*
X-17007792Y3123474D01*
X-17011559Y3138998D01*
X-17014522Y3156771D01*
X-17015706Y3169559D01*
X-17037551Y3246334D01*
X-17038157Y3248636D01*
X-17040263Y3257316D01*
X-17057702Y3329204D01*
X-17062893Y3340570D01*
X-17069364Y3358147D01*
X-17069540Y3358765D01*
X-17071926Y3367152D01*
X-17108957Y3441518D01*
X-17109851Y3443393D01*
X-17134193Y3496695D01*
X-17145644Y3521771D01*
X-17150879Y3529123D01*
X-17160871Y3545776D01*
X-17163497Y3551050D01*
X-17181885Y3575399D01*
X-17215513Y3619930D01*
X-17216540Y3621330D01*
X-17268442Y3694216D01*
X-17268446Y3694220D01*
X-17272454Y3698042D01*
X-17285847Y3713069D01*
X-17287292Y3714982D01*
X-17287296Y3714987D01*
X-17287299Y3714991D01*
X-17353582Y3775415D01*
X-17354532Y3776302D01*
X-17421657Y3840306D01*
X-17423399Y3841425D01*
X-17434520Y3849971D01*
X-17434544Y3849938D01*
X-17439123Y3853396D01*
X-17518558Y3902580D01*
X-17599742Y3954754D01*
X-17605001Y3957465D01*
X-17604968Y3957530D01*
X-17608488Y3959308D01*
X-17608649Y3958984D01*
X-17613778Y3961538D01*
X-17613782Y3961540D01*
X-17627683Y3966925D01*
X-17703765Y3996399D01*
X-17796278Y4033436D01*
X-17796286Y4033438D01*
X-17796530Y4033485D01*
X-17801743Y4034727D01*
X-17805342Y4035751D01*
X-17903323Y4054067D01*
X-18004150Y4073500D01*
X-18004151Y4073500D01*
X-18007282Y4073500D01*
X-18212718Y4073500D01*
X-18212724Y4073500D01*
X-18262115Y4064268D01*
X-18267614Y4063493D01*
X-18320735Y4058420D01*
X-18320739Y4058420D01*
X-18320739Y4058419D01*
X-18340057Y4052747D01*
X-18365652Y4045232D01*
X-18371729Y4043776D01*
X-18414649Y4035753D01*
X-18414662Y4035750D01*
X-18464562Y4016418D01*
X-18469491Y4014743D01*
X-18523860Y3998778D01*
X-18562541Y3978838D01*
X-18568555Y3976132D01*
X-18606219Y3961540D01*
X-18606220Y3961540D01*
X-18654526Y3931630D01*
X-18658755Y3929236D01*
X-18712023Y3901774D01*
X-18743646Y3876906D01*
X-18749335Y3872927D01*
X-18780884Y3853391D01*
X-18825292Y3812909D01*
X-18828734Y3809994D01*
X-18878435Y3770907D01*
X-18902623Y3742994D01*
X-18907710Y3737776D01*
X-18932699Y3714994D01*
X-18970889Y3664424D01*
X-18973509Y3661187D01*
X-19017064Y3610921D01*
X-19033896Y3581767D01*
X-19038116Y3575399D01*
X-19056504Y3551049D01*
X-19056509Y3551040D01*
X-19086219Y3491378D01*
X-19088024Y3488015D01*
X-19122912Y3427585D01*
X-19132842Y3398897D01*
X-19135933Y3391537D01*
X-19148072Y3367158D01*
X-19148077Y3367144D01*
X-19167218Y3299872D01*
X-19168261Y3296563D01*
X-19192154Y3227525D01*
X-19196006Y3200742D01*
X-19197742Y3192596D01*
X-19204294Y3169563D01*
X-19211051Y3096649D01*
X-19211418Y3093547D01*
X-19222281Y3017990D01*
X-19222281Y3017985D01*
X-19221150Y2994235D01*
X-19221344Y2985565D01*
X-19222445Y2973677D01*
X-19223249Y2964998D01*
X-19923471Y2964998D01*
X-19896170Y3059763D01*
X-19893877Y3066315D01*
X-19778541Y3344762D01*
X-19775538Y3350997D01*
X-19629752Y3614777D01*
X-19626056Y3620658D01*
X-19469414Y3841425D01*
X-19451663Y3866442D01*
X-19447331Y3871876D01*
X-19246510Y4096595D01*
X-19241592Y4101512D01*
X-19016876Y4302331D01*
X-19011442Y4306663D01*
X-18877803Y4401485D01*
X-18765658Y4481056D01*
X-18759777Y4484752D01*
X-18495997Y4630538D01*
X-18489762Y4633541D01*
X-18211315Y4748877D01*
X-18204763Y4751170D01*
X-17915164Y4834601D01*
X-17908384Y4836148D01*
X-17611268Y4886631D01*
X-17604379Y4887407D01*
X-17445370Y4896337D01*
X-17301735Y4904402D01*
X-17298258Y4904500D01*
X-17255830Y4904500D01*
X-15194535Y4904500D01*
X-15127496Y4884815D01*
G37*
%TD.AperFunction*%
%TA.AperFunction,Conductor*%
G36*
X-3595461Y-5654505D02*
G01*
X-3549706Y-5707309D01*
X-3538500Y-5758820D01*
X-3538500Y-9355166D01*
X-3558185Y-9422205D01*
X-3574819Y-9442847D01*
X-8448695Y-14316723D01*
X-8468137Y-14332577D01*
X-8897307Y-14615441D01*
X-8915101Y-14625181D01*
X-8931107Y-14632308D01*
X-8931118Y-14632314D01*
X-9077112Y-14738386D01*
X-9077119Y-14738391D01*
X-9197869Y-14872499D01*
X-9240113Y-14945669D01*
X-9290680Y-14993885D01*
X-9359287Y-15007107D01*
X-9424152Y-14981139D01*
X-9464680Y-14924225D01*
X-9471500Y-14883669D01*
X-9471500Y-13324120D01*
X-9451815Y-13257081D01*
X-9435186Y-13236444D01*
X-5648367Y-9449624D01*
X-5618855Y-9427797D01*
X-5174570Y-9191840D01*
X-5148698Y-9177122D01*
X-5148698Y-9177121D01*
X-5144064Y-9174486D01*
X-5143887Y-9174797D01*
X-5131684Y-9167950D01*
X-5108385Y-9157578D01*
X-4962387Y-9051504D01*
X-4958672Y-9047379D01*
X-4919094Y-9003422D01*
X-4841633Y-8917393D01*
X-4751401Y-8761107D01*
X-4695635Y-8589475D01*
X-4676771Y-8410000D01*
X-4695635Y-8230525D01*
X-4751401Y-8058893D01*
X-4841633Y-7902607D01*
X-4890672Y-7848144D01*
X-4962382Y-7768500D01*
X-4962385Y-7768498D01*
X-4962386Y-7768497D01*
X-4962387Y-7768496D01*
X-5073856Y-7687509D01*
X-5108386Y-7662421D01*
X-5273243Y-7589021D01*
X-5273249Y-7589019D01*
X-5412250Y-7559474D01*
X-5449768Y-7551500D01*
X-5630232Y-7551500D01*
X-5667751Y-7559474D01*
X-5806751Y-7589019D01*
X-5806759Y-7589022D01*
X-5811446Y-7591109D01*
X-5830238Y-7597386D01*
X-5830215Y-7597459D01*
X-5833109Y-7598345D01*
X-5834093Y-7598674D01*
X-5834451Y-7598756D01*
X-6315447Y-7746064D01*
X-6351758Y-7751500D01*
X-11672199Y-7751500D01*
X-11739238Y-7731815D01*
X-11759880Y-7715181D01*
X-13628560Y-5846501D01*
X-13662045Y-5785178D01*
X-13657061Y-5715486D01*
X-13615189Y-5659553D01*
X-13549725Y-5635136D01*
X-13540879Y-5634820D01*
X-3662500Y-5634820D01*
X-3595461Y-5654505D01*
G37*
%TD.AperFunction*%
%TA.AperFunction,Conductor*%
G36*
X-17224136Y-4128965D02*
G01*
X-17180310Y-4157270D01*
X-12523039Y-8814540D01*
X-12512885Y-8827213D01*
X-12512709Y-8827069D01*
X-12507739Y-8833077D01*
X-12507737Y-8833079D01*
X-12507736Y-8833080D01*
X-12486820Y-8852721D01*
X-12455322Y-8882300D01*
X-12453922Y-8883657D01*
X-12432653Y-8904926D01*
X-12427398Y-8909002D01*
X-12426773Y-8909487D01*
X-12422330Y-8913282D01*
X-12386455Y-8946971D01*
X-12386453Y-8946972D01*
X-12367526Y-8957377D01*
X-12351266Y-8968057D01*
X-12337253Y-8978927D01*
X-12334189Y-8981304D01*
X-12289019Y-9000851D01*
X-12283783Y-9003415D01*
X-12240657Y-9027124D01*
X-12220653Y-9032260D01*
X-12219734Y-9032496D01*
X-12201329Y-9038797D01*
X-12181497Y-9047379D01*
X-12132867Y-9055081D01*
X-12127198Y-9056255D01*
X-12079508Y-9068500D01*
X-12057902Y-9068500D01*
X-12038504Y-9070026D01*
X-12017169Y-9073406D01*
X-11972056Y-9069141D01*
X-11968179Y-9068775D01*
X-11962341Y-9068500D01*
X-7429121Y-9068500D01*
X-7362082Y-9088185D01*
X-7316327Y-9140989D01*
X-7306383Y-9210147D01*
X-7335408Y-9273703D01*
X-7341440Y-9280181D01*
X-10534547Y-12473285D01*
X-10547215Y-12483435D01*
X-10547069Y-12483611D01*
X-10553080Y-12488583D01*
X-10602287Y-12540983D01*
X-10603641Y-12542380D01*
X-10624928Y-12563667D01*
X-10629508Y-12569569D01*
X-10633292Y-12573998D01*
X-10666971Y-12609865D01*
X-10666976Y-12609872D01*
X-10677382Y-12628800D01*
X-10688058Y-12645054D01*
X-10701305Y-12662133D01*
X-10720850Y-12707297D01*
X-10723420Y-12712543D01*
X-10747124Y-12755661D01*
X-10752498Y-12776589D01*
X-10758797Y-12794987D01*
X-10767381Y-12814825D01*
X-10775077Y-12863420D01*
X-10776262Y-12869143D01*
X-10788500Y-12916809D01*
X-10788500Y-12938413D01*
X-10790026Y-12957808D01*
X-10793406Y-12979151D01*
X-10788775Y-13028143D01*
X-10788500Y-13033981D01*
X-10788500Y-14781789D01*
X-10808185Y-14848828D01*
X-10860989Y-14894583D01*
X-10926383Y-14905009D01*
X-10971383Y-14899939D01*
X-11035797Y-14872873D01*
X-11075352Y-14815278D01*
X-11081500Y-14776719D01*
X-11081500Y-11292711D01*
X-11079718Y-11276568D01*
X-11079945Y-11276547D01*
X-11079211Y-11268784D01*
X-11081469Y-11196925D01*
X-11081500Y-11194977D01*
X-11081500Y-11164893D01*
X-11081500Y-11164888D01*
X-11082436Y-11157486D01*
X-11082893Y-11151673D01*
X-11084438Y-11102489D01*
X-11090465Y-11081746D01*
X-11094410Y-11062697D01*
X-11097118Y-11041256D01*
X-11115237Y-10995492D01*
X-11117128Y-10989968D01*
X-11122620Y-10971064D01*
X-11130855Y-10942720D01*
X-11141851Y-10924128D01*
X-11150411Y-10906655D01*
X-11158365Y-10886564D01*
X-11158369Y-10886558D01*
X-11187289Y-10846754D01*
X-11190498Y-10841869D01*
X-11202021Y-10822385D01*
X-11215547Y-10799513D01*
X-11215551Y-10799509D01*
X-11215554Y-10799505D01*
X-11230825Y-10784234D01*
X-11243463Y-10769438D01*
X-11256161Y-10751960D01*
X-11294079Y-10720592D01*
X-11298402Y-10716658D01*
X-17165516Y-4849544D01*
X-17194210Y-4804674D01*
X-17253980Y-4642198D01*
X-17384367Y-4287761D01*
X-17389038Y-4218049D01*
X-17355277Y-4156877D01*
X-17293804Y-4123668D01*
X-17224136Y-4128965D01*
G37*
%TD.AperFunction*%
%TD*%
%TA.AperFunction,Conductor*%
%TO.N,/CP2102_VDD_5V*%
G36*
X13377491Y-25468427D02*
G01*
X13378512Y-25469593D01*
X14018781Y-26306868D01*
X14021084Y-26315521D01*
X14017765Y-26322243D01*
X13183278Y-27157712D01*
X13175007Y-27161144D01*
X13166732Y-27157722D01*
X13166722Y-27157712D01*
X12332234Y-26322243D01*
X12328812Y-26313968D01*
X12331217Y-26306869D01*
X12971487Y-25469593D01*
X12979236Y-25465103D01*
X12980782Y-25465000D01*
X13369218Y-25465000D01*
X13377491Y-25468427D01*
G37*
%TD.AperFunction*%
%TD*%
%TA.AperFunction,Conductor*%
%TO.N,/CP2102_VDD_5V*%
G36*
X11113290Y-6316113D02*
G01*
X11118629Y-6320589D01*
X11421302Y-6791942D01*
X11422889Y-6800755D01*
X11419730Y-6806537D01*
X11150217Y-7076050D01*
X11141944Y-7079477D01*
X11135622Y-7077622D01*
X10704457Y-6800755D01*
X10664268Y-6774948D01*
X10659159Y-6767595D01*
X10659769Y-6760656D01*
X10787437Y-6450126D01*
X10793748Y-6443781D01*
X11104336Y-6316090D01*
X11113290Y-6316113D01*
G37*
%TD.AperFunction*%
%TD*%
%TA.AperFunction,Conductor*%
%TO.N,/CH343_VDD_5V*%
G36*
X-15022509Y-25468427D02*
G01*
X-15021488Y-25469593D01*
X-14381219Y-26306868D01*
X-14378916Y-26315521D01*
X-14382235Y-26322243D01*
X-15216723Y-27157712D01*
X-15224994Y-27161144D01*
X-15233268Y-27157722D01*
X-16067767Y-26322242D01*
X-16071188Y-26313968D01*
X-16068783Y-26306869D01*
X-15428513Y-25469593D01*
X-15420764Y-25465103D01*
X-15419218Y-25465000D01*
X-15030782Y-25465000D01*
X-15022509Y-25468427D01*
G37*
%TD.AperFunction*%
%TD*%
%TA.AperFunction,Conductor*%
%TO.N,/CH343_VDD_5V*%
G36*
X-2592876Y-4926268D02*
G01*
X-2584618Y-4929728D01*
X-2581224Y-4938015D01*
X-2581282Y-4939132D01*
X-2628946Y-5415784D01*
X-2633179Y-5423675D01*
X-2640588Y-5426320D01*
X-3019412Y-5426320D01*
X-3027685Y-5422893D01*
X-3031054Y-5415784D01*
X-3078719Y-4939132D01*
X-3076132Y-4930559D01*
X-3068241Y-4926326D01*
X-3067135Y-4926268D01*
X-2830000Y-4925320D01*
X-2592876Y-4926268D01*
G37*
%TD.AperFunction*%
%TD*%
%TA.AperFunction,Conductor*%
%TO.N,/CH343_VDD_5V*%
G36*
X-8145430Y-14746080D02*
G01*
X-7875911Y-15015599D01*
X-7872484Y-15023872D01*
X-7874258Y-15030066D01*
X-8170910Y-15505444D01*
X-8178197Y-15510649D01*
X-8185285Y-15510071D01*
X-8495692Y-15382454D01*
X-8502040Y-15376140D01*
X-8629775Y-15065445D01*
X-8629752Y-15056492D01*
X-8625395Y-15051230D01*
X-8160142Y-14744583D01*
X-8151348Y-14742892D01*
X-8145430Y-14746080D01*
G37*
%TD.AperFunction*%
%TD*%
%TA.AperFunction,Conductor*%
%TO.N,/CH343_VDD_5V*%
G36*
X-2834240Y-4680188D02*
G01*
X-2830007Y-4688079D01*
X-2829949Y-4689196D01*
X-2829000Y-4926367D01*
X-2829949Y-5163443D01*
X-2833409Y-5171702D01*
X-2841696Y-5175096D01*
X-2842813Y-5175038D01*
X-3319464Y-5127373D01*
X-3327355Y-5123140D01*
X-3330000Y-5115731D01*
X-3330000Y-4736908D01*
X-3326573Y-4728635D01*
X-3319466Y-4725266D01*
X-2842813Y-4677601D01*
X-2834240Y-4680188D01*
G37*
%TD.AperFunction*%
%TD*%
%TA.AperFunction,Conductor*%
%TO.N,/CH343_VDD_5V*%
G36*
X-14257193Y-4677600D02*
G01*
X-13780536Y-4725266D01*
X-13772645Y-4729499D01*
X-13770000Y-4736908D01*
X-13770000Y-5115731D01*
X-13773427Y-5124004D01*
X-13780536Y-5127373D01*
X-14257188Y-5175038D01*
X-14265761Y-5172451D01*
X-14269994Y-5164560D01*
X-14270052Y-5163443D01*
X-14270210Y-5124004D01*
X-14271000Y-4926320D01*
X-14270052Y-4689194D01*
X-14266592Y-4680937D01*
X-14258305Y-4677543D01*
X-14257193Y-4677600D01*
G37*
%TD.AperFunction*%
%TD*%
%TA.AperFunction,Conductor*%
%TO.N,/CH343_VDD_5V*%
G36*
X-18156657Y-6225553D02*
G01*
X-18150332Y-6231892D01*
X-18150293Y-6231987D01*
X-17599387Y-7599805D01*
X-17599475Y-7608759D01*
X-17601967Y-7612449D01*
X-17873871Y-7884353D01*
X-17882144Y-7887780D01*
X-17886515Y-7886933D01*
X-19254333Y-7336027D01*
X-19260727Y-7329757D01*
X-19260815Y-7320803D01*
X-19260776Y-7320708D01*
X-18942562Y-6550103D01*
X-18936241Y-6543768D01*
X-18165612Y-6225544D01*
X-18156657Y-6225553D01*
G37*
%TD.AperFunction*%
%TD*%
%TA.AperFunction,Conductor*%
%TO.N,/CP2102_VDD_3.3V*%
G36*
X16381726Y-17553786D02*
G01*
X16388633Y-17559485D01*
X16390000Y-17564973D01*
X16390000Y-17847666D01*
X16386573Y-17855939D01*
X16381726Y-17858853D01*
X15834079Y-18026572D01*
X15825165Y-18025718D01*
X15819855Y-18019891D01*
X15690880Y-17710826D01*
X15690857Y-17701871D01*
X15690880Y-17701814D01*
X15751596Y-17556320D01*
X15819855Y-17392747D01*
X15826204Y-17386433D01*
X15834077Y-17386067D01*
X16381726Y-17553786D01*
G37*
%TD.AperFunction*%
%TD*%
%TA.AperFunction,Conductor*%
%TO.N,/CP2102_VDD_3.3V*%
G36*
X21483573Y-17469034D02*
G01*
X21488121Y-17474411D01*
X21580083Y-17694130D01*
X21580990Y-17698694D01*
X21580055Y-17932373D01*
X21576595Y-17940632D01*
X21568308Y-17944026D01*
X21566274Y-17943839D01*
X21091608Y-17858058D01*
X21084076Y-17853215D01*
X21081989Y-17846545D01*
X21081989Y-17565666D01*
X21085415Y-17557396D01*
X21091104Y-17554258D01*
X21474748Y-17467516D01*
X21483573Y-17469034D01*
G37*
%TD.AperFunction*%
%TD*%
%TA.AperFunction,Conductor*%
%TO.N,/CP2102_VDD_3.3V*%
G36*
X24942135Y-4158293D02*
G01*
X24948443Y-4164648D01*
X24949089Y-4171382D01*
X24871883Y-4556917D01*
X24866899Y-4564357D01*
X24860411Y-4566320D01*
X24579589Y-4566320D01*
X24571316Y-4562893D01*
X24568117Y-4556917D01*
X24565326Y-4542982D01*
X24490910Y-4171380D01*
X24492645Y-4162597D01*
X24497862Y-4158294D01*
X24715484Y-4067209D01*
X24724436Y-4067177D01*
X24942135Y-4158293D01*
G37*
%TD.AperFunction*%
%TD*%
%TA.AperFunction,Conductor*%
%TO.N,/CP2102_VDD_3.3V*%
G36*
X15694478Y-17707188D02*
G01*
X15941960Y-17810464D01*
X16003945Y-17836331D01*
X16010260Y-17842680D01*
X16010750Y-17850120D01*
X15867303Y-18392638D01*
X15861875Y-18399760D01*
X15855992Y-18401347D01*
X15573274Y-18401347D01*
X15565001Y-18397920D01*
X15562243Y-18393547D01*
X15370331Y-17850694D01*
X15370804Y-17841751D01*
X15376854Y-17835997D01*
X15685494Y-17707199D01*
X15694449Y-17707177D01*
X15694478Y-17707188D01*
G37*
%TD.AperFunction*%
%TD*%
%TA.AperFunction,Conductor*%
%TO.N,/CP2102_VDD_3.3V*%
G36*
X15865791Y-25468427D02*
G01*
X15868139Y-25471792D01*
X16495193Y-26828674D01*
X16495553Y-26837621D01*
X16489480Y-26844203D01*
X16489061Y-26844387D01*
X15719489Y-27164134D01*
X15710534Y-27164143D01*
X15710511Y-27164134D01*
X14940938Y-26844387D01*
X14934613Y-26838048D01*
X14934622Y-26829093D01*
X14934806Y-26828674D01*
X15561861Y-25471792D01*
X15568443Y-25465719D01*
X15572482Y-25465000D01*
X15857518Y-25465000D01*
X15865791Y-25468427D01*
G37*
%TD.AperFunction*%
%TD*%
%TA.AperFunction,Conductor*%
%TO.N,/CP2102_VDD_3.3V*%
G36*
X15839620Y-17009747D02*
G01*
X15842534Y-17014594D01*
X16010252Y-17562240D01*
X16009398Y-17571154D01*
X16003571Y-17576464D01*
X15694506Y-17705439D01*
X15685551Y-17705462D01*
X15685494Y-17705439D01*
X15376428Y-17576464D01*
X15370113Y-17570115D01*
X15369747Y-17562242D01*
X15537466Y-17014593D01*
X15543165Y-17007687D01*
X15548653Y-17006320D01*
X15831347Y-17006320D01*
X15839620Y-17009747D01*
G37*
%TD.AperFunction*%
%TD*%
%TA.AperFunction,Conductor*%
%TO.N,/CP2102_VDD_3.3V*%
G36*
X15694478Y-9487188D02*
G01*
X15908891Y-9576664D01*
X16003571Y-9616175D01*
X16009886Y-9622524D01*
X16010252Y-9630399D01*
X15842534Y-10178046D01*
X15836835Y-10184953D01*
X15831347Y-10186320D01*
X15548653Y-10186320D01*
X15540380Y-10182893D01*
X15537466Y-10178046D01*
X15369747Y-9630399D01*
X15370601Y-9621485D01*
X15376427Y-9616175D01*
X15685494Y-9487199D01*
X15694449Y-9487177D01*
X15694478Y-9487188D01*
G37*
%TD.AperFunction*%
%TD*%
%TA.AperFunction,Conductor*%
%TO.N,/CP2102_VDD_3.3V*%
G36*
X16381726Y-9333786D02*
G01*
X16388633Y-9339485D01*
X16390000Y-9344973D01*
X16390000Y-9627666D01*
X16386573Y-9635939D01*
X16381726Y-9638853D01*
X15834079Y-9806572D01*
X15825165Y-9805718D01*
X15819855Y-9799891D01*
X15690880Y-9490825D01*
X15690857Y-9481870D01*
X15690856Y-9481870D01*
X15819855Y-9172747D01*
X15826204Y-9166433D01*
X15834077Y-9166067D01*
X16381726Y-9333786D01*
G37*
%TD.AperFunction*%
%TD*%
%TA.AperFunction,Conductor*%
%TO.N,/CH343_VDD_3.3V*%
G36*
X-5675166Y-8090601D02*
G01*
X-5669856Y-8096428D01*
X-5540881Y-8405494D01*
X-5540858Y-8414449D01*
X-5540881Y-8414506D01*
X-5669856Y-8723571D01*
X-5676205Y-8729886D01*
X-5684080Y-8730252D01*
X-6231726Y-8562533D01*
X-6238633Y-8556834D01*
X-6240000Y-8551346D01*
X-6240000Y-8268653D01*
X-6236573Y-8260380D01*
X-6231726Y-8257466D01*
X-5684079Y-8089747D01*
X-5675166Y-8090601D01*
G37*
%TD.AperFunction*%
%TD*%
%TA.AperFunction,Conductor*%
%TO.N,/CH343_VDD_3.3V*%
G36*
X-18091826Y-1118699D02*
G01*
X-18085514Y-1125004D01*
X-17385908Y-2804061D01*
X-17385889Y-2813016D01*
X-17388435Y-2816834D01*
X-17589486Y-3017885D01*
X-17597759Y-3021312D01*
X-17602259Y-3020412D01*
X-19281316Y-2320806D01*
X-19287635Y-2314461D01*
X-19287631Y-2305541D01*
X-18942562Y-1470102D01*
X-18936239Y-1463767D01*
X-18100779Y-1118690D01*
X-18091826Y-1118699D01*
G37*
%TD.AperFunction*%
%TD*%
%TA.AperFunction,Conductor*%
%TO.N,/CH343_VDD_3.3V*%
G36*
X-5853551Y-8280092D02*
G01*
X-5543809Y-8407436D01*
X-5537460Y-8413751D01*
X-5537437Y-8413808D01*
X-5410094Y-8723549D01*
X-5410117Y-8732504D01*
X-5415427Y-8738331D01*
X-5921266Y-9006981D01*
X-5930180Y-9007835D01*
X-5935027Y-9004921D01*
X-6134922Y-8805026D01*
X-6138349Y-8796753D01*
X-6136984Y-8791269D01*
X-5868332Y-8285425D01*
X-5861425Y-8279727D01*
X-5853551Y-8280092D01*
G37*
%TD.AperFunction*%
%TD*%
%TA.AperFunction,Conductor*%
%TO.N,/CH343_VDD_3.3V*%
G36*
X-9980380Y-18829747D02*
G01*
X-9977466Y-18834594D01*
X-9809748Y-19382240D01*
X-9810602Y-19391154D01*
X-9816429Y-19396464D01*
X-10125494Y-19525439D01*
X-10134449Y-19525462D01*
X-10134506Y-19525439D01*
X-10443572Y-19396464D01*
X-10449887Y-19390115D01*
X-10450253Y-19382242D01*
X-10282534Y-18834593D01*
X-10276835Y-18827687D01*
X-10271347Y-18826320D01*
X-9988653Y-18826320D01*
X-9980380Y-18829747D01*
G37*
%TD.AperFunction*%
%TD*%
%TA.AperFunction,Conductor*%
%TO.N,/CH343_VIO*%
G36*
X-18156994Y-3685692D02*
G01*
X-18150669Y-3692031D01*
X-18150502Y-3692458D01*
X-17634436Y-5095313D01*
X-17634796Y-5104260D01*
X-17637144Y-5107625D01*
X-17838695Y-5309176D01*
X-17846968Y-5312603D01*
X-17851007Y-5311884D01*
X-19253862Y-4795818D01*
X-19260444Y-4789745D01*
X-19260804Y-4780798D01*
X-19260637Y-4780371D01*
X-18942562Y-4010103D01*
X-18936241Y-4003768D01*
X-18165949Y-3685683D01*
X-18156994Y-3685692D01*
G37*
%TD.AperFunction*%
%TD*%
%TA.AperFunction,Conductor*%
%TO.N,/CH343_VIO*%
G36*
X-11590244Y-16510411D02*
G01*
X-11587383Y-16515088D01*
X-11411057Y-17061028D01*
X-11411776Y-17069954D01*
X-11417685Y-17075422D01*
X-11726599Y-17204334D01*
X-11735554Y-17204357D01*
X-11735611Y-17204334D01*
X-12044809Y-17075304D01*
X-12051124Y-17068955D01*
X-12051536Y-17061232D01*
X-12051476Y-17061028D01*
X-11892456Y-16515409D01*
X-11886851Y-16508426D01*
X-11881223Y-16506984D01*
X-11598517Y-16506984D01*
X-11590244Y-16510411D01*
G37*
%TD.AperFunction*%
%TD*%
%TA.AperFunction,Conductor*%
%TO.N,/CH343_VIO*%
G36*
X-8019401Y-16084437D02*
G01*
X-8011963Y-16089420D01*
X-8010000Y-16095908D01*
X-8010000Y-16376731D01*
X-8013427Y-16385004D01*
X-8019403Y-16388203D01*
X-8404938Y-16465409D01*
X-8413723Y-16463674D01*
X-8418027Y-16458455D01*
X-8509111Y-16240835D01*
X-8509143Y-16231883D01*
X-8418027Y-16014183D01*
X-8411673Y-16007876D01*
X-8404941Y-16007230D01*
X-8019401Y-16084437D01*
G37*
%TD.AperFunction*%
%TD*%
%TA.AperFunction,Conductor*%
%TO.N,/CH343_VIO*%
G36*
X-6004975Y-16000700D02*
G01*
X-6000132Y-16008232D01*
X-5999945Y-16010266D01*
X-5999010Y-16243945D01*
X-5999917Y-16248509D01*
X-6091879Y-16468228D01*
X-6098235Y-16474537D01*
X-6105252Y-16475123D01*
X-6488891Y-16388382D01*
X-6496205Y-16383215D01*
X-6498011Y-16376970D01*
X-6498011Y-16096094D01*
X-6494584Y-16087821D01*
X-6488394Y-16084582D01*
X-6013725Y-15998800D01*
X-6004975Y-16000700D01*
G37*
%TD.AperFunction*%
%TD*%
%TA.AperFunction,Conductor*%
%TO.N,Net-(F1-Pad1)*%
G36*
X-7764642Y-2920444D02*
G01*
X-7760080Y-2928149D01*
X-7759962Y-2929771D01*
X-7759000Y-3266353D01*
X-7759962Y-3602868D01*
X-7763413Y-3611132D01*
X-7771695Y-3614535D01*
X-7773317Y-3614417D01*
X-8449955Y-3517755D01*
X-8457660Y-3513193D01*
X-8460000Y-3506173D01*
X-8460000Y-3026467D01*
X-8456573Y-3018194D01*
X-8449955Y-3014885D01*
X-7773316Y-2918222D01*
X-7764642Y-2920444D01*
G37*
%TD.AperFunction*%
%TD*%
%TA.AperFunction,Conductor*%
%TO.N,Net-(F1-Pad1)*%
G36*
X-12496689Y-2918221D02*
G01*
X-11820045Y-3014884D01*
X-11820045Y-3014885D01*
X-11812340Y-3019447D01*
X-11810000Y-3026467D01*
X-11810000Y-3506172D01*
X-11813427Y-3514445D01*
X-11820045Y-3517754D01*
X-12496684Y-3614417D01*
X-12505359Y-3612195D01*
X-12509921Y-3604490D01*
X-12510039Y-3602876D01*
X-12511000Y-3266320D01*
X-12510039Y-2929769D01*
X-12506588Y-2921507D01*
X-12498306Y-2918104D01*
X-12496689Y-2918221D01*
G37*
%TD.AperFunction*%
%TD*%
%TA.AperFunction,Conductor*%
%TO.N,Net-(F2-Pad1)*%
G36*
X20495342Y-2396626D02*
G01*
X20499818Y-2401965D01*
X20629119Y-2711813D01*
X20629142Y-2720768D01*
X20629119Y-2720825D01*
X20499818Y-3030674D01*
X20493469Y-3036989D01*
X20486529Y-3037600D01*
X19939209Y-2918326D01*
X19931855Y-2913216D01*
X19930000Y-2906894D01*
X19930000Y-2525745D01*
X19933427Y-2517472D01*
X19939208Y-2514313D01*
X20486529Y-2395039D01*
X20495342Y-2396626D01*
G37*
%TD.AperFunction*%
%TD*%
%TA.AperFunction,Conductor*%
%TO.N,Net-(F2-Pad1)*%
G36*
X16530791Y-2514313D02*
G01*
X16538145Y-2519423D01*
X16540000Y-2525745D01*
X16540000Y-2906894D01*
X16536573Y-2915167D01*
X16530791Y-2918326D01*
X15983470Y-3037600D01*
X15974657Y-3036013D01*
X15970182Y-3030675D01*
X15840880Y-2720825D01*
X15840857Y-2711870D01*
X15840856Y-2711870D01*
X15970182Y-2401963D01*
X15976530Y-2395650D01*
X15983470Y-2395039D01*
X16530791Y-2514313D01*
G37*
%TD.AperFunction*%
%TD*%
%TA.AperFunction,Conductor*%
%TO.N,/CP2102_RTS*%
G36*
X21811906Y-13589378D02*
G01*
X21818720Y-13595187D01*
X21820000Y-13600508D01*
X21820000Y-13783491D01*
X21816573Y-13791764D01*
X21811905Y-13794622D01*
X21425912Y-13919652D01*
X21416986Y-13918941D01*
X21411514Y-13913038D01*
X21360854Y-13792000D01*
X21320889Y-13696515D01*
X21320857Y-13687562D01*
X21411514Y-13470960D01*
X21417870Y-13464652D01*
X21425911Y-13464347D01*
X21811906Y-13589378D01*
G37*
%TD.AperFunction*%
%TD*%
%TA.AperFunction,Conductor*%
%TO.N,/CP2102_RTS*%
G36*
X25805490Y-16124504D02*
G01*
X27243396Y-16605724D01*
X27250154Y-16611599D01*
X27250778Y-16620532D01*
X27250497Y-16621285D01*
X26932562Y-17391214D01*
X26926237Y-17397553D01*
X26926214Y-17397562D01*
X26156285Y-17715497D01*
X26147330Y-17715488D01*
X26141005Y-17709149D01*
X26140724Y-17708396D01*
X26036695Y-17397553D01*
X25659505Y-16270492D01*
X25660129Y-16261562D01*
X25662324Y-16258512D01*
X25793510Y-16127326D01*
X25801782Y-16123900D01*
X25805490Y-16124504D01*
G37*
%TD.AperFunction*%
%TD*%
%TA.AperFunction,Conductor*%
%TO.N,/CP2102_CTS*%
G36*
X21889963Y-14573444D02*
G01*
X21895866Y-14578916D01*
X22080394Y-14940265D01*
X22081105Y-14949191D01*
X22078247Y-14953859D01*
X21948859Y-15083247D01*
X21940586Y-15086674D01*
X21935265Y-15085394D01*
X21665908Y-14947843D01*
X21573915Y-14900865D01*
X21568106Y-14894051D01*
X21568410Y-14886011D01*
X21657436Y-14668821D01*
X21663743Y-14662468D01*
X21881011Y-14573411D01*
X21889963Y-14573444D01*
G37*
%TD.AperFunction*%
%TD*%
%TA.AperFunction,Conductor*%
%TO.N,/CP2102_CTS*%
G36*
X25805490Y-18664504D02*
G01*
X27243396Y-19145724D01*
X27250154Y-19151599D01*
X27250778Y-19160532D01*
X27250497Y-19161285D01*
X26932562Y-19931214D01*
X26926237Y-19937553D01*
X26926214Y-19937562D01*
X26156285Y-20255497D01*
X26147330Y-20255488D01*
X26141005Y-20249149D01*
X26140724Y-20248396D01*
X26036695Y-19937553D01*
X25659505Y-18810492D01*
X25660129Y-18801562D01*
X25662324Y-18798512D01*
X25793510Y-18667326D01*
X25801782Y-18663900D01*
X25805490Y-18664504D01*
G37*
%TD.AperFunction*%
%TD*%
%TA.AperFunction,Conductor*%
%TO.N,/CH343_DSR*%
G36*
X-2103718Y-17434501D02*
G01*
X-1333785Y-17752438D01*
X-1327448Y-17758761D01*
X-1327438Y-17758785D01*
X-1009503Y-18528714D01*
X-1009512Y-18537669D01*
X-1015851Y-18543994D01*
X-1016604Y-18544275D01*
X-2454505Y-19025494D01*
X-2463438Y-19024870D01*
X-2466491Y-19022672D01*
X-2597673Y-18891490D01*
X-2601100Y-18883217D01*
X-2600497Y-18879510D01*
X-2119275Y-17441601D01*
X-2113401Y-17434845D01*
X-2104468Y-17434221D01*
X-2103718Y-17434501D01*
G37*
%TD.AperFunction*%
%TD*%
%TA.AperFunction,Conductor*%
%TO.N,/CH343_DSR*%
G36*
X-13091117Y-17295679D02*
G01*
X-13084808Y-17302035D01*
X-13084503Y-17310077D01*
X-13209533Y-17696070D01*
X-13215343Y-17702885D01*
X-13220664Y-17704165D01*
X-13403646Y-17704165D01*
X-13411919Y-17700738D01*
X-13414777Y-17696070D01*
X-13539808Y-17310077D01*
X-13539097Y-17301151D01*
X-13533195Y-17295679D01*
X-13316671Y-17205054D01*
X-13307718Y-17205022D01*
X-13091117Y-17295679D01*
G37*
%TD.AperFunction*%
%TD*%
%TA.AperFunction,Conductor*%
%TO.N,/CH343_RTS*%
G36*
X-2103718Y-19974501D02*
G01*
X-1333785Y-20292438D01*
X-1327448Y-20298761D01*
X-1327438Y-20298785D01*
X-1009503Y-21068714D01*
X-1009512Y-21077669D01*
X-1015851Y-21083994D01*
X-1016604Y-21084275D01*
X-2454505Y-21565494D01*
X-2463438Y-21564870D01*
X-2466491Y-21562672D01*
X-2597673Y-21431490D01*
X-2601100Y-21423217D01*
X-2600497Y-21419510D01*
X-2119275Y-19981601D01*
X-2113401Y-19974845D01*
X-2104468Y-19974221D01*
X-2103718Y-19974501D01*
G37*
%TD.AperFunction*%
%TD*%
%TA.AperFunction,Conductor*%
%TO.N,/CH343_RTS*%
G36*
X-14353197Y-19391604D02*
G01*
X-14347294Y-19397076D01*
X-14162766Y-19758425D01*
X-14162055Y-19767351D01*
X-14164913Y-19772019D01*
X-14294301Y-19901407D01*
X-14302574Y-19904834D01*
X-14307895Y-19903554D01*
X-14577252Y-19766003D01*
X-14669245Y-19719025D01*
X-14675054Y-19712211D01*
X-14674750Y-19704171D01*
X-14585724Y-19486981D01*
X-14579417Y-19480628D01*
X-14362149Y-19391571D01*
X-14353197Y-19391604D01*
G37*
%TD.AperFunction*%
%TD*%
%TA.AperFunction,Conductor*%
%TO.N,/CH343_CTS*%
G36*
X-2103718Y-14894501D02*
G01*
X-1333785Y-15212438D01*
X-1327448Y-15218761D01*
X-1327438Y-15218785D01*
X-1009503Y-15988714D01*
X-1009512Y-15997669D01*
X-1015851Y-16003994D01*
X-1016604Y-16004275D01*
X-2454505Y-16485494D01*
X-2463438Y-16484870D01*
X-2466491Y-16482672D01*
X-2597673Y-16351490D01*
X-2601100Y-16343217D01*
X-2600497Y-16339510D01*
X-2119275Y-14901601D01*
X-2113401Y-14894845D01*
X-2104468Y-14894221D01*
X-2103718Y-14894501D01*
G37*
%TD.AperFunction*%
%TD*%
%TA.AperFunction,Conductor*%
%TO.N,/CH343_CTS*%
G36*
X-12338962Y-17288834D02*
G01*
X-12332653Y-17295190D01*
X-12332348Y-17303232D01*
X-12457378Y-17689225D01*
X-12463188Y-17696040D01*
X-12468509Y-17697320D01*
X-12651491Y-17697320D01*
X-12659764Y-17693893D01*
X-12662622Y-17689225D01*
X-12787653Y-17303232D01*
X-12786942Y-17294306D01*
X-12781040Y-17288834D01*
X-12564516Y-17198209D01*
X-12555563Y-17198177D01*
X-12338962Y-17288834D01*
G37*
%TD.AperFunction*%
%TD*%
%TA.AperFunction,Conductor*%
%TO.N,/CP2102_USB_Data_P*%
G36*
X17981906Y-463698D02*
G01*
X17988720Y-469507D01*
X17990000Y-474828D01*
X17990000Y-657811D01*
X17986573Y-666084D01*
X17981905Y-668942D01*
X17595912Y-793972D01*
X17586986Y-793261D01*
X17581514Y-787358D01*
X17490889Y-570835D01*
X17490857Y-561883D01*
X17581514Y-345280D01*
X17587870Y-338972D01*
X17595911Y-338667D01*
X17981906Y-463698D01*
G37*
%TD.AperFunction*%
%TD*%
%TA.AperFunction,Conductor*%
%TO.N,/CP2102_USB_Data_P*%
G36*
X18393013Y-339378D02*
G01*
X18398485Y-345281D01*
X18489109Y-561803D01*
X18489142Y-570757D01*
X18489109Y-570837D01*
X18398485Y-787358D01*
X18392129Y-793667D01*
X18384087Y-793972D01*
X17998095Y-668942D01*
X17991280Y-663132D01*
X17990000Y-657811D01*
X17990000Y-474828D01*
X17993427Y-466555D01*
X17998091Y-463698D01*
X18384088Y-338667D01*
X18393013Y-339378D01*
G37*
%TD.AperFunction*%
%TD*%
%TA.AperFunction,Conductor*%
%TO.N,Net-(USB2-CC2)*%
G36*
X16981906Y-3503698D02*
G01*
X16988720Y-3509507D01*
X16990000Y-3514828D01*
X16990000Y-3697811D01*
X16986573Y-3706084D01*
X16981905Y-3708942D01*
X16595912Y-3833972D01*
X16586986Y-3833261D01*
X16581514Y-3827358D01*
X16490889Y-3610835D01*
X16490857Y-3601883D01*
X16581514Y-3385280D01*
X16587870Y-3378972D01*
X16595911Y-3378667D01*
X16981906Y-3503698D01*
G37*
%TD.AperFunction*%
%TD*%
%TA.AperFunction,Conductor*%
%TO.N,Net-(USB2-CC2)*%
G36*
X19454732Y-5425924D02*
G01*
X19816084Y-5610454D01*
X19821893Y-5617268D01*
X19821588Y-5625311D01*
X19732564Y-5842496D01*
X19726255Y-5848851D01*
X19726176Y-5848884D01*
X19508991Y-5937908D01*
X19500036Y-5937875D01*
X19494134Y-5932404D01*
X19309604Y-5571053D01*
X19308894Y-5562128D01*
X19311750Y-5557462D01*
X19441141Y-5428071D01*
X19449413Y-5424645D01*
X19454732Y-5425924D01*
G37*
%TD.AperFunction*%
%TD*%
%TA.AperFunction,Conductor*%
%TO.N,Net-(USB1-CC1)*%
G36*
X-8996987Y-2379378D02*
G01*
X-8991515Y-2385281D01*
X-8900891Y-2601803D01*
X-8900858Y-2610757D01*
X-8900891Y-2610837D01*
X-8991515Y-2827358D01*
X-8997871Y-2833667D01*
X-9005913Y-2833972D01*
X-9391905Y-2708942D01*
X-9398720Y-2703132D01*
X-9400000Y-2697811D01*
X-9400000Y-2514828D01*
X-9396573Y-2506555D01*
X-9391909Y-2503698D01*
X-9005912Y-2378667D01*
X-8996987Y-2379378D01*
G37*
%TD.AperFunction*%
%TD*%
%TA.AperFunction,Conductor*%
%TO.N,Net-(USB1-CC1)*%
G36*
X-10668094Y-2503698D02*
G01*
X-10661280Y-2509507D01*
X-10660000Y-2514828D01*
X-10660000Y-2697811D01*
X-10663427Y-2706084D01*
X-10668095Y-2708942D01*
X-11054088Y-2833972D01*
X-11063014Y-2833261D01*
X-11068486Y-2827358D01*
X-11159111Y-2610835D01*
X-11159143Y-2601883D01*
X-11068486Y-2385280D01*
X-11062130Y-2378972D01*
X-11054089Y-2378667D01*
X-10668094Y-2503698D01*
G37*
%TD.AperFunction*%
%TD*%
%TA.AperFunction,Conductor*%
%TO.N,/CH343_USB_Data_N*%
G36*
X-9496987Y-389378D02*
G01*
X-9491515Y-395281D01*
X-9400891Y-611803D01*
X-9400858Y-620757D01*
X-9400891Y-620837D01*
X-9491515Y-837358D01*
X-9497871Y-843667D01*
X-9505913Y-843972D01*
X-9891905Y-718942D01*
X-9898720Y-713132D01*
X-9900000Y-707811D01*
X-9900000Y-524828D01*
X-9896573Y-516555D01*
X-9891909Y-513698D01*
X-9505912Y-388667D01*
X-9496987Y-389378D01*
G37*
%TD.AperFunction*%
%TD*%
%TA.AperFunction,Conductor*%
%TO.N,/CH343_USB_Data_N*%
G36*
X-9908094Y-513698D02*
G01*
X-9901280Y-519507D01*
X-9900000Y-524828D01*
X-9900000Y-707811D01*
X-9903427Y-716084D01*
X-9908095Y-718942D01*
X-10294088Y-843972D01*
X-10303014Y-843261D01*
X-10308486Y-837358D01*
X-10399111Y-620835D01*
X-10399143Y-611883D01*
X-10308486Y-395280D01*
X-10302130Y-388972D01*
X-10294089Y-388667D01*
X-9908094Y-513698D01*
G37*
%TD.AperFunction*%
%TD*%
%TA.AperFunction,Conductor*%
%TO.N,/CH343_RI*%
G36*
X-2168948Y-12327483D02*
G01*
X-2059306Y-12372769D01*
X-1333784Y-12672438D01*
X-1327447Y-12678763D01*
X-1327438Y-12678784D01*
X-982484Y-13513947D01*
X-982493Y-13522902D01*
X-988831Y-13529228D01*
X-989068Y-13529323D01*
X-2703220Y-14193994D01*
X-2712173Y-14193790D01*
X-2715723Y-14191358D01*
X-2846359Y-14060722D01*
X-2849786Y-14052449D01*
X-2848997Y-14048225D01*
X-2184323Y-12334065D01*
X-2178138Y-12327592D01*
X-2169185Y-12327388D01*
X-2168948Y-12327483D01*
G37*
%TD.AperFunction*%
%TD*%
%TA.AperFunction,Conductor*%
%TO.N,/CH343_RI*%
G36*
X-10775340Y-15751978D02*
G01*
X-10769031Y-15758334D01*
X-10768678Y-15766223D01*
X-10887453Y-16150863D01*
X-10893168Y-16157757D01*
X-10898632Y-16159111D01*
X-11081630Y-16159111D01*
X-11089903Y-16155684D01*
X-11092703Y-16151188D01*
X-11223955Y-15766426D01*
X-11223383Y-15757490D01*
X-11217401Y-15751857D01*
X-11001031Y-15661296D01*
X-10992078Y-15661264D01*
X-10775340Y-15751978D01*
G37*
%TD.AperFunction*%
%TD*%
M02*
