%TF.GenerationSoftware,KiCad,Pcbnew,7.0.5*%
%TF.CreationDate,2023-06-27T15:59:03+08:00*%
%TF.ProjectId,UINIO-USB-UART,55494e49-4f2d-4555-9342-2d554152542e,Version 3.2.0*%
%TF.SameCoordinates,Original*%
%TF.FileFunction,Soldermask,Top*%
%TF.FilePolarity,Negative*%
%FSLAX46Y46*%
G04 Gerber Fmt 4.6, Leading zero omitted, Abs format (unit mm)*
G04 Created by KiCad (PCBNEW 7.0.5) date 2023-06-27 15:59:03*
%MOMM*%
%LPD*%
G01*
G04 APERTURE LIST*
G04 Aperture macros list*
%AMRoundRect*
0 Rectangle with rounded corners*
0 $1 Rounding radius*
0 $2 $3 $4 $5 $6 $7 $8 $9 X,Y pos of 4 corners*
0 Add a 4 corners polygon primitive as box body*
4,1,4,$2,$3,$4,$5,$6,$7,$8,$9,$2,$3,0*
0 Add four circle primitives for the rounded corners*
1,1,$1+$1,$2,$3*
1,1,$1+$1,$4,$5*
1,1,$1+$1,$6,$7*
1,1,$1+$1,$8,$9*
0 Add four rect primitives between the rounded corners*
20,1,$1+$1,$2,$3,$4,$5,0*
20,1,$1+$1,$4,$5,$6,$7,0*
20,1,$1+$1,$6,$7,$8,$9,0*
20,1,$1+$1,$8,$9,$2,$3,0*%
%AMRotRect*
0 Rectangle, with rotation*
0 The origin of the aperture is its center*
0 $1 length*
0 $2 width*
0 $3 Rotation angle, in degrees counterclockwise*
0 Add horizontal line*
21,1,$1,$2,0,0,$3*%
G04 Aperture macros list end*
%ADD10R,1.700000X1.700000*%
%ADD11O,1.700000X1.700000*%
%ADD12RoundRect,0.200000X0.275000X-0.200000X0.275000X0.200000X-0.275000X0.200000X-0.275000X-0.200000X0*%
%ADD13C,1.200000*%
%ADD14RoundRect,0.250000X-0.625000X0.375000X-0.625000X-0.375000X0.625000X-0.375000X0.625000X0.375000X0*%
%ADD15RoundRect,0.225000X0.250000X-0.225000X0.250000X0.225000X-0.250000X0.225000X-0.250000X-0.225000X0*%
%ADD16RoundRect,0.218750X0.256250X-0.218750X0.256250X0.218750X-0.256250X0.218750X-0.256250X-0.218750X0*%
%ADD17RoundRect,0.200000X-0.275000X0.200000X-0.275000X-0.200000X0.275000X-0.200000X0.275000X0.200000X0*%
%ADD18C,0.650000*%
%ADD19O,1.000000X2.100000*%
%ADD20O,1.000000X1.900000*%
%ADD21R,0.600000X1.150000*%
%ADD22R,0.300000X1.150000*%
%ADD23C,2.200000*%
%ADD24R,0.280000X0.905000*%
%ADD25R,0.905000X0.280000*%
%ADD26R,3.350000X3.350000*%
%ADD27RoundRect,0.218750X-0.256250X0.218750X-0.256250X-0.218750X0.256250X-0.218750X0.256250X0.218750X0*%
%ADD28RoundRect,0.225000X-0.250000X0.225000X-0.250000X-0.225000X0.250000X-0.225000X0.250000X0.225000X0*%
%ADD29RotRect,0.250000X0.750000X45.000000*%
%ADD30RotRect,0.750000X0.250000X45.000000*%
%ADD31RotRect,1.700000X1.700000X45.000000*%
G04 APERTURE END LIST*
D10*
%TO.C,J7*%
X127310000Y-85486320D03*
D11*
X127310000Y-88026320D03*
X127310000Y-90566320D03*
%TD*%
D12*
%TO.C,R8*%
X167200000Y-91515000D03*
X167200000Y-89865000D03*
%TD*%
D13*
%TO.C,HOLE\u002A\u002A*%
X172460000Y-81046320D03*
%TD*%
D12*
%TO.C,R9*%
X136100000Y-92480000D03*
X136100000Y-90830000D03*
%TD*%
D13*
%TO.C,HOLE\u002A\u002A*%
X128140000Y-110335000D03*
%TD*%
D14*
%TO.C,F2*%
X157040000Y-84926320D03*
X157040000Y-87726320D03*
%TD*%
D12*
%TO.C,R7*%
X168660000Y-91515000D03*
X168660000Y-89865000D03*
%TD*%
D15*
%TO.C,C2*%
X159020000Y-91465000D03*
X159020000Y-89915000D03*
%TD*%
D16*
%TO.C,D2*%
X161060000Y-104825000D03*
X161060000Y-103250000D03*
%TD*%
D13*
%TO.C,HOLE\u002A\u002A*%
X156530000Y-110336320D03*
%TD*%
D17*
%TO.C,R6*%
X134110000Y-102546320D03*
X134110000Y-104196320D03*
%TD*%
D14*
%TO.C,F1*%
X143430000Y-84926320D03*
X143430000Y-87726320D03*
%TD*%
D17*
%TO.C,R5*%
X138080000Y-102578820D03*
X138080000Y-104228820D03*
%TD*%
D12*
%TO.C,R10*%
X133310000Y-92480000D03*
X133310000Y-90830000D03*
%TD*%
D18*
%TO.C,USB2*%
X167380000Y-84256320D03*
X161600000Y-84256320D03*
D19*
X168815000Y-84756320D03*
X160165000Y-84756320D03*
D20*
X168815000Y-80556320D03*
X160165000Y-80556320D03*
D21*
X167690000Y-85518320D03*
X166890000Y-85518320D03*
D22*
X165740000Y-85518320D03*
X164740000Y-85518320D03*
X164240000Y-85518320D03*
X163240000Y-85518320D03*
D21*
X161290000Y-85518320D03*
X162090000Y-85518320D03*
D22*
X162740000Y-85518320D03*
X163740000Y-85518320D03*
X165240000Y-85518320D03*
X166240000Y-85518320D03*
%TD*%
D23*
%TO.C,HOLE\u002A\u002A*%
X150300000Y-87120000D03*
%TD*%
D24*
%TO.C,U1*%
X165900000Y-94835000D03*
X165400000Y-94835000D03*
X164900000Y-94835000D03*
X164400000Y-94835000D03*
X163900000Y-94835000D03*
X163400000Y-94835000D03*
X162900000Y-94835000D03*
D25*
X162023000Y-95712000D03*
X162023000Y-96212000D03*
X162023000Y-96712000D03*
X162023000Y-97212000D03*
X162023000Y-97712000D03*
X162023000Y-98212000D03*
X162023000Y-98712000D03*
D24*
X162900000Y-99589000D03*
X163400000Y-99589000D03*
X163900000Y-99589000D03*
X164400000Y-99589000D03*
X164900000Y-99589000D03*
X165400000Y-99589000D03*
X165900000Y-99589000D03*
D25*
X166777000Y-98712000D03*
X166777000Y-98212000D03*
X166777000Y-97712000D03*
X166777000Y-97212000D03*
X166777000Y-96712000D03*
X166777000Y-96212000D03*
X166777000Y-95712000D03*
D26*
X164400000Y-97212000D03*
%TD*%
D17*
%TO.C,R1*%
X142510000Y-90820000D03*
X142510000Y-92470000D03*
%TD*%
D16*
%TO.C,D5*%
X139630000Y-104191320D03*
X139630000Y-102616320D03*
%TD*%
D15*
%TO.C,C5*%
X131970000Y-98365000D03*
X131970000Y-96815000D03*
%TD*%
%TO.C,C7*%
X140240000Y-98365000D03*
X140240000Y-96815000D03*
%TD*%
D13*
%TO.C,HOLE\u002A\u002A*%
X172460000Y-110326320D03*
%TD*%
D10*
%TO.C,J2*%
X159425000Y-111185000D03*
D11*
X161965000Y-111185000D03*
X164505000Y-111185000D03*
X167045000Y-111185000D03*
X169585000Y-111185000D03*
%TD*%
D17*
%TO.C,R4*%
X170970000Y-85195000D03*
X170970000Y-86845000D03*
%TD*%
D13*
%TO.C,HOLE\u002A\u002A*%
X144060000Y-81055000D03*
%TD*%
D15*
%TO.C,C4*%
X163400000Y-91465000D03*
X163400000Y-89915000D03*
%TD*%
D17*
%TO.C,R3*%
X166280000Y-103205000D03*
X166280000Y-104855000D03*
%TD*%
D18*
%TO.C,USB1*%
X138990000Y-84256320D03*
X133210000Y-84256320D03*
D19*
X140425000Y-84756320D03*
X131775000Y-84756320D03*
D20*
X140425000Y-80556320D03*
X131775000Y-80556320D03*
D21*
X139300000Y-85518320D03*
X138500000Y-85518320D03*
D22*
X137350000Y-85518320D03*
X136350000Y-85518320D03*
X135850000Y-85518320D03*
X134850000Y-85518320D03*
D21*
X132900000Y-85518320D03*
X133700000Y-85518320D03*
D22*
X134350000Y-85518320D03*
X135350000Y-85518320D03*
X136850000Y-85518320D03*
X137850000Y-85518320D03*
%TD*%
D13*
%TO.C,HOLE\u002A\u002A*%
X156540000Y-81056320D03*
%TD*%
D10*
%TO.C,J5*%
X131025000Y-111185000D03*
D11*
X133565000Y-111185000D03*
X136105000Y-111185000D03*
X138645000Y-111185000D03*
X141185000Y-111185000D03*
%TD*%
D16*
%TO.C,D3*%
X167840000Y-104817500D03*
X167840000Y-103242500D03*
%TD*%
D13*
%TO.C,HOLE\u002A\u002A*%
X128140000Y-81055000D03*
%TD*%
%TO.C,HOLE\u002A\u002A*%
X144060000Y-110345000D03*
%TD*%
D27*
%TO.C,D1*%
X144090000Y-90867500D03*
X144090000Y-92442500D03*
%TD*%
D16*
%TO.C,D6*%
X132560000Y-104158820D03*
X132560000Y-102583820D03*
%TD*%
D28*
%TO.C,C6*%
X138940000Y-90880000D03*
X138940000Y-92430000D03*
%TD*%
D16*
%TO.C,D4*%
X172530000Y-86807500D03*
X172530000Y-85232500D03*
%TD*%
D15*
%TO.C,C3*%
X161940000Y-91465000D03*
X161940000Y-89915000D03*
%TD*%
%TO.C,C1*%
X160480000Y-91465000D03*
X160480000Y-89915000D03*
%TD*%
D17*
%TO.C,R2*%
X162610000Y-103212500D03*
X162610000Y-104862500D03*
%TD*%
D29*
%TO.C,U2*%
X136596389Y-99147721D03*
X136949235Y-98794874D03*
X137303496Y-98440614D03*
X137656342Y-98087768D03*
D30*
X137655635Y-97098525D03*
X137302082Y-96744972D03*
X136948528Y-96391418D03*
X136594975Y-96037865D03*
D29*
X135605025Y-96037865D03*
X135251472Y-96391418D03*
X134897918Y-96744972D03*
X134545072Y-97097818D03*
D30*
X134544365Y-98088475D03*
X134897918Y-98442028D03*
X135251472Y-98795582D03*
X135605025Y-99149135D03*
D31*
X136100000Y-97593500D03*
%TD*%
D10*
%TO.C,J4*%
X127310000Y-99245000D03*
D11*
X127310000Y-101785000D03*
X127310000Y-104325000D03*
%TD*%
D10*
%TO.C,J3*%
X173180000Y-91255000D03*
D11*
X173180000Y-93795000D03*
X173180000Y-96335000D03*
X173180000Y-98875000D03*
X173180000Y-101415000D03*
X173180000Y-103955000D03*
%TD*%
D10*
%TO.C,J1*%
X155620000Y-96336320D03*
D11*
X155620000Y-98876320D03*
X155620000Y-101416320D03*
%TD*%
D10*
%TO.C,J6*%
X144920000Y-96695000D03*
D11*
X144920000Y-99235000D03*
X144920000Y-101775000D03*
X144920000Y-104315000D03*
%TD*%
M02*
