M48
; DRILL file {KiCad 7.0.5} date Thu Jun 29 18:32:48 2023
; FORMAT={-:-/ absolute / metric / decimal}
; #@! TF.CreationDate,2023-06-29T18:32:48+08:00
; #@! TF.GenerationSoftware,Kicad,Pcbnew,7.0.5
; #@! TF.FileFunction,MixedPlating,1,2
FMAT,2
METRIC
; #@! TA.AperFunction,Plated,PTH,ViaDrill
T1C0.300
; #@! TA.AperFunction,Plated,PTH,ComponentDrill
T2C0.600
; #@! TA.AperFunction,Plated,PTH,ComponentDrill
T3C1.000
; #@! TA.AperFunction,Plated,PTH,ComponentDrill
T4C1.200
; #@! TA.AperFunction,Plated,PTH,ComponentDrill
T5C2.200
; #@! TA.AperFunction,NonPlated,NPTH,ComponentDrill
T6C0.650
%
G90
G05
T1
X-16.8Y-4.846
X-16.8Y-7.376
X-16.8Y-11.076
X-16.8Y-14.016
X-16.8Y-16.376
X-16.8Y-18.406
X-16.25Y-24.65
X-14.583Y-19.483
X-14.27Y-4.926
X-13.312Y-17.204
X-12.56Y-17.197
X-12.51Y-3.266
X-11.731Y-17.205
X-11.58Y-7.646
X-11.16Y-2.606
X-11.07Y-24.65
X-10.997Y-15.66
X-10.84Y-13.573
X-10.55Y-5.486
X-10.55Y-10.646
X-10.4Y-0.616
X-10.13Y-19.526
X-9.46Y-13.573
X-9.4Y-0.616
X-9.3Y-17.746
X-8.9Y-2.606
X-8.51Y-16.236
X-8.5Y-24.65
X-8.499Y-15.38
X-7.76Y-3.266
X-6.56Y-15.476
X-6.56Y-17.026
X-6.0Y-16.246
X-5.54Y-8.41
X-3.62Y-24.606
X-3.48Y-13.646
X-3.48Y-16.05
X-3.48Y-18.453
X-3.48Y-20.856
X-2.83Y-4.926
X10.79Y-6.446
X11.83Y-13.816
X13.52Y-4.536
X15.69Y-9.486
X15.69Y-17.706
X15.84Y-2.716
X16.49Y-3.606
X17.05Y-24.456
X17.18Y-13.19
X17.19Y-14.2
X17.2Y-12.17
X17.49Y-0.566
X18.145Y-13.19
X18.155Y-14.2
X18.165Y-12.17
X18.17Y-16.81
X18.49Y-0.566
X18.84Y-18.946
X19.11Y-13.19
X19.12Y-14.2
X19.13Y-12.17
X19.45Y-6.936
X19.49Y-24.456
X19.73Y-4.64
X19.73Y-5.846
X20.63Y-2.716
X21.32Y-13.692
X21.58Y-17.696
X21.66Y-14.665
X22.08Y-24.456
X24.71Y-16.46
X24.72Y-4.066
T3
X-18.94Y-1.466
X-18.94Y-4.006
X-18.94Y-6.546
X-18.94Y-15.225
X-18.94Y-17.765
X-18.94Y-20.305
X-15.225Y-27.165
X-12.685Y-27.165
X-10.145Y-27.165
X-7.605Y-27.165
X-5.065Y-27.165
X-1.33Y-12.675
X-1.33Y-15.215
X-1.33Y-17.755
X-1.33Y-20.295
X9.37Y-12.316
X9.37Y-14.856
X9.37Y-17.396
X13.175Y-27.165
X15.715Y-27.165
X18.255Y-27.165
X20.795Y-27.165
X23.335Y-27.165
X26.93Y-7.235
X26.93Y-9.775
X26.93Y-12.315
X26.93Y-14.855
X26.93Y-17.395
X26.93Y-19.935
T4
X-18.11Y2.965
X-18.11Y-26.315
X-2.19Y2.965
X-2.19Y-26.325
X10.28Y-26.316
X10.29Y2.964
X26.21Y2.974
X26.21Y-26.306
T5
X4.05Y-3.1
T6
X-13.04Y-0.236
X-7.26Y-0.236
X15.35Y-0.236
X21.13Y-0.236
T2
G00X-14.475Y3.014
M15
G01X-14.475Y3.914
M16
G05
G00X-14.475Y-1.336
M15
G01X-14.475Y-0.136
M16
G05
G00X-5.825Y3.014
M15
G01X-5.825Y3.914
M16
G05
G00X-5.825Y-1.336
M15
G01X-5.825Y-0.136
M16
G05
G00X13.915Y3.014
M15
G01X13.915Y3.914
M16
G05
G00X13.915Y-1.336
M15
G01X13.915Y-0.136
M16
G05
G00X22.565Y3.014
M15
G01X22.565Y3.914
M16
G05
G00X22.565Y-1.336
M15
G01X22.565Y-0.136
M16
G05
T0
M30
