M48
; DRILL file {KiCad (6.0.11)} date Tue Feb  7 13:08:46 2023
; FORMAT={-:-/ absolute / metric / decimal}
; #@! TF.CreationDate,2023-02-07T13:08:46+08:00
; #@! TF.GenerationSoftware,Kicad,Pcbnew,(6.0.11)
; #@! TF.FileFunction,MixedPlating,1,2
FMAT,2
METRIC
; #@! TA.AperFunction,Plated,PTH,ViaDrill
T1C0.300
; #@! TA.AperFunction,Plated,PTH,ViaDrill
T2C0.400
; #@! TA.AperFunction,Plated,PTH,ViaDrill
T3C0.500
; #@! TA.AperFunction,Plated,PTH,ComponentDrill
T4C0.600
; #@! TA.AperFunction,Plated,PTH,ComponentDrill
T5C1.000
; #@! TA.AperFunction,Plated,PTH,ComponentDrill
T6C1.200
; #@! TA.AperFunction,NonPlated,NPTH,ComponentDrill
T7C0.650
%
G90
G05
T1
X130.49Y-99.2
X130.49Y-100.2
X138.84Y-97.98
X142.23Y-99.79
X142.23Y-100.49
X142.95Y-99.79
X142.95Y-100.49
X143.96Y-106.85
X144.35Y-96.24
X144.351Y-98.688
X144.98Y-99.39
X144.987Y-102.949
X145.531Y-99.888
X145.58Y-97.98
X145.63Y-103.69
X145.81Y-106.86
X146.16Y-97.415
X147.29Y-106.32
X147.47Y-104.19
X147.72Y-95.6
X147.997Y-99.937
X150.25Y-102.07
X150.97Y-98.49
X172.05Y-99.93
X173.97Y-99.93
X176.731Y-103.915
X176.81Y-100.14
X177.225Y-103.315
X177.725Y-104.68
X177.745Y-99.1
X177.755Y-101.18
X178.68Y-100.14
X178.725Y-103.495
X179.16Y-105.13
X180.1Y-102.52
X180.73Y-95.87
X181.01Y-101.64
X182.1Y-94.53
X183.32Y-93.35
X183.32Y-94.53
X186.53Y-100.24
X186.53Y-102.49
X190.54Y-99.64
X190.54Y-100.64
T2
X137.27Y-95.4
X139.74Y-101.82
X139.74Y-105.21
X139.9Y-93.54
X139.93Y-98.06
X141.84Y-102.7
X142.65Y-94.56
X143.34Y-105.22
X146.05Y-101.38
X167.31Y-97.41
X167.31Y-102.11
X167.31Y-104.61
X172.87Y-97.09
X172.87Y-102.36
X173.48Y-104.63
X173.71Y-96.2
X175.74Y-93.65
X175.74Y-96.2
X180.13Y-105.29
X180.28Y-103.93
X181.01Y-105.93
X181.507Y-99.115
X182.72Y-105.93
X186.54Y-96.53
X186.54Y-98.99
T3
X132.73Y-102.399
X132.74Y-97.6
X135.41Y-92.42
X135.43Y-90.72
X137.45Y-98.65
X152.04Y-97.79
X152.04Y-102.09
X173.72Y-94.97
X181.08Y-92.91
X182.19Y-95.74
X188.58Y-97.49
X188.58Y-102.29
X193.04Y-106.88
T5
X129.945Y-108.73
X132.485Y-108.73
X135.025Y-108.73
X138.26Y-91.194
X140.8Y-91.194
X140.8Y-108.72
X143.34Y-91.194
X143.34Y-108.72
X145.88Y-91.194
X145.88Y-108.72
X148.42Y-91.194
X148.42Y-108.72
X150.96Y-91.194
X150.96Y-108.72
X153.5Y-91.194
X153.5Y-108.72
X156.54Y-96.07
X156.54Y-98.61
X156.54Y-101.15
X156.54Y-103.69
X164.53Y-96.09
X164.53Y-98.63
X164.53Y-101.17
X164.53Y-103.71
X169.34Y-108.68
X169.4Y-91.1
X171.88Y-108.68
X171.94Y-91.1
X174.42Y-108.68
X174.48Y-91.1
X176.96Y-108.68
X177.02Y-91.1
X179.5Y-108.68
X179.56Y-91.1
X182.04Y-108.68
X182.1Y-91.1
X184.58Y-108.68
X184.64Y-91.1
X187.18Y-91.1
T6
X126.12Y-91.58
X126.12Y-108.19
X156.24Y-91.58
X156.24Y-108.19
X164.83Y-108.19
X164.84Y-91.58
X195.03Y-91.58
X195.03Y-108.19
T7
X130.171Y-97.06
X130.171Y-102.84
X190.979Y-97.0
X190.979Y-102.78
T4
G00X126.921Y-95.625
M15
G01X126.021Y-95.625
M16
G05
G00X126.921Y-104.275
M15
G01X126.021Y-104.275
M16
G05
G00X131.272Y-95.625
M15
G01X130.071Y-95.625
M16
G05
G00X131.272Y-104.275
M15
G01X130.071Y-104.275
M16
G05
G00X189.879Y-95.565
M15
G01X191.079Y-95.565
M16
G05
G00X189.879Y-104.215
M15
G01X191.079Y-104.215
M16
G05
G00X194.229Y-95.565
M15
G01X195.129Y-95.565
M16
G05
G00X194.229Y-104.215
M15
G01X195.129Y-104.215
M16
G05
T0
M30
