M48
; DRILL file {KiCad 7.0.5} date Tue Jun 27 15:59:08 2023
; FORMAT={-:-/ absolute / metric / decimal}
; #@! TF.CreationDate,2023-06-27T15:59:08+08:00
; #@! TF.GenerationSoftware,Kicad,Pcbnew,7.0.5
; #@! TF.FileFunction,MixedPlating,1,2
FMAT,2
METRIC
; #@! TA.AperFunction,Plated,PTH,ViaDrill
T1C0.300
; #@! TA.AperFunction,Plated,PTH,ComponentDrill
T2C0.600
; #@! TA.AperFunction,Plated,PTH,ComponentDrill
T3C1.000
; #@! TA.AperFunction,Plated,PTH,ComponentDrill
T4C1.200
; #@! TA.AperFunction,Plated,PTH,ComponentDrill
T5C2.200
; #@! TA.AperFunction,NonPlated,NPTH,ComponentDrill
T6C0.650
%
G90
G05
T1
X129.45Y-88.866
X129.45Y-91.396
X129.45Y-95.096
X129.45Y-98.036
X129.45Y-100.396
X129.45Y-102.426
X130.0Y-108.67
X131.667Y-103.503
X131.98Y-88.946
X132.938Y-101.224
X133.69Y-101.217
X133.74Y-87.286
X134.519Y-101.225
X134.67Y-91.666
X135.09Y-86.626
X135.18Y-108.67
X135.253Y-99.68
X135.41Y-97.593
X135.7Y-89.506
X135.7Y-94.666
X135.85Y-84.636
X136.12Y-103.546
X136.79Y-97.593
X136.85Y-84.636
X136.95Y-101.766
X137.35Y-86.626
X137.74Y-100.256
X137.75Y-108.67
X137.75Y-99.4
X138.49Y-87.286
X139.69Y-99.496
X139.69Y-101.046
X140.25Y-100.266
X140.71Y-92.43
X142.63Y-108.626
X142.77Y-97.666
X142.77Y-100.07
X142.77Y-102.473
X142.77Y-104.876
X143.42Y-88.946
X157.04Y-90.466
X158.08Y-97.836
X159.77Y-88.556
X161.94Y-93.506
X161.94Y-101.726
X162.09Y-86.736
X162.74Y-87.626
X163.3Y-108.476
X163.43Y-97.21
X163.44Y-98.22
X163.45Y-96.19
X163.74Y-84.586
X164.395Y-97.21
X164.405Y-98.22
X164.415Y-96.19
X164.42Y-100.83
X164.74Y-84.586
X165.09Y-102.966
X165.36Y-97.21
X165.37Y-98.22
X165.38Y-96.19
X165.7Y-90.956
X165.74Y-108.476
X165.98Y-88.66
X165.98Y-89.866
X166.88Y-86.736
X167.57Y-97.712
X167.83Y-101.716
X167.91Y-98.685
X168.33Y-108.476
X170.96Y-100.48
X170.97Y-88.086
T3
X127.31Y-85.486
X127.31Y-88.026
X127.31Y-90.566
X127.31Y-99.245
X127.31Y-101.785
X127.31Y-104.325
X131.025Y-111.185
X133.565Y-111.185
X136.105Y-111.185
X138.645Y-111.185
X141.185Y-111.185
X144.92Y-96.695
X144.92Y-99.235
X144.92Y-101.775
X144.92Y-104.315
X155.62Y-96.336
X155.62Y-98.876
X155.62Y-101.416
X159.425Y-111.185
X161.965Y-111.185
X164.505Y-111.185
X167.045Y-111.185
X169.585Y-111.185
X173.18Y-91.255
X173.18Y-93.795
X173.18Y-96.335
X173.18Y-98.875
X173.18Y-101.415
X173.18Y-103.955
T4
X128.14Y-81.055
X128.14Y-110.335
X144.06Y-81.055
X144.06Y-110.345
X156.53Y-110.336
X156.54Y-81.056
X172.46Y-81.046
X172.46Y-110.326
T5
X150.3Y-87.12
T6
X133.21Y-84.256
X138.99Y-84.256
X161.6Y-84.256
X167.38Y-84.256
T2
G00X131.775Y-81.006
M15
G01X131.775Y-80.106
M16
G05
G00X131.775Y-85.356
M15
G01X131.775Y-84.156
M16
G05
G00X140.425Y-81.006
M15
G01X140.425Y-80.106
M16
G05
G00X140.425Y-85.356
M15
G01X140.425Y-84.156
M16
G05
G00X160.165Y-81.006
M15
G01X160.165Y-80.106
M16
G05
G00X160.165Y-85.356
M15
G01X160.165Y-84.156
M16
G05
G00X168.815Y-81.006
M15
G01X168.815Y-80.106
M16
G05
G00X168.815Y-85.356
M15
G01X168.815Y-84.156
M16
G05
T0
M30
