M48
; DRILL file {KiCad (6.0.9)} date Wed Nov 30 00:06:50 2022
; FORMAT={-:-/ absolute / metric / decimal}
; #@! TF.CreationDate,2022-11-30T00:06:50+08:00
; #@! TF.GenerationSoftware,Kicad,Pcbnew,(6.0.9)
; #@! TF.FileFunction,MixedPlating,1,2
FMAT,2
METRIC
; #@! TA.AperFunction,Plated,PTH,ViaDrill
T1C0.200
; #@! TA.AperFunction,Plated,PTH,ViaDrill
T2C0.300
; #@! TA.AperFunction,Plated,PTH,ViaDrill
T3C0.400
; #@! TA.AperFunction,Plated,PTH,ViaDrill
T4C0.500
; #@! TA.AperFunction,Plated,PTH,ComponentDrill
T5C0.600
; #@! TA.AperFunction,Plated,PTH,ComponentDrill
T6C1.000
; #@! TA.AperFunction,Plated,PTH,ComponentDrill
T7C1.200
; #@! TA.AperFunction,NonPlated,NPTH,ComponentDrill
T8C0.650
%
G90
G05
T1
X134.1Y-99.835
X134.1Y-100.74
X138.36Y-98.64
X140.35Y-93.44
X141.4Y-97.77
X141.49Y-93.48
X143.64Y-100.02
X144.59Y-100.03
X144.87Y-103.95
X145.43Y-98.72
X147.47Y-106.51
X148.02Y-95.92
X148.02Y-104.02
X151.17Y-102.36
X177.88Y-96.06
X178.38Y-97.07
X178.39Y-106.23
X179.395Y-103.53
X180.44Y-103.94
X181.1Y-103.51
X181.3Y-105.86
X188.115Y-100.235
X188.12Y-99.27
T2
X135.04Y-97.11
X135.87Y-96.16
X137.33Y-97.61
X138.25Y-107.15
X139.23Y-102.77
X139.95Y-94.989
X142.49Y-97.12
X145.21Y-106.81
X145.6Y-100.02
X153.87Y-100.04
X167.54Y-94.8
X167.54Y-97.49
X167.56Y-102.56
X167.56Y-105.38
X171.52Y-104.54
X173.23Y-99.23
X173.24Y-100.04
X173.25Y-100.76
X174.21Y-100.89
X174.27Y-103.97
X174.929Y-104.529
X175.67Y-103.35
X177.89Y-107.16
X178.71Y-95.12
X180.04Y-95.13
X180.55Y-106.35
X182.28Y-98.18
X182.65Y-99.19
X183.62Y-94.95
X183.85Y-104.46
T3
X167.57Y-100.03
X179.13Y-92.7
X180.43Y-105.18
X181.34Y-92.69
T4
X132.67Y-102.14
X132.69Y-97.36
X133.64Y-95.43
X134.73Y-102.98
X135.65Y-93.93
X136.61Y-104.08
X138.11Y-104.08
X138.28Y-93.9
X139.58Y-92.82
X142.1Y-105.84
X142.139Y-94.34
X143.809Y-94.34
X147.16Y-93.48
X153.5Y-105.239
X174.22Y-96.709
X176.26Y-105.18
X178.46Y-93.84
X180.58Y-93.81
X182.42Y-105.18
X182.76Y-96.09
X186.85Y-107.76
X188.28Y-97.66
X188.28Y-102.44
X188.65Y-105.71
T6
X130.64Y-108.7
X133.18Y-108.7
X135.72Y-108.7
X138.26Y-91.194
X140.8Y-91.194
X140.8Y-108.7
X143.34Y-91.194
X143.34Y-108.7
X145.88Y-91.194
X145.88Y-108.7
X148.42Y-91.194
X148.42Y-108.7
X150.96Y-91.194
X150.96Y-108.7
X153.5Y-91.194
X153.5Y-108.7
X156.433Y-96.23
X156.433Y-98.77
X156.433Y-101.31
X156.433Y-103.85
X164.62Y-96.24
X164.62Y-98.78
X164.62Y-101.32
X164.62Y-103.86
X169.341Y-108.646
X169.4Y-91.1
X171.881Y-108.646
X171.94Y-91.1
X174.421Y-108.646
X174.48Y-91.1
X176.961Y-108.646
X177.02Y-91.1
X179.501Y-108.646
X179.56Y-91.1
X182.041Y-108.646
X182.1Y-91.1
X184.581Y-108.646
X184.64Y-91.1
X187.18Y-91.1
T7
X126.12Y-91.66
X126.12Y-108.25
X156.25Y-108.25
X156.26Y-91.6
X164.83Y-91.58
X164.83Y-108.2
X195.03Y-91.58
X195.03Y-108.19
T8
X130.171Y-96.88
X130.171Y-102.66
X190.979Y-97.13
X190.979Y-102.91
T5
G00X126.921Y-95.445
M15
G01X126.021Y-95.445
M16
G05
G00X126.921Y-104.095
M15
G01X126.021Y-104.095
M16
G05
G00X131.272Y-95.445
M15
G01X130.071Y-95.445
M16
G05
G00X131.272Y-104.095
M15
G01X130.071Y-104.095
M16
G05
G00X189.879Y-95.695
M15
G01X191.079Y-95.695
M16
G05
G00X189.879Y-104.345
M15
G01X191.079Y-104.345
M16
G05
G00X194.229Y-95.695
M15
G01X195.129Y-95.695
M16
G05
G00X194.229Y-104.345
M15
G01X195.129Y-104.345
M16
G05
T0
M30
