M48
; DRILL file {KiCad (6.0.8)} date Tue Oct 11 18:55:05 2022
; FORMAT={-:-/ absolute / metric / decimal}
; #@! TF.CreationDate,2022-10-11T18:55:05+08:00
; #@! TF.GenerationSoftware,Kicad,Pcbnew,(6.0.8)
; #@! TF.FileFunction,MixedPlating,1,2
FMAT,2
METRIC
; #@! TA.AperFunction,Plated,PTH,ViaDrill
T1C0.200
; #@! TA.AperFunction,Plated,PTH,ViaDrill
T2C0.300
; #@! TA.AperFunction,Plated,PTH,ViaDrill
T3C0.500
; #@! TA.AperFunction,Plated,PTH,ComponentDrill
T4C0.600
; #@! TA.AperFunction,Plated,PTH,ComponentDrill
T5C0.650
; #@! TA.AperFunction,Plated,PTH,ComponentDrill
T6C1.000
; #@! TA.AperFunction,Plated,PTH,ViaDrill
T7C1.200
; #@! TA.AperFunction,NonPlated,NPTH,ComponentDrill
T8C0.650
%
G90
G05
T1
X134.1Y-99.835
X134.1Y-100.74
X138.35Y-98.04
X140.35Y-93.44
X141.34Y-93.45
X141.4Y-97.77
X143.75Y-100.13
X144.67Y-103.67
X145.03Y-99.52
X145.43Y-98.72
X147.47Y-106.51
X148.02Y-95.92
X148.02Y-104.02
X151.17Y-102.36
X169.21Y-98.74
X169.23Y-101.28
X173.7Y-96.18
X175.94Y-96.2
X177.88Y-96.06
X178.38Y-97.07
X178.39Y-105.94
X179.4Y-103.941
X179.9Y-103.41
X180.77Y-103.16
X181.3Y-106.859
X188.115Y-100.235
X188.12Y-99.27
T2
X136.1Y-97.25
X136.17Y-95.36
X137.578Y-95.37
X139.66Y-95.36
X176.25Y-103.91
X182.65Y-99.19
X183.82Y-104.35
T3
X132.67Y-102.2
X132.69Y-97.36
X133.64Y-95.43
X135.72Y-93.64
X139.06Y-103.99
X139.58Y-92.82
X139.58Y-93.89
X142.1Y-105.84
X142.144Y-94.834
X144.08Y-94.82
X147.16Y-93.48
X153.5Y-105.239
X176.25Y-105.17
X178.46Y-93.84
X180.58Y-93.81
X182.76Y-96.09
X183.06Y-105.16
X187.19Y-107.57
X187.989Y-105.61
X188.04Y-97.61
X188.28Y-102.44
X190.0Y-109.22
T6
X138.26Y-91.194
X140.8Y-91.194
X140.8Y-108.7
X143.34Y-91.194
X143.34Y-108.7
X145.88Y-91.194
X145.88Y-108.7
X148.42Y-91.194
X148.42Y-108.7
X150.96Y-91.194
X150.96Y-108.7
X153.5Y-91.194
X153.5Y-108.7
X156.433Y-96.23
X156.433Y-98.77
X156.433Y-101.31
X156.433Y-103.85
X164.64Y-96.2
X164.64Y-98.74
X164.64Y-101.28
X164.64Y-103.82
X169.341Y-108.646
X169.4Y-91.1
X171.881Y-108.646
X171.94Y-91.1
X174.421Y-108.646
X174.48Y-91.1
X176.961Y-108.646
X177.02Y-91.1
X179.501Y-108.646
X179.56Y-91.1
X182.041Y-108.646
X182.1Y-91.1
X184.581Y-108.646
X184.64Y-91.1
X187.18Y-91.1
T7
X126.44Y-91.65
X126.54Y-108.35
X156.14Y-108.11
X156.28Y-91.65
X165.42Y-108.15
X165.45Y-91.67
X194.7Y-108.24
X194.84Y-91.79
T8
X130.171Y-96.88
X130.171Y-102.66
X190.979Y-97.13
X190.979Y-102.91
T4
G00X126.921Y-95.445
M15
G01X126.021Y-95.445
M16
G05
G00X126.921Y-104.095
M15
G01X126.021Y-104.095
M16
G05
G00X131.272Y-95.445
M15
G01X130.071Y-95.445
M16
G05
G00X131.272Y-104.095
M15
G01X130.071Y-104.095
M16
G05
G00X189.879Y-95.695
M15
G01X191.079Y-95.695
M16
G05
G00X189.879Y-104.345
M15
G01X191.079Y-104.345
M16
G05
G00X194.229Y-95.695
M15
G01X195.129Y-95.695
M16
G05
G00X194.229Y-104.345
M15
G01X195.129Y-104.345
M16
G05
T5
G00X130.985Y-107.38
M15
G01X131.135Y-107.38
M16
G05
G00X133.485Y-107.38
M15
G01X133.635Y-107.38
M16
G05
G00X135.985Y-107.38
M15
G01X136.135Y-107.38
M16
G05
T0
M30
