%TF.GenerationSoftware,KiCad,Pcbnew,7.0.5*%
%TF.CreationDate,2023-06-27T15:59:04+08:00*%
%TF.ProjectId,UINIO-USB-UART,55494e49-4f2d-4555-9342-2d554152542e,Version 3.2.0*%
%TF.SameCoordinates,Original*%
%TF.FileFunction,Profile,NP*%
%FSLAX46Y46*%
G04 Gerber Fmt 4.6, Leading zero omitted, Abs format (unit mm)*
G04 Created by KiCad (PCBNEW 7.0.5) date 2023-06-27 15:59:04*
%MOMM*%
%LPD*%
G01*
G04 APERTURE LIST*
%TA.AperFunction,Profile*%
%ADD10C,0.100000*%
%TD*%
G04 APERTURE END LIST*
D10*
X157350000Y-78865000D02*
G75*
G03*
X154350000Y-81865000I0J-3000000D01*
G01*
X143250000Y-112525000D02*
G75*
G03*
X146250000Y-109525000I0J3000000D01*
G01*
X125950000Y-109525000D02*
X125950000Y-81865000D01*
X146250000Y-90170000D02*
X154350000Y-90170000D01*
X125950000Y-109525000D02*
G75*
G03*
X128950000Y-112525000I3000000J0D01*
G01*
X174650000Y-81865000D02*
G75*
G03*
X171650000Y-78865000I-3000000J0D01*
G01*
X143250000Y-112525000D02*
X128950000Y-112525000D01*
X128950000Y-78865000D02*
G75*
G03*
X125950000Y-81865000I0J-3000000D01*
G01*
X157350000Y-78865000D02*
X171650000Y-78865000D01*
X174650000Y-81865000D02*
X174650000Y-109525000D01*
X146250000Y-84070000D02*
X154350000Y-84070000D01*
X171650000Y-112525000D02*
X157350000Y-112525000D01*
X154350000Y-81865000D02*
X154350000Y-84070000D01*
X146250000Y-81865000D02*
G75*
G03*
X143250000Y-78865000I-3000000J0D01*
G01*
X171650000Y-112525000D02*
G75*
G03*
X174650000Y-109525000I0J3000000D01*
G01*
X146250000Y-81865000D02*
X146250000Y-84070000D01*
X128950000Y-78865000D02*
X143250000Y-78865000D01*
X146250000Y-90170000D02*
X146250000Y-109525000D01*
X154350000Y-90170000D02*
X154350000Y-109525000D01*
X154350000Y-109525000D02*
G75*
G03*
X157350000Y-112525000I3000000J0D01*
G01*
M02*
