%TF.GenerationSoftware,KiCad,Pcbnew,(6.0.8)*%
%TF.CreationDate,2022-10-12T10:35:20+08:00*%
%TF.ProjectId,UINIO-USB-UART,55494e49-4f2d-4555-9342-2d554152542e,Hank*%
%TF.SameCoordinates,Original*%
%TF.FileFunction,Soldermask,Bot*%
%TF.FilePolarity,Negative*%
%FSLAX46Y46*%
G04 Gerber Fmt 4.6, Leading zero omitted, Abs format (unit mm)*
G04 Created by KiCad (PCBNEW (6.0.8)) date 2022-10-12 10:35:20*
%MOMM*%
%LPD*%
G01*
G04 APERTURE LIST*
%ADD10C,0.650000*%
%ADD11O,2.100000X1.000000*%
%ADD12O,1.900000X1.000000*%
%ADD13O,1.200000X1.000000*%
%ADD14R,1.700000X1.700000*%
%ADD15O,1.700000X1.700000*%
G04 APERTURE END LIST*
D10*
%TO.C,USB2*%
X190978700Y-102910000D03*
X190978700Y-97130000D03*
D11*
X190478700Y-104345000D03*
X190478700Y-95695000D03*
D12*
X194678700Y-104345000D03*
X194678700Y-95695000D03*
%TD*%
D13*
%TO.C,SW1*%
X131060000Y-107380000D03*
X133560000Y-107380000D03*
X136060000Y-107380000D03*
%TD*%
D14*
%TO.C,J2*%
X164640000Y-103820000D03*
D15*
X164640000Y-101280000D03*
X164640000Y-98740000D03*
X164640000Y-96200000D03*
%TD*%
D10*
%TO.C,USB1*%
X130171500Y-96880000D03*
X130171500Y-102660000D03*
D11*
X130671500Y-95445000D03*
X130671500Y-104095000D03*
D12*
X126471500Y-95445000D03*
X126471500Y-104095000D03*
%TD*%
D14*
%TO.C,J5*%
X156432500Y-103850000D03*
D15*
X156432500Y-101310000D03*
X156432500Y-98770000D03*
X156432500Y-96230000D03*
%TD*%
D14*
%TO.C,J4*%
X153500000Y-108700000D03*
D15*
X150960000Y-108700000D03*
X148420000Y-108700000D03*
X145880000Y-108700000D03*
X143340000Y-108700000D03*
X140800000Y-108700000D03*
%TD*%
D14*
%TO.C,J3*%
X169341000Y-108646000D03*
D15*
X171881000Y-108646000D03*
X174421000Y-108646000D03*
X176961000Y-108646000D03*
X179501000Y-108646000D03*
X182041000Y-108646000D03*
X184581000Y-108646000D03*
%TD*%
D14*
%TO.C,J1*%
X169400000Y-91100000D03*
D15*
X171940000Y-91100000D03*
X174480000Y-91100000D03*
X177020000Y-91100000D03*
X179560000Y-91100000D03*
X182100000Y-91100000D03*
X184640000Y-91100000D03*
X187180000Y-91100000D03*
%TD*%
D14*
%TO.C,J6*%
X153500000Y-91194000D03*
D15*
X150960000Y-91194000D03*
X148420000Y-91194000D03*
X145880000Y-91194000D03*
X143340000Y-91194000D03*
X140800000Y-91194000D03*
X138260000Y-91194000D03*
%TD*%
M02*
