%TF.GenerationSoftware,KiCad,Pcbnew,(6.0.11)*%
%TF.CreationDate,2023-02-07T15:00:15+08:00*%
%TF.ProjectId,UINIO-USB-UART,55494e49-4f2d-4555-9342-2d554152542e,Version 3.0.0*%
%TF.SameCoordinates,Original*%
%TF.FileFunction,Legend,Top*%
%TF.FilePolarity,Positive*%
%FSLAX46Y46*%
G04 Gerber Fmt 4.6, Leading zero omitted, Abs format (unit mm)*
G04 Created by KiCad (PCBNEW (6.0.11)) date 2023-02-07 15:00:15*
%MOMM*%
%LPD*%
G01*
G04 APERTURE LIST*
G04 Aperture macros list*
%AMRoundRect*
0 Rectangle with rounded corners*
0 $1 Rounding radius*
0 $2 $3 $4 $5 $6 $7 $8 $9 X,Y pos of 4 corners*
0 Add a 4 corners polygon primitive as box body*
4,1,4,$2,$3,$4,$5,$6,$7,$8,$9,$2,$3,0*
0 Add four circle primitives for the rounded corners*
1,1,$1+$1,$2,$3*
1,1,$1+$1,$4,$5*
1,1,$1+$1,$6,$7*
1,1,$1+$1,$8,$9*
0 Add four rect primitives between the rounded corners*
20,1,$1+$1,$2,$3,$4,$5,0*
20,1,$1+$1,$4,$5,$6,$7,0*
20,1,$1+$1,$6,$7,$8,$9,0*
20,1,$1+$1,$8,$9,$2,$3,0*%
G04 Aperture macros list end*
%ADD10C,0.100000*%
%ADD11C,0.150000*%
%ADD12C,0.200000*%
%ADD13C,0.300000*%
%ADD14C,0.120000*%
%ADD15C,0.254000*%
%ADD16C,0.152000*%
%ADD17C,1.200000*%
%ADD18R,1.700000X1.700000*%
%ADD19O,1.700000X1.700000*%
%ADD20RoundRect,0.200000X-0.200000X-0.275000X0.200000X-0.275000X0.200000X0.275000X-0.200000X0.275000X0*%
%ADD21RoundRect,0.200000X0.200000X0.275000X-0.200000X0.275000X-0.200000X-0.275000X0.200000X-0.275000X0*%
%ADD22RoundRect,0.250000X-0.375000X-0.625000X0.375000X-0.625000X0.375000X0.625000X-0.375000X0.625000X0*%
%ADD23RoundRect,0.225000X-0.225000X-0.250000X0.225000X-0.250000X0.225000X0.250000X-0.225000X0.250000X0*%
%ADD24RoundRect,0.218750X-0.218750X-0.256250X0.218750X-0.256250X0.218750X0.256250X-0.218750X0.256250X0*%
%ADD25RoundRect,0.250000X0.625000X-0.375000X0.625000X0.375000X-0.625000X0.375000X-0.625000X-0.375000X0*%
%ADD26C,0.650000*%
%ADD27O,2.100000X1.000000*%
%ADD28O,1.900000X1.000000*%
%ADD29R,1.150000X0.600000*%
%ADD30R,1.150000X0.300000*%
%ADD31R,0.905000X0.280000*%
%ADD32R,0.280000X0.905000*%
%ADD33R,3.350000X3.350000*%
%ADD34RoundRect,0.218750X0.218750X0.256250X-0.218750X0.256250X-0.218750X-0.256250X0.218750X-0.256250X0*%
%ADD35RoundRect,0.225000X0.225000X0.250000X-0.225000X0.250000X-0.225000X-0.250000X0.225000X-0.250000X0*%
%ADD36R,0.250000X0.750000*%
%ADD37R,0.750000X0.250000*%
G04 APERTURE END LIST*
D10*
X180604721Y-102980000D02*
G75*
G03*
X180604721Y-102980000I-44721J0D01*
G01*
X186885000Y-110010000D02*
X193295000Y-110010000D01*
X193295000Y-110010000D02*
X193295000Y-107990000D01*
X193295000Y-107990000D02*
X186885000Y-107990000D01*
X186885000Y-107990000D02*
X186885000Y-110010000D01*
X136900000Y-104280000D02*
X138920000Y-104280000D01*
X138920000Y-104280000D02*
X138920000Y-110060000D01*
X138920000Y-110060000D02*
X136900000Y-110060000D01*
X136900000Y-110060000D02*
X136900000Y-104280000D01*
X180691529Y-102980000D02*
G75*
G03*
X180691529Y-102980000I-131529J0D01*
G01*
X180786716Y-102980000D02*
G75*
G03*
X180786716Y-102980000I-226716J0D01*
G01*
D11*
X181695795Y-93166666D02*
X182076747Y-92900000D01*
X181695795Y-92709523D02*
X182495795Y-92709523D01*
X182495795Y-93014285D01*
X182457700Y-93090476D01*
X182419604Y-93128571D01*
X182343414Y-93166666D01*
X182229128Y-93166666D01*
X182152938Y-93128571D01*
X182114842Y-93090476D01*
X182076747Y-93014285D01*
X182076747Y-92709523D01*
X181733890Y-93471428D02*
X181695795Y-93585714D01*
X181695795Y-93776190D01*
X181733890Y-93852381D01*
X181771985Y-93890476D01*
X181848176Y-93928571D01*
X181924366Y-93928571D01*
X182000557Y-93890476D01*
X182038652Y-93852381D01*
X182076747Y-93776190D01*
X182114842Y-93623809D01*
X182152938Y-93547619D01*
X182191033Y-93509523D01*
X182267223Y-93471428D01*
X182343414Y-93471428D01*
X182419604Y-93509523D01*
X182457700Y-93547619D01*
X182495795Y-93623809D01*
X182495795Y-93814285D01*
X182457700Y-93928571D01*
X182495795Y-94157142D02*
X182495795Y-94614285D01*
X181695795Y-94385714D02*
X182495795Y-94385714D01*
D12*
X153437142Y-104051904D02*
X153170476Y-103670952D01*
X152979999Y-104051904D02*
X152979999Y-103251904D01*
X153284761Y-103251904D01*
X153360952Y-103290000D01*
X153399047Y-103328095D01*
X153437142Y-103404285D01*
X153437142Y-103518571D01*
X153399047Y-103594761D01*
X153360952Y-103632857D01*
X153284761Y-103670952D01*
X152979999Y-103670952D01*
X153665714Y-103251904D02*
X154122857Y-103251904D01*
X153894285Y-104051904D02*
X153894285Y-103251904D01*
X154351428Y-104013809D02*
X154465714Y-104051904D01*
X154656190Y-104051904D01*
X154732380Y-104013809D01*
X154770476Y-103975714D01*
X154808571Y-103899523D01*
X154808571Y-103823333D01*
X154770476Y-103747142D01*
X154732380Y-103709047D01*
X154656190Y-103670952D01*
X154503809Y-103632857D01*
X154427618Y-103594761D01*
X154389523Y-103556666D01*
X154351428Y-103480476D01*
X154351428Y-103404285D01*
X154389523Y-103328095D01*
X154427618Y-103290000D01*
X154503809Y-103251904D01*
X154694285Y-103251904D01*
X154808571Y-103290000D01*
D11*
X153091600Y-94369523D02*
X153053504Y-94445714D01*
X153053504Y-94560000D01*
X153091600Y-94674285D01*
X153167790Y-94750476D01*
X153243980Y-94788571D01*
X153396361Y-94826666D01*
X153510647Y-94826666D01*
X153663028Y-94788571D01*
X153739219Y-94750476D01*
X153815409Y-94674285D01*
X153853504Y-94560000D01*
X153853504Y-94483809D01*
X153815409Y-94369523D01*
X153777314Y-94331428D01*
X153510647Y-94331428D01*
X153510647Y-94483809D01*
X153853504Y-93988571D02*
X153053504Y-93988571D01*
X153853504Y-93531428D01*
X153053504Y-93531428D01*
X153853504Y-93150476D02*
X153053504Y-93150476D01*
X153053504Y-92960000D01*
X153091600Y-92845714D01*
X153167790Y-92769523D01*
X153243980Y-92731428D01*
X153396361Y-92693333D01*
X153510647Y-92693333D01*
X153663028Y-92731428D01*
X153739219Y-92769523D01*
X153815409Y-92845714D01*
X153853504Y-92960000D01*
X153853504Y-93150476D01*
X179148095Y-92709524D02*
X179948095Y-92709524D01*
X179948095Y-92900000D01*
X179910000Y-93014286D01*
X179833809Y-93090476D01*
X179757619Y-93128571D01*
X179605238Y-93166667D01*
X179490952Y-93166667D01*
X179338571Y-93128571D01*
X179262380Y-93090476D01*
X179186190Y-93014286D01*
X179148095Y-92900000D01*
X179148095Y-92709524D01*
X179224285Y-93966667D02*
X179186190Y-93928571D01*
X179148095Y-93814286D01*
X179148095Y-93738095D01*
X179186190Y-93623809D01*
X179262380Y-93547619D01*
X179338571Y-93509524D01*
X179490952Y-93471428D01*
X179605238Y-93471428D01*
X179757619Y-93509524D01*
X179833809Y-93547619D01*
X179910000Y-93623809D01*
X179948095Y-93738095D01*
X179948095Y-93814286D01*
X179910000Y-93928571D01*
X179871904Y-93966667D01*
X179148095Y-94309524D02*
X179948095Y-94309524D01*
X179948095Y-94500000D01*
X179910000Y-94614286D01*
X179833809Y-94690476D01*
X179757619Y-94728571D01*
X179605238Y-94766667D01*
X179490952Y-94766667D01*
X179338571Y-94728571D01*
X179262380Y-94690476D01*
X179186190Y-94614286D01*
X179148095Y-94500000D01*
X179148095Y-94309524D01*
D12*
X152941905Y-96431904D02*
X152941905Y-95631904D01*
X153132381Y-95631904D01*
X153246667Y-95670000D01*
X153322857Y-95746190D01*
X153360952Y-95822380D01*
X153399048Y-95974761D01*
X153399048Y-96089047D01*
X153360952Y-96241428D01*
X153322857Y-96317619D01*
X153246667Y-96393809D01*
X153132381Y-96431904D01*
X152941905Y-96431904D01*
X153627619Y-95631904D02*
X154084762Y-95631904D01*
X153856191Y-96431904D02*
X153856191Y-95631904D01*
X154808571Y-96431904D02*
X154541905Y-96050952D01*
X154351429Y-96431904D02*
X154351429Y-95631904D01*
X154656191Y-95631904D01*
X154732381Y-95670000D01*
X154770476Y-95708095D01*
X154808571Y-95784285D01*
X154808571Y-95898571D01*
X154770476Y-95974761D01*
X154732381Y-96012857D01*
X154656191Y-96050952D01*
X154351429Y-96050952D01*
X153246666Y-98961904D02*
X152980000Y-98580952D01*
X152789523Y-98961904D02*
X152789523Y-98161904D01*
X153094285Y-98161904D01*
X153170476Y-98200000D01*
X153208571Y-98238095D01*
X153246666Y-98314285D01*
X153246666Y-98428571D01*
X153208571Y-98504761D01*
X153170476Y-98542857D01*
X153094285Y-98580952D01*
X152789523Y-98580952D01*
X153513333Y-98161904D02*
X154046666Y-98961904D01*
X154046666Y-98161904D02*
X153513333Y-98961904D01*
X154351428Y-98961904D02*
X154351428Y-98161904D01*
X154541904Y-98161904D01*
X154656190Y-98200000D01*
X154732380Y-98276190D01*
X154770476Y-98352380D01*
X154808571Y-98504761D01*
X154808571Y-98619047D01*
X154770476Y-98771428D01*
X154732380Y-98847619D01*
X154656190Y-98923809D01*
X154541904Y-98961904D01*
X154351428Y-98961904D01*
X152865714Y-100731904D02*
X153322857Y-100731904D01*
X153094285Y-101531904D02*
X153094285Y-100731904D01*
X153513333Y-100731904D02*
X154046666Y-101531904D01*
X154046666Y-100731904D02*
X153513333Y-101531904D01*
X154351428Y-101531904D02*
X154351428Y-100731904D01*
X154541904Y-100731904D01*
X154656190Y-100770000D01*
X154732380Y-100846190D01*
X154770476Y-100922380D01*
X154808571Y-101074761D01*
X154808571Y-101189047D01*
X154770476Y-101341428D01*
X154732380Y-101417619D01*
X154656190Y-101493809D01*
X154541904Y-101531904D01*
X154351428Y-101531904D01*
X138327142Y-108792857D02*
X138374761Y-108840476D01*
X138422380Y-108983333D01*
X138422380Y-109078571D01*
X138374761Y-109221428D01*
X138279523Y-109316666D01*
X138184285Y-109364285D01*
X137993809Y-109411904D01*
X137850952Y-109411904D01*
X137660476Y-109364285D01*
X137565238Y-109316666D01*
X137470000Y-109221428D01*
X137422380Y-109078571D01*
X137422380Y-108983333D01*
X137470000Y-108840476D01*
X137517619Y-108792857D01*
X138422380Y-108364285D02*
X137422380Y-108364285D01*
X137898571Y-108364285D02*
X137898571Y-107792857D01*
X138422380Y-107792857D02*
X137422380Y-107792857D01*
X137422380Y-107411904D02*
X137422380Y-106792857D01*
X137803333Y-107126190D01*
X137803333Y-106983333D01*
X137850952Y-106888095D01*
X137898571Y-106840476D01*
X137993809Y-106792857D01*
X138231904Y-106792857D01*
X138327142Y-106840476D01*
X138374761Y-106888095D01*
X138422380Y-106983333D01*
X138422380Y-107269047D01*
X138374761Y-107364285D01*
X138327142Y-107411904D01*
X137755714Y-105935714D02*
X138422380Y-105935714D01*
X137374761Y-106173809D02*
X138089047Y-106411904D01*
X138089047Y-105792857D01*
X137422380Y-105507142D02*
X137422380Y-104888095D01*
X137803333Y-105221428D01*
X137803333Y-105078571D01*
X137850952Y-104983333D01*
X137898571Y-104935714D01*
X137993809Y-104888095D01*
X138231904Y-104888095D01*
X138327142Y-104935714D01*
X138374761Y-104983333D01*
X138422380Y-105078571D01*
X138422380Y-105364285D01*
X138374761Y-105459523D01*
X138327142Y-105507142D01*
X132051904Y-106786190D02*
X132851904Y-106519523D01*
X132051904Y-106252857D01*
X132851904Y-105986190D02*
X132051904Y-105986190D01*
X132051904Y-105452857D02*
X132051904Y-105300476D01*
X132090000Y-105224285D01*
X132166190Y-105148095D01*
X132318571Y-105110000D01*
X132585238Y-105110000D01*
X132737619Y-105148095D01*
X132813809Y-105224285D01*
X132851904Y-105300476D01*
X132851904Y-105452857D01*
X132813809Y-105529047D01*
X132737619Y-105605238D01*
X132585238Y-105643333D01*
X132318571Y-105643333D01*
X132166190Y-105605238D01*
X132090000Y-105529047D01*
X132051904Y-105452857D01*
D10*
X183839730Y-92856676D02*
X183879143Y-92920829D01*
X183970338Y-92997351D01*
X184022121Y-93009721D01*
X184055665Y-93006786D01*
X184104513Y-92985612D01*
X184135122Y-92949134D01*
X184147491Y-92897351D01*
X184144557Y-92863808D01*
X184123383Y-92814960D01*
X184065731Y-92735503D01*
X184044557Y-92686655D01*
X184041622Y-92653111D01*
X184053992Y-92601328D01*
X184084601Y-92564850D01*
X184133449Y-92543676D01*
X184166993Y-92540741D01*
X184218775Y-92553111D01*
X184309971Y-92629633D01*
X184349384Y-92693786D01*
X184528841Y-92813287D02*
X184268665Y-93123353D01*
X184256295Y-93175135D01*
X184259230Y-93208679D01*
X184280404Y-93257527D01*
X184353361Y-93318745D01*
X184405143Y-93331115D01*
X184438687Y-93328180D01*
X184487535Y-93307006D01*
X184747711Y-92996941D01*
X184605774Y-93499464D02*
X184645187Y-93563616D01*
X184736383Y-93640139D01*
X184788166Y-93652509D01*
X184821709Y-93649574D01*
X184870557Y-93628400D01*
X184901166Y-93591922D01*
X184913536Y-93540139D01*
X184910601Y-93506595D01*
X184889427Y-93457747D01*
X184831775Y-93378290D01*
X184810601Y-93329442D01*
X184807667Y-93295899D01*
X184820037Y-93244116D01*
X184850645Y-93207637D01*
X184899494Y-93186464D01*
X184933037Y-93183529D01*
X184984820Y-93195899D01*
X185076016Y-93272421D01*
X185115429Y-93336574D01*
X184973492Y-93839097D02*
X185294886Y-93456075D01*
X185440799Y-93578510D01*
X185461973Y-93627358D01*
X185464907Y-93660902D01*
X185452537Y-93712685D01*
X185406624Y-93767402D01*
X185357776Y-93788576D01*
X185324232Y-93791511D01*
X185272450Y-93779141D01*
X185126536Y-93656705D01*
X185524863Y-93959860D02*
X185652537Y-94066991D01*
X185538905Y-94313535D02*
X185356514Y-94160491D01*
X185677908Y-93777468D01*
X185860299Y-93930513D01*
X185703058Y-94451276D02*
X186024452Y-94068253D01*
X185921928Y-94634929D01*
X186243322Y-94251907D01*
X186104319Y-94787974D02*
X186425713Y-94404952D01*
X186516909Y-94481474D01*
X186556322Y-94545627D01*
X186562191Y-94612714D01*
X186549821Y-94664497D01*
X186506843Y-94752758D01*
X186460929Y-94807475D01*
X186381472Y-94865127D01*
X186332624Y-94886301D01*
X186265537Y-94892170D01*
X186195515Y-94864496D01*
X186104319Y-94787974D01*
D11*
X169679800Y-105420476D02*
X169717895Y-105344285D01*
X169717895Y-105230000D01*
X169679800Y-105115714D01*
X169603609Y-105039523D01*
X169527419Y-105001428D01*
X169375038Y-104963333D01*
X169260752Y-104963333D01*
X169108371Y-105001428D01*
X169032180Y-105039523D01*
X168955990Y-105115714D01*
X168917895Y-105230000D01*
X168917895Y-105306190D01*
X168955990Y-105420476D01*
X168994085Y-105458571D01*
X169260752Y-105458571D01*
X169260752Y-105306190D01*
X168917895Y-105801428D02*
X169717895Y-105801428D01*
X168917895Y-106258571D01*
X169717895Y-106258571D01*
X168917895Y-106639523D02*
X169717895Y-106639523D01*
X169717895Y-106830000D01*
X169679800Y-106944285D01*
X169603609Y-107020476D01*
X169527419Y-107058571D01*
X169375038Y-107096666D01*
X169260752Y-107096666D01*
X169108371Y-107058571D01*
X169032180Y-107020476D01*
X168955990Y-106944285D01*
X168917895Y-106830000D01*
X168917895Y-106639523D01*
X172301095Y-105163809D02*
X172301095Y-105659047D01*
X171996333Y-105392381D01*
X171996333Y-105506666D01*
X171958238Y-105582857D01*
X171920142Y-105620952D01*
X171843952Y-105659047D01*
X171653476Y-105659047D01*
X171577285Y-105620952D01*
X171539190Y-105582857D01*
X171501095Y-105506666D01*
X171501095Y-105278095D01*
X171539190Y-105201905D01*
X171577285Y-105163809D01*
X172301095Y-105887619D02*
X171501095Y-106154286D01*
X172301095Y-106420952D01*
X172301095Y-106611428D02*
X172301095Y-107106666D01*
X171996333Y-106840000D01*
X171996333Y-106954286D01*
X171958238Y-107030476D01*
X171920142Y-107068571D01*
X171843952Y-107106666D01*
X171653476Y-107106666D01*
X171577285Y-107068571D01*
X171539190Y-107030476D01*
X171501095Y-106954286D01*
X171501095Y-106725714D01*
X171539190Y-106649524D01*
X171577285Y-106611428D01*
D12*
X166191428Y-100737904D02*
X166648571Y-100737904D01*
X166419999Y-101537904D02*
X166419999Y-100737904D01*
X166839047Y-100737904D02*
X167372380Y-101537904D01*
X167372380Y-100737904D02*
X166839047Y-101537904D01*
X167677142Y-101537904D02*
X167677142Y-100737904D01*
X167867618Y-100737904D01*
X167981904Y-100776000D01*
X168058094Y-100852190D01*
X168096190Y-100928380D01*
X168134285Y-101080761D01*
X168134285Y-101195047D01*
X168096190Y-101347428D01*
X168058094Y-101423619D01*
X167981904Y-101499809D01*
X167867618Y-101537904D01*
X167677142Y-101537904D01*
D11*
X143721904Y-107084285D02*
X142921904Y-107084285D01*
X142921904Y-106893809D01*
X142960000Y-106779523D01*
X143036190Y-106703333D01*
X143112380Y-106665238D01*
X143264761Y-106627142D01*
X143379047Y-106627142D01*
X143531428Y-106665238D01*
X143607619Y-106703333D01*
X143683809Y-106779523D01*
X143721904Y-106893809D01*
X143721904Y-107084285D01*
X143645714Y-105827142D02*
X143683809Y-105865238D01*
X143721904Y-105979523D01*
X143721904Y-106055714D01*
X143683809Y-106170000D01*
X143607619Y-106246190D01*
X143531428Y-106284285D01*
X143379047Y-106322381D01*
X143264761Y-106322381D01*
X143112380Y-106284285D01*
X143036190Y-106246190D01*
X142960000Y-106170000D01*
X142921904Y-106055714D01*
X142921904Y-105979523D01*
X142960000Y-105865238D01*
X142998095Y-105827142D01*
X143721904Y-105484285D02*
X142921904Y-105484285D01*
X142921904Y-105293809D01*
X142960000Y-105179523D01*
X143036190Y-105103333D01*
X143112380Y-105065238D01*
X143264761Y-105027142D01*
X143379047Y-105027142D01*
X143531428Y-105065238D01*
X143607619Y-105103333D01*
X143683809Y-105179523D01*
X143721904Y-105293809D01*
X143721904Y-105484285D01*
X153060000Y-106739523D02*
X153021904Y-106815714D01*
X153021904Y-106930000D01*
X153060000Y-107044285D01*
X153136190Y-107120476D01*
X153212380Y-107158571D01*
X153364761Y-107196666D01*
X153479047Y-107196666D01*
X153631428Y-107158571D01*
X153707619Y-107120476D01*
X153783809Y-107044285D01*
X153821904Y-106930000D01*
X153821904Y-106853809D01*
X153783809Y-106739523D01*
X153745714Y-106701428D01*
X153479047Y-106701428D01*
X153479047Y-106853809D01*
X153821904Y-106358571D02*
X153021904Y-106358571D01*
X153821904Y-105901428D01*
X153021904Y-105901428D01*
X153821904Y-105520476D02*
X153021904Y-105520476D01*
X153021904Y-105330000D01*
X153060000Y-105215714D01*
X153136190Y-105139523D01*
X153212380Y-105101428D01*
X153364761Y-105063333D01*
X153479047Y-105063333D01*
X153631428Y-105101428D01*
X153707619Y-105139523D01*
X153783809Y-105215714D01*
X153821904Y-105330000D01*
X153821904Y-105520476D01*
X176571095Y-105735237D02*
X176952047Y-105468571D01*
X176571095Y-105278094D02*
X177371095Y-105278094D01*
X177371095Y-105582856D01*
X177333000Y-105659047D01*
X177294904Y-105697142D01*
X177218714Y-105735237D01*
X177104428Y-105735237D01*
X177028238Y-105697142D01*
X176990142Y-105659047D01*
X176952047Y-105582856D01*
X176952047Y-105278094D01*
X177371095Y-105963809D02*
X177371095Y-106420952D01*
X176571095Y-106192380D02*
X177371095Y-106192380D01*
X176609190Y-106649523D02*
X176571095Y-106763809D01*
X176571095Y-106954285D01*
X176609190Y-107030475D01*
X176647285Y-107068571D01*
X176723476Y-107106666D01*
X176799666Y-107106666D01*
X176875857Y-107068571D01*
X176913952Y-107030475D01*
X176952047Y-106954285D01*
X176990142Y-106801904D01*
X177028238Y-106725713D01*
X177066333Y-106687618D01*
X177142523Y-106649523D01*
X177218714Y-106649523D01*
X177294904Y-106687618D01*
X177333000Y-106725713D01*
X177371095Y-106801904D01*
X177371095Y-106992380D01*
X177333000Y-107106666D01*
X137811904Y-94689523D02*
X137811904Y-94232380D01*
X138611904Y-94460952D02*
X137811904Y-94460952D01*
X137811904Y-94041904D02*
X138611904Y-93508571D01*
X137811904Y-93508571D02*
X138611904Y-94041904D01*
X138611904Y-93203809D02*
X137811904Y-93203809D01*
X137811904Y-93013333D01*
X137850000Y-92899047D01*
X137926190Y-92822857D01*
X138002380Y-92784761D01*
X138154761Y-92746666D01*
X138269047Y-92746666D01*
X138421428Y-92784761D01*
X138497619Y-92822857D01*
X138573809Y-92899047D01*
X138611904Y-93013333D01*
X138611904Y-93203809D01*
X172338095Y-93090476D02*
X172338095Y-92709523D01*
X171957142Y-92671428D01*
X171995238Y-92709523D01*
X172033333Y-92785714D01*
X172033333Y-92976190D01*
X171995238Y-93052380D01*
X171957142Y-93090476D01*
X171880952Y-93128571D01*
X171690476Y-93128571D01*
X171614285Y-93090476D01*
X171576190Y-93052380D01*
X171538095Y-92976190D01*
X171538095Y-92785714D01*
X171576190Y-92709523D01*
X171614285Y-92671428D01*
X172338095Y-93357142D02*
X171538095Y-93623809D01*
X172338095Y-93890476D01*
X148778904Y-107084286D02*
X147978904Y-107084286D01*
X147978904Y-106893810D01*
X148017000Y-106779524D01*
X148093190Y-106703333D01*
X148169380Y-106665238D01*
X148321761Y-106627143D01*
X148436047Y-106627143D01*
X148588428Y-106665238D01*
X148664619Y-106703333D01*
X148740809Y-106779524D01*
X148778904Y-106893810D01*
X148778904Y-107084286D01*
X148740809Y-106322381D02*
X148778904Y-106208095D01*
X148778904Y-106017619D01*
X148740809Y-105941429D01*
X148702714Y-105903333D01*
X148626523Y-105865238D01*
X148550333Y-105865238D01*
X148474142Y-105903333D01*
X148436047Y-105941429D01*
X148397952Y-106017619D01*
X148359857Y-106170000D01*
X148321761Y-106246190D01*
X148283666Y-106284286D01*
X148207476Y-106322381D01*
X148131285Y-106322381D01*
X148055095Y-106284286D01*
X148017000Y-106246190D01*
X147978904Y-106170000D01*
X147978904Y-105979524D01*
X148017000Y-105865238D01*
X148778904Y-105065238D02*
X148397952Y-105331905D01*
X148778904Y-105522381D02*
X147978904Y-105522381D01*
X147978904Y-105217619D01*
X148017000Y-105141429D01*
X148055095Y-105103333D01*
X148131285Y-105065238D01*
X148245571Y-105065238D01*
X148321761Y-105103333D01*
X148359857Y-105141429D01*
X148397952Y-105217619D01*
X148397952Y-105522381D01*
D12*
X129511904Y-106352380D02*
X129511904Y-106733333D01*
X129892857Y-106771428D01*
X129854761Y-106733333D01*
X129816666Y-106657142D01*
X129816666Y-106466666D01*
X129854761Y-106390476D01*
X129892857Y-106352380D01*
X129969047Y-106314285D01*
X130159523Y-106314285D01*
X130235714Y-106352380D01*
X130273809Y-106390476D01*
X130311904Y-106466666D01*
X130311904Y-106657142D01*
X130273809Y-106733333D01*
X130235714Y-106771428D01*
X129511904Y-106085714D02*
X130311904Y-105819047D01*
X129511904Y-105552380D01*
D11*
X150521904Y-106582380D02*
X150521904Y-106963333D01*
X150902857Y-107001428D01*
X150864761Y-106963333D01*
X150826666Y-106887142D01*
X150826666Y-106696666D01*
X150864761Y-106620476D01*
X150902857Y-106582380D01*
X150979047Y-106544285D01*
X151169523Y-106544285D01*
X151245714Y-106582380D01*
X151283809Y-106620476D01*
X151321904Y-106696666D01*
X151321904Y-106887142D01*
X151283809Y-106963333D01*
X151245714Y-107001428D01*
X150521904Y-106315714D02*
X151321904Y-106049047D01*
X150521904Y-105782380D01*
X141140304Y-94308571D02*
X140759352Y-94575238D01*
X141140304Y-94765714D02*
X140340304Y-94765714D01*
X140340304Y-94460952D01*
X140378400Y-94384761D01*
X140416495Y-94346666D01*
X140492685Y-94308571D01*
X140606971Y-94308571D01*
X140683161Y-94346666D01*
X140721257Y-94384761D01*
X140759352Y-94460952D01*
X140759352Y-94765714D01*
X140340304Y-94041904D02*
X141140304Y-93508571D01*
X140340304Y-93508571D02*
X141140304Y-94041904D01*
X141140304Y-93203809D02*
X140340304Y-93203809D01*
X140340304Y-93013333D01*
X140378400Y-92899047D01*
X140454590Y-92822857D01*
X140530780Y-92784761D01*
X140683161Y-92746666D01*
X140797447Y-92746666D01*
X140949828Y-92784761D01*
X141026019Y-92822857D01*
X141102209Y-92899047D01*
X141140304Y-93013333D01*
X141140304Y-93203809D01*
D10*
X140926666Y-107116333D02*
X140926666Y-106783000D01*
X141126666Y-107183000D02*
X140426666Y-106949666D01*
X141126666Y-106716333D01*
X141060000Y-106083000D02*
X141093333Y-106116333D01*
X141126666Y-106216333D01*
X141126666Y-106283000D01*
X141093333Y-106383000D01*
X141026666Y-106449666D01*
X140960000Y-106483000D01*
X140826666Y-106516333D01*
X140726666Y-106516333D01*
X140593333Y-106483000D01*
X140526666Y-106449666D01*
X140460000Y-106383000D01*
X140426666Y-106283000D01*
X140426666Y-106216333D01*
X140460000Y-106116333D01*
X140493333Y-106083000D01*
X140426666Y-105883000D02*
X140426666Y-105483000D01*
X141126666Y-105683000D02*
X140426666Y-105683000D01*
X140660000Y-105283000D02*
X140660000Y-104783000D01*
X140360000Y-105083000D02*
X141260000Y-105283000D01*
X140960000Y-104849666D02*
X140960000Y-105349666D01*
X141260000Y-105049666D02*
X140360000Y-104849666D01*
D11*
X176598095Y-92709524D02*
X177398095Y-92709524D01*
X177398095Y-92900000D01*
X177360000Y-93014286D01*
X177283809Y-93090476D01*
X177207619Y-93128571D01*
X177055238Y-93166667D01*
X176940952Y-93166667D01*
X176788571Y-93128571D01*
X176712380Y-93090476D01*
X176636190Y-93014286D01*
X176598095Y-92900000D01*
X176598095Y-92709524D01*
X177398095Y-93395238D02*
X177398095Y-93852381D01*
X176598095Y-93623810D02*
X177398095Y-93623810D01*
X176598095Y-94576190D02*
X176979047Y-94309524D01*
X176598095Y-94119048D02*
X177398095Y-94119048D01*
X177398095Y-94423810D01*
X177360000Y-94500000D01*
X177321904Y-94538095D01*
X177245714Y-94576190D01*
X177131428Y-94576190D01*
X177055238Y-94538095D01*
X177017142Y-94500000D01*
X176979047Y-94423810D01*
X176979047Y-94119048D01*
D10*
X186743662Y-92560675D02*
X186667140Y-92651871D01*
X186606553Y-92538871D02*
X186667140Y-92651871D01*
X186788945Y-92691915D01*
X186551205Y-92678914D02*
X186667140Y-92651871D01*
X186660640Y-92770741D01*
X186656443Y-93109112D02*
X186695856Y-93173265D01*
X186787052Y-93249787D01*
X186838834Y-93262157D01*
X186872378Y-93259222D01*
X186921226Y-93238048D01*
X186951835Y-93201570D01*
X186964205Y-93149787D01*
X186961270Y-93116243D01*
X186940096Y-93067395D01*
X186882444Y-92987938D01*
X186861270Y-92939090D01*
X186858336Y-92905547D01*
X186870705Y-92853764D01*
X186901314Y-92817286D01*
X186950162Y-92796112D01*
X186983706Y-92793177D01*
X187035489Y-92805547D01*
X187126684Y-92882069D01*
X187166097Y-92946222D01*
X187345554Y-93065723D02*
X187085378Y-93375788D01*
X187073009Y-93427571D01*
X187075943Y-93461115D01*
X187097117Y-93509963D01*
X187170074Y-93571181D01*
X187221857Y-93583551D01*
X187255400Y-93580616D01*
X187304248Y-93559442D01*
X187564424Y-93249376D01*
X187422487Y-93751900D02*
X187461900Y-93816052D01*
X187553096Y-93892575D01*
X187604879Y-93904944D01*
X187638422Y-93902010D01*
X187687270Y-93880836D01*
X187717879Y-93844358D01*
X187730249Y-93792575D01*
X187727314Y-93759031D01*
X187706141Y-93710183D01*
X187648488Y-93630726D01*
X187627315Y-93581878D01*
X187624380Y-93548334D01*
X187636750Y-93496552D01*
X187667359Y-93460073D01*
X187716207Y-93438899D01*
X187749750Y-93435965D01*
X187801533Y-93448334D01*
X187892729Y-93524857D01*
X187932142Y-93589009D01*
X187790205Y-94091533D02*
X188111599Y-93708510D01*
X188257512Y-93830946D01*
X188278686Y-93879794D01*
X188281621Y-93913338D01*
X188269251Y-93965121D01*
X188223337Y-94019838D01*
X188174489Y-94041012D01*
X188140946Y-94043947D01*
X188089163Y-94031577D01*
X187943250Y-93909141D01*
X188341576Y-94212296D02*
X188469250Y-94319427D01*
X188355619Y-94565971D02*
X188173227Y-94412926D01*
X188494621Y-94029904D01*
X188677013Y-94182949D01*
X188519771Y-94703711D02*
X188841165Y-94320689D01*
X188738641Y-94887365D01*
X189060035Y-94504343D01*
X188921032Y-95040410D02*
X189242426Y-94657387D01*
X189333622Y-94733910D01*
X189373035Y-94798062D01*
X189378904Y-94865149D01*
X189366535Y-94916932D01*
X189323556Y-95005193D01*
X189277643Y-95059911D01*
X189198185Y-95117563D01*
X189149337Y-95138737D01*
X189082250Y-95144606D01*
X189012228Y-95116932D01*
X188921032Y-95040410D01*
D11*
X169760000Y-93040476D02*
X169798095Y-92964285D01*
X169798095Y-92850000D01*
X169760000Y-92735714D01*
X169683809Y-92659523D01*
X169607619Y-92621428D01*
X169455238Y-92583333D01*
X169340952Y-92583333D01*
X169188571Y-92621428D01*
X169112380Y-92659523D01*
X169036190Y-92735714D01*
X168998095Y-92850000D01*
X168998095Y-92926190D01*
X169036190Y-93040476D01*
X169074285Y-93078571D01*
X169340952Y-93078571D01*
X169340952Y-92926190D01*
X168998095Y-93421428D02*
X169798095Y-93421428D01*
X168998095Y-93878571D01*
X169798095Y-93878571D01*
X168998095Y-94259523D02*
X169798095Y-94259523D01*
X169798095Y-94450000D01*
X169760000Y-94564285D01*
X169683809Y-94640476D01*
X169607619Y-94678571D01*
X169455238Y-94716666D01*
X169340952Y-94716666D01*
X169188571Y-94678571D01*
X169112380Y-94640476D01*
X169036190Y-94564285D01*
X168998095Y-94450000D01*
X168998095Y-94259523D01*
X150531904Y-94689523D02*
X150531904Y-94194285D01*
X150836666Y-94460951D01*
X150836666Y-94346666D01*
X150874761Y-94270475D01*
X150912857Y-94232380D01*
X150989047Y-94194285D01*
X151179523Y-94194285D01*
X151255714Y-94232380D01*
X151293809Y-94270475D01*
X151331904Y-94346666D01*
X151331904Y-94575237D01*
X151293809Y-94651427D01*
X151255714Y-94689523D01*
X150531904Y-93965713D02*
X151331904Y-93699047D01*
X150531904Y-93432380D01*
X150531904Y-93241904D02*
X150531904Y-92746666D01*
X150836666Y-93013332D01*
X150836666Y-92899047D01*
X150874761Y-92822856D01*
X150912857Y-92784761D01*
X150989047Y-92746666D01*
X151179523Y-92746666D01*
X151255714Y-92784761D01*
X151293809Y-92822856D01*
X151331904Y-92899047D01*
X151331904Y-93127618D01*
X151293809Y-93203808D01*
X151255714Y-93241904D01*
X146238904Y-107084285D02*
X145438904Y-107084285D01*
X145438904Y-106893809D01*
X145477000Y-106779523D01*
X145553190Y-106703333D01*
X145629380Y-106665238D01*
X145781761Y-106627142D01*
X145896047Y-106627142D01*
X146048428Y-106665238D01*
X146124619Y-106703333D01*
X146200809Y-106779523D01*
X146238904Y-106893809D01*
X146238904Y-107084285D01*
X145438904Y-106398571D02*
X145438904Y-105941428D01*
X146238904Y-106170000D02*
X145438904Y-106170000D01*
X146238904Y-105217619D02*
X145857952Y-105484285D01*
X146238904Y-105674761D02*
X145438904Y-105674761D01*
X145438904Y-105370000D01*
X145477000Y-105293809D01*
X145515095Y-105255714D01*
X145591285Y-105217619D01*
X145705571Y-105217619D01*
X145781761Y-105255714D01*
X145819857Y-105293809D01*
X145857952Y-105370000D01*
X145857952Y-105674761D01*
X146220304Y-94118095D02*
X145839352Y-94384761D01*
X146220304Y-94575238D02*
X145420304Y-94575238D01*
X145420304Y-94270476D01*
X145458400Y-94194285D01*
X145496495Y-94156190D01*
X145572685Y-94118095D01*
X145686971Y-94118095D01*
X145763161Y-94156190D01*
X145801257Y-94194285D01*
X145839352Y-94270476D01*
X145839352Y-94575238D01*
X145420304Y-93889523D02*
X145420304Y-93432380D01*
X146220304Y-93660952D02*
X145420304Y-93660952D01*
X146182209Y-93203809D02*
X146220304Y-93089523D01*
X146220304Y-92899047D01*
X146182209Y-92822857D01*
X146144114Y-92784761D01*
X146067923Y-92746666D01*
X145991733Y-92746666D01*
X145915542Y-92784761D01*
X145877447Y-92822857D01*
X145839352Y-92899047D01*
X145801257Y-93051428D01*
X145763161Y-93127619D01*
X145725066Y-93165714D01*
X145648876Y-93203809D01*
X145572685Y-93203809D01*
X145496495Y-93165714D01*
X145458400Y-93127619D01*
X145420304Y-93051428D01*
X145420304Y-92860952D01*
X145458400Y-92746666D01*
X174117285Y-105735237D02*
X174079190Y-105697142D01*
X174041095Y-105582856D01*
X174041095Y-105506666D01*
X174079190Y-105392380D01*
X174155380Y-105316190D01*
X174231571Y-105278094D01*
X174383952Y-105239999D01*
X174498238Y-105239999D01*
X174650619Y-105278094D01*
X174726809Y-105316190D01*
X174803000Y-105392380D01*
X174841095Y-105506666D01*
X174841095Y-105582856D01*
X174803000Y-105697142D01*
X174764904Y-105735237D01*
X174841095Y-105963809D02*
X174841095Y-106420952D01*
X174041095Y-106192380D02*
X174841095Y-106192380D01*
X174079190Y-106649523D02*
X174041095Y-106763809D01*
X174041095Y-106954285D01*
X174079190Y-107030475D01*
X174117285Y-107068571D01*
X174193476Y-107106666D01*
X174269666Y-107106666D01*
X174345857Y-107068571D01*
X174383952Y-107030475D01*
X174422047Y-106954285D01*
X174460142Y-106801904D01*
X174498238Y-106725713D01*
X174536333Y-106687618D01*
X174612523Y-106649523D01*
X174688714Y-106649523D01*
X174764904Y-106687618D01*
X174803000Y-106725713D01*
X174841095Y-106801904D01*
X174841095Y-106992380D01*
X174803000Y-107106666D01*
D12*
X134611904Y-106790476D02*
X134611904Y-106295238D01*
X134916666Y-106561904D01*
X134916666Y-106447619D01*
X134954761Y-106371428D01*
X134992857Y-106333333D01*
X135069047Y-106295238D01*
X135259523Y-106295238D01*
X135335714Y-106333333D01*
X135373809Y-106371428D01*
X135411904Y-106447619D01*
X135411904Y-106676190D01*
X135373809Y-106752380D01*
X135335714Y-106790476D01*
X134611904Y-106066666D02*
X135411904Y-105800000D01*
X134611904Y-105533333D01*
X134611904Y-105342857D02*
X134611904Y-104847619D01*
X134916666Y-105114285D01*
X134916666Y-105000000D01*
X134954761Y-104923809D01*
X134992857Y-104885714D01*
X135069047Y-104847619D01*
X135259523Y-104847619D01*
X135335714Y-104885714D01*
X135373809Y-104923809D01*
X135411904Y-105000000D01*
X135411904Y-105228571D01*
X135373809Y-105304761D01*
X135335714Y-105342857D01*
D11*
X181641095Y-105484761D02*
X182022047Y-105218095D01*
X181641095Y-105027618D02*
X182441095Y-105027618D01*
X182441095Y-105332380D01*
X182403000Y-105408571D01*
X182364904Y-105446666D01*
X182288714Y-105484761D01*
X182174428Y-105484761D01*
X182098238Y-105446666D01*
X182060142Y-105408571D01*
X182022047Y-105332380D01*
X182022047Y-105027618D01*
X182441095Y-105751428D02*
X181641095Y-106284761D01*
X182441095Y-106284761D02*
X181641095Y-105751428D01*
X181641095Y-106589523D02*
X182441095Y-106589523D01*
X182441095Y-106779999D01*
X182403000Y-106894285D01*
X182326809Y-106970475D01*
X182250619Y-107008571D01*
X182098238Y-107046666D01*
X181983952Y-107046666D01*
X181831571Y-107008571D01*
X181755380Y-106970475D01*
X181679190Y-106894285D01*
X181641095Y-106779999D01*
X181641095Y-106589523D01*
X143680304Y-93127618D02*
X143299352Y-93394284D01*
X143680304Y-93584761D02*
X142880304Y-93584761D01*
X142880304Y-93279999D01*
X142918400Y-93203808D01*
X142956495Y-93165713D01*
X143032685Y-93127618D01*
X143146971Y-93127618D01*
X143223161Y-93165713D01*
X143261257Y-93203808D01*
X143299352Y-93279999D01*
X143299352Y-93584761D01*
X143680304Y-92784761D02*
X142880304Y-92784761D01*
X184974095Y-105103809D02*
X184974095Y-105560952D01*
X184174095Y-105332380D02*
X184974095Y-105332380D01*
X184974095Y-105751428D02*
X184174095Y-106284761D01*
X184974095Y-106284761D02*
X184174095Y-105751428D01*
X184174095Y-106589523D02*
X184974095Y-106589523D01*
X184974095Y-106779999D01*
X184936000Y-106894285D01*
X184859809Y-106970475D01*
X184783619Y-107008571D01*
X184631238Y-107046666D01*
X184516952Y-107046666D01*
X184364571Y-107008571D01*
X184288380Y-106970475D01*
X184212190Y-106894285D01*
X184174095Y-106779999D01*
X184174095Y-106589523D01*
X174068095Y-92709523D02*
X174868095Y-92709523D01*
X174868095Y-92900000D01*
X174830000Y-93014285D01*
X174753809Y-93090476D01*
X174677619Y-93128571D01*
X174525238Y-93166666D01*
X174410952Y-93166666D01*
X174258571Y-93128571D01*
X174182380Y-93090476D01*
X174106190Y-93014285D01*
X174068095Y-92900000D01*
X174068095Y-92709523D01*
X174106190Y-93471428D02*
X174068095Y-93585714D01*
X174068095Y-93776190D01*
X174106190Y-93852380D01*
X174144285Y-93890476D01*
X174220476Y-93928571D01*
X174296666Y-93928571D01*
X174372857Y-93890476D01*
X174410952Y-93852380D01*
X174449047Y-93776190D01*
X174487142Y-93623809D01*
X174525238Y-93547619D01*
X174563333Y-93509523D01*
X174639523Y-93471428D01*
X174715714Y-93471428D01*
X174791904Y-93509523D01*
X174830000Y-93547619D01*
X174868095Y-93623809D01*
X174868095Y-93814285D01*
X174830000Y-93928571D01*
X174068095Y-94728571D02*
X174449047Y-94461904D01*
X174068095Y-94271428D02*
X174868095Y-94271428D01*
X174868095Y-94576190D01*
X174830000Y-94652380D01*
X174791904Y-94690476D01*
X174715714Y-94728571D01*
X174601428Y-94728571D01*
X174525238Y-94690476D01*
X174487142Y-94652380D01*
X174449047Y-94576190D01*
X174449047Y-94271428D01*
X148705714Y-94118095D02*
X148743809Y-94156190D01*
X148781904Y-94270476D01*
X148781904Y-94346666D01*
X148743809Y-94460952D01*
X148667619Y-94537142D01*
X148591428Y-94575238D01*
X148439047Y-94613333D01*
X148324761Y-94613333D01*
X148172380Y-94575238D01*
X148096190Y-94537142D01*
X148020000Y-94460952D01*
X147981904Y-94346666D01*
X147981904Y-94270476D01*
X148020000Y-94156190D01*
X148058095Y-94118095D01*
X147981904Y-93889523D02*
X147981904Y-93432380D01*
X148781904Y-93660952D02*
X147981904Y-93660952D01*
X148743809Y-93203809D02*
X148781904Y-93089523D01*
X148781904Y-92899047D01*
X148743809Y-92822857D01*
X148705714Y-92784761D01*
X148629523Y-92746666D01*
X148553333Y-92746666D01*
X148477142Y-92784761D01*
X148439047Y-92822857D01*
X148400952Y-92899047D01*
X148362857Y-93051428D01*
X148324761Y-93127619D01*
X148286666Y-93165714D01*
X148210476Y-93203809D01*
X148134285Y-93203809D01*
X148058095Y-93165714D01*
X148020000Y-93127619D01*
X147981904Y-93051428D01*
X147981904Y-92860952D01*
X148020000Y-92746666D01*
D12*
X166305714Y-96474904D02*
X166305714Y-95674904D01*
X166496190Y-95674904D01*
X166610476Y-95713000D01*
X166686666Y-95789190D01*
X166724761Y-95865380D01*
X166762857Y-96017761D01*
X166762857Y-96132047D01*
X166724761Y-96284428D01*
X166686666Y-96360619D01*
X166610476Y-96436809D01*
X166496190Y-96474904D01*
X166305714Y-96474904D01*
X166991428Y-95674904D02*
X167448571Y-95674904D01*
X167220000Y-96474904D02*
X167220000Y-95674904D01*
X168172380Y-96474904D02*
X167905714Y-96093952D01*
X167715238Y-96474904D02*
X167715238Y-95674904D01*
X168020000Y-95674904D01*
X168096190Y-95713000D01*
X168134285Y-95751095D01*
X168172380Y-95827285D01*
X168172380Y-95941571D01*
X168134285Y-96017761D01*
X168096190Y-96055857D01*
X168020000Y-96093952D01*
X167715238Y-96093952D01*
D11*
X179111095Y-106725714D02*
X179492047Y-106459048D01*
X179111095Y-106268572D02*
X179911095Y-106268572D01*
X179911095Y-106573333D01*
X179873000Y-106649524D01*
X179834904Y-106687619D01*
X179758714Y-106725714D01*
X179644428Y-106725714D01*
X179568238Y-106687619D01*
X179530142Y-106649524D01*
X179492047Y-106573333D01*
X179492047Y-106268572D01*
X179111095Y-107068572D02*
X179911095Y-107068572D01*
D12*
X166762856Y-99012904D02*
X166496190Y-98631952D01*
X166305713Y-99012904D02*
X166305713Y-98212904D01*
X166610475Y-98212904D01*
X166686666Y-98251000D01*
X166724761Y-98289095D01*
X166762856Y-98365285D01*
X166762856Y-98479571D01*
X166724761Y-98555761D01*
X166686666Y-98593857D01*
X166610475Y-98631952D01*
X166305713Y-98631952D01*
X167029523Y-98212904D02*
X167562856Y-99012904D01*
X167562856Y-98212904D02*
X167029523Y-99012904D01*
X167867618Y-99012904D02*
X167867618Y-98212904D01*
X168058094Y-98212904D01*
X168172380Y-98251000D01*
X168248570Y-98327190D01*
X168286666Y-98403380D01*
X168324761Y-98555761D01*
X168324761Y-98670047D01*
X168286666Y-98822428D01*
X168248570Y-98898619D01*
X168172380Y-98974809D01*
X168058094Y-99012904D01*
X167867618Y-99012904D01*
X166762856Y-104082904D02*
X166496190Y-103701952D01*
X166305713Y-104082904D02*
X166305713Y-103282904D01*
X166610475Y-103282904D01*
X166686666Y-103321000D01*
X166724761Y-103359095D01*
X166762856Y-103435285D01*
X166762856Y-103549571D01*
X166724761Y-103625761D01*
X166686666Y-103663857D01*
X166610475Y-103701952D01*
X166305713Y-103701952D01*
X166991428Y-103282904D02*
X167448571Y-103282904D01*
X167219999Y-104082904D02*
X167219999Y-103282904D01*
X167677142Y-104044809D02*
X167791428Y-104082904D01*
X167981904Y-104082904D01*
X168058094Y-104044809D01*
X168096190Y-104006714D01*
X168134285Y-103930523D01*
X168134285Y-103854333D01*
X168096190Y-103778142D01*
X168058094Y-103740047D01*
X167981904Y-103701952D01*
X167829523Y-103663857D01*
X167753332Y-103625761D01*
X167715237Y-103587666D01*
X167677142Y-103511476D01*
X167677142Y-103435285D01*
X167715237Y-103359095D01*
X167753332Y-103321000D01*
X167829523Y-103282904D01*
X168019999Y-103282904D01*
X168134285Y-103321000D01*
X187984761Y-109437142D02*
X187937142Y-109484761D01*
X187794285Y-109532380D01*
X187699047Y-109532380D01*
X187556190Y-109484761D01*
X187460952Y-109389523D01*
X187413333Y-109294285D01*
X187365714Y-109103809D01*
X187365714Y-108960952D01*
X187413333Y-108770476D01*
X187460952Y-108675238D01*
X187556190Y-108580000D01*
X187699047Y-108532380D01*
X187794285Y-108532380D01*
X187937142Y-108580000D01*
X187984761Y-108627619D01*
X188413333Y-109532380D02*
X188413333Y-108532380D01*
X188794285Y-108532380D01*
X188889523Y-108580000D01*
X188937142Y-108627619D01*
X188984761Y-108722857D01*
X188984761Y-108865714D01*
X188937142Y-108960952D01*
X188889523Y-109008571D01*
X188794285Y-109056190D01*
X188413333Y-109056190D01*
X189365714Y-108627619D02*
X189413333Y-108580000D01*
X189508571Y-108532380D01*
X189746666Y-108532380D01*
X189841904Y-108580000D01*
X189889523Y-108627619D01*
X189937142Y-108722857D01*
X189937142Y-108818095D01*
X189889523Y-108960952D01*
X189318095Y-109532380D01*
X189937142Y-109532380D01*
X190889523Y-109532380D02*
X190318095Y-109532380D01*
X190603809Y-109532380D02*
X190603809Y-108532380D01*
X190508571Y-108675238D01*
X190413333Y-108770476D01*
X190318095Y-108818095D01*
X191508571Y-108532380D02*
X191603809Y-108532380D01*
X191699047Y-108580000D01*
X191746666Y-108627619D01*
X191794285Y-108722857D01*
X191841904Y-108913333D01*
X191841904Y-109151428D01*
X191794285Y-109341904D01*
X191746666Y-109437142D01*
X191699047Y-109484761D01*
X191603809Y-109532380D01*
X191508571Y-109532380D01*
X191413333Y-109484761D01*
X191365714Y-109437142D01*
X191318095Y-109341904D01*
X191270476Y-109151428D01*
X191270476Y-108913333D01*
X191318095Y-108722857D01*
X191365714Y-108627619D01*
X191413333Y-108580000D01*
X191508571Y-108532380D01*
X192222857Y-108627619D02*
X192270476Y-108580000D01*
X192365714Y-108532380D01*
X192603809Y-108532380D01*
X192699047Y-108580000D01*
X192746666Y-108627619D01*
X192794285Y-108722857D01*
X192794285Y-108818095D01*
X192746666Y-108960952D01*
X192175238Y-109532380D01*
X192794285Y-109532380D01*
D13*
%TO.C,*%
D10*
%TO.C,R8*%
X182223333Y-102816666D02*
X181990000Y-102483333D01*
X181823333Y-102816666D02*
X181823333Y-102116666D01*
X182090000Y-102116666D01*
X182156666Y-102150000D01*
X182190000Y-102183333D01*
X182223333Y-102250000D01*
X182223333Y-102350000D01*
X182190000Y-102416666D01*
X182156666Y-102450000D01*
X182090000Y-102483333D01*
X181823333Y-102483333D01*
X182623333Y-102416666D02*
X182556666Y-102383333D01*
X182523333Y-102350000D01*
X182490000Y-102283333D01*
X182490000Y-102250000D01*
X182523333Y-102183333D01*
X182556666Y-102150000D01*
X182623333Y-102116666D01*
X182756666Y-102116666D01*
X182823333Y-102150000D01*
X182856666Y-102183333D01*
X182890000Y-102250000D01*
X182890000Y-102283333D01*
X182856666Y-102350000D01*
X182823333Y-102383333D01*
X182756666Y-102416666D01*
X182623333Y-102416666D01*
X182556666Y-102450000D01*
X182523333Y-102483333D01*
X182490000Y-102550000D01*
X182490000Y-102683333D01*
X182523333Y-102750000D01*
X182556666Y-102783333D01*
X182623333Y-102816666D01*
X182756666Y-102816666D01*
X182823333Y-102783333D01*
X182856666Y-102750000D01*
X182890000Y-102683333D01*
X182890000Y-102550000D01*
X182856666Y-102483333D01*
X182823333Y-102450000D01*
X182756666Y-102416666D01*
%TO.C,R9*%
X138713333Y-97626666D02*
X138480000Y-97293333D01*
X138313333Y-97626666D02*
X138313333Y-96926666D01*
X138580000Y-96926666D01*
X138646666Y-96960000D01*
X138680000Y-96993333D01*
X138713333Y-97060000D01*
X138713333Y-97160000D01*
X138680000Y-97226666D01*
X138646666Y-97260000D01*
X138580000Y-97293333D01*
X138313333Y-97293333D01*
X139046666Y-97626666D02*
X139180000Y-97626666D01*
X139246666Y-97593333D01*
X139280000Y-97560000D01*
X139346666Y-97460000D01*
X139380000Y-97326666D01*
X139380000Y-97060000D01*
X139346666Y-96993333D01*
X139313333Y-96960000D01*
X139246666Y-96926666D01*
X139113333Y-96926666D01*
X139046666Y-96960000D01*
X139013333Y-96993333D01*
X138980000Y-97060000D01*
X138980000Y-97226666D01*
X139013333Y-97293333D01*
X139046666Y-97326666D01*
X139113333Y-97360000D01*
X139246666Y-97360000D01*
X139313333Y-97326666D01*
X139346666Y-97293333D01*
X139380000Y-97226666D01*
%TO.C,F2*%
X192556666Y-106850000D02*
X192323333Y-106850000D01*
X192323333Y-107216666D02*
X192323333Y-106516666D01*
X192656666Y-106516666D01*
X192890000Y-106583333D02*
X192923333Y-106550000D01*
X192990000Y-106516666D01*
X193156666Y-106516666D01*
X193223333Y-106550000D01*
X193256666Y-106583333D01*
X193290000Y-106650000D01*
X193290000Y-106716666D01*
X193256666Y-106816666D01*
X192856666Y-107216666D01*
X193290000Y-107216666D01*
%TO.C,R7*%
X182223333Y-104266666D02*
X181990000Y-103933333D01*
X181823333Y-104266666D02*
X181823333Y-103566666D01*
X182090000Y-103566666D01*
X182156666Y-103600000D01*
X182190000Y-103633333D01*
X182223333Y-103700000D01*
X182223333Y-103800000D01*
X182190000Y-103866666D01*
X182156666Y-103900000D01*
X182090000Y-103933333D01*
X181823333Y-103933333D01*
X182456666Y-103566666D02*
X182923333Y-103566666D01*
X182623333Y-104266666D01*
%TO.C,C2*%
X182223333Y-96070000D02*
X182190000Y-96103333D01*
X182090000Y-96136666D01*
X182023333Y-96136666D01*
X181923333Y-96103333D01*
X181856666Y-96036666D01*
X181823333Y-95970000D01*
X181790000Y-95836666D01*
X181790000Y-95736666D01*
X181823333Y-95603333D01*
X181856666Y-95536666D01*
X181923333Y-95470000D01*
X182023333Y-95436666D01*
X182090000Y-95436666D01*
X182190000Y-95470000D01*
X182223333Y-95503333D01*
X182490000Y-95503333D02*
X182523333Y-95470000D01*
X182590000Y-95436666D01*
X182756666Y-95436666D01*
X182823333Y-95470000D01*
X182856666Y-95503333D01*
X182890000Y-95570000D01*
X182890000Y-95636666D01*
X182856666Y-95736666D01*
X182456666Y-96136666D01*
X182890000Y-96136666D01*
%TO.C,D2*%
X172653333Y-97454666D02*
X172653333Y-96754666D01*
X172820000Y-96754666D01*
X172920000Y-96788000D01*
X172986666Y-96854666D01*
X173020000Y-96921333D01*
X173053333Y-97054666D01*
X173053333Y-97154666D01*
X173020000Y-97288000D01*
X172986666Y-97354666D01*
X172920000Y-97421333D01*
X172820000Y-97454666D01*
X172653333Y-97454666D01*
X173320000Y-96821333D02*
X173353333Y-96788000D01*
X173420000Y-96754666D01*
X173586666Y-96754666D01*
X173653333Y-96788000D01*
X173686666Y-96821333D01*
X173720000Y-96888000D01*
X173720000Y-96954666D01*
X173686666Y-97054666D01*
X173286666Y-97454666D01*
X173720000Y-97454666D01*
%TO.C,R6*%
X150373333Y-101593334D02*
X150140000Y-101260001D01*
X149973333Y-101593334D02*
X149973333Y-100893334D01*
X150240000Y-100893334D01*
X150306666Y-100926668D01*
X150340000Y-100960001D01*
X150373333Y-101026668D01*
X150373333Y-101126668D01*
X150340000Y-101193334D01*
X150306666Y-101226668D01*
X150240000Y-101260001D01*
X149973333Y-101260001D01*
X150973333Y-100893334D02*
X150840000Y-100893334D01*
X150773333Y-100926668D01*
X150740000Y-100960001D01*
X150673333Y-101060001D01*
X150640000Y-101193334D01*
X150640000Y-101460001D01*
X150673333Y-101526668D01*
X150706666Y-101560001D01*
X150773333Y-101593334D01*
X150906666Y-101593334D01*
X150973333Y-101560001D01*
X151006666Y-101526668D01*
X151040000Y-101460001D01*
X151040000Y-101293334D01*
X151006666Y-101226668D01*
X150973333Y-101193334D01*
X150906666Y-101160001D01*
X150773333Y-101160001D01*
X150706666Y-101193334D01*
X150673333Y-101226668D01*
X150640000Y-101293334D01*
%TO.C,F1*%
X128476666Y-92430000D02*
X128243333Y-92430000D01*
X128243333Y-92796666D02*
X128243333Y-92096666D01*
X128576666Y-92096666D01*
X129210000Y-92796666D02*
X128810000Y-92796666D01*
X129010000Y-92796666D02*
X129010000Y-92096666D01*
X128943333Y-92196666D01*
X128876666Y-92263333D01*
X128810000Y-92296666D01*
%TO.C,R5*%
X150373333Y-98986666D02*
X150140000Y-98653333D01*
X149973333Y-98986666D02*
X149973333Y-98286666D01*
X150240000Y-98286666D01*
X150306666Y-98320000D01*
X150340000Y-98353333D01*
X150373333Y-98420000D01*
X150373333Y-98520000D01*
X150340000Y-98586666D01*
X150306666Y-98620000D01*
X150240000Y-98653333D01*
X149973333Y-98653333D01*
X151006666Y-98286666D02*
X150673333Y-98286666D01*
X150640000Y-98620000D01*
X150673333Y-98586666D01*
X150740000Y-98553333D01*
X150906666Y-98553333D01*
X150973333Y-98586666D01*
X151006666Y-98620000D01*
X151040000Y-98686666D01*
X151040000Y-98853333D01*
X151006666Y-98920000D01*
X150973333Y-98953333D01*
X150906666Y-98986666D01*
X150740000Y-98986666D01*
X150673333Y-98953333D01*
X150640000Y-98920000D01*
%TO.C,R10*%
X138713333Y-102946666D02*
X138479999Y-102613333D01*
X138313333Y-102946666D02*
X138313333Y-102246666D01*
X138579999Y-102246666D01*
X138646666Y-102280000D01*
X138679999Y-102313333D01*
X138713333Y-102380000D01*
X138713333Y-102480000D01*
X138679999Y-102546666D01*
X138646666Y-102580000D01*
X138579999Y-102613333D01*
X138313333Y-102613333D01*
X139379999Y-102946666D02*
X138979999Y-102946666D01*
X139179999Y-102946666D02*
X139179999Y-102246666D01*
X139113333Y-102346666D01*
X139046666Y-102413333D01*
X138979999Y-102446666D01*
X139813333Y-102246666D02*
X139879999Y-102246666D01*
X139946666Y-102280000D01*
X139979999Y-102313333D01*
X140013333Y-102380000D01*
X140046666Y-102513333D01*
X140046666Y-102680000D01*
X140013333Y-102813333D01*
X139979999Y-102880000D01*
X139946666Y-102913333D01*
X139879999Y-102946666D01*
X139813333Y-102946666D01*
X139746666Y-102913333D01*
X139713333Y-102880000D01*
X139679999Y-102813333D01*
X139646666Y-102680000D01*
X139646666Y-102513333D01*
X139679999Y-102380000D01*
X139713333Y-102313333D01*
X139746666Y-102280000D01*
X139813333Y-102246666D01*
%TO.C,USB2*%
X193733333Y-98641666D02*
X193166666Y-98641666D01*
X193100000Y-98675000D01*
X193066666Y-98708333D01*
X193033333Y-98775000D01*
X193033333Y-98908333D01*
X193066666Y-98975000D01*
X193100000Y-99008333D01*
X193166666Y-99041666D01*
X193733333Y-99041666D01*
X193066666Y-99341666D02*
X193033333Y-99441666D01*
X193033333Y-99608333D01*
X193066666Y-99675000D01*
X193100000Y-99708333D01*
X193166666Y-99741666D01*
X193233333Y-99741666D01*
X193300000Y-99708333D01*
X193333333Y-99675000D01*
X193366666Y-99608333D01*
X193400000Y-99475000D01*
X193433333Y-99408333D01*
X193466666Y-99375000D01*
X193533333Y-99341666D01*
X193600000Y-99341666D01*
X193666666Y-99375000D01*
X193700000Y-99408333D01*
X193733333Y-99475000D01*
X193733333Y-99641666D01*
X193700000Y-99741666D01*
X193400000Y-100275000D02*
X193366666Y-100375000D01*
X193333333Y-100408333D01*
X193266666Y-100441666D01*
X193166666Y-100441666D01*
X193100000Y-100408333D01*
X193066666Y-100375000D01*
X193033333Y-100308333D01*
X193033333Y-100041666D01*
X193733333Y-100041666D01*
X193733333Y-100275000D01*
X193700000Y-100341666D01*
X193666666Y-100375000D01*
X193600000Y-100408333D01*
X193533333Y-100408333D01*
X193466666Y-100375000D01*
X193433333Y-100341666D01*
X193400000Y-100275000D01*
X193400000Y-100041666D01*
X193666666Y-100708333D02*
X193700000Y-100741666D01*
X193733333Y-100808333D01*
X193733333Y-100975000D01*
X193700000Y-101041666D01*
X193666666Y-101075000D01*
X193600000Y-101108333D01*
X193533333Y-101108333D01*
X193433333Y-101075000D01*
X193033333Y-100675000D01*
X193033333Y-101108333D01*
%TO.C,U1*%
X177183666Y-96147666D02*
X177183666Y-96714333D01*
X177217000Y-96781000D01*
X177250333Y-96814333D01*
X177317000Y-96847666D01*
X177450333Y-96847666D01*
X177517000Y-96814333D01*
X177550333Y-96781000D01*
X177583666Y-96714333D01*
X177583666Y-96147666D01*
X178283666Y-96847666D02*
X177883666Y-96847666D01*
X178083666Y-96847666D02*
X178083666Y-96147666D01*
X178017000Y-96247666D01*
X177950333Y-96314333D01*
X177883666Y-96347666D01*
%TO.C,R1*%
X135876666Y-93406666D02*
X135543333Y-93640000D01*
X135876666Y-93806666D02*
X135176666Y-93806666D01*
X135176666Y-93540000D01*
X135210000Y-93473333D01*
X135243333Y-93440000D01*
X135310000Y-93406666D01*
X135410000Y-93406666D01*
X135476666Y-93440000D01*
X135510000Y-93473333D01*
X135543333Y-93540000D01*
X135543333Y-93806666D01*
X135876666Y-92740000D02*
X135876666Y-93140000D01*
X135876666Y-92940000D02*
X135176666Y-92940000D01*
X135276666Y-93006666D01*
X135343333Y-93073333D01*
X135376666Y-93140000D01*
%TO.C,D5*%
X149973333Y-97363334D02*
X149973333Y-96663334D01*
X150140000Y-96663334D01*
X150240000Y-96696668D01*
X150306666Y-96763334D01*
X150340000Y-96830001D01*
X150373333Y-96963334D01*
X150373333Y-97063334D01*
X150340000Y-97196668D01*
X150306666Y-97263334D01*
X150240000Y-97330001D01*
X150140000Y-97363334D01*
X149973333Y-97363334D01*
X151006666Y-96663334D02*
X150673333Y-96663334D01*
X150640000Y-96996668D01*
X150673333Y-96963334D01*
X150740000Y-96930001D01*
X150906666Y-96930001D01*
X150973333Y-96963334D01*
X151006666Y-96996668D01*
X151040000Y-97063334D01*
X151040000Y-97230001D01*
X151006666Y-97296668D01*
X150973333Y-97330001D01*
X150906666Y-97363334D01*
X150740000Y-97363334D01*
X150673333Y-97330001D01*
X150640000Y-97296668D01*
%TO.C,C5*%
X144633333Y-104310000D02*
X144600000Y-104343333D01*
X144500000Y-104376666D01*
X144433333Y-104376666D01*
X144333333Y-104343333D01*
X144266666Y-104276666D01*
X144233333Y-104210000D01*
X144200000Y-104076666D01*
X144200000Y-103976666D01*
X144233333Y-103843333D01*
X144266666Y-103776666D01*
X144333333Y-103710000D01*
X144433333Y-103676666D01*
X144500000Y-103676666D01*
X144600000Y-103710000D01*
X144633333Y-103743333D01*
X145266666Y-103676666D02*
X144933333Y-103676666D01*
X144900000Y-104010000D01*
X144933333Y-103976666D01*
X145000000Y-103943333D01*
X145166666Y-103943333D01*
X145233333Y-103976666D01*
X145266666Y-104010000D01*
X145300000Y-104076666D01*
X145300000Y-104243333D01*
X145266666Y-104310000D01*
X145233333Y-104343333D01*
X145166666Y-104376666D01*
X145000000Y-104376666D01*
X144933333Y-104343333D01*
X144900000Y-104310000D01*
%TO.C,C7*%
X144643333Y-96490000D02*
X144610000Y-96523333D01*
X144510000Y-96556666D01*
X144443333Y-96556666D01*
X144343333Y-96523333D01*
X144276666Y-96456666D01*
X144243333Y-96390000D01*
X144210000Y-96256666D01*
X144210000Y-96156666D01*
X144243333Y-96023333D01*
X144276666Y-95956666D01*
X144343333Y-95890000D01*
X144443333Y-95856666D01*
X144510000Y-95856666D01*
X144610000Y-95890000D01*
X144643333Y-95923333D01*
X144876666Y-95856666D02*
X145343333Y-95856666D01*
X145043333Y-96556666D01*
%TO.C,R4*%
X192853333Y-93626666D02*
X192620000Y-93293333D01*
X192453333Y-93626666D02*
X192453333Y-92926666D01*
X192720000Y-92926666D01*
X192786666Y-92960000D01*
X192820000Y-92993333D01*
X192853333Y-93060000D01*
X192853333Y-93160000D01*
X192820000Y-93226666D01*
X192786666Y-93260000D01*
X192720000Y-93293333D01*
X192453333Y-93293333D01*
X193453333Y-93160000D02*
X193453333Y-93626666D01*
X193286666Y-92893333D02*
X193120000Y-93393333D01*
X193553333Y-93393333D01*
%TO.C,C4*%
X182223333Y-98990000D02*
X182190000Y-99023333D01*
X182090000Y-99056666D01*
X182023333Y-99056666D01*
X181923333Y-99023333D01*
X181856666Y-98956666D01*
X181823333Y-98890000D01*
X181790000Y-98756666D01*
X181790000Y-98656666D01*
X181823333Y-98523333D01*
X181856666Y-98456666D01*
X181923333Y-98390000D01*
X182023333Y-98356666D01*
X182090000Y-98356666D01*
X182190000Y-98390000D01*
X182223333Y-98423333D01*
X182823333Y-98590000D02*
X182823333Y-99056666D01*
X182656666Y-98323333D02*
X182490000Y-98823333D01*
X182923333Y-98823333D01*
%TO.C,R3*%
X173063333Y-101484666D02*
X172830000Y-101151333D01*
X172663333Y-101484666D02*
X172663333Y-100784666D01*
X172930000Y-100784666D01*
X172996666Y-100818000D01*
X173030000Y-100851333D01*
X173063333Y-100918000D01*
X173063333Y-101018000D01*
X173030000Y-101084666D01*
X172996666Y-101118000D01*
X172930000Y-101151333D01*
X172663333Y-101151333D01*
X173296666Y-100784666D02*
X173730000Y-100784666D01*
X173496666Y-101051333D01*
X173596666Y-101051333D01*
X173663333Y-101084666D01*
X173696666Y-101118000D01*
X173730000Y-101184666D01*
X173730000Y-101351333D01*
X173696666Y-101418000D01*
X173663333Y-101451333D01*
X173596666Y-101484666D01*
X173396666Y-101484666D01*
X173330000Y-101451333D01*
X173296666Y-101418000D01*
%TO.C,USB1*%
X127616666Y-101055000D02*
X128183333Y-101055000D01*
X128250000Y-101021666D01*
X128283333Y-100988333D01*
X128316666Y-100921666D01*
X128316666Y-100788333D01*
X128283333Y-100721666D01*
X128250000Y-100688333D01*
X128183333Y-100655000D01*
X127616666Y-100655000D01*
X128283333Y-100355000D02*
X128316666Y-100255000D01*
X128316666Y-100088333D01*
X128283333Y-100021666D01*
X128250000Y-99988333D01*
X128183333Y-99955000D01*
X128116666Y-99955000D01*
X128050000Y-99988333D01*
X128016666Y-100021666D01*
X127983333Y-100088333D01*
X127950000Y-100221666D01*
X127916666Y-100288333D01*
X127883333Y-100321666D01*
X127816666Y-100355000D01*
X127750000Y-100355000D01*
X127683333Y-100321666D01*
X127650000Y-100288333D01*
X127616666Y-100221666D01*
X127616666Y-100055000D01*
X127650000Y-99955000D01*
X127950000Y-99421666D02*
X127983333Y-99321666D01*
X128016666Y-99288333D01*
X128083333Y-99255000D01*
X128183333Y-99255000D01*
X128250000Y-99288333D01*
X128283333Y-99321666D01*
X128316666Y-99388333D01*
X128316666Y-99655000D01*
X127616666Y-99655000D01*
X127616666Y-99421666D01*
X127650000Y-99355000D01*
X127683333Y-99321666D01*
X127750000Y-99288333D01*
X127816666Y-99288333D01*
X127883333Y-99321666D01*
X127916666Y-99355000D01*
X127950000Y-99421666D01*
X127950000Y-99655000D01*
X128316666Y-98588333D02*
X128316666Y-98988333D01*
X128316666Y-98788333D02*
X127616666Y-98788333D01*
X127716666Y-98855000D01*
X127783333Y-98921666D01*
X127816666Y-98988333D01*
%TO.C,D3*%
X172673333Y-103466666D02*
X172673333Y-102766666D01*
X172840000Y-102766666D01*
X172940000Y-102800000D01*
X173006666Y-102866666D01*
X173040000Y-102933333D01*
X173073333Y-103066666D01*
X173073333Y-103166666D01*
X173040000Y-103300000D01*
X173006666Y-103366666D01*
X172940000Y-103433333D01*
X172840000Y-103466666D01*
X172673333Y-103466666D01*
X173306666Y-102766666D02*
X173740000Y-102766666D01*
X173506666Y-103033333D01*
X173606666Y-103033333D01*
X173673333Y-103066666D01*
X173706666Y-103100000D01*
X173740000Y-103166666D01*
X173740000Y-103333333D01*
X173706666Y-103400000D01*
X173673333Y-103433333D01*
X173606666Y-103466666D01*
X173406666Y-103466666D01*
X173340000Y-103433333D01*
X173306666Y-103400000D01*
%TO.C,D1*%
X135812166Y-92082666D02*
X135112166Y-92082666D01*
X135112166Y-91916000D01*
X135145500Y-91816000D01*
X135212166Y-91749333D01*
X135278833Y-91716000D01*
X135412166Y-91682666D01*
X135512166Y-91682666D01*
X135645500Y-91716000D01*
X135712166Y-91749333D01*
X135778833Y-91816000D01*
X135812166Y-91916000D01*
X135812166Y-92082666D01*
X135812166Y-91016000D02*
X135812166Y-91416000D01*
X135812166Y-91216000D02*
X135112166Y-91216000D01*
X135212166Y-91282666D01*
X135278833Y-91349333D01*
X135312166Y-91416000D01*
%TO.C,D6*%
X149973333Y-103273334D02*
X149973333Y-102573334D01*
X150140000Y-102573334D01*
X150240000Y-102606668D01*
X150306666Y-102673334D01*
X150340000Y-102740001D01*
X150373333Y-102873334D01*
X150373333Y-102973334D01*
X150340000Y-103106668D01*
X150306666Y-103173334D01*
X150240000Y-103240001D01*
X150140000Y-103273334D01*
X149973333Y-103273334D01*
X150973333Y-102573334D02*
X150840000Y-102573334D01*
X150773333Y-102606668D01*
X150740000Y-102640001D01*
X150673333Y-102740001D01*
X150640000Y-102873334D01*
X150640000Y-103140001D01*
X150673333Y-103206668D01*
X150706666Y-103240001D01*
X150773333Y-103273334D01*
X150906666Y-103273334D01*
X150973333Y-103240001D01*
X151006666Y-103206668D01*
X151040000Y-103140001D01*
X151040000Y-102973334D01*
X151006666Y-102906668D01*
X150973333Y-102873334D01*
X150906666Y-102840001D01*
X150773333Y-102840001D01*
X150706666Y-102873334D01*
X150673333Y-102906668D01*
X150640000Y-102973334D01*
%TO.C,C6*%
X138713333Y-100120000D02*
X138680000Y-100153333D01*
X138580000Y-100186666D01*
X138513333Y-100186666D01*
X138413333Y-100153333D01*
X138346666Y-100086666D01*
X138313333Y-100020000D01*
X138280000Y-99886666D01*
X138280000Y-99786666D01*
X138313333Y-99653333D01*
X138346666Y-99586666D01*
X138413333Y-99520000D01*
X138513333Y-99486666D01*
X138580000Y-99486666D01*
X138680000Y-99520000D01*
X138713333Y-99553333D01*
X139313333Y-99486666D02*
X139180000Y-99486666D01*
X139113333Y-99520000D01*
X139080000Y-99553333D01*
X139013333Y-99653333D01*
X138980000Y-99786666D01*
X138980000Y-100053333D01*
X139013333Y-100120000D01*
X139046666Y-100153333D01*
X139113333Y-100186666D01*
X139246666Y-100186666D01*
X139313333Y-100153333D01*
X139346666Y-100120000D01*
X139380000Y-100053333D01*
X139380000Y-99886666D01*
X139346666Y-99820000D01*
X139313333Y-99786666D01*
X139246666Y-99753333D01*
X139113333Y-99753333D01*
X139046666Y-99786666D01*
X139013333Y-99820000D01*
X138980000Y-99886666D01*
%TO.C,D4*%
X192493333Y-91986666D02*
X192493333Y-91286666D01*
X192660000Y-91286666D01*
X192760000Y-91320000D01*
X192826666Y-91386666D01*
X192860000Y-91453333D01*
X192893333Y-91586666D01*
X192893333Y-91686666D01*
X192860000Y-91820000D01*
X192826666Y-91886666D01*
X192760000Y-91953333D01*
X192660000Y-91986666D01*
X192493333Y-91986666D01*
X193493333Y-91520000D02*
X193493333Y-91986666D01*
X193326666Y-91253333D02*
X193160000Y-91753333D01*
X193593333Y-91753333D01*
%TO.C,C3*%
X182223333Y-100615600D02*
X182190000Y-100648933D01*
X182090000Y-100682266D01*
X182023333Y-100682266D01*
X181923333Y-100648933D01*
X181856666Y-100582266D01*
X181823333Y-100515600D01*
X181790000Y-100382266D01*
X181790000Y-100282266D01*
X181823333Y-100148933D01*
X181856666Y-100082266D01*
X181923333Y-100015600D01*
X182023333Y-99982266D01*
X182090000Y-99982266D01*
X182190000Y-100015600D01*
X182223333Y-100048933D01*
X182456666Y-99982266D02*
X182890000Y-99982266D01*
X182656666Y-100248933D01*
X182756666Y-100248933D01*
X182823333Y-100282266D01*
X182856666Y-100315600D01*
X182890000Y-100382266D01*
X182890000Y-100548933D01*
X182856666Y-100615600D01*
X182823333Y-100648933D01*
X182756666Y-100682266D01*
X182556666Y-100682266D01*
X182490000Y-100648933D01*
X182456666Y-100615600D01*
%TO.C,C1*%
X182223333Y-97530000D02*
X182190000Y-97563333D01*
X182090000Y-97596666D01*
X182023333Y-97596666D01*
X181923333Y-97563333D01*
X181856666Y-97496666D01*
X181823333Y-97430000D01*
X181790000Y-97296666D01*
X181790000Y-97196666D01*
X181823333Y-97063333D01*
X181856666Y-96996666D01*
X181923333Y-96930000D01*
X182023333Y-96896666D01*
X182090000Y-96896666D01*
X182190000Y-96930000D01*
X182223333Y-96963333D01*
X182890000Y-97596666D02*
X182490000Y-97596666D01*
X182690000Y-97596666D02*
X182690000Y-96896666D01*
X182623333Y-96996666D01*
X182556666Y-97063333D01*
X182490000Y-97096666D01*
%TO.C,R2*%
X173043333Y-99194666D02*
X172810000Y-98861333D01*
X172643333Y-99194666D02*
X172643333Y-98494666D01*
X172910000Y-98494666D01*
X172976666Y-98528000D01*
X173010000Y-98561333D01*
X173043333Y-98628000D01*
X173043333Y-98728000D01*
X173010000Y-98794666D01*
X172976666Y-98828000D01*
X172910000Y-98861333D01*
X172643333Y-98861333D01*
X173310000Y-98561333D02*
X173343333Y-98528000D01*
X173410000Y-98494666D01*
X173576666Y-98494666D01*
X173643333Y-98528000D01*
X173676666Y-98561333D01*
X173710000Y-98628000D01*
X173710000Y-98694666D01*
X173676666Y-98794666D01*
X173276666Y-99194666D01*
X173710000Y-99194666D01*
D13*
%TO.C,*%
D10*
%TO.C,U2*%
X144661666Y-99706666D02*
X144661666Y-100273333D01*
X144695000Y-100340000D01*
X144728333Y-100373333D01*
X144795000Y-100406666D01*
X144928333Y-100406666D01*
X144995000Y-100373333D01*
X145028333Y-100340000D01*
X145061666Y-100273333D01*
X145061666Y-99706666D01*
X145361666Y-99773333D02*
X145395000Y-99740000D01*
X145461666Y-99706666D01*
X145628333Y-99706666D01*
X145695000Y-99740000D01*
X145728333Y-99773333D01*
X145761666Y-99840000D01*
X145761666Y-99906666D01*
X145728333Y-100006666D01*
X145328333Y-100406666D01*
X145761666Y-100406666D01*
%TO.C,Hole4*%
X157140000Y-91580000D02*
G75*
G03*
X157140000Y-91580000I-900000J0D01*
G01*
D14*
%TO.C,J7*%
X129945000Y-110060000D02*
X128615000Y-110060000D01*
X131215000Y-110060000D02*
X136355000Y-110060000D01*
X131215000Y-110060000D02*
X131215000Y-107400000D01*
X128615000Y-110060000D02*
X128615000Y-108730000D01*
X136355000Y-110060000D02*
X136355000Y-107400000D01*
X131215000Y-107400000D02*
X136355000Y-107400000D01*
%TO.C,*%
G36*
X133797508Y-98104361D02*
G01*
X133792320Y-98125236D01*
X133782578Y-98139234D01*
X133752236Y-98174868D01*
X133726378Y-98220973D01*
X133706720Y-98273261D01*
X133694981Y-98327442D01*
X133692395Y-98364393D01*
X133697244Y-98423528D01*
X133712385Y-98472465D01*
X133738713Y-98512719D01*
X133777118Y-98545802D01*
X133810757Y-98565059D01*
X133832867Y-98575580D01*
X133851058Y-98582599D01*
X133869346Y-98586823D01*
X133891750Y-98588959D01*
X133922285Y-98589714D01*
X133951267Y-98589799D01*
X134005257Y-98588162D01*
X134047907Y-98582524D01*
X134082611Y-98571800D01*
X134112759Y-98554902D01*
X134141745Y-98530745D01*
X134144808Y-98527793D01*
X134173969Y-98489362D01*
X134193309Y-98442244D01*
X134202868Y-98389077D01*
X134202688Y-98332500D01*
X134192807Y-98275150D01*
X134173268Y-98219665D01*
X134144109Y-98168683D01*
X134139208Y-98161984D01*
X134122613Y-98137780D01*
X134110538Y-98115974D01*
X134105384Y-98100954D01*
X134105342Y-98100042D01*
X134105750Y-98093507D01*
X134108466Y-98088901D01*
X134115726Y-98085887D01*
X134129764Y-98084128D01*
X134152817Y-98083285D01*
X134187121Y-98083021D01*
X134218230Y-98083001D01*
X134331119Y-98083001D01*
X134345866Y-98117404D01*
X134367662Y-98180888D01*
X134383525Y-98253478D01*
X134392833Y-98330237D01*
X134394964Y-98406224D01*
X134390258Y-98469669D01*
X134372287Y-98558159D01*
X134343601Y-98636433D01*
X134304661Y-98704104D01*
X134255925Y-98760785D01*
X134197852Y-98806088D01*
X134130901Y-98839624D01*
X134055531Y-98861006D01*
X133972202Y-98869846D01*
X133917639Y-98868912D01*
X133832799Y-98857698D01*
X133757403Y-98834822D01*
X133691379Y-98800241D01*
X133634657Y-98753909D01*
X133587166Y-98695783D01*
X133557332Y-98643955D01*
X133533452Y-98588934D01*
X133516983Y-98534121D01*
X133507058Y-98475270D01*
X133502808Y-98408136D01*
X133502508Y-98375818D01*
X133504564Y-98314084D01*
X133511001Y-98259523D01*
X133522938Y-98206210D01*
X133541490Y-98148220D01*
X133549584Y-98126172D01*
X133565835Y-98083001D01*
X133797508Y-98083001D01*
X133797508Y-98104361D01*
G37*
G36*
X133781628Y-97937569D02*
G01*
X133710902Y-97907294D01*
X133649215Y-97865718D01*
X133597198Y-97813304D01*
X133555483Y-97750519D01*
X133524700Y-97677828D01*
X133514829Y-97643021D01*
X133507335Y-97599205D01*
X133503160Y-97545969D01*
X133502520Y-97503239D01*
X133685051Y-97503239D01*
X133688038Y-97546365D01*
X133698600Y-97580209D01*
X133718628Y-97609384D01*
X133735274Y-97625939D01*
X133762112Y-97646857D01*
X133791304Y-97662094D01*
X133825667Y-97672385D01*
X133868019Y-97678465D01*
X133921175Y-97681067D01*
X133947671Y-97681299D01*
X134000286Y-97680542D01*
X134041218Y-97677810D01*
X134073746Y-97672439D01*
X134101144Y-97663768D01*
X134126689Y-97651133D01*
X134141318Y-97642137D01*
X134172719Y-97613313D01*
X134195348Y-97575178D01*
X134208327Y-97531197D01*
X134210777Y-97484834D01*
X134201821Y-97439553D01*
X134196244Y-97425508D01*
X134173057Y-97390813D01*
X134138502Y-97360541D01*
X134096159Y-97337681D01*
X134086809Y-97334169D01*
X134065545Y-97328228D01*
X134040141Y-97324332D01*
X134007321Y-97322183D01*
X133963811Y-97321483D01*
X133947671Y-97321513D01*
X133903823Y-97322076D01*
X133871339Y-97323560D01*
X133846576Y-97326405D01*
X133825888Y-97331050D01*
X133805632Y-97337933D01*
X133803022Y-97338944D01*
X133754862Y-97362901D01*
X133720087Y-97392531D01*
X133697687Y-97429244D01*
X133686647Y-97474450D01*
X133685051Y-97503239D01*
X133502520Y-97503239D01*
X133502300Y-97488536D01*
X133504749Y-97432131D01*
X133510503Y-97381977D01*
X133515074Y-97358951D01*
X133540532Y-97282586D01*
X133577500Y-97215754D01*
X133625519Y-97158918D01*
X133684131Y-97112544D01*
X133752875Y-97077096D01*
X133813067Y-97057374D01*
X133854787Y-97049921D01*
X133905731Y-97045737D01*
X133960643Y-97044823D01*
X134014265Y-97047184D01*
X134061342Y-97052820D01*
X134082275Y-97057248D01*
X134158208Y-97083977D01*
X134224730Y-97121943D01*
X134281126Y-97170430D01*
X134326683Y-97228721D01*
X134360689Y-97296101D01*
X134378896Y-97355197D01*
X134386249Y-97396908D01*
X134391476Y-97446548D01*
X134394279Y-97498516D01*
X134394360Y-97547211D01*
X134391421Y-97587032D01*
X134391283Y-97588030D01*
X134373032Y-97670899D01*
X134343219Y-97744447D01*
X134302430Y-97808178D01*
X134251249Y-97861600D01*
X134190263Y-97904219D01*
X134120057Y-97935540D01*
X134041216Y-97955069D01*
X133954326Y-97962312D01*
X133947671Y-97962347D01*
X133860761Y-97956075D01*
X133781628Y-97937569D01*
G37*
G36*
X134368126Y-99351874D02*
G01*
X134075309Y-99351874D01*
X134075309Y-99081582D01*
X134368126Y-99081582D01*
X134368126Y-99351874D01*
G37*
G36*
X134368126Y-103135971D02*
G01*
X133527216Y-103135971D01*
X133527216Y-102865679D01*
X134368126Y-102865679D01*
X134368126Y-103135971D01*
G37*
G36*
X134368126Y-95731842D02*
G01*
X134084694Y-95734276D01*
X134011556Y-95734945D01*
X133951868Y-95735628D01*
X133904061Y-95736413D01*
X133866570Y-95737388D01*
X133837828Y-95738638D01*
X133816267Y-95740253D01*
X133800322Y-95742318D01*
X133788424Y-95744921D01*
X133779007Y-95748150D01*
X133771230Y-95751727D01*
X133744403Y-95769919D01*
X133727027Y-95794223D01*
X133718013Y-95827104D01*
X133716271Y-95871027D01*
X133716433Y-95875611D01*
X133719851Y-95914512D01*
X133727677Y-95946337D01*
X133739891Y-95975093D01*
X133761072Y-96018265D01*
X134368126Y-96018265D01*
X134368126Y-96287583D01*
X134084694Y-96289947D01*
X134011697Y-96290591D01*
X133952149Y-96291245D01*
X133904482Y-96291996D01*
X133867129Y-96292936D01*
X133838522Y-96294154D01*
X133817095Y-96295738D01*
X133801279Y-96297779D01*
X133789508Y-96300365D01*
X133780214Y-96303588D01*
X133771829Y-96307535D01*
X133771230Y-96307843D01*
X133742077Y-96330857D01*
X133722949Y-96363370D01*
X133714142Y-96403445D01*
X133715950Y-96449145D01*
X133728669Y-96498532D01*
X133738555Y-96522588D01*
X133762191Y-96573867D01*
X134368126Y-96573867D01*
X134368126Y-96844159D01*
X133527216Y-96844159D01*
X133527216Y-96573867D01*
X133618001Y-96573867D01*
X133591029Y-96538542D01*
X133563466Y-96497174D01*
X133538272Y-96449759D01*
X133517973Y-96401686D01*
X133505092Y-96358344D01*
X133503975Y-96352690D01*
X133499287Y-96290943D01*
X133507008Y-96230807D01*
X133526162Y-96174776D01*
X133555773Y-96125347D01*
X133594864Y-96085015D01*
X133614035Y-96071287D01*
X133645435Y-96051374D01*
X133608591Y-96002910D01*
X133576706Y-95956311D01*
X133548047Y-95905649D01*
X133524667Y-95855137D01*
X133508621Y-95808987D01*
X133503844Y-95788038D01*
X133499488Y-95726154D01*
X133507468Y-95666834D01*
X133526826Y-95612270D01*
X133556605Y-95564652D01*
X133595846Y-95526170D01*
X133626898Y-95506618D01*
X133644819Y-95497732D01*
X133661762Y-95490328D01*
X133679282Y-95484252D01*
X133698938Y-95479350D01*
X133722286Y-95475468D01*
X133750883Y-95472452D01*
X133786286Y-95470148D01*
X133830053Y-95468402D01*
X133883739Y-95467060D01*
X133948903Y-95465969D01*
X134027101Y-95464974D01*
X134050908Y-95464699D01*
X134368126Y-95461078D01*
X134368126Y-95731842D01*
G37*
G36*
X133675103Y-100709885D02*
G01*
X133661500Y-100707439D01*
X133574872Y-100683384D01*
X133495588Y-100648031D01*
X133425012Y-100602281D01*
X133364510Y-100547038D01*
X133315444Y-100483205D01*
X133310492Y-100475179D01*
X133276402Y-100405561D01*
X133251425Y-100326744D01*
X133235828Y-100241662D01*
X133229879Y-100153252D01*
X133230476Y-100139899D01*
X133438047Y-100139899D01*
X133438820Y-100158998D01*
X133448558Y-100222842D01*
X133470546Y-100278063D01*
X133504687Y-100324587D01*
X133550888Y-100362339D01*
X133609050Y-100391245D01*
X133679080Y-100411230D01*
X133760880Y-100422220D01*
X133778885Y-100423344D01*
X133862720Y-100422669D01*
X133939227Y-100411953D01*
X134007243Y-100391599D01*
X134065603Y-100362006D01*
X134113145Y-100323575D01*
X134132210Y-100301547D01*
X134158505Y-100255546D01*
X134174651Y-100201993D01*
X134180138Y-100144850D01*
X134174454Y-100088081D01*
X134164307Y-100052669D01*
X134138254Y-100003771D01*
X134099719Y-99960458D01*
X134050642Y-99924140D01*
X133992965Y-99896225D01*
X133928627Y-99878122D01*
X133922196Y-99876956D01*
X133880192Y-99872189D01*
X133830694Y-99870460D01*
X133777983Y-99871549D01*
X133726337Y-99875234D01*
X133680037Y-99881293D01*
X133643363Y-99889507D01*
X133636684Y-99891698D01*
X133571773Y-99920756D01*
X133519745Y-99957186D01*
X133480211Y-100001331D01*
X133452786Y-100053531D01*
X133452420Y-100054494D01*
X133443263Y-100082574D01*
X133438762Y-100108816D01*
X133438047Y-100139899D01*
X133230476Y-100139899D01*
X133233847Y-100064449D01*
X133247997Y-99978188D01*
X133260861Y-99930840D01*
X133293710Y-99850503D01*
X133338368Y-99779158D01*
X133394222Y-99717357D01*
X133460661Y-99665653D01*
X133537072Y-99624599D01*
X133622843Y-99594749D01*
X133636948Y-99591157D01*
X133696816Y-99580590D01*
X133765234Y-99575007D01*
X133836800Y-99574415D01*
X133906115Y-99578820D01*
X133967777Y-99588228D01*
X133978941Y-99590765D01*
X134067453Y-99619065D01*
X134145783Y-99658336D01*
X134213666Y-99708274D01*
X134270836Y-99768572D01*
X134317025Y-99838925D01*
X134351967Y-99919026D01*
X134375396Y-100008570D01*
X134382362Y-100053884D01*
X134387672Y-100106913D01*
X134389284Y-100153527D01*
X134387173Y-100200831D01*
X134381702Y-100252850D01*
X134363599Y-100341260D01*
X134332632Y-100422884D01*
X134289645Y-100496718D01*
X134235485Y-100561763D01*
X134170996Y-100617014D01*
X134097024Y-100661472D01*
X134014414Y-100694134D01*
X134007613Y-100696162D01*
X133962992Y-100705887D01*
X133908073Y-100712831D01*
X133847339Y-100716850D01*
X133785277Y-100717796D01*
X133778885Y-100717549D01*
X133726370Y-100715523D01*
X133675103Y-100709885D01*
G37*
G36*
X133399578Y-103143479D02*
G01*
X133196858Y-103143479D01*
X133196858Y-102858171D01*
X133399578Y-102858171D01*
X133399578Y-103143479D01*
G37*
G36*
X133452135Y-101078744D02*
G01*
X134165407Y-101078744D01*
X134165407Y-100898549D01*
X134368126Y-100898549D01*
X134368126Y-101544248D01*
X134165407Y-101544248D01*
X134165407Y-101364053D01*
X133452135Y-101364053D01*
X133452135Y-101544248D01*
X133249415Y-101544248D01*
X133249415Y-100898549D01*
X133452135Y-100898549D01*
X133452135Y-101078744D01*
G37*
G36*
X133729970Y-103391277D02*
G01*
X133803921Y-103391396D01*
X133865630Y-103391650D01*
X133916485Y-103392086D01*
X133957874Y-103392747D01*
X133991183Y-103393681D01*
X134017801Y-103394933D01*
X134039113Y-103396548D01*
X134056509Y-103398573D01*
X134071375Y-103401052D01*
X134085098Y-103404033D01*
X134093438Y-103406100D01*
X134152653Y-103425038D01*
X134201600Y-103449863D01*
X134244641Y-103483078D01*
X134267563Y-103506031D01*
X134301640Y-103547124D01*
X134327651Y-103589500D01*
X134348513Y-103638442D01*
X134359724Y-103672992D01*
X134380853Y-103769870D01*
X134388647Y-103873626D01*
X134383105Y-103984227D01*
X134382255Y-103991898D01*
X134366484Y-104078131D01*
X134340258Y-104154342D01*
X134303915Y-104220132D01*
X134257789Y-104275102D01*
X134202218Y-104318850D01*
X134137535Y-104350979D01*
X134064079Y-104371088D01*
X134063441Y-104371202D01*
X134045343Y-104373790D01*
X134021735Y-104375962D01*
X133991386Y-104377748D01*
X133953066Y-104379179D01*
X133905546Y-104380284D01*
X133847594Y-104381096D01*
X133777982Y-104381644D01*
X133695479Y-104381959D01*
X133626699Y-104382059D01*
X133249415Y-104382321D01*
X133249415Y-104097012D01*
X133612180Y-104097012D01*
X133706257Y-104096828D01*
X133789578Y-104096286D01*
X133861428Y-104095401D01*
X133921092Y-104094187D01*
X133967855Y-104092658D01*
X134001000Y-104090829D01*
X134019258Y-104088820D01*
X134073182Y-104074232D01*
X134114897Y-104052003D01*
X134145396Y-104020965D01*
X134165671Y-103979950D01*
X134176714Y-103927789D01*
X134178914Y-103900813D01*
X134177752Y-103839871D01*
X134167209Y-103789976D01*
X134146780Y-103750064D01*
X134115965Y-103719073D01*
X134084147Y-103700292D01*
X134041523Y-103680311D01*
X133249415Y-103675933D01*
X133249415Y-103391248D01*
X133642391Y-103391248D01*
X133729970Y-103391277D01*
G37*
G36*
X134368126Y-102031003D02*
G01*
X134092203Y-102033517D01*
X133816279Y-102036030D01*
X133778738Y-102054801D01*
X133749973Y-102072497D01*
X133730933Y-102093507D01*
X133720180Y-102120877D01*
X133716274Y-102157651D01*
X133716646Y-102186193D01*
X133719993Y-102226430D01*
X133727353Y-102259451D01*
X133740429Y-102292879D01*
X133740568Y-102293184D01*
X133762018Y-102340110D01*
X134368126Y-102340110D01*
X134368126Y-102610402D01*
X133527216Y-102610402D01*
X133527216Y-102340110D01*
X133616810Y-102340110D01*
X133583150Y-102291958D01*
X133540660Y-102220596D01*
X133513048Y-102149419D01*
X133500353Y-102078574D01*
X133502615Y-102008208D01*
X133504359Y-101997052D01*
X133520550Y-101933903D01*
X133545609Y-101882154D01*
X133580325Y-101840550D01*
X133621992Y-101809848D01*
X133639316Y-101800006D01*
X133655749Y-101791796D01*
X133672822Y-101785053D01*
X133692064Y-101779613D01*
X133715003Y-101775315D01*
X133743169Y-101771992D01*
X133778091Y-101769483D01*
X133821298Y-101767623D01*
X133874319Y-101766249D01*
X133938684Y-101765197D01*
X134015922Y-101764304D01*
X134050908Y-101763953D01*
X134368126Y-101760840D01*
X134368126Y-102031003D01*
G37*
%TO.C,R8*%
X184272742Y-103002500D02*
X184747258Y-103002500D01*
X184272742Y-101957500D02*
X184747258Y-101957500D01*
%TO.C,R9*%
X136907258Y-97742500D02*
X136432742Y-97742500D01*
X136907258Y-96697500D02*
X136432742Y-96697500D01*
%TO.C,F2*%
X189377936Y-105970000D02*
X190582064Y-105970000D01*
X189377936Y-107790000D02*
X190582064Y-107790000D01*
%TO.C,R7*%
X184272742Y-104462500D02*
X184747258Y-104462500D01*
X184272742Y-103417500D02*
X184747258Y-103417500D01*
%TO.C,C2*%
X184369420Y-95310000D02*
X184650580Y-95310000D01*
X184369420Y-96330000D02*
X184650580Y-96330000D01*
%TO.C,D2*%
X171820000Y-96325000D02*
X169535000Y-96325000D01*
X169535000Y-96325000D02*
X169535000Y-97795000D01*
X169535000Y-97795000D02*
X171820000Y-97795000D01*
%TO.C,R6*%
X148012742Y-101762500D02*
X148487258Y-101762500D01*
X148012742Y-100717500D02*
X148487258Y-100717500D01*
%TO.C,F1*%
X129540000Y-93012064D02*
X129540000Y-91807936D01*
X131360000Y-93012064D02*
X131360000Y-91807936D01*
%TO.C,R5*%
X148012742Y-99202500D02*
X148487258Y-99202500D01*
X148012742Y-98157500D02*
X148487258Y-98157500D01*
%TO.C,R10*%
X136907258Y-101977500D02*
X136432742Y-101977500D01*
X136907258Y-103022500D02*
X136432742Y-103022500D01*
D15*
%TO.C,USB2*%
X197278700Y-104290000D02*
X195856700Y-104290000D01*
X193501700Y-104290000D02*
X191756700Y-104290000D01*
X197278700Y-104290000D02*
X197278700Y-95490000D01*
X193501700Y-95490000D02*
X191756700Y-95490000D01*
X197278700Y-95490000D02*
X195856700Y-95490000D01*
D10*
%TO.C,Hole1*%
X127020000Y-91580000D02*
G75*
G03*
X127020000Y-91580000I-900000J0D01*
G01*
%TO.C,Hole8*%
X195930000Y-91580000D02*
G75*
G03*
X195930000Y-91580000I-900000J0D01*
G01*
D16*
%TO.C,U1*%
X175894000Y-97564000D02*
X175149000Y-97564000D01*
X175149000Y-97564000D02*
X175149000Y-98309000D01*
X175149000Y-102716000D02*
X175149000Y-101971000D01*
X180301000Y-97564000D02*
X180301000Y-98309000D01*
X179556000Y-97564000D02*
X180301000Y-97564000D01*
X175894000Y-102716000D02*
X175149000Y-102716000D01*
X179556000Y-102716000D02*
X180301000Y-102716000D01*
X180301000Y-102716000D02*
X180301000Y-101971000D01*
D11*
X180930000Y-101640000D02*
G75*
G03*
X180930000Y-101640000I-75000J0D01*
G01*
D14*
%TO.C,R1*%
X133212742Y-92817500D02*
X133687258Y-92817500D01*
X133212742Y-93862500D02*
X133687258Y-93862500D01*
%TO.C,D5*%
X147450000Y-97735000D02*
X149735000Y-97735000D01*
X149735000Y-96265000D02*
X147450000Y-96265000D01*
X149735000Y-97735000D02*
X149735000Y-96265000D01*
%TO.C,C5*%
X142710580Y-103540000D02*
X142429420Y-103540000D01*
X142710580Y-104560000D02*
X142429420Y-104560000D01*
D10*
%TO.C,Hole3*%
X157140000Y-108190000D02*
G75*
G03*
X157140000Y-108190000I-900000J0D01*
G01*
D14*
%TO.C,C7*%
X142720580Y-95730000D02*
X142439420Y-95730000D01*
X142720580Y-96750000D02*
X142439420Y-96750000D01*
D10*
%TO.C,Hole5*%
X165740000Y-91580000D02*
G75*
G03*
X165740000Y-91580000I-900000J0D01*
G01*
D14*
%TO.C,J2*%
X163200000Y-96090000D02*
X163200000Y-94760000D01*
X163200000Y-94760000D02*
X164530000Y-94760000D01*
X163200000Y-97360000D02*
X165860000Y-97360000D01*
X163200000Y-105040000D02*
X165860000Y-105040000D01*
X165860000Y-97360000D02*
X165860000Y-105040000D01*
X163200000Y-97360000D02*
X163200000Y-105040000D01*
%TO.C,R4*%
X191117258Y-93792500D02*
X190642742Y-93792500D01*
X191117258Y-92747500D02*
X190642742Y-92747500D01*
%TO.C,C4*%
X184369420Y-99250000D02*
X184650580Y-99250000D01*
X184369420Y-98230000D02*
X184650580Y-98230000D01*
%TO.C,R3*%
X171267258Y-100607500D02*
X170792742Y-100607500D01*
X171267258Y-101652500D02*
X170792742Y-101652500D01*
D10*
%TO.C,Hole2*%
X127020000Y-108190000D02*
G75*
G03*
X127020000Y-108190000I-900000J0D01*
G01*
D15*
%TO.C,USB1*%
X123871500Y-104350000D02*
X125293500Y-104350000D01*
X123871500Y-95550000D02*
X123871500Y-104350000D01*
X127648500Y-104350000D02*
X129393500Y-104350000D01*
X123871500Y-95550000D02*
X125293500Y-95550000D01*
X127648500Y-95550000D02*
X129393500Y-95550000D01*
D14*
%TO.C,J5*%
X157870000Y-102420000D02*
X157870000Y-94740000D01*
X157870000Y-105020000D02*
X156540000Y-105020000D01*
X157870000Y-102420000D02*
X155210000Y-102420000D01*
X157870000Y-103690000D02*
X157870000Y-105020000D01*
X155210000Y-102420000D02*
X155210000Y-94740000D01*
X157870000Y-94740000D02*
X155210000Y-94740000D01*
%TO.C,D3*%
X169555000Y-102335000D02*
X169555000Y-103805000D01*
X171840000Y-102335000D02*
X169555000Y-102335000D01*
X169555000Y-103805000D02*
X171840000Y-103805000D01*
%TO.C,D1*%
X134895000Y-92285000D02*
X134895000Y-90815000D01*
X132610000Y-92285000D02*
X134895000Y-92285000D01*
X134895000Y-90815000D02*
X132610000Y-90815000D01*
%TO.C,D6*%
X149735000Y-102175000D02*
X147450000Y-102175000D01*
X149735000Y-103645000D02*
X149735000Y-102175000D01*
X147450000Y-103645000D02*
X149735000Y-103645000D01*
%TO.C,C6*%
X136529420Y-99350000D02*
X136810580Y-99350000D01*
X136529420Y-100370000D02*
X136810580Y-100370000D01*
%TO.C,D4*%
X189435000Y-92405000D02*
X191720000Y-92405000D01*
X189435000Y-90935000D02*
X189435000Y-92405000D01*
X191720000Y-90935000D02*
X189435000Y-90935000D01*
D10*
%TO.C,Hole7*%
X195930000Y-108190000D02*
G75*
G03*
X195930000Y-108190000I-900000J0D01*
G01*
D14*
%TO.C,C3*%
X184369420Y-100710000D02*
X184650580Y-100710000D01*
X184369420Y-99690000D02*
X184650580Y-99690000D01*
%TO.C,C1*%
X184369420Y-96770000D02*
X184650580Y-96770000D01*
X184369420Y-97790000D02*
X184650580Y-97790000D01*
%TO.C,R2*%
X171247258Y-99252500D02*
X170772742Y-99252500D01*
X171247258Y-98207500D02*
X170772742Y-98207500D01*
%TO.C,*%
G36*
X187993142Y-96953529D02*
G01*
X187790422Y-96953529D01*
X187790422Y-96668221D01*
X187993142Y-96668221D01*
X187993142Y-96953529D01*
G37*
G36*
X187940585Y-95714688D02*
G01*
X187577820Y-95714688D01*
X187483743Y-95714872D01*
X187400422Y-95715414D01*
X187328572Y-95716299D01*
X187268908Y-95717513D01*
X187222145Y-95719042D01*
X187189000Y-95720871D01*
X187170742Y-95722880D01*
X187116818Y-95737468D01*
X187075103Y-95759697D01*
X187044604Y-95790735D01*
X187024329Y-95831750D01*
X187013286Y-95883911D01*
X187011086Y-95910887D01*
X187012248Y-95971829D01*
X187022791Y-96021724D01*
X187043220Y-96061636D01*
X187074035Y-96092627D01*
X187105853Y-96111408D01*
X187148477Y-96131389D01*
X187940585Y-96135767D01*
X187940585Y-96420452D01*
X187547609Y-96420452D01*
X187460030Y-96420423D01*
X187386079Y-96420304D01*
X187324370Y-96420050D01*
X187273515Y-96419614D01*
X187232126Y-96418953D01*
X187198817Y-96418019D01*
X187172199Y-96416767D01*
X187150887Y-96415152D01*
X187133491Y-96413127D01*
X187118625Y-96410648D01*
X187104902Y-96407667D01*
X187096562Y-96405600D01*
X187037347Y-96386662D01*
X186988400Y-96361837D01*
X186945359Y-96328622D01*
X186922437Y-96305669D01*
X186888360Y-96264576D01*
X186862349Y-96222200D01*
X186841487Y-96173258D01*
X186830276Y-96138708D01*
X186809147Y-96041830D01*
X186801353Y-95938074D01*
X186806895Y-95827473D01*
X186807745Y-95819802D01*
X186823516Y-95733569D01*
X186849742Y-95657358D01*
X186886085Y-95591568D01*
X186932211Y-95536598D01*
X186987782Y-95492850D01*
X187052465Y-95460721D01*
X187125921Y-95440612D01*
X187126559Y-95440498D01*
X187144657Y-95437910D01*
X187168265Y-95435738D01*
X187198614Y-95433952D01*
X187236934Y-95432521D01*
X187284454Y-95431416D01*
X187342406Y-95430604D01*
X187412018Y-95430056D01*
X187494521Y-95429741D01*
X187563301Y-95429641D01*
X187940585Y-95429379D01*
X187940585Y-95714688D01*
G37*
G36*
X187662784Y-97471590D02*
G01*
X187573190Y-97471590D01*
X187606850Y-97519742D01*
X187649340Y-97591104D01*
X187676952Y-97662281D01*
X187689647Y-97733126D01*
X187687385Y-97803492D01*
X187685641Y-97814648D01*
X187669450Y-97877797D01*
X187644391Y-97929546D01*
X187609675Y-97971150D01*
X187568008Y-98001852D01*
X187550684Y-98011694D01*
X187534251Y-98019904D01*
X187517178Y-98026647D01*
X187497936Y-98032087D01*
X187474997Y-98036385D01*
X187446831Y-98039708D01*
X187411909Y-98042217D01*
X187368702Y-98044077D01*
X187315681Y-98045451D01*
X187251316Y-98046503D01*
X187174078Y-98047396D01*
X187139092Y-98047747D01*
X186821874Y-98050860D01*
X186821874Y-97780697D01*
X187097797Y-97778183D01*
X187373721Y-97775670D01*
X187411262Y-97756899D01*
X187440027Y-97739203D01*
X187459067Y-97718193D01*
X187469820Y-97690823D01*
X187473726Y-97654049D01*
X187473354Y-97625507D01*
X187470007Y-97585270D01*
X187462647Y-97552249D01*
X187449571Y-97518821D01*
X187449432Y-97518516D01*
X187427982Y-97471590D01*
X186821874Y-97471590D01*
X186821874Y-97201298D01*
X187662784Y-97201298D01*
X187662784Y-97471590D01*
G37*
G36*
X187024593Y-98447647D02*
G01*
X187737865Y-98447647D01*
X187737865Y-98267452D01*
X187940585Y-98267452D01*
X187940585Y-98913151D01*
X187737865Y-98913151D01*
X187737865Y-98732956D01*
X187024593Y-98732956D01*
X187024593Y-98913151D01*
X186821874Y-98913151D01*
X186821874Y-98267452D01*
X187024593Y-98267452D01*
X187024593Y-98447647D01*
G37*
G36*
X187662784Y-96946021D02*
G01*
X186821874Y-96946021D01*
X186821874Y-96675729D01*
X187662784Y-96675729D01*
X187662784Y-96946021D01*
G37*
G36*
X187662784Y-103237833D02*
G01*
X187571999Y-103237833D01*
X187598971Y-103273158D01*
X187626534Y-103314526D01*
X187651728Y-103361941D01*
X187672027Y-103410014D01*
X187684908Y-103453356D01*
X187686025Y-103459010D01*
X187690713Y-103520757D01*
X187682992Y-103580893D01*
X187663838Y-103636924D01*
X187634227Y-103686353D01*
X187595136Y-103726685D01*
X187575965Y-103740413D01*
X187544565Y-103760326D01*
X187581409Y-103808790D01*
X187613294Y-103855389D01*
X187641953Y-103906051D01*
X187665333Y-103956563D01*
X187681379Y-104002713D01*
X187686156Y-104023662D01*
X187690512Y-104085546D01*
X187682532Y-104144866D01*
X187663174Y-104199430D01*
X187633395Y-104247048D01*
X187594154Y-104285530D01*
X187563102Y-104305082D01*
X187545181Y-104313968D01*
X187528238Y-104321372D01*
X187510718Y-104327448D01*
X187491062Y-104332350D01*
X187467714Y-104336232D01*
X187439117Y-104339248D01*
X187403714Y-104341552D01*
X187359947Y-104343298D01*
X187306261Y-104344640D01*
X187241097Y-104345731D01*
X187162899Y-104346726D01*
X187139092Y-104347001D01*
X186821874Y-104350622D01*
X186821874Y-104079858D01*
X187105306Y-104077424D01*
X187178444Y-104076755D01*
X187238132Y-104076072D01*
X187285939Y-104075287D01*
X187323430Y-104074312D01*
X187352172Y-104073062D01*
X187373733Y-104071447D01*
X187389678Y-104069382D01*
X187401576Y-104066779D01*
X187410993Y-104063550D01*
X187418770Y-104059973D01*
X187445597Y-104041781D01*
X187462973Y-104017477D01*
X187471987Y-103984596D01*
X187473729Y-103940673D01*
X187473567Y-103936089D01*
X187470149Y-103897188D01*
X187462323Y-103865363D01*
X187450109Y-103836607D01*
X187428928Y-103793435D01*
X186821874Y-103793435D01*
X186821874Y-103524117D01*
X187105306Y-103521753D01*
X187178303Y-103521109D01*
X187237851Y-103520455D01*
X187285518Y-103519704D01*
X187322871Y-103518764D01*
X187351478Y-103517546D01*
X187372905Y-103515962D01*
X187388721Y-103513921D01*
X187400492Y-103511335D01*
X187409786Y-103508112D01*
X187418171Y-103504165D01*
X187418770Y-103503857D01*
X187447923Y-103480843D01*
X187467051Y-103448330D01*
X187475858Y-103408255D01*
X187474050Y-103362555D01*
X187461331Y-103313168D01*
X187451445Y-103289112D01*
X187427809Y-103237833D01*
X186821874Y-103237833D01*
X186821874Y-102967541D01*
X187662784Y-102967541D01*
X187662784Y-103237833D01*
G37*
G36*
X187272361Y-100942788D02*
G01*
X187357201Y-100954002D01*
X187432597Y-100976878D01*
X187498621Y-101011459D01*
X187555343Y-101057791D01*
X187602834Y-101115917D01*
X187632668Y-101167745D01*
X187656548Y-101222766D01*
X187673017Y-101277579D01*
X187682942Y-101336430D01*
X187687192Y-101403564D01*
X187687492Y-101435882D01*
X187685436Y-101497616D01*
X187678999Y-101552177D01*
X187667062Y-101605490D01*
X187648510Y-101663480D01*
X187640416Y-101685528D01*
X187624165Y-101728699D01*
X187392492Y-101728699D01*
X187392492Y-101707339D01*
X187397680Y-101686464D01*
X187407422Y-101672466D01*
X187437764Y-101636832D01*
X187463622Y-101590727D01*
X187483280Y-101538439D01*
X187495019Y-101484258D01*
X187497605Y-101447307D01*
X187492756Y-101388172D01*
X187477615Y-101339235D01*
X187451287Y-101298981D01*
X187412882Y-101265898D01*
X187379243Y-101246641D01*
X187357133Y-101236120D01*
X187338942Y-101229101D01*
X187320654Y-101224877D01*
X187298250Y-101222741D01*
X187267715Y-101221986D01*
X187238733Y-101221901D01*
X187184743Y-101223538D01*
X187142093Y-101229176D01*
X187107389Y-101239900D01*
X187077241Y-101256798D01*
X187048255Y-101280955D01*
X187045192Y-101283907D01*
X187016031Y-101322338D01*
X186996691Y-101369456D01*
X186987132Y-101422623D01*
X186987312Y-101479200D01*
X186997193Y-101536550D01*
X187016732Y-101592035D01*
X187045891Y-101643017D01*
X187050792Y-101649716D01*
X187067387Y-101673920D01*
X187079462Y-101695726D01*
X187084616Y-101710746D01*
X187084658Y-101711658D01*
X187084250Y-101718193D01*
X187081534Y-101722799D01*
X187074274Y-101725813D01*
X187060236Y-101727572D01*
X187037183Y-101728415D01*
X187002879Y-101728679D01*
X186971770Y-101728699D01*
X186858881Y-101728699D01*
X186844134Y-101694296D01*
X186822338Y-101630812D01*
X186806475Y-101558222D01*
X186797167Y-101481463D01*
X186795036Y-101405476D01*
X186799742Y-101342031D01*
X186817713Y-101253541D01*
X186846399Y-101175267D01*
X186885339Y-101107596D01*
X186934075Y-101050915D01*
X186992148Y-101005612D01*
X187059099Y-100972076D01*
X187134469Y-100950694D01*
X187217798Y-100941854D01*
X187272361Y-100942788D01*
G37*
G36*
X187514897Y-99101815D02*
G01*
X187528500Y-99104261D01*
X187615128Y-99128316D01*
X187694412Y-99163669D01*
X187764988Y-99209419D01*
X187825490Y-99264662D01*
X187874556Y-99328495D01*
X187879508Y-99336521D01*
X187913598Y-99406139D01*
X187938575Y-99484956D01*
X187954172Y-99570038D01*
X187960121Y-99658448D01*
X187956153Y-99747251D01*
X187942003Y-99833512D01*
X187929139Y-99880860D01*
X187896290Y-99961197D01*
X187851632Y-100032542D01*
X187795778Y-100094343D01*
X187729339Y-100146047D01*
X187652928Y-100187101D01*
X187567157Y-100216951D01*
X187553052Y-100220543D01*
X187493184Y-100231110D01*
X187424766Y-100236693D01*
X187353200Y-100237285D01*
X187283885Y-100232880D01*
X187222223Y-100223472D01*
X187211059Y-100220935D01*
X187122547Y-100192635D01*
X187044217Y-100153364D01*
X186976334Y-100103426D01*
X186919164Y-100043128D01*
X186872975Y-99972775D01*
X186838033Y-99892674D01*
X186814604Y-99803130D01*
X186807638Y-99757816D01*
X186802328Y-99704787D01*
X186801016Y-99666850D01*
X187009862Y-99666850D01*
X187015546Y-99723619D01*
X187025693Y-99759031D01*
X187051746Y-99807929D01*
X187090281Y-99851242D01*
X187139358Y-99887560D01*
X187197035Y-99915475D01*
X187261373Y-99933578D01*
X187267804Y-99934744D01*
X187309808Y-99939511D01*
X187359306Y-99941240D01*
X187412017Y-99940151D01*
X187463663Y-99936466D01*
X187509963Y-99930407D01*
X187546637Y-99922193D01*
X187553316Y-99920002D01*
X187618227Y-99890944D01*
X187670255Y-99854514D01*
X187709789Y-99810369D01*
X187737214Y-99758169D01*
X187737580Y-99757206D01*
X187746737Y-99729126D01*
X187751238Y-99702884D01*
X187751953Y-99671801D01*
X187751180Y-99652702D01*
X187741442Y-99588858D01*
X187719454Y-99533637D01*
X187685313Y-99487113D01*
X187639112Y-99449361D01*
X187580950Y-99420455D01*
X187510920Y-99400470D01*
X187429120Y-99389480D01*
X187411115Y-99388356D01*
X187327280Y-99389031D01*
X187250773Y-99399747D01*
X187182757Y-99420101D01*
X187124397Y-99449694D01*
X187076855Y-99488125D01*
X187057790Y-99510153D01*
X187031495Y-99556154D01*
X187015349Y-99609707D01*
X187009862Y-99666850D01*
X186801016Y-99666850D01*
X186800716Y-99658173D01*
X186802827Y-99610869D01*
X186808298Y-99558850D01*
X186826401Y-99470440D01*
X186857368Y-99388816D01*
X186900355Y-99314982D01*
X186954515Y-99249937D01*
X187019004Y-99194686D01*
X187092976Y-99150228D01*
X187175586Y-99117566D01*
X187182387Y-99115538D01*
X187227008Y-99105813D01*
X187281927Y-99098869D01*
X187342661Y-99094850D01*
X187404723Y-99093904D01*
X187411115Y-99094151D01*
X187463630Y-99096177D01*
X187514897Y-99101815D01*
G37*
G36*
X187408372Y-101874131D02*
G01*
X187479098Y-101904406D01*
X187540785Y-101945982D01*
X187592802Y-101998396D01*
X187634517Y-102061181D01*
X187665300Y-102133872D01*
X187675171Y-102168679D01*
X187682665Y-102212495D01*
X187686840Y-102265731D01*
X187687700Y-102323164D01*
X187685251Y-102379569D01*
X187679497Y-102429723D01*
X187674926Y-102452749D01*
X187649468Y-102529114D01*
X187612500Y-102595946D01*
X187564481Y-102652782D01*
X187505869Y-102699156D01*
X187437125Y-102734604D01*
X187376933Y-102754326D01*
X187335213Y-102761779D01*
X187284269Y-102765963D01*
X187229357Y-102766877D01*
X187175735Y-102764516D01*
X187128658Y-102758880D01*
X187107725Y-102754452D01*
X187031792Y-102727723D01*
X186965270Y-102689757D01*
X186908874Y-102641270D01*
X186863317Y-102582979D01*
X186829311Y-102515599D01*
X186811104Y-102456503D01*
X186803751Y-102414792D01*
X186798524Y-102365152D01*
X186796459Y-102326866D01*
X186979223Y-102326866D01*
X186988179Y-102372147D01*
X186993756Y-102386192D01*
X187016943Y-102420887D01*
X187051498Y-102451159D01*
X187093841Y-102474019D01*
X187103191Y-102477531D01*
X187124455Y-102483472D01*
X187149859Y-102487368D01*
X187182679Y-102489517D01*
X187226189Y-102490217D01*
X187242329Y-102490187D01*
X187286177Y-102489624D01*
X187318661Y-102488140D01*
X187343424Y-102485295D01*
X187364112Y-102480650D01*
X187384368Y-102473767D01*
X187386978Y-102472756D01*
X187435138Y-102448799D01*
X187469913Y-102419169D01*
X187492313Y-102382456D01*
X187503353Y-102337250D01*
X187504949Y-102308461D01*
X187501962Y-102265335D01*
X187491400Y-102231491D01*
X187471372Y-102202316D01*
X187454726Y-102185761D01*
X187427888Y-102164843D01*
X187398696Y-102149606D01*
X187364333Y-102139315D01*
X187321981Y-102133235D01*
X187268825Y-102130633D01*
X187242329Y-102130401D01*
X187189714Y-102131158D01*
X187148782Y-102133890D01*
X187116254Y-102139261D01*
X187088856Y-102147932D01*
X187063311Y-102160567D01*
X187048682Y-102169563D01*
X187017281Y-102198387D01*
X186994652Y-102236522D01*
X186981673Y-102280503D01*
X186979223Y-102326866D01*
X186796459Y-102326866D01*
X186795721Y-102313184D01*
X186795640Y-102264489D01*
X186798579Y-102224668D01*
X186798717Y-102223670D01*
X186816968Y-102140801D01*
X186846781Y-102067253D01*
X186887570Y-102003522D01*
X186938751Y-101950100D01*
X186999737Y-101907481D01*
X187069943Y-101876160D01*
X187148784Y-101856631D01*
X187235674Y-101849388D01*
X187242329Y-101849353D01*
X187329239Y-101855625D01*
X187408372Y-101874131D01*
G37*
G36*
X187114691Y-100730118D02*
G01*
X186821874Y-100730118D01*
X186821874Y-100459826D01*
X187114691Y-100459826D01*
X187114691Y-100730118D01*
G37*
D10*
%TO.C,Hole6*%
X165730000Y-108190000D02*
G75*
G03*
X165730000Y-108190000I-900000J0D01*
G01*
D15*
%TO.C,U2*%
X144090000Y-101638500D02*
X144090000Y-101246500D01*
X141482000Y-98638500D02*
X141090000Y-98638500D01*
X144090000Y-99034500D02*
X144090000Y-98638500D01*
X144090000Y-101638500D02*
X143695000Y-101638500D01*
X144090000Y-98638500D02*
X143695000Y-98638500D01*
X141484000Y-101638500D02*
X141090000Y-101638500D01*
X141090000Y-101246500D02*
X141090000Y-101638500D01*
X141090000Y-98638500D02*
X141090000Y-99034500D01*
X143815000Y-98088500D02*
G75*
G03*
X143815000Y-98088500I-125000J0D01*
G01*
%TD*%
%LPC*%
D17*
%TO.C,Hole4*%
X156240000Y-91580000D03*
%TD*%
D18*
%TO.C,J7*%
X129945000Y-108730000D03*
D19*
X132485000Y-108730000D03*
X135025000Y-108730000D03*
%TD*%
D20*
%TO.C,R8*%
X183685000Y-102480000D03*
X185335000Y-102480000D03*
%TD*%
D21*
%TO.C,R9*%
X137495000Y-97220000D03*
X135845000Y-97220000D03*
%TD*%
D22*
%TO.C,F2*%
X188580000Y-106880000D03*
X191380000Y-106880000D03*
%TD*%
D20*
%TO.C,R7*%
X183685000Y-103940000D03*
X185335000Y-103940000D03*
%TD*%
D23*
%TO.C,C2*%
X183735000Y-95820000D03*
X185285000Y-95820000D03*
%TD*%
D24*
%TO.C,D2*%
X170232500Y-97060000D03*
X171807500Y-97060000D03*
%TD*%
D20*
%TO.C,R6*%
X147425000Y-101240000D03*
X149075000Y-101240000D03*
%TD*%
D25*
%TO.C,F1*%
X130450000Y-93810000D03*
X130450000Y-91010000D03*
%TD*%
D20*
%TO.C,R5*%
X147425000Y-98680000D03*
X149075000Y-98680000D03*
%TD*%
D21*
%TO.C,R10*%
X137495000Y-102500000D03*
X135845000Y-102500000D03*
%TD*%
D26*
%TO.C,USB2*%
X190978700Y-102780000D03*
X190978700Y-97000000D03*
D27*
X190478700Y-104215000D03*
X190478700Y-95565000D03*
D28*
X194678700Y-104215000D03*
X194678700Y-95565000D03*
D29*
X189716700Y-103090000D03*
X189716700Y-102290000D03*
D30*
X189716700Y-101140000D03*
X189716700Y-100140000D03*
X189716700Y-99640000D03*
X189716700Y-98640000D03*
D29*
X189716700Y-96690000D03*
X189716700Y-97490000D03*
D30*
X189716700Y-98140000D03*
X189716700Y-99140000D03*
X189716700Y-100640000D03*
X189716700Y-101640000D03*
%TD*%
D17*
%TO.C,Hole1*%
X126120000Y-91580000D03*
%TD*%
%TO.C,Hole8*%
X195030000Y-91580000D03*
%TD*%
D31*
%TO.C,U1*%
X180102000Y-101640000D03*
X180102000Y-101140000D03*
X180102000Y-100640000D03*
X180102000Y-100140000D03*
X180102000Y-99640000D03*
X180102000Y-99140000D03*
X180102000Y-98640000D03*
D32*
X179225000Y-97763000D03*
X178725000Y-97763000D03*
X178225000Y-97763000D03*
X177725000Y-97763000D03*
X177225000Y-97763000D03*
X176725000Y-97763000D03*
X176225000Y-97763000D03*
D31*
X175348000Y-98640000D03*
X175348000Y-99140000D03*
X175348000Y-99640000D03*
X175348000Y-100140000D03*
X175348000Y-100640000D03*
X175348000Y-101140000D03*
X175348000Y-101640000D03*
D32*
X176225000Y-102517000D03*
X176725000Y-102517000D03*
X177225000Y-102517000D03*
X177725000Y-102517000D03*
X178225000Y-102517000D03*
X178725000Y-102517000D03*
X179225000Y-102517000D03*
D33*
X177725000Y-100140000D03*
%TD*%
D20*
%TO.C,R1*%
X132625000Y-93340000D03*
X134275000Y-93340000D03*
%TD*%
D34*
%TO.C,D5*%
X149037500Y-97000000D03*
X147462500Y-97000000D03*
%TD*%
D35*
%TO.C,C5*%
X143345000Y-104050000D03*
X141795000Y-104050000D03*
%TD*%
D17*
%TO.C,Hole3*%
X156240000Y-108190000D03*
%TD*%
D35*
%TO.C,C7*%
X143355000Y-96240000D03*
X141805000Y-96240000D03*
%TD*%
D17*
%TO.C,Hole5*%
X164840000Y-91580000D03*
%TD*%
D18*
%TO.C,J2*%
X164530000Y-96090000D03*
D19*
X164530000Y-98630000D03*
X164530000Y-101170000D03*
X164530000Y-103710000D03*
%TD*%
D21*
%TO.C,R4*%
X191705000Y-93270000D03*
X190055000Y-93270000D03*
%TD*%
D23*
%TO.C,C4*%
X183735000Y-98740000D03*
X185285000Y-98740000D03*
%TD*%
D21*
%TO.C,R3*%
X171855000Y-101130000D03*
X170205000Y-101130000D03*
%TD*%
D17*
%TO.C,Hole2*%
X126120000Y-108190000D03*
%TD*%
D26*
%TO.C,USB1*%
X130171500Y-102840000D03*
X130171500Y-97060000D03*
D27*
X130671500Y-95625000D03*
X130671500Y-104275000D03*
D28*
X126471500Y-95625000D03*
X126471500Y-104275000D03*
D29*
X131433500Y-96750000D03*
X131433500Y-97550000D03*
D30*
X131433500Y-98700000D03*
X131433500Y-99700000D03*
X131433500Y-100200000D03*
X131433500Y-101200000D03*
D29*
X131433500Y-103150000D03*
X131433500Y-102350000D03*
D30*
X131433500Y-101700000D03*
X131433500Y-100700000D03*
X131433500Y-99200000D03*
X131433500Y-98200000D03*
%TD*%
D18*
%TO.C,J5*%
X156540000Y-103690000D03*
D19*
X156540000Y-101150000D03*
X156540000Y-98610000D03*
X156540000Y-96070000D03*
%TD*%
D24*
%TO.C,D3*%
X170252500Y-103070000D03*
X171827500Y-103070000D03*
%TD*%
D34*
%TO.C,D1*%
X134197500Y-91550000D03*
X132622500Y-91550000D03*
%TD*%
%TO.C,D6*%
X149037500Y-102910000D03*
X147462500Y-102910000D03*
%TD*%
D23*
%TO.C,C6*%
X135895000Y-99860000D03*
X137445000Y-99860000D03*
%TD*%
D24*
%TO.C,D4*%
X190132500Y-91670000D03*
X191707500Y-91670000D03*
%TD*%
D17*
%TO.C,Hole7*%
X195030000Y-108190000D03*
%TD*%
D23*
%TO.C,C3*%
X183735000Y-100200000D03*
X185285000Y-100200000D03*
%TD*%
%TO.C,C1*%
X183735000Y-97280000D03*
X185285000Y-97280000D03*
%TD*%
D21*
%TO.C,R2*%
X171835000Y-98730000D03*
X170185000Y-98730000D03*
%TD*%
D17*
%TO.C,Hole6*%
X164830000Y-108190000D03*
%TD*%
D36*
%TO.C,U2*%
X143338000Y-98688500D03*
X142839000Y-98688500D03*
X142338000Y-98688500D03*
X141839000Y-98688500D03*
D37*
X141140000Y-99388500D03*
X141140000Y-99888500D03*
X141140000Y-100388500D03*
X141140000Y-100888500D03*
D36*
X141840000Y-101588500D03*
X142340000Y-101588500D03*
X142840000Y-101588500D03*
X143339000Y-101588500D03*
D37*
X144040000Y-100888500D03*
X144040000Y-100388500D03*
X144040000Y-99888500D03*
X144040000Y-99388500D03*
D18*
X142590000Y-100138500D03*
%TD*%
D19*
%TO.C,J4*%
X140800000Y-108720000D03*
X143340000Y-108720000D03*
X145880000Y-108720000D03*
X148420000Y-108720000D03*
X150960000Y-108720000D03*
D18*
X153500000Y-108720000D03*
%TD*%
%TO.C,J3*%
X169340000Y-108680000D03*
D19*
X171880000Y-108680000D03*
X174420000Y-108680000D03*
X176960000Y-108680000D03*
X179500000Y-108680000D03*
X182040000Y-108680000D03*
X184580000Y-108680000D03*
%TD*%
D18*
%TO.C,J1*%
X169400000Y-91100000D03*
D19*
X171940000Y-91100000D03*
X174480000Y-91100000D03*
X177020000Y-91100000D03*
X179560000Y-91100000D03*
X182100000Y-91100000D03*
X184640000Y-91100000D03*
X187180000Y-91100000D03*
%TD*%
D18*
%TO.C,J6*%
X153500000Y-91194000D03*
D19*
X150960000Y-91194000D03*
X148420000Y-91194000D03*
X145880000Y-91194000D03*
X143340000Y-91194000D03*
X140800000Y-91194000D03*
X138260000Y-91194000D03*
%TD*%
M02*
