%TF.GenerationSoftware,KiCad,Pcbnew,(6.0.8)*%
%TF.CreationDate,2022-10-12T15:16:41+08:00*%
%TF.ProjectId,UINIO-USB-UART,55494e49-4f2d-4555-9342-2d554152542e,Hank*%
%TF.SameCoordinates,Original*%
%TF.FileFunction,Soldermask,Top*%
%TF.FilePolarity,Negative*%
%FSLAX46Y46*%
G04 Gerber Fmt 4.6, Leading zero omitted, Abs format (unit mm)*
G04 Created by KiCad (PCBNEW (6.0.8)) date 2022-10-12 15:16:41*
%MOMM*%
%LPD*%
G01*
G04 APERTURE LIST*
G04 Aperture macros list*
%AMRoundRect*
0 Rectangle with rounded corners*
0 $1 Rounding radius*
0 $2 $3 $4 $5 $6 $7 $8 $9 X,Y pos of 4 corners*
0 Add a 4 corners polygon primitive as box body*
4,1,4,$2,$3,$4,$5,$6,$7,$8,$9,$2,$3,0*
0 Add four circle primitives for the rounded corners*
1,1,$1+$1,$2,$3*
1,1,$1+$1,$4,$5*
1,1,$1+$1,$6,$7*
1,1,$1+$1,$8,$9*
0 Add four rect primitives between the rounded corners*
20,1,$1+$1,$2,$3,$4,$5,0*
20,1,$1+$1,$4,$5,$6,$7,0*
20,1,$1+$1,$6,$7,$8,$9,0*
20,1,$1+$1,$8,$9,$2,$3,0*%
G04 Aperture macros list end*
%ADD10C,1.200000*%
%ADD11RoundRect,0.250000X-0.375000X-0.625000X0.375000X-0.625000X0.375000X0.625000X-0.375000X0.625000X0*%
%ADD12RoundRect,0.225000X-0.225000X-0.250000X0.225000X-0.250000X0.225000X0.250000X-0.225000X0.250000X0*%
%ADD13RoundRect,0.218750X0.218750X0.256250X-0.218750X0.256250X-0.218750X-0.256250X0.218750X-0.256250X0*%
%ADD14RoundRect,0.200000X-0.200000X-0.275000X0.200000X-0.275000X0.200000X0.275000X-0.200000X0.275000X0*%
%ADD15RoundRect,0.250000X0.625000X-0.375000X0.625000X0.375000X-0.625000X0.375000X-0.625000X-0.375000X0*%
%ADD16C,0.650000*%
%ADD17O,2.100000X1.000000*%
%ADD18O,1.900000X1.000000*%
%ADD19R,1.150000X0.600000*%
%ADD20R,1.150000X0.300000*%
%ADD21R,0.905000X0.280000*%
%ADD22R,0.280000X0.905000*%
%ADD23R,3.350000X3.350000*%
%ADD24RoundRect,0.225000X0.225000X0.250000X-0.225000X0.250000X-0.225000X-0.250000X0.225000X-0.250000X0*%
%ADD25O,1.200000X1.000000*%
%ADD26R,1.700000X1.700000*%
%ADD27O,1.700000X1.700000*%
%ADD28RoundRect,0.200000X0.200000X0.275000X-0.200000X0.275000X-0.200000X-0.275000X0.200000X-0.275000X0*%
%ADD29RoundRect,0.218750X-0.218750X-0.256250X0.218750X-0.256250X0.218750X0.256250X-0.218750X0.256250X0*%
%ADD30R,0.250000X0.750000*%
%ADD31R,0.750000X0.250000*%
G04 APERTURE END LIST*
D10*
%TO.C,Hole4*%
X156280000Y-91650000D03*
%TD*%
D11*
%TO.C,F2*%
X188660000Y-107570000D03*
X191460000Y-107570000D03*
%TD*%
D12*
%TO.C,C2*%
X183835000Y-98670000D03*
X185385000Y-98670000D03*
%TD*%
D13*
%TO.C,D2*%
X172180000Y-97160000D03*
X170605000Y-97160000D03*
%TD*%
D14*
%TO.C,R6*%
X147167500Y-101330002D03*
X148817500Y-101330002D03*
%TD*%
D15*
%TO.C,F1*%
X130812500Y-93820000D03*
X130812500Y-91020000D03*
%TD*%
D14*
%TO.C,R5*%
X147167500Y-98726668D03*
X148817500Y-98726668D03*
%TD*%
D16*
%TO.C,USB2*%
X190978700Y-97130000D03*
X190978700Y-102910000D03*
D17*
X190478700Y-104345000D03*
X190478700Y-95695000D03*
D18*
X194678700Y-104345000D03*
X194678700Y-95695000D03*
D19*
X189716700Y-103220000D03*
X189716700Y-102420000D03*
D20*
X189716700Y-101270000D03*
X189716700Y-100270000D03*
X189716700Y-99770000D03*
X189716700Y-98770000D03*
D19*
X189716700Y-96820000D03*
X189716700Y-97620000D03*
D20*
X189716700Y-98270000D03*
X189716700Y-99270000D03*
X189716700Y-100770000D03*
X189716700Y-101770000D03*
%TD*%
D10*
%TO.C,Hole1*%
X126440000Y-91650000D03*
%TD*%
%TO.C,Hole8*%
X194840000Y-91790000D03*
%TD*%
D21*
%TO.C,U1*%
X180767000Y-101760000D03*
X180767000Y-101260000D03*
X180767000Y-100760000D03*
X180767000Y-100260000D03*
X180767000Y-99760000D03*
X180767000Y-99260000D03*
X180767000Y-98760000D03*
D22*
X179890000Y-97883000D03*
X179390000Y-97883000D03*
X178890000Y-97883000D03*
X178390000Y-97883000D03*
X177890000Y-97883000D03*
X177390000Y-97883000D03*
X176890000Y-97883000D03*
D21*
X176013000Y-98760000D03*
X176013000Y-99260000D03*
X176013000Y-99760000D03*
X176013000Y-100260000D03*
X176013000Y-100760000D03*
X176013000Y-101260000D03*
X176013000Y-101760000D03*
D22*
X176890000Y-102637000D03*
X177390000Y-102637000D03*
X177890000Y-102637000D03*
X178390000Y-102637000D03*
X178890000Y-102637000D03*
X179390000Y-102637000D03*
X179890000Y-102637000D03*
D23*
X178390000Y-100260000D03*
%TD*%
D14*
%TO.C,R1*%
X132777500Y-91430000D03*
X134427500Y-91430000D03*
%TD*%
D13*
%TO.C,D5*%
X148800000Y-96960000D03*
X147225000Y-96960000D03*
%TD*%
D24*
%TO.C,C5*%
X142065000Y-103980000D03*
X140515000Y-103980000D03*
%TD*%
D25*
%TO.C,SW1*%
X131040000Y-107480000D03*
X133540000Y-107480000D03*
X136040000Y-107480000D03*
%TD*%
D10*
%TO.C,Hole3*%
X156140000Y-108110000D03*
%TD*%
D12*
%TO.C,C7*%
X140593800Y-96520000D03*
X142143800Y-96520000D03*
%TD*%
D10*
%TO.C,Hole5*%
X165450000Y-91670000D03*
%TD*%
D26*
%TO.C,J2*%
X164640000Y-103820000D03*
D27*
X164640000Y-101280000D03*
X164640000Y-98740000D03*
X164640000Y-96200000D03*
%TD*%
D28*
%TO.C,R4*%
X191735000Y-93270000D03*
X190085000Y-93270000D03*
%TD*%
D12*
%TO.C,C4*%
X183835000Y-101468000D03*
X185385000Y-101468000D03*
%TD*%
D14*
%TO.C,R3*%
X170565000Y-101290000D03*
X172215000Y-101290000D03*
%TD*%
D10*
%TO.C,Hole2*%
X126540000Y-108350000D03*
%TD*%
D16*
%TO.C,USB1*%
X130171500Y-102660000D03*
X130171500Y-96880000D03*
D17*
X130671500Y-95445000D03*
X130671500Y-104095000D03*
D18*
X126471500Y-95445000D03*
X126471500Y-104095000D03*
D19*
X131433500Y-96570000D03*
X131433500Y-97370000D03*
D20*
X131433500Y-98520000D03*
X131433500Y-99520000D03*
X131433500Y-100020000D03*
X131433500Y-101020000D03*
D19*
X131433500Y-102970000D03*
X131433500Y-102170000D03*
D20*
X131433500Y-101520000D03*
X131433500Y-100520000D03*
X131433500Y-99020000D03*
X131433500Y-98020000D03*
%TD*%
D26*
%TO.C,J5*%
X156432500Y-103850000D03*
D27*
X156432500Y-101310000D03*
X156432500Y-98770000D03*
X156432500Y-96230000D03*
%TD*%
D13*
%TO.C,D3*%
X172173500Y-102852000D03*
X170598500Y-102852000D03*
%TD*%
%TO.C,D1*%
X134392000Y-93374000D03*
X132817000Y-93374000D03*
%TD*%
%TO.C,D6*%
X148800000Y-103096668D03*
X147225000Y-103096668D03*
%TD*%
D12*
%TO.C,C6*%
X134797800Y-98590000D03*
X136347800Y-98590000D03*
%TD*%
D29*
%TO.C,D4*%
X190132500Y-91670000D03*
X191707500Y-91670000D03*
%TD*%
D10*
%TO.C,Hole7*%
X194700000Y-108240000D03*
%TD*%
D12*
%TO.C,C3*%
X183845000Y-103030000D03*
X185395000Y-103030000D03*
%TD*%
%TO.C,C1*%
X183835000Y-97150000D03*
X185385000Y-97150000D03*
%TD*%
D14*
%TO.C,R2*%
X170570000Y-98720000D03*
X172220000Y-98720000D03*
%TD*%
D10*
%TO.C,Hole6*%
X165420000Y-108150000D03*
%TD*%
D30*
%TO.C,U2*%
X140560800Y-98560000D03*
X140061800Y-98560000D03*
X139560800Y-98560000D03*
X139061800Y-98560000D03*
D31*
X138362800Y-99260000D03*
X138362800Y-99760000D03*
X138362800Y-100260000D03*
X138362800Y-100760000D03*
D30*
X139062800Y-101460000D03*
X139562800Y-101460000D03*
X140062800Y-101460000D03*
X140561800Y-101460000D03*
D31*
X141262800Y-100760000D03*
X141262800Y-100260000D03*
X141262800Y-99760000D03*
X141262800Y-99260000D03*
D26*
X139812800Y-100010000D03*
%TD*%
%TO.C,J4*%
X153500000Y-108700000D03*
D27*
X150960000Y-108700000D03*
X148420000Y-108700000D03*
X145880000Y-108700000D03*
X143340000Y-108700000D03*
X140800000Y-108700000D03*
%TD*%
D26*
%TO.C,J3*%
X169341000Y-108646000D03*
D27*
X171881000Y-108646000D03*
X174421000Y-108646000D03*
X176961000Y-108646000D03*
X179501000Y-108646000D03*
X182041000Y-108646000D03*
X184581000Y-108646000D03*
%TD*%
D26*
%TO.C,J1*%
X169400000Y-91100000D03*
D27*
X171940000Y-91100000D03*
X174480000Y-91100000D03*
X177020000Y-91100000D03*
X179560000Y-91100000D03*
X182100000Y-91100000D03*
X184640000Y-91100000D03*
X187180000Y-91100000D03*
%TD*%
D26*
%TO.C,J6*%
X153500000Y-91194000D03*
D27*
X150960000Y-91194000D03*
X148420000Y-91194000D03*
X145880000Y-91194000D03*
X143340000Y-91194000D03*
X140800000Y-91194000D03*
X138260000Y-91194000D03*
%TD*%
M02*
