%TF.GenerationSoftware,KiCad,Pcbnew,(6.0.9)*%
%TF.CreationDate,2022-11-30T02:30:55+08:00*%
%TF.ProjectId,UINIO-USB-UART,55494e49-4f2d-4555-9342-2d554152542e,Hank*%
%TF.SameCoordinates,Original*%
%TF.FileFunction,Soldermask,Top*%
%TF.FilePolarity,Negative*%
%FSLAX46Y46*%
G04 Gerber Fmt 4.6, Leading zero omitted, Abs format (unit mm)*
G04 Created by KiCad (PCBNEW (6.0.9)) date 2022-11-30 02:30:55*
%MOMM*%
%LPD*%
G01*
G04 APERTURE LIST*
G04 Aperture macros list*
%AMRoundRect*
0 Rectangle with rounded corners*
0 $1 Rounding radius*
0 $2 $3 $4 $5 $6 $7 $8 $9 X,Y pos of 4 corners*
0 Add a 4 corners polygon primitive as box body*
4,1,4,$2,$3,$4,$5,$6,$7,$8,$9,$2,$3,0*
0 Add four circle primitives for the rounded corners*
1,1,$1+$1,$2,$3*
1,1,$1+$1,$4,$5*
1,1,$1+$1,$6,$7*
1,1,$1+$1,$8,$9*
0 Add four rect primitives between the rounded corners*
20,1,$1+$1,$2,$3,$4,$5,0*
20,1,$1+$1,$4,$5,$6,$7,0*
20,1,$1+$1,$6,$7,$8,$9,0*
20,1,$1+$1,$8,$9,$2,$3,0*%
G04 Aperture macros list end*
%ADD10C,1.200000*%
%ADD11R,1.700000X1.700000*%
%ADD12O,1.700000X1.700000*%
%ADD13RoundRect,0.250000X-0.375000X-0.625000X0.375000X-0.625000X0.375000X0.625000X-0.375000X0.625000X0*%
%ADD14RoundRect,0.225000X-0.225000X-0.250000X0.225000X-0.250000X0.225000X0.250000X-0.225000X0.250000X0*%
%ADD15RoundRect,0.218750X-0.218750X-0.256250X0.218750X-0.256250X0.218750X0.256250X-0.218750X0.256250X0*%
%ADD16RoundRect,0.200000X-0.200000X-0.275000X0.200000X-0.275000X0.200000X0.275000X-0.200000X0.275000X0*%
%ADD17RoundRect,0.250000X0.625000X-0.375000X0.625000X0.375000X-0.625000X0.375000X-0.625000X-0.375000X0*%
%ADD18C,0.650000*%
%ADD19O,2.100000X1.000000*%
%ADD20O,1.900000X1.000000*%
%ADD21R,1.150000X0.600000*%
%ADD22R,1.150000X0.300000*%
%ADD23R,0.905000X0.280000*%
%ADD24R,0.280000X0.905000*%
%ADD25R,3.350000X3.350000*%
%ADD26RoundRect,0.218750X0.218750X0.256250X-0.218750X0.256250X-0.218750X-0.256250X0.218750X-0.256250X0*%
%ADD27RoundRect,0.225000X0.225000X0.250000X-0.225000X0.250000X-0.225000X-0.250000X0.225000X-0.250000X0*%
%ADD28RoundRect,0.200000X0.200000X0.275000X-0.200000X0.275000X-0.200000X-0.275000X0.200000X-0.275000X0*%
%ADD29R,0.250000X0.750000*%
%ADD30R,0.750000X0.250000*%
G04 APERTURE END LIST*
D10*
%TO.C,Hole4*%
X156260000Y-91600000D03*
%TD*%
D11*
%TO.C,J7*%
X130640000Y-108700000D03*
D12*
X133180000Y-108700000D03*
X135720000Y-108700000D03*
%TD*%
D13*
%TO.C,F2*%
X188660000Y-107570000D03*
X191460000Y-107570000D03*
%TD*%
D14*
%TO.C,C2*%
X183835000Y-98670000D03*
X185385000Y-98670000D03*
%TD*%
D15*
%TO.C,D2*%
X170622500Y-103060000D03*
X172197500Y-103060000D03*
%TD*%
D16*
%TO.C,R6*%
X147495000Y-101280000D03*
X149145000Y-101280000D03*
%TD*%
D17*
%TO.C,F1*%
X130812500Y-93820000D03*
X130812500Y-91020000D03*
%TD*%
D16*
%TO.C,R5*%
X147495000Y-98720000D03*
X149145000Y-98720000D03*
%TD*%
D18*
%TO.C,USB2*%
X190978700Y-102910000D03*
X190978700Y-97130000D03*
D19*
X190478700Y-104345000D03*
X190478700Y-95695000D03*
D20*
X194678700Y-104345000D03*
X194678700Y-95695000D03*
D21*
X189716700Y-103220000D03*
X189716700Y-102420000D03*
D22*
X189716700Y-101270000D03*
X189716700Y-100270000D03*
X189716700Y-99770000D03*
X189716700Y-98770000D03*
D21*
X189716700Y-96820000D03*
X189716700Y-97620000D03*
D22*
X189716700Y-98270000D03*
X189716700Y-99270000D03*
X189716700Y-100770000D03*
X189716700Y-101770000D03*
%TD*%
D10*
%TO.C,Hole1*%
X126120000Y-91660000D03*
%TD*%
%TO.C,Hole8*%
X195030000Y-91580000D03*
%TD*%
D23*
%TO.C,U1*%
X180767000Y-101760000D03*
X180767000Y-101260000D03*
X180767000Y-100760000D03*
X180767000Y-100260000D03*
X180767000Y-99760000D03*
X180767000Y-99260000D03*
X180767000Y-98760000D03*
D24*
X179890000Y-97883000D03*
X179390000Y-97883000D03*
X178890000Y-97883000D03*
X178390000Y-97883000D03*
X177890000Y-97883000D03*
X177390000Y-97883000D03*
X176890000Y-97883000D03*
D23*
X176013000Y-98760000D03*
X176013000Y-99260000D03*
X176013000Y-99760000D03*
X176013000Y-100260000D03*
X176013000Y-100760000D03*
X176013000Y-101260000D03*
X176013000Y-101760000D03*
D24*
X176890000Y-102637000D03*
X177390000Y-102637000D03*
X177890000Y-102637000D03*
X178390000Y-102637000D03*
X178890000Y-102637000D03*
X179390000Y-102637000D03*
X179890000Y-102637000D03*
D25*
X178390000Y-100260000D03*
%TD*%
D16*
%TO.C,R1*%
X132777500Y-91430000D03*
X134427500Y-91430000D03*
%TD*%
D26*
%TO.C,D5*%
X149067500Y-97040000D03*
X147492500Y-97040000D03*
%TD*%
D27*
%TO.C,C5*%
X142075000Y-103850000D03*
X140525000Y-103850000D03*
%TD*%
D10*
%TO.C,Hole3*%
X156250000Y-108250000D03*
%TD*%
D14*
%TO.C,C7*%
X140525000Y-95980000D03*
X142075000Y-95980000D03*
%TD*%
D10*
%TO.C,Hole5*%
X164830000Y-91580000D03*
%TD*%
D11*
%TO.C,J2*%
X164620000Y-96240000D03*
D12*
X164620000Y-98780000D03*
X164620000Y-101320000D03*
X164620000Y-103860000D03*
%TD*%
D28*
%TO.C,R4*%
X191735000Y-93270000D03*
X190085000Y-93270000D03*
%TD*%
D14*
%TO.C,C4*%
X183835000Y-101468000D03*
X185385000Y-101468000D03*
%TD*%
D28*
%TO.C,R3*%
X172235000Y-98492000D03*
X170585000Y-98492000D03*
%TD*%
D10*
%TO.C,Hole2*%
X126120000Y-108250000D03*
%TD*%
D18*
%TO.C,USB1*%
X130171500Y-102660000D03*
X130171500Y-96880000D03*
D19*
X130671500Y-95445000D03*
X130671500Y-104095000D03*
D20*
X126471500Y-95445000D03*
X126471500Y-104095000D03*
D21*
X131433500Y-96570000D03*
X131433500Y-97370000D03*
D22*
X131433500Y-98520000D03*
X131433500Y-99520000D03*
X131433500Y-100020000D03*
X131433500Y-101020000D03*
D21*
X131433500Y-102970000D03*
X131433500Y-102170000D03*
D22*
X131433500Y-101520000D03*
X131433500Y-100520000D03*
X131433500Y-99020000D03*
X131433500Y-98020000D03*
%TD*%
D11*
%TO.C,J5*%
X156432500Y-103850000D03*
D12*
X156432500Y-101310000D03*
X156432500Y-98770000D03*
X156432500Y-96230000D03*
%TD*%
D15*
%TO.C,D3*%
X170622500Y-96930000D03*
X172197500Y-96930000D03*
%TD*%
D26*
%TO.C,D1*%
X134392000Y-93374000D03*
X132817000Y-93374000D03*
%TD*%
%TO.C,D6*%
X149067500Y-102950000D03*
X147492500Y-102950000D03*
%TD*%
D14*
%TO.C,C6*%
X135095000Y-99440000D03*
X136645000Y-99440000D03*
%TD*%
D15*
%TO.C,D4*%
X190132500Y-91670000D03*
X191707500Y-91670000D03*
%TD*%
D10*
%TO.C,Hole7*%
X195030000Y-108190000D03*
%TD*%
D14*
%TO.C,C3*%
X183845000Y-103030000D03*
X185395000Y-103030000D03*
%TD*%
%TO.C,C1*%
X183835000Y-97150000D03*
X185385000Y-97150000D03*
%TD*%
D28*
%TO.C,R2*%
X172235000Y-101500000D03*
X170585000Y-101500000D03*
%TD*%
D10*
%TO.C,Hole6*%
X164830000Y-108200000D03*
%TD*%
D29*
%TO.C,U2*%
X140560800Y-98560000D03*
X140061800Y-98560000D03*
X139560800Y-98560000D03*
X139061800Y-98560000D03*
D30*
X138362800Y-99260000D03*
X138362800Y-99760000D03*
X138362800Y-100260000D03*
X138362800Y-100760000D03*
D29*
X139062800Y-101460000D03*
X139562800Y-101460000D03*
X140062800Y-101460000D03*
X140561800Y-101460000D03*
D30*
X141262800Y-100760000D03*
X141262800Y-100260000D03*
X141262800Y-99760000D03*
X141262800Y-99260000D03*
D11*
X139812800Y-100010000D03*
%TD*%
%TO.C,J4*%
X153500000Y-108700000D03*
D12*
X150960000Y-108700000D03*
X148420000Y-108700000D03*
X145880000Y-108700000D03*
X143340000Y-108700000D03*
X140800000Y-108700000D03*
%TD*%
D11*
%TO.C,J3*%
X169341000Y-108646000D03*
D12*
X171881000Y-108646000D03*
X174421000Y-108646000D03*
X176961000Y-108646000D03*
X179501000Y-108646000D03*
X182041000Y-108646000D03*
X184581000Y-108646000D03*
%TD*%
D11*
%TO.C,J1*%
X169400000Y-91100000D03*
D12*
X171940000Y-91100000D03*
X174480000Y-91100000D03*
X177020000Y-91100000D03*
X179560000Y-91100000D03*
X182100000Y-91100000D03*
X184640000Y-91100000D03*
X187180000Y-91100000D03*
%TD*%
D11*
%TO.C,J6*%
X153500000Y-91194000D03*
D12*
X150960000Y-91194000D03*
X148420000Y-91194000D03*
X145880000Y-91194000D03*
X143340000Y-91194000D03*
X140800000Y-91194000D03*
X138260000Y-91194000D03*
%TD*%
M02*
