%TF.GenerationSoftware,KiCad,Pcbnew,(6.0.8)*%
%TF.CreationDate,2022-10-22T16:56:41+08:00*%
%TF.ProjectId,UINIO-USB-UART,55494e49-4f2d-4555-9342-2d554152542e,Hank*%
%TF.SameCoordinates,Original*%
%TF.FileFunction,Legend,Top*%
%TF.FilePolarity,Positive*%
%FSLAX46Y46*%
G04 Gerber Fmt 4.6, Leading zero omitted, Abs format (unit mm)*
G04 Created by KiCad (PCBNEW (6.0.8)) date 2022-10-22 16:56:41*
%MOMM*%
%LPD*%
G01*
G04 APERTURE LIST*
G04 Aperture macros list*
%AMRoundRect*
0 Rectangle with rounded corners*
0 $1 Rounding radius*
0 $2 $3 $4 $5 $6 $7 $8 $9 X,Y pos of 4 corners*
0 Add a 4 corners polygon primitive as box body*
4,1,4,$2,$3,$4,$5,$6,$7,$8,$9,$2,$3,0*
0 Add four circle primitives for the rounded corners*
1,1,$1+$1,$2,$3*
1,1,$1+$1,$4,$5*
1,1,$1+$1,$6,$7*
1,1,$1+$1,$8,$9*
0 Add four rect primitives between the rounded corners*
20,1,$1+$1,$2,$3,$4,$5,0*
20,1,$1+$1,$4,$5,$6,$7,0*
20,1,$1+$1,$6,$7,$8,$9,0*
20,1,$1+$1,$8,$9,$2,$3,0*%
G04 Aperture macros list end*
%ADD10C,0.200000*%
%ADD11C,0.100000*%
%ADD12C,0.300000*%
%ADD13C,0.120000*%
%ADD14C,0.254000*%
%ADD15C,0.152000*%
%ADD16C,0.150000*%
%ADD17C,1.200000*%
%ADD18R,1.700000X1.700000*%
%ADD19O,1.700000X1.700000*%
%ADD20RoundRect,0.250000X-0.375000X-0.625000X0.375000X-0.625000X0.375000X0.625000X-0.375000X0.625000X0*%
%ADD21RoundRect,0.225000X-0.225000X-0.250000X0.225000X-0.250000X0.225000X0.250000X-0.225000X0.250000X0*%
%ADD22RoundRect,0.218750X0.218750X0.256250X-0.218750X0.256250X-0.218750X-0.256250X0.218750X-0.256250X0*%
%ADD23RoundRect,0.200000X-0.200000X-0.275000X0.200000X-0.275000X0.200000X0.275000X-0.200000X0.275000X0*%
%ADD24RoundRect,0.250000X0.625000X-0.375000X0.625000X0.375000X-0.625000X0.375000X-0.625000X-0.375000X0*%
%ADD25C,0.650000*%
%ADD26O,2.100000X1.000000*%
%ADD27O,1.900000X1.000000*%
%ADD28R,1.150000X0.600000*%
%ADD29R,1.150000X0.300000*%
%ADD30R,0.905000X0.280000*%
%ADD31R,0.280000X0.905000*%
%ADD32R,3.350000X3.350000*%
%ADD33RoundRect,0.225000X0.225000X0.250000X-0.225000X0.250000X-0.225000X-0.250000X0.225000X-0.250000X0*%
%ADD34RoundRect,0.200000X0.200000X0.275000X-0.200000X0.275000X-0.200000X-0.275000X0.200000X-0.275000X0*%
%ADD35RoundRect,0.218750X-0.218750X-0.256250X0.218750X-0.256250X0.218750X0.256250X-0.218750X0.256250X0*%
%ADD36R,0.250000X0.750000*%
%ADD37R,0.750000X0.250000*%
G04 APERTURE END LIST*
D10*
X181735795Y-93097904D02*
X182116747Y-92831238D01*
X181735795Y-92640761D02*
X182535795Y-92640761D01*
X182535795Y-92945523D01*
X182497700Y-93021714D01*
X182459604Y-93059809D01*
X182383414Y-93097904D01*
X182269128Y-93097904D01*
X182192938Y-93059809D01*
X182154842Y-93021714D01*
X182116747Y-92945523D01*
X182116747Y-92640761D01*
X181773890Y-93402666D02*
X181735795Y-93516952D01*
X181735795Y-93707428D01*
X181773890Y-93783619D01*
X181811985Y-93821714D01*
X181888176Y-93859809D01*
X181964366Y-93859809D01*
X182040557Y-93821714D01*
X182078652Y-93783619D01*
X182116747Y-93707428D01*
X182154842Y-93555047D01*
X182192938Y-93478857D01*
X182231033Y-93440761D01*
X182307223Y-93402666D01*
X182383414Y-93402666D01*
X182459604Y-93440761D01*
X182497700Y-93478857D01*
X182535795Y-93555047D01*
X182535795Y-93745523D01*
X182497700Y-93859809D01*
X182535795Y-94088380D02*
X182535795Y-94545523D01*
X181735795Y-94316952D02*
X182535795Y-94316952D01*
X153371904Y-104221904D02*
X153105238Y-103840952D01*
X152914761Y-104221904D02*
X152914761Y-103421904D01*
X153219523Y-103421904D01*
X153295714Y-103460000D01*
X153333809Y-103498095D01*
X153371904Y-103574285D01*
X153371904Y-103688571D01*
X153333809Y-103764761D01*
X153295714Y-103802857D01*
X153219523Y-103840952D01*
X152914761Y-103840952D01*
X153600476Y-103421904D02*
X154057619Y-103421904D01*
X153829047Y-104221904D02*
X153829047Y-103421904D01*
X154286190Y-104183809D02*
X154400476Y-104221904D01*
X154590952Y-104221904D01*
X154667142Y-104183809D01*
X154705238Y-104145714D01*
X154743333Y-104069523D01*
X154743333Y-103993333D01*
X154705238Y-103917142D01*
X154667142Y-103879047D01*
X154590952Y-103840952D01*
X154438571Y-103802857D01*
X154362380Y-103764761D01*
X154324285Y-103726666D01*
X154286190Y-103650476D01*
X154286190Y-103574285D01*
X154324285Y-103498095D01*
X154362380Y-103460000D01*
X154438571Y-103421904D01*
X154629047Y-103421904D01*
X154743333Y-103460000D01*
X150570000Y-94400523D02*
X150531904Y-94476714D01*
X150531904Y-94591000D01*
X150570000Y-94705285D01*
X150646190Y-94781476D01*
X150722380Y-94819571D01*
X150874761Y-94857666D01*
X150989047Y-94857666D01*
X151141428Y-94819571D01*
X151217619Y-94781476D01*
X151293809Y-94705285D01*
X151331904Y-94591000D01*
X151331904Y-94514809D01*
X151293809Y-94400523D01*
X151255714Y-94362428D01*
X150989047Y-94362428D01*
X150989047Y-94514809D01*
X151331904Y-94019571D02*
X150531904Y-94019571D01*
X151331904Y-93562428D01*
X150531904Y-93562428D01*
X151331904Y-93181476D02*
X150531904Y-93181476D01*
X150531904Y-92991000D01*
X150570000Y-92876714D01*
X150646190Y-92800523D01*
X150722380Y-92762428D01*
X150874761Y-92724333D01*
X150989047Y-92724333D01*
X151141428Y-92762428D01*
X151217619Y-92800523D01*
X151293809Y-92876714D01*
X151331904Y-92991000D01*
X151331904Y-93181476D01*
X179183095Y-92650476D02*
X179983095Y-92650476D01*
X179983095Y-92840952D01*
X179945000Y-92955238D01*
X179868809Y-93031428D01*
X179792619Y-93069523D01*
X179640238Y-93107619D01*
X179525952Y-93107619D01*
X179373571Y-93069523D01*
X179297380Y-93031428D01*
X179221190Y-92955238D01*
X179183095Y-92840952D01*
X179183095Y-92650476D01*
X179259285Y-93907619D02*
X179221190Y-93869523D01*
X179183095Y-93755238D01*
X179183095Y-93679047D01*
X179221190Y-93564761D01*
X179297380Y-93488571D01*
X179373571Y-93450476D01*
X179525952Y-93412380D01*
X179640238Y-93412380D01*
X179792619Y-93450476D01*
X179868809Y-93488571D01*
X179945000Y-93564761D01*
X179983095Y-93679047D01*
X179983095Y-93755238D01*
X179945000Y-93869523D01*
X179906904Y-93907619D01*
X179183095Y-94250476D02*
X179983095Y-94250476D01*
X179983095Y-94440952D01*
X179945000Y-94555238D01*
X179868809Y-94631428D01*
X179792619Y-94669523D01*
X179640238Y-94707619D01*
X179525952Y-94707619D01*
X179373571Y-94669523D01*
X179297380Y-94631428D01*
X179221190Y-94555238D01*
X179183095Y-94440952D01*
X179183095Y-94250476D01*
X152878214Y-96591904D02*
X152878214Y-95791904D01*
X153068690Y-95791904D01*
X153182976Y-95830000D01*
X153259166Y-95906190D01*
X153297261Y-95982380D01*
X153335357Y-96134761D01*
X153335357Y-96249047D01*
X153297261Y-96401428D01*
X153259166Y-96477619D01*
X153182976Y-96553809D01*
X153068690Y-96591904D01*
X152878214Y-96591904D01*
X153563928Y-95791904D02*
X154021071Y-95791904D01*
X153792500Y-96591904D02*
X153792500Y-95791904D01*
X154744880Y-96591904D02*
X154478214Y-96210952D01*
X154287738Y-96591904D02*
X154287738Y-95791904D01*
X154592500Y-95791904D01*
X154668690Y-95830000D01*
X154706785Y-95868095D01*
X154744880Y-95944285D01*
X154744880Y-96058571D01*
X154706785Y-96134761D01*
X154668690Y-96172857D01*
X154592500Y-96210952D01*
X154287738Y-96210952D01*
X153182975Y-99141904D02*
X152916309Y-98760952D01*
X152725832Y-99141904D02*
X152725832Y-98341904D01*
X153030594Y-98341904D01*
X153106785Y-98380000D01*
X153144880Y-98418095D01*
X153182975Y-98494285D01*
X153182975Y-98608571D01*
X153144880Y-98684761D01*
X153106785Y-98722857D01*
X153030594Y-98760952D01*
X152725832Y-98760952D01*
X153449642Y-98341904D02*
X153982975Y-99141904D01*
X153982975Y-98341904D02*
X153449642Y-99141904D01*
X154287737Y-99141904D02*
X154287737Y-98341904D01*
X154478213Y-98341904D01*
X154592499Y-98380000D01*
X154668689Y-98456190D01*
X154706785Y-98532380D01*
X154744880Y-98684761D01*
X154744880Y-98799047D01*
X154706785Y-98951428D01*
X154668689Y-99027619D01*
X154592499Y-99103809D01*
X154478213Y-99141904D01*
X154287737Y-99141904D01*
X152802023Y-100881904D02*
X153259166Y-100881904D01*
X153030594Y-101681904D02*
X153030594Y-100881904D01*
X153449642Y-100881904D02*
X153982975Y-101681904D01*
X153982975Y-100881904D02*
X153449642Y-101681904D01*
X154287737Y-101681904D02*
X154287737Y-100881904D01*
X154478213Y-100881904D01*
X154592499Y-100920000D01*
X154668689Y-100996190D01*
X154706785Y-101072380D01*
X154744880Y-101224761D01*
X154744880Y-101339047D01*
X154706785Y-101491428D01*
X154668689Y-101567619D01*
X154592499Y-101643809D01*
X154478213Y-101681904D01*
X154287737Y-101681904D01*
X132751904Y-106796190D02*
X133551904Y-106529523D01*
X132751904Y-106262857D01*
X133551904Y-105996190D02*
X132751904Y-105996190D01*
X132751904Y-105462857D02*
X132751904Y-105310476D01*
X132790000Y-105234285D01*
X132866190Y-105158095D01*
X133018571Y-105120000D01*
X133285238Y-105120000D01*
X133437619Y-105158095D01*
X133513809Y-105234285D01*
X133551904Y-105310476D01*
X133551904Y-105462857D01*
X133513809Y-105539047D01*
X133437619Y-105615238D01*
X133285238Y-105653333D01*
X133018571Y-105653333D01*
X132866190Y-105615238D01*
X132790000Y-105539047D01*
X132751904Y-105462857D01*
D11*
X184340530Y-92876676D02*
X184379943Y-92940829D01*
X184471138Y-93017351D01*
X184522921Y-93029721D01*
X184556465Y-93026786D01*
X184605313Y-93005612D01*
X184635922Y-92969134D01*
X184648291Y-92917351D01*
X184645357Y-92883808D01*
X184624183Y-92834960D01*
X184566531Y-92755503D01*
X184545357Y-92706655D01*
X184542422Y-92673111D01*
X184554792Y-92621328D01*
X184585401Y-92584850D01*
X184634249Y-92563676D01*
X184667793Y-92560741D01*
X184719575Y-92573111D01*
X184810771Y-92649633D01*
X184850184Y-92713786D01*
X185029641Y-92833287D02*
X184769465Y-93143353D01*
X184757095Y-93195135D01*
X184760030Y-93228679D01*
X184781204Y-93277527D01*
X184854161Y-93338745D01*
X184905943Y-93351115D01*
X184939487Y-93348180D01*
X184988335Y-93327006D01*
X185248511Y-93016941D01*
X185106574Y-93519464D02*
X185145987Y-93583616D01*
X185237183Y-93660139D01*
X185288966Y-93672509D01*
X185322509Y-93669574D01*
X185371357Y-93648400D01*
X185401966Y-93611922D01*
X185414336Y-93560139D01*
X185411401Y-93526595D01*
X185390227Y-93477747D01*
X185332575Y-93398290D01*
X185311401Y-93349442D01*
X185308467Y-93315899D01*
X185320837Y-93264116D01*
X185351445Y-93227637D01*
X185400294Y-93206464D01*
X185433837Y-93203529D01*
X185485620Y-93215899D01*
X185576816Y-93292421D01*
X185616229Y-93356574D01*
X185474292Y-93859097D02*
X185795686Y-93476075D01*
X185941599Y-93598510D01*
X185962773Y-93647358D01*
X185965707Y-93680902D01*
X185953337Y-93732685D01*
X185907424Y-93787402D01*
X185858576Y-93808576D01*
X185825032Y-93811511D01*
X185773250Y-93799141D01*
X185627336Y-93676705D01*
X186025663Y-93979860D02*
X186153337Y-94086991D01*
X186039705Y-94333535D02*
X185857314Y-94180491D01*
X186178708Y-93797468D01*
X186361099Y-93950513D01*
X186203858Y-94471276D02*
X186525252Y-94088253D01*
X186422728Y-94654929D01*
X186744122Y-94271907D01*
X186605119Y-94807974D02*
X186926513Y-94424952D01*
X187017709Y-94501474D01*
X187057122Y-94565627D01*
X187062991Y-94632714D01*
X187050621Y-94684497D01*
X187007643Y-94772758D01*
X186961729Y-94827475D01*
X186882272Y-94885127D01*
X186833424Y-94906301D01*
X186766337Y-94912170D01*
X186696315Y-94884496D01*
X186605119Y-94807974D01*
D10*
X172213000Y-105422666D02*
X172251095Y-105346475D01*
X172251095Y-105232190D01*
X172213000Y-105117904D01*
X172136809Y-105041713D01*
X172060619Y-105003618D01*
X171908238Y-104965523D01*
X171793952Y-104965523D01*
X171641571Y-105003618D01*
X171565380Y-105041713D01*
X171489190Y-105117904D01*
X171451095Y-105232190D01*
X171451095Y-105308380D01*
X171489190Y-105422666D01*
X171527285Y-105460761D01*
X171793952Y-105460761D01*
X171793952Y-105308380D01*
X171451095Y-105803618D02*
X172251095Y-105803618D01*
X171451095Y-106260761D01*
X172251095Y-106260761D01*
X171451095Y-106641713D02*
X172251095Y-106641713D01*
X172251095Y-106832190D01*
X172213000Y-106946475D01*
X172136809Y-107022666D01*
X172060619Y-107060761D01*
X171908238Y-107098856D01*
X171793952Y-107098856D01*
X171641571Y-107060761D01*
X171565380Y-107022666D01*
X171489190Y-106946475D01*
X171451095Y-106832190D01*
X171451095Y-106641713D01*
X169711095Y-104775047D02*
X169711095Y-105270285D01*
X169406333Y-105003619D01*
X169406333Y-105117904D01*
X169368238Y-105194095D01*
X169330142Y-105232190D01*
X169253952Y-105270285D01*
X169063476Y-105270285D01*
X168987285Y-105232190D01*
X168949190Y-105194095D01*
X168911095Y-105117904D01*
X168911095Y-104889333D01*
X168949190Y-104813142D01*
X168987285Y-104775047D01*
X168987285Y-105613142D02*
X168949190Y-105651238D01*
X168911095Y-105613142D01*
X168949190Y-105575047D01*
X168987285Y-105613142D01*
X168911095Y-105613142D01*
X169711095Y-105917904D02*
X169711095Y-106413142D01*
X169406333Y-106146476D01*
X169406333Y-106260761D01*
X169368238Y-106336952D01*
X169330142Y-106375047D01*
X169253952Y-106413142D01*
X169063476Y-106413142D01*
X168987285Y-106375047D01*
X168949190Y-106336952D01*
X168911095Y-106260761D01*
X168911095Y-106032190D01*
X168949190Y-105956000D01*
X168987285Y-105917904D01*
X169711095Y-106641714D02*
X168911095Y-106908380D01*
X169711095Y-107175047D01*
X168284285Y-101740095D02*
X167827142Y-101740095D01*
X168055714Y-100940095D02*
X168055714Y-101740095D01*
X167636666Y-101740095D02*
X167103333Y-100940095D01*
X167103333Y-101740095D02*
X167636666Y-100940095D01*
X166798571Y-100940095D02*
X166798571Y-101740095D01*
X166608095Y-101740095D01*
X166493809Y-101702000D01*
X166417619Y-101625809D01*
X166379523Y-101549619D01*
X166341428Y-101397238D01*
X166341428Y-101282952D01*
X166379523Y-101130571D01*
X166417619Y-101054380D01*
X166493809Y-100978190D01*
X166608095Y-100940095D01*
X166798571Y-100940095D01*
X143731904Y-107009189D02*
X142931904Y-107009189D01*
X142931904Y-106818713D01*
X142970000Y-106704427D01*
X143046190Y-106628237D01*
X143122380Y-106590142D01*
X143274761Y-106552046D01*
X143389047Y-106552046D01*
X143541428Y-106590142D01*
X143617619Y-106628237D01*
X143693809Y-106704427D01*
X143731904Y-106818713D01*
X143731904Y-107009189D01*
X143655714Y-105752046D02*
X143693809Y-105790142D01*
X143731904Y-105904427D01*
X143731904Y-105980618D01*
X143693809Y-106094904D01*
X143617619Y-106171094D01*
X143541428Y-106209189D01*
X143389047Y-106247285D01*
X143274761Y-106247285D01*
X143122380Y-106209189D01*
X143046190Y-106171094D01*
X142970000Y-106094904D01*
X142931904Y-105980618D01*
X142931904Y-105904427D01*
X142970000Y-105790142D01*
X143008095Y-105752046D01*
X143731904Y-105409189D02*
X142931904Y-105409189D01*
X142931904Y-105218713D01*
X142970000Y-105104427D01*
X143046190Y-105028237D01*
X143122380Y-104990142D01*
X143274761Y-104952046D01*
X143389047Y-104952046D01*
X143541428Y-104990142D01*
X143617619Y-105028237D01*
X143693809Y-105104427D01*
X143731904Y-105218713D01*
X143731904Y-105409189D01*
X150570000Y-106590142D02*
X150531904Y-106666333D01*
X150531904Y-106780619D01*
X150570000Y-106894904D01*
X150646190Y-106971095D01*
X150722380Y-107009190D01*
X150874761Y-107047285D01*
X150989047Y-107047285D01*
X151141428Y-107009190D01*
X151217619Y-106971095D01*
X151293809Y-106894904D01*
X151331904Y-106780619D01*
X151331904Y-106704428D01*
X151293809Y-106590142D01*
X151255714Y-106552047D01*
X150989047Y-106552047D01*
X150989047Y-106704428D01*
X151331904Y-106209190D02*
X150531904Y-106209190D01*
X151331904Y-105752047D01*
X150531904Y-105752047D01*
X151331904Y-105371095D02*
X150531904Y-105371095D01*
X150531904Y-105180619D01*
X150570000Y-105066333D01*
X150646190Y-104990142D01*
X150722380Y-104952047D01*
X150874761Y-104913952D01*
X150989047Y-104913952D01*
X151141428Y-104952047D01*
X151217619Y-104990142D01*
X151293809Y-105066333D01*
X151331904Y-105180619D01*
X151331904Y-105371095D01*
X176531095Y-105727427D02*
X176912047Y-105460761D01*
X176531095Y-105270284D02*
X177331095Y-105270284D01*
X177331095Y-105575046D01*
X177293000Y-105651237D01*
X177254904Y-105689332D01*
X177178714Y-105727427D01*
X177064428Y-105727427D01*
X176988238Y-105689332D01*
X176950142Y-105651237D01*
X176912047Y-105575046D01*
X176912047Y-105270284D01*
X177331095Y-105955999D02*
X177331095Y-106413142D01*
X176531095Y-106184570D02*
X177331095Y-106184570D01*
X176569190Y-106641713D02*
X176531095Y-106755999D01*
X176531095Y-106946475D01*
X176569190Y-107022665D01*
X176607285Y-107060761D01*
X176683476Y-107098856D01*
X176759666Y-107098856D01*
X176835857Y-107060761D01*
X176873952Y-107022665D01*
X176912047Y-106946475D01*
X176950142Y-106794094D01*
X176988238Y-106717903D01*
X177026333Y-106679808D01*
X177102523Y-106641713D01*
X177178714Y-106641713D01*
X177254904Y-106679808D01*
X177293000Y-106717903D01*
X177331095Y-106794094D01*
X177331095Y-106984570D01*
X177293000Y-107098856D01*
X137843504Y-94667190D02*
X137843504Y-94210047D01*
X138643504Y-94438619D02*
X137843504Y-94438619D01*
X137843504Y-94019571D02*
X138643504Y-93486238D01*
X137843504Y-93486238D02*
X138643504Y-94019571D01*
X138643504Y-93181476D02*
X137843504Y-93181476D01*
X137843504Y-92991000D01*
X137881600Y-92876714D01*
X137957790Y-92800524D01*
X138033980Y-92762428D01*
X138186361Y-92724333D01*
X138300647Y-92724333D01*
X138453028Y-92762428D01*
X138529219Y-92800524D01*
X138605409Y-92876714D01*
X138643504Y-92991000D01*
X138643504Y-93181476D01*
X169823095Y-93108619D02*
X169823095Y-92727666D01*
X169442142Y-92689571D01*
X169480238Y-92727666D01*
X169518333Y-92803857D01*
X169518333Y-92994333D01*
X169480238Y-93070523D01*
X169442142Y-93108619D01*
X169365952Y-93146714D01*
X169175476Y-93146714D01*
X169099285Y-93108619D01*
X169061190Y-93070523D01*
X169023095Y-92994333D01*
X169023095Y-92803857D01*
X169061190Y-92727666D01*
X169099285Y-92689571D01*
X169823095Y-93375285D02*
X169023095Y-93641952D01*
X169823095Y-93908619D01*
X148788904Y-107009190D02*
X147988904Y-107009190D01*
X147988904Y-106818714D01*
X148027000Y-106704428D01*
X148103190Y-106628237D01*
X148179380Y-106590142D01*
X148331761Y-106552047D01*
X148446047Y-106552047D01*
X148598428Y-106590142D01*
X148674619Y-106628237D01*
X148750809Y-106704428D01*
X148788904Y-106818714D01*
X148788904Y-107009190D01*
X148750809Y-106247285D02*
X148788904Y-106132999D01*
X148788904Y-105942523D01*
X148750809Y-105866333D01*
X148712714Y-105828237D01*
X148636523Y-105790142D01*
X148560333Y-105790142D01*
X148484142Y-105828237D01*
X148446047Y-105866333D01*
X148407952Y-105942523D01*
X148369857Y-106094904D01*
X148331761Y-106171094D01*
X148293666Y-106209190D01*
X148217476Y-106247285D01*
X148141285Y-106247285D01*
X148065095Y-106209190D01*
X148027000Y-106171094D01*
X147988904Y-106094904D01*
X147988904Y-105904428D01*
X148027000Y-105790142D01*
X148788904Y-104990142D02*
X148407952Y-105256809D01*
X148788904Y-105447285D02*
X147988904Y-105447285D01*
X147988904Y-105142523D01*
X148027000Y-105066333D01*
X148065095Y-105028237D01*
X148141285Y-104990142D01*
X148255571Y-104990142D01*
X148331761Y-105028237D01*
X148369857Y-105066333D01*
X148407952Y-105142523D01*
X148407952Y-105447285D01*
X130221904Y-106362380D02*
X130221904Y-106743333D01*
X130602857Y-106781428D01*
X130564761Y-106743333D01*
X130526666Y-106667142D01*
X130526666Y-106476666D01*
X130564761Y-106400476D01*
X130602857Y-106362380D01*
X130679047Y-106324285D01*
X130869523Y-106324285D01*
X130945714Y-106362380D01*
X130983809Y-106400476D01*
X131021904Y-106476666D01*
X131021904Y-106667142D01*
X130983809Y-106743333D01*
X130945714Y-106781428D01*
X130221904Y-106095714D02*
X131021904Y-105829047D01*
X130221904Y-105562380D01*
X153071904Y-106628237D02*
X153071904Y-107009190D01*
X153452857Y-107047285D01*
X153414761Y-107009190D01*
X153376666Y-106932999D01*
X153376666Y-106742523D01*
X153414761Y-106666333D01*
X153452857Y-106628237D01*
X153529047Y-106590142D01*
X153719523Y-106590142D01*
X153795714Y-106628237D01*
X153833809Y-106666333D01*
X153871904Y-106742523D01*
X153871904Y-106932999D01*
X153833809Y-107009190D01*
X153795714Y-107047285D01*
X153071904Y-106361571D02*
X153871904Y-106094904D01*
X153071904Y-105828237D01*
X141171904Y-94286238D02*
X140790952Y-94552905D01*
X141171904Y-94743381D02*
X140371904Y-94743381D01*
X140371904Y-94438619D01*
X140410000Y-94362428D01*
X140448095Y-94324333D01*
X140524285Y-94286238D01*
X140638571Y-94286238D01*
X140714761Y-94324333D01*
X140752857Y-94362428D01*
X140790952Y-94438619D01*
X140790952Y-94743381D01*
X140371904Y-94019571D02*
X141171904Y-93486238D01*
X140371904Y-93486238D02*
X141171904Y-94019571D01*
X141171904Y-93181476D02*
X140371904Y-93181476D01*
X140371904Y-92991000D01*
X140410000Y-92876714D01*
X140486190Y-92800524D01*
X140562380Y-92762428D01*
X140714761Y-92724333D01*
X140829047Y-92724333D01*
X140981428Y-92762428D01*
X141057619Y-92800524D01*
X141133809Y-92876714D01*
X141171904Y-92991000D01*
X141171904Y-93181476D01*
D11*
X140926666Y-107116333D02*
X140926666Y-106783000D01*
X141126666Y-107183000D02*
X140426666Y-106949666D01*
X141126666Y-106716333D01*
X141060000Y-106083000D02*
X141093333Y-106116333D01*
X141126666Y-106216333D01*
X141126666Y-106283000D01*
X141093333Y-106383000D01*
X141026666Y-106449666D01*
X140960000Y-106483000D01*
X140826666Y-106516333D01*
X140726666Y-106516333D01*
X140593333Y-106483000D01*
X140526666Y-106449666D01*
X140460000Y-106383000D01*
X140426666Y-106283000D01*
X140426666Y-106216333D01*
X140460000Y-106116333D01*
X140493333Y-106083000D01*
X140426666Y-105883000D02*
X140426666Y-105483000D01*
X141126666Y-105683000D02*
X140426666Y-105683000D01*
X140660000Y-105283000D02*
X140660000Y-104783000D01*
X140360000Y-105083000D02*
X141260000Y-105283000D01*
X140960000Y-104849666D02*
X140960000Y-105349666D01*
X141260000Y-105049666D02*
X140360000Y-104849666D01*
D10*
X176643095Y-92655714D02*
X177443095Y-92655714D01*
X177443095Y-92846190D01*
X177405000Y-92960476D01*
X177328809Y-93036666D01*
X177252619Y-93074761D01*
X177100238Y-93112857D01*
X176985952Y-93112857D01*
X176833571Y-93074761D01*
X176757380Y-93036666D01*
X176681190Y-92960476D01*
X176643095Y-92846190D01*
X176643095Y-92655714D01*
X177443095Y-93341428D02*
X177443095Y-93798571D01*
X176643095Y-93570000D02*
X177443095Y-93570000D01*
X176643095Y-94522380D02*
X177024047Y-94255714D01*
X176643095Y-94065238D02*
X177443095Y-94065238D01*
X177443095Y-94370000D01*
X177405000Y-94446190D01*
X177366904Y-94484285D01*
X177290714Y-94522380D01*
X177176428Y-94522380D01*
X177100238Y-94484285D01*
X177062142Y-94446190D01*
X177024047Y-94370000D01*
X177024047Y-94065238D01*
D11*
X187283662Y-92570675D02*
X187207140Y-92661871D01*
X187146553Y-92548871D02*
X187207140Y-92661871D01*
X187328945Y-92701915D01*
X187091205Y-92688914D02*
X187207140Y-92661871D01*
X187200640Y-92780741D01*
X187196443Y-93119112D02*
X187235856Y-93183265D01*
X187327052Y-93259787D01*
X187378834Y-93272157D01*
X187412378Y-93269222D01*
X187461226Y-93248048D01*
X187491835Y-93211570D01*
X187504205Y-93159787D01*
X187501270Y-93126243D01*
X187480096Y-93077395D01*
X187422444Y-92997938D01*
X187401270Y-92949090D01*
X187398336Y-92915547D01*
X187410705Y-92863764D01*
X187441314Y-92827286D01*
X187490162Y-92806112D01*
X187523706Y-92803177D01*
X187575489Y-92815547D01*
X187666684Y-92892069D01*
X187706097Y-92956222D01*
X187885554Y-93075723D02*
X187625378Y-93385788D01*
X187613009Y-93437571D01*
X187615943Y-93471115D01*
X187637117Y-93519963D01*
X187710074Y-93581181D01*
X187761857Y-93593551D01*
X187795400Y-93590616D01*
X187844248Y-93569442D01*
X188104424Y-93259376D01*
X187962487Y-93761900D02*
X188001900Y-93826052D01*
X188093096Y-93902575D01*
X188144879Y-93914944D01*
X188178422Y-93912010D01*
X188227270Y-93890836D01*
X188257879Y-93854358D01*
X188270249Y-93802575D01*
X188267314Y-93769031D01*
X188246141Y-93720183D01*
X188188488Y-93640726D01*
X188167315Y-93591878D01*
X188164380Y-93558334D01*
X188176750Y-93506552D01*
X188207359Y-93470073D01*
X188256207Y-93448899D01*
X188289750Y-93445965D01*
X188341533Y-93458334D01*
X188432729Y-93534857D01*
X188472142Y-93599009D01*
X188330205Y-94101533D02*
X188651599Y-93718510D01*
X188797512Y-93840946D01*
X188818686Y-93889794D01*
X188821621Y-93923338D01*
X188809251Y-93975121D01*
X188763337Y-94029838D01*
X188714489Y-94051012D01*
X188680946Y-94053947D01*
X188629163Y-94041577D01*
X188483250Y-93919141D01*
X188881576Y-94222296D02*
X189009250Y-94329427D01*
X188895619Y-94575971D02*
X188713227Y-94422926D01*
X189034621Y-94039904D01*
X189217013Y-94192949D01*
X189059771Y-94713711D02*
X189381165Y-94330689D01*
X189278641Y-94897365D01*
X189600035Y-94514343D01*
X189461032Y-95050410D02*
X189782426Y-94667387D01*
X189873622Y-94743910D01*
X189913035Y-94808062D01*
X189918904Y-94875149D01*
X189906535Y-94926932D01*
X189863556Y-95015193D01*
X189817643Y-95069911D01*
X189738185Y-95127563D01*
X189689337Y-95148737D01*
X189622250Y-95154606D01*
X189552228Y-95126932D01*
X189461032Y-95050410D01*
D10*
X172325000Y-93080476D02*
X172363095Y-93004285D01*
X172363095Y-92890000D01*
X172325000Y-92775714D01*
X172248809Y-92699523D01*
X172172619Y-92661428D01*
X172020238Y-92623333D01*
X171905952Y-92623333D01*
X171753571Y-92661428D01*
X171677380Y-92699523D01*
X171601190Y-92775714D01*
X171563095Y-92890000D01*
X171563095Y-92966190D01*
X171601190Y-93080476D01*
X171639285Y-93118571D01*
X171905952Y-93118571D01*
X171905952Y-92966190D01*
X171563095Y-93461428D02*
X172363095Y-93461428D01*
X171563095Y-93918571D01*
X172363095Y-93918571D01*
X171563095Y-94299523D02*
X172363095Y-94299523D01*
X172363095Y-94490000D01*
X172325000Y-94604285D01*
X172248809Y-94680476D01*
X172172619Y-94718571D01*
X172020238Y-94756666D01*
X171905952Y-94756666D01*
X171753571Y-94718571D01*
X171677380Y-94680476D01*
X171601190Y-94604285D01*
X171563095Y-94490000D01*
X171563095Y-94299523D01*
X153071904Y-95048142D02*
X153071904Y-94552904D01*
X153376666Y-94819570D01*
X153376666Y-94705285D01*
X153414761Y-94629094D01*
X153452857Y-94590999D01*
X153529047Y-94552904D01*
X153719523Y-94552904D01*
X153795714Y-94590999D01*
X153833809Y-94629094D01*
X153871904Y-94705285D01*
X153871904Y-94933856D01*
X153833809Y-95010047D01*
X153795714Y-95048142D01*
X153795714Y-94210047D02*
X153833809Y-94171951D01*
X153871904Y-94210047D01*
X153833809Y-94248142D01*
X153795714Y-94210047D01*
X153871904Y-94210047D01*
X153071904Y-93905285D02*
X153071904Y-93410047D01*
X153376666Y-93676713D01*
X153376666Y-93562428D01*
X153414761Y-93486237D01*
X153452857Y-93448142D01*
X153529047Y-93410047D01*
X153719523Y-93410047D01*
X153795714Y-93448142D01*
X153833809Y-93486237D01*
X153871904Y-93562428D01*
X153871904Y-93790999D01*
X153833809Y-93867190D01*
X153795714Y-93905285D01*
X153071904Y-93181475D02*
X153871904Y-92914809D01*
X153071904Y-92648142D01*
X146248904Y-107009189D02*
X145448904Y-107009189D01*
X145448904Y-106818713D01*
X145487000Y-106704427D01*
X145563190Y-106628237D01*
X145639380Y-106590142D01*
X145791761Y-106552046D01*
X145906047Y-106552046D01*
X146058428Y-106590142D01*
X146134619Y-106628237D01*
X146210809Y-106704427D01*
X146248904Y-106818713D01*
X146248904Y-107009189D01*
X145448904Y-106323475D02*
X145448904Y-105866332D01*
X146248904Y-106094904D02*
X145448904Y-106094904D01*
X146248904Y-105142523D02*
X145867952Y-105409189D01*
X146248904Y-105599665D02*
X145448904Y-105599665D01*
X145448904Y-105294904D01*
X145487000Y-105218713D01*
X145525095Y-105180618D01*
X145601285Y-105142523D01*
X145715571Y-105142523D01*
X145791761Y-105180618D01*
X145829857Y-105218713D01*
X145867952Y-105294904D01*
X145867952Y-105599665D01*
X146251904Y-94095762D02*
X145870952Y-94362428D01*
X146251904Y-94552905D02*
X145451904Y-94552905D01*
X145451904Y-94248143D01*
X145490000Y-94171952D01*
X145528095Y-94133857D01*
X145604285Y-94095762D01*
X145718571Y-94095762D01*
X145794761Y-94133857D01*
X145832857Y-94171952D01*
X145870952Y-94248143D01*
X145870952Y-94552905D01*
X145451904Y-93867190D02*
X145451904Y-93410047D01*
X146251904Y-93638619D02*
X145451904Y-93638619D01*
X146213809Y-93181476D02*
X146251904Y-93067190D01*
X146251904Y-92876714D01*
X146213809Y-92800524D01*
X146175714Y-92762428D01*
X146099523Y-92724333D01*
X146023333Y-92724333D01*
X145947142Y-92762428D01*
X145909047Y-92800524D01*
X145870952Y-92876714D01*
X145832857Y-93029095D01*
X145794761Y-93105286D01*
X145756666Y-93143381D01*
X145680476Y-93181476D01*
X145604285Y-93181476D01*
X145528095Y-93143381D01*
X145490000Y-93105286D01*
X145451904Y-93029095D01*
X145451904Y-92838619D01*
X145490000Y-92724333D01*
X174067285Y-105727427D02*
X174029190Y-105689332D01*
X173991095Y-105575046D01*
X173991095Y-105498856D01*
X174029190Y-105384570D01*
X174105380Y-105308380D01*
X174181571Y-105270284D01*
X174333952Y-105232189D01*
X174448238Y-105232189D01*
X174600619Y-105270284D01*
X174676809Y-105308380D01*
X174753000Y-105384570D01*
X174791095Y-105498856D01*
X174791095Y-105575046D01*
X174753000Y-105689332D01*
X174714904Y-105727427D01*
X174791095Y-105955999D02*
X174791095Y-106413142D01*
X173991095Y-106184570D02*
X174791095Y-106184570D01*
X174029190Y-106641713D02*
X173991095Y-106755999D01*
X173991095Y-106946475D01*
X174029190Y-107022665D01*
X174067285Y-107060761D01*
X174143476Y-107098856D01*
X174219666Y-107098856D01*
X174295857Y-107060761D01*
X174333952Y-107022665D01*
X174372047Y-106946475D01*
X174410142Y-106794094D01*
X174448238Y-106717903D01*
X174486333Y-106679808D01*
X174562523Y-106641713D01*
X174638714Y-106641713D01*
X174714904Y-106679808D01*
X174753000Y-106717903D01*
X174791095Y-106794094D01*
X174791095Y-106984570D01*
X174753000Y-107098856D01*
X135301904Y-106790952D02*
X135301904Y-106295714D01*
X135606666Y-106562380D01*
X135606666Y-106448095D01*
X135644761Y-106371904D01*
X135682857Y-106333809D01*
X135759047Y-106295714D01*
X135949523Y-106295714D01*
X136025714Y-106333809D01*
X136063809Y-106371904D01*
X136101904Y-106448095D01*
X136101904Y-106676666D01*
X136063809Y-106752857D01*
X136025714Y-106790952D01*
X136025714Y-105952857D02*
X136063809Y-105914761D01*
X136101904Y-105952857D01*
X136063809Y-105990952D01*
X136025714Y-105952857D01*
X136101904Y-105952857D01*
X135301904Y-105648095D02*
X135301904Y-105152857D01*
X135606666Y-105419523D01*
X135606666Y-105305238D01*
X135644761Y-105229047D01*
X135682857Y-105190952D01*
X135759047Y-105152857D01*
X135949523Y-105152857D01*
X136025714Y-105190952D01*
X136063809Y-105229047D01*
X136101904Y-105305238D01*
X136101904Y-105533809D01*
X136063809Y-105610000D01*
X136025714Y-105648095D01*
X135301904Y-104924285D02*
X136101904Y-104657619D01*
X135301904Y-104390952D01*
X181610895Y-105536951D02*
X181991847Y-105270285D01*
X181610895Y-105079808D02*
X182410895Y-105079808D01*
X182410895Y-105384570D01*
X182372800Y-105460761D01*
X182334704Y-105498856D01*
X182258514Y-105536951D01*
X182144228Y-105536951D01*
X182068038Y-105498856D01*
X182029942Y-105460761D01*
X181991847Y-105384570D01*
X181991847Y-105079808D01*
X182410895Y-105803618D02*
X181610895Y-106336951D01*
X182410895Y-106336951D02*
X181610895Y-105803618D01*
X181610895Y-106641713D02*
X182410895Y-106641713D01*
X182410895Y-106832189D01*
X182372800Y-106946475D01*
X182296609Y-107022665D01*
X182220419Y-107060761D01*
X182068038Y-107098856D01*
X181953752Y-107098856D01*
X181801371Y-107060761D01*
X181725180Y-107022665D01*
X181648990Y-106946475D01*
X181610895Y-106832189D01*
X181610895Y-106641713D01*
X143711904Y-93105285D02*
X143330952Y-93371951D01*
X143711904Y-93562428D02*
X142911904Y-93562428D01*
X142911904Y-93257666D01*
X142950000Y-93181475D01*
X142988095Y-93143380D01*
X143064285Y-93105285D01*
X143178571Y-93105285D01*
X143254761Y-93143380D01*
X143292857Y-93181475D01*
X143330952Y-93257666D01*
X143330952Y-93562428D01*
X143711904Y-92762428D02*
X142911904Y-92762428D01*
X184951095Y-105155999D02*
X184951095Y-105613142D01*
X184151095Y-105384570D02*
X184951095Y-105384570D01*
X184951095Y-105803618D02*
X184151095Y-106336951D01*
X184951095Y-106336951D02*
X184151095Y-105803618D01*
X184151095Y-106641713D02*
X184951095Y-106641713D01*
X184951095Y-106832189D01*
X184913000Y-106946475D01*
X184836809Y-107022665D01*
X184760619Y-107060761D01*
X184608238Y-107098856D01*
X184493952Y-107098856D01*
X184341571Y-107060761D01*
X184265380Y-107022665D01*
X184189190Y-106946475D01*
X184151095Y-106832189D01*
X184151095Y-106641713D01*
X174103095Y-92639523D02*
X174903095Y-92639523D01*
X174903095Y-92830000D01*
X174865000Y-92944285D01*
X174788809Y-93020476D01*
X174712619Y-93058571D01*
X174560238Y-93096666D01*
X174445952Y-93096666D01*
X174293571Y-93058571D01*
X174217380Y-93020476D01*
X174141190Y-92944285D01*
X174103095Y-92830000D01*
X174103095Y-92639523D01*
X174141190Y-93401428D02*
X174103095Y-93515714D01*
X174103095Y-93706190D01*
X174141190Y-93782380D01*
X174179285Y-93820476D01*
X174255476Y-93858571D01*
X174331666Y-93858571D01*
X174407857Y-93820476D01*
X174445952Y-93782380D01*
X174484047Y-93706190D01*
X174522142Y-93553809D01*
X174560238Y-93477619D01*
X174598333Y-93439523D01*
X174674523Y-93401428D01*
X174750714Y-93401428D01*
X174826904Y-93439523D01*
X174865000Y-93477619D01*
X174903095Y-93553809D01*
X174903095Y-93744285D01*
X174865000Y-93858571D01*
X174103095Y-94658571D02*
X174484047Y-94391904D01*
X174103095Y-94201428D02*
X174903095Y-94201428D01*
X174903095Y-94506190D01*
X174865000Y-94582380D01*
X174826904Y-94620476D01*
X174750714Y-94658571D01*
X174636428Y-94658571D01*
X174560238Y-94620476D01*
X174522142Y-94582380D01*
X174484047Y-94506190D01*
X174484047Y-94201428D01*
X148737314Y-94095762D02*
X148775409Y-94133857D01*
X148813504Y-94248143D01*
X148813504Y-94324333D01*
X148775409Y-94438619D01*
X148699219Y-94514809D01*
X148623028Y-94552905D01*
X148470647Y-94591000D01*
X148356361Y-94591000D01*
X148203980Y-94552905D01*
X148127790Y-94514809D01*
X148051600Y-94438619D01*
X148013504Y-94324333D01*
X148013504Y-94248143D01*
X148051600Y-94133857D01*
X148089695Y-94095762D01*
X148013504Y-93867190D02*
X148013504Y-93410047D01*
X148813504Y-93638619D02*
X148013504Y-93638619D01*
X148775409Y-93181476D02*
X148813504Y-93067190D01*
X148813504Y-92876714D01*
X148775409Y-92800524D01*
X148737314Y-92762428D01*
X148661123Y-92724333D01*
X148584933Y-92724333D01*
X148508742Y-92762428D01*
X148470647Y-92800524D01*
X148432552Y-92876714D01*
X148394457Y-93029095D01*
X148356361Y-93105286D01*
X148318266Y-93143381D01*
X148242076Y-93181476D01*
X148165885Y-93181476D01*
X148089695Y-93143381D01*
X148051600Y-93105286D01*
X148013504Y-93029095D01*
X148013504Y-92838619D01*
X148051600Y-92724333D01*
X168208094Y-95823095D02*
X168208094Y-96623095D01*
X168017618Y-96623095D01*
X167903332Y-96585000D01*
X167827142Y-96508809D01*
X167789047Y-96432619D01*
X167750951Y-96280238D01*
X167750951Y-96165952D01*
X167789047Y-96013571D01*
X167827142Y-95937380D01*
X167903332Y-95861190D01*
X168017618Y-95823095D01*
X168208094Y-95823095D01*
X167522380Y-96623095D02*
X167065237Y-96623095D01*
X167293809Y-95823095D02*
X167293809Y-96623095D01*
X166341428Y-95823095D02*
X166608094Y-96204047D01*
X166798570Y-95823095D02*
X166798570Y-96623095D01*
X166493809Y-96623095D01*
X166417618Y-96585000D01*
X166379523Y-96546904D01*
X166341428Y-96470714D01*
X166341428Y-96356428D01*
X166379523Y-96280238D01*
X166417618Y-96242142D01*
X166493809Y-96204047D01*
X166798570Y-96204047D01*
X179118095Y-106737142D02*
X179499047Y-106470476D01*
X179118095Y-106280000D02*
X179918095Y-106280000D01*
X179918095Y-106584761D01*
X179880000Y-106660952D01*
X179841904Y-106699047D01*
X179765714Y-106737142D01*
X179651428Y-106737142D01*
X179575238Y-106699047D01*
X179537142Y-106660952D01*
X179499047Y-106584761D01*
X179499047Y-106280000D01*
X179118095Y-107080000D02*
X179918095Y-107080000D01*
X167903333Y-98358095D02*
X168170000Y-98739047D01*
X168360476Y-98358095D02*
X168360476Y-99158095D01*
X168055714Y-99158095D01*
X167979523Y-99120000D01*
X167941428Y-99081904D01*
X167903333Y-99005714D01*
X167903333Y-98891428D01*
X167941428Y-98815238D01*
X167979523Y-98777142D01*
X168055714Y-98739047D01*
X168360476Y-98739047D01*
X167636666Y-99158095D02*
X167103333Y-98358095D01*
X167103333Y-99158095D02*
X167636666Y-98358095D01*
X166798571Y-98358095D02*
X166798571Y-99158095D01*
X166608095Y-99158095D01*
X166493809Y-99120000D01*
X166417619Y-99043809D01*
X166379523Y-98967619D01*
X166341428Y-98815238D01*
X166341428Y-98700952D01*
X166379523Y-98548571D01*
X166417619Y-98472380D01*
X166493809Y-98396190D01*
X166608095Y-98358095D01*
X166798571Y-98358095D01*
X167712857Y-103466095D02*
X167979523Y-103847047D01*
X168170000Y-103466095D02*
X168170000Y-104266095D01*
X167865238Y-104266095D01*
X167789047Y-104228000D01*
X167750952Y-104189904D01*
X167712857Y-104113714D01*
X167712857Y-103999428D01*
X167750952Y-103923238D01*
X167789047Y-103885142D01*
X167865238Y-103847047D01*
X168170000Y-103847047D01*
X167484285Y-104266095D02*
X167027142Y-104266095D01*
X167255714Y-103466095D02*
X167255714Y-104266095D01*
X166798571Y-103504190D02*
X166684285Y-103466095D01*
X166493809Y-103466095D01*
X166417619Y-103504190D01*
X166379523Y-103542285D01*
X166341428Y-103618476D01*
X166341428Y-103694666D01*
X166379523Y-103770857D01*
X166417619Y-103808952D01*
X166493809Y-103847047D01*
X166646190Y-103885142D01*
X166722381Y-103923238D01*
X166760476Y-103961333D01*
X166798571Y-104037523D01*
X166798571Y-104113714D01*
X166760476Y-104189904D01*
X166722381Y-104228000D01*
X166646190Y-104266095D01*
X166455714Y-104266095D01*
X166341428Y-104228000D01*
D11*
%TO.C,F2*%
X192596666Y-107580000D02*
X192363333Y-107580000D01*
X192363333Y-107946666D02*
X192363333Y-107246666D01*
X192696666Y-107246666D01*
X192930000Y-107313333D02*
X192963333Y-107280000D01*
X193030000Y-107246666D01*
X193196666Y-107246666D01*
X193263333Y-107280000D01*
X193296666Y-107313333D01*
X193330000Y-107380000D01*
X193330000Y-107446666D01*
X193296666Y-107546666D01*
X192896666Y-107946666D01*
X193330000Y-107946666D01*
%TO.C,C2*%
X182363333Y-98930000D02*
X182330000Y-98963333D01*
X182230000Y-98996666D01*
X182163333Y-98996666D01*
X182063333Y-98963333D01*
X181996666Y-98896666D01*
X181963333Y-98830000D01*
X181930000Y-98696666D01*
X181930000Y-98596666D01*
X181963333Y-98463333D01*
X181996666Y-98396666D01*
X182063333Y-98330000D01*
X182163333Y-98296666D01*
X182230000Y-98296666D01*
X182330000Y-98330000D01*
X182363333Y-98363333D01*
X182630000Y-98363333D02*
X182663333Y-98330000D01*
X182730000Y-98296666D01*
X182896666Y-98296666D01*
X182963333Y-98330000D01*
X182996666Y-98363333D01*
X183030000Y-98430000D01*
X183030000Y-98496666D01*
X182996666Y-98596666D01*
X182596666Y-98996666D01*
X183030000Y-98996666D01*
%TO.C,D2*%
X173123333Y-97556666D02*
X173123333Y-96856666D01*
X173290000Y-96856666D01*
X173390000Y-96890000D01*
X173456666Y-96956666D01*
X173490000Y-97023333D01*
X173523333Y-97156666D01*
X173523333Y-97256666D01*
X173490000Y-97390000D01*
X173456666Y-97456666D01*
X173390000Y-97523333D01*
X173290000Y-97556666D01*
X173123333Y-97556666D01*
X173790000Y-96923333D02*
X173823333Y-96890000D01*
X173890000Y-96856666D01*
X174056666Y-96856666D01*
X174123333Y-96890000D01*
X174156666Y-96923333D01*
X174190000Y-96990000D01*
X174190000Y-97056666D01*
X174156666Y-97156666D01*
X173756666Y-97556666D01*
X174190000Y-97556666D01*
%TO.C,R6*%
X150063333Y-101716666D02*
X149830000Y-101383333D01*
X149663333Y-101716666D02*
X149663333Y-101016666D01*
X149930000Y-101016666D01*
X149996666Y-101050000D01*
X150030000Y-101083333D01*
X150063333Y-101150000D01*
X150063333Y-101250000D01*
X150030000Y-101316666D01*
X149996666Y-101350000D01*
X149930000Y-101383333D01*
X149663333Y-101383333D01*
X150663333Y-101016666D02*
X150530000Y-101016666D01*
X150463333Y-101050000D01*
X150430000Y-101083333D01*
X150363333Y-101183333D01*
X150330000Y-101316666D01*
X150330000Y-101583333D01*
X150363333Y-101650000D01*
X150396666Y-101683333D01*
X150463333Y-101716666D01*
X150596666Y-101716666D01*
X150663333Y-101683333D01*
X150696666Y-101650000D01*
X150730000Y-101583333D01*
X150730000Y-101416666D01*
X150696666Y-101350000D01*
X150663333Y-101316666D01*
X150596666Y-101283333D01*
X150463333Y-101283333D01*
X150396666Y-101316666D01*
X150363333Y-101350000D01*
X150330000Y-101416666D01*
%TO.C,F1*%
X129000000Y-92673333D02*
X129000000Y-92906666D01*
X129366666Y-92906666D02*
X128666666Y-92906666D01*
X128666666Y-92573333D01*
X129366666Y-91940000D02*
X129366666Y-92340000D01*
X129366666Y-92140000D02*
X128666666Y-92140000D01*
X128766666Y-92206666D01*
X128833333Y-92273333D01*
X128866666Y-92340000D01*
%TO.C,R5*%
X150063333Y-99066666D02*
X149830000Y-98733333D01*
X149663333Y-99066666D02*
X149663333Y-98366666D01*
X149930000Y-98366666D01*
X149996666Y-98400000D01*
X150030000Y-98433333D01*
X150063333Y-98500000D01*
X150063333Y-98600000D01*
X150030000Y-98666666D01*
X149996666Y-98700000D01*
X149930000Y-98733333D01*
X149663333Y-98733333D01*
X150696666Y-98366666D02*
X150363333Y-98366666D01*
X150330000Y-98700000D01*
X150363333Y-98666666D01*
X150430000Y-98633333D01*
X150596666Y-98633333D01*
X150663333Y-98666666D01*
X150696666Y-98700000D01*
X150730000Y-98766666D01*
X150730000Y-98933333D01*
X150696666Y-99000000D01*
X150663333Y-99033333D01*
X150596666Y-99066666D01*
X150430000Y-99066666D01*
X150363333Y-99033333D01*
X150330000Y-99000000D01*
%TO.C,USB2*%
X193106366Y-101182333D02*
X193673033Y-101182333D01*
X193739700Y-101149000D01*
X193773033Y-101115666D01*
X193806366Y-101049000D01*
X193806366Y-100915666D01*
X193773033Y-100849000D01*
X193739700Y-100815666D01*
X193673033Y-100782333D01*
X193106366Y-100782333D01*
X193773033Y-100482333D02*
X193806366Y-100382333D01*
X193806366Y-100215666D01*
X193773033Y-100149000D01*
X193739700Y-100115666D01*
X193673033Y-100082333D01*
X193606366Y-100082333D01*
X193539700Y-100115666D01*
X193506366Y-100149000D01*
X193473033Y-100215666D01*
X193439700Y-100349000D01*
X193406366Y-100415666D01*
X193373033Y-100449000D01*
X193306366Y-100482333D01*
X193239700Y-100482333D01*
X193173033Y-100449000D01*
X193139700Y-100415666D01*
X193106366Y-100349000D01*
X193106366Y-100182333D01*
X193139700Y-100082333D01*
X193439700Y-99549000D02*
X193473033Y-99449000D01*
X193506366Y-99415666D01*
X193573033Y-99382333D01*
X193673033Y-99382333D01*
X193739700Y-99415666D01*
X193773033Y-99449000D01*
X193806366Y-99515666D01*
X193806366Y-99782333D01*
X193106366Y-99782333D01*
X193106366Y-99549000D01*
X193139700Y-99482333D01*
X193173033Y-99449000D01*
X193239700Y-99415666D01*
X193306366Y-99415666D01*
X193373033Y-99449000D01*
X193406366Y-99482333D01*
X193439700Y-99549000D01*
X193439700Y-99782333D01*
X193173033Y-99115666D02*
X193139700Y-99082333D01*
X193106366Y-99015666D01*
X193106366Y-98849000D01*
X193139700Y-98782333D01*
X193173033Y-98749000D01*
X193239700Y-98715666D01*
X193306366Y-98715666D01*
X193406366Y-98749000D01*
X193806366Y-99149000D01*
X193806366Y-98715666D01*
%TO.C,U1*%
X177848666Y-96267666D02*
X177848666Y-96834333D01*
X177882000Y-96901000D01*
X177915333Y-96934333D01*
X177982000Y-96967666D01*
X178115333Y-96967666D01*
X178182000Y-96934333D01*
X178215333Y-96901000D01*
X178248666Y-96834333D01*
X178248666Y-96267666D01*
X178948666Y-96967666D02*
X178548666Y-96967666D01*
X178748666Y-96967666D02*
X178748666Y-96267666D01*
X178682000Y-96367666D01*
X178615333Y-96434333D01*
X178548666Y-96467666D01*
%TO.C,R1*%
X136029166Y-91496666D02*
X135695833Y-91730000D01*
X136029166Y-91896666D02*
X135329166Y-91896666D01*
X135329166Y-91630000D01*
X135362500Y-91563333D01*
X135395833Y-91530000D01*
X135462500Y-91496666D01*
X135562500Y-91496666D01*
X135629166Y-91530000D01*
X135662500Y-91563333D01*
X135695833Y-91630000D01*
X135695833Y-91896666D01*
X136029166Y-90830000D02*
X136029166Y-91230000D01*
X136029166Y-91030000D02*
X135329166Y-91030000D01*
X135429166Y-91096666D01*
X135495833Y-91163333D01*
X135529166Y-91230000D01*
%TO.C,D5*%
X149723333Y-97296666D02*
X149723333Y-96596666D01*
X149890000Y-96596666D01*
X149990000Y-96630000D01*
X150056666Y-96696666D01*
X150090000Y-96763333D01*
X150123333Y-96896666D01*
X150123333Y-96996666D01*
X150090000Y-97130000D01*
X150056666Y-97196666D01*
X149990000Y-97263333D01*
X149890000Y-97296666D01*
X149723333Y-97296666D01*
X150756666Y-96596666D02*
X150423333Y-96596666D01*
X150390000Y-96930000D01*
X150423333Y-96896666D01*
X150490000Y-96863333D01*
X150656666Y-96863333D01*
X150723333Y-96896666D01*
X150756666Y-96930000D01*
X150790000Y-96996666D01*
X150790000Y-97163333D01*
X150756666Y-97230000D01*
X150723333Y-97263333D01*
X150656666Y-97296666D01*
X150490000Y-97296666D01*
X150423333Y-97263333D01*
X150390000Y-97230000D01*
%TO.C,C5*%
X138923333Y-104190000D02*
X138890000Y-104223333D01*
X138790000Y-104256666D01*
X138723333Y-104256666D01*
X138623333Y-104223333D01*
X138556666Y-104156666D01*
X138523333Y-104090000D01*
X138490000Y-103956666D01*
X138490000Y-103856666D01*
X138523333Y-103723333D01*
X138556666Y-103656666D01*
X138623333Y-103590000D01*
X138723333Y-103556666D01*
X138790000Y-103556666D01*
X138890000Y-103590000D01*
X138923333Y-103623333D01*
X139556666Y-103556666D02*
X139223333Y-103556666D01*
X139190000Y-103890000D01*
X139223333Y-103856666D01*
X139290000Y-103823333D01*
X139456666Y-103823333D01*
X139523333Y-103856666D01*
X139556666Y-103890000D01*
X139590000Y-103956666D01*
X139590000Y-104123333D01*
X139556666Y-104190000D01*
X139523333Y-104223333D01*
X139456666Y-104256666D01*
X139290000Y-104256666D01*
X139223333Y-104223333D01*
X139190000Y-104190000D01*
%TO.C,C7*%
X138897333Y-96320400D02*
X138864000Y-96353733D01*
X138764000Y-96387066D01*
X138697333Y-96387066D01*
X138597333Y-96353733D01*
X138530666Y-96287066D01*
X138497333Y-96220400D01*
X138464000Y-96087066D01*
X138464000Y-95987066D01*
X138497333Y-95853733D01*
X138530666Y-95787066D01*
X138597333Y-95720400D01*
X138697333Y-95687066D01*
X138764000Y-95687066D01*
X138864000Y-95720400D01*
X138897333Y-95753733D01*
X139130666Y-95687066D02*
X139597333Y-95687066D01*
X139297333Y-96387066D01*
D12*
%TO.C,*%
D11*
%TO.C,R4*%
X192863333Y-93636666D02*
X192630000Y-93303333D01*
X192463333Y-93636666D02*
X192463333Y-92936666D01*
X192730000Y-92936666D01*
X192796666Y-92970000D01*
X192830000Y-93003333D01*
X192863333Y-93070000D01*
X192863333Y-93170000D01*
X192830000Y-93236666D01*
X192796666Y-93270000D01*
X192730000Y-93303333D01*
X192463333Y-93303333D01*
X193463333Y-93170000D02*
X193463333Y-93636666D01*
X193296666Y-92903333D02*
X193130000Y-93403333D01*
X193563333Y-93403333D01*
%TO.C,C4*%
X182293333Y-101740000D02*
X182260000Y-101773333D01*
X182160000Y-101806666D01*
X182093333Y-101806666D01*
X181993333Y-101773333D01*
X181926666Y-101706666D01*
X181893333Y-101640000D01*
X181860000Y-101506666D01*
X181860000Y-101406666D01*
X181893333Y-101273333D01*
X181926666Y-101206666D01*
X181993333Y-101140000D01*
X182093333Y-101106666D01*
X182160000Y-101106666D01*
X182260000Y-101140000D01*
X182293333Y-101173333D01*
X182893333Y-101340000D02*
X182893333Y-101806666D01*
X182726666Y-101073333D02*
X182560000Y-101573333D01*
X182993333Y-101573333D01*
%TO.C,R3*%
X173523333Y-101686666D02*
X173290000Y-101353333D01*
X173123333Y-101686666D02*
X173123333Y-100986666D01*
X173390000Y-100986666D01*
X173456666Y-101020000D01*
X173490000Y-101053333D01*
X173523333Y-101120000D01*
X173523333Y-101220000D01*
X173490000Y-101286666D01*
X173456666Y-101320000D01*
X173390000Y-101353333D01*
X173123333Y-101353333D01*
X173756666Y-100986666D02*
X174190000Y-100986666D01*
X173956666Y-101253333D01*
X174056666Y-101253333D01*
X174123333Y-101286666D01*
X174156666Y-101320000D01*
X174190000Y-101386666D01*
X174190000Y-101553333D01*
X174156666Y-101620000D01*
X174123333Y-101653333D01*
X174056666Y-101686666D01*
X173856666Y-101686666D01*
X173790000Y-101653333D01*
X173756666Y-101620000D01*
%TO.C,USB1*%
X127526666Y-101005000D02*
X128093333Y-101005000D01*
X128160000Y-100971666D01*
X128193333Y-100938333D01*
X128226666Y-100871666D01*
X128226666Y-100738333D01*
X128193333Y-100671666D01*
X128160000Y-100638333D01*
X128093333Y-100605000D01*
X127526666Y-100605000D01*
X128193333Y-100305000D02*
X128226666Y-100205000D01*
X128226666Y-100038333D01*
X128193333Y-99971666D01*
X128160000Y-99938333D01*
X128093333Y-99905000D01*
X128026666Y-99905000D01*
X127960000Y-99938333D01*
X127926666Y-99971666D01*
X127893333Y-100038333D01*
X127860000Y-100171666D01*
X127826666Y-100238333D01*
X127793333Y-100271666D01*
X127726666Y-100305000D01*
X127660000Y-100305000D01*
X127593333Y-100271666D01*
X127560000Y-100238333D01*
X127526666Y-100171666D01*
X127526666Y-100005000D01*
X127560000Y-99905000D01*
X127860000Y-99371666D02*
X127893333Y-99271666D01*
X127926666Y-99238333D01*
X127993333Y-99205000D01*
X128093333Y-99205000D01*
X128160000Y-99238333D01*
X128193333Y-99271666D01*
X128226666Y-99338333D01*
X128226666Y-99605000D01*
X127526666Y-99605000D01*
X127526666Y-99371666D01*
X127560000Y-99305000D01*
X127593333Y-99271666D01*
X127660000Y-99238333D01*
X127726666Y-99238333D01*
X127793333Y-99271666D01*
X127826666Y-99305000D01*
X127860000Y-99371666D01*
X127860000Y-99605000D01*
X128226666Y-98538333D02*
X128226666Y-98938333D01*
X128226666Y-98738333D02*
X127526666Y-98738333D01*
X127626666Y-98805000D01*
X127693333Y-98871666D01*
X127726666Y-98938333D01*
%TO.C,D3*%
X173123333Y-103206666D02*
X173123333Y-102506666D01*
X173290000Y-102506666D01*
X173390000Y-102540000D01*
X173456666Y-102606666D01*
X173490000Y-102673333D01*
X173523333Y-102806666D01*
X173523333Y-102906666D01*
X173490000Y-103040000D01*
X173456666Y-103106666D01*
X173390000Y-103173333D01*
X173290000Y-103206666D01*
X173123333Y-103206666D01*
X173756666Y-102506666D02*
X174190000Y-102506666D01*
X173956666Y-102773333D01*
X174056666Y-102773333D01*
X174123333Y-102806666D01*
X174156666Y-102840000D01*
X174190000Y-102906666D01*
X174190000Y-103073333D01*
X174156666Y-103140000D01*
X174123333Y-103173333D01*
X174056666Y-103206666D01*
X173856666Y-103206666D01*
X173790000Y-103173333D01*
X173756666Y-103140000D01*
%TO.C,D1*%
X136006666Y-93906666D02*
X135306666Y-93906666D01*
X135306666Y-93740000D01*
X135340000Y-93640000D01*
X135406666Y-93573333D01*
X135473333Y-93540000D01*
X135606666Y-93506666D01*
X135706666Y-93506666D01*
X135840000Y-93540000D01*
X135906666Y-93573333D01*
X135973333Y-93640000D01*
X136006666Y-93740000D01*
X136006666Y-93906666D01*
X136006666Y-92840000D02*
X136006666Y-93240000D01*
X136006666Y-93040000D02*
X135306666Y-93040000D01*
X135406666Y-93106666D01*
X135473333Y-93173333D01*
X135506666Y-93240000D01*
%TO.C,D6*%
X149663333Y-103486666D02*
X149663333Y-102786666D01*
X149830000Y-102786666D01*
X149930000Y-102820000D01*
X149996666Y-102886666D01*
X150030000Y-102953333D01*
X150063333Y-103086666D01*
X150063333Y-103186666D01*
X150030000Y-103320000D01*
X149996666Y-103386666D01*
X149930000Y-103453333D01*
X149830000Y-103486666D01*
X149663333Y-103486666D01*
X150663333Y-102786666D02*
X150530000Y-102786666D01*
X150463333Y-102820000D01*
X150430000Y-102853333D01*
X150363333Y-102953333D01*
X150330000Y-103086666D01*
X150330000Y-103353333D01*
X150363333Y-103420000D01*
X150396666Y-103453333D01*
X150463333Y-103486666D01*
X150596666Y-103486666D01*
X150663333Y-103453333D01*
X150696666Y-103420000D01*
X150730000Y-103353333D01*
X150730000Y-103186666D01*
X150696666Y-103120000D01*
X150663333Y-103086666D01*
X150596666Y-103053333D01*
X150463333Y-103053333D01*
X150396666Y-103086666D01*
X150363333Y-103120000D01*
X150330000Y-103186666D01*
%TO.C,C6*%
X136190000Y-101066666D02*
X136223333Y-101100000D01*
X136256666Y-101200000D01*
X136256666Y-101266666D01*
X136223333Y-101366666D01*
X136156666Y-101433333D01*
X136090000Y-101466666D01*
X135956666Y-101500000D01*
X135856666Y-101500000D01*
X135723333Y-101466666D01*
X135656666Y-101433333D01*
X135590000Y-101366666D01*
X135556666Y-101266666D01*
X135556666Y-101200000D01*
X135590000Y-101100000D01*
X135623333Y-101066666D01*
X135556666Y-100466666D02*
X135556666Y-100600000D01*
X135590000Y-100666666D01*
X135623333Y-100700000D01*
X135723333Y-100766666D01*
X135856666Y-100800000D01*
X136123333Y-100800000D01*
X136190000Y-100766666D01*
X136223333Y-100733333D01*
X136256666Y-100666666D01*
X136256666Y-100533333D01*
X136223333Y-100466666D01*
X136190000Y-100433333D01*
X136123333Y-100400000D01*
X135956666Y-100400000D01*
X135890000Y-100433333D01*
X135856666Y-100466666D01*
X135823333Y-100533333D01*
X135823333Y-100666666D01*
X135856666Y-100733333D01*
X135890000Y-100766666D01*
X135956666Y-100800000D01*
%TO.C,D4*%
X192473333Y-91996666D02*
X192473333Y-91296666D01*
X192640000Y-91296666D01*
X192740000Y-91330000D01*
X192806666Y-91396666D01*
X192840000Y-91463333D01*
X192873333Y-91596666D01*
X192873333Y-91696666D01*
X192840000Y-91830000D01*
X192806666Y-91896666D01*
X192740000Y-91963333D01*
X192640000Y-91996666D01*
X192473333Y-91996666D01*
X193473333Y-91530000D02*
X193473333Y-91996666D01*
X193306666Y-91263333D02*
X193140000Y-91763333D01*
X193573333Y-91763333D01*
%TO.C,C3*%
X182333333Y-103330000D02*
X182300000Y-103363333D01*
X182200000Y-103396666D01*
X182133333Y-103396666D01*
X182033333Y-103363333D01*
X181966666Y-103296666D01*
X181933333Y-103230000D01*
X181900000Y-103096666D01*
X181900000Y-102996666D01*
X181933333Y-102863333D01*
X181966666Y-102796666D01*
X182033333Y-102730000D01*
X182133333Y-102696666D01*
X182200000Y-102696666D01*
X182300000Y-102730000D01*
X182333333Y-102763333D01*
X182566666Y-102696666D02*
X183000000Y-102696666D01*
X182766666Y-102963333D01*
X182866666Y-102963333D01*
X182933333Y-102996666D01*
X182966666Y-103030000D01*
X183000000Y-103096666D01*
X183000000Y-103263333D01*
X182966666Y-103330000D01*
X182933333Y-103363333D01*
X182866666Y-103396666D01*
X182666666Y-103396666D01*
X182600000Y-103363333D01*
X182566666Y-103330000D01*
%TO.C,C1*%
X182333333Y-97440000D02*
X182300000Y-97473333D01*
X182200000Y-97506666D01*
X182133333Y-97506666D01*
X182033333Y-97473333D01*
X181966666Y-97406666D01*
X181933333Y-97340000D01*
X181900000Y-97206666D01*
X181900000Y-97106666D01*
X181933333Y-96973333D01*
X181966666Y-96906666D01*
X182033333Y-96840000D01*
X182133333Y-96806666D01*
X182200000Y-96806666D01*
X182300000Y-96840000D01*
X182333333Y-96873333D01*
X183000000Y-97506666D02*
X182600000Y-97506666D01*
X182800000Y-97506666D02*
X182800000Y-96806666D01*
X182733333Y-96906666D01*
X182666666Y-96973333D01*
X182600000Y-97006666D01*
%TO.C,R2*%
X173543333Y-99046666D02*
X173310000Y-98713333D01*
X173143333Y-99046666D02*
X173143333Y-98346666D01*
X173410000Y-98346666D01*
X173476666Y-98380000D01*
X173510000Y-98413333D01*
X173543333Y-98480000D01*
X173543333Y-98580000D01*
X173510000Y-98646666D01*
X173476666Y-98680000D01*
X173410000Y-98713333D01*
X173143333Y-98713333D01*
X173810000Y-98413333D02*
X173843333Y-98380000D01*
X173910000Y-98346666D01*
X174076666Y-98346666D01*
X174143333Y-98380000D01*
X174176666Y-98413333D01*
X174210000Y-98480000D01*
X174210000Y-98546666D01*
X174176666Y-98646666D01*
X173776666Y-99046666D01*
X174210000Y-99046666D01*
D12*
%TO.C,*%
D11*
%TO.C,U2*%
X141826666Y-100578333D02*
X142393333Y-100578333D01*
X142460000Y-100545000D01*
X142493333Y-100511666D01*
X142526666Y-100445000D01*
X142526666Y-100311666D01*
X142493333Y-100245000D01*
X142460000Y-100211666D01*
X142393333Y-100178333D01*
X141826666Y-100178333D01*
X141893333Y-99878333D02*
X141860000Y-99845000D01*
X141826666Y-99778333D01*
X141826666Y-99611666D01*
X141860000Y-99545000D01*
X141893333Y-99511666D01*
X141960000Y-99478333D01*
X142026666Y-99478333D01*
X142126666Y-99511666D01*
X142526666Y-99911666D01*
X142526666Y-99478333D01*
%TO.C,Hole4*%
X157160000Y-91600000D02*
G75*
G03*
X157160000Y-91600000I-900000J0D01*
G01*
D13*
%TO.C,J7*%
X130640000Y-110030000D02*
X129310000Y-110030000D01*
X131910000Y-110030000D02*
X137050000Y-110030000D01*
X131910000Y-110030000D02*
X131910000Y-107370000D01*
X129310000Y-110030000D02*
X129310000Y-108700000D01*
X137050000Y-110030000D02*
X137050000Y-107370000D01*
X131910000Y-107370000D02*
X137050000Y-107370000D01*
%TO.C,F2*%
X189457936Y-106660000D02*
X190662064Y-106660000D01*
X189457936Y-108480000D02*
X190662064Y-108480000D01*
%TO.C,C2*%
X184469420Y-98160000D02*
X184750580Y-98160000D01*
X184469420Y-99180000D02*
X184750580Y-99180000D01*
%TO.C,D2*%
X170592500Y-97895000D02*
X172877500Y-97895000D01*
X172877500Y-97895000D02*
X172877500Y-96425000D01*
X172877500Y-96425000D02*
X170592500Y-96425000D01*
%TO.C,R6*%
X147755242Y-101852502D02*
X148229758Y-101852502D01*
X147755242Y-100807502D02*
X148229758Y-100807502D01*
%TO.C,F1*%
X129902500Y-93022064D02*
X129902500Y-91817936D01*
X131722500Y-93022064D02*
X131722500Y-91817936D01*
%TO.C,R5*%
X147755242Y-99249168D02*
X148229758Y-99249168D01*
X147755242Y-98204168D02*
X148229758Y-98204168D01*
D14*
%TO.C,USB2*%
X197278700Y-104420000D02*
X195856700Y-104420000D01*
X193501700Y-104420000D02*
X191756700Y-104420000D01*
X197278700Y-104420000D02*
X197278700Y-95620000D01*
X193501700Y-95620000D02*
X191756700Y-95620000D01*
X197278700Y-95620000D02*
X195856700Y-95620000D01*
D11*
%TO.C,Hole1*%
X127340000Y-91650000D02*
G75*
G03*
X127340000Y-91650000I-900000J0D01*
G01*
%TO.C,Hole8*%
X195720000Y-91650000D02*
G75*
G03*
X195720000Y-91650000I-900000J0D01*
G01*
D15*
%TO.C,U1*%
X176559000Y-97684000D02*
X175814000Y-97684000D01*
X175814000Y-97684000D02*
X175814000Y-98429000D01*
X175814000Y-102836000D02*
X175814000Y-102091000D01*
X180966000Y-97684000D02*
X180966000Y-98429000D01*
X180221000Y-97684000D02*
X180966000Y-97684000D01*
X176559000Y-102836000D02*
X175814000Y-102836000D01*
X180221000Y-102836000D02*
X180966000Y-102836000D01*
X180966000Y-102836000D02*
X180966000Y-102091000D01*
D16*
X181595000Y-101760000D02*
G75*
G03*
X181595000Y-101760000I-75000J0D01*
G01*
D13*
%TO.C,R1*%
X133365242Y-90907500D02*
X133839758Y-90907500D01*
X133365242Y-91952500D02*
X133839758Y-91952500D01*
%TO.C,D5*%
X147212500Y-97695000D02*
X149497500Y-97695000D01*
X149497500Y-96225000D02*
X147212500Y-96225000D01*
X149497500Y-97695000D02*
X149497500Y-96225000D01*
%TO.C,C5*%
X141440580Y-103340000D02*
X141159420Y-103340000D01*
X141440580Y-104360000D02*
X141159420Y-104360000D01*
D11*
%TO.C,Hole3*%
X157160000Y-108330000D02*
G75*
G03*
X157160000Y-108330000I-900000J0D01*
G01*
D13*
%TO.C,C7*%
X141159420Y-96490000D02*
X141440580Y-96490000D01*
X141159420Y-95470000D02*
X141440580Y-95470000D01*
D11*
%TO.C,Hole5*%
X166350000Y-91670000D02*
G75*
G03*
X166350000Y-91670000I-900000J0D01*
G01*
D13*
%TO.C,J2*%
X165970000Y-103820000D02*
X165970000Y-105150000D01*
X165970000Y-105150000D02*
X164640000Y-105150000D01*
X165970000Y-102550000D02*
X163310000Y-102550000D01*
X165970000Y-94870000D02*
X163310000Y-94870000D01*
X163310000Y-102550000D02*
X163310000Y-94870000D01*
X165970000Y-102550000D02*
X165970000Y-94870000D01*
%TO.C,*%
G36*
X133266642Y-102946590D02*
G01*
X133332374Y-102946696D01*
X133387224Y-102946922D01*
X133432428Y-102947308D01*
X133469216Y-102947896D01*
X133498823Y-102948726D01*
X133522482Y-102949839D01*
X133541426Y-102951275D01*
X133556889Y-102953075D01*
X133570102Y-102955279D01*
X133582300Y-102957928D01*
X133589714Y-102959765D01*
X133642347Y-102976599D01*
X133685854Y-102998665D01*
X133724112Y-103028188D01*
X133744486Y-103048590D01*
X133774776Y-103085116D01*
X133797896Y-103122782D01*
X133816440Y-103166284D01*
X133826404Y-103196995D01*
X133845185Y-103283106D01*
X133852113Y-103375330D01*
X133847187Y-103473639D01*
X133846431Y-103480457D01*
X133832413Y-103557106D01*
X133809102Y-103624848D01*
X133776798Y-103683326D01*
X133735799Y-103732186D01*
X133686403Y-103771072D01*
X133628910Y-103799630D01*
X133563617Y-103817504D01*
X133563050Y-103817605D01*
X133546964Y-103819906D01*
X133525980Y-103821837D01*
X133499004Y-103823424D01*
X133464943Y-103824696D01*
X133422704Y-103825678D01*
X133371193Y-103826400D01*
X133309317Y-103826887D01*
X133235984Y-103827167D01*
X133174848Y-103827256D01*
X132839496Y-103827488D01*
X132839496Y-103573889D01*
X133161943Y-103573889D01*
X133245564Y-103573726D01*
X133319624Y-103573244D01*
X133383489Y-103572457D01*
X133436522Y-103571378D01*
X133478088Y-103570019D01*
X133507550Y-103568393D01*
X133523778Y-103566608D01*
X133571708Y-103553640D01*
X133608787Y-103533882D01*
X133635897Y-103506294D01*
X133653918Y-103469837D01*
X133663734Y-103423474D01*
X133665690Y-103399496D01*
X133664657Y-103345327D01*
X133655285Y-103300977D01*
X133637127Y-103265501D01*
X133609737Y-103237954D01*
X133581455Y-103221261D01*
X133543568Y-103203500D01*
X133191532Y-103201555D01*
X132839496Y-103199609D01*
X132839496Y-102946564D01*
X133188796Y-102946564D01*
X133266642Y-102946590D01*
G37*
G36*
X133312558Y-98099008D02*
G01*
X133249693Y-98072098D01*
X133194862Y-98035143D01*
X133148626Y-97988554D01*
X133111547Y-97932747D01*
X133084185Y-97868135D01*
X133075411Y-97837196D01*
X133068751Y-97798250D01*
X133065040Y-97750931D01*
X133064471Y-97712950D01*
X133226715Y-97712950D01*
X133229370Y-97751283D01*
X133238758Y-97781365D01*
X133256560Y-97807298D01*
X133271356Y-97822013D01*
X133295212Y-97840606D01*
X133321159Y-97854150D01*
X133351703Y-97863297D01*
X133389347Y-97868701D01*
X133436596Y-97871014D01*
X133460147Y-97871221D01*
X133506914Y-97870548D01*
X133543298Y-97868119D01*
X133572210Y-97863345D01*
X133596563Y-97855637D01*
X133619269Y-97844407D01*
X133632272Y-97836411D01*
X133660184Y-97810790D01*
X133680298Y-97776893D01*
X133691834Y-97737801D01*
X133694012Y-97696590D01*
X133686050Y-97656342D01*
X133681094Y-97643858D01*
X133660483Y-97613019D01*
X133629769Y-97586112D01*
X133592132Y-97565792D01*
X133583822Y-97562671D01*
X133564921Y-97557390D01*
X133542340Y-97553927D01*
X133513168Y-97552017D01*
X133474493Y-97551394D01*
X133460147Y-97551421D01*
X133421172Y-97551921D01*
X133392299Y-97553241D01*
X133370287Y-97555769D01*
X133351899Y-97559898D01*
X133333895Y-97566016D01*
X133331575Y-97566915D01*
X133288767Y-97588209D01*
X133257857Y-97614546D01*
X133237946Y-97647179D01*
X133228133Y-97687360D01*
X133226715Y-97712950D01*
X133064471Y-97712950D01*
X133064275Y-97699881D01*
X133066451Y-97649745D01*
X133071566Y-97605165D01*
X133075629Y-97584698D01*
X133098257Y-97516821D01*
X133131117Y-97457416D01*
X133173799Y-97406897D01*
X133225897Y-97365677D01*
X133287001Y-97334169D01*
X133340503Y-97316638D01*
X133377586Y-97310014D01*
X133422868Y-97306295D01*
X133471677Y-97305483D01*
X133519340Y-97307581D01*
X133561185Y-97312591D01*
X133579791Y-97316527D01*
X133647285Y-97340285D01*
X133706414Y-97374032D01*
X133756542Y-97417130D01*
X133797036Y-97468942D01*
X133827262Y-97528833D01*
X133843446Y-97581362D01*
X133849981Y-97618437D01*
X133854627Y-97662560D01*
X133857119Y-97708752D01*
X133857191Y-97752035D01*
X133854578Y-97787430D01*
X133854456Y-97788318D01*
X133838233Y-97861976D01*
X133811734Y-97927350D01*
X133775478Y-97983998D01*
X133729985Y-98031483D01*
X133675777Y-98069365D01*
X133613374Y-98097205D01*
X133543295Y-98114563D01*
X133466062Y-98121002D01*
X133460147Y-98121032D01*
X133382896Y-98115457D01*
X133312558Y-98099008D01*
G37*
G36*
X133326674Y-98247263D02*
G01*
X133322062Y-98265818D01*
X133313403Y-98278260D01*
X133286433Y-98309934D01*
X133263449Y-98350915D01*
X133245976Y-98397391D01*
X133235541Y-98445551D01*
X133233242Y-98478395D01*
X133237552Y-98530957D01*
X133251011Y-98574456D01*
X133274412Y-98610236D01*
X133308549Y-98639642D01*
X133338450Y-98656759D01*
X133358102Y-98666111D01*
X133374271Y-98672350D01*
X133390527Y-98676104D01*
X133410441Y-98678002D01*
X133437583Y-98678673D01*
X133463344Y-98678750D01*
X133511333Y-98677294D01*
X133549243Y-98672283D01*
X133580089Y-98662751D01*
X133606887Y-98647731D01*
X133632651Y-98626259D01*
X133635374Y-98623635D01*
X133661294Y-98589475D01*
X133678485Y-98547593D01*
X133686982Y-98500336D01*
X133686821Y-98450047D01*
X133678039Y-98399070D01*
X133660671Y-98349752D01*
X133634753Y-98304436D01*
X133630397Y-98298482D01*
X133615646Y-98276968D01*
X133604913Y-98257586D01*
X133600332Y-98244235D01*
X133600294Y-98243424D01*
X133600657Y-98237615D01*
X133603072Y-98233521D01*
X133609524Y-98230842D01*
X133622002Y-98229278D01*
X133642493Y-98228529D01*
X133672985Y-98228295D01*
X133700637Y-98228277D01*
X133800979Y-98228277D01*
X133814087Y-98258857D01*
X133833460Y-98315285D01*
X133847561Y-98379807D01*
X133855834Y-98448035D01*
X133857728Y-98515577D01*
X133853545Y-98571971D01*
X133837571Y-98650625D01*
X133812074Y-98720200D01*
X133777461Y-98780351D01*
X133734142Y-98830732D01*
X133682523Y-98871000D01*
X133623013Y-98900808D01*
X133556020Y-98919814D01*
X133481952Y-98927671D01*
X133433452Y-98926842D01*
X133358042Y-98916874D01*
X133291025Y-98896541D01*
X133232340Y-98865802D01*
X133181922Y-98824620D01*
X133139709Y-98772954D01*
X133113190Y-98726887D01*
X133091965Y-98677980D01*
X133077326Y-98629259D01*
X133068504Y-98576949D01*
X133064726Y-98517277D01*
X133064460Y-98488550D01*
X133066287Y-98433678D01*
X133072009Y-98385180D01*
X133082619Y-98337792D01*
X133099110Y-98286248D01*
X133106304Y-98266650D01*
X133120749Y-98228277D01*
X133326674Y-98228277D01*
X133326674Y-98247263D01*
G37*
G36*
X133833873Y-99356127D02*
G01*
X133573600Y-99356127D01*
X133573600Y-99115875D01*
X133833873Y-99115875D01*
X133833873Y-99356127D01*
G37*
G36*
X133019685Y-100891072D02*
G01*
X133653684Y-100891072D01*
X133653684Y-100730904D01*
X133833873Y-100730904D01*
X133833873Y-101304840D01*
X133653684Y-101304840D01*
X133653684Y-101144672D01*
X133019685Y-101144672D01*
X133019685Y-101304840D01*
X132839496Y-101304840D01*
X132839496Y-100730904D01*
X133019685Y-100730904D01*
X133019685Y-100891072D01*
G37*
G36*
X133833873Y-102719659D02*
G01*
X133086421Y-102719659D01*
X133086421Y-102479406D01*
X133833873Y-102479406D01*
X133833873Y-102719659D01*
G37*
G36*
X133833873Y-101737497D02*
G01*
X133588615Y-101739731D01*
X133343358Y-101741966D01*
X133309990Y-101758650D01*
X133284421Y-101774379D01*
X133267498Y-101793054D01*
X133257939Y-101817382D01*
X133254467Y-101850069D01*
X133254799Y-101875439D01*
X133257774Y-101911204D01*
X133264315Y-101940555D01*
X133275938Y-101970267D01*
X133276062Y-101970539D01*
X133295128Y-102012249D01*
X133833873Y-102012249D01*
X133833873Y-102252502D01*
X133086421Y-102252502D01*
X133086421Y-102012249D01*
X133166059Y-102012249D01*
X133136139Y-101969450D01*
X133098372Y-101906019D01*
X133073828Y-101842752D01*
X133062545Y-101779781D01*
X133064555Y-101717236D01*
X133066105Y-101707320D01*
X133080497Y-101651188D01*
X133102770Y-101605191D01*
X133133628Y-101568211D01*
X133170664Y-101540921D01*
X133186063Y-101532173D01*
X133200670Y-101524875D01*
X133215845Y-101518881D01*
X133232948Y-101514047D01*
X133253338Y-101510226D01*
X133278373Y-101507273D01*
X133309414Y-101505042D01*
X133347819Y-101503389D01*
X133394948Y-101502168D01*
X133452159Y-101501233D01*
X133520813Y-101500439D01*
X133551910Y-101500127D01*
X133833873Y-101497360D01*
X133833873Y-101737497D01*
G37*
G36*
X132972969Y-102726332D02*
G01*
X132792780Y-102726332D01*
X132792780Y-102472733D01*
X132972969Y-102472733D01*
X132972969Y-102726332D01*
G37*
G36*
X133217873Y-100563209D02*
G01*
X133205781Y-100561034D01*
X133128781Y-100539653D01*
X133058308Y-100508228D01*
X132995577Y-100467564D01*
X132941799Y-100418460D01*
X132898186Y-100361721D01*
X132893784Y-100354588D01*
X132863483Y-100292707D01*
X132841282Y-100222650D01*
X132827419Y-100147024D01*
X132822131Y-100068440D01*
X132822661Y-100056571D01*
X133007163Y-100056571D01*
X133007850Y-100073547D01*
X133016506Y-100130296D01*
X133036050Y-100179380D01*
X133066397Y-100220733D01*
X133107462Y-100254289D01*
X133159161Y-100279982D01*
X133221407Y-100297746D01*
X133294116Y-100307514D01*
X133310120Y-100308514D01*
X133384638Y-100307914D01*
X133452642Y-100298389D01*
X133513098Y-100280296D01*
X133564972Y-100253992D01*
X133607230Y-100219833D01*
X133624176Y-100200253D01*
X133647549Y-100159365D01*
X133661901Y-100111763D01*
X133666777Y-100060972D01*
X133661725Y-100010512D01*
X133652706Y-99979035D01*
X133629549Y-99935572D01*
X133595297Y-99897073D01*
X133551674Y-99864792D01*
X133500407Y-99839979D01*
X133443220Y-99823888D01*
X133437503Y-99822851D01*
X133400167Y-99818614D01*
X133356171Y-99817078D01*
X133309318Y-99818045D01*
X133263413Y-99821320D01*
X133222259Y-99826707D01*
X133189660Y-99834008D01*
X133183723Y-99835955D01*
X133126027Y-99861783D01*
X133079781Y-99894165D01*
X133044641Y-99933403D01*
X133020264Y-99979802D01*
X133019939Y-99980658D01*
X133011799Y-100005617D01*
X133007798Y-100028942D01*
X133007163Y-100056571D01*
X132822661Y-100056571D01*
X132825657Y-99989506D01*
X132838235Y-99912832D01*
X132849670Y-99870747D01*
X132878868Y-99799339D01*
X132918562Y-99735923D01*
X132968209Y-99680990D01*
X133027264Y-99635033D01*
X133095182Y-99598542D01*
X133171420Y-99572009D01*
X133183958Y-99568816D01*
X133237173Y-99559423D01*
X133297986Y-99554461D01*
X133361598Y-99553935D01*
X133423210Y-99557850D01*
X133478019Y-99566213D01*
X133487942Y-99568468D01*
X133566616Y-99593622D01*
X133636241Y-99628529D01*
X133696580Y-99672917D01*
X133747395Y-99726513D01*
X133788451Y-99789047D01*
X133819510Y-99860246D01*
X133840335Y-99939838D01*
X133846526Y-99980116D01*
X133851246Y-100027251D01*
X133852679Y-100068685D01*
X133850803Y-100110731D01*
X133845940Y-100156968D01*
X133829849Y-100235553D01*
X133802323Y-100308105D01*
X133764114Y-100373733D01*
X133715973Y-100431548D01*
X133658652Y-100480659D01*
X133592901Y-100520176D01*
X133519472Y-100549208D01*
X133513428Y-100551010D01*
X133473766Y-100559654D01*
X133424950Y-100565827D01*
X133370966Y-100569399D01*
X133315801Y-100570240D01*
X133310120Y-100570021D01*
X133263441Y-100568220D01*
X133217873Y-100563209D01*
G37*
G36*
X133833873Y-96138426D02*
G01*
X133581942Y-96140590D01*
X133516932Y-96141184D01*
X133463877Y-96141792D01*
X133421384Y-96142490D01*
X133388060Y-96143356D01*
X133362512Y-96144468D01*
X133343348Y-96145903D01*
X133329174Y-96147738D01*
X133318599Y-96150052D01*
X133310229Y-96152922D01*
X133303316Y-96156101D01*
X133279470Y-96172272D01*
X133264026Y-96193875D01*
X133256014Y-96223101D01*
X133254465Y-96262143D01*
X133254609Y-96266217D01*
X133257647Y-96300795D01*
X133264604Y-96329082D01*
X133275460Y-96354643D01*
X133294287Y-96393017D01*
X133833873Y-96393017D01*
X133833873Y-96632402D01*
X133581942Y-96634504D01*
X133517058Y-96635076D01*
X133464128Y-96635657D01*
X133421758Y-96636325D01*
X133388556Y-96637161D01*
X133363129Y-96638243D01*
X133344083Y-96639651D01*
X133330025Y-96641465D01*
X133319562Y-96643764D01*
X133311301Y-96646628D01*
X133303848Y-96650137D01*
X133303316Y-96650411D01*
X133277403Y-96670867D01*
X133260401Y-96699767D01*
X133252573Y-96735388D01*
X133254180Y-96776008D01*
X133265485Y-96819906D01*
X133274272Y-96841289D01*
X133295281Y-96886868D01*
X133833873Y-96886868D01*
X133833873Y-97127121D01*
X133086421Y-97127121D01*
X133086421Y-96886868D01*
X133167117Y-96886868D01*
X133143142Y-96855470D01*
X133118643Y-96818699D01*
X133096249Y-96776554D01*
X133078206Y-96733824D01*
X133066756Y-96695299D01*
X133065764Y-96690273D01*
X133061597Y-96635389D01*
X133068460Y-96581936D01*
X133085485Y-96532133D01*
X133111805Y-96488197D01*
X133146552Y-96452348D01*
X133163591Y-96440146D01*
X133191502Y-96422446D01*
X133158753Y-96379368D01*
X133130411Y-96337948D01*
X133104937Y-96292917D01*
X133084156Y-96248018D01*
X133069893Y-96206998D01*
X133065648Y-96188377D01*
X133061775Y-96133371D01*
X133068868Y-96080644D01*
X133086075Y-96032144D01*
X133112544Y-95989818D01*
X133147424Y-95955613D01*
X133175025Y-95938234D01*
X133190954Y-95930336D01*
X133206014Y-95923755D01*
X133221587Y-95918354D01*
X133239058Y-95913997D01*
X133259811Y-95910546D01*
X133285230Y-95907865D01*
X133316699Y-95905817D01*
X133355601Y-95904265D01*
X133403321Y-95903073D01*
X133461242Y-95902103D01*
X133530749Y-95901219D01*
X133551910Y-95900974D01*
X133833873Y-95897755D01*
X133833873Y-96138426D01*
G37*
%TO.C,R4*%
X191147258Y-93792500D02*
X190672742Y-93792500D01*
X191147258Y-92747500D02*
X190672742Y-92747500D01*
%TO.C,C4*%
X184469420Y-101978000D02*
X184750580Y-101978000D01*
X184469420Y-100958000D02*
X184750580Y-100958000D01*
%TO.C,R3*%
X171152742Y-101812500D02*
X171627258Y-101812500D01*
X171152742Y-100767500D02*
X171627258Y-100767500D01*
D11*
%TO.C,Hole2*%
X127440000Y-108350000D02*
G75*
G03*
X127440000Y-108350000I-900000J0D01*
G01*
D14*
%TO.C,USB1*%
X123871500Y-104170000D02*
X125293500Y-104170000D01*
X123871500Y-95370000D02*
X123871500Y-104170000D01*
X127648500Y-104170000D02*
X129393500Y-104170000D01*
X123871500Y-95370000D02*
X125293500Y-95370000D01*
X127648500Y-95370000D02*
X129393500Y-95370000D01*
D13*
%TO.C,J5*%
X157762500Y-102580000D02*
X157762500Y-94900000D01*
X157762500Y-105180000D02*
X156432500Y-105180000D01*
X157762500Y-102580000D02*
X155102500Y-102580000D01*
X157762500Y-103850000D02*
X157762500Y-105180000D01*
X155102500Y-102580000D02*
X155102500Y-94900000D01*
X157762500Y-94900000D02*
X155102500Y-94900000D01*
%TO.C,D3*%
X172871000Y-103587000D02*
X172871000Y-102117000D01*
X170586000Y-103587000D02*
X172871000Y-103587000D01*
X172871000Y-102117000D02*
X170586000Y-102117000D01*
%TO.C,D1*%
X135089500Y-94109000D02*
X135089500Y-92639000D01*
X132804500Y-94109000D02*
X135089500Y-94109000D01*
X135089500Y-92639000D02*
X132804500Y-92639000D01*
%TO.C,D6*%
X149497500Y-102361668D02*
X147212500Y-102361668D01*
X149497500Y-103831668D02*
X149497500Y-102361668D01*
X147212500Y-103831668D02*
X149497500Y-103831668D01*
%TO.C,C6*%
X135729420Y-98930000D02*
X136010580Y-98930000D01*
X135729420Y-99950000D02*
X136010580Y-99950000D01*
%TO.C,D4*%
X189435000Y-92405000D02*
X191720000Y-92405000D01*
X189435000Y-90935000D02*
X189435000Y-92405000D01*
X191720000Y-90935000D02*
X189435000Y-90935000D01*
D11*
%TO.C,Hole7*%
X195720000Y-108080000D02*
G75*
G03*
X195720000Y-108080000I-900000J0D01*
G01*
D13*
%TO.C,C3*%
X184479420Y-103540000D02*
X184760580Y-103540000D01*
X184479420Y-102520000D02*
X184760580Y-102520000D01*
%TO.C,C1*%
X184469420Y-96640000D02*
X184750580Y-96640000D01*
X184469420Y-97660000D02*
X184750580Y-97660000D01*
%TO.C,R2*%
X171157742Y-98197500D02*
X171632258Y-98197500D01*
X171157742Y-99242500D02*
X171632258Y-99242500D01*
%TO.C,*%
G36*
X188070504Y-96326111D02*
G01*
X187748057Y-96326111D01*
X187664436Y-96326274D01*
X187590376Y-96326756D01*
X187526511Y-96327543D01*
X187473478Y-96328622D01*
X187431912Y-96329981D01*
X187402450Y-96331607D01*
X187386222Y-96333392D01*
X187338292Y-96346360D01*
X187301213Y-96366118D01*
X187274103Y-96393706D01*
X187256082Y-96430163D01*
X187246266Y-96476526D01*
X187244310Y-96500504D01*
X187245343Y-96554673D01*
X187254715Y-96599023D01*
X187272873Y-96634499D01*
X187300263Y-96662046D01*
X187328545Y-96678739D01*
X187366432Y-96696500D01*
X187718468Y-96698445D01*
X188070504Y-96700391D01*
X188070504Y-96953436D01*
X187721204Y-96953436D01*
X187643358Y-96953410D01*
X187577626Y-96953304D01*
X187522776Y-96953078D01*
X187477572Y-96952692D01*
X187440784Y-96952104D01*
X187411177Y-96951274D01*
X187387518Y-96950161D01*
X187368574Y-96948725D01*
X187353111Y-96946925D01*
X187339898Y-96944721D01*
X187327700Y-96942072D01*
X187320286Y-96940235D01*
X187267653Y-96923401D01*
X187224146Y-96901335D01*
X187185888Y-96871812D01*
X187165514Y-96851410D01*
X187135224Y-96814884D01*
X187112104Y-96777218D01*
X187093560Y-96733716D01*
X187083596Y-96703005D01*
X187064815Y-96616894D01*
X187057887Y-96524670D01*
X187062813Y-96426361D01*
X187063569Y-96419543D01*
X187077587Y-96342894D01*
X187100898Y-96275152D01*
X187133202Y-96216674D01*
X187174201Y-96167814D01*
X187223597Y-96128928D01*
X187281090Y-96100370D01*
X187346383Y-96082496D01*
X187346950Y-96082395D01*
X187363036Y-96080094D01*
X187384020Y-96078163D01*
X187410996Y-96076576D01*
X187445057Y-96075304D01*
X187487296Y-96074322D01*
X187538807Y-96073600D01*
X187600683Y-96073113D01*
X187674016Y-96072833D01*
X187735152Y-96072744D01*
X188070504Y-96072512D01*
X188070504Y-96326111D01*
G37*
G36*
X187597442Y-101800992D02*
G01*
X187660307Y-101827902D01*
X187715138Y-101864857D01*
X187761374Y-101911446D01*
X187798453Y-101967253D01*
X187825815Y-102031865D01*
X187834589Y-102062804D01*
X187841249Y-102101750D01*
X187844960Y-102149069D01*
X187845725Y-102200119D01*
X187843549Y-102250255D01*
X187838434Y-102294835D01*
X187834371Y-102315302D01*
X187811743Y-102383179D01*
X187778883Y-102442584D01*
X187736201Y-102493103D01*
X187684103Y-102534323D01*
X187622999Y-102565831D01*
X187569497Y-102583362D01*
X187532414Y-102589986D01*
X187487132Y-102593705D01*
X187438323Y-102594517D01*
X187390660Y-102592419D01*
X187348815Y-102587409D01*
X187330209Y-102583473D01*
X187262715Y-102559715D01*
X187203586Y-102525968D01*
X187153458Y-102482870D01*
X187112964Y-102431058D01*
X187082738Y-102371167D01*
X187066554Y-102318638D01*
X187060019Y-102281563D01*
X187055373Y-102237440D01*
X187053537Y-102203410D01*
X187215988Y-102203410D01*
X187223950Y-102243658D01*
X187228906Y-102256142D01*
X187249517Y-102286981D01*
X187280231Y-102313888D01*
X187317868Y-102334208D01*
X187326178Y-102337329D01*
X187345079Y-102342610D01*
X187367660Y-102346073D01*
X187396832Y-102347983D01*
X187435507Y-102348606D01*
X187449853Y-102348579D01*
X187488828Y-102348079D01*
X187517701Y-102346759D01*
X187539713Y-102344231D01*
X187558101Y-102340102D01*
X187576105Y-102333984D01*
X187578425Y-102333085D01*
X187621233Y-102311791D01*
X187652143Y-102285454D01*
X187672054Y-102252821D01*
X187681867Y-102212640D01*
X187683285Y-102187050D01*
X187680630Y-102148717D01*
X187671242Y-102118635D01*
X187653440Y-102092702D01*
X187638644Y-102077987D01*
X187614788Y-102059394D01*
X187588841Y-102045850D01*
X187558297Y-102036703D01*
X187520653Y-102031299D01*
X187473404Y-102028986D01*
X187449853Y-102028779D01*
X187403086Y-102029452D01*
X187366702Y-102031881D01*
X187337790Y-102036655D01*
X187313437Y-102044363D01*
X187290731Y-102055593D01*
X187277728Y-102063589D01*
X187249816Y-102089210D01*
X187229702Y-102123107D01*
X187218166Y-102162199D01*
X187215988Y-102203410D01*
X187053537Y-102203410D01*
X187052881Y-102191248D01*
X187052809Y-102147965D01*
X187055422Y-102112570D01*
X187055544Y-102111682D01*
X187071767Y-102038024D01*
X187098266Y-101972650D01*
X187134522Y-101916002D01*
X187180015Y-101868517D01*
X187234223Y-101830635D01*
X187296626Y-101802795D01*
X187366705Y-101785437D01*
X187443938Y-101778998D01*
X187449853Y-101778968D01*
X187527104Y-101784543D01*
X187597442Y-101800992D01*
G37*
G36*
X187476548Y-100973158D02*
G01*
X187551958Y-100983126D01*
X187618975Y-101003459D01*
X187677660Y-101034198D01*
X187728078Y-101075380D01*
X187770291Y-101127046D01*
X187796810Y-101173113D01*
X187818035Y-101222020D01*
X187832674Y-101270741D01*
X187841496Y-101323051D01*
X187845274Y-101382723D01*
X187845540Y-101411450D01*
X187843713Y-101466322D01*
X187837991Y-101514820D01*
X187827381Y-101562208D01*
X187810890Y-101613752D01*
X187803696Y-101633350D01*
X187789251Y-101671723D01*
X187583326Y-101671723D01*
X187583326Y-101652737D01*
X187587938Y-101634182D01*
X187596597Y-101621740D01*
X187623567Y-101590066D01*
X187646551Y-101549085D01*
X187664024Y-101502609D01*
X187674459Y-101454449D01*
X187676758Y-101421605D01*
X187672448Y-101369043D01*
X187658989Y-101325544D01*
X187635588Y-101289764D01*
X187601451Y-101260358D01*
X187571550Y-101243241D01*
X187551898Y-101233889D01*
X187535729Y-101227650D01*
X187519473Y-101223896D01*
X187499559Y-101221998D01*
X187472417Y-101221327D01*
X187446656Y-101221250D01*
X187398667Y-101222706D01*
X187360757Y-101227717D01*
X187329911Y-101237249D01*
X187303113Y-101252269D01*
X187277349Y-101273741D01*
X187274626Y-101276365D01*
X187248706Y-101310525D01*
X187231515Y-101352407D01*
X187223018Y-101399664D01*
X187223179Y-101449953D01*
X187231961Y-101500930D01*
X187249329Y-101550248D01*
X187275247Y-101595564D01*
X187279603Y-101601518D01*
X187294354Y-101623032D01*
X187305087Y-101642414D01*
X187309668Y-101655765D01*
X187309706Y-101656576D01*
X187309343Y-101662385D01*
X187306928Y-101666479D01*
X187300476Y-101669158D01*
X187287998Y-101670722D01*
X187267507Y-101671471D01*
X187237015Y-101671705D01*
X187209363Y-101671723D01*
X187109021Y-101671723D01*
X187095913Y-101641143D01*
X187076540Y-101584715D01*
X187062439Y-101520193D01*
X187054166Y-101451965D01*
X187052272Y-101384423D01*
X187056455Y-101328029D01*
X187072429Y-101249375D01*
X187097926Y-101179800D01*
X187132539Y-101119649D01*
X187175858Y-101069268D01*
X187227477Y-101029000D01*
X187286987Y-100999192D01*
X187353980Y-100980186D01*
X187428048Y-100972329D01*
X187476548Y-100973158D01*
G37*
G36*
X187336400Y-100784125D02*
G01*
X187076127Y-100784125D01*
X187076127Y-100543873D01*
X187336400Y-100543873D01*
X187336400Y-100784125D01*
G37*
G36*
X187256316Y-98755328D02*
G01*
X187890315Y-98755328D01*
X187890315Y-98595160D01*
X188070504Y-98595160D01*
X188070504Y-99169096D01*
X187890315Y-99169096D01*
X187890315Y-99008928D01*
X187256316Y-99008928D01*
X187256316Y-99169096D01*
X187076127Y-99169096D01*
X187076127Y-98595160D01*
X187256316Y-98595160D01*
X187256316Y-98755328D01*
G37*
G36*
X187823579Y-97420594D02*
G01*
X187076127Y-97420594D01*
X187076127Y-97180341D01*
X187823579Y-97180341D01*
X187823579Y-97420594D01*
G37*
G36*
X187823579Y-97887751D02*
G01*
X187743941Y-97887751D01*
X187773861Y-97930550D01*
X187811628Y-97993981D01*
X187836172Y-98057248D01*
X187847455Y-98120219D01*
X187845445Y-98182764D01*
X187843895Y-98192680D01*
X187829503Y-98248812D01*
X187807230Y-98294809D01*
X187776372Y-98331789D01*
X187739336Y-98359079D01*
X187723937Y-98367827D01*
X187709330Y-98375125D01*
X187694155Y-98381119D01*
X187677052Y-98385953D01*
X187656662Y-98389774D01*
X187631627Y-98392727D01*
X187600586Y-98394958D01*
X187562181Y-98396611D01*
X187515052Y-98397832D01*
X187457841Y-98398767D01*
X187389187Y-98399561D01*
X187358090Y-98399873D01*
X187076127Y-98402640D01*
X187076127Y-98162503D01*
X187321385Y-98160269D01*
X187566642Y-98158034D01*
X187600010Y-98141350D01*
X187625579Y-98125621D01*
X187642502Y-98106946D01*
X187652061Y-98082618D01*
X187655533Y-98049931D01*
X187655201Y-98024561D01*
X187652226Y-97988796D01*
X187645685Y-97959445D01*
X187634062Y-97929733D01*
X187633938Y-97929461D01*
X187614872Y-97887751D01*
X187076127Y-97887751D01*
X187076127Y-97647498D01*
X187823579Y-97647498D01*
X187823579Y-97887751D01*
G37*
G36*
X188117220Y-97427267D02*
G01*
X187937031Y-97427267D01*
X187937031Y-97173668D01*
X188117220Y-97173668D01*
X188117220Y-97427267D01*
G37*
G36*
X187692127Y-99336791D02*
G01*
X187704219Y-99338966D01*
X187781219Y-99360347D01*
X187851692Y-99391772D01*
X187914423Y-99432436D01*
X187968201Y-99481540D01*
X188011814Y-99538279D01*
X188016216Y-99545412D01*
X188046517Y-99607293D01*
X188068718Y-99677350D01*
X188082581Y-99752976D01*
X188087869Y-99831560D01*
X188084343Y-99910494D01*
X188071765Y-99987168D01*
X188060330Y-100029253D01*
X188031132Y-100100661D01*
X187991438Y-100164077D01*
X187941791Y-100219010D01*
X187882736Y-100264967D01*
X187814818Y-100301458D01*
X187738580Y-100327991D01*
X187726042Y-100331184D01*
X187672827Y-100340577D01*
X187612014Y-100345539D01*
X187548402Y-100346065D01*
X187486790Y-100342150D01*
X187431981Y-100333787D01*
X187422058Y-100331532D01*
X187343384Y-100306378D01*
X187273759Y-100271471D01*
X187213420Y-100227083D01*
X187162605Y-100173487D01*
X187121549Y-100110953D01*
X187090490Y-100039754D01*
X187069665Y-99960162D01*
X187063474Y-99919884D01*
X187058754Y-99872749D01*
X187057588Y-99839028D01*
X187243223Y-99839028D01*
X187248275Y-99889488D01*
X187257294Y-99920965D01*
X187280451Y-99964428D01*
X187314703Y-100002927D01*
X187358326Y-100035208D01*
X187409593Y-100060021D01*
X187466780Y-100076112D01*
X187472497Y-100077149D01*
X187509833Y-100081386D01*
X187553829Y-100082922D01*
X187600682Y-100081955D01*
X187646587Y-100078680D01*
X187687741Y-100073293D01*
X187720340Y-100065992D01*
X187726277Y-100064045D01*
X187783973Y-100038217D01*
X187830219Y-100005835D01*
X187865359Y-99966597D01*
X187889736Y-99920198D01*
X187890061Y-99919342D01*
X187898201Y-99894383D01*
X187902202Y-99871058D01*
X187902837Y-99843429D01*
X187902150Y-99826453D01*
X187893494Y-99769704D01*
X187873950Y-99720620D01*
X187843603Y-99679267D01*
X187802538Y-99645711D01*
X187750839Y-99620018D01*
X187688593Y-99602254D01*
X187615884Y-99592486D01*
X187599880Y-99591486D01*
X187525362Y-99592086D01*
X187457358Y-99601611D01*
X187396902Y-99619704D01*
X187345028Y-99646008D01*
X187302770Y-99680167D01*
X187285824Y-99699747D01*
X187262451Y-99740635D01*
X187248099Y-99788237D01*
X187243223Y-99839028D01*
X187057588Y-99839028D01*
X187057321Y-99831315D01*
X187059197Y-99789269D01*
X187064060Y-99743032D01*
X187080151Y-99664447D01*
X187107677Y-99591895D01*
X187145886Y-99526267D01*
X187194027Y-99468452D01*
X187251348Y-99419341D01*
X187317099Y-99379824D01*
X187390528Y-99350792D01*
X187396572Y-99348990D01*
X187436234Y-99340346D01*
X187485050Y-99334173D01*
X187539034Y-99330601D01*
X187594199Y-99329760D01*
X187599880Y-99329979D01*
X187646559Y-99331780D01*
X187692127Y-99336791D01*
G37*
G36*
X187823579Y-103013132D02*
G01*
X187742883Y-103013132D01*
X187766858Y-103044530D01*
X187791357Y-103081301D01*
X187813751Y-103123446D01*
X187831794Y-103166176D01*
X187843244Y-103204701D01*
X187844236Y-103209727D01*
X187848403Y-103264611D01*
X187841540Y-103318064D01*
X187824515Y-103367867D01*
X187798195Y-103411803D01*
X187763448Y-103447652D01*
X187746409Y-103459854D01*
X187718498Y-103477554D01*
X187751247Y-103520632D01*
X187779589Y-103562052D01*
X187805063Y-103607083D01*
X187825844Y-103651982D01*
X187840107Y-103693002D01*
X187844352Y-103711623D01*
X187848225Y-103766629D01*
X187841132Y-103819356D01*
X187823925Y-103867856D01*
X187797456Y-103910182D01*
X187762576Y-103944387D01*
X187734975Y-103961766D01*
X187719046Y-103969664D01*
X187703986Y-103976245D01*
X187688413Y-103981646D01*
X187670942Y-103986003D01*
X187650189Y-103989454D01*
X187624770Y-103992135D01*
X187593301Y-103994183D01*
X187554399Y-103995735D01*
X187506679Y-103996927D01*
X187448758Y-103997897D01*
X187379251Y-103998781D01*
X187358090Y-103999026D01*
X187076127Y-104002245D01*
X187076127Y-103761574D01*
X187328058Y-103759410D01*
X187393068Y-103758816D01*
X187446123Y-103758208D01*
X187488616Y-103757510D01*
X187521940Y-103756644D01*
X187547488Y-103755532D01*
X187566652Y-103754097D01*
X187580826Y-103752262D01*
X187591401Y-103749948D01*
X187599771Y-103747078D01*
X187606684Y-103743899D01*
X187630530Y-103727728D01*
X187645974Y-103706125D01*
X187653986Y-103676899D01*
X187655535Y-103637857D01*
X187655391Y-103633783D01*
X187652353Y-103599205D01*
X187645396Y-103570918D01*
X187634540Y-103545357D01*
X187615713Y-103506983D01*
X187076127Y-103506983D01*
X187076127Y-103267598D01*
X187328058Y-103265496D01*
X187392942Y-103264924D01*
X187445872Y-103264343D01*
X187488242Y-103263675D01*
X187521444Y-103262839D01*
X187546871Y-103261757D01*
X187565917Y-103260349D01*
X187579975Y-103258535D01*
X187590438Y-103256236D01*
X187598699Y-103253372D01*
X187606152Y-103249863D01*
X187606684Y-103249589D01*
X187632597Y-103229133D01*
X187649599Y-103200233D01*
X187657427Y-103164612D01*
X187655820Y-103123992D01*
X187644515Y-103080094D01*
X187635728Y-103058711D01*
X187614719Y-103013132D01*
X187076127Y-103013132D01*
X187076127Y-102772879D01*
X187823579Y-102772879D01*
X187823579Y-103013132D01*
G37*
D11*
%TO.C,Hole6*%
X166320000Y-108150000D02*
G75*
G03*
X166320000Y-108150000I-900000J0D01*
G01*
D14*
%TO.C,U2*%
X141312800Y-101510000D02*
X141312800Y-101118000D01*
X138704800Y-98510000D02*
X138312800Y-98510000D01*
X141312800Y-98906000D02*
X141312800Y-98510000D01*
X141312800Y-101510000D02*
X140917800Y-101510000D01*
X141312800Y-98510000D02*
X140917800Y-98510000D01*
X138706800Y-101510000D02*
X138312800Y-101510000D01*
X138312800Y-101118000D02*
X138312800Y-101510000D01*
X138312800Y-98510000D02*
X138312800Y-98906000D01*
X141037800Y-97960000D02*
G75*
G03*
X141037800Y-97960000I-125000J0D01*
G01*
%TD*%
%LPC*%
D17*
%TO.C,Hole4*%
X156260000Y-91600000D03*
%TD*%
D18*
%TO.C,J7*%
X130640000Y-108700000D03*
D19*
X133180000Y-108700000D03*
X135720000Y-108700000D03*
%TD*%
D20*
%TO.C,F2*%
X188660000Y-107570000D03*
X191460000Y-107570000D03*
%TD*%
D21*
%TO.C,C2*%
X183835000Y-98670000D03*
X185385000Y-98670000D03*
%TD*%
D22*
%TO.C,D2*%
X172180000Y-97160000D03*
X170605000Y-97160000D03*
%TD*%
D23*
%TO.C,R6*%
X147167500Y-101330002D03*
X148817500Y-101330002D03*
%TD*%
D24*
%TO.C,F1*%
X130812500Y-93820000D03*
X130812500Y-91020000D03*
%TD*%
D23*
%TO.C,R5*%
X147167500Y-98726668D03*
X148817500Y-98726668D03*
%TD*%
D25*
%TO.C,USB2*%
X190978700Y-102910000D03*
X190978700Y-97130000D03*
D26*
X190478700Y-104345000D03*
X190478700Y-95695000D03*
D27*
X194678700Y-104345000D03*
X194678700Y-95695000D03*
D28*
X189716700Y-103220000D03*
X189716700Y-102420000D03*
D29*
X189716700Y-101270000D03*
X189716700Y-100270000D03*
X189716700Y-99770000D03*
X189716700Y-98770000D03*
D28*
X189716700Y-96820000D03*
X189716700Y-97620000D03*
D29*
X189716700Y-98270000D03*
X189716700Y-99270000D03*
X189716700Y-100770000D03*
X189716700Y-101770000D03*
%TD*%
D17*
%TO.C,Hole1*%
X126440000Y-91650000D03*
%TD*%
%TO.C,Hole8*%
X194820000Y-91650000D03*
%TD*%
D30*
%TO.C,U1*%
X180767000Y-101760000D03*
X180767000Y-101260000D03*
X180767000Y-100760000D03*
X180767000Y-100260000D03*
X180767000Y-99760000D03*
X180767000Y-99260000D03*
X180767000Y-98760000D03*
D31*
X179890000Y-97883000D03*
X179390000Y-97883000D03*
X178890000Y-97883000D03*
X178390000Y-97883000D03*
X177890000Y-97883000D03*
X177390000Y-97883000D03*
X176890000Y-97883000D03*
D30*
X176013000Y-98760000D03*
X176013000Y-99260000D03*
X176013000Y-99760000D03*
X176013000Y-100260000D03*
X176013000Y-100760000D03*
X176013000Y-101260000D03*
X176013000Y-101760000D03*
D31*
X176890000Y-102637000D03*
X177390000Y-102637000D03*
X177890000Y-102637000D03*
X178390000Y-102637000D03*
X178890000Y-102637000D03*
X179390000Y-102637000D03*
X179890000Y-102637000D03*
D32*
X178390000Y-100260000D03*
%TD*%
D23*
%TO.C,R1*%
X132777500Y-91430000D03*
X134427500Y-91430000D03*
%TD*%
D22*
%TO.C,D5*%
X148800000Y-96960000D03*
X147225000Y-96960000D03*
%TD*%
D33*
%TO.C,C5*%
X142075000Y-103850000D03*
X140525000Y-103850000D03*
%TD*%
D17*
%TO.C,Hole3*%
X156260000Y-108330000D03*
%TD*%
D21*
%TO.C,C7*%
X140525000Y-95980000D03*
X142075000Y-95980000D03*
%TD*%
D17*
%TO.C,Hole5*%
X165450000Y-91670000D03*
%TD*%
D18*
%TO.C,J2*%
X164640000Y-103820000D03*
D19*
X164640000Y-101280000D03*
X164640000Y-98740000D03*
X164640000Y-96200000D03*
%TD*%
D34*
%TO.C,R4*%
X191735000Y-93270000D03*
X190085000Y-93270000D03*
%TD*%
D21*
%TO.C,C4*%
X183835000Y-101468000D03*
X185385000Y-101468000D03*
%TD*%
D23*
%TO.C,R3*%
X170565000Y-101290000D03*
X172215000Y-101290000D03*
%TD*%
D17*
%TO.C,Hole2*%
X126540000Y-108350000D03*
%TD*%
D25*
%TO.C,USB1*%
X130171500Y-102660000D03*
X130171500Y-96880000D03*
D26*
X130671500Y-95445000D03*
X130671500Y-104095000D03*
D27*
X126471500Y-95445000D03*
X126471500Y-104095000D03*
D28*
X131433500Y-96570000D03*
X131433500Y-97370000D03*
D29*
X131433500Y-98520000D03*
X131433500Y-99520000D03*
X131433500Y-100020000D03*
X131433500Y-101020000D03*
D28*
X131433500Y-102970000D03*
X131433500Y-102170000D03*
D29*
X131433500Y-101520000D03*
X131433500Y-100520000D03*
X131433500Y-99020000D03*
X131433500Y-98020000D03*
%TD*%
D18*
%TO.C,J5*%
X156432500Y-103850000D03*
D19*
X156432500Y-101310000D03*
X156432500Y-98770000D03*
X156432500Y-96230000D03*
%TD*%
D22*
%TO.C,D3*%
X172173500Y-102852000D03*
X170598500Y-102852000D03*
%TD*%
%TO.C,D1*%
X134392000Y-93374000D03*
X132817000Y-93374000D03*
%TD*%
%TO.C,D6*%
X148800000Y-103096668D03*
X147225000Y-103096668D03*
%TD*%
D21*
%TO.C,C6*%
X135095000Y-99440000D03*
X136645000Y-99440000D03*
%TD*%
D35*
%TO.C,D4*%
X190132500Y-91670000D03*
X191707500Y-91670000D03*
%TD*%
D17*
%TO.C,Hole7*%
X194820000Y-108080000D03*
%TD*%
D21*
%TO.C,C3*%
X183845000Y-103030000D03*
X185395000Y-103030000D03*
%TD*%
%TO.C,C1*%
X183835000Y-97150000D03*
X185385000Y-97150000D03*
%TD*%
D23*
%TO.C,R2*%
X170570000Y-98720000D03*
X172220000Y-98720000D03*
%TD*%
D17*
%TO.C,Hole6*%
X165420000Y-108150000D03*
%TD*%
D36*
%TO.C,U2*%
X140560800Y-98560000D03*
X140061800Y-98560000D03*
X139560800Y-98560000D03*
X139061800Y-98560000D03*
D37*
X138362800Y-99260000D03*
X138362800Y-99760000D03*
X138362800Y-100260000D03*
X138362800Y-100760000D03*
D36*
X139062800Y-101460000D03*
X139562800Y-101460000D03*
X140062800Y-101460000D03*
X140561800Y-101460000D03*
D37*
X141262800Y-100760000D03*
X141262800Y-100260000D03*
X141262800Y-99760000D03*
X141262800Y-99260000D03*
D18*
X139812800Y-100010000D03*
%TD*%
%TO.C,J4*%
X153500000Y-108700000D03*
D19*
X150960000Y-108700000D03*
X148420000Y-108700000D03*
X145880000Y-108700000D03*
X143340000Y-108700000D03*
X140800000Y-108700000D03*
%TD*%
D18*
%TO.C,J3*%
X169341000Y-108646000D03*
D19*
X171881000Y-108646000D03*
X174421000Y-108646000D03*
X176961000Y-108646000D03*
X179501000Y-108646000D03*
X182041000Y-108646000D03*
X184581000Y-108646000D03*
%TD*%
D18*
%TO.C,J1*%
X169400000Y-91100000D03*
D19*
X171940000Y-91100000D03*
X174480000Y-91100000D03*
X177020000Y-91100000D03*
X179560000Y-91100000D03*
X182100000Y-91100000D03*
X184640000Y-91100000D03*
X187180000Y-91100000D03*
%TD*%
D18*
%TO.C,J6*%
X153500000Y-91194000D03*
D19*
X150960000Y-91194000D03*
X148420000Y-91194000D03*
X145880000Y-91194000D03*
X143340000Y-91194000D03*
X140800000Y-91194000D03*
X138260000Y-91194000D03*
%TD*%
M02*
