%TF.GenerationSoftware,KiCad,Pcbnew,(6.0.9)*%
%TF.CreationDate,2022-11-29T23:55:44+08:00*%
%TF.ProjectId,UINIO-USB-UART,55494e49-4f2d-4555-9342-2d554152542e,Hank*%
%TF.SameCoordinates,Original*%
%TF.FileFunction,Soldermask,Bot*%
%TF.FilePolarity,Negative*%
%FSLAX46Y46*%
G04 Gerber Fmt 4.6, Leading zero omitted, Abs format (unit mm)*
G04 Created by KiCad (PCBNEW (6.0.9)) date 2022-11-29 23:55:44*
%MOMM*%
%LPD*%
G01*
G04 APERTURE LIST*
%ADD10C,1.200000*%
%ADD11R,1.700000X1.700000*%
%ADD12O,1.700000X1.700000*%
%ADD13C,0.650000*%
%ADD14O,2.100000X1.000000*%
%ADD15O,1.900000X1.000000*%
G04 APERTURE END LIST*
D10*
%TO.C,Hole4*%
X156260000Y-91600000D03*
%TD*%
D11*
%TO.C,J7*%
X130640000Y-108700000D03*
D12*
X133180000Y-108700000D03*
X135720000Y-108700000D03*
%TD*%
D13*
%TO.C,USB2*%
X190978700Y-102910000D03*
X190978700Y-97130000D03*
D14*
X190478700Y-104345000D03*
X190478700Y-95695000D03*
D15*
X194678700Y-104345000D03*
X194678700Y-95695000D03*
%TD*%
D10*
%TO.C,Hole1*%
X126120000Y-91660000D03*
%TD*%
%TO.C,Hole8*%
X195030000Y-91580000D03*
%TD*%
%TO.C,Hole3*%
X156250000Y-108250000D03*
%TD*%
%TO.C,Hole5*%
X164830000Y-91580000D03*
%TD*%
D11*
%TO.C,J2*%
X164620000Y-96240000D03*
D12*
X164620000Y-98780000D03*
X164620000Y-101320000D03*
X164620000Y-103860000D03*
%TD*%
D10*
%TO.C,Hole2*%
X126120000Y-108250000D03*
%TD*%
D13*
%TO.C,USB1*%
X130171500Y-102660000D03*
X130171500Y-96880000D03*
D14*
X130671500Y-95445000D03*
X130671500Y-104095000D03*
D15*
X126471500Y-95445000D03*
X126471500Y-104095000D03*
%TD*%
D11*
%TO.C,J5*%
X156432500Y-103850000D03*
D12*
X156432500Y-101310000D03*
X156432500Y-98770000D03*
X156432500Y-96230000D03*
%TD*%
D10*
%TO.C,Hole7*%
X195030000Y-108190000D03*
%TD*%
%TO.C,Hole6*%
X164830000Y-108200000D03*
%TD*%
D11*
%TO.C,J4*%
X153500000Y-108700000D03*
D12*
X150960000Y-108700000D03*
X148420000Y-108700000D03*
X145880000Y-108700000D03*
X143340000Y-108700000D03*
X140800000Y-108700000D03*
%TD*%
D11*
%TO.C,J3*%
X169341000Y-108646000D03*
D12*
X171881000Y-108646000D03*
X174421000Y-108646000D03*
X176961000Y-108646000D03*
X179501000Y-108646000D03*
X182041000Y-108646000D03*
X184581000Y-108646000D03*
%TD*%
D11*
%TO.C,J1*%
X169400000Y-91100000D03*
D12*
X171940000Y-91100000D03*
X174480000Y-91100000D03*
X177020000Y-91100000D03*
X179560000Y-91100000D03*
X182100000Y-91100000D03*
X184640000Y-91100000D03*
X187180000Y-91100000D03*
%TD*%
D11*
%TO.C,J6*%
X153500000Y-91194000D03*
D12*
X150960000Y-91194000D03*
X148420000Y-91194000D03*
X145880000Y-91194000D03*
X143340000Y-91194000D03*
X140800000Y-91194000D03*
X138260000Y-91194000D03*
%TD*%
M02*
