%TF.GenerationSoftware,KiCad,Pcbnew,7.0.5*%
%TF.CreationDate,2023-06-29T18:32:41+08:00*%
%TF.ProjectId,UINIO-USB-UART,55494e49-4f2d-4555-9342-2d554152542e,Version 3.2.0*%
%TF.SameCoordinates,PX8b79910PY5020b20*%
%TF.FileFunction,Soldermask,Top*%
%TF.FilePolarity,Negative*%
%FSLAX46Y46*%
G04 Gerber Fmt 4.6, Leading zero omitted, Abs format (unit mm)*
G04 Created by KiCad (PCBNEW 7.0.5) date 2023-06-29 18:32:41*
%MOMM*%
%LPD*%
G01*
G04 APERTURE LIST*
G04 Aperture macros list*
%AMRoundRect*
0 Rectangle with rounded corners*
0 $1 Rounding radius*
0 $2 $3 $4 $5 $6 $7 $8 $9 X,Y pos of 4 corners*
0 Add a 4 corners polygon primitive as box body*
4,1,4,$2,$3,$4,$5,$6,$7,$8,$9,$2,$3,0*
0 Add four circle primitives for the rounded corners*
1,1,$1+$1,$2,$3*
1,1,$1+$1,$4,$5*
1,1,$1+$1,$6,$7*
1,1,$1+$1,$8,$9*
0 Add four rect primitives between the rounded corners*
20,1,$1+$1,$2,$3,$4,$5,0*
20,1,$1+$1,$4,$5,$6,$7,0*
20,1,$1+$1,$6,$7,$8,$9,0*
20,1,$1+$1,$8,$9,$2,$3,0*%
%AMRotRect*
0 Rectangle, with rotation*
0 The origin of the aperture is its center*
0 $1 length*
0 $2 width*
0 $3 Rotation angle, in degrees counterclockwise*
0 Add horizontal line*
21,1,$1,$2,0,0,$3*%
G04 Aperture macros list end*
%ADD10R,1.700000X1.700000*%
%ADD11O,1.700000X1.700000*%
%ADD12RoundRect,0.200000X0.275000X-0.200000X0.275000X0.200000X-0.275000X0.200000X-0.275000X-0.200000X0*%
%ADD13C,1.200000*%
%ADD14RoundRect,0.250000X-0.625000X0.375000X-0.625000X-0.375000X0.625000X-0.375000X0.625000X0.375000X0*%
%ADD15RoundRect,0.225000X0.250000X-0.225000X0.250000X0.225000X-0.250000X0.225000X-0.250000X-0.225000X0*%
%ADD16RoundRect,0.218750X0.256250X-0.218750X0.256250X0.218750X-0.256250X0.218750X-0.256250X-0.218750X0*%
%ADD17RoundRect,0.200000X-0.275000X0.200000X-0.275000X-0.200000X0.275000X-0.200000X0.275000X0.200000X0*%
%ADD18C,0.650000*%
%ADD19O,1.000000X2.100000*%
%ADD20O,1.000000X1.900000*%
%ADD21R,0.600000X1.150000*%
%ADD22R,0.300000X1.150000*%
%ADD23C,2.200000*%
%ADD24R,0.280000X0.905000*%
%ADD25R,0.905000X0.280000*%
%ADD26R,3.350000X3.350000*%
%ADD27RoundRect,0.218750X-0.256250X0.218750X-0.256250X-0.218750X0.256250X-0.218750X0.256250X0.218750X0*%
%ADD28RoundRect,0.225000X-0.250000X0.225000X-0.250000X-0.225000X0.250000X-0.225000X0.250000X0.225000X0*%
%ADD29RotRect,0.250000X0.750000X45.000000*%
%ADD30RotRect,0.750000X0.250000X45.000000*%
%ADD31RotRect,1.700000X1.700000X45.000000*%
G04 APERTURE END LIST*
D10*
%TO.C,J7*%
X-18940000Y-1466320D03*
D11*
X-18940000Y-4006320D03*
X-18940000Y-6546320D03*
%TD*%
D12*
%TO.C,R8*%
X20950000Y-7495000D03*
X20950000Y-5845000D03*
%TD*%
D13*
%TO.C,HOLE\u002A\u002A*%
X26210000Y2973680D03*
%TD*%
D12*
%TO.C,R9*%
X-10150000Y-8460000D03*
X-10150000Y-6810000D03*
%TD*%
D13*
%TO.C,HOLE\u002A\u002A*%
X-18110000Y-26315000D03*
%TD*%
D14*
%TO.C,F2*%
X10790000Y-906320D03*
X10790000Y-3706320D03*
%TD*%
D12*
%TO.C,R7*%
X22410000Y-7495000D03*
X22410000Y-5845000D03*
%TD*%
D15*
%TO.C,C2*%
X12770000Y-7445000D03*
X12770000Y-5895000D03*
%TD*%
D16*
%TO.C,D2*%
X14810000Y-20805000D03*
X14810000Y-19230000D03*
%TD*%
D13*
%TO.C,HOLE\u002A\u002A*%
X10280000Y-26316320D03*
%TD*%
D17*
%TO.C,R6*%
X-12140000Y-18526320D03*
X-12140000Y-20176320D03*
%TD*%
D14*
%TO.C,F1*%
X-2820000Y-906320D03*
X-2820000Y-3706320D03*
%TD*%
D17*
%TO.C,R5*%
X-8170000Y-18558820D03*
X-8170000Y-20208820D03*
%TD*%
D12*
%TO.C,R10*%
X-12940000Y-8460000D03*
X-12940000Y-6810000D03*
%TD*%
D18*
%TO.C,USB2*%
X21130000Y-236320D03*
X15350000Y-236320D03*
D19*
X22565000Y-736320D03*
X13915000Y-736320D03*
D20*
X22565000Y3463680D03*
X13915000Y3463680D03*
D21*
X21440000Y-1498320D03*
X20640000Y-1498320D03*
D22*
X19490000Y-1498320D03*
X18490000Y-1498320D03*
X17990000Y-1498320D03*
X16990000Y-1498320D03*
D21*
X15040000Y-1498320D03*
X15840000Y-1498320D03*
D22*
X16490000Y-1498320D03*
X17490000Y-1498320D03*
X18990000Y-1498320D03*
X19990000Y-1498320D03*
%TD*%
D23*
%TO.C,HOLE\u002A\u002A*%
X4050000Y-3100000D03*
%TD*%
D24*
%TO.C,U1*%
X19650000Y-10815000D03*
X19150000Y-10815000D03*
X18650000Y-10815000D03*
X18150000Y-10815000D03*
X17650000Y-10815000D03*
X17150000Y-10815000D03*
X16650000Y-10815000D03*
D25*
X15773000Y-11692000D03*
X15773000Y-12192000D03*
X15773000Y-12692000D03*
X15773000Y-13192000D03*
X15773000Y-13692000D03*
X15773000Y-14192000D03*
X15773000Y-14692000D03*
D24*
X16650000Y-15569000D03*
X17150000Y-15569000D03*
X17650000Y-15569000D03*
X18150000Y-15569000D03*
X18650000Y-15569000D03*
X19150000Y-15569000D03*
X19650000Y-15569000D03*
D25*
X20527000Y-14692000D03*
X20527000Y-14192000D03*
X20527000Y-13692000D03*
X20527000Y-13192000D03*
X20527000Y-12692000D03*
X20527000Y-12192000D03*
X20527000Y-11692000D03*
D26*
X18150000Y-13192000D03*
%TD*%
D17*
%TO.C,R1*%
X-3740000Y-6800000D03*
X-3740000Y-8450000D03*
%TD*%
D16*
%TO.C,D5*%
X-6620000Y-20171320D03*
X-6620000Y-18596320D03*
%TD*%
D15*
%TO.C,C5*%
X-14280000Y-14345000D03*
X-14280000Y-12795000D03*
%TD*%
%TO.C,C7*%
X-6010000Y-14345000D03*
X-6010000Y-12795000D03*
%TD*%
D13*
%TO.C,HOLE\u002A\u002A*%
X26210000Y-26306320D03*
%TD*%
D10*
%TO.C,J2*%
X13175000Y-27165000D03*
D11*
X15715000Y-27165000D03*
X18255000Y-27165000D03*
X20795000Y-27165000D03*
X23335000Y-27165000D03*
%TD*%
D17*
%TO.C,R4*%
X24720000Y-1175000D03*
X24720000Y-2825000D03*
%TD*%
D13*
%TO.C,HOLE\u002A\u002A*%
X-2190000Y2965000D03*
%TD*%
D15*
%TO.C,C4*%
X17150000Y-7445000D03*
X17150000Y-5895000D03*
%TD*%
D17*
%TO.C,R3*%
X20030000Y-19185000D03*
X20030000Y-20835000D03*
%TD*%
D18*
%TO.C,USB1*%
X-7260000Y-236320D03*
X-13040000Y-236320D03*
D19*
X-5825000Y-736320D03*
X-14475000Y-736320D03*
D20*
X-5825000Y3463680D03*
X-14475000Y3463680D03*
D21*
X-6950000Y-1498320D03*
X-7750000Y-1498320D03*
D22*
X-8900000Y-1498320D03*
X-9900000Y-1498320D03*
X-10400000Y-1498320D03*
X-11400000Y-1498320D03*
D21*
X-13350000Y-1498320D03*
X-12550000Y-1498320D03*
D22*
X-11900000Y-1498320D03*
X-10900000Y-1498320D03*
X-9400000Y-1498320D03*
X-8400000Y-1498320D03*
%TD*%
D13*
%TO.C,HOLE\u002A\u002A*%
X10290000Y2963680D03*
%TD*%
D10*
%TO.C,J5*%
X-15225000Y-27165000D03*
D11*
X-12685000Y-27165000D03*
X-10145000Y-27165000D03*
X-7605000Y-27165000D03*
X-5065000Y-27165000D03*
%TD*%
D16*
%TO.C,D3*%
X21590000Y-20797500D03*
X21590000Y-19222500D03*
%TD*%
D13*
%TO.C,HOLE\u002A\u002A*%
X-18110000Y2965000D03*
%TD*%
%TO.C,HOLE\u002A\u002A*%
X-2190000Y-26325000D03*
%TD*%
D27*
%TO.C,D1*%
X-2160000Y-6847500D03*
X-2160000Y-8422500D03*
%TD*%
D16*
%TO.C,D6*%
X-13690000Y-20138820D03*
X-13690000Y-18563820D03*
%TD*%
D28*
%TO.C,C6*%
X-7310000Y-6860000D03*
X-7310000Y-8410000D03*
%TD*%
D16*
%TO.C,D4*%
X26280000Y-2787500D03*
X26280000Y-1212500D03*
%TD*%
D15*
%TO.C,C3*%
X15690000Y-7445000D03*
X15690000Y-5895000D03*
%TD*%
%TO.C,C1*%
X14230000Y-7445000D03*
X14230000Y-5895000D03*
%TD*%
D17*
%TO.C,R2*%
X16360000Y-19192500D03*
X16360000Y-20842500D03*
%TD*%
D29*
%TO.C,U2*%
X-9653611Y-15127721D03*
X-9300765Y-14774874D03*
X-8946504Y-14420614D03*
X-8593658Y-14067768D03*
D30*
X-8594365Y-13078525D03*
X-8947918Y-12724972D03*
X-9301472Y-12371418D03*
X-9655025Y-12017865D03*
D29*
X-10644975Y-12017865D03*
X-10998528Y-12371418D03*
X-11352082Y-12724972D03*
X-11704928Y-13077818D03*
D30*
X-11705635Y-14068475D03*
X-11352082Y-14422028D03*
X-10998528Y-14775582D03*
X-10644975Y-15129135D03*
D31*
X-10150000Y-13573500D03*
%TD*%
D10*
%TO.C,J4*%
X-18940000Y-15225000D03*
D11*
X-18940000Y-17765000D03*
X-18940000Y-20305000D03*
%TD*%
D10*
%TO.C,J3*%
X26930000Y-7235000D03*
D11*
X26930000Y-9775000D03*
X26930000Y-12315000D03*
X26930000Y-14855000D03*
X26930000Y-17395000D03*
X26930000Y-19935000D03*
%TD*%
D10*
%TO.C,J1*%
X9370000Y-12316320D03*
D11*
X9370000Y-14856320D03*
X9370000Y-17396320D03*
%TD*%
D10*
%TO.C,J6*%
X-1330000Y-12675000D03*
D11*
X-1330000Y-15215000D03*
X-1330000Y-17755000D03*
X-1330000Y-20295000D03*
%TD*%
M02*
