%TF.GenerationSoftware,KiCad,Pcbnew,8.0.6*%
%TF.CreationDate,2024-11-26T19:58:58+08:00*%
%TF.ProjectId,UINIO-USB-UART,55494e49-4f2d-4555-9342-2d554152542e,Version 5.0.0*%
%TF.SameCoordinates,PX8be9df0PY5020b20*%
%TF.FileFunction,Soldermask,Top*%
%TF.FilePolarity,Negative*%
%FSLAX46Y46*%
G04 Gerber Fmt 4.6, Leading zero omitted, Abs format (unit mm)*
G04 Created by KiCad (PCBNEW 8.0.6) date 2024-11-26 19:58:58*
%MOMM*%
%LPD*%
G01*
G04 APERTURE LIST*
G04 Aperture macros list*
%AMRoundRect*
0 Rectangle with rounded corners*
0 $1 Rounding radius*
0 $2 $3 $4 $5 $6 $7 $8 $9 X,Y pos of 4 corners*
0 Add a 4 corners polygon primitive as box body*
4,1,4,$2,$3,$4,$5,$6,$7,$8,$9,$2,$3,0*
0 Add four circle primitives for the rounded corners*
1,1,$1+$1,$2,$3*
1,1,$1+$1,$4,$5*
1,1,$1+$1,$6,$7*
1,1,$1+$1,$8,$9*
0 Add four rect primitives between the rounded corners*
20,1,$1+$1,$2,$3,$4,$5,0*
20,1,$1+$1,$4,$5,$6,$7,0*
20,1,$1+$1,$6,$7,$8,$9,0*
20,1,$1+$1,$8,$9,$2,$3,0*%
%AMRotRect*
0 Rectangle, with rotation*
0 The origin of the aperture is its center*
0 $1 length*
0 $2 width*
0 $3 Rotation angle, in degrees counterclockwise*
0 Add horizontal line*
21,1,$1,$2,0,0,$3*%
G04 Aperture macros list end*
%ADD10RoundRect,0.150000X0.200000X-0.150000X0.200000X0.150000X-0.200000X0.150000X-0.200000X-0.150000X0*%
%ADD11RoundRect,0.150000X-0.200000X0.150000X-0.200000X-0.150000X0.200000X-0.150000X0.200000X0.150000X0*%
%ADD12R,1.200000X1.200000*%
%ADD13C,2.200000*%
%ADD14R,1.700000X1.700000*%
%ADD15O,1.700000X1.700000*%
%ADD16RoundRect,0.200000X0.275000X-0.200000X0.275000X0.200000X-0.275000X0.200000X-0.275000X-0.200000X0*%
%ADD17RoundRect,0.200000X-0.200000X-0.275000X0.200000X-0.275000X0.200000X0.275000X-0.200000X0.275000X0*%
%ADD18RoundRect,0.250000X-0.375000X-0.625000X0.375000X-0.625000X0.375000X0.625000X-0.375000X0.625000X0*%
%ADD19RoundRect,0.200000X-0.275000X0.200000X-0.275000X-0.200000X0.275000X-0.200000X0.275000X0.200000X0*%
%ADD20RoundRect,0.218750X0.218750X0.256250X-0.218750X0.256250X-0.218750X-0.256250X0.218750X-0.256250X0*%
%ADD21RoundRect,0.225000X0.225000X0.250000X-0.225000X0.250000X-0.225000X-0.250000X0.225000X-0.250000X0*%
%ADD22C,0.650000*%
%ADD23O,2.100000X1.000000*%
%ADD24O,1.900000X1.000000*%
%ADD25R,1.150000X0.600000*%
%ADD26R,1.150000X0.300000*%
%ADD27RoundRect,0.218750X-0.218750X-0.256250X0.218750X-0.256250X0.218750X0.256250X-0.218750X0.256250X0*%
%ADD28RoundRect,0.225000X-0.250000X0.225000X-0.250000X-0.225000X0.250000X-0.225000X0.250000X0.225000X0*%
%ADD29RotRect,0.250000X0.750000X135.000000*%
%ADD30RotRect,0.750000X0.250000X135.000000*%
%ADD31RotRect,1.700000X1.700000X135.000000*%
G04 APERTURE END LIST*
D10*
%TO.C,D4*%
X8150000Y-9800000D03*
X8150000Y-11200000D03*
%TD*%
D11*
%TO.C,D3*%
X8150000Y-13460000D03*
X8150000Y-12060000D03*
%TD*%
D12*
%TO.C,D2*%
X7970000Y-3620000D03*
X10770000Y-3620000D03*
%TD*%
D13*
%TO.C,HOLE\u002A\u002A*%
X25840000Y-18110000D03*
%TD*%
%TO.C,HOLE\u002A\u002A*%
X25840000Y-2190000D03*
%TD*%
%TO.C,HOLE\u002A\u002A*%
X-360000Y-2190000D03*
%TD*%
%TO.C,HOLE\u002A\u002A*%
X-360000Y-18110000D03*
%TD*%
D14*
%TO.C,J7*%
X3361320Y-18940000D03*
D15*
X5901320Y-18940000D03*
X8441320Y-18940000D03*
%TD*%
D16*
%TO.C,R9*%
X10920000Y-8900000D03*
X10920000Y-10550000D03*
%TD*%
D17*
%TO.C,R6*%
X22562500Y-12140000D03*
X20912500Y-12140000D03*
%TD*%
D18*
%TO.C,F1*%
X10770000Y-6300000D03*
X7970000Y-6300000D03*
%TD*%
D17*
%TO.C,R5*%
X22562500Y-8130000D03*
X20912500Y-8130000D03*
%TD*%
D19*
%TO.C,R10*%
X10920000Y-12710000D03*
X10920000Y-14360000D03*
%TD*%
D17*
%TO.C,R1*%
X9797500Y-1330000D03*
X8147500Y-1330000D03*
%TD*%
D20*
%TO.C,D5*%
X22525000Y-6580000D03*
X20950000Y-6580000D03*
%TD*%
D21*
%TO.C,C5*%
X15965000Y-14270000D03*
X14415000Y-14270000D03*
%TD*%
%TO.C,C7*%
X16240000Y-6280000D03*
X14690000Y-6280000D03*
%TD*%
D22*
%TO.C,USB1*%
X2131320Y-7260000D03*
X2131320Y-13040000D03*
D23*
X2631320Y-5825000D03*
X2631320Y-14475000D03*
D24*
X-1568680Y-5825000D03*
X-1568680Y-14475000D03*
D25*
X3393320Y-6950000D03*
X3393320Y-7750000D03*
D26*
X3393320Y-8900000D03*
X3393320Y-9900000D03*
X3393320Y-10400000D03*
X3393320Y-11400000D03*
D25*
X3393320Y-13350000D03*
X3393320Y-12550000D03*
D26*
X3393320Y-11900000D03*
X3393320Y-10900000D03*
X3393320Y-9400000D03*
X3393320Y-8400000D03*
%TD*%
D14*
%TO.C,J5*%
X29060000Y-15225000D03*
D15*
X29060000Y-12685000D03*
X29060000Y-10145000D03*
X29060000Y-7605000D03*
X29060000Y-5065000D03*
%TD*%
D27*
%TO.C,D1*%
X6797500Y-1330000D03*
X5222500Y-1330000D03*
%TD*%
D20*
%TO.C,D6*%
X20950000Y-13690000D03*
X22525000Y-13690000D03*
%TD*%
D28*
%TO.C,C6*%
X12830000Y-6305000D03*
X12830000Y-4755000D03*
%TD*%
D29*
%TO.C,U2*%
X17022721Y-9653611D03*
X16669874Y-9300765D03*
X16315614Y-8946504D03*
X15962768Y-8593658D03*
D30*
X14973525Y-8594365D03*
X14619972Y-8947918D03*
X14266418Y-9301472D03*
X13912865Y-9655025D03*
D29*
X13912865Y-10644975D03*
X14266418Y-10998528D03*
X14619972Y-11352082D03*
X14972818Y-11704928D03*
D30*
X15963475Y-11705635D03*
X16317028Y-11352082D03*
X16670582Y-10998528D03*
X17024135Y-10644975D03*
D31*
X15468500Y-10150000D03*
%TD*%
D14*
%TO.C,J4*%
X17120000Y-18940000D03*
D15*
X19660000Y-18940000D03*
X22200000Y-18940000D03*
%TD*%
D14*
%TO.C,J6*%
X14570000Y-1330000D03*
D15*
X17110000Y-1330000D03*
X19650000Y-1330000D03*
X22190000Y-1330000D03*
%TD*%
M02*
