%TF.GenerationSoftware,KiCad,Pcbnew,(6.0.8)*%
%TF.CreationDate,2022-10-12T15:16:41+08:00*%
%TF.ProjectId,UINIO-USB-UART,55494e49-4f2d-4555-9342-2d554152542e,Hank*%
%TF.SameCoordinates,Original*%
%TF.FileFunction,Copper,L1,Top*%
%TF.FilePolarity,Positive*%
%FSLAX46Y46*%
G04 Gerber Fmt 4.6, Leading zero omitted, Abs format (unit mm)*
G04 Created by KiCad (PCBNEW (6.0.8)) date 2022-10-12 15:16:41*
%MOMM*%
%LPD*%
G01*
G04 APERTURE LIST*
G04 Aperture macros list*
%AMRoundRect*
0 Rectangle with rounded corners*
0 $1 Rounding radius*
0 $2 $3 $4 $5 $6 $7 $8 $9 X,Y pos of 4 corners*
0 Add a 4 corners polygon primitive as box body*
4,1,4,$2,$3,$4,$5,$6,$7,$8,$9,$2,$3,0*
0 Add four circle primitives for the rounded corners*
1,1,$1+$1,$2,$3*
1,1,$1+$1,$4,$5*
1,1,$1+$1,$6,$7*
1,1,$1+$1,$8,$9*
0 Add four rect primitives between the rounded corners*
20,1,$1+$1,$2,$3,$4,$5,0*
20,1,$1+$1,$4,$5,$6,$7,0*
20,1,$1+$1,$6,$7,$8,$9,0*
20,1,$1+$1,$8,$9,$2,$3,0*%
G04 Aperture macros list end*
%TA.AperFunction,ComponentPad*%
%ADD10C,1.200000*%
%TD*%
%TA.AperFunction,SMDPad,CuDef*%
%ADD11RoundRect,0.250000X-0.375000X-0.625000X0.375000X-0.625000X0.375000X0.625000X-0.375000X0.625000X0*%
%TD*%
%TA.AperFunction,SMDPad,CuDef*%
%ADD12RoundRect,0.225000X-0.225000X-0.250000X0.225000X-0.250000X0.225000X0.250000X-0.225000X0.250000X0*%
%TD*%
%TA.AperFunction,SMDPad,CuDef*%
%ADD13RoundRect,0.218750X0.218750X0.256250X-0.218750X0.256250X-0.218750X-0.256250X0.218750X-0.256250X0*%
%TD*%
%TA.AperFunction,SMDPad,CuDef*%
%ADD14RoundRect,0.200000X-0.200000X-0.275000X0.200000X-0.275000X0.200000X0.275000X-0.200000X0.275000X0*%
%TD*%
%TA.AperFunction,SMDPad,CuDef*%
%ADD15RoundRect,0.250000X0.625000X-0.375000X0.625000X0.375000X-0.625000X0.375000X-0.625000X-0.375000X0*%
%TD*%
%TA.AperFunction,ComponentPad*%
%ADD16O,2.100000X1.000000*%
%TD*%
%TA.AperFunction,ComponentPad*%
%ADD17O,1.900000X1.000000*%
%TD*%
%TA.AperFunction,SMDPad,CuDef*%
%ADD18R,1.150000X0.600000*%
%TD*%
%TA.AperFunction,SMDPad,CuDef*%
%ADD19R,1.150000X0.300000*%
%TD*%
%TA.AperFunction,SMDPad,CuDef*%
%ADD20R,0.905000X0.280000*%
%TD*%
%TA.AperFunction,SMDPad,CuDef*%
%ADD21R,0.280000X0.905000*%
%TD*%
%TA.AperFunction,SMDPad,CuDef*%
%ADD22R,3.350000X3.350000*%
%TD*%
%TA.AperFunction,SMDPad,CuDef*%
%ADD23RoundRect,0.225000X0.225000X0.250000X-0.225000X0.250000X-0.225000X-0.250000X0.225000X-0.250000X0*%
%TD*%
%TA.AperFunction,ComponentPad*%
%ADD24O,1.200000X1.000000*%
%TD*%
%TA.AperFunction,ComponentPad*%
%ADD25R,1.700000X1.700000*%
%TD*%
%TA.AperFunction,ComponentPad*%
%ADD26O,1.700000X1.700000*%
%TD*%
%TA.AperFunction,SMDPad,CuDef*%
%ADD27RoundRect,0.200000X0.200000X0.275000X-0.200000X0.275000X-0.200000X-0.275000X0.200000X-0.275000X0*%
%TD*%
%TA.AperFunction,SMDPad,CuDef*%
%ADD28RoundRect,0.218750X-0.218750X-0.256250X0.218750X-0.256250X0.218750X0.256250X-0.218750X0.256250X0*%
%TD*%
%TA.AperFunction,SMDPad,CuDef*%
%ADD29R,0.250000X0.750000*%
%TD*%
%TA.AperFunction,SMDPad,CuDef*%
%ADD30R,0.750000X0.250000*%
%TD*%
%TA.AperFunction,SMDPad,CuDef*%
%ADD31R,1.700000X1.700000*%
%TD*%
%TA.AperFunction,ViaPad*%
%ADD32C,0.900000*%
%TD*%
%TA.AperFunction,ViaPad*%
%ADD33C,0.700000*%
%TD*%
%TA.AperFunction,ViaPad*%
%ADD34C,0.500000*%
%TD*%
%TA.AperFunction,Conductor*%
%ADD35C,0.500000*%
%TD*%
%TA.AperFunction,Conductor*%
%ADD36C,0.400000*%
%TD*%
%TA.AperFunction,Conductor*%
%ADD37C,0.200000*%
%TD*%
%TA.AperFunction,Conductor*%
%ADD38C,0.300000*%
%TD*%
G04 APERTURE END LIST*
D10*
%TO.P,Hole4,*%
%TO.N,*%
X156280000Y-91650000D03*
%TD*%
D11*
%TO.P,F2,1*%
%TO.N,Net-(F2-Pad1)*%
X188660000Y-107570000D03*
%TO.P,F2,2*%
%TO.N,/CP2102_VDD_5V*%
X191460000Y-107570000D03*
%TD*%
D12*
%TO.P,C2,1*%
%TO.N,/CP2102_VDD_5V*%
X183835000Y-98670000D03*
%TO.P,C2,2*%
%TO.N,GND*%
X185385000Y-98670000D03*
%TD*%
D13*
%TO.P,D2,1,K*%
%TO.N,Net-(D2-Pad1)*%
X172180000Y-97160000D03*
%TO.P,D2,2,A*%
%TO.N,/CP2102_VDD_3.3V*%
X170605000Y-97160000D03*
%TD*%
D14*
%TO.P,R6,1*%
%TO.N,/CH343_TXD*%
X147167500Y-101330002D03*
%TO.P,R6,2*%
%TO.N,Net-(D6-Pad1)*%
X148817500Y-101330002D03*
%TD*%
D15*
%TO.P,F1,1*%
%TO.N,Net-(F1-Pad1)*%
X130812500Y-93820000D03*
%TO.P,F1,2*%
%TO.N,/CH343_VDD_5V*%
X130812500Y-91020000D03*
%TD*%
D14*
%TO.P,R5,1*%
%TO.N,/CH343_RXD*%
X147167500Y-98726668D03*
%TO.P,R5,2*%
%TO.N,Net-(D5-Pad1)*%
X148817500Y-98726668D03*
%TD*%
D16*
%TO.P,USB2,13,GND*%
%TO.N,GND*%
X190478700Y-104345000D03*
%TO.P,USB2,14,GND*%
X190478700Y-95695000D03*
D17*
%TO.P,USB2,15,GND*%
X194678700Y-104345000D03*
%TO.P,USB2,16,GND*%
X194678700Y-95695000D03*
D18*
%TO.P,USB2,A1B12,GND*%
X189716700Y-103220000D03*
%TO.P,USB2,A4B9,VBUS*%
%TO.N,Net-(F2-Pad1)*%
X189716700Y-102420000D03*
D19*
%TO.P,USB2,A5,CC1*%
%TO.N,unconnected-(USB2-PadA5)*%
X189716700Y-101270000D03*
%TO.P,USB2,A6,DP1*%
%TO.N,/CP2102_USB_Data_P*%
X189716700Y-100270000D03*
%TO.P,USB2,A7,DN1*%
%TO.N,/CP2102_USB_Data_N*%
X189716700Y-99770000D03*
%TO.P,USB2,A8,SBU1*%
%TO.N,unconnected-(USB2-PadA8)*%
X189716700Y-98770000D03*
D18*
%TO.P,USB2,B1A12,GND*%
%TO.N,GND*%
X189716700Y-96820000D03*
%TO.P,USB2,B4A9,VBUS*%
%TO.N,Net-(F2-Pad1)*%
X189716700Y-97620000D03*
D19*
%TO.P,USB2,B5,CC2*%
%TO.N,unconnected-(USB2-PadB5)*%
X189716700Y-98270000D03*
%TO.P,USB2,B6,DP2*%
%TO.N,/CP2102_USB_Data_P*%
X189716700Y-99270000D03*
%TO.P,USB2,B7,DN2*%
%TO.N,/CP2102_USB_Data_N*%
X189716700Y-100770000D03*
%TO.P,USB2,B8,SBU2*%
%TO.N,unconnected-(USB2-PadB8)*%
X189716700Y-101770000D03*
%TD*%
D10*
%TO.P,Hole1,*%
%TO.N,*%
X126440000Y-91650000D03*
%TD*%
%TO.P,Hole8,*%
%TO.N,*%
X194840000Y-91790000D03*
%TD*%
D20*
%TO.P,U1,1,DCD*%
%TO.N,/CP2102_DCD*%
X180767000Y-101760000D03*
%TO.P,U1,2,RI*%
%TO.N,/CP2102_RI*%
X180767000Y-101260000D03*
%TO.P,U1,3,GND*%
%TO.N,GND*%
X180767000Y-100760000D03*
%TO.P,U1,4,D+*%
%TO.N,/CP2102_USB_Data_P*%
X180767000Y-100260000D03*
%TO.P,U1,5,D-*%
%TO.N,/CP2102_USB_Data_N*%
X180767000Y-99760000D03*
%TO.P,U1,6,VDD*%
%TO.N,/CP2102_VDD_3.3V*%
X180767000Y-99260000D03*
%TO.P,U1,7,REGIN*%
%TO.N,/CP2102_VDD_5V*%
X180767000Y-98760000D03*
D21*
%TO.P,U1,8,VBUS*%
X179890000Y-97883000D03*
%TO.P,U1,9,\u002ARST*%
%TO.N,/CP2102_RST*%
X179390000Y-97883000D03*
%TO.P,U1,10,NC*%
%TO.N,unconnected-(U1-Pad10)*%
X178890000Y-97883000D03*
%TO.P,U1,11,\u002ASUSPEND*%
%TO.N,/CP2102_\u002ASUSPEND*%
X178390000Y-97883000D03*
%TO.P,U1,12,SUSPEND*%
%TO.N,/CP2102_SUSPEND*%
X177890000Y-97883000D03*
%TO.P,U1,13,NC*%
%TO.N,unconnected-(U1-Pad13)*%
X177390000Y-97883000D03*
%TO.P,U1,14,NC*%
%TO.N,unconnected-(U1-Pad14)*%
X176890000Y-97883000D03*
D20*
%TO.P,U1,15,NC*%
%TO.N,unconnected-(U1-Pad15)*%
X176013000Y-98760000D03*
%TO.P,U1,16,NC*%
%TO.N,unconnected-(U1-Pad16)*%
X176013000Y-99260000D03*
%TO.P,U1,17,NC*%
%TO.N,unconnected-(U1-Pad17)*%
X176013000Y-99760000D03*
%TO.P,U1,18,NC*%
%TO.N,unconnected-(U1-Pad18)*%
X176013000Y-100260000D03*
%TO.P,U1,19,NC*%
%TO.N,unconnected-(U1-Pad19)*%
X176013000Y-100760000D03*
%TO.P,U1,20,NC*%
%TO.N,unconnected-(U1-Pad20)*%
X176013000Y-101260000D03*
%TO.P,U1,21,NC*%
%TO.N,unconnected-(U1-Pad21)*%
X176013000Y-101760000D03*
D21*
%TO.P,U1,22,NC*%
%TO.N,unconnected-(U1-Pad22)*%
X176890000Y-102637000D03*
%TO.P,U1,23,CTS*%
%TO.N,/CP2102_CTS*%
X177390000Y-102637000D03*
%TO.P,U1,24,RTS*%
%TO.N,/CP2102_RTS*%
X177890000Y-102637000D03*
%TO.P,U1,25,RXD*%
%TO.N,/CP2102_RXD*%
X178390000Y-102637000D03*
%TO.P,U1,26,TXD*%
%TO.N,/CP2102_TXD*%
X178890000Y-102637000D03*
%TO.P,U1,27,DSR*%
%TO.N,/CP2102_DSR*%
X179390000Y-102637000D03*
%TO.P,U1,28,DTR*%
%TO.N,/CP2102_DTR*%
X179890000Y-102637000D03*
D22*
%TO.P,U1,29,HEAT_TAB*%
%TO.N,GND*%
X178390000Y-100260000D03*
%TD*%
D14*
%TO.P,R1,1*%
%TO.N,Net-(D1-Pad2)*%
X132777500Y-91430000D03*
%TO.P,R1,2*%
%TO.N,/CH343_VDD_5V*%
X134427500Y-91430000D03*
%TD*%
D13*
%TO.P,D5,1,K*%
%TO.N,Net-(D5-Pad1)*%
X148800000Y-96960000D03*
%TO.P,D5,2,A*%
%TO.N,/CH343_VIO*%
X147225000Y-96960000D03*
%TD*%
D23*
%TO.P,C5,1*%
%TO.N,GND*%
X142065000Y-103980000D03*
%TO.P,C5,2*%
%TO.N,/CH343_VDD_5V*%
X140515000Y-103980000D03*
%TD*%
D24*
%TO.P,SW1,1,1*%
%TO.N,/CH343_VDD_5V*%
X131040000Y-107480000D03*
%TO.P,SW1,2,2*%
%TO.N,/CH343_VIO*%
X133540000Y-107480000D03*
%TO.P,SW1,3,3*%
%TO.N,/CH343_VDD_3.3V*%
X136040000Y-107480000D03*
%TD*%
D10*
%TO.P,Hole3,*%
%TO.N,*%
X156140000Y-108110000D03*
%TD*%
D12*
%TO.P,C7,1*%
%TO.N,/CH343_VIO*%
X140593800Y-96520000D03*
%TO.P,C7,2*%
%TO.N,GND*%
X142143800Y-96520000D03*
%TD*%
D10*
%TO.P,Hole5,*%
%TO.N,*%
X165450000Y-91670000D03*
%TD*%
D25*
%TO.P,J2,1,Pin_1*%
%TO.N,/CP2102_RTS*%
X164640000Y-103820000D03*
D26*
%TO.P,J2,2,Pin_2*%
%TO.N,/CP2102_TXD*%
X164640000Y-101280000D03*
%TO.P,J2,3,Pin_3*%
%TO.N,/CP2102_RXD*%
X164640000Y-98740000D03*
%TO.P,J2,4,Pin_4*%
%TO.N,/CP2102_DTR*%
X164640000Y-96200000D03*
%TD*%
D27*
%TO.P,R4,1*%
%TO.N,Net-(D4-Pad2)*%
X191735000Y-93270000D03*
%TO.P,R4,2*%
%TO.N,/CP2102_VDD_5V*%
X190085000Y-93270000D03*
%TD*%
D12*
%TO.P,C4,1*%
%TO.N,/CP2102_VDD_3.3V*%
X183835000Y-101468000D03*
%TO.P,C4,2*%
%TO.N,GND*%
X185385000Y-101468000D03*
%TD*%
D14*
%TO.P,R3,1*%
%TO.N,/CP2102_TXD*%
X170565000Y-101290000D03*
%TO.P,R3,2*%
%TO.N,Net-(D3-Pad1)*%
X172215000Y-101290000D03*
%TD*%
D10*
%TO.P,Hole2,*%
%TO.N,*%
X126540000Y-108350000D03*
%TD*%
D16*
%TO.P,USB1,13,GND*%
%TO.N,GND*%
X130671500Y-95445000D03*
%TO.P,USB1,14,GND*%
X130671500Y-104095000D03*
D17*
%TO.P,USB1,15,GND*%
X126471500Y-95445000D03*
%TO.P,USB1,16,GND*%
X126471500Y-104095000D03*
D18*
%TO.P,USB1,A1B12,GND*%
X131433500Y-96570000D03*
%TO.P,USB1,A4B9,VBUS*%
%TO.N,Net-(F1-Pad1)*%
X131433500Y-97370000D03*
D19*
%TO.P,USB1,A5,CC1*%
%TO.N,unconnected-(USB1-PadA5)*%
X131433500Y-98520000D03*
%TO.P,USB1,A6,DP1*%
%TO.N,/CH343_USB_Data_P*%
X131433500Y-99520000D03*
%TO.P,USB1,A7,DN1*%
%TO.N,/CH343_USB_Data_N*%
X131433500Y-100020000D03*
%TO.P,USB1,A8,SBU1*%
%TO.N,unconnected-(USB1-PadA8)*%
X131433500Y-101020000D03*
D18*
%TO.P,USB1,B1A12,GND*%
%TO.N,GND*%
X131433500Y-102970000D03*
%TO.P,USB1,B4A9,VBUS*%
%TO.N,Net-(F1-Pad1)*%
X131433500Y-102170000D03*
D19*
%TO.P,USB1,B5,CC2*%
%TO.N,unconnected-(USB1-PadB5)*%
X131433500Y-101520000D03*
%TO.P,USB1,B6,DP2*%
%TO.N,/CH343_USB_Data_P*%
X131433500Y-100520000D03*
%TO.P,USB1,B7,DN2*%
%TO.N,/CH343_USB_Data_N*%
X131433500Y-99020000D03*
%TO.P,USB1,B8,SBU2*%
%TO.N,unconnected-(USB1-PadB8)*%
X131433500Y-98020000D03*
%TD*%
D25*
%TO.P,J5,1,Pin_1*%
%TO.N,/CH343_RTS*%
X156432500Y-103850000D03*
D26*
%TO.P,J5,2,Pin_2*%
%TO.N,/CH343_TXD*%
X156432500Y-101310000D03*
%TO.P,J5,3,Pin_3*%
%TO.N,/CH343_RXD*%
X156432500Y-98770000D03*
%TO.P,J5,4,Pin_4*%
%TO.N,/CH343_DTR*%
X156432500Y-96230000D03*
%TD*%
D13*
%TO.P,D3,1,K*%
%TO.N,Net-(D3-Pad1)*%
X172173500Y-102852000D03*
%TO.P,D3,2,A*%
%TO.N,/CP2102_VDD_3.3V*%
X170598500Y-102852000D03*
%TD*%
%TO.P,D1,1,K*%
%TO.N,GND*%
X134392000Y-93374000D03*
%TO.P,D1,2,A*%
%TO.N,Net-(D1-Pad2)*%
X132817000Y-93374000D03*
%TD*%
%TO.P,D6,1,K*%
%TO.N,Net-(D6-Pad1)*%
X148800000Y-103096668D03*
%TO.P,D6,2,A*%
%TO.N,/CH343_VIO*%
X147225000Y-103096668D03*
%TD*%
D12*
%TO.P,C6,1*%
%TO.N,GND*%
X134797800Y-98590000D03*
%TO.P,C6,2*%
%TO.N,/CH343_VDD_3.3V*%
X136347800Y-98590000D03*
%TD*%
D28*
%TO.P,D4,1,K*%
%TO.N,GND*%
X190132500Y-91670000D03*
%TO.P,D4,2,A*%
%TO.N,Net-(D4-Pad2)*%
X191707500Y-91670000D03*
%TD*%
D10*
%TO.P,Hole7,*%
%TO.N,*%
X194700000Y-108240000D03*
%TD*%
D12*
%TO.P,C3,1*%
%TO.N,/CP2102_VDD_3.3V*%
X183845000Y-103030000D03*
%TO.P,C3,2*%
%TO.N,GND*%
X185395000Y-103030000D03*
%TD*%
%TO.P,C1,1*%
%TO.N,/CP2102_VDD_5V*%
X183835000Y-97150000D03*
%TO.P,C1,2*%
%TO.N,GND*%
X185385000Y-97150000D03*
%TD*%
D14*
%TO.P,R2,1*%
%TO.N,/CP2102_RXD*%
X170570000Y-98720000D03*
%TO.P,R2,2*%
%TO.N,Net-(D2-Pad1)*%
X172220000Y-98720000D03*
%TD*%
D10*
%TO.P,Hole6,*%
%TO.N,*%
X165420000Y-108150000D03*
%TD*%
D29*
%TO.P,U2,1,VIO*%
%TO.N,/CH343_VIO*%
X140560800Y-98560000D03*
%TO.P,U2,2,GND*%
%TO.N,GND*%
X140061800Y-98560000D03*
%TO.P,U2,3,VDD5*%
%TO.N,/CH343_VDD_5V*%
X139560800Y-98560000D03*
%TO.P,U2,4,TXD*%
%TO.N,/CH343_TXD*%
X139061800Y-98560000D03*
D30*
%TO.P,U2,5,RXD*%
%TO.N,/CH343_RXD*%
X138362800Y-99260000D03*
%TO.P,U2,6,V3*%
%TO.N,/CH343_VDD_3.3V*%
X138362800Y-99760000D03*
%TO.P,U2,7,UD+*%
%TO.N,/CH343_USB_Data_P*%
X138362800Y-100260000D03*
%TO.P,U2,8,UD-*%
%TO.N,/CH343_USB_Data_N*%
X138362800Y-100760000D03*
D29*
%TO.P,U2,9,VBUS*%
%TO.N,/CH343_VDD_5V*%
X139062800Y-101460000D03*
%TO.P,U2,10,ACT#*%
%TO.N,/CH343_ACT#*%
X139562800Y-101460000D03*
%TO.P,U2,11,DCD*%
%TO.N,/CH343_DCD*%
X140062800Y-101460000D03*
%TO.P,U2,12,DTRTNOW*%
%TO.N,/CH343_DTR*%
X140561800Y-101460000D03*
D30*
%TO.P,U2,13,RTS*%
%TO.N,/CH343_RTS*%
X141262800Y-100760000D03*
%TO.P,U2,14,DSR*%
%TO.N,/CH343_DSR*%
X141262800Y-100260000D03*
%TO.P,U2,15,CTS*%
%TO.N,/CH343_CTS*%
X141262800Y-99760000D03*
%TO.P,U2,16,RI*%
%TO.N,/CH343_RI*%
X141262800Y-99260000D03*
D31*
%TO.P,U2,17,EP*%
%TO.N,GND*%
X139812800Y-100010000D03*
%TD*%
D25*
%TO.P,J4,1,Pin_1*%
%TO.N,/CH343_VDD_5V*%
X153500000Y-108700000D03*
D26*
%TO.P,J4,2,Pin_2*%
%TO.N,GND*%
X150960000Y-108700000D03*
%TO.P,J4,3,Pin_3*%
%TO.N,/CH343_DSR*%
X148420000Y-108700000D03*
%TO.P,J4,4,Pin_4*%
%TO.N,/CH343_DTR*%
X145880000Y-108700000D03*
%TO.P,J4,5,Pin_5*%
%TO.N,/CH343_DCD*%
X143340000Y-108700000D03*
%TO.P,J4,6,Pin_6*%
%TO.N,/CH343_ACT#*%
X140800000Y-108700000D03*
%TD*%
D25*
%TO.P,J3,1,Pin_1*%
%TO.N,/CP2102_VDD_3.3V*%
X169341000Y-108646000D03*
D26*
%TO.P,J3,2,Pin_2*%
%TO.N,GND*%
X171881000Y-108646000D03*
%TO.P,J3,3,Pin_3*%
%TO.N,/CP2102_CTS*%
X174421000Y-108646000D03*
%TO.P,J3,4,Pin_4*%
%TO.N,/CP2102_RTS*%
X176961000Y-108646000D03*
%TO.P,J3,5,Pin_5*%
%TO.N,/CP2102_RI*%
X179501000Y-108646000D03*
%TO.P,J3,6,Pin_6*%
%TO.N,/CP2102_RXD*%
X182041000Y-108646000D03*
%TO.P,J3,7,Pin_7*%
%TO.N,/CP2102_TXD*%
X184581000Y-108646000D03*
%TD*%
D25*
%TO.P,J1,1,Pin_1*%
%TO.N,/CP2102_VDD_5V*%
X169400000Y-91100000D03*
D26*
%TO.P,J1,2,Pin_2*%
%TO.N,GND*%
X171940000Y-91100000D03*
%TO.P,J1,3,Pin_3*%
%TO.N,/CP2102_DSR*%
X174480000Y-91100000D03*
%TO.P,J1,4,Pin_4*%
%TO.N,/CP2102_DTR*%
X177020000Y-91100000D03*
%TO.P,J1,5,Pin_5*%
%TO.N,/CP2102_DCD*%
X179560000Y-91100000D03*
%TO.P,J1,6,Pin_6*%
%TO.N,/CP2102_RST*%
X182100000Y-91100000D03*
%TO.P,J1,7,Pin_7*%
%TO.N,/CP2102_SUSPEND*%
X184640000Y-91100000D03*
%TO.P,J1,8,Pin_8*%
%TO.N,/CP2102_\u002ASUSPEND*%
X187180000Y-91100000D03*
%TD*%
D25*
%TO.P,J6,1,Pin_1*%
%TO.N,/CH343_VDD_3.3V*%
X153500000Y-91194000D03*
D26*
%TO.P,J6,2,Pin_2*%
%TO.N,GND*%
X150960000Y-91194000D03*
%TO.P,J6,3,Pin_3*%
%TO.N,/CH343_CTS*%
X148420000Y-91194000D03*
%TO.P,J6,4,Pin_4*%
%TO.N,/CH343_RTS*%
X145880000Y-91194000D03*
%TO.P,J6,5,Pin_5*%
%TO.N,/CH343_RI*%
X143340000Y-91194000D03*
%TO.P,J6,6,Pin_6*%
%TO.N,/CH343_RXD*%
X140800000Y-91194000D03*
%TO.P,J6,7,Pin_7*%
%TO.N,/CH343_TXD*%
X138260000Y-91194000D03*
%TD*%
D32*
%TO.N,/CP2102_VDD_5V*%
X178460000Y-93840000D03*
X182760000Y-96090000D03*
X180580000Y-93810000D03*
X186850000Y-107760000D03*
%TO.N,GND*%
X139580000Y-92820000D03*
X133640000Y-95430000D03*
X147160000Y-93480000D03*
X183060000Y-105160000D03*
X142139500Y-94340000D03*
X143809500Y-94340000D03*
X176250000Y-105170000D03*
X142100000Y-105840000D03*
%TO.N,/CH343_VDD_5V*%
X138280000Y-93900000D03*
X139060000Y-103990000D03*
X135720000Y-93640000D03*
X153500000Y-105239500D03*
D33*
%TO.N,/CP2102_VDD_3.3V*%
X183820000Y-104350000D03*
X182650000Y-99190000D03*
X176250000Y-103910000D03*
%TO.N,/CH343_VDD_3.3V*%
X135730000Y-97220000D03*
D34*
%TO.N,/CH343_VIO*%
X148020000Y-95920000D03*
D33*
X137460000Y-97990000D03*
D34*
X148020000Y-104020000D03*
D33*
X140150000Y-95300000D03*
D34*
X143750000Y-100130000D03*
X141400000Y-97770000D03*
D33*
X135720000Y-95400000D03*
D32*
%TO.N,Net-(F1-Pad1)*%
X132670000Y-102200000D03*
X132690000Y-97360000D03*
%TO.N,Net-(F2-Pad1)*%
X188650000Y-105710000D03*
X188280000Y-102440000D03*
X188040000Y-97610000D03*
D34*
%TO.N,/CP2102_DSR*%
X179400000Y-103940500D03*
%TO.N,/CP2102_DTR*%
X175940000Y-96200000D03*
X179900000Y-103410000D03*
X173700000Y-96180000D03*
%TO.N,/CP2102_DCD*%
X180770000Y-103160000D03*
%TO.N,/CP2102_SUSPEND*%
X177880000Y-96060000D03*
%TO.N,/CP2102_\u002ASUSPEND*%
X178380000Y-97070000D03*
%TO.N,/CP2102_TXD*%
X169230000Y-101280000D03*
%TO.N,/CP2102_RXD*%
X178390000Y-105940000D03*
X169210000Y-98740000D03*
%TO.N,/CH343_DTR*%
X151170000Y-102360000D03*
X147470000Y-106510000D03*
%TO.N,/CH343_TXD*%
X141490000Y-93480000D03*
X145030000Y-99520000D03*
X140350500Y-93440000D03*
%TO.N,/CH343_RXD*%
X145430500Y-98720000D03*
X138360000Y-98640000D03*
%TO.N,/CH343_RTS*%
X144670000Y-103670000D03*
%TO.N,/CP2102_RI*%
X181300000Y-106859500D03*
%TO.N,/CP2102_USB_Data_P*%
X188115000Y-100235000D03*
X188120000Y-99270000D03*
%TO.N,/CH343_USB_Data_N*%
X134100000Y-99835500D03*
X134100000Y-100740000D03*
%TD*%
D35*
%TO.N,/CP2102_VDD_5V*%
X186850000Y-108680000D02*
X187190000Y-109020000D01*
X183835000Y-97150000D02*
X181450000Y-97150000D01*
X183835000Y-98670000D02*
X183835000Y-97150000D01*
X186850000Y-107760000D02*
X186850000Y-108680000D01*
X185920000Y-93270000D02*
X190085000Y-93270000D01*
X183835000Y-97150000D02*
X183835000Y-95355000D01*
X172140000Y-93840000D02*
X178460000Y-93840000D01*
X183835000Y-95355000D02*
X185920000Y-93270000D01*
X191460000Y-108740000D02*
X191460000Y-107570000D01*
X180580000Y-93810000D02*
X180580000Y-93910000D01*
X169400000Y-91100000D02*
X172140000Y-93840000D01*
X180580000Y-93910000D02*
X182760000Y-96090000D01*
X179890000Y-97883000D02*
X180717000Y-97883000D01*
X183820000Y-97150000D02*
X182760000Y-96090000D01*
X181450000Y-97150000D02*
X180767000Y-97833000D01*
X180717000Y-97883000D02*
X180767000Y-97833000D01*
X187190000Y-109020000D02*
X191180000Y-109020000D01*
X191180000Y-109020000D02*
X191460000Y-108740000D01*
X180767000Y-97833000D02*
X180767000Y-98760000D01*
%TO.N,GND*%
X134392000Y-93688000D02*
X134392000Y-93374000D01*
D36*
X142065000Y-103980000D02*
X142070000Y-103985000D01*
D37*
X180767000Y-100760000D02*
X178890000Y-100760000D01*
D35*
X185385000Y-96405000D02*
X186095000Y-95695000D01*
X190478700Y-103982000D02*
X189716700Y-103220000D01*
X183060000Y-105160000D02*
X182400000Y-104500000D01*
X130671500Y-103732000D02*
X131433500Y-102970000D01*
X189373700Y-103240000D02*
X190478700Y-104345000D01*
X142139500Y-94340000D02*
X142143800Y-94344300D01*
X190478700Y-104345000D02*
X194678700Y-104345000D01*
D36*
X139470000Y-94340000D02*
X138910000Y-94900000D01*
D35*
X142139500Y-92829500D02*
X142130000Y-92820000D01*
X185385000Y-97150000D02*
X185385000Y-98670000D01*
X193270000Y-90990000D02*
X193270000Y-91830000D01*
X190478700Y-95695000D02*
X190478700Y-96058000D01*
X193270000Y-91830000D02*
X193270000Y-95600000D01*
X185395000Y-104285000D02*
X185395000Y-103030000D01*
X185605000Y-103240000D02*
X189373700Y-103240000D01*
X133640000Y-95430000D02*
X133640000Y-98020000D01*
D36*
X142139500Y-94340000D02*
X139470000Y-94340000D01*
D35*
X192750000Y-90470000D02*
X193270000Y-90990000D01*
X190478700Y-96058000D02*
X189716700Y-96820000D01*
D36*
X138910000Y-96480000D02*
X140061800Y-97631800D01*
D35*
X134210000Y-98590000D02*
X134797800Y-98590000D01*
X194678700Y-95695000D02*
X194678700Y-104345000D01*
X130671500Y-95808000D02*
X131433500Y-96570000D01*
X144669500Y-93480000D02*
X147160000Y-93480000D01*
X193365000Y-95695000D02*
X194678700Y-95695000D01*
X142100000Y-105840000D02*
X142070000Y-105810000D01*
X190478700Y-104345000D02*
X190478700Y-103982000D01*
X193270000Y-95600000D02*
X193365000Y-95695000D01*
X182400000Y-101472000D02*
X181688000Y-100760000D01*
X184520000Y-105160000D02*
X185395000Y-104285000D01*
X190620000Y-90470000D02*
X192750000Y-90470000D01*
X190132500Y-90957500D02*
X190620000Y-90470000D01*
X142070000Y-105810000D02*
X142070000Y-103985000D01*
X133640000Y-95430000D02*
X133640000Y-94440000D01*
D36*
X140061800Y-97631800D02*
X140061800Y-98560000D01*
D35*
X185395000Y-103030000D02*
X185395000Y-101478000D01*
X183060000Y-105160000D02*
X184520000Y-105160000D01*
X143809500Y-94340000D02*
X144669500Y-93480000D01*
X126471500Y-95445000D02*
X130671500Y-95445000D01*
X185395000Y-103030000D02*
X185605000Y-103240000D01*
D36*
X138910000Y-94900000D02*
X138910000Y-96480000D01*
D35*
X175357000Y-105170000D02*
X171881000Y-108646000D01*
D37*
X140061800Y-99761000D02*
X139812800Y-100010000D01*
D35*
X133640000Y-98020000D02*
X134210000Y-98590000D01*
X185395000Y-101478000D02*
X185385000Y-101468000D01*
D37*
X178890000Y-100760000D02*
X178390000Y-100260000D01*
D35*
X142143800Y-94344300D02*
X142143800Y-96520000D01*
X185385000Y-97150000D02*
X185385000Y-96405000D01*
X182400000Y-104500000D02*
X182400000Y-101472000D01*
X126471500Y-104095000D02*
X130671500Y-104095000D01*
X190478700Y-95695000D02*
X193365000Y-95695000D01*
X126471500Y-95445000D02*
X126471500Y-104095000D01*
X130671500Y-95445000D02*
X130671500Y-95808000D01*
X186095000Y-95695000D02*
X190478700Y-95695000D01*
X142139500Y-94340000D02*
X142139500Y-92829500D01*
X176250000Y-105170000D02*
X175357000Y-105170000D01*
X181688000Y-100760000D02*
X180767000Y-100760000D01*
X133640000Y-94440000D02*
X134392000Y-93688000D01*
X130671500Y-104095000D02*
X130671500Y-103732000D01*
D37*
X140061800Y-98560000D02*
X140061800Y-99761000D01*
D35*
X190132500Y-91670000D02*
X190132500Y-90957500D01*
X142130000Y-92820000D02*
X139580000Y-92820000D01*
%TO.N,/CH343_VDD_5V*%
X131227500Y-90605000D02*
X133602500Y-90605000D01*
X131040000Y-106110000D02*
X133110000Y-104040000D01*
X139060000Y-103990000D02*
X139060000Y-104040000D01*
D36*
X138280000Y-93900000D02*
X138270000Y-93910000D01*
D35*
X139060000Y-104040000D02*
X140455000Y-104040000D01*
X131040000Y-107480000D02*
X131040000Y-106110000D01*
X153500000Y-105239500D02*
X153500000Y-108700000D01*
D36*
X139560800Y-97990800D02*
X139560800Y-98560000D01*
D35*
X139062800Y-103987200D02*
X139060000Y-103990000D01*
X133110000Y-104040000D02*
X139060000Y-104040000D01*
X135720000Y-92722500D02*
X134427500Y-91430000D01*
X133602500Y-90605000D02*
X134427500Y-91430000D01*
X139062800Y-101460000D02*
X139062800Y-103987200D01*
D36*
X138270000Y-93910000D02*
X138270000Y-96700000D01*
X138270000Y-96700000D02*
X139560800Y-97990800D01*
D35*
X130812500Y-91020000D02*
X131227500Y-90605000D01*
X135720000Y-93640000D02*
X135720000Y-92722500D01*
D38*
%TO.N,/CP2102_VDD_3.3V*%
X171410000Y-102040500D02*
X170598500Y-102852000D01*
X173290000Y-99970000D02*
X171410000Y-99970000D01*
X171410000Y-99970000D02*
X171410000Y-102040500D01*
X170605000Y-97160000D02*
X171410000Y-97965000D01*
X183845000Y-104325000D02*
X183845000Y-103030000D01*
X182580000Y-99260000D02*
X180767000Y-99260000D01*
X169888000Y-102852000D02*
X170598500Y-102852000D01*
X173930000Y-100610000D02*
X173290000Y-99970000D01*
X169341000Y-103399000D02*
X169888000Y-102852000D01*
X175350000Y-103910000D02*
X173930000Y-102490000D01*
X173930000Y-102490000D02*
X173930000Y-100610000D01*
X182650000Y-99190000D02*
X182580000Y-99260000D01*
X176250000Y-103910000D02*
X175350000Y-103910000D01*
X171410000Y-97965000D02*
X171410000Y-99970000D01*
X183820000Y-104350000D02*
X183845000Y-104325000D01*
X169341000Y-108646000D02*
X169341000Y-103399000D01*
X183845000Y-103030000D02*
X183845000Y-101478000D01*
%TO.N,/CH343_VDD_3.3V*%
X136009950Y-94340000D02*
X136500000Y-93849950D01*
X138362800Y-99760000D02*
X137517800Y-99760000D01*
X136500000Y-91000000D02*
X137406000Y-90094000D01*
X135260000Y-94340000D02*
X136009950Y-94340000D01*
X136090000Y-97580000D02*
X136090000Y-98332200D01*
X137517800Y-99760000D02*
X136347800Y-98590000D01*
X136500000Y-93849950D02*
X136500000Y-91000000D01*
X152400000Y-90094000D02*
X153500000Y-91194000D01*
X134870000Y-96960000D02*
X134870000Y-94730000D01*
X135730000Y-97220000D02*
X136090000Y-97580000D01*
X135130000Y-97220000D02*
X134870000Y-96960000D01*
X137406000Y-90094000D02*
X152400000Y-90094000D01*
X134870000Y-94730000D02*
X135260000Y-94340000D01*
X135730000Y-97220000D02*
X135130000Y-97220000D01*
D35*
%TO.N,Net-(D1-Pad2)*%
X132777500Y-91430000D02*
X132777500Y-93334500D01*
X132777500Y-93334500D02*
X132817000Y-93374000D01*
D37*
%TO.N,Net-(D2-Pad1)*%
X172220000Y-98720000D02*
X172220000Y-97200000D01*
%TO.N,Net-(D3-Pad1)*%
X172173500Y-102852000D02*
X172173500Y-101331500D01*
D35*
%TO.N,Net-(D4-Pad2)*%
X191735000Y-93270000D02*
X191735000Y-91697500D01*
D37*
%TO.N,Net-(D5-Pad1)*%
X148800000Y-96960000D02*
X148800000Y-98709168D01*
%TO.N,/CH343_VIO*%
X143750000Y-100130000D02*
X143750000Y-99250000D01*
X143750000Y-100920000D02*
X145926668Y-103096668D01*
X148020000Y-95920000D02*
X147225000Y-96715000D01*
D38*
X141170000Y-96520000D02*
X140593800Y-96520000D01*
D37*
X146040000Y-96960000D02*
X147225000Y-96960000D01*
D38*
X140593800Y-95743800D02*
X140593800Y-96520000D01*
D37*
X148020000Y-104020000D02*
X147995000Y-104020000D01*
D38*
X141400000Y-97770000D02*
X141400000Y-96750000D01*
D37*
X147320000Y-103345000D02*
X147225000Y-103345000D01*
D38*
X140150000Y-95300000D02*
X140593800Y-95743800D01*
X135720000Y-96250000D02*
X137460000Y-97990000D01*
D37*
X143750000Y-100130000D02*
X143750000Y-100920000D01*
X147995000Y-104020000D02*
X147320000Y-103345000D01*
X143750000Y-99250000D02*
X146040000Y-96960000D01*
D38*
X141400000Y-96750000D02*
X141170000Y-96520000D01*
X140560800Y-98560000D02*
X140560800Y-96553000D01*
X135720000Y-95400000D02*
X135720000Y-96250000D01*
D37*
X145926668Y-103096668D02*
X147225000Y-103096668D01*
%TO.N,Net-(D6-Pad1)*%
X148817500Y-101330002D02*
X148817500Y-103079168D01*
D35*
%TO.N,Net-(F1-Pad1)*%
X132700000Y-94730000D02*
X131790000Y-93820000D01*
X132680000Y-97370000D02*
X132700000Y-97350000D01*
X131433500Y-97370000D02*
X132680000Y-97370000D01*
X132640000Y-102170000D02*
X132670000Y-102200000D01*
X132700000Y-97350000D02*
X132700000Y-94730000D01*
X131433500Y-102170000D02*
X132640000Y-102170000D01*
X131790000Y-93820000D02*
X130812500Y-93820000D01*
%TO.N,Net-(F2-Pad1)*%
X188040000Y-97610000D02*
X189706700Y-97610000D01*
X189706700Y-97610000D02*
X189716700Y-97620000D01*
X188660000Y-105720000D02*
X188650000Y-105710000D01*
X188660000Y-107570000D02*
X188660000Y-105720000D01*
X188280000Y-102440000D02*
X189696700Y-102440000D01*
X189696700Y-102440000D02*
X189716700Y-102420000D01*
D37*
%TO.N,/CP2102_DSR*%
X179400000Y-103940500D02*
X179390000Y-103930500D01*
X179390000Y-103930500D02*
X179390000Y-102637000D01*
%TO.N,/CP2102_DTR*%
X175920000Y-96180000D02*
X175940000Y-96200000D01*
X179900000Y-103410000D02*
X179900000Y-102647000D01*
X173700000Y-96180000D02*
X175920000Y-96180000D01*
%TO.N,/CP2102_DCD*%
X180770000Y-103160000D02*
X180767000Y-103157000D01*
X180767000Y-103157000D02*
X180767000Y-101760000D01*
%TO.N,/CP2102_SUSPEND*%
X177880000Y-96060000D02*
X177890000Y-96070000D01*
X177890000Y-96070000D02*
X177890000Y-97883000D01*
%TO.N,/CP2102_\u002ASUSPEND*%
X178390000Y-97883000D02*
X178390000Y-97080000D01*
X178390000Y-97080000D02*
X178380000Y-97070000D01*
%TO.N,/CP2102_TXD*%
X183320000Y-107360000D02*
X184581000Y-108621000D01*
X178890000Y-102637000D02*
X178890000Y-105500000D01*
X169230000Y-101280000D02*
X170555000Y-101280000D01*
X164640000Y-101280000D02*
X169230000Y-101280000D01*
X178890000Y-105500000D02*
X180750000Y-107360000D01*
X180750000Y-107360000D02*
X183320000Y-107360000D01*
%TO.N,/CP2102_RXD*%
X169210000Y-98740000D02*
X164640000Y-98740000D01*
X181096000Y-108646000D02*
X182041000Y-108646000D01*
X170550000Y-98740000D02*
X169210000Y-98740000D01*
X178390000Y-105940000D02*
X181096000Y-108646000D01*
X178390000Y-102637000D02*
X178390000Y-105940000D01*
%TO.N,/CP2102_RTS*%
X177890000Y-102637000D02*
X177890000Y-107717000D01*
X177890000Y-107717000D02*
X176961000Y-108646000D01*
%TO.N,/CP2102_CTS*%
X175274000Y-108646000D02*
X174421000Y-108646000D01*
X177390000Y-106530000D02*
X175274000Y-108646000D01*
X177390000Y-102637000D02*
X177390000Y-106530000D01*
%TO.N,/CH343_DSR*%
X142210000Y-100260000D02*
X145320000Y-103370000D01*
X141262800Y-100260000D02*
X142210000Y-100260000D01*
X145320000Y-105150000D02*
X148420000Y-108250000D01*
X145320000Y-103370000D02*
X145320000Y-105150000D01*
%TO.N,/CH343_DTR*%
X151170000Y-104150000D02*
X151170000Y-102360000D01*
X144370000Y-104310000D02*
X144370000Y-107200000D01*
X148810000Y-106510000D02*
X151170000Y-104150000D01*
X141520000Y-101460000D02*
X144370000Y-104310000D01*
X144370000Y-107200000D02*
X145870000Y-108700000D01*
X140561800Y-101460000D02*
X141520000Y-101460000D01*
X147470000Y-106510000D02*
X148810000Y-106510000D01*
%TO.N,/CH343_DCD*%
X140062800Y-101861000D02*
X140361800Y-102160000D01*
X140062800Y-101460000D02*
X140062800Y-101861000D01*
X143340000Y-104178959D02*
X143340000Y-108700000D01*
X141320000Y-102160000D02*
X142465000Y-103305000D01*
X140361800Y-102160000D02*
X141320000Y-102160000D01*
X142465000Y-103305000D02*
X142466041Y-103305000D01*
X142466041Y-103305000D02*
X143340000Y-104178959D01*
%TO.N,/CH343_ACT#*%
X139562800Y-101892800D02*
X141310000Y-103640000D01*
X141310000Y-103640000D02*
X141310000Y-108190000D01*
X139562800Y-101460000D02*
X139562800Y-101892800D01*
%TO.N,/CH343_TXD*%
X146840002Y-101330002D02*
X145030000Y-99520000D01*
X155482500Y-100360000D02*
X156432500Y-101310000D01*
X141490000Y-93480000D02*
X141450000Y-93440000D01*
X141450000Y-93440000D02*
X140350500Y-93440000D01*
X139061800Y-98560000D02*
X137290000Y-96788200D01*
X137290000Y-92204000D02*
X138280000Y-91214000D01*
X147167500Y-101330002D02*
X148137502Y-100360000D01*
X148137502Y-100360000D02*
X155482500Y-100360000D01*
X147167500Y-101330002D02*
X146840002Y-101330002D01*
X137290000Y-96788200D02*
X137290000Y-92204000D01*
%TO.N,/CH343_RXD*%
X147167500Y-98726668D02*
X148180832Y-99740000D01*
X148180832Y-99740000D02*
X155462500Y-99740000D01*
X138360000Y-98640000D02*
X138362800Y-98642800D01*
X145437168Y-98726668D02*
X147167500Y-98726668D01*
X145430500Y-98720000D02*
X145437168Y-98726668D01*
X138362800Y-98642800D02*
X138362800Y-99260000D01*
X155462500Y-99740000D02*
X156432500Y-98770000D01*
%TO.N,/CH343_RTS*%
X141760000Y-100760000D02*
X141262800Y-100760000D01*
X144670000Y-103670000D02*
X141760000Y-100760000D01*
%TO.N,/CH343_CTS*%
X148420000Y-93440000D02*
X148420000Y-91194000D01*
X141262800Y-99760000D02*
X142100000Y-99760000D01*
X142100000Y-99760000D02*
X148420000Y-93440000D01*
%TO.N,/CP2102_RI*%
X181259500Y-101260000D02*
X180767000Y-101260000D01*
X181300000Y-106859500D02*
X181300000Y-104440000D01*
X181750000Y-101750500D02*
X181259500Y-101260000D01*
X181300000Y-104440000D02*
X181750000Y-103990000D01*
X181750000Y-103990000D02*
X181750000Y-101750500D01*
%TO.N,/CP2102_USB_Data_P*%
X181470751Y-100235000D02*
X188115000Y-100235000D01*
X181445751Y-100260000D02*
X181470751Y-100235000D01*
X189716700Y-99270000D02*
X188120000Y-99270000D01*
X180767000Y-100260000D02*
X181445751Y-100260000D01*
X188115000Y-100235000D02*
X189910000Y-100235000D01*
%TO.N,/CP2102_USB_Data_N*%
X190340000Y-99770000D02*
X189716700Y-99770000D01*
X190491700Y-100620000D02*
X190491700Y-99921700D01*
X180767000Y-99760000D02*
X181445751Y-99760000D01*
X190341700Y-100770000D02*
X190491700Y-100620000D01*
X189716700Y-100770000D02*
X190341700Y-100770000D01*
X190491700Y-99921700D02*
X190340000Y-99770000D01*
X181445751Y-99760000D02*
X181470751Y-99785000D01*
X181470751Y-99785000D02*
X189910000Y-99785000D01*
%TO.N,/CP2102_RST*%
X179390000Y-97883000D02*
X179390000Y-93810000D01*
X179390000Y-93810000D02*
X182100000Y-91100000D01*
%TO.N,/CH343_USB_Data_P*%
X131433500Y-100520000D02*
X130650000Y-100520000D01*
X137800299Y-100260000D02*
X138362800Y-100260000D01*
X137775299Y-100285000D02*
X137800299Y-100260000D01*
X133603200Y-100285000D02*
X137775299Y-100285000D01*
X130440000Y-100310000D02*
X130440000Y-99750000D01*
X130440000Y-99750000D02*
X130670000Y-99520000D01*
X132296001Y-99520000D02*
X132321001Y-99545000D01*
X130670000Y-99520000D02*
X131433500Y-99520000D01*
X131433500Y-99520000D02*
X132296001Y-99520000D01*
X132321001Y-99545000D02*
X132863200Y-99545000D01*
X132863200Y-99545000D02*
X133603200Y-100285000D01*
X130650000Y-100520000D02*
X130440000Y-100310000D01*
%TO.N,/CH343_USB_Data_N*%
X137775299Y-100735000D02*
X137800299Y-100760000D01*
X132296001Y-100020000D02*
X131433500Y-100020000D01*
X133284500Y-99020000D02*
X131433500Y-99020000D01*
X134105000Y-100735000D02*
X137775299Y-100735000D01*
X133421800Y-100740000D02*
X132676800Y-99995000D01*
X134100000Y-100740000D02*
X134105000Y-100735000D01*
X132676800Y-99995000D02*
X132321001Y-99995000D01*
X134100000Y-99835500D02*
X133284500Y-99020000D01*
X134100000Y-100740000D02*
X133421800Y-100740000D01*
X137800299Y-100760000D02*
X138362800Y-100760000D01*
X132321001Y-99995000D02*
X132296001Y-100020000D01*
%TO.N,/CH343_RI*%
X143160000Y-91374000D02*
X143340000Y-91194000D01*
X141450000Y-99260000D02*
X143160000Y-97550000D01*
X143160000Y-97550000D02*
X143160000Y-91374000D01*
%TD*%
%TA.AperFunction,Conductor*%
%TO.N,/CP2102_RXD*%
G36*
X167983621Y-90188502D02*
G01*
X168030114Y-90242158D01*
X168041500Y-90294500D01*
X168041500Y-91998134D01*
X168048255Y-92060316D01*
X168051028Y-92067713D01*
X168064181Y-92102799D01*
X168099385Y-92196705D01*
X168186739Y-92313261D01*
X168303295Y-92400615D01*
X168439684Y-92451745D01*
X168501866Y-92458500D01*
X169633629Y-92458500D01*
X169701750Y-92478502D01*
X169722724Y-92495405D01*
X171556230Y-94328911D01*
X171568616Y-94343323D01*
X171577149Y-94354918D01*
X171577154Y-94354923D01*
X171581492Y-94360818D01*
X171587070Y-94365557D01*
X171587073Y-94365560D01*
X171621768Y-94395035D01*
X171629284Y-94401965D01*
X171634979Y-94407660D01*
X171637861Y-94409940D01*
X171657251Y-94425281D01*
X171660655Y-94428072D01*
X171710703Y-94470591D01*
X171716285Y-94475333D01*
X171722801Y-94478661D01*
X171727850Y-94482028D01*
X171732979Y-94485195D01*
X171738716Y-94489734D01*
X171804875Y-94520655D01*
X171808769Y-94522558D01*
X171873808Y-94555769D01*
X171880916Y-94557508D01*
X171886559Y-94559607D01*
X171892322Y-94561524D01*
X171898950Y-94564622D01*
X171906112Y-94566112D01*
X171906113Y-94566112D01*
X171970412Y-94579486D01*
X171974696Y-94580456D01*
X172045610Y-94597808D01*
X172051212Y-94598156D01*
X172051215Y-94598156D01*
X172056764Y-94598500D01*
X172056762Y-94598536D01*
X172060755Y-94598775D01*
X172064947Y-94599149D01*
X172072115Y-94600640D01*
X172149520Y-94598546D01*
X172152928Y-94598500D01*
X177825919Y-94598500D01*
X177894040Y-94618502D01*
X177901069Y-94623715D01*
X177905630Y-94626885D01*
X177910324Y-94630880D01*
X178074409Y-94722584D01*
X178253180Y-94780670D01*
X178439830Y-94802927D01*
X178445965Y-94802455D01*
X178445967Y-94802455D01*
X178621103Y-94788979D01*
X178621105Y-94788979D01*
X178627247Y-94788506D01*
X178633187Y-94786848D01*
X178633615Y-94786772D01*
X178704175Y-94794638D01*
X178759280Y-94839403D01*
X178781500Y-94910857D01*
X178781500Y-95631858D01*
X178761498Y-95699979D01*
X178707842Y-95746472D01*
X178637568Y-95756576D01*
X178572988Y-95727082D01*
X178548646Y-95698628D01*
X178530246Y-95669181D01*
X178478192Y-95585879D01*
X178358286Y-95465132D01*
X178345123Y-95456778D01*
X178282001Y-95416720D01*
X178214608Y-95373951D01*
X178054300Y-95316868D01*
X177885329Y-95296720D01*
X177878326Y-95297456D01*
X177878325Y-95297456D01*
X177723101Y-95313770D01*
X177723097Y-95313771D01*
X177716093Y-95314507D01*
X177709422Y-95316778D01*
X177561673Y-95367075D01*
X177561670Y-95367076D01*
X177555003Y-95369346D01*
X177549005Y-95373036D01*
X177549003Y-95373037D01*
X177416065Y-95454821D01*
X177416063Y-95454823D01*
X177410066Y-95458512D01*
X177355869Y-95511586D01*
X177314191Y-95552401D01*
X177288486Y-95577573D01*
X177284675Y-95583487D01*
X177284673Y-95583489D01*
X177209600Y-95699979D01*
X177196304Y-95720610D01*
X177138103Y-95880516D01*
X177116775Y-96049343D01*
X177133381Y-96218699D01*
X177135605Y-96225384D01*
X177135605Y-96225385D01*
X177146148Y-96257079D01*
X177187094Y-96380167D01*
X177263277Y-96505959D01*
X177281500Y-96571229D01*
X177281500Y-96800296D01*
X177261498Y-96868417D01*
X177207842Y-96914910D01*
X177169111Y-96925558D01*
X177153605Y-96927243D01*
X177126395Y-96927243D01*
X177078134Y-96922000D01*
X176701866Y-96922000D01*
X176639684Y-96928755D01*
X176632288Y-96931527D01*
X176632282Y-96931529D01*
X176616302Y-96937520D01*
X176545495Y-96942703D01*
X176483126Y-96908782D01*
X176448997Y-96846526D01*
X176453944Y-96775702D01*
X176485181Y-96728292D01*
X176488589Y-96725047D01*
X176524721Y-96690639D01*
X176540737Y-96666534D01*
X176612593Y-96558381D01*
X176618891Y-96548902D01*
X176679319Y-96389825D01*
X176680431Y-96381916D01*
X176682616Y-96366368D01*
X176703001Y-96221313D01*
X176703299Y-96200000D01*
X176684331Y-96030892D01*
X176628368Y-95870189D01*
X176538192Y-95725879D01*
X176512473Y-95699979D01*
X176423248Y-95610129D01*
X176418286Y-95605132D01*
X176405230Y-95596846D01*
X176333763Y-95551492D01*
X176274608Y-95513951D01*
X176114300Y-95456868D01*
X175945329Y-95436720D01*
X175938326Y-95437456D01*
X175938325Y-95437456D01*
X175783101Y-95453770D01*
X175783097Y-95453771D01*
X175776093Y-95454507D01*
X175769422Y-95456778D01*
X175621673Y-95507075D01*
X175621670Y-95507076D01*
X175615003Y-95509346D01*
X175609005Y-95513036D01*
X175609003Y-95513037D01*
X175544340Y-95552818D01*
X175478318Y-95571500D01*
X174193411Y-95571500D01*
X174125897Y-95551885D01*
X174040562Y-95497729D01*
X174040558Y-95497727D01*
X174034608Y-95493951D01*
X173874300Y-95436868D01*
X173705329Y-95416720D01*
X173698326Y-95417456D01*
X173698325Y-95417456D01*
X173543101Y-95433770D01*
X173543097Y-95433771D01*
X173536093Y-95434507D01*
X173529422Y-95436778D01*
X173381673Y-95487075D01*
X173381670Y-95487076D01*
X173375003Y-95489346D01*
X173369005Y-95493036D01*
X173369003Y-95493037D01*
X173236065Y-95574821D01*
X173236063Y-95574823D01*
X173230066Y-95578512D01*
X173222543Y-95585879D01*
X173132165Y-95674385D01*
X173108486Y-95697573D01*
X173104675Y-95703487D01*
X173104673Y-95703489D01*
X173024447Y-95827974D01*
X173016304Y-95840610D01*
X172993984Y-95901935D01*
X172965103Y-95981285D01*
X172958103Y-96000516D01*
X172936775Y-96169343D01*
X172934235Y-96169022D01*
X172916761Y-96225570D01*
X172862455Y-96271302D01*
X172792046Y-96280413D01*
X172745620Y-96263221D01*
X172714429Y-96243995D01*
X172714426Y-96243993D01*
X172708192Y-96240151D01*
X172701243Y-96237846D01*
X172553762Y-96188928D01*
X172553760Y-96188928D01*
X172547231Y-96186762D01*
X172447072Y-96176500D01*
X171912928Y-96176500D01*
X171909682Y-96176837D01*
X171909678Y-96176837D01*
X171875897Y-96180342D01*
X171811518Y-96187022D01*
X171650651Y-96240692D01*
X171506445Y-96329929D01*
X171481613Y-96354805D01*
X171419332Y-96388884D01*
X171348512Y-96383882D01*
X171303422Y-96354960D01*
X171282733Y-96334307D01*
X171277553Y-96329136D01*
X171265594Y-96321764D01*
X171212547Y-96289066D01*
X171133192Y-96240151D01*
X171126243Y-96237846D01*
X170978762Y-96188928D01*
X170978760Y-96188928D01*
X170972231Y-96186762D01*
X170872072Y-96176500D01*
X170337928Y-96176500D01*
X170334682Y-96176837D01*
X170334678Y-96176837D01*
X170300897Y-96180342D01*
X170236518Y-96187022D01*
X170075651Y-96240692D01*
X169931445Y-96329929D01*
X169926277Y-96335106D01*
X169926276Y-96335107D01*
X169923306Y-96338082D01*
X169811636Y-96449947D01*
X169807796Y-96456177D01*
X169807795Y-96456178D01*
X169792652Y-96480745D01*
X169722651Y-96594308D01*
X169720346Y-96601256D01*
X169720346Y-96601257D01*
X169688321Y-96697810D01*
X169669262Y-96755269D01*
X169659000Y-96855428D01*
X169659000Y-97464572D01*
X169669522Y-97565982D01*
X169723192Y-97726849D01*
X169727042Y-97733070D01*
X169727045Y-97733077D01*
X169811326Y-97869274D01*
X169830164Y-97937726D01*
X169809003Y-98005496D01*
X169805407Y-98010462D01*
X169723921Y-98145012D01*
X169717715Y-98158757D01*
X169670744Y-98308644D01*
X169668131Y-98321694D01*
X169662266Y-98385521D01*
X169662000Y-98391309D01*
X169662000Y-98447885D01*
X169666475Y-98463124D01*
X169667865Y-98464329D01*
X169675548Y-98466000D01*
X170625500Y-98466000D01*
X170693621Y-98486002D01*
X170740114Y-98539658D01*
X170751500Y-98592000D01*
X170751500Y-99895845D01*
X170749268Y-99919454D01*
X170747576Y-99928324D01*
X170749530Y-99959378D01*
X170751251Y-99986735D01*
X170751500Y-99994647D01*
X170751500Y-100180500D01*
X170731498Y-100248621D01*
X170677842Y-100295114D01*
X170625500Y-100306500D01*
X170318279Y-100306501D01*
X170308366Y-100306501D01*
X170305508Y-100306764D01*
X170305499Y-100306764D01*
X170269996Y-100310026D01*
X170234938Y-100313247D01*
X170228560Y-100315246D01*
X170228559Y-100315246D01*
X170078550Y-100362256D01*
X170078548Y-100362257D01*
X170071301Y-100364528D01*
X169924619Y-100453361D01*
X169803361Y-100574619D01*
X169795272Y-100587976D01*
X169742877Y-100635883D01*
X169672897Y-100647859D01*
X169619981Y-100629092D01*
X169570562Y-100597729D01*
X169570558Y-100597727D01*
X169564608Y-100593951D01*
X169404300Y-100536868D01*
X169235329Y-100516720D01*
X169228326Y-100517456D01*
X169228325Y-100517456D01*
X169073101Y-100533770D01*
X169073097Y-100533771D01*
X169066093Y-100534507D01*
X169059422Y-100536778D01*
X168911673Y-100587075D01*
X168911670Y-100587076D01*
X168905003Y-100589346D01*
X168899005Y-100593036D01*
X168899003Y-100593037D01*
X168801831Y-100652818D01*
X168735809Y-100671500D01*
X165932978Y-100671500D01*
X165864857Y-100651498D01*
X165827186Y-100613940D01*
X165825810Y-100611812D01*
X165775322Y-100533770D01*
X165722822Y-100452617D01*
X165722820Y-100452614D01*
X165720014Y-100448277D01*
X165569670Y-100283051D01*
X165565619Y-100279852D01*
X165565615Y-100279848D01*
X165398414Y-100147800D01*
X165398410Y-100147798D01*
X165394359Y-100144598D01*
X165352569Y-100121529D01*
X165302598Y-100071097D01*
X165287826Y-100001654D01*
X165312942Y-99935248D01*
X165340294Y-99908641D01*
X165515328Y-99783792D01*
X165523200Y-99777139D01*
X165674052Y-99626812D01*
X165680730Y-99618965D01*
X165805003Y-99446020D01*
X165810313Y-99437183D01*
X165904670Y-99246267D01*
X165908469Y-99236672D01*
X165965578Y-99048705D01*
X169662001Y-99048705D01*
X169662264Y-99054454D01*
X169668132Y-99118315D01*
X169670743Y-99131351D01*
X169717715Y-99281243D01*
X169723921Y-99294988D01*
X169804824Y-99428574D01*
X169814131Y-99440443D01*
X169924557Y-99550869D01*
X169936426Y-99560176D01*
X170070012Y-99641079D01*
X170083757Y-99647285D01*
X170233644Y-99694256D01*
X170246694Y-99696869D01*
X170301586Y-99701913D01*
X170313124Y-99698525D01*
X170314329Y-99697135D01*
X170316000Y-99689452D01*
X170316000Y-98992115D01*
X170311525Y-98976876D01*
X170310135Y-98975671D01*
X170302452Y-98974000D01*
X169680116Y-98974000D01*
X169664877Y-98978475D01*
X169663672Y-98979865D01*
X169662001Y-98987548D01*
X169662001Y-99048705D01*
X165965578Y-99048705D01*
X165970377Y-99032910D01*
X165972555Y-99022837D01*
X165973986Y-99011962D01*
X165971775Y-98997778D01*
X165958617Y-98994000D01*
X164512000Y-98994000D01*
X164443879Y-98973998D01*
X164397386Y-98920342D01*
X164386000Y-98868000D01*
X164386000Y-98612000D01*
X164406002Y-98543879D01*
X164459658Y-98497386D01*
X164512000Y-98486000D01*
X165958344Y-98486000D01*
X165971875Y-98482027D01*
X165973180Y-98472947D01*
X165931214Y-98305875D01*
X165927894Y-98296124D01*
X165842972Y-98100814D01*
X165838105Y-98091739D01*
X165722426Y-97912926D01*
X165716136Y-97904757D01*
X165572806Y-97747240D01*
X165565273Y-97740215D01*
X165398139Y-97608222D01*
X165389556Y-97602520D01*
X165352602Y-97582120D01*
X165302631Y-97531687D01*
X165287859Y-97462245D01*
X165312975Y-97395839D01*
X165340327Y-97369232D01*
X165375029Y-97344479D01*
X165519860Y-97241173D01*
X165569002Y-97192203D01*
X165656075Y-97105433D01*
X165678096Y-97083489D01*
X165690765Y-97065859D01*
X165805435Y-96906277D01*
X165808453Y-96902077D01*
X165811890Y-96895124D01*
X165905136Y-96706453D01*
X165905137Y-96706451D01*
X165907430Y-96701811D01*
X165953213Y-96551122D01*
X165970865Y-96493023D01*
X165970865Y-96493021D01*
X165972370Y-96488069D01*
X166001529Y-96266590D01*
X166001722Y-96258701D01*
X166003074Y-96203365D01*
X166003074Y-96203361D01*
X166003156Y-96200000D01*
X165984852Y-95977361D01*
X165930431Y-95760702D01*
X165841354Y-95555840D01*
X165774958Y-95453207D01*
X165722822Y-95372617D01*
X165722820Y-95372614D01*
X165720014Y-95368277D01*
X165569670Y-95203051D01*
X165565619Y-95199852D01*
X165565615Y-95199848D01*
X165398414Y-95067800D01*
X165398410Y-95067798D01*
X165394359Y-95064598D01*
X165372080Y-95052299D01*
X165291107Y-95007600D01*
X165198789Y-94956638D01*
X165193920Y-94954914D01*
X165193916Y-94954912D01*
X164993087Y-94883795D01*
X164993083Y-94883794D01*
X164988212Y-94882069D01*
X164983119Y-94881162D01*
X164983116Y-94881161D01*
X164773373Y-94843800D01*
X164773367Y-94843799D01*
X164768284Y-94842894D01*
X164694452Y-94841992D01*
X164550081Y-94840228D01*
X164550079Y-94840228D01*
X164544911Y-94840165D01*
X164324091Y-94873955D01*
X164111756Y-94943357D01*
X164048448Y-94976313D01*
X163988347Y-95007600D01*
X163913607Y-95046507D01*
X163909474Y-95049610D01*
X163909471Y-95049612D01*
X163873651Y-95076507D01*
X163800152Y-95131691D01*
X163733668Y-95156597D01*
X163664273Y-95141605D01*
X163613999Y-95091474D01*
X163598500Y-95030931D01*
X163598500Y-92868623D01*
X163598502Y-92867853D01*
X163598800Y-92819102D01*
X163598976Y-92790279D01*
X163590850Y-92761847D01*
X163587272Y-92745085D01*
X163585117Y-92730038D01*
X163583080Y-92715813D01*
X163572451Y-92692436D01*
X163566004Y-92674913D01*
X163565019Y-92671468D01*
X163558949Y-92650229D01*
X163554156Y-92642632D01*
X163543170Y-92625220D01*
X163535030Y-92610135D01*
X163532564Y-92604711D01*
X163522792Y-92583218D01*
X163506026Y-92563760D01*
X163494927Y-92548761D01*
X163481224Y-92527042D01*
X163474499Y-92521103D01*
X163474496Y-92521099D01*
X163459062Y-92507468D01*
X163447018Y-92495276D01*
X163433573Y-92479673D01*
X163433570Y-92479671D01*
X163427713Y-92472873D01*
X163414009Y-92463990D01*
X163406165Y-92458906D01*
X163391291Y-92447615D01*
X163378779Y-92436565D01*
X163378776Y-92436563D01*
X163372049Y-92430622D01*
X163363928Y-92426809D01*
X163363535Y-92426551D01*
X163317582Y-92372433D01*
X163308182Y-92302061D01*
X163338321Y-92237779D01*
X163380562Y-92206541D01*
X163403334Y-92196187D01*
X163406191Y-92194930D01*
X163426706Y-92186209D01*
X163432979Y-92183542D01*
X163457723Y-92173023D01*
X163457724Y-92173023D01*
X163465984Y-92169511D01*
X163470945Y-92165446D01*
X163476782Y-92162792D01*
X163487642Y-92153435D01*
X163510580Y-92133670D01*
X163526011Y-92120374D01*
X163528383Y-92118381D01*
X163571705Y-92082883D01*
X163571709Y-92082879D01*
X163578649Y-92077192D01*
X163582269Y-92071899D01*
X163587127Y-92067713D01*
X163622483Y-92013167D01*
X163624204Y-92010582D01*
X163655806Y-91964374D01*
X163655807Y-91964372D01*
X163660874Y-91956963D01*
X163662862Y-91950869D01*
X163666352Y-91945485D01*
X163669383Y-91935352D01*
X163684965Y-91883247D01*
X163685896Y-91880269D01*
X163703266Y-91827027D01*
X163703267Y-91827022D01*
X163706051Y-91818488D01*
X163706249Y-91812077D01*
X163708086Y-91805934D01*
X163708141Y-91796958D01*
X163708893Y-91791925D01*
X163711389Y-91770697D01*
X163715701Y-91752108D01*
X163741509Y-91640859D01*
X164337132Y-91640859D01*
X164350457Y-91844151D01*
X164400605Y-92041610D01*
X164485898Y-92226624D01*
X164603479Y-92392997D01*
X164659546Y-92447615D01*
X164739258Y-92525267D01*
X164749410Y-92535157D01*
X164754206Y-92538362D01*
X164754209Y-92538364D01*
X164853505Y-92604711D01*
X164918803Y-92648342D01*
X164924106Y-92650620D01*
X164924109Y-92650622D01*
X165087436Y-92720793D01*
X165105987Y-92728763D01*
X165162710Y-92741598D01*
X165299055Y-92772450D01*
X165299060Y-92772451D01*
X165304692Y-92773725D01*
X165310463Y-92773952D01*
X165310465Y-92773952D01*
X165373470Y-92776427D01*
X165508263Y-92781723D01*
X165709883Y-92752490D01*
X165715347Y-92750635D01*
X165715352Y-92750634D01*
X165897327Y-92688862D01*
X165897332Y-92688860D01*
X165902799Y-92687004D01*
X165918197Y-92678381D01*
X166003476Y-92630622D01*
X166080551Y-92587458D01*
X166237186Y-92457186D01*
X166367458Y-92300551D01*
X166453753Y-92146460D01*
X166464180Y-92127842D01*
X166464181Y-92127840D01*
X166467004Y-92122799D01*
X166468860Y-92117332D01*
X166468862Y-92117327D01*
X166530634Y-91935352D01*
X166530635Y-91935347D01*
X166532490Y-91929883D01*
X166561723Y-91728263D01*
X166563249Y-91670000D01*
X166544608Y-91467126D01*
X166538165Y-91444280D01*
X166490875Y-91276606D01*
X166490874Y-91276604D01*
X166489307Y-91271047D01*
X166486729Y-91265818D01*
X166401756Y-91093510D01*
X166399201Y-91088329D01*
X166380796Y-91063681D01*
X166280758Y-90929715D01*
X166280758Y-90929714D01*
X166277305Y-90925091D01*
X166168506Y-90824518D01*
X166131943Y-90790719D01*
X166131940Y-90790717D01*
X166127703Y-90786800D01*
X166067343Y-90748716D01*
X165960288Y-90681169D01*
X165960283Y-90681167D01*
X165955404Y-90678088D01*
X165766180Y-90602595D01*
X165566366Y-90562849D01*
X165560592Y-90562773D01*
X165560588Y-90562773D01*
X165457452Y-90561424D01*
X165362655Y-90560183D01*
X165356958Y-90561162D01*
X165356957Y-90561162D01*
X165180970Y-90591402D01*
X165161870Y-90594684D01*
X164970734Y-90665198D01*
X164965773Y-90668150D01*
X164965772Y-90668150D01*
X164818677Y-90755663D01*
X164795649Y-90769363D01*
X164642478Y-90903690D01*
X164638911Y-90908215D01*
X164638906Y-90908220D01*
X164553427Y-91016651D01*
X164516351Y-91063681D01*
X164513662Y-91068792D01*
X164513660Y-91068795D01*
X164485609Y-91122111D01*
X164421492Y-91243978D01*
X164361078Y-91438543D01*
X164337132Y-91640859D01*
X163741509Y-91640859D01*
X163759479Y-91563395D01*
X163764387Y-91547243D01*
X163768930Y-91535250D01*
X163851590Y-91317003D01*
X163858615Y-91301652D01*
X163866792Y-91286548D01*
X163975811Y-91085156D01*
X163984825Y-91070880D01*
X164129923Y-90871986D01*
X164140767Y-90859042D01*
X164311150Y-90681341D01*
X164323625Y-90669964D01*
X164325904Y-90668150D01*
X164516250Y-90516629D01*
X164530119Y-90507034D01*
X164741509Y-90380836D01*
X164756553Y-90373172D01*
X164982925Y-90276369D01*
X164998859Y-90270786D01*
X165236118Y-90205125D01*
X165252657Y-90201721D01*
X165463280Y-90172924D01*
X165486605Y-90172338D01*
X165490125Y-90172139D01*
X165499068Y-90172906D01*
X165507865Y-90171133D01*
X165507868Y-90171133D01*
X165508612Y-90170983D01*
X165533502Y-90168500D01*
X167915500Y-90168500D01*
X167983621Y-90188502D01*
G37*
%TD.AperFunction*%
%TD*%
M02*
